<svg xmlns="http://www.w3.org/2000/svg" xmlns:xlink="http://www.w3.org/1999/xlink" width="166.268" height="151.521" viewBox="0 0 166.268 151.521">
  <defs>
    <clipPath id="clip-path">
      <rect id="Rect치ngulo_401463" data-name="Rect치ngulo 401463" width="132.339" height="151.522" fill="none"/>
    </clipPath>
  </defs>
  <g id="Grupo_1100067" data-name="Grupo 1100067" transform="translate(-223.533 -5957)">
    <g id="Grupo_1099649" data-name="Grupo 1099649" transform="translate(225.033 5957)">
      <rect id="Rect치ngulo_401392" data-name="Rect치ngulo 401392" width="163.268" height="129.19" rx="20" transform="translate(0 3.765)" fill="none" stroke="#53bced" stroke-width="3"/>
      <g id="Grupo_1099597" data-name="Grupo 1099597" transform="translate(14.441 0)">
        <g id="Grupo_1099596" data-name="Grupo 1099596" clip-path="url(#clip-path)">
          <path id="Trazado_875543" data-name="Trazado 875543" d="M83.252,100.6a14.118,14.118,0,0,1-6.4,11.086L9.32,150.677c-1.817,1.054-3.462,1.13-4.634.408L2.04,149.547c-1.154-.675-1.865-2.1-1.87-4.119L0,50.987A14.1,14.1,0,0,1,6.4,39.9L73.935.92C75.717-.11,77.333-.2,78.5.47l2.717,1.574a1.882,1.882,0,0,0-.243-.124c1.29.6,2.107,2.083,2.113,4.244Z" transform="translate(-0.004 -0.038)" fill="#dde9fe"/>
          <path id="Trazado_875544" data-name="Trazado 875544" d="M81.211,2.009c-1.17-.677-2.787-.582-4.567.448L9.115,41.447a14.084,14.084,0,0,0-6.4,11.077l.162,94.447c.006,2.021.722,3.448,1.875,4.119l-2.717-1.582c-1.153-.672-1.864-2.093-1.869-4.12L0,50.948A14.109,14.109,0,0,1,6.4,39.865L73.932.881c1.78-1.03,3.4-1.125,4.562-.448Z" transform="translate(0 0)" fill="#c7d8ef"/>
          <path id="Trazado_875545" data-name="Trazado 875545" d="M150.987,45.624c3.545-2.047,6.428-.4,6.439,3.669l.164,94.442a14.105,14.105,0,0,1-6.4,11.085L83.663,193.808c-3.545,2.047-6.428.4-6.439-3.674L77.06,95.692a14.1,14.1,0,0,1,6.4-11.081Z" transform="translate(-74.345 -43.166)" fill="#dde9fe"/>
          <path id="Trazado_875546" data-name="Trazado 875546" d="M206.719,234.667a9.656,9.656,0,0,1,4.113-7.111l67.116-38.749.162,93.928A9.659,9.659,0,0,1,274,289.849l-63.99,36.944a2.089,2.089,0,0,1-3.133-1.8Z" transform="translate(-199.434 -182.153)" fill="#fff"/>
          <path id="Trazado_875547" data-name="Trazado 875547" d="M451.249,241.01a5.18,5.18,0,0,1-2.344,4.06l-69.587,40.171a1.649,1.649,0,0,1-1.669.166c-.018-.006-.03-.018-.035-.018l-1.835-1.06a1.655,1.655,0,0,1-.681-1.515l-.024-6.978a5.147,5.147,0,0,1,2.344-4.054L447,231.605a1.688,1.688,0,0,1,1.675-.166l1.781,1.042a1.586,1.586,0,0,1,.769,1.557Z" transform="translate(-361.858 -223.136)" fill="#285294"/>
          <path id="Trazado_875548" data-name="Trazado 875548" d="M450.563,232.5a1.663,1.663,0,0,0-1.672.164l-69.583,40.175a5.156,5.156,0,0,0-2.343,4.057l.021,6.976a1.658,1.658,0,0,0,.685,1.507L375.8,284.3a1.642,1.642,0,0,1-.685-1.514l-.02-6.976a5.147,5.147,0,0,1,2.343-4.057l69.583-40.175a1.662,1.662,0,0,1,1.672-.164Z" transform="translate(-361.881 -223.11)" fill="#0d66bf"/>
          <path id="Trazado_875549" data-name="Trazado 875549" d="M500.037,262.357c1.3-.75,2.353-.15,2.357,1.343l.02,6.978a5.154,5.154,0,0,1-2.342,4.056l-69.585,40.175c-1.3.75-2.353.15-2.357-1.343l-.02-6.978a5.154,5.154,0,0,1,2.342-4.056Z" transform="translate(-413.025 -252.801)" fill="#53bced"/>
          <path id="Trazado_875550" data-name="Trazado 875550" d="M547.883,1481.2c.844-.488,1.532-.1,1.535.871a3.362,3.362,0,0,1-1.525,2.641c-.845.488-1.529.094-1.532-.876a3.355,3.355,0,0,1,1.522-2.636" transform="translate(-527.108 -1428.808)" fill="#fff"/>
          <path id="Trazado_875551" data-name="Trazado 875551" d="M703.3,1391.485c.844-.488,1.529-.094,1.532.873a3.356,3.356,0,0,1-1.522,2.639c-.845.488-1.529.094-1.532-.876a3.355,3.355,0,0,1,1.522-2.636" transform="translate(-677.047 -1342.25)" fill="#fff"/>
          <path id="Trazado_875552" data-name="Trazado 875552" d="M858.713,1301.755c.845-.488,1.529-.094,1.532.873a3.356,3.356,0,0,1-1.522,2.639c-.845.488-1.529.094-1.532-.876a3.356,3.356,0,0,1,1.522-2.636" transform="translate(-826.985 -1255.683)" fill="#fff"/>
          <path id="Trazado_875553" data-name="Trazado 875553" d="M371.69,2992.935a.578.578,0,0,1-.289-1.078l17.146-9.9a.578.578,0,1,1,.578,1l-17.146,9.9a.577.577,0,0,1-.288.078" transform="translate(-358.034 -2876.806)" fill="#dde9fe"/>
          <path id="Trazado_875554" data-name="Trazado 875554" d="M989.5,2284.042a.578.578,0,0,1-.289-1.078l39.428-22.763a.578.578,0,1,1,.578,1l-39.428,22.763a.577.577,0,0,1-.288.077" transform="translate(-954.074 -2180.481)" fill="#dde9fe"/>
          <path id="Trazado_875555" data-name="Trazado 875555" d="M371.69,2430.81a.578.578,0,0,1-.289-1.078l40.085-23.142a.578.578,0,1,1,.578,1l-40.085,23.143a.574.574,0,0,1-.288.077" transform="translate(-358.034 -2321.712)" fill="#dde9fe"/>
          <path id="Trazado_875556" data-name="Trazado 875556" d="M371.69,2507.631a.578.578,0,0,1-.289-1.078l60.472-34.913a.578.578,0,1,1,.578,1l-60.472,34.912a.574.574,0,0,1-.288.078" transform="translate(-358.034 -2384.47)" fill="#dde9fe"/>
          <path id="Trazado_875557" data-name="Trazado 875557" d="M371.69,2707.168a.578.578,0,0,1-.289-1.079l60.472-34.912a.578.578,0,1,1,.578,1l-60.472,34.913a.577.577,0,0,1-.288.078" transform="translate(-358.034 -2576.976)" fill="#dde9fe"/>
          <path id="Trazado_875558" data-name="Trazado 875558" d="M371.69,2906.706a.578.578,0,0,1-.289-1.078l60.472-34.913a.578.578,0,1,1,.578,1l-60.472,34.912a.577.577,0,0,1-.288.078" transform="translate(-358.034 -2769.483)" fill="#dde9fe"/>
          <path id="Trazado_875559" data-name="Trazado 875559" d="M1646.883,2111.416a.578.578,0,0,1-.29-1.078l13.715-7.918a.578.578,0,1,1,.578,1l-13.715,7.918a.574.574,0,0,1-.288.078" transform="translate(-1588.293 -2028.261)" fill="#dde9fe"/>
          <path id="Trazado_875560" data-name="Trazado 875560" d="M371.69,2585.024a.578.578,0,0,1-.289-1.078l17.705-10.222a.578.578,0,1,1,.578,1l-17.705,10.222a.574.574,0,0,1-.288.077" transform="translate(-358.034 -2482.957)" fill="#dde9fe"/>
          <path id="Trazado_875561" data-name="Trazado 875561" d="M1025.153,1924.523a.578.578,0,0,1-.289-1.078l35.623-20.567a.578.578,0,1,1,.578,1l-35.623,20.567a.574.574,0,0,1-.288.077" transform="translate(-988.471 -1835.751)" fill="#dde9fe"/>
          <path id="Trazado_875562" data-name="Trazado 875562" d="M371.69,2082.2a.578.578,0,0,1-.289-1.078l36.893-21.3a.578.578,0,1,1,.578,1l-36.893,21.3a.574.574,0,0,1-.288.078" transform="translate(-358.034 -1987.165)" fill="#dde9fe"/>
          <path id="Trazado_875563" data-name="Trazado 875563" d="M1549.507,1714.328a.578.578,0,0,1-.289-1.078l17.146-9.9a.578.578,0,1,1,.578,1l-17.146,9.9a.576.576,0,0,1-.288.077" transform="translate(-1494.348 -1643.254)" fill="#dde9fe"/>
          <path id="Trazado_875564" data-name="Trazado 875564" d="M371.69,2319.4a.578.578,0,0,1-.289-1.078l9.263-5.348a.578.578,0,0,1,.578,1l-9.263,5.348a.574.574,0,0,1-.288.077" transform="translate(-358.034 -2231.397)" fill="#dde9fe"/>
          <path id="Trazado_875565" data-name="Trazado 875565" d="M767.985,1530.684a.578.578,0,0,1-.289-1.078l44.685-25.8a.578.578,0,1,1,.578,1l-44.685,25.8a.574.574,0,0,1-.288.078" transform="translate(-740.365 -1450.741)" fill="#dde9fe"/>
          <path id="Trazado_875566" data-name="Trazado 875566" d="M371.69,1724.228a.578.578,0,0,1-.289-1.078l34.293-19.8a.578.578,0,1,1,.578,1l-34.293,19.8a.577.577,0,0,1-.288.078" transform="translate(-358.034 -1643.254)" fill="#dde9fe"/>
          <path id="Trazado_875567" data-name="Trazado 875567" d="M1505.912,1316.132a.578.578,0,0,1-.289-1.078l18.682-10.786a.578.578,0,1,1,.578,1l-18.682,10.786a.575.575,0,0,1-.288.078" transform="translate(-1452.289 -1258.233)" fill="#dde9fe"/>
          <path id="Trazado_875568" data-name="Trazado 875568" d="M371.69,1856.767a.578.578,0,0,1-.289-1.078l13.285-7.67a.578.578,0,1,1,.578,1l-13.285,7.67a.576.576,0,0,1-.288.077" transform="translate(-358.034 -1782.825)" fill="#dde9fe"/>
          <path id="Trazado_875569" data-name="Trazado 875569" d="M1831.644,1109.975a.578.578,0,0,1-.289-1.078l7.2-4.159a.578.578,0,1,1,.578,1l-7.2,4.159a.575.575,0,0,1-.288.077" transform="translate(-1766.543 -1065.734)" fill="#dde9fe"/>
          <path id="Trazado_875570" data-name="Trazado 875570" d="M906.458,3168.349a4.949,4.949,0,0,1-2.267,3.912,1.646,1.646,0,0,1-1.474.207l-7.18-3.042a1.688,1.688,0,0,0-1.491.219,4.48,4.48,0,0,0-1.486,1.5l-7.138,11.311a4.449,4.449,0,0,1-1.474,1.5,1.633,1.633,0,0,1-1.634.16c-.012-.006-.018-.012-.03-.018l-4.273-2.492a1.541,1.541,0,0,1-.651-1.438l-.059-21.473,4.309,2.5c3.705.124,7.925-1.036,12.406-3.622a47.75,47.75,0,0,0,12.382-10.689Z" transform="translate(-846.388 -3035.993)" fill="#5789dc"/>
          <path id="Trazado_875571" data-name="Trazado 875571" d="M882.318,3507.376l-4.309-2.506a1.549,1.549,0,0,1-.648-1.442l-.061-21.472,4.309,2.506.061,21.465a1.56,1.56,0,0,0,.648,1.449" transform="translate(-846.386 -3359.26)" fill="#e93f25"/>
          <path id="Trazado_875572" data-name="Trazado 875572" d="M1229.423,3086.542a47.7,47.7,0,0,0,12.38-10.69l4.308,2.5a47.7,47.7,0,0,1-12.38,10.69l-4.308-2.5" transform="translate(-1186.101 -2967.467)" fill="#c7d8ef"/>
          <path id="Trazado_875573" data-name="Trazado 875573" d="M877.3,3382.836c3.7.124,7.927-1.033,12.408-3.62l4.308,2.5c-4.48,2.587-8.7,3.743-12.408,3.62l-4.308-2.5" transform="translate(-846.389 -3260.141)" fill="#c7d8ef"/>
          <path id="Trazado_875574" data-name="Trazado 875574" d="M999.553,3161.206c3.7.124,7.927-1.033,12.408-3.62a47.7,47.7,0,0,0,12.38-10.69l.061,21.469a4.957,4.957,0,0,1-2.265,3.912,1.657,1.657,0,0,1-1.476.206l-7.181-3.044a1.7,1.7,0,0,0-1.489.219,4.5,4.5,0,0,0-1.485,1.5l-7.14,11.313a4.439,4.439,0,0,1-1.472,1.5c-1.166.673-2.275.262-2.28-1.289Z" transform="translate(-964.331 -3036.007)" fill="#ff725d"/>
          <path id="Trazado_875575" data-name="Trazado 875575" d="M533.4,1572.348c.03,11.636-5.635,25.042-13.98,34.974a47.738,47.738,0,0,1-12.382,10.689c-4.481,2.587-8.7,3.747-12.406,3.622a13.392,13.392,0,0,1-6.854-2.042c.142.089.29.177.438.266l-4.309-2.51c-4.753-2.752-7.689-8.624-7.718-16.963-.047-16.786,11.755-37.229,26.368-45.663,7.351-4.25,14.01-4.64,18.816-1.847l4.036,2.35c4.907,2.693,7.967,8.624,7.99,17.123" transform="translate(-459.408 -1496.434)" fill="#b0c4ff"/>
          <path id="Trazado_875576" data-name="Trazado 875576" d="M525.762,1555.363c-4.81-2.793-11.466-2.4-18.813,1.84-14.614,8.441-26.417,28.886-26.368,45.67.018,8.337,2.964,14.2,7.713,16.967l-4.309-2.506c-4.749-2.757-7.689-8.624-7.713-16.967-.049-16.784,11.754-37.229,26.368-45.664,7.347-4.248,14.009-4.639,18.813-1.846Z" transform="translate(-459.489 -1496.416)" fill="#0d66bf"/>
          <path id="Trazado_875577" data-name="Trazado 875577" d="M624.854,1625.774c14.607-8.433,26.485-1.66,26.533,15.125.033,11.639-5.633,25.042-13.98,34.977a47.707,47.707,0,0,1-12.38,10.69c-4.48,2.587-8.7,3.743-12.408,3.62-8.378-.279-14.1-7.106-14.133-18.744-.048-16.784,11.754-37.229,26.368-45.667" transform="translate(-577.397 -1564.987)" fill="#53bced"/>
          <path id="Trazado_875578" data-name="Trazado 875578" d="M767.294,1815.227c11.715-6.764,21.276-1.311,21.314,12.15s-9.46,29.918-21.175,36.682-21.283,1.32-21.321-12.146,9.464-29.92,21.183-36.686" transform="translate(-719.82 -1748.46)" fill="#fff6ce"/>
          <path id="Trazado_875579" data-name="Trazado 875579" d="M991.375,2172.714a2.422,2.422,0,0,0-.474,1.989l2.107,6.185a2.734,2.734,0,0,1-1.267,2.74,1.043,1.043,0,0,1-.775.154l-5.487-1.408a1.059,1.059,0,0,0-.781.16,2.537,2.537,0,0,0-.781.74L978.46,2191a2.668,2.668,0,0,1-.775.746.924.924,0,0,1-1.024.041l-1.172-.675c-.326-.189-.485-.657-.32-1.361l2.072-8.6a1.785,1.785,0,0,0,.012-.9l-4.747-1.219a.559.559,0,0,1-.2-.089l-1.214-.7c-.8-.468-.26-2.45.953-3.149l6.759-3.9a2.971,2.971,0,0,0,1.266-1.788l2.066-8.6a2.893,2.893,0,0,1,1.261-1.787.976.976,0,0,1,.953-.1l1.2.7a.721.721,0,0,1,.361.444l2,5.872c.047-.024.095-.047.142-.077l6.759-3.9a.936.936,0,0,1,.941-.106l1.237.716c-.012-.006-.018-.012-.03-.012.556.284.616,1.391-.124,2.433Z" transform="translate(-936.508 -2082.766)" fill="#c7d8ef"/>
          <path id="Trazado_875580" data-name="Trazado 875580" d="M1444.385,2242.051a.926.926,0,0,0-.941.1l-6.761,3.9a.945.945,0,0,1-.949.093l1.235.718a.945.945,0,0,0,.949-.093l6.761-3.9a.926.926,0,0,1,.941-.1Z" transform="translate(-1385.142 -2162.963)" fill="#ff9539"/>
          <path id="Trazado_875581" data-name="Trazado 875581" d="M1098.329,2754.226l-1.235-.717c.347.2.479.723.324,1.364l-2.068,8.6c-.17.7-.006,1.174.318,1.362l1.235.718c-.324-.188-.488-.657-.318-1.362l2.068-8.6c.155-.641.023-1.162-.324-1.364" transform="translate(-1056.687 -2656.481)" fill="#ff9539"/>
          <path id="Trazado_875582" data-name="Trazado 875582" d="M983.414,2158.989a2.894,2.894,0,0,0-1.263,1.788l-2.068,8.6a2.968,2.968,0,0,1-1.263,1.788l-6.761,3.9c-1.211.7-1.752,2.682-.951,3.147l1.235.718c-.8-.465-.26-2.448.951-3.147l6.761-3.9a2.967,2.967,0,0,0,1.263-1.788l2.068-8.6a2.9,2.9,0,0,1,1.263-1.788.955.955,0,0,1,.947-.1l-1.235-.718a.955.955,0,0,0-.947.1" transform="translate(-936.522 -2082.73)" fill="#ff9539"/>
          <path id="Trazado_875583" data-name="Trazado 875583" d="M1018.455,2179.353c.534-.308,1.068-.264,1.269.325l2.11,6.184c.178.528.692.659,1.269.325l6.761-3.9c1.289-.744,1.831.841.789,2.315l-5.455,7.722a2.42,2.42,0,0,0-.478,1.989l2.11,6.184a2.743,2.743,0,0,1-1.266,2.744,1.045,1.045,0,0,1-.778.151l-5.485-1.409a1.066,1.066,0,0,0-.782.16,2.569,2.569,0,0,0-.782.743l-5.459,7.727a2.541,2.541,0,0,1-.775.746c-.832.48-1.577-.027-1.277-1.276l2.069-8.6c.177-.733-.022-1.311-.488-1.43l-5.483-1.407c-1.045-.27-.516-2.473.775-3.218l6.761-3.9a2.969,2.969,0,0,0,1.263-1.788l2.068-8.6a2.894,2.894,0,0,1,1.263-1.788" transform="translate(-970.329 -2102.376)" fill="#ffdc39"/>
          <path id="Trazado_875584" data-name="Trazado 875584" d="M2840.456,3512.826c-.232,1.992-1.519,3.333-3.426,4.291a7.593,7.593,0,0,1-.8.334c-2.353.863-4.436,1.784-4.481,3.151v.571a2.119,2.119,0,0,0,1.666,2.087,8.394,8.394,0,0,0,3.383-.089,10.3,10.3,0,0,0,2.772-1.017,10.922,10.922,0,0,1,3.989-1.39c1.784-.057,2.825-.7,2.851-2.158v-5.415Z" transform="translate(-2731.97 -3389.043)" fill="#fc6c85"/>
          <path id="Trazado_875585" data-name="Trazado 875585" d="M2846.358,3522.539v5.418c-.027,1.455-1.066,2.1-2.851,2.158a10.824,10.824,0,0,0-3.991,1.391,10.43,10.43,0,0,1-2.77,1.018,8.473,8.473,0,0,1-3.383.085,2.115,2.115,0,0,1-1.668-2.088v-.458a2.069,2.069,0,0,0,1.3.884,8.391,8.391,0,0,0,3.383-.091,10.219,10.219,0,0,0,2.771-1.018,11.032,11.032,0,0,1,3.991-1.391c1.785-.053,2.823-.7,2.851-2.158v-3.772Z" transform="translate(-2731.913 -3398.392)" fill="#ea2856"/>
          <path id="Trazado_875586" data-name="Trazado 875586" d="M3419.505,3725.324l-.716,6.149c-.459,4.1-2.089,6.351-4.508,7.352a3,3,0,0,1-.524.163c-1.493.318-2.471-.039-2.724-1.344a3.389,3.389,0,0,1,.062-1.46l1.505-6.1a19.909,19.909,0,0,0,.582-5.063Z" transform="translate(-3290.785 -3593.765)" fill="#fc6c85"/>
          <path id="Trazado_875587" data-name="Trazado 875587" d="M3422.547,3731.4l-.714,6.149c-.458,4.1-2.088,6.351-4.508,7.353a2.985,2.985,0,0,1-.527.165c-1.4.3-2.339.005-2.664-1.1a4,4,0,0,0,1.247-.1,3.125,3.125,0,0,0,.522-.165c2.419-1,4.05-3.25,4.508-7.353l.586-5.024Z" transform="translate(-3293.828 -3599.846)" fill="#ea2856"/>
          <path id="Trazado_875588" data-name="Trazado 875588" d="M2937.3,2176.979c-.134,4.168-.079,8.3.19,12.4a62,62,0,0,0,.893,7.139l2.06,11.212c.131.714.3,1.42.483,2.124a59.83,59.83,0,0,1,1.261,12.049c-.1,2.771,5.982,2.989,6.081.217v-9.829a42.316,42.316,0,0,0-.246-4.479,62.9,62.9,0,0,1,.246-17.76,27.648,27.648,0,0,1,1.86,6.92,49.766,49.766,0,0,0,1.3,6.54,60.831,60.831,0,0,0,2.607,7.43c1.93,4.544,2.024,10.687,2.077,18.447-.26,2.525,6.076,3.177,6.335.652,0,0,.447-12.3.017-16.615-.219-2.2-1.547-8.633-1.547-8.633-2.049-7.134-1.7-15.6-.225-24.683,0,0-14.435-4.718-14.842-4.962s-8.552,1.828-8.552,1.828" transform="translate(-2833.728 -2098.485)" fill="#353437"/>
          <path id="Trazado_875589" data-name="Trazado 875589" d="M3129.2,2452.749a63.661,63.661,0,0,0-.144,17.146,43.527,43.527,0,0,1,.245,4.481v9.83c-.042,1.226-1.252,1.865-2.584,1.955a5.059,5.059,0,0,1-.714-.8,4.146,4.146,0,0,1-.8-1.8,6.5,6.5,0,0,1,.192-2.19,17.848,17.848,0,0,0,.245-6.378,25.847,25.847,0,0,1-.49-2.84c-.091-1.657.479-3.3.421-4.955-.059-1.55-.666-3.1-.368-4.625a9.328,9.328,0,0,0,.522-2.515,9.473,9.473,0,0,0-.666-1.96,3.991,3.991,0,0,1,.026-2.494,10.7,10.7,0,0,0,.986-2.611,13.692,13.692,0,0,0-.106-1.46c-.027-.938,2.035-5.413,3.261-4.673.847.512.24,4.385.075,5.27-.038.2-.075.41-.1.613" transform="translate(-3014.76 -2360.565)" fill="#29282b"/>
          <path id="Trazado_875590" data-name="Trazado 875590" d="M3470.378,2344.417c-.117,1.145-1.486,1.636-2.919,1.593a5.833,5.833,0,0,1-.746-2.493,12.183,12.183,0,0,1,.373-2.9,29.176,29.176,0,0,0,.453-4.619,83.9,83.9,0,0,0-.458-9.532,11.629,11.629,0,0,0-.368-2.344c-.272-.9-.757-1.732-.986-2.648-.586-2.35.607-4.811.331-7.214a16.916,16.916,0,0,0-1.6-4.491,6.4,6.4,0,0,1-.485-4.641c.448-1.177,1.481-2.11,1.705-3.351a5.931,5.931,0,0,0-.17-2.136,8.729,8.729,0,0,1,.661-5.957l2.456.8c-1.476,9.084-1.828,17.551.224,24.685,0,0,1.326,6.431,1.545,8.631.432,4.316-.016,16.613-.016,16.613" transform="translate(-3341.66 -2212.859)" fill="#29282b"/>
          <path id="Trazado_875591" data-name="Trazado 875591" d="M2062.47,1093.468s-3.4-3.763-6.59-3.5a4.805,4.805,0,0,1-2.777-.6l-1.313-.745a.711.711,0,0,0-.811,1.161l4.98,4.219.685.369c-2.641-1.625-2.276.848-1.867,1.407.949,1.3,3.673,2.04,3.673,2.04l3.672,2.395a16.5,16.5,0,0,0,2.275-1.815c.006-.224-1.221-3.491-1.221-3.491a2.748,2.748,0,0,0-.706-1.444" transform="translate(-1978.465 -1050.178)" fill="#f7b2b2"/>
          <path id="Trazado_875592" data-name="Trazado 875592" d="M2317.439,1151.419c-5.845-5.075-11.9-7.178-17.868-6.452a7.168,7.168,0,0,0-4.362,2.185c-2.381,2.533-5.32,7.168-8.171,11.681a152.745,152.745,0,0,1-13.151-11.056c1.242,1.147-2.778,5.5-4.021,4.355,5.066,6.887,10.732,13.307,17.841,15.412,1.237.366,5.025-1.172,5.025-1.172l-.084,15.5c-1.181,10.7,23.864,13.462,25.044,2.764l-.921-5.361s4.929.211,5.193-1.089c1.075-5.3-1.588-20.865-1.588-20.865-.548-3.049-1.217-4.4-2.938-5.9" transform="translate(-2189.882 -1104.487)" fill="#ffea02"/>
          <path id="Trazado_875593" data-name="Trazado 875593" d="M2296.581,1337.366a2.865,2.865,0,0,1-.85,1.914,17.594,17.594,0,0,1-3.048,2.845l.025-4.516s-3.792,1.539-5.027,1.175c-7.108-2.106-12.774-8.526-17.842-15.417.573.526,1.727-.1,2.689-1.048a3.231,3.231,0,0,1,.309.334,13.413,13.413,0,0,1,1.19,2.04,7.333,7.333,0,0,0,2.486,2.785c1.038.643,2.375,1,2.952,2.076a9.846,9.846,0,0,1,.405,1.083,5.084,5.084,0,0,0,3.919,2.906,6,6,0,0,1,2.147.552c.39.243.688.6,1.053.881,1.327,1.012,3.225.744,4.795.172a4.024,4.024,0,0,1,2.456-.415,3.364,3.364,0,0,1,1.306.891,2.917,2.917,0,0,1,1.038,1.742" transform="translate(-2189.854 -1275.724)" fill="#e5c400"/>
          <path id="Trazado_875594" data-name="Trazado 875594" d="M2792.233,1467.183l12.356,4.443a1.174,1.174,0,0,1,.758.9l2.889,16.18a1.174,1.174,0,0,1-1.511,1.325l-12.216-3.887a1.174,1.174,0,0,1-.8-.909l-3.03-16.735a1.174,1.174,0,0,1,1.552-1.314" transform="translate(-2692.325 -1415.415)" fill="#6991e2"/>
          <path id="Trazado_875595" data-name="Trazado 875595" d="M2806.751,1490.022l-12.215-3.887a1.16,1.16,0,0,1-.8-.906l-3.032-16.737a1.175,1.175,0,0,1,1.552-1.314l5.759,2.071a10.029,10.029,0,0,0-4.175,8.178,9.912,9.912,0,0,0,9.829,9.995,9.607,9.607,0,0,0,4.191-.955l.4,2.231a1.173,1.173,0,0,1-1.513,1.325" transform="translate(-2692.353 -1415.41)" fill="#5e8bd3"/>
          <path id="Trazado_875596" data-name="Trazado 875596" d="M3412.4,2445.922a16.339,16.339,0,0,0,1.8-.441,15.012,15.012,0,0,1-1.8.446Z" transform="translate(-3292.151 -2359.308)" fill="#e5c400"/>
          <path id="Trazado_875597" data-name="Trazado 875597" d="M3523.175,2401.341a8.664,8.664,0,0,0,1.063-.688,8.1,8.1,0,0,1-1.063.688" transform="translate(-3399.027 -2316.059)" fill="#e5c400"/>
          <path id="Trazado_875598" data-name="Trazado 875598" d="M3571.453,2369.758a7.27,7.27,0,0,0,.542-.572,5.3,5.3,0,0,1-.542.572" transform="translate(-3445.604 -2285.702)" fill="#e5c400"/>
          <path id="Trazado_875599" data-name="Trazado 875599" d="M3611.4,2310.455a5.831,5.831,0,0,0,.294-.754,5.382,5.382,0,0,1-.294.754" transform="translate(-3484.14 -2228.313)" fill="#e5c400"/>
          <path id="Trazado_875600" data-name="Trazado 875600" d="M2814.923,1674.448c.819.588,2.464,2.027,2.464,2.027-.913.759-1.7.735-2.062-.787-1.143,1.459-.708,3.857.9,6.259a1.849,1.849,0,0,0,1.575.817c2.1-.043,3.962-.265,5.066.551l1.3-4.814s-2.136-.781-2.722-1.828c-.462-.824-4.246-2.661-5.835-3.405a.687.687,0,0,0-.69,1.18" transform="translate(-2715.456 -1614.243)" fill="#f7b2b2"/>
          <path id="Trazado_875601" data-name="Trazado 875601" d="M2940.352,1543.222v.005q-.023.205-.061.41c0,.015-.005.03-.005.046-.021.106-.041.213-.066.314-.01.051-.025.106-.04.157-.025.106-.056.213-.091.314a5.851,5.851,0,0,1-.294.754c-.061.121-.122.243-.187.359s-.132.228-.2.339c-.005.01-.01.015-.01.02-.071.106-.142.208-.218.309s-.162.213-.248.314a7.206,7.206,0,0,1-.542.572.14.14,0,0,1-.03.025c-.091.091-.187.172-.284.258s-.212.172-.324.253a8.723,8.723,0,0,1-1.063.688c-.1.056-.2.106-.3.162-.284.147-.582.278-.886.4-.142.056-.279.111-.425.162s-.284.1-.43.147a.294.294,0,0,0-.061.02,16.339,16.339,0,0,1-1.8.441c-7.665,1.418-18.252-2.187-17.478-9.235v-.152a7.328,7.328,0,0,1,1.742.41c1.256.476,2.385,1.382,3.721,1.468a18.715,18.715,0,0,1,2.759-.086,15.422,15.422,0,0,1,2.552,1.316,6.635,6.635,0,0,0,3.139.238l.019,0a1.74,1.74,0,0,0,1.549-2.1c-1.173-5.383-1.974-10.719-.869-11.891,1.759-1.868,3.046-9.164,3.593-12.8a.4.4,0,0,1,.789-.032l5.121,21.028.005.01.486,2.815Z" transform="translate(-2812.538 -1463.079)" fill="#e5c400"/>
          <path id="Trazado_875602" data-name="Trazado 875602" d="M3054.451,1826.736l-16.238-3.155c-2.664-.447-2.788,5.616-.124,6.064l17.967,4.439c1.436-2.789.616-5.189-1.6-7.348" transform="translate(-2929.165 -1759.3)" fill="#ffea02"/>
          <path id="Trazado_875603" data-name="Trazado 875603" d="M3179.052,1147.67a3.186,3.186,0,0,1-.638,1.159l-.334.385a8.226,8.226,0,0,1-5.008,2.8,6.719,6.719,0,0,1-.927.071,3.1,3.1,0,0,1-3.271-2.4,4.281,4.281,0,0,1,.005-1.944l.6-2.724a20.955,20.955,0,0,1,9.574,2.653" transform="translate(-3057.106 -1104.669)" fill="#f4d600"/>
          <path id="Trazado_875604" data-name="Trazado 875604" d="M3205.356,1047.56l-.565,2.583a3.029,3.029,0,0,0-.013,1.369c.317,1.283,1.378,1.591,2.784,1.386a6.974,6.974,0,0,0,4.232-2.377l.334-.386a1.928,1.928,0,0,0,.466-1.366l-.161-2.936.607-1.043-.072-1.215s-4.49,1.006-4.718,1.072a21.985,21.985,0,0,0-1.951,1.894Z" transform="translate(-3091.78 -1006.801)" fill="#f7b2b2"/>
          <path id="Trazado_875605" data-name="Trazado 875605" d="M3108,776.794v-3.349h1.9a4.761,4.761,0,0,0-.416-1.338c-.379-.517-7.257-3-7.435-2.992s-6.528,2.642-6.528,2.642c-.032,6.7.622,13.548,3.924,14.294a1.371,1.371,0,0,0,.315.03c2.572-.03,4.952-1.537,7.123-3.324a6.815,6.815,0,0,0,2.132-3.126l.938-2.836Z" transform="translate(-2986.437 -742.013)" fill="#f7b2b2"/>
          <path id="Trazado_875606" data-name="Trazado 875606" d="M3118.945,987.052l-.551,1.663a6.814,6.814,0,0,1-2.128,3.129c-2.169,1.786-4.552,3.29-7.122,3.324a1.432,1.432,0,0,1-.315-.032c-1.857-.419-2.875-2.77-3.409-5.933.469,3.747,1.5,6.636,3.58,7.107a1.388,1.388,0,0,0,.31.031c2.575-.034,4.952-1.539,7.127-3.324a6.815,6.815,0,0,0,2.129-3.129l.939-2.836Z" transform="translate(-2995.991 -952.271)" fill="#eaa7a7"/>
          <path id="Trazado_875607" data-name="Trazado 875607" d="M3615.142,2204.769l-.44-2.542h0Z" transform="translate(-3487.328 -2124.626)" fill="#e5c400"/>
          <path id="Trazado_875608" data-name="Trazado 875608" d="M3268.155,792.421a2.548,2.548,0,0,1,1.985,2.449,6.5,6.5,0,0,0,.842,3.809.681.681,0,0,0,.992.046c1.388-1.325,2.76-2.014,4.064-1.046a12.139,12.139,0,0,0,.228-8.378l-8.112.264Z" transform="translate(-3152.993 -761.487)" fill="#29282b"/>
          <path id="Trazado_875609" data-name="Trazado 875609" d="M3473.054,797.719a2.494,2.494,0,0,0-.691-.363,12.093,12.093,0,0,0,.1-7.991l.816-.024a12.161,12.161,0,0,1-.226,8.378" transform="translate(-3350.006 -761.527)" fill="#1a1a1c"/>
          <path id="Trazado_875610" data-name="Trazado 875610" d="M3044.274,654.321c-1.3-3.43-4.148-4.972-8.282-4.929a9.855,9.855,0,0,0-3.869.815c-2.4,1.054-3.948,2.636-4.4,4.9a1.552,1.552,0,0,0,.292,1.256c1.195,1.544,3.7,1.879,7.178,1.329a5.8,5.8,0,0,0,2.321-.945,12.79,12.79,0,0,1,6.764-2.429" transform="translate(-2921 -626.508)" fill="#353437"/>
          <path id="Trazado_875611" data-name="Trazado 875611" d="M3043.722,653.1c-1.536-1.745-3.853-2.543-6.842-2.513a9.936,9.936,0,0,0-3.871.816c-2.394,1.054-3.948,2.638-4.406,4.906a1.6,1.6,0,0,0,.006.631,2.991,2.991,0,0,1-.566-.566,1.536,1.536,0,0,1-.292-1.256c.452-2.269,2.007-3.847,4.4-4.9a9.829,9.829,0,0,1,3.87-.816c3.6-.036,6.222,1.131,7.7,3.7" transform="translate(-2921.031 -626.517)" fill="#29282b"/>
        </g>
      </g>
    </g>
  </g>
</svg>
