<svg xmlns="http://www.w3.org/2000/svg" xmlns:xlink="http://www.w3.org/1999/xlink" width="193" height="219.916" viewBox="0 0 193 219.916">
  <defs>
    <clipPath id="clip-path">
      <rect id="Rectángulo_401544" data-name="Rectángulo 401544" width="171" height="200.059" fill="none"/>
    </clipPath>
    <clipPath id="clip-path-2">
      <rect id="Rectángulo_401543" data-name="Rectángulo 401543" width="170.999" height="200.059" fill="none"/>
    </clipPath>
    <clipPath id="clip-path-3">
      <rect id="Rectángulo_401542" data-name="Rectángulo 401542" width="52.814" height="58.833" fill="none"/>
    </clipPath>
  </defs>
  <g id="Grupo_1100070" data-name="Grupo 1100070" transform="translate(-380 -7235.5)">
    <g id="Grupo_1099778" data-name="Grupo 1099778" transform="translate(0 1898)">
      <rect id="Rectángulo_401122" data-name="Rectángulo 401122" width="190" height="201" rx="40" transform="translate(381.5 5339)" fill="none" stroke="#ff725d" stroke-miterlimit="10" stroke-width="3"/>
      <g id="Grupo_1099777" data-name="Grupo 1099777" transform="translate(391 5357.357)">
        <g id="Grupo_1099776" data-name="Grupo 1099776" clip-path="url(#clip-path)">
          <path id="Trazado_876462" data-name="Trazado 876462" d="M136.01,71.32l-6.124-13.209L108.374,45.691,78.986,41.143,49.6,45.691,12.237,67.265V54.134L49.6,32.557l29.385-4.544,29.389,4.544,21.512,12.424,7.87,16.961Z" transform="translate(27.625 63.237)" fill="#574943"/>
          <path id="Trazado_876463" data-name="Trazado 876463" d="M82.122,51.566,74.249,68.53,36.883,90.1V76.97L74.249,55.4l7.873-16.968Z" transform="translate(83.26 86.75)" fill="#0a0808"/>
          <path id="Trazado_876464" data-name="Trazado 876464" d="M5.642,42.015l5.332-3.9L76.517,75.957l5.437,11.424v16.945L73.7,110.372l-15.906-9.186L47.422,83.925l-1.007-4.186-5.033-3.026-1.606,3.375L30.105,85.2,14.5,76.2,5.642,59.687Z" transform="translate(12.737 86.051)" fill="#a39685"/>
          <path id="Trazado_876465" data-name="Trazado 876465" d="M37.02,74.565l-9.1-15.753L25.8,52.78l-7.622-4.4-1.489.863L20.5,53.226l4.883,5.9,9.124,16.307,14.58,8.482,1.287-1.642Z" transform="translate(37.664 109.205)" fill="#736656"/>
          <path id="Trazado_876466" data-name="Trazado 876466" d="M8.674,56.872V41.8l3.306-2.772-.313-.235h-.893L6.664,42.5V58.547L13.7,71.984l14.577,8.482,1.795-1.349-13.864-8Z" transform="translate(15.043 87.581)" fill="#736656"/>
          <path id="Trazado_876467" data-name="Trazado 876467" d="M24.212,57l13.352,7.707L36.281,66.35,21.7,57.867l1.5-1.326Z" transform="translate(48.987 127.639)" fill="#f4efe9"/>
          <path id="Trazado_876468" data-name="Trazado 876468" d="M10.88,49.3l13.359,7.714-1.293,1.638L8.369,50.171l1.5-1.326Z" transform="translate(18.892 110.264)" fill="#f4efe9"/>
          <path id="Trazado_876469" data-name="Trazado 876469" d="M8.221,57.138V42.076l3.3-2.782-.316-.231h-.889L6.208,42.77V58.819l1.642-.876Z" transform="translate(14.015 88.182)" fill="#b5afa7"/>
          <path id="Trazado_876470" data-name="Trazado 876470" d="M7.856,44.612,15.39,58.857l-1.485.87-4.2-5.2L6.37,45.482Z" transform="translate(14.38 100.708)" fill="#e6e1dd"/>
          <path id="Trazado_876471" data-name="Trazado 876471" d="M21.439,52.32l9.1,15.753-1.482.866-2.251-1.5L18.9,52.633l2.153-1Z" transform="translate(42.662 116.566)" fill="#e6e1dd"/>
          <path id="Trazado_876472" data-name="Trazado 876472" d="M20.861,49.993l2.127,6.036-1.482.866-3.293-6.323,1.713-.453Z" transform="translate(41.113 112.857)" fill="#b5afa7"/>
          <path id="Trazado_876473" data-name="Trazado 876473" d="M16.23,49.513l1.482-.873,7.622,4.407-1.482.87-3.811-.42Z" transform="translate(36.638 109.802)" fill="#e6e1dd"/>
          <path id="Trazado_876474" data-name="Trazado 876474" d="M60.054,54.893,36.5,67.805l-8.723,6.538-.987,1.8,18.74-10.815L60.813,54.893Z" transform="translate(60.468 123.917)" fill="#a39c95"/>
          <path id="Trazado_876475" data-name="Trazado 876475" d="M55.093,49.013V68.167L31.255,81.93,29.32,61.808Z" transform="translate(66.188 110.644)" fill="#a39c95"/>
          <path id="Trazado_876476" data-name="Trazado 876476" d="M35.135,65.256l2.248,1.3.244-14.362-2.492-1.16Z" transform="translate(79.315 115.199)" fill="#362c29"/>
          <path id="Trazado_876477" data-name="Trazado 876477" d="M38.646,50.409l2.254,1.3-1.762,1.941-1.752.078-2.251-1.293Z" transform="translate(79.315 113.795)" fill="#574943"/>
          <path id="Trazado_876478" data-name="Trazado 876478" d="M39.343,65.031V50.809l-3.518,2.02V67.054Z" transform="translate(80.873 114.698)" fill="#0a0808"/>
          <path id="Trazado_876479" data-name="Trazado 876479" d="M47.259,45.928,58.865,55.977,35.027,69.74l-3.153-4.886-4.225-8.232,1.785-1.189Z" transform="translate(62.416 103.679)" fill="#b5afa7"/>
          <path id="Trazado_876480" data-name="Trazado 876480" d="M11.691,41.479l6.023-7.173v3.4l-3.665,8.785Z" transform="translate(26.391 77.443)" fill="#a39c95"/>
          <path id="Trazado_876481" data-name="Trazado 876481" d="M6.884,44.6,25.617,33.783l2.948,1.7L24.9,44.266l51.077,29.49,15.209-2.114,2.951,1.7L75.4,84.16,64.339,79.971,14.233,50.983Z" transform="translate(15.54 76.264)" fill="#e6e1dd"/>
          <path id="Trazado_876482" data-name="Trazado 876482" d="M36.105,52.367,23.544,45.393v2.6L35.858,55.1Z" transform="translate(53.15 102.471)" fill="#362c29"/>
          <path id="Trazado_876483" data-name="Trazado 876483" d="M33.823,49.027v-2.6l-4.095,1.827-2.4,1.928v2.593Z" transform="translate(61.684 104.801)" fill="#0a0808"/>
          <path id="Trazado_876484" data-name="Trazado 876484" d="M23.544,47.991,35.86,55.106l6.5-3.756L30.043,44.242Z" transform="translate(53.149 99.874)" fill="#574943"/>
          <path id="Trazado_876485" data-name="Trazado 876485" d="M20.822,43.544,8.261,36.569v2.6l12.32,7.111Z" transform="translate(18.649 82.553)" fill="#362c29"/>
          <path id="Trazado_876486" data-name="Trazado 876486" d="M18.541,40.2V37.6L14.45,39.432l-2.407,1.925V43.95Z" transform="translate(27.185 84.882)" fill="#0a0808"/>
          <path id="Trazado_876487" data-name="Trazado 876487" d="M8.261,39.168l12.32,7.114,6.5-3.756-12.32-7.108Z" transform="translate(18.648 79.956)" fill="#574943"/>
          <path id="Trazado_876488" data-name="Trazado 876488" d="M16.633,51.867l.515,2.033,2.694-1.557-1-1.577Z" transform="translate(37.548 114.601)" fill="#a39c95"/>
          <path id="Trazado_876489" data-name="Trazado 876489" d="M17.254,76.672,9.717,62.427V47.362l3.974-3.349,63.914,36.9,3.974,7.942v15.062l-7.534,5.541-13.359-7.714-9.095-15.75-2.127-6.036-7.626-4.4-2.13,3.58-9.095,5.248ZM4.886,42.59V61.747L15.075,80.991,32.617,91.125l11.046-6.388,1.13-1.9,1.71.99,1.13,3.2,11.052,19.144L76.224,116.3,86.41,108.81V89.66l-6.5-13L11.394,37.1Z" transform="translate(11.03 83.76)" fill="#d8d1c7"/>
          <path id="Trazado_876490" data-name="Trazado 876490" d="M101.448,33.206H45.841L5.7,40.043v7.665L45.841,70.917h55.608l56.692-32.731V30.505Z" transform="translate(12.858 68.864)" fill="#e09d38"/>
          <path id="Trazado_876491" data-name="Trazado 876491" d="M45.84,22.463,5.7,45.646V79.735l40.145,23.19h55.608L158.141,70.2V36.089L118,12.922Z" transform="translate(12.858 29.17)" fill="#ffec7a"/>
          <path id="Trazado_876492" data-name="Trazado 876492" d="M5.508,39.794l-1.182-.45v1.147L.261,68.433,0,68.958V70.12L40.145,93.3,90,89.988l24.3-7.381v-5.1L99.593,80.749,58.7,82.606,18.554,59.4V25.327Z" transform="translate(0 57.175)" fill="#e09d38"/>
          <path id="Trazado_876493" data-name="Trazado 876493" d="M4.326,42.88,0,72.493,40.145,95.7,90,92.36l24.3-11.323H58.7L18.555,57.877V23.762Z" transform="translate(0.001 53.641)" fill="#ffec7a"/>
          <path id="Trazado_876494" data-name="Trazado 876494" d="M44.842,23.188,6.42,45.361V76.737l38.405,22.19H99.183L154.155,67.2V35.82L115.721,13.647Z" transform="translate(14.494 30.807)" fill="#ffc654"/>
          <path id="Trazado_876495" data-name="Trazado 876495" d="M39.022,0,26.576,81.3l82.133-14.678-4.648-28.7-15-22.786L67.173,3.355Z" transform="translate(59.993)" fill="#ffc654"/>
          <path id="Trazado_876496" data-name="Trazado 876496" d="M84.521,0,55.979,7.945,26.138,24.7,11.144,47.493,6.421,76.165,85.1,81.3Z" transform="translate(14.494)" fill="#ffc654"/>
          <path id="Trazado_876497" data-name="Trazado 876497" d="M42.533,37.99,64.094,19.677,96.574,7.588l-32.48,9.727L40.181,35.049,23.666,69.962,18.21,110.094l54.054-.4-49.1-2.414,3.446-35.93Z" transform="translate(41.108 17.13)" fill="#f2b63d"/>
          <path id="Trazado_876498" data-name="Trazado 876498" d="M6.456,53.724l1.967-12L7.56,22.762Z" transform="translate(14.573 51.383)" fill="#f2b63d"/>
          <path id="Trazado_876499" data-name="Trazado 876499" d="M28.4,28.254,11.874,63.167,6.456,103.315l8.352-38.76L30.76,31.189,52.318,12.9,84.782.794l-32.464,9.75Z" transform="translate(14.575 1.792)" fill="#f2b63d"/>
          <g id="Grupo_1099775" data-name="Grupo 1099775">
            <g id="Grupo_1099774" data-name="Grupo 1099774" clip-path="url(#clip-path-2)">
              <g id="Grupo_1099773" data-name="Grupo 1099773" transform="translate(114.704 70.32)" opacity="0.2">
                <g id="Grupo_1099772" data-name="Grupo 1099772">
                  <g id="Grupo_1099771" data-name="Grupo 1099771" clip-path="url(#clip-path-3)">
                    <path id="Trazado_876500" data-name="Trazado 876500" d="M50.65,34.22l-15.437,26.8v19.4L88.026,49.93V30.51L72.547,21.587Z" transform="translate(-35.212 -21.587)" fill="#ab281f"/>
                  </g>
                </g>
              </g>
            </g>
          </g>
        </g>
      </g>
    </g>
  </g>
</svg>
