<svg xmlns="http://www.w3.org/2000/svg" xmlns:xlink="http://www.w3.org/1999/xlink" width="158.333" height="134.22" viewBox="0 0 158.333 134.22">
  <defs>
    <clipPath id="clip-path">
      <rect id="Rectángulo_401409" data-name="Rectángulo 401409" width="136.892" height="129.954" fill="none"/>
    </clipPath>
    <clipPath id="clip-path-3">
      <rect id="Rectángulo_401400" data-name="Rectángulo 401400" width="7.529" height="5.921" fill="none"/>
    </clipPath>
    <clipPath id="clip-path-4">
      <rect id="Rectángulo_401401" data-name="Rectángulo 401401" width="44.256" height="32.668" fill="none"/>
    </clipPath>
    <clipPath id="clip-path-5">
      <rect id="Rectángulo_401402" data-name="Rectángulo 401402" width="19.742" height="18.096" fill="none"/>
    </clipPath>
    <clipPath id="clip-path-6">
      <rect id="Rectángulo_401403" data-name="Rectángulo 401403" width="4.638" height="13.391" fill="none"/>
    </clipPath>
    <clipPath id="clip-path-7">
      <rect id="Rectángulo_401404" data-name="Rectángulo 401404" width="8.947" height="26.314" fill="none"/>
    </clipPath>
    <clipPath id="clip-path-8">
      <rect id="Rectángulo_401405" data-name="Rectángulo 401405" width="14.037" height="10.885" fill="none"/>
    </clipPath>
    <clipPath id="clip-path-9">
      <rect id="Rectángulo_401406" data-name="Rectángulo 401406" width="12.608" height="5.694" fill="none"/>
    </clipPath>
  </defs>
  <g id="Grupo_1100063" data-name="Grupo 1100063" transform="translate(-652.5 -4896.5)">
    <g id="Grupo_1099648" data-name="Grupo 1099648" transform="translate(654 4898)">
      <rect id="Rectángulo_401388" data-name="Rectángulo 401388" width="155.333" height="122.912" rx="20" transform="translate(0 0)" fill="none" stroke="#53bced" stroke-width="3"/>
      <g id="Grupo_1099493" data-name="Grupo 1099493" transform="translate(9.221 2.766)">
        <g id="Grupo_1099492" data-name="Grupo 1099492" clip-path="url(#clip-path)">
          <g id="Grupo_1099491" data-name="Grupo 1099491">
            <g id="Grupo_1099490" data-name="Grupo 1099490" clip-path="url(#clip-path)">
              <path id="Trazado_874565" data-name="Trazado 874565" d="M89.083,88.806c4.039-3.916,8.91-3.164,14.355.438,3.082,2.039,6.933,8,8.008,13.011-5.384-.3-7.623-.125-14.56-2.388-8.586-2.8-11.5-7.477-7.8-11.061" transform="translate(25.446 25.061)" fill="#e08141"/>
              <path id="Trazado_874566" data-name="Trazado 874566" d="M88.807,88.444a7.331,7.331,0,0,0,3.184,5.031c2.4,1.781,5.443,2.582,8.19,3.649,3.467,1.348,7.958,2.823,11.281,4.474a32.747,32.747,0,0,1-14.623-1.89c-8.345-2.722-11.422-7.9-8.032-11.265" transform="translate(25.429 25.717)" fill="#ce7436"/>
              <g id="Grupo_1099468" data-name="Grupo 1099468" transform="translate(124.255 113.935)" opacity="0.5">
                <g id="Grupo_1099467" data-name="Grupo 1099467">
                  <g id="Grupo_1099466" data-name="Grupo 1099466" clip-path="url(#clip-path-3)">
                    <path id="Trazado_874567" data-name="Trazado 874567" d="M97.08,88.4c1.81-.669,3.708,1.354,4.927,3.036a21.61,21.61,0,0,1,1.784,2.752,22.33,22.33,0,0,0-4.675-3.333c-2.376-1.162-3.859-1.781-2.036-2.455" transform="translate(-96.264 -88.269)" fill="#ffa573"/>
                  </g>
                </g>
              </g>
              <path id="Trazado_874568" data-name="Trazado 874568" d="M90.905,86.959s4.7,2.365,9.368,4.6c2.6,1.246,6.939,5.2,8.034,6.06a14.844,14.844,0,0,1,2.224,2.4s.3.951.267.858-2.354-2.025-4.27-3.511a54.247,54.247,0,0,0-8.346-4.5c-2.458-1.151-6.011-2.014-7.277-2.574a6.6,6.6,0,0,1-2.176-1.705,15.848,15.848,0,0,1,2.176-1.622" transform="translate(25.8 25.285)" fill="#ce7436"/>
              <path id="Trazado_874569" data-name="Trazado 874569" d="M104.477,90.859s-4.11-3.7-6.431-4.527a9.464,9.464,0,0,0-7.264.776c-1.608,1.066.294,1.553.294,1.553a4.447,4.447,0,0,1,3.282-1.944c2.53-.453,10.118,4.142,10.118,4.142" transform="translate(26.209 24.987)" fill="#ce7436"/>
              <path id="Trazado_874570" data-name="Trazado 874570" d="M45.78,32.516c.138-27.042,16.457-39.6,36.73-28.456V54.147Z" transform="translate(13.312 0)" fill="#ffb133"/>
              <path id="Trazado_874571" data-name="Trazado 874571" d="M45.781,25.191l36.73,21.631,25.444,52.312c-6.595,3.866-15.214,3.548-24.655-1.9-20.725-11.965-37.525-44.066-37.525-71.7,0-.115.005-.226.006-.341" transform="translate(13.31 7.325)" fill="#fed03d"/>
              <path id="Trazado_874572" data-name="Trazado 874572" d="M75.517,3.145c.263.145.524.276.789.429,20.725,11.965,37.527,44.067,37.527,71.7,0,15.047-4.989,25.651-12.872,30.271L75.517,53.232,69.83,6.431Z" transform="translate(20.305 0.914)" fill="#7e7ef2"/>
              <path id="Trazado_874573" data-name="Trazado 874573" d="M90.378,91.548s4.776-2.712,5.687-3.286,1.9-25.679,1.9-25.679l-11.3,8.072Z" transform="translate(25.2 18.197)" fill="#e79ce1"/>
              <path id="Trazado_874574" data-name="Trazado 874574" d="M65.76,8.037l-7.232-6.5-8.5,5.013.949,7.494Z" transform="translate(14.546 0.446)" fill="#ffb133"/>
              <path id="Trazado_874575" data-name="Trazado 874575" d="M96.518,81.468l6.507-4.476a27.5,27.5,0,0,1-12.87,10.366c-8.732,3.382,6.364-5.89,6.364-5.89" transform="translate(25.424 22.387)" fill="#c66bc6"/>
              <path id="Trazado_874576" data-name="Trazado 874576" d="M76.777,56.69V6.6C63.811-.524,52.472,2.057,45.939,11.908l30.706,44.7Z" transform="translate(13.358 0.741)" fill="#ffd31a"/>
              <path id="Trazado_874577" data-name="Trazado 874577" d="M108.144,77.819c0-27.633-16.8-59.734-37.525-71.7-.265-.152-.527-.284-.79-.429V55.777l.191.392L101.637,102.2c4.1-5.648,6.507-13.943,6.507-24.381" transform="translate(20.304 1.655)" fill="#9996ff"/>
              <path id="Trazado_874578" data-name="Trazado 874578" d="M78.3,54.974h0l-.191-.392-.132-.077L47.268,9.8c-3.681,5.552-5.842,13.4-5.892,23.151,0,.116-.006.226-.006.342,0,27.633,16.8,59.733,37.525,71.7,9.441,5.45,18.06,5.767,24.655,1.9A21.094,21.094,0,0,0,109.913,101Z" transform="translate(12.029 2.85)" fill="#e79ce1"/>
              <path id="Trazado_874579" data-name="Trazado 874579" d="M54.806,12.159l-.1,1.051v.381q0,1.849.061,2.481c.04.422.083.8.125,1.145a7.076,7.076,0,0,0,.167.9,7.592,7.592,0,0,0,.243.768,1.89,1.89,0,0,0,.773,1.038.584.584,0,0,0,.507.009.562.562,0,0,1,.46-.018,1.1,1.1,0,0,1,.338.436q0,.8-.682.747a1.83,1.83,0,0,1-.733-.259,2.206,2.206,0,0,1-.676-.6,3.9,3.9,0,0,1-.466-.821,6.687,6.687,0,0,1-.327-1.053q-.139-.608-.221-1.176c-.046-.379-.085-.805-.116-1.28q-.072-1.187-.076-2.56l.012-1.895a9.572,9.572,0,0,1,.081-1.421,4.443,4.443,0,0,1-.036-.518c0-.652.185-1.066.549-1.242a1.439,1.439,0,0,1,1.351.2,1.93,1.93,0,0,1,.559.537,1.22,1.22,0,0,1,.275.722c0,.114-.035.183-.1.207s-.177-.009-.334-.1a.7.7,0,0,1-.324-.381v.006l-.163-.094V9.332q-.7-.4-.944.03a3.849,3.849,0,0,0-.234,1.682Z" transform="translate(15.724 2.378)" fill="#fff"/>
              <path id="Trazado_874580" data-name="Trazado 874580" d="M59.8,22.668a.682.682,0,0,1-.367-.625V19.97a3.2,3.2,0,0,0-.609-.616c-.293-.241-.555-.439-.784-.591a2.177,2.177,0,0,0-.2.691c-.053.323-.106.645-.163.969a2.167,2.167,0,0,1-.223.718.932.932,0,0,1-.524-.621,14.843,14.843,0,0,0,.529-2.871q.366-2.653.6-4.137a20.289,20.289,0,0,1,.509-2.428q.273-.945.524-.8a1.064,1.064,0,0,1,.385.363q0,.567.234,3.2t.232,3.37q0,.732.125,2.511T60.2,22.36c0,.358-.132.46-.395.308m-.5-5.482q-.1-1.471-.19-2.8c-.056-.885-.084-1.416-.084-1.6s0-.28.006-.3a9.05,9.05,0,0,0-.54,2.539q-.352,2.389-.376,3.068a4.786,4.786,0,0,0,.83.657,2.262,2.262,0,0,0,.475.228q-.017-.329-.123-1.8" transform="translate(16.554 2.985)" fill="#fff"/>
              <path id="Trazado_874581" data-name="Trazado 874581" d="M60.089,22.647l.046-9.3V11.389c0-.124.019-.2.057-.23s.142,0,.307.1a1.974,1.974,0,0,1,.5.449,3.228,3.228,0,0,1,.429.671,6.407,6.407,0,0,1,.29.789,5.576,5.576,0,0,1,.234,1.571,4.861,4.861,0,0,1-.292,1.611c-.023.059-.071.185-.139.377s-.111.306-.123.341a18.081,18.081,0,0,0,.449,3.328c.1.483.243,1.146.431,1.993s.3,1.38.349,1.6v.037q0,.536-.093.573a.225.225,0,0,1-.2-.026,1.333,1.333,0,0,1-.431-.676v-.054a33.794,33.794,0,0,0-.746-4.8q-.314-1.518-.436-2.232v6.268a.631.631,0,0,1-.065.334c-.043.065-.121.063-.234,0a.621.621,0,0,1-.253-.275.828.828,0,0,1-.084-.363Zm.657-10.517-.063,3.21c0,.327,0,.572.012.737a1.933,1.933,0,0,0,.4-.382l.186-1.266a1.541,1.541,0,0,0,.018-.239,5.468,5.468,0,0,0-.117-.991,1.935,1.935,0,0,0-.438-1.069" transform="translate(17.472 3.242)" fill="#fff"/>
              <path id="Trazado_874582" data-name="Trazado 874582" d="M62.625,20.348l-.081-6.511v-.092c0-.571.066-.9.2-.973a.238.238,0,0,1,.249.028,3.294,3.294,0,0,1,1.328,1.5,4.95,4.95,0,0,1,.479,2.156,3.146,3.146,0,0,1-.285,1.335,1.377,1.377,0,0,1-.683.763,7.264,7.264,0,0,1,1.039,2.259,8.929,8.929,0,0,1,.312,2.289,2.588,2.588,0,0,1-.218,1.07,2.8,2.8,0,0,1-.436.727.9.9,0,0,1-.573.283,1.278,1.278,0,0,1-.782-.2l-.045-.027c-.374-.216-.559-.454-.559-.719Zm.734-6.434q-.168-.1-.169.474t.023,1.806c.015.826.023,1.421.023,1.789q.31.085.529-.377a5.706,5.706,0,0,0,.3-.789c.079-.262.129-.423.154-.483v-.567a2.714,2.714,0,0,0-.261-1.062,1.62,1.62,0,0,0-.6-.791m.867,10.107a1.854,1.854,0,0,0,.337-1.2,9.852,9.852,0,0,0-.1-1.451,7.087,7.087,0,0,0-.218-1.033,4.462,4.462,0,0,0-.278-.685,2.322,2.322,0,0,0-.312-.5l-.426-.245q.056,2.23.058,5.306a.76.76,0,0,0,.937-.19" transform="translate(18.186 3.707)" fill="#fff"/>
              <path id="Trazado_874583" data-name="Trazado 874583" d="M64.981,25.649c0-.285.089-.374.268-.272a1.626,1.626,0,0,1,.351.325,1.718,1.718,0,0,0,.379.338.282.282,0,0,0,.346-.072,1.085,1.085,0,0,0,.292-.507,4.627,4.627,0,0,0,.216-1.363,7.8,7.8,0,0,0-.174-1.526q-.176-.862-.426-1.674c-.168-.542-.336-1.084-.507-1.628a11.154,11.154,0,0,1-.6-3.253c0-.83.191-1.367.589-1.608a.688.688,0,0,1,.74.053,1.425,1.425,0,0,1,.418.4,1.754,1.754,0,0,1,.287.581l-.2.223a1.361,1.361,0,0,1-.466-.423.325.325,0,0,0-.385.057,1.291,1.291,0,0,0-.3.959,7.8,7.8,0,0,0,.128,1.382,10.8,10.8,0,0,0,.321,1.327q.19.616.412,1.333t.419,1.376a10.462,10.462,0,0,1,.449,2.978,3.544,3.544,0,0,1-.39,1.748.878.878,0,0,1-.514.444.891.891,0,0,1-.728-.128,2.341,2.341,0,0,1-.678-.563.929.929,0,0,1-.248-.509" transform="translate(18.895 4.165)" fill="#fff"/>
              <path id="Trazado_874584" data-name="Trazado 874584" d="M73.588,47.084l.072-7.153a54.354,54.354,0,0,0-.39-7.421.4.4,0,0,1,.583-.116,3.565,3.565,0,0,1,1.022.925,5.575,5.575,0,0,1,.75,1.319,8,8,0,0,1,.6,2.971,5.228,5.228,0,0,1-.479,2.4,1.824,1.824,0,0,1-1.41,1.061l.116,6.349q0,.836-.5.547a.632.632,0,0,1-.272-.369,1.584,1.584,0,0,1-.089-.519m.709-7a3.065,3.065,0,0,0,1.151-2.749v-.01a5.333,5.333,0,0,0-.207-1.7l-.165-.436a3.676,3.676,0,0,0-.256-.476q-.23-.379-.7-1.1,0,1.063.089,3.24t.089,3.24" transform="translate(21.305 9.397)" fill="#fff"/>
              <path id="Trazado_874585" data-name="Trazado 874585" d="M76.3,48.632l.061-11.787v-2.48c0-.157.023-.256.072-.292s.179,0,.389.125a2.45,2.45,0,0,1,.635.568,4.088,4.088,0,0,1,.542.851,7.784,7.784,0,0,1,.368,1,7.02,7.02,0,0,1,.3,1.992,6.127,6.127,0,0,1-.369,2.039c-.028.076-.089.235-.176.479s-.141.387-.156.432a22.944,22.944,0,0,0,.569,4.216q.192.92.546,2.526t.443,2.033v.048c0,.453-.04.694-.117.725a.289.289,0,0,1-.252-.032,1.7,1.7,0,0,1-.546-.857v-.07a42.715,42.715,0,0,0-.945-6.086q-.4-1.923-.554-2.829v7.943a.8.8,0,0,1-.081.425c-.054.081-.152.08-.294,0a.774.774,0,0,1-.323-.349,1.042,1.042,0,0,1-.107-.46ZM77.134,35.3l-.08,4.069q0,.622.014.933a2.382,2.382,0,0,0,.51-.483l.236-1.606a1.823,1.823,0,0,0,.022-.3,6.933,6.933,0,0,0-.147-1.257,2.447,2.447,0,0,0-.555-1.354" transform="translate(22.186 9.904)" fill="#fff"/>
              <path id="Trazado_874586" data-name="Trazado 874586" d="M82.881,46.861l-.132,2.474v.088a6.2,6.2,0,0,0-.1,1.157,3.633,3.633,0,0,1-.17,1.157,1.574,1.574,0,0,1-.518.773.629.629,0,0,1-.759.03,2.234,2.234,0,0,1-.754-.808,6.022,6.022,0,0,1-.561-1.286,14.889,14.889,0,0,1-.391-1.622c-.114-.608-.2-1.185-.262-1.736s-.111-1.124-.151-1.717Q79,44.01,79,43.289t0-1.242c-.005-.347-.012-.661-.017-.938v-.994c.005-.385.015-.728.028-1.03s.035-.621.065-.959.074-.631.123-.875a4.213,4.213,0,0,1,.2-.687,1.5,1.5,0,0,1,.3-.489.646.646,0,0,1,.849-.081,2.873,2.873,0,0,1,.82.7,3.787,3.787,0,0,1,.572,1.074c.156.43.29.84.407,1.229a8.576,8.576,0,0,1,.271,1.5q.1.92.16,1.484c.039.385.067.915.081,1.593.019.911.028,1.617.028,2.123Zm-1.339-8.15a4.243,4.243,0,0,0-.378-1.016,1.359,1.359,0,0,0-.445-.537.293.293,0,0,0-.365,0,.945.945,0,0,0-.243.445,6.515,6.515,0,0,0-.178.709,7.6,7.6,0,0,0-.117.931c-.028.363-.05.692-.07.989s-.028.621-.037.984c-.01.6-.017,1.075-.023,1.413v.089q0,1.349.155,3c.1,1.1.21,2.012.323,2.739a12.207,12.207,0,0,0,.445,1.946,1.886,1.886,0,0,0,.629,1.056c.2.116.372-.039.509-.463a8.033,8.033,0,0,0,.3-1.719q.147-1.925.151-2.733t0-1.186c0-.252-.01-.618-.022-1.1s-.035-.942-.062-1.375-.068-.916-.115-1.45-.108-1.017-.186-1.455-.165-.858-.265-1.261" transform="translate(22.966 10.431)" fill="#fff"/>
              <path id="Trazado_874587" data-name="Trazado 874587" d="M84.418,42.092l-.03,2.582.133,4.714.125,3.7c0,.654-.146.9-.435.732a.87.87,0,0,1-.369-.528,2.6,2.6,0,0,1-.119-.768l.119-3.149q0-1.044-.1-3.2t-.1-3.2l.021-1.75a8.967,8.967,0,0,0-.138-1.961l-.821-.364a1.038,1.038,0,0,1-.342-.351.9.9,0,0,1-.152-.481c0-.16.12-.227.363-.2a3.12,3.12,0,0,1,.885.256,13.968,13.968,0,0,1,1.528.745.978.978,0,0,1,.336.356.945.945,0,0,1,.151.494c0,.165-.044.27-.133.312a.336.336,0,0,1-.325-.044l-.538-.352a1.46,1.46,0,0,0-.156-.079q.106,1.224.1,2.54" transform="translate(23.902 11.008)" fill="#fff"/>
              <path id="Trazado_874588" data-name="Trazado 874588" d="M86.956,47.928l-.377-.238c-.145-.085-.249-.1-.307-.031v6.22c.515.258.8.4.839.427q.865.5.866,1.031v.068a.372.372,0,0,1-.356.218,1,1,0,0,1-.443-.088c-.128-.061-.293-.15-.494-.267L86.211,55a1.432,1.432,0,0,1-.692-.7,1.169,1.169,0,0,1-.062-.4V42.189a9,9,0,0,0-.1-1.083,8.39,8.39,0,0,1-.1-1.093v-.067a1.859,1.859,0,0,1,.376-.492l1.123.471a1.613,1.613,0,0,1,.461.448,1.044,1.044,0,0,1,.234.611c0,.4-.231.469-.688.205l-.435-.271a1.242,1.242,0,0,0-.163-.084l.119,3.395c0,.268-.013.654-.037,1.155s-.037.869-.037,1.1c.054.018.129.037.222.059a1.72,1.72,0,0,1,.483.172.862.862,0,0,1,.31.345,1,1,0,0,1,.138.483.523.523,0,0,1-.111.36.211.211,0,0,1-.289.021" transform="translate(24.789 11.472)" fill="#fff"/>
              <path id="Trazado_874589" data-name="Trazado 874589" d="M89.674,42.659l-.266-.163q-.149-.085-.217-.043c-.048.028-.071.125-.071.289q0,1.969.185,6t.183,6v.777a2.355,2.355,0,0,1,.311.15,1.167,1.167,0,0,1,.627,1.071v.117l-.376.128-1.029-.543q-1.3-.755-1.3-1.354,0-.484.458-.218l.315.212c.15.085.225-.028.225-.343q0-1.555-.142-4.742t-.141-4.742l.031-2.039q0-.651-.037-1.144a1.008,1.008,0,0,1-.355-.115.735.735,0,0,1-.354-.688.269.269,0,0,1,.227-.3,1.1,1.1,0,0,1,.571.068,5.645,5.645,0,0,1,.941.4,1.142,1.142,0,0,1,.439.416.951.951,0,0,1,.132.46.458.458,0,0,1-.1.327.186.186,0,0,1-.254.015" transform="translate(25.506 11.911)" fill="#fff"/>
              <path id="Trazado_874590" data-name="Trazado 874590" d="M90.365,46.783l.1-3.641v-.128c0-.67.111-.94.332-.812a5.726,5.726,0,0,1,.813,2.34q.929,3.93,2.229,12.5l.015.107.058-6.993V44.187c.059-.3.223-.372.494-.217s.407.5.407,1.022v.12a1.317,1.317,0,0,0-.089.538l-.1,7.395v6.162a1.068,1.068,0,0,1-.125.528c-.084.148-.188.187-.311.116q-.316-.182-1.239-4.865t-1.824-9.975v6.615q0,.964.107,2.935c.072,1.315.108,2.292.108,2.937a.187.187,0,0,1-.172.212.7.7,0,0,1-.431-.126.5.5,0,0,1-.263-.466l.076-1.4q0-1.044-.1-3.441t-.1-2.921Z" transform="translate(26.276 12.262)" fill="#fff"/>
              <path id="Trazado_874591" data-name="Trazado 874591" d="M55.473,61.824l-.05.142a2.072,2.072,0,0,1,.041.435.369.369,0,0,1-.187.355.5.5,0,0,1-.49-.074q-.579-.333-.58-2.047,0-2.548-.2-9.756a69.266,69.266,0,0,0-.408-7.743c.006-.918.481-1.138,1.422-.656.143.075.339.182.585.324a1.781,1.781,0,0,1,.58.516,1.525,1.525,0,0,1,.21.867c0,.377-.187.456-.559.24l-.492-.307c-.372-.217-.559-.225-.559-.023q0,1.243.148,3.728t.155,3.641a2.807,2.807,0,0,0,.345.094,2.791,2.791,0,0,1,.755.252,1.065,1.065,0,0,1,.408.492,1.579,1.579,0,0,1,.161.661q0,.877-1.669-.085,0,1.45.191,4.465t.192,4.479" transform="translate(15.585 12.28)" fill="#fff"/>
              <path id="Trazado_874592" data-name="Trazado 874592" d="M61.1,65.922a1.145,1.145,0,0,1-.618-1.051V61.378a5.349,5.349,0,0,0-1.024-1.035c-.494-.408-.936-.74-1.319-1a3.652,3.652,0,0,0-.339,1.166c-.089.543-.179,1.087-.275,1.634a3.581,3.581,0,0,1-.377,1.206,1.571,1.571,0,0,1-.882-1.044,24.983,24.983,0,0,0,.891-4.834q.618-4.471,1.017-6.966a34.122,34.122,0,0,1,.858-4.089q.459-1.592.882-1.349a1.8,1.8,0,0,1,.648.611q0,.953.392,5.393t.391,5.672q0,1.237.21,4.23t.21,4.433c0,.6-.221.773-.666.516m-.843-9.23q-.178-2.476-.319-4.709T59.8,49.3c0-.3,0-.472.01-.511q-.316.248-.907,4.276t-.634,5.167a8.271,8.271,0,0,0,1.4,1.107,3.689,3.689,0,0,0,.8.383c-.021-.368-.089-1.38-.207-3.029" transform="translate(16.361 13.095)" fill="#fff"/>
              <path id="Trazado_874593" data-name="Trazado 874593" d="M63.716,52.2l-.039,3.428.177,6.263.168,4.91c0,.871-.195,1.2-.581.973a1.157,1.157,0,0,1-.49-.7,3.492,3.492,0,0,1-.155-1.02l.155-4.186q0-1.388-.137-4.252t-.137-4.252l.03-2.323a11.884,11.884,0,0,0-.186-2.6l-1.089-.485a1.353,1.353,0,0,1-.456-.467,1.185,1.185,0,0,1-.2-.639c0-.213.161-.3.481-.265a4.116,4.116,0,0,1,1.176.339,18.761,18.761,0,0,1,2.033.989,1.3,1.3,0,0,1,.443.474,1.253,1.253,0,0,1,.2.66c0,.217-.061.356-.179.413a.44.44,0,0,1-.43-.059l-.716-.465a1.548,1.548,0,0,0-.207-.107c.094,1.083.138,2.207.138,3.377" transform="translate(17.671 13.543)" fill="#fff"/>
              <path id="Trazado_874594" data-name="Trazado 874594" d="M64.641,67.952q0-.72.454-.458a2.935,2.935,0,0,1,.592.545,2.741,2.741,0,0,0,.636.571.474.474,0,0,0,.582-.12,1.821,1.821,0,0,0,.492-.854,7.8,7.8,0,0,0,.363-2.295,13.08,13.08,0,0,0-.293-2.569q-.3-1.454-.716-2.822T65.9,57.207a18.676,18.676,0,0,1-1.009-5.474q-.012-2.1.99-2.711a1.165,1.165,0,0,1,1.244.09,2.391,2.391,0,0,1,.706.676,2.923,2.923,0,0,1,.481.977l-.342.378a2.336,2.336,0,0,1-.787-.714.544.544,0,0,0-.645.1,2.175,2.175,0,0,0-.5,1.615,13.171,13.171,0,0,0,.216,2.329A17.994,17.994,0,0,0,66.79,56.7q.325,1.036.7,2.246t.707,2.316a17.659,17.659,0,0,1,.755,5.016,5.949,5.949,0,0,1-.657,2.942,1.472,1.472,0,0,1-.864.75,1.5,1.5,0,0,1-1.226-.217,3.925,3.925,0,0,1-1.144-.947,1.574,1.574,0,0,1-.417-.856" transform="translate(18.796 14.213)" fill="#fff"/>
              <path id="Trazado_874595" data-name="Trazado 874595" d="M29.988,61.716c-2.153-5.136-4.948-9.166-5.438-14.945-.192-2.26.009-4.661-1.061-6.516.733-6.169-4.43-12.7-11.235-10.87-3.227.866-4.423,2.9-5.67,5.77-1.389,3.192-3.321,6.2-4.824,9.3C.924,46.177.077,47.2,0,49.242c-.072,1.993.906,3.209,1.453,5,1.111,3.631.9,5.842,1.625,9.318a16.232,16.232,0,0,0,5.962,9.492c7.7,5.882,16.621-.441,20.377-7.91a1.679,1.679,0,0,0,.012-1.515,1.443,1.443,0,0,0,.555-1.908" transform="translate(0 8.454)" fill="#83b239"/>
              <path id="Trazado_874596" data-name="Trazado 874596" d="M16.386,39.147s.032-2.917-3.232-2.48-5.425,4.1-6.109,8.482c-.623,4-.789,9.909.684,11.687s6.325-.2,6.325-.2Z" transform="translate(1.916 10.649)" fill="#71a52d"/>
              <path id="Trazado_874597" data-name="Trazado 874597" d="M46.5,60.841c-2.557-3.018-7.243-.768-10.517-.605-5.723.284-18.454-.741-21.409-6.7a1.784,1.784,0,0,0-1.313-.987.417.417,0,0,0-.627-.179c-.072.056-.114.121-.183.177a2.16,2.16,0,0,0-1.922,1.988C7.179,59.051,6.435,63.4,9.039,68.615c3.169,6.358,6.431,8.927,13.607,8.668,2.228-.08,5.426.847,7.485.409,2.922-.62,5.654-.146,8.542-.649,6.357-1.111,12.908-10.2,7.825-16.2" transform="translate(2.173 15.202)" fill="#71a52d"/>
              <path id="Trazado_874598" data-name="Trazado 874598" d="M16.956,61.182a10.169,10.169,0,0,0,3.927,4.8c2.925,1.854,9.3,1.366,11.582,3.48,3.14,2.908,5.571,4.8,5.571,4.8s3.3.262,5.576-4.8S37.881,59.6,37.881,59.6Z" transform="translate(4.93 17.331)" fill="#66931f"/>
              <path id="Trazado_874599" data-name="Trazado 874599" d="M15.091,38.9c1.974,3.428,6.987,2.057,10.237,2.486,5.681.751,18.02,4.048,19.855,10.442A1.788,1.788,0,0,0,46.3,53.038c.092.24.311.429.585.289.081-.041.133-.1.212-.142a2.158,2.158,0,0,0,2.249-1.608c4.106-3.844,7.924-9.113,2.806-15.631-3.062-3.9-5.9-2.094-6.68-4.158a10.726,10.726,0,0,0-5.7-5.8c-2-.982-3.441-.785-5.545-.724-2.987.084-5.589-.874-8.52-.9-6.454-.052-14.533,7.715-10.611,14.53" transform="translate(4.088 7.086)" fill="#71a52d"/>
              <path id="Trazado_874600" data-name="Trazado 874600" d="M19.317,36.153s.05-5.408,5.074-6.334,11.2,1.441,14.118,0,3.814,1.539,4.825,4.083,3.273,1.24,5.815,3.6,1.212,7.923,1.212,7.923L43.8,48.649Z" transform="translate(5.617 8.561)" fill="#66931f"/>
              <path id="Trazado_874601" data-name="Trazado 874601" d="M56.18,55.005c-.461-1.083-1.366-1.94-1.85-2.992-1.271-2.769-1.076-5.106-1.308-8.182-.124-1.652.062-3.1-1.011-4.518-2.885-3.823-9.144-1.008-10.724,2.32a2.2,2.2,0,0,0-1.724,2.62c1.368,6.686-1.98,11.953-6.493,16.5-1.367,1.379-3.245,2.628-3.858,4.6-1.141,3.658,1.98,9.339,4.737,11.514a8.025,8.025,0,0,0,9.976.061,12.3,12.3,0,0,0,4.2-6.011c.685-1.806.361-2.629,1.873-3.979,1.2-1.074,3-1.495,4.262-2.632,2.862-2.585,3.412-5.787,1.916-9.3" transform="translate(8.424 10.897)" fill="#83b239"/>
              <path id="Trazado_874602" data-name="Trazado 874602" d="M32.812,66.237s.228,1.792,2.86,2.841,7.093-.893,7.779-4.212,4.1-4.119,5.255-7.437c.561-1.616-.116-4.165-.834-6.636-1.029-3.539-2.526-4.787-3.983-5.337-2.84-1.07-11.077,20.781-11.077,20.781" transform="translate(9.541 13.206)" fill="#71a52d"/>
              <path id="Trazado_874603" data-name="Trazado 874603" d="M22.859,59.879c14.365,3.371,23.469-7.453,26.4-19.156a19.936,19.936,0,0,0-9.509-8.447c-6.347-2.6-14.871-.147-21.3,3.8a21.607,21.607,0,0,0-8.227,9.257c-.395,4,.527,11.7,12.633,14.543" transform="translate(2.953 9.073)" fill="#97c941"/>
              <path id="Trazado_874604" data-name="Trazado 874604" d="M11.992,62.413c8.047,11.7,27.428,11.547,36.438.892,5.9-6.975,5.717-17.2,1.257-24.727-2.935,11.7-12.039,22.527-26.4,19.156C11.178,54.893,10.255,47.194,10.65,43.191a19.2,19.2,0,0,0,1.342,19.222" transform="translate(2.529 11.217)" fill="#97c941"/>
              <g id="Grupo_1099471" data-name="Grupo 1099471" transform="translate(11.227 49.795)" opacity="0.5">
                <g id="Grupo_1099470" data-name="Grupo 1099470">
                  <g id="Grupo_1099469" data-name="Grupo 1099469" clip-path="url(#clip-path-4)">
                    <path id="Trazado_874605" data-name="Trazado 874605" d="M11.992,62.413c8.047,11.7,27.428,11.547,36.438.892,5.9-6.975,5.717-17.2,1.257-24.727-2.935,11.7-12.039,22.527-26.4,19.156C11.178,54.893,10.255,47.194,10.65,43.191a19.2,19.2,0,0,0,1.342,19.222" transform="translate(-8.698 -38.578)" fill="#83b239"/>
                  </g>
                </g>
              </g>
              <g id="Grupo_1099474" data-name="Grupo 1099474" transform="translate(15.942 45.26)" opacity="0.5">
                <g id="Grupo_1099473" data-name="Grupo 1099473">
                  <g id="Grupo_1099472" data-name="Grupo 1099472" clip-path="url(#clip-path-5)">
                    <path id="Trazado_874606" data-name="Trazado 874606" d="M24.4,35.113c-7.721-.856-13.708,9.845-11.638,13.779,3.574,6.792,12.553,4.507,17-.124,4.976-5.188,1.426-12.9-5.359-13.655" transform="translate(-12.351 -35.064)" fill="#b4e25a"/>
                  </g>
                </g>
              </g>
              <path id="Trazado_874607" data-name="Trazado 874607" d="M18.2,38.427c-2.653-.294-4.711,3.383-4,4.736,1.228,2.334,4.314,1.549,5.841-.043A2.771,2.771,0,0,0,18.2,38.427" transform="translate(4.088 11.169)" fill="#fff"/>
              <path id="Trazado_874608" data-name="Trazado 874608" d="M48.389,38.707c-1.536,2.641-4.349,6.13-7.243,9.976,1.015-4.253-1.354-9.638-4.036-12.548-1.686-1.829-3.84-4.043-6.533-4.665-1.686-.39-3.742.906-4.141,1.034C29.6,33.457,32.546,34.5,35.2,37.2a15.221,15.221,0,0,1,3.76,6.841c.6,2.212.351,4.433.719,6.631a71.674,71.674,0,0,0-5.07,7.81A18.268,18.268,0,0,1,21.093,59.8c-5.186-1.318-11.275-3.591-11.955-9.914-.014-.12-.194-.167-.226-.031C6.363,60.6,25.931,64.386,33.851,59.942c-2.341,4.775-3.313,9.455-1.058,13.31.236.405,1.542.046,1.719-.276C28.205,62.7,44.4,48.726,49.029,39.616c.256-.5-.241-.844-.64-.909" transform="translate(2.525 9.13)" fill="#71a52d"/>
              <g id="Grupo_1099477" data-name="Grupo 1099477" transform="translate(55.929 50.763)" opacity="0.5">
                <g id="Grupo_1099476" data-name="Grupo 1099476">
                  <g id="Grupo_1099475" data-name="Grupo 1099475" clip-path="url(#clip-path-6)">
                    <path id="Trazado_874609" data-name="Trazado 874609" d="M47.123,45.471c-.25-2.045-.333-4.161-1.727-5.775-.727-.84-1.986-.11-2.045.848a27.95,27.95,0,0,0,.831,7.026c.425,1.958,1.242,4.032,3.019,5.09a.479.479,0,0,0,.7-.284c.307-2.265-.5-4.652-.777-6.9" transform="translate(-43.33 -39.327)" fill="#b4e25a"/>
                  </g>
                </g>
              </g>
              <g id="Grupo_1099480" data-name="Grupo 1099480" transform="translate(4.018 40.974)" opacity="0.5">
                <g id="Grupo_1099479" data-name="Grupo 1099479">
                  <g id="Grupo_1099478" data-name="Grupo 1099478" clip-path="url(#clip-path-7)">
                    <path id="Trazado_874610" data-name="Trazado 874610" d="M6.326,44.932c.462-4.55,4.005-8.406,5.7-12.6.186-.46-.48-.771-.794-.461C4.6,38.429.021,48.923,5.646,57.79A.578.578,0,0,0,6.713,57.5c-.072-4.156-.809-8.409-.387-12.57" transform="translate(-3.113 -31.744)" fill="#b4e25a"/>
                  </g>
                </g>
              </g>
              <g id="Grupo_1099483" data-name="Grupo 1099483" transform="translate(15.971 78.871)" opacity="0.5">
                <g id="Grupo_1099482" data-name="Grupo 1099482">
                  <g id="Grupo_1099481" data-name="Grupo 1099481" clip-path="url(#clip-path-8)">
                    <path id="Trazado_874611" data-name="Trazado 874611" d="M25.988,70.409a17.127,17.127,0,0,1-3.621-.713,11.24,11.24,0,0,1-3.83-2.971c-1.82-1.965-3.369-4.522-5.894-5.6a.182.182,0,0,0-.265.2c.842,3.211,4.283,6.618,6.826,8.621,1.866,1.469,4.652,2.8,6.924,1.541a.6.6,0,0,0-.141-1.076" transform="translate(-12.373 -61.104)" fill="#b4e25a"/>
                  </g>
                </g>
              </g>
              <g id="Grupo_1099486" data-name="Grupo 1099486" transform="translate(22.693 33.179)" opacity="0.5">
                <g id="Grupo_1099485" data-name="Grupo 1099485">
                  <g id="Grupo_1099484" data-name="Grupo 1099484" clip-path="url(#clip-path-9)">
                    <path id="Trazado_874612" data-name="Trazado 874612" d="M22.882,25.968a6.869,6.869,0,0,0-5.283,4.82c-.119.37.36.785.7.536a14.568,14.568,0,0,1,5.04-2.492c2.134-.474,4.05.617,6.131.405a.749.749,0,0,0,.636-1.109c-1.14-2.566-4.848-2.714-7.222-2.159" transform="translate(-17.581 -25.705)" fill="#b4e25a"/>
                  </g>
                </g>
              </g>
              <path id="Trazado_874613" data-name="Trazado 874613" d="M54.541,74.811c1.5-5.261-.626-10.334-4.008-14.894-.223-.3,1.252-.954,2.881-.953,2.229,0,4.449,1.566,6.2,6.014,1.168,2.964,1.705,8.742,4.374,10.112a29.015,29.015,0,0,0,10.589,2.769c4.631.263,12.813.54,16.541,3.316A28.375,28.375,0,0,1,99.47,91.889c.47,1.146,3.294,8.511,3.255,13.45a10.33,10.33,0,0,1-.065,1.12c-.041.355-.476.691-.812.91-.09.337.416.74.268,1.016a2.711,2.711,0,0,1-1.038,1.106C84.8,118.829,67.595,102.87,61.133,88.063a15.061,15.061,0,0,1-.981-2.8,2.76,2.76,0,0,0-2.909-1.944c-3.464.338-7.126.325-7.585-3.148,2.064-1.41,4.306-3.337,4.883-5.355" transform="translate(14.439 17.145)" fill="#ff9783"/>
              <path id="Trazado_874614" data-name="Trazado 874614" d="M101.08,104.715C84.8,114.052,67.6,98.093,61.134,83.287a14.878,14.878,0,0,1-.981-2.8,2.761,2.761,0,0,0-2.909-1.945c-3.466.338-7.128.325-7.586-3.148a8.316,8.316,0,0,0,5.8,1.66c3.089-.5,4.163-1.1,5.833,2.38S67.147,90.771,73.156,94.9c5.3,3.649,14.966,12.391,29.57,5.659a7.732,7.732,0,0,1-.066,1.12c-.048.35-.439.636-.811.91-.094.323.387.728.243,1a2.7,2.7,0,0,1-1.013,1.119" transform="translate(14.439 21.921)" fill="#fc8465"/>
              <path id="Trazado_874615" data-name="Trazado 874615" d="M71.593,77.517C83.952,75.245,90.976,88.9,89.749,90.869c-1.416,2.272-3.894-1.727-4.507-2.425a34.251,34.251,0,0,0-13.649-9.366c-.759-.29-.809-1.412,0-1.561" transform="translate(20.646 22.466)" fill="#ffaca1"/>
              <path id="Trazado_874616" data-name="Trazado 874616" d="M88.6,84.051a23.144,23.144,0,0,0-9.519,4.886,12.18,12.18,0,0,0-3.258,11.148,16.025,16.025,0,0,0,2.713,4.239l-.9-.394A10.062,10.062,0,0,1,74.7,96.578c.089-5.779,3.535-8.662,6.38-10.353A18.221,18.221,0,0,1,88.6,84.051" transform="translate(21.719 24.44)" fill="#f46e53"/>
              <path id="Trazado_874617" data-name="Trazado 874617" d="M89.477,81.837s-.9-5.441-3.55-8.477c-2.881-3.3-3.757-3.09-3.757-3.09a11.221,11.221,0,0,1,1.295,2.547c.383,1.193.667,2.589.667,2.589A17.119,17.119,0,0,0,81.251,71.8a7.08,7.08,0,0,0-2.507-1.531,12.968,12.968,0,0,1,1.643,2.663c.409.977.864,1.847.864,1.847a18.784,18.784,0,0,0-2.507-2,6.28,6.28,0,0,0-4.007-.975l2.338,2.228s-1.6-.5-2.964-.753c-2.214-.417-3.6.147-5.638.125a24.494,24.494,0,0,1-7.714-1.6,18.844,18.844,0,0,0,6.712,3.605c3.757,1,7.647.96,11.984,1.838a23.682,23.682,0,0,1,10.022,4.593" transform="translate(17.667 20.432)" fill="#f46e53"/>
              <path id="Trazado_874618" data-name="Trazado 874618" d="M71.168,86.626a48.289,48.289,0,0,1-7.843-3.507c-2.756-1.749-5.224-2.141-4.116,0s2.84,5.43,5.247,5.762,4.929.74,4.929.74a4.846,4.846,0,0,1,1.783-2.995" transform="translate(17.138 23.744)" fill="#f46e53"/>
              <path id="Trazado_874619" data-name="Trazado 874619" d="M91.776,96.465a15.13,15.13,0,0,1-3.466,1.461,12.582,12.582,0,0,1-4.008,0,7.452,7.452,0,0,0,4.239.876c1.626-.112,3.222-.694,3.538-1.393.156-.345-.3-.945-.3-.945" transform="translate(24.513 28.049)" fill="#ea5e47"/>
              <path id="Trazado_874620" data-name="Trazado 874620" d="M88.444,80.85s-1.963-2.971-3.779-3.95a20.124,20.124,0,0,0-9.479-1.834,26.471,26.471,0,0,1-10.872-1.4,15.633,15.633,0,0,0,7.618,2.228,23.749,23.749,0,0,1,11.231,2.161,56.56,56.56,0,0,1,5.282,2.8" transform="translate(18.7 21.419)" fill="#fc8465"/>
              <path id="Trazado_874621" data-name="Trazado 874621" d="M71.985,85.472a3.976,3.976,0,0,0-4.7,1.377c-1.754,2.569,1.6,4.76,1.6,4.76a4.2,4.2,0,0,1,.494-3.757,11.9,11.9,0,0,1,2.6-2.38" transform="translate(19.418 24.773)" fill="#ea5e47"/>
              <path id="Trazado_874622" data-name="Trazado 874622" d="M69.5,87.477s-2.443-.376-4.635-.876a15.031,15.031,0,0,1-3.757-1.4,8.236,8.236,0,0,0,3.423,1.875,23.352,23.352,0,0,0,4.969.843Z" transform="translate(17.768 24.773)" fill="#ea5e47"/>
              <path id="Trazado_874623" data-name="Trazado 874623" d="M70.387,87.128s-2.569-.645-5.324-1.647a23.952,23.952,0,0,1-4.634-2.255,15.94,15.94,0,0,0,4.76,3.068,44.735,44.735,0,0,0,4.835,1.317Z" transform="translate(17.571 24.2)" fill="#ea5e47"/>
              <path id="Trazado_874624" data-name="Trazado 874624" d="M81.2,93.043a2.06,2.06,0,1,0,2-2.535,2.317,2.317,0,0,0-2,2.535" transform="translate(23.61 26.317)" fill="#fff"/>
              <path id="Trazado_874625" data-name="Trazado 874625" d="M81.973,92.769a1.03,1.03,0,1,0,1-1.268,1.159,1.159,0,0,0-1,1.268" transform="translate(23.835 26.606)" fill="#672a5c"/>
              <path id="Trazado_874626" data-name="Trazado 874626" d="M64.271,75.114s-3.559,1.092-4.687,2.849-.831,5.537-.831,5.537-4.429,1.274-6.935,0a6.445,6.445,0,0,1-3.131-3.91,7.22,7.22,0,0,0,4.435-3.251c2.02-2.915,2.6-6.165,1.109-10.423s-3.414-5.974-3.414-5.974,2.995-2.9,7.233.864c2.745,2.434,4.434,13.7,6.222,14.308" transform="translate(14.157 17.12)" fill="#fc8465"/>
              <path id="Trazado_874627" data-name="Trazado 874627" d="M60.382,74.228a33.542,33.542,0,0,1-2.711-6.1,20.024,20.024,0,0,0-3.7-6.2s1.506,3.511,2.54,6.2a28.11,28.11,0,0,0,3.87,6.1" transform="translate(15.694 18.006)" fill="#f46e53"/>
              <path id="Trazado_874628" data-name="Trazado 874628" d="M58.834,73.71a16.548,16.548,0,0,1-2.54-3.883,29.82,29.82,0,0,1-1.571-3.634A16.059,16.059,0,0,0,56.117,71a7,7,0,0,0,2.717,2.714" transform="translate(15.912 19.247)" fill="#f46e53"/>
              <path id="Trazado_874629" data-name="Trazado 874629" d="M58.087,72.957a5.236,5.236,0,0,0-4.973-.876,12.136,12.136,0,0,1,2.677.3c.918.288,2.3.58,2.3.58" transform="translate(15.444 20.877)" fill="#f46e53"/>
              <path id="Trazado_874630" data-name="Trazado 874630" d="M57.858,74.076a4.272,4.272,0,0,0-3.115-.794A9.1,9.1,0,0,0,51.629,74s2.046-.178,3.024-.219a24.823,24.823,0,0,1,3.2.3" transform="translate(15.012 21.303)" fill="#f46e53"/>
              <path id="Trazado_874631" data-name="Trazado 874631" d="M57.694,75.7a23.292,23.292,0,0,1-3.7.889,6.812,6.812,0,0,1-3.7-.5A5.127,5.127,0,0,0,54,77.452a7.853,7.853,0,0,0,3.7-1.752" transform="translate(14.627 22.011)" fill="#f46e53"/>
              <path id="Trazado_874632" data-name="Trazado 874632" d="M57.049,74.769a9.462,9.462,0,0,0-2.509,0c-1.291.19-3.17.523-3.17.523s2.345.084,3.449,0a8.94,8.94,0,0,0,2.23-.523" transform="translate(14.937 21.716)" fill="#f46e53"/>
              <path id="Trazado_874633" data-name="Trazado 874633" d="M62.108,71.47A5.291,5.291,0,0,0,58.427,73.8c-1.632,2.236-1.837,6.055-1.837,6.055a6.6,6.6,0,0,1,.622-6.055,4.815,4.815,0,0,1,4.9-2.331" transform="translate(16.319 20.763)" fill="#ea5e47"/>
              <path id="Trazado_874634" data-name="Trazado 874634" d="M30.542,87.711c-1.726.888-5.845,1.256-12.471-1.954a32.181,32.181,0,0,1-7.5-5.22,10.465,10.465,0,0,0,.462,4.109,3.846,3.846,0,0,0,1.632,2.167l-.014.086L28.66,96.215l3.37-5.108.524-4.392Z" transform="translate(3.067 23.418)" fill="#f46e53"/>
              <path id="Trazado_874635" data-name="Trazado 874635" d="M30.536,95.062l2.012-1,.292-2.44.54-7.921.328-.217c2.323-1.544,4.66-3.011,6.974-4.689a24.749,24.749,0,0,0,5.188-4.833c.236-.306.46-.622.676-.941.068-.1.13-.207.195-.309,3.813-.546,13.079-1.887,13.523-2.1.559-.268,2.65-4.857,2.65-4.857l-15.593-9.1c-1.6-1.295-3.834-1.528-6.092-1.349-4.759.377-12.815,4.439-17.016,8.229A48.575,48.575,0,0,0,14.006,76.955a31.794,31.794,0,0,0-3.233,9.15c-.1.607-.165,1.2-.2,1.783a32.18,32.18,0,0,0,7.5,5.22c6.627,3.21,10.746,2.842,12.471,1.954" transform="translate(3.073 16.067)" fill="#f4cfc1"/>
              <path id="Trazado_874636" data-name="Trazado 874636" d="M28.505,94.273c-.186-2.828,1.6-5.184,3.453-7.121C35.9,83.026,40.339,78.6,45.95,76.929a10.508,10.508,0,0,1,7.1.027,5.25,5.25,0,0,1,2.463,2.072c.32.531.524,1.122.818,1.664A20.733,20.733,0,0,0,58.411,78.4c.238-.3.461-.621.678-.941a6.158,6.158,0,0,0-5.646-4.647A28.584,28.584,0,0,0,45,73.675a22.866,22.866,0,0,0-9.614,4.71,85.565,85.565,0,0,0-8.642,8.291,47,47,0,0,0-3.428,3.87,12.106,12.106,0,0,0,.258,5.891c1.175,3.328,4.129,3.01,7.084,1.6a4.81,4.81,0,0,1-2.152-3.759" transform="translate(6.711 21.152)" fill="#ff9783"/>
              <path id="Trazado_874637" data-name="Trazado 874637" d="M37.615,92.052,45.03,87.12c2.323-1.545,4.661-3.011,6.974-4.689a29.9,29.9,0,0,0,3.1-2.547c-.294-.542-.5-1.133-.818-1.663a5.245,5.245,0,0,0-2.463-2.073,10.516,10.516,0,0,0-7.1-.026c-5.611,1.674-10.053,6.1-13.992,10.222-1.851,1.937-3.639,4.293-3.453,7.121a4.81,4.81,0,0,0,2.152,3.759c.44-.21.88-.444,1.314-.694,2.287-1.322,4.582-2.961,6.863-4.478" transform="translate(7.93 21.958)" fill="#fc8465"/>
              <path id="Trazado_874638" data-name="Trazado 874638" d="M39.907,69.536c-.728-.267-1.724.314-2.574.9a26.689,26.689,0,0,0-5.958,6.334c-1.588,2.2-6.889,9.219-4.9,8.295.565-.325,2.832-2.239,3.381-2.718.933-.813,1.859-1.668,2.785-2.508s1.85-1.648,2.784-2.4l.01-.012a18.157,18.157,0,0,0,4.584-5.052c.663-1.164.784-2.507-.116-2.836" transform="translate(7.571 20.2)" fill="#ff9783"/>
              <path id="Trazado_874639" data-name="Trazado 874639" d="M42.277,68.573a19.565,19.565,0,0,0-4.738,5.08c-1.326,2.014,1.246.51,1.808.3a29.288,29.288,0,0,1,6.114-1.517c1.8-.263,3.574-.4,5.343-.524a8.3,8.3,0,0,1,4.11.376,3.885,3.885,0,0,1,2.057,2.969,17.843,17.843,0,0,0,1.153-5.6c-3.254-.812-6.49-1.69-9.806-2.314a7.235,7.235,0,0,0-6.041,1.228" transform="translate(10.806 19.527)" fill="#ff9783"/>
              <path id="Trazado_874640" data-name="Trazado 874640" d="M61.986,68.114c-.871-4.911-4.532-5.725-8.267-5.429-4.759.378-12.815,4.44-17.018,8.23A48.6,48.6,0,0,0,26.5,84.334a31.816,31.816,0,0,0-3.232,9.15,47.214,47.214,0,0,1,3.427-3.87,85.7,85.7,0,0,1,8.642-8.291,22.866,22.866,0,0,1,9.614-4.71,28.588,28.588,0,0,1,8.446-.858A6.156,6.156,0,0,1,59.035,80.4a18.469,18.469,0,0,0,1.979-3.831A3.891,3.891,0,0,0,58.957,73.6a8.283,8.283,0,0,0-4.11-.374c-1.77.123-3.543.261-5.344.523a29.359,29.359,0,0,0-6.113,1.517c-.564.212-3.134,1.715-1.81-.3a19.6,19.6,0,0,1,4.74-5.082,7.233,7.233,0,0,1,6.04-1.228c3.316.625,6.553,1.5,9.806,2.314a13.616,13.616,0,0,0-.179-2.86M40.83,74.359a18.139,18.139,0,0,1-4.584,5.052l-.01.013c-.935.753-1.861,1.566-2.784,2.4s-1.852,1.7-2.784,2.508c-.55.479-2.816,2.393-3.382,2.72-1.993.923,3.308-6.091,4.9-8.3a26.708,26.708,0,0,1,5.957-6.334c.849-.586,1.846-1.166,2.574-.9.9.33.781,1.673.116,2.836" transform="translate(6.764 18.212)" fill="#fbe2d7"/>
              <path id="Trazado_874641" data-name="Trazado 874641" d="M51.4,86.536c-4.04-3.916-8.91-3.164-14.356.438-3.082,2.039-6.933,8-8.008,13.011,5.384-.3,7.623-.125,14.56-2.388,8.586-2.8,11.5-7.477,7.8-11.061" transform="translate(8.443 24.401)" fill="#e08141"/>
              <path id="Trazado_874642" data-name="Trazado 874642" d="M51.692,86.175a7.334,7.334,0,0,1-3.184,5.031c-2.4,1.781-5.443,2.58-8.19,3.649C36.85,96.2,32.36,97.678,29.036,99.329a32.729,32.729,0,0,0,14.623-1.89c8.344-2.722,11.422-7.9,8.032-11.265" transform="translate(8.443 25.057)" fill="#ce7436"/>
              <g id="Grupo_1099489" data-name="Grupo 1099489" transform="translate(42.586 111.006)" opacity="0.5">
                <g id="Grupo_1099488" data-name="Grupo 1099488">
                  <g id="Grupo_1099487" data-name="Grupo 1099487" clip-path="url(#clip-path-3)">
                    <path id="Trazado_874643" data-name="Trazado 874643" d="M39.706,86.131C37.9,85.462,36,87.485,34.78,89.166A21.8,21.8,0,0,0,33,91.918a22.369,22.369,0,0,1,4.675-3.333c2.376-1.162,3.861-1.781,2.036-2.455" transform="translate(-32.993 -86)" fill="#ffa573"/>
                  </g>
                </g>
              </g>
              <path id="Trazado_874644" data-name="Trazado 874644" d="M49.156,84.689s-4.7,2.365-9.368,4.6c-2.6,1.246-6.939,5.2-8.034,6.06a14.845,14.845,0,0,0-2.224,2.4s-.3.951-.267.858,2.354-2.025,4.27-3.511a54.247,54.247,0,0,1,8.346-4.5c2.458-1.151,6.011-2.014,7.277-2.574a6.583,6.583,0,0,0,2.176-1.705,15.848,15.848,0,0,0-2.176-1.622" transform="translate(8.508 24.625)" fill="#ce7436"/>
              <path id="Trazado_874645" data-name="Trazado 874645" d="M33.843,88.589s4.11-3.7,6.431-4.527a9.464,9.464,0,0,1,7.264.776c1.608,1.066-.294,1.553-.294,1.553a4.447,4.447,0,0,0-3.282-1.944c-2.53-.453-10.118,4.142-10.118,4.142" transform="translate(9.841 24.326)" fill="#ce7436"/>
              <path id="Trazado_874646" data-name="Trazado 874646" d="M48.152,96.046a4.023,4.023,0,0,1-3.615-.339c-1.881-1.15-3.362-1.85-3.362-1.85s1.584-.83,2.139-1.128a6.746,6.746,0,0,1,2.2-.25,3.774,3.774,0,0,1-1.342-1.967c-.31-1.239-.52-2.433-.52-2.433a23.455,23.455,0,0,1,2.394.163c.716.126,1.841.369,1.841.369s-.413-1.2-.768-2.3a7.738,7.738,0,0,1-.3-2.36s1.333.352,2.227.565a13.022,13.022,0,0,1,2.108.8,11.753,11.753,0,0,0,.4-2.192A2.967,2.967,0,0,1,52.36,81.2a9.549,9.549,0,0,0,2.671,3.929c1.817,1.42,1.007,4.55,1.007,4.55Z" transform="translate(11.972 23.612)" fill="#83b239"/>
              <path id="Trazado_874647" data-name="Trazado 874647" d="M54.433,85.133A9.549,9.549,0,0,1,51.762,81.2s-.032.03-.077.08a8.231,8.231,0,0,0,.408,2.7c.541,1.461,1.6,2.209,2.649,3.262a1.508,1.508,0,0,1-1.735,2.419,5.829,5.829,0,0,1-1.319-.782c-.021.025-.04.052-.062.076-.29,1.218-1.961,2.131-2.948.989a10.957,10.957,0,0,0-1.388-1.34c-.391-.083-1.388-.29-1.839-.369a20.348,20.348,0,0,0-2.221-.157,5.269,5.269,0,0,0,1.69,1.259,22.251,22.251,0,0,0,3.321.938,1.768,1.768,0,0,1,.117,3.381,7.029,7.029,0,0,1-1.532.241,1.514,1.514,0,0,1,.1.261,3.123,3.123,0,0,1,.555.079,1.837,1.837,0,0,1,.852.5c.438-.114.862-.239,1.289-.361l5.818-4.695s.811-3.131-1.007-4.55" transform="translate(12.57 23.612)" fill="#97c941"/>
              <path id="Trazado_874648" data-name="Trazado 874648" d="M45.548,83.331a23.066,23.066,0,0,0,3.3,3.418,18.131,18.131,0,0,0,3.48,2.3l.108-1.057a18.8,18.8,0,0,0-2.775-3.4c-1.385-1.206-4.118-1.265-4.118-1.265" transform="translate(13.244 24.23)" fill="#97c941"/>
              <path id="Trazado_874649" data-name="Trazado 874649" d="M64.322,96a3.585,3.585,0,0,0-2-5.869c0-.026.008-.049.008-.074a3.6,3.6,0,0,0-2.347-3.368c.012-.12.036-.238.036-.36a3.509,3.509,0,0,0-6.919-.838,3.476,3.476,0,0,0-4.461,3.981,3.586,3.586,0,0,0-2.775,6.371,3.592,3.592,0,0,0,2.219,6.427,3.505,3.505,0,0,0,.537-.054,3.571,3.571,0,0,0,5.779,1.821,3.594,3.594,0,0,0,6.73-1.767c0-.031-.009-.061-.009-.093a3.586,3.586,0,0,0,4.4-3.512A3.58,3.58,0,0,0,64.322,96M51.666,92.382c-.013,0-.026.006-.039.008-.005-.027,0-.057-.008-.084l.03,0c.006.025.01.049.017.074" transform="translate(12.934 24.079)" fill="#9996ff"/>
              <path id="Trazado_874650" data-name="Trazado 874650" d="M64.315,93.892a3.516,3.516,0,0,0,.538-3.84,4.17,4.17,0,0,1-1.521,2.82c.874,1.549,1.169,3.343-.241,4.776a3.945,3.945,0,0,1-2.81,1.194,3.966,3.966,0,0,1-2.221,2.511c-1.8.747-3.068,0-4.177-1.107a3.834,3.834,0,0,1-4.51.179,3.692,3.692,0,0,1-1.5-1.957A4.983,4.983,0,0,1,44.507,96.9a3.593,3.593,0,0,0,3.57,3.262,3.693,3.693,0,0,0,.538-.054,3.57,3.57,0,0,0,5.777,1.82,3.595,3.595,0,0,0,6.731-1.766c0-.032-.009-.062-.01-.094a3.592,3.592,0,0,0,3.2-6.178" transform="translate(12.941 26.185)" fill="#8282f4"/>
              <path id="Trazado_874651" data-name="Trazado 874651" d="M50.057,90.243c-.013,0-.026.006-.039.008-.005-.027,0-.057-.008-.084l.03,0c.006.025.01.049.017.074" transform="translate(14.542 26.218)" fill="#6d6de8"/>
              <path id="Trazado_874652" data-name="Trazado 874652" d="M59.451,90.877a1.8,1.8,0,1,1-1.8-1.8,1.8,1.8,0,0,1,1.8,1.8" transform="translate(16.238 25.9)" fill="#a9a9ff"/>
              <path id="Trazado_874653" data-name="Trazado 874653" d="M58.459,90.388A1.088,1.088,0,1,1,57.371,89.3a1.088,1.088,0,0,1,1.088,1.088" transform="translate(16.366 25.966)" fill="#fff"/>
              <path id="Trazado_874654" data-name="Trazado 874654" d="M55.76,93.291a1.8,1.8,0,1,1-1.8-1.8,1.8,1.8,0,0,1,1.8,1.8" transform="translate(15.165 26.602)" fill="#a9a9ff"/>
              <path id="Trazado_874655" data-name="Trazado 874655" d="M54.768,92.8a1.088,1.088,0,1,1-1.088-1.088A1.088,1.088,0,0,1,54.768,92.8" transform="translate(15.292 26.668)" fill="#fff"/>
              <path id="Trazado_874656" data-name="Trazado 874656" d="M59.589,94.687a1.8,1.8,0,1,1-1.8-1.8,1.8,1.8,0,0,1,1.8,1.8" transform="translate(16.279 27.008)" fill="#a9a9ff"/>
              <path id="Trazado_874657" data-name="Trazado 874657" d="M58.6,94.2a1.088,1.088,0,1,1-1.088-1.088A1.087,1.087,0,0,1,58.6,94.2" transform="translate(16.406 27.074)" fill="#fff"/>
              <path id="Trazado_874658" data-name="Trazado 874658" d="M56.215,97.571a1.8,1.8,0,1,1-1.8-1.8,1.8,1.8,0,0,1,1.8,1.8" transform="translate(15.298 27.847)" fill="#a9a9ff"/>
              <path id="Trazado_874659" data-name="Trazado 874659" d="M55.223,97.082a1.088,1.088,0,1,1-1.088-1.088,1.088,1.088,0,0,1,1.088,1.088" transform="translate(15.425 27.912)" fill="#fff"/>
              <path id="Trazado_874660" data-name="Trazado 874660" d="M52.139,96.825a1.8,1.8,0,1,1-1.8-1.8,1.8,1.8,0,0,1,1.8,1.8" transform="translate(14.112 27.63)" fill="#a9a9ff"/>
              <path id="Trazado_874661" data-name="Trazado 874661" d="M51.147,96.336a1.088,1.088,0,1,1-1.088-1.088,1.088,1.088,0,0,1,1.088,1.088" transform="translate(14.239 27.695)" fill="#fff"/>
              <path id="Trazado_874662" data-name="Trazado 874662" d="M52.023,92.705a1.8,1.8,0,1,1-1.8-1.8,1.8,1.8,0,0,1,1.8,1.8" transform="translate(14.079 26.432)" fill="#a9a9ff"/>
              <path id="Trazado_874663" data-name="Trazado 874663" d="M51.031,92.216a1.088,1.088,0,1,1-1.088-1.088,1.088,1.088,0,0,1,1.088,1.088" transform="translate(14.206 26.497)" fill="#fff"/>
              <path id="Trazado_874664" data-name="Trazado 874664" d="M54.493,89.877a1.8,1.8,0,1,1-1.8-1.8,1.8,1.8,0,0,1,1.8,1.8" transform="translate(14.797 25.609)" fill="#a9a9ff"/>
              <path id="Trazado_874665" data-name="Trazado 874665" d="M53.5,89.387A1.088,1.088,0,1,1,52.413,88.3,1.088,1.088,0,0,1,53.5,89.387" transform="translate(14.924 25.675)" fill="#fff"/>
              <path id="Trazado_874666" data-name="Trazado 874666" d="M48.7,94.687a1.8,1.8,0,1,1-1.8-1.8,1.8,1.8,0,0,1,1.8,1.8" transform="translate(13.112 27.008)" fill="#a9a9ff"/>
              <path id="Trazado_874667" data-name="Trazado 874667" d="M47.708,94.2A1.088,1.088,0,1,1,46.62,93.11,1.087,1.087,0,0,1,47.708,94.2" transform="translate(13.239 27.074)" fill="#fff"/>
              <path id="Trazado_874668" data-name="Trazado 874668" d="M51.906,87.084a1.8,1.8,0,1,1-1.8-1.8,1.8,1.8,0,0,1,1.8,1.8" transform="translate(14.045 24.797)" fill="#a9a9ff"/>
              <path id="Trazado_874669" data-name="Trazado 874669" d="M50.914,86.594a1.088,1.088,0,1,1-1.088-1.088,1.088,1.088,0,0,1,1.088,1.088" transform="translate(14.172 24.863)" fill="#fff"/>
              <path id="Trazado_874670" data-name="Trazado 874670" d="M48.7,90.6a1.8,1.8,0,1,1-1.8-1.8,1.8,1.8,0,0,1,1.8,1.8" transform="translate(13.112 25.819)" fill="#a9a9ff"/>
              <path id="Trazado_874671" data-name="Trazado 874671" d="M47.708,90.11a1.088,1.088,0,1,1-1.088-1.088,1.087,1.087,0,0,1,1.088,1.088" transform="translate(13.239 25.885)" fill="#fff"/>
              <path id="Trazado_874672" data-name="Trazado 874672" d="M57.566,87.653a1.8,1.8,0,1,1-1.8-1.8,1.8,1.8,0,0,1,1.8,1.8" transform="translate(15.69 24.963)" fill="#a9a9ff"/>
              <path id="Trazado_874673" data-name="Trazado 874673" d="M56.574,87.163a1.088,1.088,0,1,1-1.088-1.088,1.088,1.088,0,0,1,1.088,1.088" transform="translate(15.817 25.028)" fill="#fff"/>
              <path id="Trazado_874674" data-name="Trazado 874674" d="M55.443,84.8a1.8,1.8,0,1,1-1.8-1.8,1.8,1.8,0,0,1,1.8,1.8" transform="translate(15.073 24.132)" fill="#a9a9ff"/>
              <path id="Trazado_874675" data-name="Trazado 874675" d="M54.451,84.305a1.088,1.088,0,1,1-1.088-1.088,1.088,1.088,0,0,1,1.088,1.088" transform="translate(15.2 24.197)" fill="#fff"/>
            </g>
          </g>
        </g>
      </g>
    </g>
  </g>
</svg>
