<svg xmlns="http://www.w3.org/2000/svg" width="20.25" height="20.25" viewBox="0 0 20.25 20.25">
  <g id="Invoice" transform="translate(-2 -2)">
    <path id="Trazado_157542" data-name="Trazado 157542" d="M29.863,2H27.838a.338.338,0,0,0-.338.338v.129l-.719-.36A1.017,1.017,0,0,0,26.328,2H21.381a1.012,1.012,0,0,0-.631.222L19.339,3.35h-5A.338.338,0,0,0,14,3.688V9.763a.338.338,0,0,0,.338.337h9.45a.338.338,0,0,0,.338-.337V6.539a3.046,3.046,0,0,0,2.68-.219l.452-.27H27.5v.338a.338.338,0,0,0,.338.337h2.025a.337.337,0,0,0,.337-.337V2.338A.337.337,0,0,0,29.863,2ZM14.675,9.425v-5.4h7.4L21.7,4.4a1.012,1.012,0,1,0,1.432,1.432l.321-.321v3.91ZM27.16,5.375a.335.335,0,0,0-.171.048l-.531.318a2.372,2.372,0,0,1-2.106.163l-.227-.092V4.84l.429-.429.174.058a2.377,2.377,0,0,0,1.494,0l.371-.124A.338.338,0,0,0,26.38,3.7l-.371.124a1.7,1.7,0,0,1-1.067,0L24.571,3.7a.337.337,0,0,0-.345.082L22.652,5.358a.345.345,0,0,1-.477,0,.338.338,0,0,1,0-.477l1.312-1.312a.337.337,0,1,0-.477-.477l-.258.258H20.42l.751-.6a.34.34,0,0,1,.211-.074h4.947a.343.343,0,0,1,.151.035l1.021.511V5.373Zm2.365.675h-1.35V2.675h1.35Z" transform="translate(-7.95 0)" fill="#ffdc39"/>
    <path id="Trazado_157543" data-name="Trazado 157543" d="M15.556,35.862a1,1,0,0,0-.393-.026V30.675A.675.675,0,0,0,14.488,30H7.062a.675.675,0,0,0-.675.675v5.737H6.031a1.7,1.7,0,0,0-.755.178l-.576.288v-.466a.338.338,0,0,0-.337-.338H2.338A.338.338,0,0,0,2,36.412v4.05a.338.338,0,0,0,.338.338H4.363a.338.338,0,0,0,.337-.338V40.08l.147.1a1.685,1.685,0,0,0,.936.284h4.584a3.035,3.035,0,0,0,1.558-.43L15.8,37.717a1.015,1.015,0,0,0,.506-.878.974.974,0,0,0-.135-.506,1,1,0,0,0-.616-.471ZM11.45,30.675v2.407l-.488-.325a.338.338,0,0,0-.375,0l-.488.325V30.675Zm-4.388,0H9.425v3.037a.337.337,0,0,0,.525.281l.825-.551.825.55a.338.338,0,0,0,.525-.28V30.675h2.362v5.463l-2.4,1.384a1.013,1.013,0,0,0-.979-.772H8.492l-.461-.231a1.017,1.017,0,0,0-.453-.107H7.062Zm-3.037,9.45H2.675V36.75h1.35Zm11.433-2.99-3.879,2.318a2.363,2.363,0,0,1-1.212.334H5.784a1.009,1.009,0,0,1-.562-.169L4.7,39.269V37.634l.878-.439a1.013,1.013,0,0,1,.454-.107H7.578a.343.343,0,0,1,.151.034l.533.267a.337.337,0,0,0,.151.037h2.7a.337.337,0,1,1,0,.675H8.75a.338.338,0,0,0,0,.675h2.363a1.006,1.006,0,0,0,.756-.346l3.258-1.882a.331.331,0,0,1,.254-.034.337.337,0,0,1,.209.166.315.315,0,0,1,.042.161.341.341,0,0,1-.173.295Z" transform="translate(0 -18.55)" fill="#ffdc39"/>
    <path id="Trazado_157544" data-name="Trazado 157544" d="M21.038,12h-2.7a.338.338,0,0,0-.337.337v2.7a.337.337,0,0,0,.337.337h2.7a.338.338,0,0,0,.337-.337v-2.7A.338.338,0,0,0,21.038,12ZM20.7,14.7H18.675V12.675h.675v.675a.337.337,0,1,0,.675,0v-.675H20.7Z" transform="translate(-10.6 -6.625)" fill="#ffdc39"/>
    <path id="Trazado_157545" data-name="Trazado 157545" d="M30.337,12.675h.675a.337.337,0,0,0,0-.675h-.675a.337.337,0,1,0,0,.675Z" transform="translate(-18.55 -6.625)" fill="#ffdc39"/>
    <path id="Trazado_157546" data-name="Trazado 157546" d="M33.037,16h-2.7a.338.338,0,1,0,0,.675h2.7a.338.338,0,1,0,0-.675Z" transform="translate(-18.55 -9.275)" fill="#ffdc39"/>
    <path id="Trazado_157547" data-name="Trazado 157547" d="M33.037,20h-2.7a.338.338,0,1,0,0,.675h2.7a.338.338,0,1,0,0-.675Z" transform="translate(-18.55 -11.925)" fill="#ffdc39"/>
  </g>
</svg>
