<svg xmlns="http://www.w3.org/2000/svg" width="149" height="148.498" viewBox="0 0 149 148.498">
  <g id="Grupo_1100057" data-name="Grupo 1100057" transform="translate(-741.25 -3970.5)">
    <g id="Grupo_1099217" data-name="Grupo 1099217" transform="translate(0 756)">
      <rect id="Rectángulo_401185" data-name="Rectángulo 401185" width="146" height="89" rx="20" transform="translate(742.75 3216)" fill="none" stroke="#ff725d" stroke-miterlimit="10" stroke-width="3"/>
      <g id="Page-1" transform="translate(744.15 3238)">
        <g id="_010---Sun-Cream" data-name="010---Sun-Cream" transform="translate(0 0)">
          <path id="Shape" d="M56,52v4.167A10.417,10.417,0,0,1,45.583,66.583H16.417A10.417,10.417,0,0,1,6,56.167V52H20.583c0,3.458,4.667,6.25,10.417,6.25S41.416,55.458,41.416,52Z" transform="translate(6.5 56.332)" fill="#ff9801"/>
          <path id="Shape-2" data-name="Shape" d="M32.417,52v4.167A10.417,10.417,0,0,1,22,66.583h6.25A10.417,10.417,0,0,0,38.666,56.167V52Z" transform="translate(23.833 56.332)" fill="#f57c00"/>
          <path id="Shape-3" data-name="Shape" d="M56,45V59.583H41.416c0-3.458-4.667-6.25-10.417-6.25s-10.417,2.792-10.417,6.25H6V45Z" transform="translate(6.5 48.749)" fill="#ff9801"/>
          <path id="Rectangle-path" d="M27,45h6.25V59.583H27Z" transform="translate(29.249 48.749)" fill="#f57c00"/>
          <path id="Shape-4" data-name="Shape" d="M71.832,7,61.416,86.165h-50L1,7Z" transform="translate(1.083 7.583)" fill="#02a9f4"/>
          <path id="Shape-5" data-name="Shape" d="M37.417,7,27,86.165h6.25L43.666,7Z" transform="translate(29.249 7.583)" fill="#0377bc"/>
          <ellipse id="Oval" cx="10.417" cy="6.155" rx="10.417" ry="6.155" transform="translate(27.462 102.273)" fill="#f57c00"/>
          <path id="Shape-6" data-name="Shape" d="M71.832,7.25V13.5H1V7.25A6.25,6.25,0,0,1,7.25,1H65.582A6.25,6.25,0,0,1,71.832,7.25Z" transform="translate(1.083 1.083)" fill="#ff9801"/>
          <path id="Shape-7" data-name="Shape" d="M35.25,1H29a6.25,6.25,0,0,1,6.25,6.25V13.5H41.5V7.25A6.25,6.25,0,0,0,35.25,1Z" transform="translate(31.416 1.083)" fill="#f57c00"/>
          <circle id="Oval-2" data-name="Oval" cx="12.784" cy="12.784" r="12.784" transform="translate(24.621 33.144)" fill="#ffdc00"/>
          <path id="Shape-8" data-name="Shape" d="M31.173,23.7A12.5,12.5,0,0,0,16.5,16.409a12.464,12.464,0,0,1,0,24.179A12.483,12.483,0,0,0,31.173,23.713Z" transform="translate(17.874 17.341)" fill="#fec108"/>
          <g id="Grupo_81135" data-name="Grupo 81135">
            <path id="Shape-9" data-name="Shape" d="M.019,14.854l10.4,79.028V112.5a12.512,12.512,0,0,0,12.5,12.5H52.083a12.512,12.512,0,0,0,12.5-12.5V93.882l10.4-79.028c0-.044-.013-.083-.01-.127s.029-.094.029-.144V8.333A8.333,8.333,0,0,0,66.666,0H8.333A8.333,8.333,0,0,0,0,8.333v6.25c0,.05.025.094.029.144s-.017.083-.01.127Zm60.4,91.394H49.605C48.249,102.617,43.424,100,37.5,100s-10.75,2.619-12.106,6.25H14.583V95.832H60.416Zm-14.583,2.083c0,1.967-3.565,4.167-8.333,4.167s-8.333-2.2-8.333-4.167,3.565-4.167,8.333-4.167S45.833,106.365,45.833,108.332Zm6.25,12.5H22.916a8.333,8.333,0,0,1-8.333-8.333v-2.083h10.81c1.356,3.631,6.181,6.25,12.106,6.25s10.75-2.619,12.106-6.25h10.81V112.5A8.333,8.333,0,0,1,52.083,120.831ZM4.167,8.333A4.167,4.167,0,0,1,8.333,4.167H66.666a4.167,4.167,0,0,1,4.167,4.167V12.5H27.083a2.083,2.083,0,0,0,0,4.167H70.538l-9.867,75H14.327l-9.867-75H14.583a2.083,2.083,0,1,0,0-4.167H4.167Z" transform="translate(0 0)" fill="#12263f"/>
            <path id="Shape-10" data-name="Shape" d="M20,43.056a14.583,14.583,0,1,0-7.892-7.894A14.583,14.583,0,0,0,20,43.056ZM15.961,25.6a10.416,10.416,0,1,1,3.281,12.252A10.417,10.417,0,0,1,15.961,25.6Z" transform="translate(11.916 16.25)" fill="#12263f"/>
            <path id="Shape-11" data-name="Shape" d="M14.16,16.644a2.083,2.083,0,1,0,3.85-1.594L16.417,11.2a2.083,2.083,0,0,0-3.85,1.594Z" transform="translate(13.441 10.739)" fill="#12263f"/>
            <path id="Shape-12" data-name="Shape" d="M24.836,31.525a2.083,2.083,0,1,0-3.85,1.594l1.594,3.85a2.083,2.083,0,1,0,3.85-1.594Z" transform="translate(22.562 32.757)" fill="#12263f"/>
            <path id="Shape-13" data-name="Shape" d="M28.323,22.171a2.083,2.083,0,0,0,.8-.16l3.85-1.594a2.084,2.084,0,1,0-1.6-3.85l-3.85,1.6a2.083,2.083,0,0,0,.8,4.008Z" transform="translate(28.424 17.775)" fill="#12263f"/>
            <path id="Shape-14" data-name="Shape" d="M11.049,24.992,7.2,26.585a2.084,2.084,0,1,0,1.6,3.85l3.85-1.6a2.083,2.083,0,1,0-1.6-3.848Z" transform="translate(6.405 26.882)" fill="#12263f"/>
            <path id="Shape-15" data-name="Shape" d="M27.546,28.846l3.85,1.6a2.084,2.084,0,1,0,1.6-3.85l-3.85-1.6a2.083,2.083,0,1,0-1.6,3.848Z" transform="translate(28.403 26.882)" fill="#12263f"/>
            <path id="Shape-16" data-name="Shape" d="M6.072,17.7A2.083,2.083,0,0,0,7.2,20.418l3.85,1.594a2.083,2.083,0,1,0,1.6-3.848L8.8,16.568A2.083,2.083,0,0,0,6.072,17.7Z" transform="translate(6.405 17.773)" fill="#12263f"/>
            <path id="Shape-17" data-name="Shape" d="M22.115,17.771a2.083,2.083,0,0,0,2.723-1.127l1.594-3.85a2.083,2.083,0,0,0-3.85-1.594l-1.6,3.85a2.083,2.083,0,0,0,1.133,2.721Z" transform="translate(22.559 10.739)" fill="#12263f"/>
            <path id="Shape-18" data-name="Shape" d="M16.883,30.4a2.083,2.083,0,0,0-2.723,1.127l-1.594,3.842a2.083,2.083,0,1,0,3.85,1.594l1.594-3.85A2.083,2.083,0,0,0,16.883,30.4Z" transform="translate(13.442 32.758)" fill="#12263f"/>
          </g>
        </g>
      </g>
    </g>
  </g>
</svg>
