<svg xmlns="http://www.w3.org/2000/svg" width="155" height="124.5" viewBox="0 0 155 124.5">
  <g id="Grupo_1100058" data-name="Grupo 1100058" transform="translate(-961.75 -4008)">
    <g id="Grupo_1099216" data-name="Grupo 1099216" transform="translate(0 756)">
      <rect id="Rectángulo_401186" data-name="Rectángulo 401186" width="146" height="89" rx="20" transform="translate(963.25 3286)" fill="none" stroke="#ff725d" stroke-miterlimit="10" stroke-width="3"/>
      <g id="atun" transform="translate(1010.75 3251)">
        <path id="Trazado_156137" data-name="Trazado 156137" d="M2,34V71.258C2,76.87,17.164,81.419,35.871,81.419S69.742,76.87,69.742,71.258V34" transform="translate(0.694 22.887)" fill="#c1c8d1"/>
        <path id="Trazado_156138" data-name="Trazado 156138" d="M48.258,66.722a97.885,97.885,0,0,1-18.629,1.673A97.885,97.885,0,0,1,11,66.722V43.012a97.886,97.886,0,0,0,18.629,1.673,97.886,97.886,0,0,0,18.629-1.673Z" transform="translate(6.935 29.137)" fill="#758190"/>
        <path id="Trazado_156139" data-name="Trazado 156139" d="M11,43.012V64.374a26.367,26.367,0,0,0,4.229.371,26.243,26.243,0,0,0,25.63-20.639,107.462,107.462,0,0,1-11.23.579A97.886,97.886,0,0,1,11,43.012Z" transform="translate(6.935 29.137)" fill="#8892a0"/>
        <ellipse id="Elipse_4727" data-name="Elipse 4727" cx="33.5" cy="10" rx="33.5" ry="10" transform="translate(3 47)" fill="#d5cec2"/>
        <ellipse id="Elipse_4728" data-name="Elipse 4728" cx="28.79" cy="10.034" rx="28.79" ry="10.034" transform="translate(2.694 46.853)" fill="#e7e4dd"/>
        <ellipse id="Elipse_4729" data-name="Elipse 4729" cx="6.5" cy="3" rx="6.5" ry="3" transform="translate(15 54)" fill="#758190"/>
        <path id="Trazado_156140" data-name="Trazado 156140" d="M18,53.081l4.065,3.048a10.161,10.161,0,0,0,12.194,0l4.065-3.048-4.065-3.048a10.161,10.161,0,0,0-12.194,0Z" transform="translate(11.79 32.597)" fill="#cbc3b6"/>
        <path id="Trazado_156141" data-name="Trazado 156141" d="M20.774,53.081l-.086.261A7.049,7.049,0,0,1,14,58.161l1.694-5.081L14,48a7.049,7.049,0,0,1,6.688,4.82Z" transform="translate(9.016 32.597)" fill="#d5cec2"/>
        <path id="Trazado_156142" data-name="Trazado 156142" d="M32.556,49.025a10.069,10.069,0,0,0-10.492,1.008L18,53.081l4.065,3.048A10.107,10.107,0,0,0,24.2,57.321a26.335,26.335,0,0,0,8.359-8.3Z" transform="translate(11.79 32.597)" fill="#d5cec2"/>
        <path id="Trazado_156143" data-name="Trazado 156143" d="M22,8V45.258c0,5.612,15.164,10.161,33.871,10.161S89.742,50.87,89.742,45.258V8" transform="translate(14.565 4.855)" fill="#a8b0bc"/>
        <path id="Trazado_156144" data-name="Trazado 156144" d="M68.258,40.722a97.885,97.885,0,0,1-18.629,1.673A97.885,97.885,0,0,1,31,40.722V17.012a97.885,97.885,0,0,0,18.629,1.673,97.885,97.885,0,0,0,18.629-1.673Z" transform="translate(20.806 11.105)" fill="#758190"/>
        <path id="Trazado_156145" data-name="Trazado 156145" d="M31,17.012V38.374A26.043,26.043,0,0,0,60.859,18.106a107.463,107.463,0,0,1-11.23.579A97.885,97.885,0,0,1,31,17.012Z" transform="translate(20.806 11.105)" fill="#8892a0"/>
        <ellipse id="Elipse_4730" data-name="Elipse 4730" cx="33.5" cy="10" rx="33.5" ry="10" transform="translate(37 3)" fill="#d5cec2"/>
        <ellipse id="Elipse_4731" data-name="Elipse 4731" cx="28.79" cy="10.034" rx="28.79" ry="10.034" transform="translate(36.565 2.821)" fill="#e7e4dd"/>
        <path id="Trazado_156146" data-name="Trazado 156146" d="M75.105,12.218C69.615,7.462,55.745,5,42,5V8.387c15.687,0,26.579,3.053,30.521,6.078A9.044,9.044,0,0,0,75.105,12.218Z" transform="translate(28.435 2.774)" fill="#cbc3b6"/>
        <path id="Trazado_156147" data-name="Trazado 156147" d="M42,8.387c9.919,0,17.913,1.223,23.452,2.884a3.293,3.293,0,0,0,.257-1.191A3.947,3.947,0,0,0,64.6,7.517,94.2,94.2,0,0,0,42,5Z" transform="translate(28.435 2.774)" fill="#d5cec2"/>
        <ellipse id="Elipse_4732" data-name="Elipse 4732" cx="6.5" cy="3.5" rx="6.5" ry="3.5" transform="translate(49 10)" fill="#758190"/>
        <ellipse id="Elipse_4733" data-name="Elipse 4733" cx="5.081" cy="3.267" rx="5.081" ry="3.267" transform="translate(48.419 9.588)" fill="#8892a0"/>
        <ellipse id="Elipse_4734" data-name="Elipse 4734" cx="5.081" cy="3.267" rx="5.081" ry="3.267" transform="translate(14.548 53.62)" fill="#8892a0"/>
        <path id="Trazado_156148" data-name="Trazado 156148" d="M38,27.081l4.065,3.048a10.161,10.161,0,0,0,12.194,0l4.065-3.048-4.065-3.048a10.161,10.161,0,0,0-12.194,0Z" transform="translate(25.661 14.565)" fill="#cbc3b6"/>
        <path id="Trazado_156149" data-name="Trazado 156149" d="M40.774,27.081l-.086.261A7.049,7.049,0,0,1,34,32.161l1.694-5.081L34,22a7.049,7.049,0,0,1,6.688,4.82Z" transform="translate(22.887 14.565)" fill="#d5cec2"/>
        <path id="Trazado_156150" data-name="Trazado 156150" d="M52.556,23.025a10.069,10.069,0,0,0-10.492,1.008L38,27.081l4.065,3.048A10.107,10.107,0,0,0,44.2,31.321,26.334,26.334,0,0,0,52.556,23.025Z" transform="translate(25.661 14.565)" fill="#d5cec2"/>
        <g id="Grupo_81136" data-name="Grupo 81136" transform="translate(1 1)">
          <path id="Trazado_156151" data-name="Trazado 156151" d="M48.623,42.043a96.26,96.26,0,0,1-18.3,1.641,96.264,96.264,0,0,1-18.3-1.641A1.69,1.69,0,0,0,10,43.706v23.71a1.694,1.694,0,0,0,1.365,1.661,99.794,99.794,0,0,0,18.959,1.7,99.814,99.814,0,0,0,18.958-1.7,1.7,1.7,0,0,0,1.363-1.661V43.706a1.695,1.695,0,0,0-2.022-1.663ZM47.258,66.01a98.494,98.494,0,0,1-16.935,1.384A98.62,98.62,0,0,1,13.387,66.01V45.738a109.8,109.8,0,0,0,33.871,0Z" transform="translate(5.242 27.444)" fill="#12263f"/>
          <path id="Trazado_156152" data-name="Trazado 156152" d="M16.468,41.16c4.827,0,8.468-2.185,8.468-5.081S21.3,31,16.468,31,8,33.184,8,36.08,11.639,41.16,16.468,41.16Zm0-6.772c3.279,0,5.081,1.272,5.081,1.694s-1.8,1.694-5.081,1.694-5.081-1.272-5.081-1.694S13.189,34.388,16.468,34.388Z" transform="translate(3.855 19.806)" fill="#12263f"/>
          <path id="Trazado_156153" data-name="Trazado 156153" d="M22.115,51.17A8.71,8.71,0,0,0,14.694,47a1.694,1.694,0,0,0-1.605,2.23L14.6,53.774,13.087,58.32a1.692,1.692,0,0,0,1.605,2.229h0a8.7,8.7,0,0,0,7.419-4.171l2.4,1.8a11.859,11.859,0,0,0,14.224,0l4.065-3.048a1.694,1.694,0,0,0,0-2.71l-4.065-3.048a12.175,12.175,0,0,0-14.224,0ZM17.26,56.508l.733-2.2a1.678,1.678,0,0,0,0-1.07l-.732-2.2a5.35,5.35,0,0,1,2.413,2.733,5.364,5.364,0,0,1-2.415,2.732Zm19.45-4.427,2.258,1.694L36.71,55.468a8.7,8.7,0,0,1-10.161,0l-2.258-1.694,2.258-1.694A8.7,8.7,0,0,1,36.71,52.081Z" transform="translate(7.322 30.903)" fill="#12263f"/>
          <path id="Trazado_156154" data-name="Trazado 156154" d="M70.435,1C52.762,1,34.871,5.071,34.871,12.855V45.046C17.766,45.3,1,49.352,1,56.887V94.145C1,101.929,18.891,106,36.565,106s35.565-4.071,35.565-11.855V61.956C89.234,61.705,106,57.648,106,50.113V12.855C106,5.071,88.109,1,70.435,1Zm0,3.387c19.935,0,32.177,4.932,32.177,8.468a2.143,2.143,0,0,1-.427,1.15c-5.805-3.816-17.93-6.231-31.751-6.231v3.387c12.124,0,23.417,2.041,28.944,5.1-4.867,2.655-15.02,5.062-28.944,5.062-19.936,0-32.177-4.932-32.177-8.468S50.5,4.387,70.435,4.387ZM34.871,48.445v1.666c0,6.586,12.808,10.514,27.457,11.565-6.1,2.251-15.637,3.677-25.764,3.677-19.936,0-32.177-4.932-32.177-8.468,0-3.433,11.564-8.168,30.484-8.441Zm1.694,54.166c-19.936,0-32.177-4.932-32.177-8.468v-31.9c6.01,4.281,19.147,6.5,32.177,6.5,14.168,0,26.555-2.539,32.176-6.52V94.143C68.742,97.68,56.5,102.611,36.565,102.611ZM70.435,58.579c-19.936,0-32.177-4.932-32.177-8.468v-31.9c6.01,4.281,19.147,6.5,32.177,6.5s26.167-2.215,32.177-6.5v31.9C102.613,53.647,90.37,58.579,70.435,58.579Z" transform="translate(-1 -1)" fill="#12263f"/>
          <path id="Trazado_156155" data-name="Trazado 156155" d="M68.623,16.043a96.259,96.259,0,0,1-18.3,1.641,96.265,96.265,0,0,1-18.3-1.641,1.712,1.712,0,0,0-1.4.352A1.693,1.693,0,0,0,30,17.706v23.71a1.694,1.694,0,0,0,1.365,1.661,99.794,99.794,0,0,0,18.959,1.7,99.814,99.814,0,0,0,18.958-1.7,1.7,1.7,0,0,0,1.363-1.661V17.706a1.695,1.695,0,0,0-2.022-1.663ZM67.258,40.01a98.494,98.494,0,0,1-16.935,1.384A98.62,98.62,0,0,1,33.387,40.01V19.738a109.847,109.847,0,0,0,33.871,0Z" transform="translate(19.113 9.411)" fill="#12263f"/>
          <path id="Trazado_156156" data-name="Trazado 156156" d="M36.468,15.16c4.827,0,8.468-2.185,8.468-5.081S41.3,5,36.468,5,28,7.184,28,10.08,31.639,15.16,36.468,15.16Zm0-6.773c3.279,0,5.081,1.272,5.081,1.694s-1.8,1.694-5.081,1.694-5.081-1.272-5.081-1.694,1.8-1.694,5.081-1.694Z" transform="translate(17.726 1.773)" fill="#12263f"/>
          <path id="Trazado_156157" data-name="Trazado 156157" d="M42.115,25.17A8.71,8.71,0,0,0,34.694,21a1.694,1.694,0,0,0-1.605,2.23L34.6,27.774,33.087,32.32a1.692,1.692,0,0,0,1.605,2.229h0a8.7,8.7,0,0,0,7.419-4.171l2.4,1.8a11.859,11.859,0,0,0,14.224,0l4.065-3.048a1.694,1.694,0,0,0,0-2.71l-4.065-3.048a12.178,12.178,0,0,0-14.224,0ZM37.26,30.508l.733-2.2a1.678,1.678,0,0,0,0-1.07l-.732-2.2a5.35,5.35,0,0,1,2.413,2.733A5.364,5.364,0,0,1,37.26,30.508Zm19.45-4.427,2.257,1.694L56.71,29.468a8.7,8.7,0,0,1-10.161,0l-2.257-1.694,2.257-1.694A8.693,8.693,0,0,1,56.71,26.081Z" transform="translate(21.193 12.871)" fill="#12263f"/>
        </g>
      </g>
    </g>
  </g>
</svg>
