<svg xmlns="http://www.w3.org/2000/svg" width="172.04" height="187.677" viewBox="0 0 172.04 187.677">
  <g id="Grupo_1100054" data-name="Grupo 1100054" transform="translate(-518.25 -5698)">
    <rect id="Rectángulo_401226" data-name="Rectángulo 401226" width="146" height="168" rx="20" transform="translate(536.289 5699.5)" fill="none" stroke="#ff725d" stroke-miterlimit="10" stroke-width="3"/>
    <g id="Grupo_1099236" data-name="Grupo 1099236" transform="translate(282.553 5686.361)">
      <g id="Grupo_81137" data-name="Grupo 81137" transform="translate(235.697 129.605)" style="mix-blend-mode: multiply;isolation: isolate">
        <path id="Trazado_156171" data-name="Trazado 156171" d="M235.7,108.753l71.52,41.294,49.221-28.42-71.52-41.292Z" transform="translate(-235.697 -80.336)" fill="#e8e8e8"/>
      </g>
      <g id="Grupo_81138" data-name="Grupo 81138" transform="translate(265.645 68.105)">
        <path id="Trazado_156172" data-name="Trazado 156172" d="M337.983,72.567l-10.007-5.776L305.132,53.6,248.716,86.176,271.6,99.394l9.97,5.76,24.8,14.32L362.763,86.9l.025-.016Z" transform="translate(-248.716 -53.601)" fill="#ffdda8"/>
      </g>
      <g id="Grupo_81139" data-name="Grupo 81139" transform="translate(267.172 68.979)">
        <path id="Trazado_156173" data-name="Trazado 156173" d="M304.269,53.981l-54.889,31.7,56.131,32.17L360.4,86.391Z" transform="translate(-249.38 -53.981)" fill="#dda866"/>
      </g>
      <g id="Grupo_81140" data-name="Grupo 81140" transform="translate(322.061 68.979)">
        <path id="Trazado_156174" data-name="Trazado 156174" d="M273.241,53.981v57.173l6.823,3.547,49.308-28.31Z" transform="translate(-273.241 -53.981)" fill="#aa6838"/>
      </g>
      <path id="Trazado_156175" data-name="Trazado 156175" d="M306.371,101.046v56.1l-24.751-14.176L271.6,137.239l-22.88-13.112V67.762L271.6,80.98l10.024,5.771Z" transform="translate(16.929 32.919)" fill="#bc7c46"/>
      <g id="Grupo_81141" data-name="Grupo 81141" transform="translate(323.303 101.405)">
        <path id="Trazado_156176" data-name="Trazado 156176" d="M273.781,100.645v56.092l56.391-32.357v-56.3Z" transform="translate(-273.781 -68.077)" fill="#dda866"/>
      </g>
      <path id="Trazado_156177" data-name="Trazado 156177" d="M316.278,68.023,294.937,42.815l-55.5,31.231v1.269L260.779,100.2l1.164.116,54.35-31.349Z" transform="translate(4.865 0.478)" fill="#bc7c46"/>
      <g id="Grupo_81142" data-name="Grupo 81142" transform="translate(244.302 42.447)">
        <path id="Trazado_156178" data-name="Trazado 156178" d="M239.438,74.548,261.945,100.8,317.2,68.956l-.018-.943L295.739,42.447Z" transform="translate(-239.438 -42.447)" fill="#edc893"/>
      </g>
      <path id="Trazado_156179" data-name="Trazado 156179" d="M301.048,43.419,273.635,68.424l55.224,32.522,1.575-.192,27.051-25.02-.413-.909-55.2-31.9Z" transform="translate(49.332 0.619)" fill="#bc7c46"/>
      <g id="Grupo_81143" data-name="Grupo 81143" transform="translate(321.817 42.994)">
        <path id="Trazado_156180" data-name="Trazado 156180" d="M329.51,101.254l28.211-26.118L301.632,42.685l-.821.495L273.135,68.465Z" transform="translate(-273.135 -42.685)" fill="#edc893"/>
      </g>
      <g id="Grupo_81154" data-name="Grupo 81154" transform="translate(327.602 164.39)">
        <g id="Grupo_81150" data-name="Grupo 81150" transform="translate(1.427 3.297)">
          <g id="Grupo_81146" data-name="Grupo 81146" transform="translate(0 2.291)">
            <g id="Grupo_81144" data-name="Grupo 81144" transform="translate(1.422 0.383)">
              <path id="Trazado_156181" data-name="Trazado 156181" d="M277.288,104.959l-.4.232V98.283l.4-.229Z" transform="translate(-276.889 -98.054)" fill="#4f2e16"/>
            </g>
            <g id="Grupo_81145" data-name="Grupo 81145">
              <path id="Trazado_156182" data-name="Trazado 156182" d="M279.508,98.967l-.281.481-1.335-.886-1.33,2.426-.292-.146,1.622-2.954Z" transform="translate(-276.271 -97.887)" fill="#4f2e16"/>
            </g>
          </g>
          <g id="Grupo_81149" data-name="Grupo 81149" transform="translate(3.965)">
            <g id="Grupo_81147" data-name="Grupo 81147" transform="translate(1.429 0.384)">
              <path id="Trazado_156183" data-name="Trazado 156183" d="M279.013,103.961l-.4.235V97.288l.4-.23Z" transform="translate(-278.615 -97.058)" fill="#4f2e16"/>
            </g>
            <g id="Grupo_81148" data-name="Grupo 81148">
              <path id="Trazado_156184" data-name="Trazado 156184" d="M281.247,97.971l-.3.483-1.321-.89-1.337,2.423-.3-.141,1.633-2.954Z" transform="translate(-277.994 -96.891)" fill="#4f2e16"/>
            </g>
          </g>
        </g>
        <g id="Grupo_81151" data-name="Grupo 81151" transform="translate(1.134 9.452)">
          <path id="Trazado_156185" data-name="Trazado 156185" d="M283.753,100.05l-7.416,4.281c-.106.062-.193.014-.193-.117a.439.439,0,0,1,.193-.34l7.416-4.279c.1-.064.191-.014.191.115A.44.44,0,0,1,283.753,100.05Z" transform="translate(-276.143 -99.567)" fill="#4f2e16"/>
        </g>
        <g id="Grupo_81153" data-name="Grupo 81153">
          <g id="Grupo_81152" data-name="Grupo 81152">
            <path id="Trazado_156186" data-name="Trazado 156186" d="M284.329,107.266l-7.283,4.207c-.771.444-1.4.085-1.4-.8v-8.408a3.068,3.068,0,0,1,1.4-2.408l7.283-4.207c.761-.442,1.382-.083,1.382.8v8.415A3.077,3.077,0,0,1,284.329,107.266Zm-7.283-6.954a2.2,2.2,0,0,0-1,1.721v8.408c0,.635.449.89,1,.575l7.283-4.207a2.178,2.178,0,0,0,.985-1.718l.007-8.408c0-.633-.449-.893-.991-.577Z" transform="translate(-275.65 -95.458)" fill="#4f2e16"/>
          </g>
        </g>
      </g>
      <g id="Grupo_81160" data-name="Grupo 81160" transform="translate(339.251 157.641)">
        <g id="Grupo_81156" data-name="Grupo 81156">
          <g id="Grupo_81155" data-name="Grupo 81155">
            <path id="Trazado_156187" data-name="Trazado 156187" d="M289.384,104.328l-7.285,4.207c-.766.444-1.385.083-1.385-.8v-8.41a3.083,3.083,0,0,1,1.385-2.411l7.285-4.2c.766-.442,1.383-.085,1.383.8v8.412A3.061,3.061,0,0,1,289.384,104.328ZM282.1,97.376a2.173,2.173,0,0,0-.989,1.718v8.412c0,.628.437.888.989.575l7.285-4.207a2.211,2.211,0,0,0,.994-1.723v-8.41c0-.63-.451-.89-.994-.573Z" transform="translate(-280.714 -92.524)" fill="#4f2e16"/>
          </g>
        </g>
        <g id="Grupo_81159" data-name="Grupo 81159" transform="translate(3.11 3.474)">
          <g id="Grupo_81157" data-name="Grupo 81157" transform="translate(1.711 1.635)">
            <path id="Trazado_156188" data-name="Trazado 156188" d="M283.015,101.253c-.113.064-.2.014-.2-.117V95.118a.446.446,0,0,1,.2-.347c.106-.062.193-.009.193.115v6.027A.447.447,0,0,1,283.015,101.253Z" transform="translate(-282.81 -94.745)" fill="#4f2e16"/>
          </g>
          <g id="Grupo_81158" data-name="Grupo 81158" transform="translate(0.81 7.137)">
            <path id="Trazado_156189" data-name="Trazado 156189" d="M284.422,97.623l-1.8,1.04c-.108.067-.2.014-.2-.11a.435.435,0,0,1,.2-.345l1.8-1.044c.11-.062.2-.009.2.115A.453.453,0,0,1,284.422,97.623Z" transform="translate(-282.418 -97.137)" fill="#4f2e16"/>
          </g>
          <path id="Trazado_156190" data-name="Trazado 156190" d="M285.9,94.034v2.813a2.611,2.611,0,0,1-1.187,2.063l-1.458.837c-.656.384-1.187.074-1.187-.685V96.249l.722-.414v3.011c0,.124.087.179.2.115a.45.45,0,0,0,.2-.345V95.6Z" transform="translate(-282.066 -94.034)" fill="#4f2e16"/>
        </g>
      </g>
      <g id="Grupo_81161" data-name="Grupo 81161" transform="translate(316.558 125.761)">
        <path id="Trazado_156191" data-name="Trazado 156191" d="M276.351,78.665l-5.5,3.179,6.82,3.911,5.5-3.151Z" transform="translate(-270.849 -78.665)" fill="#c68b51"/>
      </g>
      <path id="Trazado_156192" data-name="Trazado 156192" d="M236.3,64.05l29.8,8.74,56.408,31.969-.014,1.054-30.078-7.43L236.3,65.053Z" transform="translate(0.79 28.092)" fill="#dda866"/>
      <g id="Grupo_81162" data-name="Grupo 81162" transform="translate(237.095 92.141)">
        <path id="Trazado_156193" data-name="Trazado 156193" d="M266.219,72.589,236.305,64.05l56.122,33.311,30.086,7.4Z" transform="translate(-236.305 -64.05)" fill="#edc893"/>
      </g>
      <g id="Grupo_81163" data-name="Grupo 81163" transform="translate(323.303 102.3)">
        <path id="Trazado_156194" data-name="Trazado 156194" d="M329.417,68.466,273.781,99.017l.011,1.166,28.278,6.9L358.215,75.1v-.948Z" transform="translate(-273.781 -68.466)" fill="#bc7c46"/>
      </g>
      <g id="Grupo_81164" data-name="Grupo 81164" transform="translate(323.303 101.389)">
        <path id="Trazado_156195" data-name="Trazado 156195" d="M328.67,68.07,273.781,99.532l28.29,7.113,56.145-31.982L330.195,68.07Z" transform="translate(-273.781 -68.07)" fill="#edc893"/>
      </g>
    </g>
  </g>
</svg>
