<svg xmlns="http://www.w3.org/2000/svg" xmlns:xlink="http://www.w3.org/1999/xlink" width="193" height="209.31" viewBox="0 0 193 209.31">
  <defs>
    <clipPath id="clip-path">
      <rect id="Rectángulo_401239" data-name="Rectángulo 401239" width="118.797" height="192.348" fill="none"/>
    </clipPath>
  </defs>
  <g id="Grupo_1100051" data-name="Grupo 1100051" transform="translate(-275.144 -7722.039)">
    <g id="Grupo_1099256" data-name="Grupo 1099256" transform="translate(0 1651)">
      <path id="Rectángulo_401003" data-name="Rectángulo 401003" d="M40-1.5H150A41.467,41.467,0,0,1,191.5,40V161A41.467,41.467,0,0,1,150,202.5H40A41.467,41.467,0,0,1-1.5,161V40A41.467,41.467,0,0,1,40-1.5Zm110,201A38.544,38.544,0,0,0,188.5,161V40A38.544,38.544,0,0,0,150,1.5H40A38.544,38.544,0,0,0,1.5,40V161A38.544,38.544,0,0,0,40,199.5Z" transform="translate(276.644 6072.539)" fill="#0d66bf"/>
      <g id="Grupo_1099242" data-name="Grupo 1099242" transform="translate(320.601 6088)">
        <g id="Grupo_1099241" data-name="Grupo 1099241" transform="translate(0 0)" clip-path="url(#clip-path)">
          <path id="Trazado_873790" data-name="Trazado 873790" d="M36.533,12.46h-.724C16.033,12.46,0,26.028,0,42.764v95.442c0,4.521,3.532,9.045,10.595,12.5,14.124,6.9,37.028,6.9,51.153,0,7.062-3.451,10.595-7.975,10.595-12.5V42.764c0-16.736-16.031-30.3-35.809-30.3" transform="translate(0 20.215)" fill="#ffdc39"/>
          <path id="Trazado_873791" data-name="Trazado 873791" d="M31.062,24.954c.627,3.273-.409,6.22-2.318,6.587s-3.965-1.99-4.592-5.261.409-6.22,2.318-6.587,3.962,1.988,4.592,5.261" transform="translate(38.886 31.889)" fill="#ccab0f"/>
          <path id="Trazado_873792" data-name="Trazado 873792" d="M27.615,23.092c.372,1.946-.244,3.7-1.379,3.918s-2.358-1.183-2.73-3.129.241-3.7,1.377-3.918,2.36,1.183,2.733,3.129" transform="translate(37.958 32.353)" fill="#fff"/>
          <path id="Trazado_873793" data-name="Trazado 873793" d="M29.866,17.684c0,2.47-4.453,4.474-9.944,4.474s-9.947-2-9.947-4.474,4.453-4.474,9.947-4.474,9.944,2,9.944,4.474" transform="translate(16.183 21.432)" fill="#502e66"/>
          <path id="Trazado_873794" data-name="Trazado 873794" d="M28.814,7.735H27.6v.3A6.949,6.949,0,0,0,26.1,6.888a14.5,14.5,0,0,0-13.125,0,7.067,7.067,0,0,0-1.5,1.146v-.3H10.258V28.963l0,.092c0,1.372.9,2.743,2.717,3.789a14.5,14.5,0,0,0,13.125,0c1.809-1.046,2.717-2.418,2.717-3.789,0-.031-.008-.06-.008-.092h.008Z" transform="translate(16.638 8.629)" fill="#6c5578"/>
          <path id="Trazado_873795" data-name="Trazado 873795" d="M12.972,13.343a14.5,14.5,0,0,0,13.123,0c1.812-1.046,2.719-2.418,2.719-3.789s-.907-2.74-2.719-3.787a14.5,14.5,0,0,0-13.123,0C11.2,6.79,10.3,8.122,10.258,9.462l0,.092c0,1.372.9,2.743,2.717,3.789" transform="translate(16.638 6.81)" fill="#55e648"/>
          <path id="Trazado_873796" data-name="Trazado 873796" d="M24.666,5.822c3.2,1.849,3.2,4.846,0,6.695a12.805,12.805,0,0,1-11.6,0c-3.2-1.849-3.2-4.846,0-6.695a12.821,12.821,0,0,1,11.6,0" transform="translate(17.303 7.196)" fill="#8fe688"/>
          <path id="Trazado_873797" data-name="Trazado 873797" d="M19.98,7.358l-5.5,3.176L12.336,9.3l5.5-3.176Z" transform="translate(20.013 9.93)" fill="#fff"/>
          <path id="Trazado_873798" data-name="Trazado 873798" d="M18.083,6.809l-3.3,1.9L13.5,7.971l3.294-1.9Z" transform="translate(21.91 9.844)" fill="#288230"/>
          <path id="Trazado_873799" data-name="Trazado 873799" d="M37.625,7.372c-5.321-5.2-17.712-6.108-25.11-1.836l-.3.17c-.191.113-.354.233-.535.349V4.8H7.528v7.505h.008c.045,3.1,2.754,6.155,7.862,7.9L47.68,32.673,59.218,26.01Z" transform="translate(12.213 4.589)" fill="#9677a8"/>
          <path id="Trazado_873800" data-name="Trazado 873800" d="M59.218,23.182,47.679,29.843,15.4,17.376C6.39,14.305,4.821,7.151,12.219,2.88l.3-.17c7.4-4.272,19.789-3.367,25.11,1.836Z" transform="translate(12.214 0)" fill="#d4b2e8"/>
          <path id="Trazado_873801" data-name="Trazado 873801" d="M34.378,16.256,22.839,22.917V15.5L34.378,8.84Z" transform="translate(37.054 14.342)" fill="#c0a2d1"/>
          <path id="Trazado_873802" data-name="Trazado 873802" d="M23.831,16.727a.724.724,0,0,1-.359-1.353L32.2,10.4a.724.724,0,0,1,.716,1.259l-8.727,4.975a.733.733,0,0,1-.357.094" transform="translate(37.488 16.719)" fill="#231f20"/>
          <path id="Trazado_873803" data-name="Trazado 873803" d="M55.474,84.5c-1.455,3.147-4.689,6.136-9.7,8.588-9.724,4.749-23.609,6.231-35.924,4.44V44.216c12.315,1.788,26.2.309,35.924-4.442,5.014-2.449,8.247-5.439,9.7-8.586Z" transform="translate(15.976 50.599)" fill="#dca6ff"/>
          <path id="Trazado_873804" data-name="Trazado 873804" d="M53.463,54.949c-1.351,2.919-5,5.63-9.656,7.9-9.021,4.408-21.9,5.782-33.333,4.12V59.447c11.428,1.663,24.312.288,33.333-4.12,4.652-2.274,8.305-5.7,9.656-8.62Z" transform="translate(16.993 75.778)" fill="#9872b0"/>
          <path id="Trazado_873805" data-name="Trazado 873805" d="M53.339,53.453c-1.351,2.919-5,4.629-9.656,6.9-9.021,4.408-21.9,5.782-33.333,4.12v-19.3c11.428,1.663,24.312.288,33.333-4.12,4.652-2.274,8.305-4.7,9.656-7.618Z" transform="translate(16.792 54.243)" fill="#c48ee8"/>
          <rect id="Rectángulo_401238" data-name="Rectángulo 401238" width="10.768" height="27.517" transform="translate(30.944 109.939)" fill="#fff"/>
          <path id="Trazado_873806" data-name="Trazado 873806" d="M3.55,25.868l-1.387,90.42L8.818,120Z" transform="translate(3.508 41.969)" fill="#ff8f39"/>
          <path id="Trazado_873807" data-name="Trazado 873807" d="M57.938,55.629l4.749-2.743c5.447-3.144,10.372-3.42,13.925-1.33l.005,0-14.3-10.149.024.218c-3.587-3.26-9.189-3.462-15.488.176L42.1,44.541C31.276,50.793,22.5,66,22.5,78.5V119.49l15.834,9.383V89.587c0-12.5,8.777-27.706,19.605-33.957" transform="translate(36.502 63.475)" fill="#b09b24"/>
          <path id="Trazado_873808" data-name="Trazado 873808" d="M72.5,57.347c0-6.212-2.171-10.587-5.68-12.65-3.553-2.09-8.478-1.815-13.928,1.33l-4.749,2.743C37.314,55.021,28.537,70.226,28.537,82.727v39.286L72.5,96.675Z" transform="translate(46.299 70.335)" fill="#d9bf2c"/>
          <path id="Trazado_873809" data-name="Trazado 873809" d="M61.764,76.689,31.654,94.154V76.888c0-8.565,6.011-18.978,13.429-23.261l3.252-1.878c7.416-4.282,13.429-.81,13.429,7.754Z" transform="translate(51.356 80.983)" fill="#f78b34"/>
          <path id="Trazado_873810" data-name="Trazado 873810" d="M37.606,43.352S28.577,49.273,24.942,64.68c-3.1,13.17-.33,46.139-.33,46.139S23.746,81.243,27.449,66.1c4.731-19.34,10.157-22.744,10.157-22.744" transform="translate(38.079 70.334)" fill="#82731b"/>
          <path id="Trazado_873811" data-name="Trazado 873811" d="M45.255,49.146l1.513,34.907-3.026,1.993Z" transform="translate(70.967 79.734)" fill="#ffe557"/>
          <path id="Trazado_873812" data-name="Trazado 873812" d="M47.834,65.5l-15.449,8.83,0-5.636,15.451-8.9Z" transform="translate(52.537 97.016)" fill="#ff5e5e"/>
          <path id="Trazado_873813" data-name="Trazado 873813" d="M43.312,63.131l-4.684,2.7V60.529l4.684-2.7Z" transform="translate(62.671 93.817)" fill="#57b336"/>
          <path id="Trazado_873814" data-name="Trazado 873814" d="M57.771,60.069,32.383,74.584V69.7L57.931,54.981Z" transform="translate(52.538 89.202)" fill="#bfc93d"/>
          <path id="Trazado_873815" data-name="Trazado 873815" d="M45.308,59.566c.768-.475,1.369-1.091,1.343-1.379s-.674-.139-1.445.336a4.871,4.871,0,0,0-1.083.881.722.722,0,0,0-.052-.1,7.111,7.111,0,0,0,.808-1.356c.48-1,.716-1.9.532-2s-.724.629-1.2,1.634a7.459,7.459,0,0,0-.553,1.5.818.818,0,0,0-.108.016,5.545,5.545,0,0,0,.031-1.44c-.092-.947-.357-1.6-.59-1.453s-.351,1.031-.26,1.977a3.812,3.812,0,0,0,.294,1.248c-.031.037-.063.076-.094.115a2.012,2.012,0,0,0-.763-.682c-.608-.336-1.219-.359-1.366-.052s.231.826.839,1.159a1.845,1.845,0,0,0,.976.265,1.469,1.469,0,0,0-.024.149,3.2,3.2,0,0,0-1.12.475c-.768.472-1.369,1.091-1.34,1.379s.674.139,1.442-.336a4.739,4.739,0,0,0,1.094-.9.645.645,0,0,0,.058.094,7.171,7.171,0,0,0-.823,1.377c-.477,1-.716,1.9-.53,2s.724-.629,1.2-1.634a7.122,7.122,0,0,0,.561-1.539.819.819,0,0,0,.108-.016,5.441,5.441,0,0,0-.037,1.476c.092.947.357,1.6.59,1.453s.349-1.028.257-1.975a3.665,3.665,0,0,0-.307-1.274c.034-.037.066-.073.1-.113a2.012,2.012,0,0,0,.774.705c.608.336,1.222.357,1.366.052s-.228-.826-.837-1.162a1.868,1.868,0,0,0-.989-.262c.013-.05.021-.1.031-.149a3.148,3.148,0,0,0,1.122-.475" transform="translate(65.103 90.75)" fill="#d9e645"/>
          <path id="Trazado_873816" data-name="Trazado 873816" d="M43.2,55.365c0-2.182-1.531-3.066-3.422-1.975a7.561,7.561,0,0,0-3.42,5.924c0,2.182,1.531,3.068,3.42,1.977A7.561,7.561,0,0,0,43.2,55.365" transform="translate(58.981 85.862)" fill="#fff"/>
          <path id="Trazado_873817" data-name="Trazado 873817" d="M39.175,51.324s-5.111,11.919-.236,9.144.236-9.144.236-9.144" transform="translate(59.755 83.268)" fill="#456f96"/>
          <path id="Trazado_873818" data-name="Trazado 873818" d="M38.919,53.817a1.5,1.5,0,0,1-.477,1.146c-.252.142-.446-.139-.433-.627a1.486,1.486,0,0,1,.477-1.146c.252-.144.446.139.433.627" transform="translate(61.666 86.235)" fill="#fff"/>
          <path id="Trazado_873819" data-name="Trazado 873819" d="M53.662,38.971H52.1v.391a8.965,8.965,0,0,0-1.946-1.484c-4.678-2.7-12.265-2.7-16.946,0a8.978,8.978,0,0,0-1.941,1.479v-.385H29.7V52.547l0,.121c0,1.77,1.17,3.54,3.509,4.891,4.681,2.7,12.268,2.7,16.946,0,2.342-1.351,3.511-3.121,3.511-4.891,0-.042-.008-.081-.01-.121h.01Z" transform="translate(48.179 58.163)" fill="#a62f22"/>
          <path id="Trazado_873820" data-name="Trazado 873820" d="M33.2,46.214c4.681,2.7,12.268,2.7,16.949,0,2.339-1.351,3.509-3.121,3.509-4.891s-1.17-3.543-3.509-4.893c-4.681-2.7-12.268-2.7-16.949,0-2.287,1.319-3.454,3.042-3.506,4.77l0,.121c0,1.773,1.17,3.543,3.509,4.893" transform="translate(48.179 55.813)" fill="#e3402e"/>
          <path id="Trazado_873821" data-name="Trazado 873821" d="M48.307,36.5c4.136,2.389,4.136,6.26,0,8.649a16.56,16.56,0,0,1-14.977,0c-4.138-2.389-4.138-6.26,0-8.649a16.544,16.544,0,0,1,14.977,0" transform="translate(49.04 56.31)" fill="#ff7768"/>
          <path id="Trazado_873822" data-name="Trazado 873822" d="M43.26,36.5c2.649,1.529,2.649,4.01,0,5.541a10.61,10.61,0,0,1-9.6,0c-2.649-1.531-2.649-4.012,0-5.541a10.61,10.61,0,0,1,9.6,0" transform="translate(51.395 57.364)" fill="#e3402e"/>
          <path id="Trazado_873823" data-name="Trazado 873823" d="M39.483,37.847c1.537.889,1.537,2.326,0,3.215a6.16,6.16,0,0,1-5.567,0c-1.537-.889-1.537-2.326,0-3.215a6.161,6.161,0,0,1,5.567,0" transform="translate(53.156 60.325)" fill="#ffe8e6"/>
        </g>
      </g>
    </g>
  </g>
</svg>
