<svg xmlns="http://www.w3.org/2000/svg" xmlns:xlink="http://www.w3.org/1999/xlink" width="85" height="85" viewBox="0 0 85 85">
  <defs>
    <clipPath id="clip-path">
      <rect id="Rectángulo_401128" data-name="Rectángulo 401128" width="85" height="85" transform="translate(180 711)" fill="#fff" stroke="#707070" stroke-width="1"/>
    </clipPath>
  </defs>
  <g id="Enmascarar_grupo_1098694" data-name="Enmascarar grupo 1098694" transform="translate(-180 -711)" clip-path="url(#clip-path)">
    <g id="caja-de-entrega" transform="translate(180 711)">
      <g id="Grupo_1099187" data-name="Grupo 1099187">
        <path id="Trazado_873630" data-name="Trazado 873630" d="M55.455,85H3.845a1.66,1.66,0,0,1-1.66-1.66V35.05a1.66,1.66,0,0,1,1.66-1.66h51.61a1.66,1.66,0,0,1,1.66,1.66V83.34A1.66,1.66,0,0,1,55.455,85Z" fill="#e2ae83"/>
      </g>
      <g id="Grupo_1099188" data-name="Grupo 1099188">
        <path id="Trazado_873631" data-name="Trazado 873631" d="M55.4,33.39H41.014V55.029A5.993,5.993,0,0,0,47,61.015H57.115V35.1a1.71,1.71,0,0,0-1.71-1.71Z" fill="#d39c72"/>
      </g>
      <g id="Grupo_1099189" data-name="Grupo 1099189">
        <path id="Trazado_873632" data-name="Trazado 873632" d="M6.941,83.29V35.1a1.71,1.71,0,0,1,1.71-1.71H3.9a1.71,1.71,0,0,0-1.71,1.71V83.29A1.71,1.71,0,0,0,3.9,85H8.651A1.71,1.71,0,0,1,6.941,83.29Z" fill="#d39c72"/>
      </g>
      <g id="Grupo_1099190" data-name="Grupo 1099190">
        <path id="Trazado_873633" data-name="Trazado 873633" d="M34.017,48.325l-3.836-3.038a.855.855,0,0,0-1.062,0l-3.836,3.038a.855.855,0,0,1-1.386-.67V33.39H35.4V47.654a.855.855,0,0,1-1.386.67Z" fill="#dc4955"/>
      </g>
      <g id="Grupo_1099191" data-name="Grupo 1099191">
        <path id="Trazado_873634" data-name="Trazado 873634" d="M22.3,77.187H8.949a1.283,1.283,0,0,1,0-2.565H22.3a1.283,1.283,0,1,1,0,2.565Z" fill="#f1f6f7"/>
      </g>
      <g id="Grupo_1099192" data-name="Grupo 1099192">
        <path id="Trazado_873635" data-name="Trazado 873635" d="M14.048,70.691H17.2a.855.855,0,0,0,.855-.855V61.3h2.1a.855.855,0,0,0,.588-1.476l-4.315-4.088a.855.855,0,0,0-1.154-.02L10.643,59.8a.855.855,0,0,0,.566,1.5h1.983v8.536a.855.855,0,0,0,.855.855Z" fill="#f1f6f7"/>
      </g>
      <g id="Grupo_1099193" data-name="Grupo 1099193">
        <path id="Trazado_873636" data-name="Trazado 873636" d="M51.2,77.187h-8.25a1.283,1.283,0,0,1,0-2.565H51.2a1.283,1.283,0,0,1,0,2.565Z" fill="#c48d69"/>
      </g>
      <g id="Grupo_1099194" data-name="Grupo 1099194">
        <path id="Trazado_873637" data-name="Trazado 873637" d="M51.2,71.974h-8.25a1.283,1.283,0,0,1,0-2.565H51.2a1.283,1.283,0,0,1,0,2.565Z" fill="#c48d69"/>
      </g>
      <g id="Grupo_1099195" data-name="Grupo 1099195">
        <path id="Trazado_873638" data-name="Trazado 873638" d="M46.95,56.74H81.155a1.66,1.66,0,0,0,1.66-1.66V12.526a1.66,1.66,0,0,0-1.66-1.66H46.95a1.66,1.66,0,0,0-1.66,1.66V55.079A1.66,1.66,0,0,0,46.95,56.74Z" fill="#f1f6f7"/>
      </g>
      <g id="Grupo_1099196" data-name="Grupo 1099196">
        <path id="Trazado_873639" data-name="Trazado 873639" d="M49.848,55.029V12.577a1.71,1.71,0,0,1,1.71-1.71H47a1.71,1.71,0,0,0-1.71,1.71V55.029A1.71,1.71,0,0,0,47,56.74h4.558A1.71,1.71,0,0,1,49.848,55.029Z" fill="#d2e4e7"/>
      </g>
      <g id="Grupo_1099197" data-name="Grupo 1099197">
        <path id="Trazado_873640" data-name="Trazado 873640" d="M71.732,6.16H69.378A1.02,1.02,0,0,1,68.361,5,4.357,4.357,0,1,0,59.7,4.357a4.3,4.3,0,0,0,.046.631A1.037,1.037,0,0,1,58.706,6.16H56.372a1.71,1.71,0,0,0-1.71,1.71v4.909a1.71,1.71,0,0,0,1.71,1.71h15.36a1.71,1.71,0,0,0,1.71-1.71V7.87a1.71,1.71,0,0,0-1.71-1.71Z" fill="#9bb9c3"/>
      </g>
      <g id="Grupo_1099198" data-name="Grupo 1099198">
        <path id="Trazado_873641" data-name="Trazado 873641" d="M58.274,12.779V7.87a1.71,1.71,0,0,1,1.71-1.71h2.334a1.037,1.037,0,0,0,1.036-1.172,4.3,4.3,0,0,1-.046-.631A4.357,4.357,0,0,1,65.859.391a4.28,4.28,0,0,0-1.365-.37,4.358,4.358,0,0,0-4.8,4.335,4.3,4.3,0,0,0,.046.631A1.037,1.037,0,0,1,58.706,6.16H56.372a1.71,1.71,0,0,0-1.71,1.71v4.909a1.71,1.71,0,0,0,1.71,1.71h3.612A1.71,1.71,0,0,1,58.274,12.779Z" fill="#87a0af"/>
      </g>
      <g id="Grupo_1099199" data-name="Grupo 1099199">
        <path id="Trazado_873642" data-name="Trazado 873642" d="M54.733,25.6a1.279,1.279,0,0,1-.907-.376L52.153,23.55a1.283,1.283,0,1,1,1.814-1.814l.765.765,2.438-2.438a1.283,1.283,0,1,1,1.814,1.814L55.64,25.223a1.28,1.28,0,0,1-.907.376Z" fill="#9bb9c3"/>
      </g>
      <g id="Grupo_1099200" data-name="Grupo 1099200">
        <path id="Trazado_873643" data-name="Trazado 873643" d="M76.306,23.926H64.022a1.283,1.283,0,1,1,0-2.565H76.306a1.283,1.283,0,1,1,0,2.565Z" fill="#9bb9c3"/>
      </g>
      <g id="Grupo_1099201" data-name="Grupo 1099201">
        <path id="Trazado_873644" data-name="Trazado 873644" d="M54.733,33.387a1.283,1.283,0,0,1-.907-.376l-1.672-1.673a1.283,1.283,0,0,1,1.814-1.814l.765.766,2.438-2.438a1.283,1.283,0,1,1,1.814,1.814L55.64,33.011a1.284,1.284,0,0,1-.907.376Z" fill="#9bb9c3"/>
      </g>
      <g id="Grupo_1099202" data-name="Grupo 1099202">
        <path id="Trazado_873645" data-name="Trazado 873645" d="M76.306,31.714H64.022a1.283,1.283,0,1,1,0-2.565H76.306a1.283,1.283,0,1,1,0,2.565Z" fill="#9bb9c3"/>
      </g>
      <g id="Grupo_1099203" data-name="Grupo 1099203">
        <path id="Trazado_873646" data-name="Trazado 873646" d="M54.733,41.176a1.279,1.279,0,0,1-.907-.376l-1.672-1.672a1.283,1.283,0,0,1,1.814-1.814l.765.765,2.438-2.438a1.283,1.283,0,0,1,1.814,1.814L55.64,40.8a1.28,1.28,0,0,1-.907.376Z" fill="#9bb9c3"/>
      </g>
      <g id="Grupo_1099204" data-name="Grupo 1099204">
        <path id="Trazado_873647" data-name="Trazado 873647" d="M76.306,39.5H64.022a1.283,1.283,0,1,1,0-2.565H76.306a1.283,1.283,0,1,1,0,2.565Z" fill="#9bb9c3"/>
      </g>
      <g id="Grupo_1099205" data-name="Grupo 1099205">
        <path id="Trazado_873648" data-name="Trazado 873648" d="M54.733,48.965a1.283,1.283,0,0,1-.907-.376l-1.672-1.673A1.283,1.283,0,0,1,53.968,45.1l.765.766,2.438-2.438a1.283,1.283,0,1,1,1.814,1.814L55.64,48.589a1.284,1.284,0,0,1-.907.376Z" fill="#9bb9c3"/>
      </g>
      <g id="Grupo_1099206" data-name="Grupo 1099206">
        <path id="Trazado_873649" data-name="Trazado 873649" d="M76.306,47.292H64.022a1.283,1.283,0,1,1,0-2.565H76.306a1.283,1.283,0,1,1,0,2.565Z" fill="#9bb9c3"/>
      </g>
    </g>
  </g>
</svg>
