<svg xmlns="http://www.w3.org/2000/svg" xmlns:xlink="http://www.w3.org/1999/xlink" width="193" height="213.353" viewBox="0 0 193 213.353">
  <defs>
    <clipPath id="clip-path">
      <rect id="Rect치ngulo_401246" data-name="Rect치ngulo 401246" width="157.543" height="198.558" fill="none"/>
    </clipPath>
  </defs>
  <g id="Grupo_1100054" data-name="Grupo 1100054" transform="translate(-380 -8440.539)">
    <rect id="Rect치ngulo_401122" data-name="Rect치ngulo 401122" width="190" height="201" rx="40" transform="translate(381.5 8442.039)" fill="none" stroke="#ff725d" stroke-miterlimit="10" stroke-width="3"/>
    <g id="Grupo_1099259" data-name="Grupo 1099259" transform="translate(397 8455.334)">
      <g id="Grupo_1099258" data-name="Grupo 1099258" transform="translate(0 0)" clip-path="url(#clip-path)">
        <path id="Trazado_873882" data-name="Trazado 873882" d="M48.426,47.173s-1.635,1.779-3.82,3.908c-2.024,1.972-2.649,2.541-4.527,4.372-1.1,1.069-.193,2.052,1.895,1.972a37.506,37.506,0,0,0,8.322-1.8,42.337,42.337,0,0,0,6.228-3.245,4.127,4.127,0,0,0,1.85-2.339V46.75Z" transform="translate(69.79 82.37)" fill="#4d4d4d"/>
        <path id="Trazado_873883" data-name="Trazado 873883" d="M58.672,47.065a27.392,27.392,0,0,1-3.231,3.657,35.644,35.644,0,0,0-4.408,5.107c-.409.536-.646,2.071,1.442,1.991a27.548,27.548,0,0,0,6.96-1.682c2.66-.945,4.9-3.624,6.449-4.6a6.476,6.476,0,0,0,2.229-3.14l-1.069-3.24Z" transform="translate(89.431 79.558)" fill="#4d4d4d"/>
        <path id="Trazado_873884" data-name="Trazado 873884" d="M73.145,39.208c.773-12.067-5.88-18.411-5.88-18.411.53-4.066-18.331,1.624-18.331,1.624s-4.041,21.863-5.745,33.372c-1.942,13.083-.768,39.728-.768,39.728s.246,2.845,5.118,2.825c3.74-.014,6.5-3.289,6.5-3.289l.387-30.323,4.333-21.5s4.168,17.477,5.491,23.75c1.406,6.67,6.8,26.412,6.8,26.412s3.488,4.01,7.819,1.842,3.483-4.585,3.483-4.585-.851-14-6.421-26.534c-.464-9.512-3.14-19.364-2.784-24.907" transform="translate(74.124 34.063)" fill="#5d588d"/>
        <path id="Trazado_873885" data-name="Trazado 873885" d="M52.462,8.98s-2.7-.133-5.482,5.1-5.447,10.8-5.447,10.8,4.055.58,8.463,4.643c6.035-5.455,7.021-17.994,2.466-20.543" transform="translate(73.178 15.822)" fill="#d1406b"/>
        <path id="Trazado_873886" data-name="Trazado 873886" d="M47.972,10.152A42.845,42.845,0,0,0,45.061,18.4c-1.392,5.339-.892,30.155-.892,30.155s5.75,4.068,15.378,3.27A13.054,13.054,0,0,0,68.192,47.8S71.614,23.5,71.15,20.02,63.4,8.359,63.4,8.359s-9.631-.489-15.431,1.792" transform="translate(77.668 14.651)" fill="#ef4f77"/>
        <path id="Trazado_873887" data-name="Trazado 873887" d="M48.589,11.256,47.47,17.775s3.32,3.726,6.568.942,3.715-4.068,3.715-4.068l-1.6-8.885Z" transform="translate(83.639 10.154)" fill="#ffad97"/>
        <path id="Trazado_873888" data-name="Trazado 873888" d="M50.5,22.706s4.2-6.311,7.512-8.081a20.178,20.178,0,0,1,5.11-2.1s-1.21-2.5-2.019-2.784c-1.406.21-2.314.6-5.3,2.146s-6.259,5.306-7.562,7.609c-2.627,4.64.337,5.888,2.262,3.209" transform="translate(83.158 17.165)" fill="#5d588d"/>
        <path id="Trazado_873889" data-name="Trazado 873889" d="M47.965,9.319s-2.734,6.518-3.063,9.65.3,4.1,1.555,4.206,1.331-2.124,1.7-4.618c.351-2.356,2.654-10.092,2.654-10.092Z" transform="translate(78.959 14.916)" fill="#5d588d"/>
        <path id="Trazado_873890" data-name="Trazado 873890" d="M69.33,37.909s-3.063,2.417-6.093,2.085c-2.657-.293-6.482-2.878-6.281-11.285a80.088,80.088,0,0,1,.983-12.277L47.781,11.98s-2.759,6.386-3.3,18.911S43.7,47.736,43.7,47.736s10.841.663,17.257,0a56.975,56.975,0,0,0,9.1-1.458Z" transform="translate(77 21.108)" fill="#5d588d"/>
        <path id="Trazado_873891" data-name="Trazado 873891" d="M46.406,13.41c0,.516-.287.934-.644.934s-.644-.417-.644-.934.29-.934.644-.934.644.417.644.934" transform="translate(79.496 21.982)" fill="#fff"/>
        <path id="Trazado_873892" data-name="Trazado 873892" d="M47.937,14.143c-.3.42-.312.925-.022,1.132s.765.036,1.066-.381.312-.928.022-1.135-.765-.036-1.066.384" transform="translate(84.05 24.088)" fill="#fff"/>
        <path id="Trazado_873893" data-name="Trazado 873893" d="M44.96,14.284c-.414,2.1-.2,8.714,3.541,9.711,3.4.9,4.278-3.1,5.06-6.2a34.055,34.055,0,0,1-8.6-3.51" transform="translate(78.948 25.167)" fill="#7c76ac"/>
        <path id="Trazado_873894" data-name="Trazado 873894" d="M57.39,3.152a7.525,7.525,0,0,0-11.744,4c-2.516,7.12,3.927,16.014,7.361,14.5,1.925-.848,5.966-3.853,7.106-7.6,1.279-4.22-.569-9.261-2.723-10.9" transform="translate(79.422 2.98)" fill="#ffc5b3"/>
        <path id="Trazado_873895" data-name="Trazado 873895" d="M39.935,53.376V27.549L60.749,17.175v24.36Z" transform="translate(70.362 30.261)" fill="#dba763"/>
        <path id="Trazado_873896" data-name="Trazado 873896" d="M53.213,53.376V27.549L32.4,17.175v24.36Z" transform="translate(57.084 30.261)" fill="#e8b679"/>
        <path id="Trazado_873897" data-name="Trazado 873897" d="M39.943,54.654l-.008-26.048L60.748,16.576V42.593Z" transform="translate(70.361 29.205)" fill="#dba763"/>
        <path id="Trazado_873898" data-name="Trazado 873898" d="M53.219,54.654,53.21,28.606,32.4,16.576V42.593Z" transform="translate(57.085 29.205)" fill="#e8b679"/>
        <path id="Trazado_873899" data-name="Trazado 873899" d="M32.4,24.248,53.213,36.279,74.024,24.248,53.218,12.22Z" transform="translate(57.085 21.531)" fill="#ffe1c0"/>
        <path id="Trazado_873900" data-name="Trazado 873900" d="M47.629,25.788l-4.64,2.693v-7.6l4.64-2.7Z" transform="translate(75.743 32.04)" fill="#4d4d4d"/>
        <path id="Trazado_873901" data-name="Trazado 873901" d="M60.894,25.851,40.111,13.834,35.46,16.521,56.254,28.557Z" transform="translate(62.477 24.374)" fill="#6d6d6d"/>
        <path id="Trazado_873902" data-name="Trazado 873902" d="M40.933,32.452v-1.34l6.988-4.052V28.42Z" transform="translate(72.121 47.68)" fill="#4d4d4d"/>
        <path id="Trazado_873903" data-name="Trazado 873903" d="M40.933,31.585v-1.34l6.988-4.052v1.359Z" transform="translate(72.121 46.152)" fill="#4d4d4d"/>
        <path id="Trazado_873904" data-name="Trazado 873904" d="M45.734,25.85V30.5l3.342-1.936V23.914Z" transform="translate(80.58 42.134)" fill="#4d4d4d"/>
        <path id="Trazado_873905" data-name="Trazado 873905" d="M36.189,25.67v4.842l-3.342-1.931V23.74Z" transform="translate(57.874 41.828)" fill="#4d4d4d"/>
        <path id="Trazado_873906" data-name="Trazado 873906" d="M37.84,26.628v4.842L34.5,29.539V24.7Z" transform="translate(60.783 43.514)" fill="#4d4d4d"/>
        <path id="Trazado_873907" data-name="Trazado 873907" d="M39.714,21.852V28.81l-6.866-3.969V17.875Z" transform="translate(57.875 31.495)" fill="#fff"/>
        <path id="Trazado_873908" data-name="Trazado 873908" d="M38.475,22.54V21.408l-5.4-3.115v1.113Z" transform="translate(58.272 32.229)" fill="#4d4d4d"/>
        <path id="Trazado_873909" data-name="Trazado 873909" d="M64.738,17.209s-3.944,8.286-5.576,10.6-8.264,7.587-9.625,8.355a14.033,14.033,0,0,1-6.115,1.585c-1.632-.155-2.732.644-1.16,1.237a13.362,13.362,0,0,0,3.093.735,19.594,19.594,0,0,0-4,3.925c-.914,1.453-1.688,4.121,1.839,3.347,2.848-.624,6.8-4.991,7.836-5.963,1.958-1.837,9.736-6.04,11.49-7.283,2.486-1.759,9.518-12.128,9.518-12.128s-2.165-5.5-7.3-4.408" transform="translate(71.513 30.069)" fill="#ffc5b3"/>
        <path id="Trazado_873910" data-name="Trazado 873910" d="M61.67,11.657c-2.044-1.646-6.416,3.927-8.736,7.41a47.809,47.809,0,0,0-4.179,8.689s2.8,2.03,5.3,3.61a40.432,40.432,0,0,0,4.314,2.326S68.68,17.3,61.67,11.657" transform="translate(85.903 20.014)" fill="#d1406b"/>
        <path id="Trazado_873911" data-name="Trazado 873911" d="M45.634,10.723c1.143,1.166,2.812,2.464,6.256,1.895a13.877,13.877,0,0,0,4.833-1.779l.577,3.773a3.307,3.307,0,0,0,.989-.365c.058-1.494.591-1.958,1.411-1.514.928.5.967,2.629.967,2.629A7.727,7.727,0,0,0,62.526,8.4C61.935,5.752,58.356.512,53.362.976s-7.9,3.765-8.515,6.62a3.51,3.51,0,0,0,.787,3.126" transform="translate(78.865 1.669)" fill="#4d4d4d"/>
        <path id="Trazado_873912" data-name="Trazado 873912" d="M49.591,3.3s-6.413,4.516-7.518,5.471,5.071,5.121,9.443,3.729S62.47,6.244,62.47,6.244Z" transform="translate(73.9 5.82)" fill="#5d588d"/>
        <path id="Trazado_873913" data-name="Trazado 873913" d="M44.712,8.876s7.311,4.543,11.876,3.242,5.8-2.439,5.8-2.439S61.993.14,53.605.14s-8.893,8.736-8.893,8.736" transform="translate(78.779 0.247)" fill="#7c76ac"/>
        <path id="Trazado_873914" data-name="Trazado 873914" d="M49.674.7c0,.384-.563.7-1.259.7S47.155,1.08,47.155.7s.563-.7,1.259-.7,1.259.312,1.259.7" transform="translate(83.084 0)" fill="#5d588d"/>
        <path id="Trazado_873915" data-name="Trazado 873915" d="M76.633,53.5,27.018,82.169l1.547.972L78.326,54.406Z" transform="translate(47.603 94.263)" fill="#ed8e2f"/>
        <path id="Trazado_873916" data-name="Trazado 873916" d="M77.338,53.826,27.579,82.558V89.64L77.338,60.908Z" transform="translate(48.592 94.837)" fill="#c96a1c"/>
        <path id="Trazado_873917" data-name="Trazado 873917" d="M27.018,71.036V63.88l1.547.964v7.079Z" transform="translate(47.604 112.552)" fill="#d87923"/>
        <path id="Trazado_873918" data-name="Trazado 873918" d="M56.579,41.868,6.964,70.537l1.547.972L58.272,42.774Z" transform="translate(12.27 73.769)" fill="#ed8e2f"/>
        <path id="Trazado_873919" data-name="Trazado 873919" d="M57.284,42.195,7.525,70.927v7.082L57.284,49.276Z" transform="translate(13.258 74.344)" fill="#c96a1c"/>
        <path id="Trazado_873920" data-name="Trazado 873920" d="M6.965,59.4V52.249l1.547.964v7.079Z" transform="translate(12.271 92.058)" fill="#d87923"/>
        <path id="Trazado_873921" data-name="Trazado 873921" d="M66.316,47.4,16.7,76.066l1.547.972L68.009,48.3Z" transform="translate(29.425 83.511)" fill="#ed8e2f"/>
        <path id="Trazado_873922" data-name="Trazado 873922" d="M67.02,47.724,17.261,76.456v7.082L67.02,54.8Z" transform="translate(30.413 84.085)" fill="#c96a1c"/>
        <path id="Trazado_873923" data-name="Trazado 873923" d="M16.7,64.934V57.778l1.547.964v7.082Z" transform="translate(29.426 101.8)" fill="#d87923"/>
        <path id="Trazado_873924" data-name="Trazado 873924" d="M63.9,84.416,6.964,51.544v2.29L63.9,86.706Z" transform="translate(12.271 90.816)" fill="#d87923"/>
        <path id="Trazado_873925" data-name="Trazado 873925" d="M69.867,83.208,63.9,86.544,6.964,53.672,12.9,50.335Z" transform="translate(12.271 88.687)" fill="#ed8e2f"/>
        <path id="Trazado_873926" data-name="Trazado 873926" d="M33.547,62.237l-5.969,3.336v4.267l5.969-3.474Z" transform="translate(48.591 109.657)" fill="#c96a1c"/>
        <path id="Trazado_873927" data-name="Trazado 873927" d="M68.021,82.137,10.927,49.123v2.29L68.021,84.426Z" transform="translate(19.252 86.552)" fill="#d87923"/>
        <path id="Trazado_873928" data-name="Trazado 873928" d="M73.99,80.927l-5.969,3.336L10.927,51.253l5.938-3.336Z" transform="translate(19.252 84.425)" fill="#ed8e2f"/>
        <path id="Trazado_873929" data-name="Trazado 873929" d="M37.567,59.868,31.6,63.2v4.267L37.567,64Z" transform="translate(55.674 105.483)" fill="#c96a1c"/>
        <path id="Trazado_873930" data-name="Trazado 873930" d="M72.222,79.848,15,46.766v2.29L72.222,82.138Z" transform="translate(26.42 82.398)" fill="#d87923"/>
        <path id="Trazado_873931" data-name="Trazado 873931" d="M78.191,78.638l-5.969,3.336L14.995,48.892l5.938-3.334Z" transform="translate(26.42 80.271)" fill="#ed8e2f"/>
        <path id="Trazado_873932" data-name="Trazado 873932" d="M41.683,57.536l-5.969,3.336v4.267l5.969-3.474Z" transform="translate(62.927 101.373)" fill="#c96a1c"/>
        <path id="Trazado_873933" data-name="Trazado 873933" d="M76.158,77.345,19.063,44.473v2.29L76.158,79.635Z" transform="translate(33.588 78.358)" fill="#d87923"/>
        <path id="Trazado_873934" data-name="Trazado 873934" d="M82.126,76.135l-5.969,3.336L19.063,46.6,25,43.266Z" transform="translate(33.588 76.231)" fill="#ed8e2f"/>
        <path id="Trazado_873935" data-name="Trazado 873935" d="M45.7,55.167,39.735,58.5V62.77L45.7,59.3Z" transform="translate(70.01 97.199)" fill="#c96a1c"/>
        <path id="Trazado_873936" data-name="Trazado 873936" d="M79.944,75.359,22.712,42.343v2.29L79.944,77.649Z" transform="translate(40.016 74.606)" fill="#d87923"/>
        <path id="Trazado_873937" data-name="Trazado 873937" d="M85.913,74.151l-5.969,3.336L22.712,44.471l5.941-3.336Z" transform="translate(40.016 72.477)" fill="#ed8e2f"/>
        <path id="Trazado_873938" data-name="Trazado 873938" d="M49.4,53.089l-5.969,3.336v4.267L49.4,57.218Z" transform="translate(76.527 93.539)" fill="#c96a1c"/>
        <path id="Trazado_873939" data-name="Trazado 873939" d="M34.783,77.392l.008-17.732L9.07,44.79v17.7Z" transform="translate(15.98 78.917)" fill="#dba763"/>
        <path id="Trazado_873940" data-name="Trazado 873940" d="M18.38,81.552l.008-17.732L55.411,42.429v17.7Z" transform="translate(32.383 74.757)" fill="#e8b679"/>
        <path id="Trazado_873941" data-name="Trazado 873941" d="M71.815,51.91,34.792,73.3,9.07,58.431,46.1,37.048Z" transform="translate(15.98 65.276)" fill="#ffe1c0"/>
        <path id="Trazado_873942" data-name="Trazado 873942" d="M12.532,56.178l5.737,3.331v-9.4l-5.737-3.334Z" transform="translate(22.08 82.421)" fill="#4d4d4d"/>
        <path id="Trazado_873943" data-name="Trazado 873943" d="M12.532,60.411l37-21.369,5.75,3.323L18.268,63.756Z" transform="translate(22.08 68.79)" fill="#6d6d6d"/>
        <path id="Trazado_873944" data-name="Trazado 873944" d="M23.195,59.781V58.127l-8.637-5.007V54.8Z" transform="translate(25.651 93.592)" fill="#4d4d4d"/>
        <path id="Trazado_873945" data-name="Trazado 873945" d="M23.195,58.71V57.055l-8.637-5.007v1.676Z" transform="translate(25.651 91.704)" fill="#4d4d4d"/>
        <path id="Trazado_873946" data-name="Trazado 873946" d="M29.905,48.533v5.985l4.129-2.389V46.147Z" transform="translate(52.691 81.308)" fill="#4d4d4d"/>
        <path id="Trazado_873947" data-name="Trazado 873947" d="M27.865,49.717V55.7l4.129-2.386V47.33Z" transform="translate(49.096 83.393)" fill="#4d4d4d"/>
        <path id="Trazado_873948" data-name="Trazado 873948" d="M25.8,50.9v5.985L29.927,54.5V48.518Z" transform="translate(45.453 85.485)" fill="#4d4d4d"/>
        <path id="Trazado_873949" data-name="Trazado 873949" d="M18.787,53.577v8.6l8.487-4.905V48.661Z" transform="translate(33.102 85.737)" fill="#fff"/>
        <path id="Trazado_873950" data-name="Trazado 873950" d="M19.164,54.427v-1.4l6.678-3.85v1.378Z" transform="translate(33.765 86.645)" fill="#4d4d4d"/>
        <path id="Trazado_873951" data-name="Trazado 873951" d="M45.008,83.39l.008-17.732L19.294,50.788v17.7Z" transform="translate(33.995 89.484)" fill="#dba763"/>
        <path id="Trazado_873952" data-name="Trazado 873952" d="M28.6,87.549l.008-17.732L65.636,48.427v17.7Z" transform="translate(50.398 85.324)" fill="#e8b679"/>
        <path id="Trazado_873953" data-name="Trazado 873953" d="M82.04,57.908,45.016,79.3,19.294,64.429,56.326,43.046Z" transform="translate(33.995 75.843)" fill="#ffe1c0"/>
        <path id="Trazado_873954" data-name="Trazado 873954" d="M22.756,62.175l5.737,3.331v-9.4l-5.737-3.334Z" transform="translate(40.095 92.988)" fill="#4d4d4d"/>
        <path id="Trazado_873955" data-name="Trazado 873955" d="M22.756,66.409l37-21.369,5.75,3.325L28.493,69.753Z" transform="translate(40.095 79.356)" fill="#6d6d6d"/>
        <path id="Trazado_873956" data-name="Trazado 873956" d="M33.419,65.78V64.126l-8.637-5.01v1.679Z" transform="translate(43.665 104.157)" fill="#4d4d4d"/>
        <path id="Trazado_873957" data-name="Trazado 873957" d="M33.419,64.707V63.052l-8.637-5.007v1.679Z" transform="translate(43.665 102.271)" fill="#4d4d4d"/>
        <path id="Trazado_873958" data-name="Trazado 873958" d="M40.13,54.531v5.985l4.129-2.386V52.144Z" transform="translate(70.706 91.874)" fill="#4d4d4d"/>
        <path id="Trazado_873959" data-name="Trazado 873959" d="M38.089,55.714V61.7l4.129-2.386V53.328Z" transform="translate(67.11 93.959)" fill="#4d4d4d"/>
        <path id="Trazado_873960" data-name="Trazado 873960" d="M36.022,56.9v5.985L40.151,60.5V54.515Z" transform="translate(63.468 96.052)" fill="#4d4d4d"/>
        <path id="Trazado_873961" data-name="Trazado 873961" d="M29.012,59.574v8.6l8.487-4.9V54.658Z" transform="translate(51.117 96.303)" fill="#fff"/>
        <path id="Trazado_873962" data-name="Trazado 873962" d="M29.388,60.424v-1.4l6.678-3.85v1.378Z" transform="translate(51.78 97.212)" fill="#4d4d4d"/>
        <path id="Trazado_873963" data-name="Trazado 873963" d="M34.783,70.31l.008-17.732L9.07,37.708V55.4Z" transform="translate(15.98 66.438)" fill="#dba763"/>
        <path id="Trazado_873964" data-name="Trazado 873964" d="M18.38,74.47l.008-17.732L55.411,35.347v17.7Z" transform="translate(32.383 62.279)" fill="#e8b679"/>
        <path id="Trazado_873965" data-name="Trazado 873965" d="M71.815,44.83,34.792,66.221,9.07,51.351,46.1,29.965Z" transform="translate(15.98 52.796)" fill="#ffe1c0"/>
        <path id="Trazado_873966" data-name="Trazado 873966" d="M12.532,49.1l5.737,3.331v-9.4L12.532,39.7Z" transform="translate(22.08 69.942)" fill="#4d4d4d"/>
        <path id="Trazado_873967" data-name="Trazado 873967" d="M12.532,53.329l37-21.369,5.75,3.323L18.268,56.674Z" transform="translate(22.08 56.311)" fill="#6d6d6d"/>
        <path id="Trazado_873968" data-name="Trazado 873968" d="M23.195,52.7V51.046l-8.637-5.01v1.679Z" transform="translate(25.651 81.112)" fill="#4d4d4d"/>
        <path id="Trazado_873969" data-name="Trazado 873969" d="M23.195,51.627V49.973l-8.637-5.007v1.676Z" transform="translate(25.651 79.225)" fill="#4d4d4d"/>
        <path id="Trazado_873970" data-name="Trazado 873970" d="M29.905,41.451v5.985l4.129-2.386V39.065Z" transform="translate(52.691 68.829)" fill="#4d4d4d"/>
        <path id="Trazado_873971" data-name="Trazado 873971" d="M27.865,42.634v5.985l4.129-2.386V40.248Z" transform="translate(49.096 70.914)" fill="#4d4d4d"/>
        <path id="Trazado_873972" data-name="Trazado 873972" d="M25.8,43.822v5.985l4.129-2.386V41.435Z" transform="translate(45.453 73.006)" fill="#4d4d4d"/>
        <path id="Trazado_873973" data-name="Trazado 873973" d="M18.787,46.495v8.6l8.487-4.9V41.578Z" transform="translate(33.102 73.258)" fill="#fff"/>
        <path id="Trazado_873974" data-name="Trazado 873974" d="M19.164,47.344v-1.4l6.678-3.85v1.378Z" transform="translate(33.765 74.166)" fill="#4d4d4d"/>
        <path id="Trazado_873975" data-name="Trazado 873975" d="M45.008,76.307l.008-17.732L19.294,43.705V61.4Z" transform="translate(33.995 77.005)" fill="#dba763"/>
        <path id="Trazado_873976" data-name="Trazado 873976" d="M28.6,80.467l.008-17.732L65.636,41.344v17.7Z" transform="translate(50.398 72.846)" fill="#e8b679"/>
        <path id="Trazado_873977" data-name="Trazado 873977" d="M82.04,50.827,45.016,72.218,19.294,57.348,56.326,35.962Z" transform="translate(33.995 63.363)" fill="#ffe1c0"/>
        <path id="Trazado_873978" data-name="Trazado 873978" d="M22.756,55.093l5.737,3.331v-9.4l-5.737-3.334Z" transform="translate(40.095 80.509)" fill="#4d4d4d"/>
        <path id="Trazado_873979" data-name="Trazado 873979" d="M22.756,59.326l37-21.369,5.75,3.325L28.493,62.671Z" transform="translate(40.095 66.878)" fill="#6d6d6d"/>
        <path id="Trazado_873980" data-name="Trazado 873980" d="M33.419,58.7V57.043l-8.637-5.01v1.679Z" transform="translate(43.665 91.679)" fill="#4d4d4d"/>
        <path id="Trazado_873981" data-name="Trazado 873981" d="M33.419,57.626V55.972l-8.637-5.01v1.679Z" transform="translate(43.665 89.791)" fill="#4d4d4d"/>
        <path id="Trazado_873982" data-name="Trazado 873982" d="M40.13,47.448v5.985l4.129-2.389V45.062Z" transform="translate(70.706 79.396)" fill="#4d4d4d"/>
        <path id="Trazado_873983" data-name="Trazado 873983" d="M38.089,48.632v5.985l4.129-2.386V46.245Z" transform="translate(67.11 81.481)" fill="#4d4d4d"/>
        <path id="Trazado_873984" data-name="Trazado 873984" d="M36.022,49.819V55.8l4.129-2.386V47.433Z" transform="translate(63.468 83.573)" fill="#4d4d4d"/>
        <path id="Trazado_873985" data-name="Trazado 873985" d="M29.012,52.492v8.6l8.487-4.9V47.576Z" transform="translate(51.117 83.825)" fill="#fff"/>
        <path id="Trazado_873986" data-name="Trazado 873986" d="M29.388,53.342v-1.4l6.678-3.85v1.375Z" transform="translate(51.78 84.733)" fill="#4d4d4d"/>
        <path id="Trazado_873987" data-name="Trazado 873987" d="M28.283,73.917l-.011-22.239L60.537,33.026V55.218Z" transform="translate(49.813 58.19)" fill="#dba763"/>
        <path id="Trazado_873988" data-name="Trazado 873988" d="M57.908,79.135,57.9,56.9,11.458,30.064V52.259Z" transform="translate(20.188 52.971)" fill="#e8b679"/>
        <path id="Trazado_873989" data-name="Trazado 873989" d="M11.459,41.957,57.895,68.787,90.16,50.135,43.71,23.314Z" transform="translate(20.189 41.078)" fill="#ffe1c0"/>
        <path id="Trazado_873990" data-name="Trazado 873990" d="M40.2,47.308l-7.195,4.176V39.7L40.2,35.52Z" transform="translate(58.154 62.584)" fill="#4d4d4d"/>
        <path id="Trazado_873991" data-name="Trazado 873991" d="M69.817,52.618l-46.409-26.8L16.2,29.984,62.622,56.813Z" transform="translate(28.538 45.486)" fill="#6d6d6d"/>
        <path id="Trazado_873992" data-name="Trazado 873992" d="M29.147,51.829V49.752l10.832-6.281v2.1Z" transform="translate(51.355 76.594)" fill="#4d4d4d"/>
        <path id="Trazado_873993" data-name="Trazado 873993" d="M29.147,50.485V48.411l10.832-6.283v2.1Z" transform="translate(51.355 74.226)" fill="#4d4d4d"/>
        <path id="Trazado_873994" data-name="Trazado 873994" d="M17.123,37.719v7.5l-5.179-2.991v-7.5Z" transform="translate(21.045 61.188)" fill="#4d4d4d"/>
        <path id="Trazado_873995" data-name="Trazado 873995" d="M19.684,39.2v7.5L14.5,43.716v-7.5Z" transform="translate(25.553 63.803)" fill="#4d4d4d"/>
        <path id="Trazado_873996" data-name="Trazado 873996" d="M22.277,40.693V48.2L17.1,45.206V37.7Z" transform="translate(30.122 66.427)" fill="#4d4d4d"/>
        <path id="Trazado_873997" data-name="Trazado 873997" d="M34.557,44.045V54.831L23.91,48.68v-10.8Z" transform="translate(42.127 66.743)" fill="#fff"/>
        <path id="Trazado_873998" data-name="Trazado 873998" d="M32.636,45.112V43.355L24.26,38.527v1.726Z" transform="translate(42.743 67.882)" fill="#4d4d4d"/>
        <path id="Trazado_873999" data-name="Trazado 873999" d="M15.235,55.083l-.008-13.02L36.06,30.022V43.011Z" transform="translate(26.828 52.896)" fill="#dba763"/>
        <path id="Trazado_874000" data-name="Trazado 874000" d="M34.363,58.454l-.008-13.02L4.371,28.109V41.1Z" transform="translate(7.701 49.525)" fill="#e8b679"/>
        <path id="Trazado_874001" data-name="Trazado 874001" d="M4.371,35.8,34.354,53.119,55.187,41.077,25.2,23.76Z" transform="translate(7.701 41.862)" fill="#ffe1c0"/>
        <path id="Trazado_874002" data-name="Trazado 874002" d="M15.792,41.677v-1.34l6.993-4.057v1.359Z" transform="translate(27.825 63.924)" fill="#4d4d4d"/>
        <path id="Trazado_874003" data-name="Trazado 874003" d="M15.792,40.81V39.47l6.993-4.057v1.359Z" transform="translate(27.825 62.395)" fill="#4d4d4d"/>
        <path id="Trazado_874004" data-name="Trazado 874004" d="M8.908,31.552V37.6L4.735,35.186V29.141Z" transform="translate(8.343 51.344)" fill="#4d4d4d"/>
        <path id="Trazado_874005" data-name="Trazado 874005" d="M10.97,32.747v6.046L6.8,36.382V30.336Z" transform="translate(11.975 53.45)" fill="#4d4d4d"/>
        <path id="Trazado_874006" data-name="Trazado 874006" d="M21.429,38.813v7.214L10.782,39.876V32.649Z" transform="translate(18.996 57.524)" fill="#fff"/>
        <path id="Trazado_874007" data-name="Trazado 874007" d="M19.508,39.879V38.123l-8.377-4.828v1.726Z" transform="translate(19.613 58.663)" fill="#4d4d4d"/>
        <path id="Trazado_874008" data-name="Trazado 874008" d="M25.454,37.972l-7.195,4.176V35.3l7.195-4.182Z" transform="translate(32.171 54.835)" fill="#4d4d4d"/>
        <path id="Trazado_874009" data-name="Trazado 874009" d="M44.583,42.171,14.635,24.851,7.4,29.033,37.388,46.367Z" transform="translate(13.042 43.786)" fill="#6d6d6d"/>
        <path id="Trazado_874010" data-name="Trazado 874010" d="M10.076,46.455c1.726-5.866,2.61-12.324-.307-17.071l-6.344.149A46.606,46.606,0,0,0,.21,39.258c-.66,4.157.3,6.137,1.955,8.106s7.546-.657,7.767-.8l.144-.1" transform="translate(0 51.772)" fill="#ffc5b3"/>
        <path id="Trazado_874011" data-name="Trazado 874011" d="M14.214,70.567s6.811-3.035,10.18-3.182,3.7,3.811,0,6.88-6.526,3.48-9.551,4.723c-2.723,1.121-3.7,1.21-5.877-.2-2.9-1.881-.577-6.858-.577-6.858Z" transform="translate(13.228 118.721)" fill="#4d4d4d"/>
        <path id="Trazado_874012" data-name="Trazado 874012" d="M7.118,65.847s5.411-2.259,8.78-2.406,4.579,2.767.884,5.836-6.01,3.748-9.034,4.991c-2.726,1.121-3.69,1.188-5.877-.2-2.983-1.892-.652-6.866-.577-6.858Z" transform="translate(0.627 111.77)" fill="#4d4d4d"/>
        <path id="Trazado_874013" data-name="Trazado 874013" d="M27.246,41.549s5.946,32.121,5.946,42.208c0,17.787-.157,36.515-.157,36.515s-2.947,3.1-5.817,3.1c-6.457.019-7.109-3.231-7.109-3.231s-.091-21.2-.652-30.826c-.392-6.7-.784-16.135-3.474-23.918-.077,8-.058,10.559-.713,19.264-.483,6.421-3.16,23.659-3.306,24.783-2.047,2.472-8.393,4.179-11.608.561.251-2.836,2.036-22.753,1.8-33.077C1.944,67.445-.475,44.979,4.949,40.6c4.69-3.784,22.3.945,22.3.945" transform="translate(0.627 68.956)" fill="#5d588d"/>
        <path id="Trazado_874014" data-name="Trazado 874014" d="M11.045,44.242a42.556,42.556,0,0,0-1.025-7.5l3.162-10.056s-4.43-2.245-7.427,1.326C4.507,29.5,2.22,33.962.229,38.124c1.536,2.668,5.709,6.286,10.816,6.118" transform="translate(0.403 45.797)" fill="#ed8e2f"/>
        <path id="Trazado_874015" data-name="Trazado 874015" d="M13.268,19.663c-2.37-1.643-6.924-1.132-8.9,3.044-1.094,2.312.453,8.529.7,12.9a10.612,10.612,0,0,1-.98,5.551L7.1,42.4a9.111,9.111,0,0,0,6.167,0l-.1-5.369s3.251-.483,3.82-1.005c1.37-1.254,2.094-4.988,1.458-9.808-.945-7.17-4.309-5.949-5.181-6.554" transform="translate(7.01 33.112)" fill="#ffc5b3"/>
        <path id="Trazado_874016" data-name="Trazado 874016" d="M26.039,45.509c1.781-3.8-2.259-10.708-3.392-13.191s-4.762-3.991-4.762-3.991A60.56,60.56,0,0,0,11.2,26.269c-.754-.113-3.367-.276-3.367-.276S2.066,35.066,1.425,40.065c-.45,3.5,1.461,14.939.044,26.208-.748,5.963,21.753,4.281,23.733,1.85-1.154-5.637-2.806-14.84.837-22.615" transform="translate(2.387 45.798)" fill="#ffa543"/>
        <path id="Trazado_874017" data-name="Trazado 874017" d="M2.413,43.552a72.839,72.839,0,0,1-.323,12C1.372,60.043.938,66.992.938,66.992s6.4,4.977,13.785,4.115A25.948,25.948,0,0,0,27.232,65.94s-2.458-12.644-2.317-14.2l.138-1.552s-2.836,1.342-4.629.588a8.5,8.5,0,0,1-5.7-6.7c-.644-3.251-.221-10.813-.069-12.832-.362-.052-9.54-2.751-9.54-2.751s-2.809,8.954-2.7,15.058" transform="translate(1.653 50.204)" fill="#5d588d"/>
        <path id="Trazado_874018" data-name="Trazado 874018" d="M18.6,29.874c.359-1.2,1.182-4,1.386-5.121a5.48,5.48,0,0,0-1.475-5.107c-1.787-1.859-7.979-2.455-10.219-1.16s-7,3.662-5.342,11.387c1.345,6.242,2.651,6.941,4.538,8.407a10.732,10.732,0,0,0,4.549,1.6,5.365,5.365,0,0,0,1.908-3.533c.091-.746,0-3,0-3s-1.652-3.267-.373-4.43c1.362-1.24,2.754.732,3.074,1.527,1.116,2.792,2.223,4.1,1.953-.569" transform="translate(4.599 31.352)" fill="#4d4d4d"/>
        <path id="Trazado_874019" data-name="Trazado 874019" d="M39.714,43.409a45.827,45.827,0,0,1-13.1-1.37,36.55,36.55,0,0,1-8.222-3.386,55.52,55.52,0,0,1-2.381-6.148l-8.261,3.37s2.082,5.576,3.3,8.12c.98,2.044,2.21,2.453,4.168,3.173,2.861,1.055,11.247,1.345,14.586,1.779a18.611,18.611,0,0,0,7.366-.395c4.043-.978,2.7-4.021,2.538-5.143" transform="translate(13.66 57.271)" fill="#ffc5b3"/>
        <path id="Trazado_874020" data-name="Trazado 874020" d="M9.014,47.169c3.919.84,8.159-.378,10.349-3.37-1.6-7.222-4.137-15.08-7.62-16.232-1.873-.621-5.217,5.866-4.654,10.462.163,1.3.945,4.913,1.925,9.139" transform="translate(12.38 48.499)" fill="#ed8e2f"/>
        <path id="Trazado_874021" data-name="Trazado 874021" d="M1.312,40.183l-.293,3.173s4.292,3.693,13.564,3.9,12.3-2.961,12.3-2.961l-.55-3.265A24.964,24.964,0,0,1,14.323,44.16,24.37,24.37,0,0,1,1.312,40.183" transform="translate(1.795 70.799)" fill="#7c76ac"/>
        <path id="Trazado_874022" data-name="Trazado 874022" d="M4.919,35.135s1.025-4.129,2.952-6.118a7.514,7.514,0,0,1,3.734-2.179s1.9.528,1.87,1.066c-1.033.619-2.928,1.315-4.046,3.22a25.8,25.8,0,0,0-1.953,5.894Z" transform="translate(8.667 47.287)" fill="#5d588d"/>
        <path id="Trazado_874023" data-name="Trazado 874023" d="M6.223,25.993a23,23,0,0,0-3.013,6.62,58.249,58.249,0,0,0-1.143,5.894l1.79.224s1.718-6.645,2.69-9.043a28.107,28.107,0,0,1,1.685-3.579Z" transform="translate(3.64 45.798)" fill="#5d588d"/>
        <path id="Trazado_874024" data-name="Trazado 874024" d="M17.64,39.038a30.766,30.766,0,0,0,3.11-2.944c.779-.906,1.428-.677,1.168.342a11.215,11.215,0,0,1-1.621,2.77s-1.978-.168-2.317-.168Z" transform="translate(31.08 62.596)" fill="#ffc5b3"/>
        <path id="Trazado_874025" data-name="Trazado 874025" d="M15.861,18.573c4.524.475,6.314,3.441,4,6.629S12,30.588,7.478,30.112s-6.311-3.441-4-6.629,7.855-5.386,12.379-4.911" transform="translate(4.351 32.611)" fill="#7c76ac"/>
        <path id="Trazado_874026" data-name="Trazado 874026" d="M2.791,29.682S.1,20.507,8.254,17.737c5.861-1.989,10.263.331,12.641,6.347,1.45,3.665-18.1,5.6-18.1,5.6" transform="translate(4.169 30.025)" fill="#7c76ac"/>
        <path id="Trazado_874027" data-name="Trazado 874027" d="M7.917,27.688c.594-.334,3.359-3.8,2.591-6.957a19.009,19.009,0,0,0-1.135-2.24s.82-.431,4.176.276,3.98,3.723,1.375,5.836a14.883,14.883,0,0,1-7.007,3.085" transform="translate(13.949 32.351)" fill="#5d588d"/>
      </g>
    </g>
  </g>
</svg>
