<svg xmlns="http://www.w3.org/2000/svg" width="179.25" height="127.5" viewBox="0 0 179.25 127.5">
  <g id="Grupo_1100051" data-name="Grupo 1100051" transform="translate(-1200.25 -3982.5)">
    <g id="Grupo_1099215" data-name="Grupo 1099215" transform="translate(0 756)">
      <rect id="Rectángulo_401187" data-name="Rectángulo 401187" width="146" height="89" rx="20" transform="translate(1201.75 3228)" fill="none" stroke="#ff725d" stroke-miterlimit="10" stroke-width="3"/>
      <g id="Layer_26" data-name="Layer 26" transform="translate(1270 3272)">
        <path id="Trazado_156158" data-name="Trazado 156158" d="M107,46.25V21.75L98.25,13H10.75L2,21.75v24.5" transform="translate(0.75 0.75)" fill="#e2e7f6"/>
        <path id="Trazado_156159" data-name="Trazado 156159" d="M101.75,44V24.75L93,16H5.5L2,19.5V44Z" transform="translate(0.75 3)" fill="#f2f2f2"/>
        <path id="Trazado_156160" data-name="Trazado 156160" d="M2,32H107V42.5H2Z" transform="translate(0.75 15)" fill="#c18e59"/>
        <path id="Trazado_156161" data-name="Trazado 156161" d="M101.75,35.5V32H2v5.25h98A1.75,1.75,0,0,0,101.75,35.5Z" transform="translate(0.75 15)" fill="#ce9b6e"/>
        <path id="Trazado_156162" data-name="Trazado 156162" d="M4,38l6.24,20.279a3.5,3.5,0,0,0,3.344,2.471H29.31a3.5,3.5,0,0,0,3.39-2.6L35.267,48.5h3.965L41.8,58.151a3.5,3.5,0,0,0,3.39,2.6H60.81a3.5,3.5,0,0,0,3.39-2.6L66.767,48.5h3.965L73.3,58.151a3.5,3.5,0,0,0,3.39,2.6H92.415a3.5,3.5,0,0,0,3.344-2.471L102,38" transform="translate(2.25 19.5)" fill="#976947"/>
        <path id="Trazado_156163" data-name="Trazado 156163" d="M90.509,58.279,96.75,38H4l6.24,20.279a3.5,3.5,0,0,0,3.344,2.471H24.06a3.5,3.5,0,0,0,3.39-2.6L30.017,48.5h3.965l.642,2.406.642-2.406h3.965L41.8,58.151a3.5,3.5,0,0,0,3.39,2.6H55.56a3.5,3.5,0,0,0,3.39-2.6L61.517,48.5h3.965l.642,2.406.642-2.406h3.965L73.3,58.151a3.5,3.5,0,0,0,3.39,2.6H87.165A3.5,3.5,0,0,0,90.509,58.279Z" transform="translate(2.25 19.5)" fill="#a57656"/>
        <path id="Trazado_156164" data-name="Trazado 156164" d="M23,42.5C23,28.969,30.051,18,38.75,18S54.5,28.969,54.5,42.5" transform="translate(16.5 4.5)" fill="#f2b9a1"/>
        <path id="Trazado_156165" data-name="Trazado 156165" d="M41,42.5C41,28.969,48.051,18,56.75,18S72.5,28.969,72.5,42.5" transform="translate(30 4.5)" fill="#f2b9a1"/>
        <path id="Trazado_156166" data-name="Trazado 156166" d="M54.125,18.21C46.679,20.158,41,30.206,41,42.342H67.25C67.25,30.206,61.571,20.158,54.125,18.21Z" transform="translate(30 4.657)" fill="#fbe1ca"/>
        <path id="Trazado_156167" data-name="Trazado 156167" d="M36.125,18.21C28.679,20.158,23,30.206,23,42.342H49.25C49.25,30.206,43.571,20.158,36.125,18.21Z" transform="translate(16.5 4.657)" fill="#fbe1ca"/>
        <path id="Trazado_156168" data-name="Trazado 156168" d="M5,42.5C5,28.969,12.051,18,20.75,18S36.5,28.969,36.5,42.5" transform="translate(3 4.5)" fill="#f2b9a1"/>
        <path id="Trazado_156169" data-name="Trazado 156169" d="M18.125,18.21C10.679,20.158,5,30.206,5,42.342H31.25C31.25,30.206,25.571,20.158,18.125,18.21Z" transform="translate(3 4.657)" fill="#fbe1ca"/>
        <path id="Trazado_156170" data-name="Trazado 156170" d="M108.987,21.263l-8.75-8.75A1.75,1.75,0,0,0,99,12H11.5a1.75,1.75,0,0,0-1.237.512l-8.75,8.75A1.75,1.75,0,0,0,1,22.5v35a1.75,1.75,0,0,0,1.75,1.75H4.957L10.816,78.3A5.229,5.229,0,0,0,15.836,82H31.562a5.25,5.25,0,0,0,5.075-3.9l2.224-8.353h1.277L42.368,78.1a5.25,5.25,0,0,0,5.07,3.9H63.062a5.25,5.25,0,0,0,5.075-3.9l2.224-8.353h1.277L73.868,78.1a5.25,5.25,0,0,0,5.07,3.9H94.663a5.227,5.227,0,0,0,5.021-3.706l5.859-19.043h2.207a1.75,1.75,0,0,0,1.75-1.75v-35a1.75,1.75,0,0,0-.512-1.237ZM12.224,15.5H98.275L106,23.224V45.25h-1.81c-.605-13.65-8.185-24.5-17.44-24.5-6.932,0-12.918,6.093-15.75,14.875-2.831-8.79-8.818-14.875-15.75-14.875S42.331,26.843,39.5,35.625c-2.832-8.79-8.818-14.875-15.75-14.875-9.256,0-16.835,10.85-17.44,24.5H4.5V23.224ZM100.7,45.25H72.8c.553-11.725,6.6-21,13.946-21S100.143,33.525,100.7,45.25Zm-31.5,0H41.3c.553-11.725,6.6-21,13.946-21S68.643,33.525,69.2,45.25Zm-31.5,0H9.8c.553-11.725,6.6-21,13.946-21S37.143,33.525,37.7,45.25ZM96.338,77.263A1.75,1.75,0,0,1,94.663,78.5H78.938a1.75,1.75,0,0,1-1.69-1.3l-2.573-9.653a1.75,1.75,0,0,0-1.691-1.3H69.015a1.75,1.75,0,0,0-1.69,1.3L64.752,77.2a1.75,1.75,0,0,1-1.691,1.3H47.438a1.75,1.75,0,0,1-1.69-1.3l-2.573-9.653a1.75,1.75,0,0,0-1.69-1.3H37.515a1.75,1.75,0,0,0-1.69,1.3L33.252,77.2a1.75,1.75,0,0,1-1.69,1.3H15.836a1.75,1.75,0,0,1-1.675-1.236L8.619,59.25H101.88ZM106,55.75H4.5v-7H106Z" fill="#12263f"/>
      </g>
    </g>
  </g>
</svg>
