<svg xmlns="http://www.w3.org/2000/svg" width="20.25" height="20.25" viewBox="0 0 20.25 20.25">
  <g id="factura" transform="translate(0 -0.39)">
    <path id="Trazado_157535" data-name="Trazado 157535" d="M347.278,40.84h.028a.345.345,0,0,0,.048,0,.771.771,0,0,1,.756.77.345.345,0,0,0,.69,0,1.463,1.463,0,0,0-1.148-1.427v-.332a.345.345,0,1,0-.69,0V40.2a1.461,1.461,0,0,0,.377,2.873.771.771,0,1,1-.771.771.345.345,0,1,0-.69,0,1.464,1.464,0,0,0,1.084,1.411v.378a.345.345,0,1,0,.69,0v-.362a1.461,1.461,0,0,0-.313-2.888.771.771,0,0,1-.06-1.539Zm0,0" transform="translate(-331.81 -37.426)" fill="#ffdc39"/>
    <path id="Trazado_157536" data-name="Trazado 157536" d="M15.592.39a4.727,4.727,0,0,0-4.386,3.235H3.063a.353.353,0,0,0-.328.36L2.657,16.074H.336A.33.33,0,0,0,0,16.4v1.534a2.651,2.651,0,0,0,2.461,2.7v.008H12.59v-.01c.082,0,.116.01.168.01h.007a2.644,2.644,0,0,0,2.573-2.707V10.177c.082,0,.169.007.254.007a4.79,4.79,0,0,0,4.658-4.9A4.789,4.789,0,0,0,15.592.39ZM2.585,19.951h0A1.98,1.98,0,0,1,.656,17.933v-1.17H10.17v1.165a2.773,2.773,0,0,0,.76,1.915c.034.036.077.064.113.107Zm12.1-2.018a1.971,1.971,0,0,1-1.917,2.018h-.006a1.985,1.985,0,0,1-1.932-2.022V16.4a.327.327,0,0,0-.089-.236.3.3,0,0,0-.224-.093h-7.2L3.389,4.315h7.635a5.43,5.43,0,0,0-.09.957,5.069,5.069,0,0,0,.4,1.972h-3.1a.345.345,0,0,0,0,.689h3.455a4.634,4.634,0,0,0,3,2.158ZM15.592,9.5a4.106,4.106,0,0,1-4-4.2,4.106,4.106,0,0,1,4-4.2,4.106,4.106,0,0,1,4,4.2A4.111,4.111,0,0,1,15.592,9.5Zm0,0" fill="#ffdc39"/>
    <path id="Trazado_157537" data-name="Trazado 157537" d="M124.866,212.746a1.07,1.07,0,1,0,1.1,1.07A1.089,1.089,0,0,0,124.866,212.746Zm0,1.449a.381.381,0,1,1,.415-.379A.4.4,0,0,1,124.866,214.195Zm0,0" transform="translate(-118.717 -203.21)" fill="#ffdc39"/>
    <path id="Trazado_157538" data-name="Trazado 157538" d="M192.719,229.849a.345.345,0,0,0,.345.345h4.6a.345.345,0,1,0,0-.69h-4.6A.345.345,0,0,0,192.719,229.849Zm0,0" transform="translate(-184.951 -219.245)" fill="#ffdc39"/>
    <path id="Trazado_157539" data-name="Trazado 157539" d="M124.866,143.2a1.07,1.07,0,1,0,1.1,1.07A1.089,1.089,0,0,0,124.866,143.2Zm0,1.449a.381.381,0,1,1,.415-.379.4.4,0,0,1-.415.379Zm0,0" transform="translate(-118.717 -136.662)" fill="#ffdc39"/>
    <path id="Trazado_157540" data-name="Trazado 157540" d="M124.866,282.281a1.07,1.07,0,1,0,1.1,1.07A1.089,1.089,0,0,0,124.866,282.281Zm0,1.449a.381.381,0,1,1,.415-.379A.4.4,0,0,1,124.866,283.73Zm0,0" transform="translate(-118.717 -269.751)" fill="#ffdc39"/>
    <path id="Trazado_157541" data-name="Trazado 157541" d="M197.665,299.5h-4.6a.345.345,0,1,0,0,.69h4.6a.345.345,0,1,0,0-.69Zm0,0" transform="translate(-184.951 -286.23)" fill="#ffdc39"/>
  </g>
</svg>
