<svg xmlns="http://www.w3.org/2000/svg" xmlns:xlink="http://www.w3.org/1999/xlink" width="20" height="20" viewBox="0 0 20 20">
  <defs>
    <clipPath id="clip-path">
      <rect id="Rectángulo_401101" data-name="Rectángulo 401101" width="20" height="20" transform="translate(1065 4994.166)" fill="#ffdc39" stroke="#707070" stroke-width="1"/>
    </clipPath>
  </defs>
  <g id="Enmascarar_grupo_1098691" data-name="Enmascarar grupo 1098691" transform="translate(-1065 -4994.166)" clip-path="url(#clip-path)">
    <g id="factura_2_" data-name="factura (2)" transform="translate(1065 4994.081)">
      <g id="Grupo_1099160" data-name="Grupo 1099160">
        <g id="Grupo_1099159" data-name="Grupo 1099159">
          <path id="Trazado_873573" data-name="Trazado 873573" d="M22.095,21.883a3.588,3.588,0,0,0-2.075.654H16.21a.327.327,0,1,0,0,.654h3.105a3.577,3.577,0,0,0-.683,1.308H16.21a.327.327,0,1,0,0,.654h2.3c-.01.108-.015.217-.015.327a3.629,3.629,0,0,0,.134.981H16.21a.327.327,0,1,0,0,.654h2.677a3.6,3.6,0,1,0,3.207-5.231Zm0,6.539a2.93,2.93,0,0,1-2.942-2.942,3,3,0,0,1,.051-.547.366.366,0,0,0,.012-.065,2.924,2.924,0,0,1,1.077-1.719.335.335,0,0,0,.071-.054,2.944,2.944,0,1,1,1.731,5.327Z" transform="translate(-10.652 -14.69)" fill="#ffdc39"/>
          <path id="Trazado_873574" data-name="Trazado 873574" d="M32.642,27.869a.322.322,0,0,0-.458.1l-1.733,2.615-1.013-1.013a.324.324,0,0,0-.458.458l1.308,1.308a.3.3,0,0,0,.229.1.259.259,0,0,0,.262-.163l1.962-2.942A.322.322,0,0,0,32.642,27.869Z" transform="translate(-19.402 -18.683)" fill="#ffdc39"/>
          <path id="Trazado_873575" data-name="Trazado 873575" d="M17.537-.117H4.787A1.619,1.619,0,0,0,3.152,1.517v13.4H.864a.963.963,0,0,0-.981.981v1.635A1.967,1.967,0,0,0,1.844,19.5H14.268a1.944,1.944,0,0,0,1.308-.523,1.866,1.866,0,0,0,.654-1.439V4.46h2.289a.963.963,0,0,0,.981-.981V1.844A1.967,1.967,0,0,0,17.537-.117ZM1.844,18.845A1.312,1.312,0,0,1,.537,17.537V15.9a.328.328,0,0,1,.327-.327H12.306v1.962a1.913,1.913,0,0,0,.49,1.308Zm13.731-17V17.537a1.359,1.359,0,0,1-.425.981,1.511,1.511,0,0,1-.837.33l-.046,0a1.3,1.3,0,0,1-.614-.154,1.394,1.394,0,0,1-.693-1.219V15.249a.309.309,0,0,0-.327-.327H3.806V1.517A.963.963,0,0,1,4.787.537H16.066a2.314,2.314,0,0,0-.174.244,1.946,1.946,0,0,0-.314.971Q15.576,1.8,15.575,1.844Zm3.269,1.635a.328.328,0,0,1-.327.327H16.229V1.844a1.308,1.308,0,0,1,2.615,0Z" transform="translate(0.117 0.117)" fill="#ffdc39"/>
          <path id="Trazado_873576" data-name="Trazado 873576" d="M23.21,6.537h3.923a.327.327,0,0,0,0-.654H23.21a.327.327,0,0,0,0,.654Z" transform="translate(-15.363 -3.921)" fill="#ffdc39"/>
          <path id="Trazado_873577" data-name="Trazado 873577" d="M16.21,12.537h8.5a.327.327,0,1,0,0-.654h-8.5a.327.327,0,1,0,0,.654Z" transform="translate(-10.652 -7.96)" fill="#ffdc39"/>
          <path id="Trazado_873578" data-name="Trazado 873578" d="M16.21,18.537h8.5a.327.327,0,0,0,0-.654h-8.5a.327.327,0,0,0,0,.654Z" transform="translate(-10.652 -11.998)" fill="#ffdc39"/>
        </g>
      </g>
    </g>
  </g>
</svg>
