<svg xmlns="http://www.w3.org/2000/svg" width="157.866" height="125.499" viewBox="0 0 157.866 125.499">
  <g id="Grupo_1100056" data-name="Grupo 1100056" transform="translate(-486.384 -4007.001)">
    <g id="Grupo_1099218" data-name="Grupo 1099218" transform="translate(0 756)">
      <rect id="Rectángulo_401184" data-name="Rectángulo 401184" width="146" height="89" rx="20" transform="translate(496.75 3286)" fill="none" stroke="#ff725d" stroke-miterlimit="10" stroke-width="3"/>
      <g id="tarro-de-miel" transform="translate(486.384 3251.001)">
        <path id="Trazado_156127" data-name="Trazado 156127" d="M71.6,56H23.9L8,73.667v60.066a14.133,14.133,0,0,0,14.133,14.133H71.6a14.133,14.133,0,0,0,14.133-14.133V73.667Zm0,0" transform="translate(-6.233 -43.633)" fill="#f4f4e6"/>
        <path id="Trazado_156128" data-name="Trazado 156128" d="M61.164,175.478c7.653-.588,7.924,2.935,15.575,2.346s7.387-4.113,15.045-4.7,7.928,2.933,15.586,2.35h5.164v39.75a13.276,13.276,0,0,1-13.3,13.25H69.3A13.276,13.276,0,0,1,56,215.228v-39.75Zm0,0" transform="translate(-43.633 -134.845)" fill="#fdbd40"/>
        <path id="Trazado_156129" data-name="Trazado 156129" d="M173.3,336l-5.3,3.533v5.3l5.3,3.533,5.3-3.533v-5.3Zm0,0" transform="translate(-130.9 -261.8)" fill="#fc9f42"/>
        <path id="Trazado_156130" data-name="Trazado 156130" d="M221.3,336l-5.3,3.533v5.3l5.3,3.533,5.3-3.533v-5.3Zm0,0" transform="translate(-168.3 -261.8)" fill="#e9686a"/>
        <path id="Trazado_156131" data-name="Trazado 156131" d="M53.3,8h49.466a5.3,5.3,0,1,1,0,10.6H53.3A5.3,5.3,0,1,1,53.3,8Zm0,0" transform="translate(-37.4 -6.233)" fill="#394d5c"/>
        <path id="Trazado_156132" data-name="Trazado 156132" d="M216,56h10.6V68.367a5.3,5.3,0,1,1-10.6,0Zm0,0" transform="translate(-168.3 -43.633)" fill="#fdbd40"/>
        <path id="Trazado_156133" data-name="Trazado 156133" d="M168,56h10.6v5.3a5.3,5.3,0,1,1-10.6,0Zm0,0" transform="translate(-130.9 -43.633)" fill="#fc9f42"/>
        <path id="Trazado_156134" data-name="Trazado 156134" d="M0,30.033V90.1A15.918,15.918,0,0,0,15.9,106H65.366a15.918,15.918,0,0,0,15.9-15.9V30.033a1.77,1.77,0,0,0-.386-1.1L68.451,13.395A7.049,7.049,0,0,0,65.366,0H15.9a7.047,7.047,0,0,0-1.929,13.831L.454,28.848A1.769,1.769,0,0,0,0,30.033ZM12.367,7.067A3.533,3.533,0,0,1,15.9,3.533H65.366a3.533,3.533,0,0,1,0,7.067H15.9A3.533,3.533,0,0,1,12.367,7.067Zm26.5,7.067h7.067v3.533a3.533,3.533,0,1,1-7.067,0Zm10.6,3.533V14.133h7.067v10.6a3.533,3.533,0,1,1-7.067,0ZM3.533,30.711,18.452,14.133H35.333v3.533A7.067,7.067,0,0,0,42.4,24.733a6.993,6.993,0,0,0,3.533-.983v.983a7.067,7.067,0,1,0,14.133,0v-10.6h4.452l13.215,16.52V90.1a12.381,12.381,0,0,1-12.367,12.367H15.9A12.381,12.381,0,0,1,3.533,90.1Zm0,0" transform="translate(0)" fill="#12263f"/>
        <path id="Trazado_156135" data-name="Trazado 156135" d="M63.067,223.986H93a15.059,15.059,0,0,0,15.068-15.017V169.22a1.767,1.767,0,0,0-1.767-1.767H101a14.115,14.115,0,0,1-7.043-1.06,19.349,19.349,0,0,0-16.787,1.29,14.085,14.085,0,0,1-6.8,2.132,14.055,14.055,0,0,1-7.038-1.06,17.686,17.686,0,0,0-8.468-1.3h-5.1A1.767,1.767,0,0,0,48,169.22v39.75A15.059,15.059,0,0,0,63.067,223.986Zm-11.534-53h3.532a14.027,14.027,0,0,1,7.038,1.06,17.674,17.674,0,0,0,8.537,1.279,17.692,17.692,0,0,0,8.245-2.569,15.85,15.85,0,0,1,13.842-1.072,17.412,17.412,0,0,0,8.408,1.3h3.4V208.97A11.522,11.522,0,0,1,93,220.453H63.067A11.522,11.522,0,0,1,51.533,208.97Zm0,0" transform="translate(-37.4 -128.587)" fill="#12263f"/>
        <path id="Trazado_156136" data-name="Trazado 156136" d="M160.786,340.069l5.3,3.533a1.768,1.768,0,0,0,1.962,0l4.319-2.883,4.319,2.879a1.768,1.768,0,0,0,1.962,0l5.3-3.533a1.767,1.767,0,0,0,.786-1.466v-5.3a1.767,1.767,0,0,0-.786-1.47l-5.3-3.533a1.768,1.768,0,0,0-1.962,0l-4.319,2.883-4.319-2.879a1.768,1.768,0,0,0-1.962,0l-5.3,3.533A1.767,1.767,0,0,0,160,333.3v5.3A1.767,1.767,0,0,0,160.786,340.069Zm16.881-8.183,3.533,2.355v3.409l-3.533,2.362-3.533-2.355v-3.409Zm-14.133,2.355,3.533-2.355,3.533,2.355v3.409l-3.533,2.362-3.533-2.355Zm0,0" transform="translate(-124.667 -255.566)" fill="#12263f"/>
      </g>
    </g>
  </g>
</svg>
