<svg xmlns="http://www.w3.org/2000/svg" xmlns:xlink="http://www.w3.org/1999/xlink" width="400" height="421" viewBox="0 0 400 421">
  <defs>
    <filter id="Trazado_876792" x="31" y="346" width="338" height="60" filterUnits="userSpaceOnUse">
      <feOffset dy="3" input="SourceAlpha"/>
      <feGaussianBlur stdDeviation="3" result="blur"/>
      <feFlood flood-opacity="0.161"/>
      <feComposite operator="in" in2="blur"/>
      <feComposite in="SourceGraphic"/>
    </filter>
  </defs>
  <g id="Grupo_1100056" data-name="Grupo 1100056" transform="translate(-180 -7458.185)">
    <path id="_7056" data-name="7056" d="M22,0H378a22,22,0,0,1,22,22V399a22,22,0,0,1-22,22H22A22,22,0,0,1,0,399V22A22,22,0,0,1,22,0Z" transform="translate(180 7458.185)" fill="#53bced"/>
    <path id="Trazado_876791" data-name="Trazado 876791" d="M64.35,0C99.889,0,128.7,16.215,128.7,36.218S99.889,72.435,64.35,72.435,0,56.22,0,36.218,28.81,0,64.35,0Z" transform="translate(383.134 7719.052)" fill="#401888" opacity="0.23" style="mix-blend-mode: multiply;isolation: isolate"/>
    <path id="Trazado_154107" data-name="Trazado 154107" d="M412.265,335.6l113.626,67.208,95.768-56.433-113.5-67.26Z" transform="translate(-164.266 7455.06)" fill="#401888" opacity="0.23" style="mix-blend-mode: multiply;isolation: isolate"/>
    <g id="Grupo_80907" data-name="Grupo 80907" transform="translate(269.785 7480.185)">
      <g id="Grupo_80891" data-name="Grupo 80891" transform="translate(121.769)">
        <path id="Trazado_154108" data-name="Trazado 154108" d="M449,289.639c-4.191,4.087-5.492,5.263-9.383,9.062-2.275,2.215-.4,4.256,3.929,4.088,3.81-.147,12.431-2,17.253-3.734a87.47,87.47,0,0,0,12.921-6.733,8.561,8.561,0,0,0,3.832-4.849v-6.82l-20.628.876S453.532,285.219,449,289.639Z" transform="translate(-438.641 -18.306)" fill="#512e2b"/>
        <path id="Trazado_154109" data-name="Trazado 154109" d="M466.785,282.935a56.536,56.536,0,0,1-6.7,7.587,73.744,73.744,0,0,0-9.144,10.586c-.849,1.116-1.339,4.3,2.993,4.131,3.8-.147,9.606-1.769,14.434-3.489,5.514-1.959,10.161-7.511,13.372-9.541s4.621-6.515,4.621-6.515l-2.215-6.722Z" transform="translate(-386.522 -25.77)" fill="#512e2b"/>
        <path id="Trazado_154110" data-name="Trazado 154110" d="M511.449,344.67c-.963-19.73-6.515-40.161-5.775-51.656,1.6-25.025-12.192-38.175-12.192-38.175,1.094-8.436-38.022,3.364-38.022,3.364s-8.376,45.337-11.914,69.209c-4.022,27.132-1.584,82.391-1.584,82.391s.506,5.9,10.613,5.856c7.756-.027,13.471-6.82,13.471-6.82l.805-62.884,8.981-44.6s8.648,36.243,11.391,49.251c2.917,13.835,14.1,54.775,14.1,54.775s7.239,8.311,16.225,3.821,7.217-9.508,7.217-9.508S523,370.659,511.449,344.67Z" transform="translate(-427.137 -146.492)" fill="#3d6ec4"/>
        <path id="Trazado_154111" data-name="Trazado 154111" d="M463.332,240.906s-5.6-.278-11.37,10.575-11.3,22.4-11.3,22.4,8.409,1.2,17.552,9.623C470.729,272.2,472.776,246.19,463.332,240.906Z" transform="translate(-429.654 -194.893)" fill="#f6634d"/>
        <path id="Trazado_154112" data-name="Trazado 154112" d="M483.415,240.3s-19.969-1.018-32,3.717c0,0-3.151,6.03-6.036,17.1s-1.856,62.531-1.856,62.531,11.931,8.436,31.894,6.782c11.87-.98,17.928-8.333,17.928-8.333s7.1-50.4,6.134-57.616S483.415,240.3,483.415,240.3Z" transform="translate(-417.739 -198.002)" fill="#ff725d"/>
        <path id="Trazado_154113" data-name="Trazado 154113" d="M476.328,241.787c-2.912.435-5.78,1.235-11.974,4.452s-12.981,11-15.686,15.778c-5.448,9.623.7,12.208,4.692,6.656,0,0,8.7-13.09,15.582-16.758s11.571-4.354,11.571-4.354S478.01,242.386,476.328,241.787Z" transform="translate(-403.647 -190.974)" fill="#3d6ec4"/>
        <path id="Trazado_154114" data-name="Trazado 154114" d="M444.189,262.231c-.68,6.5.615,8.5,3.228,8.724s2.76-4.4,3.532-9.579c.729-4.882,5.508-20.932,5.508-20.932l-5.911,1.774S444.87,255.732,444.189,262.231Z" transform="translate(-414.788 -196.941)" fill="#3d6ec4"/>
        <path id="Trazado_154115" data-name="Trazado 154115" d="M483.355,302.238c-5.513-.6-13.449-5.965-13.024-23.4s2.036-25.466,2.036-25.466L451.3,244.143s-5.726,13.242-6.858,39.22-1.605,34.931-1.605,34.931,22.484,1.377,35.785,0,19.191-5.143,19.191-5.143l-1.442-14.205S489.641,302.924,483.355,302.238Z" transform="translate(-419.987 -180.507)" fill="#3d6ec4"/>
        <path id="Trazado_154116" data-name="Trazado 154116" d="M449.232,248.911l-2.319,13.52s6.885,7.723,13.623,1.949,7.7-8.431,7.7-8.431l-3.32-18.429Z" transform="translate(-401.892 -209.936)" fill="#ffad97"/>
        <path id="Trazado_154117" data-name="Trazado 154117" d="M469.929,236.264c-5.753-4.381-19.381-5.791-24.356,8.289-5.214,14.766,8.148,33.211,15.267,30.076,3.989-1.753,12.371-7.984,14.733-15.762C478.234,250.121,474.4,239.666,469.929,236.264Z" transform="translate(-413.08 -228.971)" fill="#ffd7cc"/>
        <path id="Trazado_154118" data-name="Trazado 154118" d="M461.9,232.511c-10.352.963-16.377,7.81-17.656,13.732a7.27,7.27,0,0,0,1.633,6.482c2.373,2.417,5.829,5.105,12.97,3.93a28.772,28.772,0,0,0,10.025-3.69l1.2,7.821a6.772,6.772,0,0,0,2.052-.751c.12-3.1,1.225-4.06,2.928-3.14,1.921,1.045,2,5.454,2,5.454a16.021,16.021,0,0,0,3.854-14.434C479.679,242.411,472.255,231.548,461.9,232.511Z" transform="translate(-414.558 -232.451)" fill="#512e2b"/>
        <path id="Trazado_154119" data-name="Trazado 154119" d="M445.665,244.665c-.735,0-1.334.866-1.334,1.932s.6,1.937,1.334,1.937S447,247.669,447,246.6,446.4,244.665,445.665,244.665Z" transform="translate(-413.362 -178.188)" fill="#fff"/>
        <path id="Trazado_154120" data-name="Trazado 154120" d="M447.531,246.9c-.621.871-.643,1.921-.044,2.351s1.589.076,2.21-.795.648-1.921.049-2.351S448.157,246.034,447.531,246.9Z" transform="translate(-401.274 -172.601)" fill="#fff"/>
        <path id="Trazado_154121" data-name="Trazado 154121" d="M451.661,266.7c7.048,1.872,8.871-6.433,10.494-12.855a70.644,70.644,0,0,1-17.835-7.282C443.459,250.927,443.895,264.642,451.661,266.7Z" transform="translate(-414.815 -169.738)" fill="#4b87dd"/>
      </g>
      <g id="Grupo_80900" data-name="Grupo 80900" transform="translate(0 112.294)">
        <g id="Grupo_80893" data-name="Grupo 80893" transform="translate(92.335 224.352)">
          <path id="Trazado_154122" data-name="Trazado 154122" d="M444.646,294.308l-11.413,6.5a60.017,60.017,0,0,0,2.351,7.114,3.842,3.842,0,0,0,6.406,1.377c2.03-2.1,2.161-4.6,2.471-9.388C444.853,293.949,444.646,294.308,444.646,294.308Z" transform="translate(-433.233 -294.304)" fill="#99918c"/>
          <g id="Grupo_80892" data-name="Grupo 80892" transform="translate(1.201 8.773)">
            <path id="Trazado_154123" data-name="Trazado 154123" d="M438.947,296.291a8.219,8.219,0,0,0-5.426,8.491c.512,3.472,3.772,5.306,7.277,4.093a8.208,8.208,0,0,0,5.421-8.49C445.706,296.911,442.452,295.077,438.947,296.291Z" transform="translate(-433.454 -295.916)" fill="#724941"/>
            <path id="Trazado_154124" data-name="Trazado 154124" d="M433.891,308.043l3.03,1.744,7.534-12.074-3.272-1.7Z" transform="translate(-431.512 -295.496)" fill="#724941"/>
            <path id="Trazado_154125" data-name="Trazado 154125" d="M439.453,296.584a8.217,8.217,0,0,0-5.421,8.491c.512,3.478,3.766,5.312,7.271,4.1a8.211,8.211,0,0,0,5.421-8.49C446.219,297.2,442.959,295.37,439.453,296.584Z" transform="translate(-431.185 -294.615)" fill="#512e2b"/>
          </g>
          <path id="Trazado_154126" data-name="Trazado 154126" d="M433.965,301.87a91.39,91.39,0,0,0,2.716,10.1c1.23,3.151,3.865,2.868,5.356,1.219,1.85-2.047,2.139-6.422,2.422-11.087a42.344,42.344,0,0,0,.044-7.729Z" transform="translate(-429.981 -294.012)" fill="#99918c"/>
          <path id="Trazado_154127" data-name="Trazado 154127" d="M435.939,297.393a1.582,1.582,0,0,0-1.039,1.627,1,1,0,0,0,1.4.784,1.582,1.582,0,0,0,1.04-1.627A1,1,0,0,0,435.939,297.393Z" transform="translate(-425.881 -280.903)" fill="#fff"/>
        </g>
        <g id="Grupo_80895" data-name="Grupo 80895" transform="translate(10.102 177.104)">
          <path id="Trazado_154128" data-name="Trazado 154128" d="M429.537,285.627l-11.413,6.5a60.037,60.037,0,0,0,2.351,7.114,3.838,3.838,0,0,0,6.4,1.377c2.035-2.1,2.161-4.6,2.476-9.383C429.739,285.268,429.537,285.627,429.537,285.627Z" transform="translate(-418.124 -285.623)" fill="#99918c"/>
          <g id="Grupo_80894" data-name="Grupo 80894" transform="translate(1.2 8.773)">
            <path id="Trazado_154129" data-name="Trazado 154129" d="M423.839,287.61a8.211,8.211,0,0,0-5.426,8.491c.512,3.472,3.766,5.306,7.271,4.093a8.212,8.212,0,0,0,5.426-8.49C430.6,288.23,427.344,286.4,423.839,287.61Z" transform="translate(-418.345 -287.235)" fill="#724941"/>
            <path id="Trazado_154130" data-name="Trazado 154130" d="M418.782,299.362l3.029,1.744,7.534-12.074-3.271-1.7Z" transform="translate(-416.402 -286.815)" fill="#724941"/>
            <path id="Trazado_154131" data-name="Trazado 154131" d="M424.345,287.9a8.212,8.212,0,0,0-5.421,8.491c.512,3.478,3.766,5.312,7.271,4.093A8.206,8.206,0,0,0,431.616,292C431.1,288.521,427.849,286.693,424.345,287.9Z" transform="translate(-416.074 -285.932)" fill="#512e2b"/>
          </g>
          <path id="Trazado_154132" data-name="Trazado 154132" d="M418.855,293.189a92.96,92.96,0,0,0,2.716,10.1c1.235,3.146,3.87,2.863,5.356,1.214,1.856-2.046,2.139-6.422,2.427-11.087a42.35,42.35,0,0,0,.044-7.729Z" transform="translate(-414.876 -285.331)" fill="#99918c"/>
          <path id="Trazado_154133" data-name="Trazado 154133" d="M420.831,288.712a1.575,1.575,0,0,0-1.04,1.627,1,1,0,0,0,1.393.784,1.569,1.569,0,0,0,1.04-1.628A1,1,0,0,0,420.831,288.712Z" transform="translate(-410.773 -272.222)" fill="#fff"/>
        </g>
        <g id="Grupo_80897" data-name="Grupo 80897" transform="translate(139.284 197.236)">
          <path id="Trazado_154134" data-name="Trazado 154134" d="M453.272,289.326l-11.413,6.5a60.027,60.027,0,0,0,2.351,7.114,3.836,3.836,0,0,0,6.4,1.377c2.036-2.1,2.161-4.6,2.476-9.383C453.474,288.967,453.272,289.326,453.272,289.326Z" transform="translate(-441.859 -289.322)" fill="#99918c"/>
          <g id="Grupo_80896" data-name="Grupo 80896" transform="translate(1.2 8.773)">
            <path id="Trazado_154135" data-name="Trazado 154135" d="M447.569,291.309a8.212,8.212,0,0,0-5.421,8.491c.512,3.478,3.766,5.307,7.272,4.093a8.219,8.219,0,0,0,5.426-8.491C454.334,291.929,451.074,290.1,447.569,291.309Z" transform="translate(-442.08 -290.934)" fill="#724941"/>
            <path id="Trazado_154136" data-name="Trazado 154136" d="M442.517,303.061l3.029,1.744,7.534-12.074-3.271-1.7Z" transform="translate(-440.138 -290.513)" fill="#724941"/>
            <path id="Trazado_154137" data-name="Trazado 154137" d="M448.08,291.6a8.208,8.208,0,0,0-5.421,8.491c.512,3.472,3.766,5.307,7.271,4.093a8.209,8.209,0,0,0,5.421-8.491C454.839,292.223,451.585,290.389,448.08,291.6Z" transform="translate(-439.809 -289.628)" fill="#512e2b"/>
          </g>
          <path id="Trazado_154138" data-name="Trazado 154138" d="M442.59,296.883a91.713,91.713,0,0,0,2.716,10.1c1.236,3.146,3.865,2.863,5.356,1.214,1.851-2.046,2.139-6.422,2.422-11.087a42.065,42.065,0,0,0,.049-7.723Z" transform="translate(-438.612 -289.026)" fill="#99918c"/>
          <path id="Trazado_154139" data-name="Trazado 154139" d="M444.566,292.411a1.58,1.58,0,0,0-1.04,1.627,1,1,0,0,0,1.393.784,1.566,1.566,0,0,0,1.039-1.627A1,1,0,0,0,444.566,292.411Z" transform="translate(-434.508 -275.921)" fill="#fff"/>
        </g>
        <g id="Grupo_80898" data-name="Grupo 80898" transform="translate(84.103 7.86)">
          <path id="Trazado_154140" data-name="Trazado 154140" d="M431.721,296.8V403.321l5.347-2.546V299.635L451.649,256.8l-4.761-2.277Z" transform="translate(-431.721 -254.527)" fill="#99918c"/>
          <path id="Trazado_154141" data-name="Trazado 154141" d="M441.876,304.575V411.1l5.347-2.547V307.413l15.484-45.478-4.912-1.723Z" transform="translate(-386.605 -229.272)" fill="#99918c"/>
        </g>
        <g id="Grupo_80899" data-name="Grupo 80899" transform="translate(0 138.847)">
          <path id="Trazado_154142" data-name="Trazado 154142" d="M416.268,320.755l87.265,50.429,72.94-42.16-87.257-50.43Z" transform="translate(-416.268 -278.594)" fill="#fff"/>
          <path id="Trazado_154143" data-name="Trazado 154143" d="M432.3,336.328l72.94-42.135V287.86L432.3,330.02Z" transform="translate(-345.036 -237.43)" fill="#89807c"/>
          <path id="Trazado_154144" data-name="Trazado 154144" d="M416.268,292.652l87.265,50.425v-6.308l-87.265-50.429Z" transform="translate(-416.268 -244.179)" fill="#99918c"/>
        </g>
        <path id="Trazado_154145" data-name="Trazado 154145" d="M432.3,276.3l54.218,31.257V301.5L432.3,270.242Z" transform="translate(-345.036 -176.853)" fill="#99918c"/>
        <path id="Trazado_154146" data-name="Trazado 154146" d="M432.3,273.223l54.218,31.255v-6.057L432.3,267.165Z" transform="translate(-345.036 -190.523)" fill="#99918c"/>
        <path id="Trazado_154147" data-name="Trazado 154147" d="M510.492,295.8l-60.8-35.1-.016-.005-12.562-7.255a2.7,2.7,0,0,0-2.694,4.67l60.8,35.1.016.006,12.562,7.255a2.7,2.7,0,0,0,2.694-4.67Z" transform="translate(-341.595 -253.083)" fill="#89807c"/>
      </g>
      <path id="Trazado_154148" data-name="Trazado 154148" d="M485.694,249.711s-8.175,17.188-11.56,21.978-16.867,17.335-19.691,18.929a19.251,19.251,0,0,1-7.141,1.807c-2.433.022-4.964-.789-6.694-.517-.446,2.319,5.66,4.044,5.66,4.044s-3,2.5-3.326,5.5c-.2,1.91,3.75,5.121,8.224,7.527,3.129,1.687,8.289-1.91,9.813-4.43,1.775-2.923.909-4.463,3.641-6.994,5.421-5.029,16.627-12.213,19.371-15.756,3.859-5,16.856-22.952,16.856-22.952S496.356,247.452,485.694,249.711Z" transform="translate(-308.241 -157.088)" fill="#ffd7cc"/>
      <path id="Trazado_154149" data-name="Trazado 154149" d="M459.692,254.83c-2.3,4.115-13.422,26.435-15.256,28.96s-3.472,2.8-6.705,7.119-1.508,7.048.577,9.144,4.539,3.478,6.079,3.521a5.766,5.766,0,0,0,5.111-2.8s-2.014-.914-.18-3.211a3.985,3.985,0,0,1,3.347-1.187,52.911,52.911,0,0,1-.479-5.693c-.016-4.61,5.094-10.1,7.62-14s8.245-11.631,10.668-15.718c1.535-2.591,4.708-8.262,4.708-8.262s-4.594-4.708-10.782-5.611C464.4,247.091,461.983,250.716,459.692,254.83Z" transform="translate(-328.888 -167.41)" fill="#ffd7cc"/>
      <path id="Trazado_154150" data-name="Trazado 154150" d="M456.935,259.389c-4.811,7.217-8.67,18.021-8.67,18.021s5.8,4.212,10.989,7.484a84.012,84.012,0,0,0,8.948,4.822s21.384-33.984,6.852-45.691C470.814,240.612,461.746,252.167,456.935,259.389Z" transform="translate(-274.116 -183.769)" fill="#f6634d"/>
      <g id="Grupo_80902" data-name="Grupo 80902" transform="translate(24.272 227.297)">
        <path id="Trazado_154151" data-name="Trazado 154151" d="M430.951,350.5l55.52-32.186v-38.2l-55.539,32.107Z" transform="translate(-375.392 -248.009)" fill="#e8b679"/>
        <path id="Trazado_154152" data-name="Trazado 154152" d="M420.728,280.112v38.2L476.286,350.5l-.019-38.284Z" transform="translate(-420.728 -248.009)" fill="#dba763"/>
        <path id="Trazado_154153" data-name="Trazado 154153" d="M420.728,306.313l55.54,32.107,55.539-32.107-55.52-32.1Z" transform="translate(-420.728 -274.213)" fill="#ffe1c0"/>
        <g id="Grupo_80901" data-name="Grupo 80901" transform="translate(2.275 11.896)">
          <path id="Trazado_154154" data-name="Trazado 154154" d="M435.067,309.771l12.385-7.19V282.29l-12.385,7.2Z" transform="translate(-359.296 -250.225)" fill="#512e2b"/>
          <path id="Trazado_154155" data-name="Trazado 154155" d="M424.872,283.571l55.487,32.114,12.385-7.22L437.284,276.4Z" transform="translate(-404.588 -276.399)" fill="#724941"/>
          <path id="Trazado_154156" data-name="Trazado 154156" d="M432.284,302.96,450.929,292.2v-3.624l-18.645,10.813Z" transform="translate(-371.661 -222.31)" fill="#512e2b"/>
          <path id="Trazado_154157" data-name="Trazado 154157" d="M432.284,301.786l18.645-10.762V287.4l-18.645,10.813Z" transform="translate(-371.661 -227.526)" fill="#512e2b"/>
          <path id="Trazado_154158" data-name="Trazado 154158" d="M438.785,301.877l8.917-5.164v-12.4l-8.917,5.167Z" transform="translate(-342.778 -241.246)" fill="#512e2b"/>
          <path id="Trazado_154159" data-name="Trazado 154159" d="M421.145,297.377l8.917,5.153V289.61l-8.917-5.151Z" transform="translate(-421.145 -240.593)" fill="#512e2b"/>
          <path id="Trazado_154160" data-name="Trazado 154160" d="M423.381,298.673l8.916,5.153v-12.92l-8.916-5.151Z" transform="translate(-411.213 -234.833)" fill="#512e2b"/>
          <path id="Trazado_154161" data-name="Trazado 154161" d="M427.122,302.941l18.327,10.59V294.964l-18.327-10.612Z" transform="translate(-394.595 -241.065)" fill="#fff"/>
          <path id="Trazado_154162" data-name="Trazado 154162" d="M427.427,287.889l14.418,8.363V293.23l-14.418-8.313Z" transform="translate(-393.238 -238.557)" fill="#512e2b"/>
        </g>
      </g>
      <g id="Grupo_80904" data-name="Grupo 80904" transform="translate(35.192 175.061)">
        <path id="Trazado_154163" data-name="Trazado 154163" d="M431.124,352.839l45.558-26.411V269.455L431.107,295.8Z" transform="translate(-385.533 -243.115)" fill="#e8b679"/>
        <path id="Trazado_154164" data-name="Trazado 154164" d="M422.734,269.455v56.973l45.59,26.411-.016-57.037Z" transform="translate(-422.734 -243.115)" fill="#dba763"/>
        <path id="Trazado_154165" data-name="Trazado 154165" d="M422.734,290.955,468.308,317.3l45.574-26.346-45.558-26.34Z" transform="translate(-422.734 -264.616)" fill="#ffe1c0"/>
        <g id="Grupo_80903" data-name="Grupo 80903" transform="translate(2.71 9.762)">
          <path id="Trazado_154166" data-name="Trazado 154166" d="M434.5,293.794l10.163-5.9V271.243L434.5,277.149Z" transform="translate(-373.168 -244.933)" fill="#512e2b"/>
          <path id="Trazado_154167" data-name="Trazado 154167" d="M426.135,272.294l45.532,26.351,10.163-5.925-45.51-26.311Z" transform="translate(-410.334 -266.409)" fill="#724941"/>
          <path id="Trazado_154168" data-name="Trazado 154168" d="M432.217,292.912l15.3-8.831v-2.974l-15.3,8.873Z" transform="translate(-383.315 -201.112)" fill="#512e2b"/>
          <path id="Trazado_154169" data-name="Trazado 154169" d="M432.217,291.949l15.3-8.831v-2.974l-15.3,8.873Z" transform="translate(-383.315 -205.392)" fill="#512e2b"/>
          <path id="Trazado_154170" data-name="Trazado 154170" d="M437.552,292.023l7.318-4.238V277.61l-7.318,4.24Z" transform="translate(-359.614 -216.65)" fill="#512e2b"/>
          <path id="Trazado_154171" data-name="Trazado 154171" d="M423.232,288.017l7.316,4.228v-10.6l-7.316-4.227Z" transform="translate(-423.232 -217.509)" fill="#512e2b"/>
          <path id="Trazado_154172" data-name="Trazado 154172" d="M425.066,289.08l7.317,4.229v-10.6l-7.317-4.227Z" transform="translate(-415.082 -212.782)" fill="#512e2b"/>
          <path id="Trazado_154173" data-name="Trazado 154173" d="M423.232,286.153l15.038,8.69V279.608L423.232,270.9Z" transform="translate(-423.232 -246.46)" fill="#fff"/>
          <path id="Trazado_154174" data-name="Trazado 154174" d="M423.482,273.8l11.832,6.863v-2.48l-11.832-6.822Z" transform="translate(-422.118 -244.402)" fill="#512e2b"/>
        </g>
      </g>
      <g id="Grupo_80906" data-name="Grupo 80906" transform="translate(42.866 158.297)">
        <path id="Trazado_154175" data-name="Trazado 154175" d="M431.469,306.734l34.076-19.694V265.762l-34.088,19.706Z" transform="translate(-391.654 -242.76)" fill="#e8b679"/>
        <path id="Trazado_154176" data-name="Trazado 154176" d="M424.144,265.155v21.267l39.815,23.008-.012-21.267Z" transform="translate(-424.144 -245.455)" fill="#dba763"/>
        <path id="Trazado_154177" data-name="Trazado 154177" d="M424.144,281.235l39.8,23.008,34.088-19.706-39.779-23Z" transform="translate(-424.144 -261.535)" fill="#ffe1c0"/>
        <g id="Grupo_80905" data-name="Grupo 80905" transform="translate(1.703 24.389)">
          <path id="Trazado_154178" data-name="Trazado 154178" d="M431.926,279.782l11.444-6.605v-2.225l-11.444,6.637Z" transform="translate(-391.273 -244.088)" fill="#512e2b"/>
          <path id="Trazado_154179" data-name="Trazado 154179" d="M431.926,279.061l11.444-6.6v-2.225l-11.444,6.637Z" transform="translate(-391.273 -247.289)" fill="#512e2b"/>
          <path id="Trazado_154180" data-name="Trazado 154180" d="M424.457,275.907l6.827,3.945V269.96l-6.827-3.944Z" transform="translate(-424.457 -266.016)" fill="#512e2b"/>
        </g>
        <path id="Trazado_154181" data-name="Trazado 154181" d="M427.766,279.764l17.42,10.067V278.024l-17.42-10.087Z" transform="translate(-408.053 -233.099)" fill="#fff"/>
        <path id="Trazado_154182" data-name="Trazado 154182" d="M428.057,271.3l13.705,7.95v-2.873l-13.705-7.9Z" transform="translate(-406.762 -230.715)" fill="#512e2b"/>
        <path id="Trazado_154183" data-name="Trazado 154183" d="M433.974,284.71l11.773-6.834V266.669l-11.773,6.84Z" transform="translate(-380.471 -238.728)" fill="#512e2b"/>
        <path id="Trazado_154184" data-name="Trazado 154184" d="M426.665,269.263l39.78,23.03,11.773-6.864-39.748-22.983Z" transform="translate(-412.942 -257.489)" fill="#724941"/>
      </g>
    </g>
    <g transform="matrix(1, 0, 0, 1, 180, 7458.18)" filter="url(#Trazado_876792)">
      <path id="Trazado_876792-2" data-name="Trazado 876792" d="M21,0H299a21,21,0,0,1,0,42H21A21,21,0,0,1,21,0Z" transform="translate(40 352)" fill="#ff725d"/>
    </g>
    <path id="Trazado_876793" data-name="Trazado 876793" d="M-97.2,0H-100V-7.541q0-1.222.105-2.7h-.07a13.277,13.277,0,0,1-.4,1.67L-103.315,0h-2.32l-3.006-8.481a16.5,16.5,0,0,1-.4-1.758h-.079Q-109-8.376-109-6.97V0h-2.558V-12.6h4.157l2.575,7.471a10.519,10.519,0,0,1,.448,1.8h.053a18.143,18.143,0,0,1,.5-1.819l2.575-7.453H-97.2Zm10.081,0h-2.628V-1.292h-.035A2.933,2.933,0,0,1-92.461.22a2.8,2.8,0,0,1-2.061-.743A2.661,2.661,0,0,1-95.273-2.5q0-2.619,3.1-3.023l2.443-.325q0-1.477-1.6-1.477a5.46,5.46,0,0,0-3.059.958V-8.464A6.881,6.881,0,0,1-92.8-8.991a8.339,8.339,0,0,1,1.833-.229q3.85,0,3.85,3.841Zm-2.61-3.656v-.606l-1.635.211q-1.354.176-1.354,1.222a1.01,1.01,0,0,0,.33.778,1.266,1.266,0,0,0,.892.3A1.644,1.644,0,0,0-90.22-2.29,1.952,1.952,0,0,0-89.728-3.656ZM-79.479-.105A4.105,4.105,0,0,1-81.334.22q-2.936,0-2.936-3.05V-6.952h-1.459V-9h1.459v-1.942l2.769-.791V-9h2.021v2.048H-81.5v3.639q0,1.406,1.116,1.406a1.882,1.882,0,0,0,.905-.255Zm9.58-3.6h-5.871q.141,1.96,2.47,1.96a4.822,4.822,0,0,0,2.61-.7v2A6.858,6.858,0,0,1-73.934.22,4.565,4.565,0,0,1-77.317-.989a4.566,4.566,0,0,1-1.2-3.371,4.816,4.816,0,0,1,1.3-3.551,4.334,4.334,0,0,1,3.2-1.31,3.933,3.933,0,0,1,3.045,1.169A4.5,4.5,0,0,1-69.9-4.878Zm-2.575-1.705q0-1.934-1.564-1.934a1.494,1.494,0,0,0-1.156.554,2.513,2.513,0,0,0-.593,1.38Zm10.1-1.081a2.409,2.409,0,0,0-1.169-.272A1.684,1.684,0,0,0-64.96-6.1,2.9,2.9,0,0,0-65.47-4.3V0h-2.777V-9h2.777v1.67h.035a2.4,2.4,0,0,1,2.373-1.828,1.788,1.788,0,0,1,.686.105Zm2.769-3.929a1.622,1.622,0,0,1-1.151-.417,1.345,1.345,0,0,1-.448-1.024,1.3,1.3,0,0,1,.448-1.02,1.676,1.676,0,0,1,1.151-.4,1.672,1.672,0,0,1,1.156.4,1.3,1.3,0,0,1,.444,1.02,1.34,1.34,0,0,1-.444,1.037A1.65,1.65,0,0,1-59.607-10.424ZM-58.236,0h-2.777V-9h2.777Zm9.826,0h-2.628V-1.292h-.035A2.933,2.933,0,0,1-53.754.22a2.8,2.8,0,0,1-2.061-.743A2.661,2.661,0,0,1-56.566-2.5q0-2.619,3.1-3.023l2.443-.325q0-1.477-1.6-1.477a5.46,5.46,0,0,0-3.059.958V-8.464a6.881,6.881,0,0,1,1.586-.527A8.339,8.339,0,0,1-52.26-9.22q3.85,0,3.85,3.841Zm-2.61-3.656v-.606l-1.635.211q-1.354.176-1.354,1.222a1.01,1.01,0,0,0,.33.778,1.266,1.266,0,0,0,.892.3,1.644,1.644,0,0,0,1.274-.541A1.952,1.952,0,0,0-51.021-3.656ZM-46.8-.237v-2.25a5.913,5.913,0,0,0,1.367.615,4.531,4.531,0,0,0,1.288.2,2.762,2.762,0,0,0,1.165-.2.653.653,0,0,0,.426-.615.569.569,0,0,0-.193-.439,1.8,1.8,0,0,0-.5-.308,5.635,5.635,0,0,0-.664-.237q-.36-.105-.694-.237a6.653,6.653,0,0,1-.945-.435,2.731,2.731,0,0,1-.686-.541,2.125,2.125,0,0,1-.422-.712,2.841,2.841,0,0,1-.145-.958,2.466,2.466,0,0,1,.33-1.3,2.692,2.692,0,0,1,.879-.892,4.016,4.016,0,0,1,1.257-.51,6.553,6.553,0,0,1,1.472-.163,8.168,8.168,0,0,1,1.213.092,9.053,9.053,0,0,1,1.213.268v2.145a4.383,4.383,0,0,0-1.129-.461A4.764,4.764,0,0,0-42.75-7.33a2.619,2.619,0,0,0-.514.048,1.693,1.693,0,0,0-.426.141.783.783,0,0,0-.29.237.546.546,0,0,0-.105.33.609.609,0,0,0,.158.422,1.374,1.374,0,0,0,.413.3,4.078,4.078,0,0,0,.567.229q.312.1.62.207a8.056,8.056,0,0,1,1,.422,3.2,3.2,0,0,1,.769.536,2.105,2.105,0,0,1,.492.721,2.562,2.562,0,0,1,.171.984,2.568,2.568,0,0,1-.347,1.367,2.78,2.78,0,0,1-.923.923,4.185,4.185,0,0,1-1.327.519,7.357,7.357,0,0,1-1.56.163A8.042,8.042,0,0,1-46.8-.237Zm16.286-.809h-.035V4.14h-2.777V-9h2.777v1.354h.035A3.265,3.265,0,0,1-27.624-9.22a3.253,3.253,0,0,1,2.7,1.2,5.108,5.108,0,0,1,.954,3.265A5.537,5.537,0,0,1-25.08-1.143,3.625,3.625,0,0,1-28.037.22,2.8,2.8,0,0,1-30.516-1.046Zm-.079-3.691v.721A2.291,2.291,0,0,0-30.1-2.5a1.6,1.6,0,0,0,1.292.589,1.7,1.7,0,0,0,1.472-.734,3.543,3.543,0,0,0,.523-2.079q0-2.373-1.846-2.373a1.733,1.733,0,0,0-1.393.646A2.576,2.576,0,0,0-30.595-4.737Zm14.3-1.758a2.409,2.409,0,0,0-1.169-.272,1.684,1.684,0,0,0-1.415.664,2.9,2.9,0,0,0-.51,1.806V0h-2.777V-9h2.777v1.67h.035A2.4,2.4,0,0,1-16.98-9.158a1.788,1.788,0,0,1,.686.105Zm2.769-3.929a1.622,1.622,0,0,1-1.151-.417,1.345,1.345,0,0,1-.448-1.024,1.3,1.3,0,0,1,.448-1.02,1.676,1.676,0,0,1,1.151-.4,1.672,1.672,0,0,1,1.156.4,1.3,1.3,0,0,1,.444,1.02,1.34,1.34,0,0,1-.444,1.037A1.65,1.65,0,0,1-13.526-10.424ZM-12.155,0h-2.777V-9h2.777ZM4.474,0H1.705V-5.133q0-1.96-1.441-1.96A1.324,1.324,0,0,0-.853-6.5a2.42,2.42,0,0,0-.431,1.468V0H-4.061V-5.186q0-1.907-1.415-1.907a1.356,1.356,0,0,0-1.138.563A2.475,2.475,0,0,0-7.04-5V0H-9.817V-9H-7.04v1.406H-7A3.321,3.321,0,0,1-5.8-8.767,3.321,3.321,0,0,1-4.1-9.22a2.592,2.592,0,0,1,2.61,1.679A3.329,3.329,0,0,1,1.538-9.22q2.936,0,2.936,3.621Zm9.686,0H11.531V-1.292H11.5A2.933,2.933,0,0,1,8.815.22,2.8,2.8,0,0,1,6.754-.523,2.661,2.661,0,0,1,6-2.5q0-2.619,3.1-3.023l2.443-.325q0-1.477-1.6-1.477a5.46,5.46,0,0,0-3.059.958V-8.464a6.881,6.881,0,0,1,1.586-.527A8.339,8.339,0,0,1,10.31-9.22q3.85,0,3.85,3.841Zm-2.61-3.656v-.606l-1.635.211Q8.561-3.876,8.561-2.83a1.01,1.01,0,0,0,.33.778,1.266,1.266,0,0,0,.892.3,1.644,1.644,0,0,0,1.274-.541A1.952,1.952,0,0,0,11.549-3.656ZM15.768-.237v-2.25a5.913,5.913,0,0,0,1.367.615,4.531,4.531,0,0,0,1.288.2,2.762,2.762,0,0,0,1.165-.2.653.653,0,0,0,.426-.615.569.569,0,0,0-.193-.439,1.8,1.8,0,0,0-.5-.308,5.635,5.635,0,0,0-.664-.237q-.36-.105-.694-.237a6.653,6.653,0,0,1-.945-.435,2.731,2.731,0,0,1-.686-.541,2.125,2.125,0,0,1-.422-.712,2.841,2.841,0,0,1-.145-.958,2.466,2.466,0,0,1,.33-1.3,2.692,2.692,0,0,1,.879-.892,4.016,4.016,0,0,1,1.257-.51,6.553,6.553,0,0,1,1.472-.163,8.168,8.168,0,0,1,1.213.092,9.053,9.053,0,0,1,1.213.268v2.145A4.383,4.383,0,0,0,21-7.176a4.764,4.764,0,0,0-1.182-.154,2.619,2.619,0,0,0-.514.048,1.693,1.693,0,0,0-.426.141.783.783,0,0,0-.29.237.546.546,0,0,0-.105.33.609.609,0,0,0,.158.422,1.374,1.374,0,0,0,.413.3,4.078,4.078,0,0,0,.567.229q.312.1.62.207a8.056,8.056,0,0,1,1,.422,3.2,3.2,0,0,1,.769.536,2.105,2.105,0,0,1,.492.721,2.562,2.562,0,0,1,.171.984,2.568,2.568,0,0,1-.347,1.367,2.78,2.78,0,0,1-.923.923,4.185,4.185,0,0,1-1.327.519,7.357,7.357,0,0,1-1.56.163A8.042,8.042,0,0,1,15.768-.237Zm21.56-3.472H31.456q.141,1.96,2.47,1.96a4.822,4.822,0,0,0,2.61-.7v2A6.858,6.858,0,0,1,33.293.22,4.565,4.565,0,0,1,29.909-.989a4.566,4.566,0,0,1-1.2-3.371,4.816,4.816,0,0,1,1.3-3.551,4.334,4.334,0,0,1,3.2-1.31A3.933,3.933,0,0,1,36.25-8.051a4.5,4.5,0,0,1,1.077,3.173ZM34.752-5.414q0-1.934-1.564-1.934a1.494,1.494,0,0,0-1.156.554,2.513,2.513,0,0,0-.593,1.38Zm10.6-5.01a1.622,1.622,0,0,1-1.151-.417,1.345,1.345,0,0,1-.448-1.024,1.3,1.3,0,0,1,.448-1.02,1.676,1.676,0,0,1,1.151-.4,1.672,1.672,0,0,1,1.156.4,1.3,1.3,0,0,1,.444,1.02,1.34,1.34,0,0,1-.444,1.037A1.65,1.65,0,0,1,45.352-10.424ZM46.723,0H43.945V-9h2.777Zm11.03,0H54.984V-5q0-2.092-1.494-2.092a1.483,1.483,0,0,0-1.187.554,2.109,2.109,0,0,0-.466,1.406V0H49.061V-9h2.777v1.424h.035A3.183,3.183,0,0,1,54.765-9.22q2.988,0,2.988,3.709Zm1.608-.237v-2.25a5.913,5.913,0,0,0,1.367.615,4.531,4.531,0,0,0,1.288.2,2.762,2.762,0,0,0,1.165-.2.653.653,0,0,0,.426-.615.569.569,0,0,0-.193-.439,1.8,1.8,0,0,0-.5-.308,5.635,5.635,0,0,0-.664-.237q-.36-.105-.694-.237a6.653,6.653,0,0,1-.945-.435,2.731,2.731,0,0,1-.686-.541,2.125,2.125,0,0,1-.422-.712,2.841,2.841,0,0,1-.145-.958,2.466,2.466,0,0,1,.33-1.3,2.692,2.692,0,0,1,.879-.892,4.016,4.016,0,0,1,1.257-.51A6.553,6.553,0,0,1,63.3-9.22a8.168,8.168,0,0,1,1.213.092,9.053,9.053,0,0,1,1.213.268v2.145A4.383,4.383,0,0,0,64.6-7.176a4.764,4.764,0,0,0-1.182-.154,2.619,2.619,0,0,0-.514.048,1.693,1.693,0,0,0-.426.141.783.783,0,0,0-.29.237.546.546,0,0,0-.105.33.609.609,0,0,0,.158.422,1.374,1.374,0,0,0,.413.3,4.078,4.078,0,0,0,.567.229q.312.1.62.207a8.056,8.056,0,0,1,1,.422,3.2,3.2,0,0,1,.769.536,2.105,2.105,0,0,1,.492.721,2.562,2.562,0,0,1,.171.984,2.568,2.568,0,0,1-.347,1.367A2.78,2.78,0,0,1,65-.461a4.185,4.185,0,0,1-1.327.519,7.357,7.357,0,0,1-1.56.163A8.042,8.042,0,0,1,59.361-.237ZM76.421,0H73.652V-1.371h-.044A3.141,3.141,0,0,1,70.857.22q-3.129,0-3.129-3.788V-9H70.5v5.186q0,1.907,1.512,1.907a1.5,1.5,0,0,0,1.2-.523,2.109,2.109,0,0,0,.448-1.419V-9h2.769ZM93.05,0H90.281V-5.133q0-1.96-1.441-1.96a1.324,1.324,0,0,0-1.116.589,2.42,2.42,0,0,0-.431,1.468V0H84.516V-5.186q0-1.907-1.415-1.907a1.356,1.356,0,0,0-1.138.563A2.475,2.475,0,0,0,81.536-5V0H78.759V-9h2.777v1.406h.035A3.321,3.321,0,0,1,82.78-8.767a3.321,3.321,0,0,1,1.7-.453,2.592,2.592,0,0,1,2.61,1.679A3.329,3.329,0,0,1,90.114-9.22q2.936,0,2.936,3.621Zm6.486.22A4.838,4.838,0,0,1,96-1.042a4.573,4.573,0,0,1-1.288-3.423,4.573,4.573,0,0,1,1.336-3.494A5.048,5.048,0,0,1,99.659-9.22a4.78,4.78,0,0,1,3.516,1.261,4.483,4.483,0,0,1,1.274,3.335,4.759,4.759,0,0,1-1.314,3.542A4.892,4.892,0,0,1,99.536.22Zm.07-7.312a1.852,1.852,0,0,0-1.529.677A2.984,2.984,0,0,0,97.532-4.5q0,2.593,2.092,2.593,2,0,2-2.663Q101.619-7.093,99.606-7.093Zm6.056,6.855v-2.25a5.913,5.913,0,0,0,1.367.615,4.531,4.531,0,0,0,1.288.2,2.762,2.762,0,0,0,1.165-.2.653.653,0,0,0,.426-.615.569.569,0,0,0-.193-.439,1.8,1.8,0,0,0-.5-.308,5.635,5.635,0,0,0-.664-.237q-.36-.105-.694-.237a6.653,6.653,0,0,1-.945-.435,2.731,2.731,0,0,1-.686-.541,2.125,2.125,0,0,1-.422-.712,2.841,2.841,0,0,1-.145-.958,2.466,2.466,0,0,1,.33-1.3,2.692,2.692,0,0,1,.879-.892,4.016,4.016,0,0,1,1.257-.51A6.553,6.553,0,0,1,109.6-9.22a8.168,8.168,0,0,1,1.213.092,9.053,9.053,0,0,1,1.213.268v2.145a4.383,4.383,0,0,0-1.129-.461,4.764,4.764,0,0,0-1.182-.154,2.619,2.619,0,0,0-.514.048,1.693,1.693,0,0,0-.426.141.783.783,0,0,0-.29.237.546.546,0,0,0-.105.33.609.609,0,0,0,.158.422,1.374,1.374,0,0,0,.413.3,4.078,4.078,0,0,0,.567.229q.312.1.62.207a8.056,8.056,0,0,1,1,.422,3.2,3.2,0,0,1,.769.536,2.105,2.105,0,0,1,.492.721,2.562,2.562,0,0,1,.171.984,2.568,2.568,0,0,1-.347,1.367,2.78,2.78,0,0,1-.923.923,4.185,4.185,0,0,1-1.327.519,7.357,7.357,0,0,1-1.56.163A8.042,8.042,0,0,1,105.662-.237Z" transform="translate(380 7836.713)" fill="#12263f"/>
  </g>
</svg>
