<svg xmlns="http://www.w3.org/2000/svg" width="50" height="50" viewBox="0 0 50 50">
  <g id="Invoice" transform="translate(-2 -2)">
    <path id="Trazado_157542" data-name="Trazado 157542" d="M53.167,2h-5a.833.833,0,0,0-.833.833v.318l-1.776-.888A2.512,2.512,0,0,0,44.44,2H32.226a2.5,2.5,0,0,0-1.559.548L27.183,5.333H14.833A.833.833,0,0,0,14,6.167v15a.833.833,0,0,0,.833.833H38.167A.833.833,0,0,0,39,21.167v-7.96a7.52,7.52,0,0,0,6.618-.54L46.733,12h.6v.833a.833.833,0,0,0,.833.833h5A.833.833,0,0,0,54,12.833v-10A.833.833,0,0,0,53.167,2Zm-37.5,18.333V7H33.941l-.934.934a2.5,2.5,0,1,0,3.535,3.536l.792-.792v9.655Zm30.827-10a.827.827,0,0,0-.423.119l-1.31.785a5.857,5.857,0,0,1-5.2.4L39,11.411v-2.4l1.058-1.058.43.143a5.87,5.87,0,0,0,3.69,0l.917-.306a.834.834,0,0,0-.527-1.583l-.917.307a4.191,4.191,0,0,1-2.635,0L40.1,6.207a.833.833,0,0,0-.853.2l-3.885,3.883a.852.852,0,0,1-1.177,0,.833.833,0,0,1,0-1.178l3.238-3.239A.833.833,0,1,0,36.245,4.7l-.637.637H29.851l1.855-1.484a.839.839,0,0,1,.52-.182H44.44a.847.847,0,0,1,.372.087l2.521,1.261v5.312ZM52.333,12H49V3.667h3.333Z" transform="translate(-2)" fill="#0d66bf"/>
    <path id="Trazado_157543" data-name="Trazado 157543" d="M35.471,44.474a2.457,2.457,0,0,0-.971-.064V31.667A1.667,1.667,0,0,0,32.833,30H14.5a1.667,1.667,0,0,0-1.667,1.667V45.833h-.88a4.19,4.19,0,0,0-1.863.44l-1.423.712V45.833A.833.833,0,0,0,7.833,45h-5A.833.833,0,0,0,2,45.833v10a.833.833,0,0,0,.833.833h5a.833.833,0,0,0,.833-.833V54.89l.364.243a4.16,4.16,0,0,0,2.312.7H22.66a7.5,7.5,0,0,0,3.848-1.063l9.567-5.716a2.506,2.506,0,0,0,1.25-2.167,2.4,2.4,0,0,0-.333-1.25,2.477,2.477,0,0,0-1.521-1.164ZM25.333,31.667v5.942l-1.2-.8a.833.833,0,0,0-.925,0l-1.2.8V31.667Zm-10.833,0h5.833v7.5a.833.833,0,0,0,1.3.693l2.037-1.36L25.7,39.858a.833.833,0,0,0,1.3-.692v-7.5h5.833V45.156l-5.917,3.417A2.5,2.5,0,0,0,24.5,46.667H18.03l-1.139-.57a2.512,2.512,0,0,0-1.118-.263H14.5ZM7,55H3.667V46.667H7Zm28.231-7.382-9.578,5.722a5.833,5.833,0,0,1-2.992.826H11.342a2.491,2.491,0,0,1-1.387-.417l-1.289-.862V48.848l2.167-1.083a2.5,2.5,0,0,1,1.12-.265h3.82a.847.847,0,0,1,.373.083l1.315.658a.833.833,0,0,0,.373.092H24.5A.833.833,0,1,1,24.5,50H18.667a.833.833,0,0,0,0,1.667H24.5a2.484,2.484,0,0,0,1.867-.854l8.045-4.646a.817.817,0,0,1,.628-.083.833.833,0,0,1,.516.409.777.777,0,0,1,.1.4.841.841,0,0,1-.427.727Z" transform="translate(0 -4.667)" fill="#0d66bf"/>
    <path id="Trazado_157544" data-name="Trazado 157544" d="M25.5,12H18.833a.833.833,0,0,0-.833.833V19.5a.833.833,0,0,0,.833.833H25.5a.833.833,0,0,0,.833-.833V12.833A.833.833,0,0,0,25.5,12Zm-.833,6.667h-5v-5h1.667v1.667a.833.833,0,0,0,1.667,0V13.667h1.667Z" transform="translate(-2.667 -1.667)" fill="#0d66bf"/>
    <path id="Trazado_157545" data-name="Trazado 157545" d="M30.833,13.667H32.5A.833.833,0,0,0,32.5,12H30.833a.833.833,0,0,0,0,1.667Z" transform="translate(-4.667 -1.667)" fill="#0d66bf"/>
    <path id="Trazado_157546" data-name="Trazado 157546" d="M37.5,16H30.833a.833.833,0,0,0,0,1.667H37.5A.833.833,0,0,0,37.5,16Z" transform="translate(-4.667 -2.333)" fill="#0d66bf"/>
    <path id="Trazado_157547" data-name="Trazado 157547" d="M37.5,20H30.833a.833.833,0,0,0,0,1.667H37.5A.833.833,0,0,0,37.5,20Z" transform="translate(-4.667 -3)" fill="#0d66bf"/>
  </g>
</svg>
