<svg xmlns="http://www.w3.org/2000/svg" width="149" height="169.863" viewBox="0 0 149 169.863">
  <g id="Grupo_1100060" data-name="Grupo 1100060" transform="translate(-1201 -3146.179)">
    <rect id="Rectángulo_401180" data-name="Rectángulo 401180" width="146" height="155" rx="30" transform="translate(1202.5 3147.679)" fill="none" stroke="#ff725d" stroke-miterlimit="10" stroke-width="3"/>
    <g id="Grupo_81090" data-name="Grupo 81090" transform="translate(1215.74 3168.316)">
      <g id="Grupo_81087" data-name="Grupo 81087">
        <path id="Trazado_156086" data-name="Trazado 156086" d="M430.944,144.618l-3.921-2.25-.5-.281-3.259-1.87-23.857-13.78L337.994,161.89l23.859,13.784,2.779,1.588.5.3,4.419,2.529,26.338,15.222,61.3-35.455.052-.016Z" transform="translate(-337.994 -126.437)" fill="#ffdda8"/>
      </g>
      <g id="Grupo_81088" data-name="Grupo 81088" transform="translate(2.149 1.231)">
        <path id="Trazado_156087" data-name="Trazado 156087" d="M398.47,127.13,339.2,161.356l55.748,31.816,59.2-33.874Z" transform="translate(-339.204 -127.13)" fill="#f9c98a"/>
      </g>
      <path id="Trazado_156088" data-name="Trazado 156088" d="M395.89,179.811l-.07,78.856-26.457-15.1-7.682-4.384-23.689-13.526V146.4Z" transform="translate(-337.994 -110.944)" fill="#bc7c46"/>
      <g id="Grupo_81089" data-name="Grupo 81089" transform="translate(57.817 33.421)">
        <path id="Trazado_156089" data-name="Trazado 156089" d="M370.617,180.7l-.069,78.863,61.443-35.142V145.255Z" transform="translate(-370.548 -145.255)" fill="#dda866"/>
      </g>
    </g>
    <g id="Grupo_81129" data-name="Grupo 81129" transform="translate(1293.436 3213.947)">
      <g id="Grupo_81101" data-name="Grupo 81101" transform="translate(0 10.152)">
        <g id="Grupo_81097" data-name="Grupo 81097" transform="translate(2.288 5.299)">
          <g id="Grupo_81093" data-name="Grupo 81093" transform="translate(0 3.692)">
            <g id="Grupo_81091" data-name="Grupo 81091" transform="translate(2.289 0.613)">
              <path id="Trazado_156090" data-name="Trazado 156090" d="M384.96,174.362l-.642.366v-11.1l.637-.373Z" transform="translate(-384.318 -163.253)" fill="#4f2e16"/>
            </g>
            <g id="Grupo_81092" data-name="Grupo 81092">
              <path id="Trazado_156091" data-name="Trazado 156091" d="M388.25,164.643l-.468.766-2.138-1.418-2.149,3.9-.465-.232,2.614-4.746Z" transform="translate(-383.029 -162.908)" fill="#4f2e16"/>
            </g>
          </g>
          <g id="Grupo_81096" data-name="Grupo 81096" transform="translate(6.382)">
            <g id="Grupo_81094" data-name="Grupo 81094" transform="translate(2.298 0.624)">
              <path id="Trazado_156092" data-name="Trazado 156092" d="M388.55,172.285l-.633.373V161.543l.633-.362Z" transform="translate(-387.917 -161.18)" fill="#4f2e16"/>
            </g>
            <g id="Grupo_81095" data-name="Grupo 81095">
              <path id="Trazado_156093" data-name="Trazado 156093" d="M391.847,162.564l-.472.776-2.139-1.428-2.142,3.9-.472-.228,2.614-4.757Z" transform="translate(-386.623 -160.829)" fill="#4f2e16"/>
            </g>
          </g>
        </g>
        <g id="Grupo_81098" data-name="Grupo 81098" transform="translate(1.812 15.201)">
          <path id="Trazado_156094" data-name="Trazado 156094" d="M394.994,167.188l-11.91,6.877c-.176.1-.323.018-.323-.185a.709.709,0,0,1,.323-.554l11.91-6.88c.179-.1.32-.016.32.185A.707.707,0,0,1,394.994,167.188Z" transform="translate(-382.761 -166.405)" fill="#4f2e16"/>
        </g>
        <g id="Grupo_81100" data-name="Grupo 81100">
          <g id="Grupo_81099" data-name="Grupo 81099">
            <path id="Trazado_156095" data-name="Trazado 156095" d="M395.692,176.839,383.973,183.6c-1.234.71-2.232.13-2.232-1.289v-13.53a4.933,4.933,0,0,1,2.232-3.866l11.718-6.767c1.227-.712,2.231-.131,2.231,1.291v13.526A4.962,4.962,0,0,1,395.692,176.839Zm-11.718-11.184a3.524,3.524,0,0,0-1.6,2.756v13.532c0,1.016.717,1.43,1.6.918l11.718-6.758a3.539,3.539,0,0,0,1.59-2.765l0-13.53c0-1.018-.716-1.43-1.593-.918Z" transform="translate(-381.741 -157.846)" fill="#4f2e16"/>
          </g>
        </g>
      </g>
      <g id="Grupo_81109" data-name="Grupo 81109" transform="translate(17.149)">
        <g id="Grupo_81102" data-name="Grupo 81102" transform="translate(7.77 10.084)">
          <path id="Trazado_156096" data-name="Trazado 156096" d="M396.09,168.271c-.174.1-.318.018-.318-.181V158.4a.722.722,0,0,1,.318-.552c.178-.1.323-.021.323.185v9.685A.7.7,0,0,1,396.09,168.271Z" transform="translate(-395.772 -157.807)" fill="#4f2e16"/>
        </g>
        <g id="Grupo_81104" data-name="Grupo 81104">
          <g id="Grupo_81103" data-name="Grupo 81103">
            <path id="Trazado_156097" data-name="Trazado 156097" d="M405.346,171.125l-11.718,6.76c-1.227.712-2.231.137-2.231-1.286v-13.53a4.953,4.953,0,0,1,2.231-3.868l11.718-6.767c1.234-.712,2.234-.131,2.234,1.291v13.53A4.952,4.952,0,0,1,405.346,171.125Zm-11.718-11.191a3.561,3.561,0,0,0-1.595,2.765v13.528c0,1.014.718,1.428,1.595.922l11.718-6.765a3.535,3.535,0,0,0,1.595-2.765V154.095c0-1.019-.717-1.431-1.595-.918Z" transform="translate(-391.397 -152.13)" fill="#4f2e16"/>
          </g>
        </g>
        <path id="Trazado_156098" data-name="Trazado 156098" d="M402.9,158.917c-.458-1.79-2.447-2.186-4.838-.81a10.542,10.542,0,0,0-4.834,6.4Z" transform="translate(-389.975 -148.131)" fill="#4f2e16"/>
        <g id="Grupo_81108" data-name="Grupo 81108" transform="translate(6.083 4.637)">
          <g id="Grupo_81105" data-name="Grupo 81105" transform="translate(0 1.945)">
            <path id="Trazado_156099" data-name="Trazado 156099" d="M395.142,158.976c-.172.1-.32.021-.32-.183v-2.362a.711.711,0,0,1,.32-.552c.178-.1.325-.023.325.183v2.364A.7.7,0,0,1,395.142,158.976Z" transform="translate(-394.822 -155.836)" fill="#4f2e16"/>
          </g>
          <g id="Grupo_81106" data-name="Grupo 81106" transform="translate(1.687 0.968)">
            <path id="Trazado_156100" data-name="Trazado 156100" d="M396.09,158.434c-.174.1-.318.014-.318-.185v-2.362a.72.72,0,0,1,.318-.558c.178-.1.318-.021.318.188v2.359A.7.7,0,0,1,396.09,158.434Z" transform="translate(-395.772 -155.285)" fill="#4f2e16"/>
          </g>
          <g id="Grupo_81107" data-name="Grupo 81107" transform="translate(3.369)">
            <path id="Trazado_156101" data-name="Trazado 156101" d="M397.037,157.883c-.167.1-.318.016-.318-.188v-2.359a.706.706,0,0,1,.318-.551c.179-.1.327-.023.327.179v2.362A.693.693,0,0,1,397.037,157.883Z" transform="translate(-396.719 -154.74)" fill="#4f2e16"/>
          </g>
        </g>
      </g>
      <g id="Grupo_81115" data-name="Grupo 81115" transform="translate(17.1 21.632)">
        <g id="Grupo_81111" data-name="Grupo 81111">
          <g id="Grupo_81110" data-name="Grupo 81110">
            <path id="Trazado_156102" data-name="Trazado 156102" d="M405.32,183.3l-11.72,6.767c-1.234.71-2.231.128-2.231-1.293v-13.53a4.948,4.948,0,0,1,2.231-3.87l11.812-6.765c1.234-.705,2.24-.13,2.24,1.291l-.1,13.532A4.944,4.944,0,0,1,405.32,183.3ZM393.6,172.111a3.519,3.519,0,0,0-1.59,2.765L392,188.406c.007,1.019.719,1.426,1.6.92l11.72-6.765a3.524,3.524,0,0,0,1.588-2.76l.1-13.526c0-1.023-.712-1.435-1.6-.924Z" transform="translate(-391.369 -164.31)" fill="#4f2e16"/>
          </g>
        </g>
        <g id="Grupo_81114" data-name="Grupo 81114" transform="translate(5.001 5.592)">
          <g id="Grupo_81112" data-name="Grupo 81112" transform="translate(2.767 2.628)">
            <path id="Trazado_156103" data-name="Trazado 156103" d="M396.061,179.4c-.179.1-.318.023-.318-.178v-9.686a.69.69,0,0,1,.318-.551c.176-.1.316-.021.316.185v9.681A.692.692,0,0,1,396.061,179.4Z" transform="translate(-395.743 -168.938)" fill="#4f2e16"/>
          </g>
          <g id="Grupo_81113" data-name="Grupo 81113" transform="translate(1.311 11.472)">
            <path id="Trazado_156104" data-name="Trazado 156104" d="M398.146,174.7l-2.9,1.684c-.176.1-.321.016-.321-.188a.718.718,0,0,1,.321-.554l2.9-1.675c.185-.1.325-.023.325.185A.681.681,0,0,1,398.146,174.7Z" transform="translate(-394.923 -173.917)" fill="#4f2e16"/>
          </g>
          <path id="Trazado_156105" data-name="Trazado 156105" d="M400.36,167.458v4.518a4.257,4.257,0,0,1-1.915,3.319l-2.344,1.357c-1.066.606-1.916.114-1.916-1.114v-4.515l1.165-.671V175.2c0,.2.14.284.316.179a.717.717,0,0,0,.318-.551v-4.841Z" transform="translate(-394.185 -167.458)" fill="#4f2e16"/>
        </g>
      </g>
      <g id="Grupo_81128" data-name="Grupo 81128" transform="translate(0.025 31.689)">
        <path id="Trazado_156106" data-name="Trazado 156106" d="M384.541,176.779l2.309,1.329-2.3,3.993Z" transform="translate(-379.593 -164.69)" fill="#4f2e16"/>
        <path id="Trazado_156107" data-name="Trazado 156107" d="M389.527,174.546l-2.251,3.9-2.244-1.3Z" transform="translate(-379.213 -166.423)" fill="#4f2e16"/>
        <path id="Trazado_156108" data-name="Trazado 156108" d="M387.371,177.79l2.461,1.428-4.924,2.842Z" transform="translate(-379.308 -163.906)" fill="#4f2e16"/>
        <path id="Trazado_156109" data-name="Trazado 156109" d="M389.159,174.656v5.557l-2.409-1.386Z" transform="translate(-377.879 -166.337)" fill="#4f2e16"/>
        <g id="Grupo_81116" data-name="Grupo 81116" transform="translate(3.489 10.077)">
          <path id="Trazado_156110" data-name="Trazado 156110" d="M392.463,181.4l-8.743-5.045.409-.705,8.741,5.048Z" transform="translate(-383.72 -175.646)" fill="#4f2e16"/>
        </g>
        <g id="Grupo_81117" data-name="Grupo 81117" transform="translate(3.489 5.267)">
          <path id="Trazado_156111" data-name="Trazado 156111" d="M384.129,188.315l-.409-.239,8.743-15.139.408.234Z" transform="translate(-383.72 -172.938)" fill="#4f2e16"/>
        </g>
        <g id="Grupo_81118" data-name="Grupo 81118" transform="translate(12.151 6.735)">
          <path id="Trazado_156112" data-name="Trazado 156112" d="M389.171,181.074l-.574.33V174.1l.574-.331Z" transform="translate(-388.597 -173.764)" fill="#4f2e16"/>
        </g>
        <g id="Grupo_81119" data-name="Grupo 81119" transform="translate(3.401 11.784)">
          <path id="Trazado_156113" data-name="Trazado 156113" d="M384.251,183.913l-.581.333v-7.311l.581-.327Z" transform="translate(-383.67 -176.607)" fill="#4f2e16"/>
        </g>
        <g id="Grupo_81122" data-name="Grupo 81122" transform="translate(12.881 7.987)">
          <g id="Grupo_81120" data-name="Grupo 81120" transform="translate(1.54 0.353)">
            <path id="Trazado_156114" data-name="Trazado 156114" d="M391.294,175.167l-1.419.818v-.5l1.419-.817Z" transform="translate(-389.875 -174.668)" fill="#4f2e16"/>
          </g>
          <g id="Grupo_81121" data-name="Grupo 81121">
            <path id="Trazado_156115" data-name="Trazado 156115" d="M390.86,174.469l-1.852,2.315,1.852.163Z" transform="translate(-389.008 -174.469)" fill="#4f2e16"/>
          </g>
        </g>
        <g id="Grupo_81125" data-name="Grupo 81125" transform="translate(0.394 15.63)">
          <g id="Grupo_81123" data-name="Grupo 81123" transform="translate(0 0.807)">
            <path id="Trazado_156116" data-name="Trazado 156116" d="M383.4,179.727l-1.419.817v-.495l1.419-.822Z" transform="translate(-381.977 -179.227)" fill="#4f2e16"/>
          </g>
          <g id="Grupo_81124" data-name="Grupo 81124" transform="translate(1.11)">
            <path id="Trazado_156117" data-name="Trazado 156117" d="M382.6,181.248l1.854-2.31-1.854-.166Z" transform="translate(-382.602 -178.772)" fill="#4f2e16"/>
          </g>
        </g>
        <g id="Grupo_81127" data-name="Grupo 81127">
          <g id="Grupo_81126" data-name="Grupo 81126">
            <path id="Trazado_156118" data-name="Trazado 156118" d="M395.871,188.865l-12.105,6.989c-1.106.639-2.01.119-2.005-1.16l-.005-13.981a4.457,4.457,0,0,1,2.01-3.479l12.113-6.987c1.1-.643,2-.119,2,1.156V185.39A4.435,4.435,0,0,1,395.871,188.865ZM383.765,177.9a3.192,3.192,0,0,0-1.44,2.485l.009,13.983c0,.913.641,1.286,1.431.828l12.113-6.989a3.184,3.184,0,0,0,1.431-2.483V171.735c0-.916-.643-1.286-1.439-.828Z" transform="translate(-381.755 -169.972)" fill="#4f2e16"/>
          </g>
        </g>
      </g>
    </g>
    <g id="Grupo_81130" data-name="Grupo 81130" transform="translate(1231.298 3228.539)">
      <path id="Trazado_156119" data-name="Trazado 156119" d="M346.754,162.124a5.509,5.509,0,0,0,2.494,4.316l13.867,8.006c1.376.794,2.492.151,2.492-1.437h0a5.518,5.518,0,0,0-2.492-4.318l-13.867-8.006c-1.375-.794-2.492-.149-2.494,1.439Z" transform="translate(-346.754 -160.346)" fill="#4f2e16"/>
      <path id="Trazado_156120" data-name="Trazado 156120" d="M346.754,162.064a5.517,5.517,0,0,0,2.492,4.316l13.865,8c.986.57,1.838.4,2.236-.321a1.752,1.752,0,0,1-1.716-.2l-13.869-8.006a5.5,5.5,0,0,1-2.488-4.316,2.235,2.235,0,0,1,.252-1.119A1.727,1.727,0,0,0,346.754,162.064Z" transform="translate(-346.754 -160.283)" fill="#dda866"/>
    </g>
    <g id="Grupo_81131" data-name="Grupo 81131" transform="translate(1242.379 3183.967)">
      <path id="Trazado_156121" data-name="Trazado 156121" d="M415.383,135.53l-61.894,35.191-.5-.3,61.892-35.174Z" transform="translate(-352.993 -135.249)" fill="#bc7c46"/>
    </g>
    <g id="Grupo_81132" data-name="Grupo 81132" transform="translate(1216.37 3205.177)">
      <path id="Trazado_156122" data-name="Trazado 156122" d="M394.651,179.188v.545l-29.8-16.924-.5-.281-26.009-14.774v-.563l26.009,14.775.5.281Z" transform="translate(-338.349 -147.191)" fill="#a8632f"/>
    </g>
    <g id="Grupo_81133" data-name="Grupo 81133" transform="translate(1242.379 3219.141)">
      <path id="Trazado_156123" data-name="Trazado 156123" d="M353.489,155.352v1.356l-.5-.281v-1.374Z" transform="translate(-352.993 -155.054)" fill="#a8632f"/>
    </g>
  </g>
</svg>
