<svg xmlns="http://www.w3.org/2000/svg" width="97" height="95" viewBox="0 0 97 95">
  <g id="Grupo_1100050" data-name="Grupo 1100050" transform="translate(-1324 -6832)">
    <rect id="Rectángulo_401580" data-name="Rectángulo 401580" width="96" height="59" rx="10" transform="translate(1324 6832)" fill="#53bced"/>
    <g id="bpm" transform="translate(1329.542 6835.843)">
      <g id="Grupo_1100047" data-name="Grupo 1100047" transform="translate(5.458 5)">
        <path id="Trazado_876747" data-name="Trazado 876747" d="M62.156,84.386H9.2a3.751,3.751,0,0,1-3.744-3.744V25.963a3.617,3.617,0,0,1,1.1-2.648L23.774,6.1A3.617,3.617,0,0,1,26.421,5H62.156A3.751,3.751,0,0,1,65.9,8.744v71.9a3.752,3.752,0,0,1-3.744,3.744Z" transform="translate(-5.458 -5)" fill="#eff4f7" fill-rule="evenodd"/>
        <path id="Trazado_876748" data-name="Trazado 876748" d="M25.34,7.663,8.121,24.883a3.754,3.754,0,0,0-.772,1.1H23.056A3.387,3.387,0,0,0,26.437,22.6V6.891a3.747,3.747,0,0,0-1.1.772Z" transform="translate(-7.024 -6.566)" fill="#e2e3e3" fill-rule="evenodd"/>
        <path id="Trazado_876749" data-name="Trazado 876749" d="M50.572,355.643a1.373,1.373,0,0,1,0-2.746h42.64a1.373,1.373,0,0,1,0,2.746Zm0-8a1.373,1.373,0,1,1,0-2.746h42.64a1.373,1.373,0,1,1,0,2.746Z" transform="translate(-41.692 -286.565)" fill="#8d9ca8" fill-rule="evenodd"/>
      </g>
      <g id="Grupo_1100048" data-name="Grupo 1100048" transform="translate(13.595 13.322)">
        <path id="Trazado_876750" data-name="Trazado 876750" d="M53.9,235.853h5.02a1.032,1.032,0,0,1,1.03,1.03v10.034a1.032,1.032,0,0,1-1.03,1.03H53.9a1.032,1.032,0,0,1-1.03-1.03V236.883A1.032,1.032,0,0,1,53.9,235.853Z" transform="translate(-52.867 -204.554)" fill="#64b5f6" fill-rule="evenodd"/>
        <path id="Trazado_876751" data-name="Trazado 876751" d="M125.931,198.093h5.02a1.032,1.032,0,0,1,1.03,1.03v16.515a1.032,1.032,0,0,1-1.03,1.03h-5.02a1.032,1.032,0,0,1-1.03-1.03V199.123A1.032,1.032,0,0,1,125.931,198.093Z" transform="translate(-112.538 -173.274)" fill="#ffda2d" fill-rule="evenodd"/>
        <path id="Trazado_876752" data-name="Trazado 876752" d="M197.965,160.331h5.02a1.032,1.032,0,0,1,1.03,1.03v23a1.032,1.032,0,0,1-1.03,1.03h-5.02a1.032,1.032,0,0,1-1.03-1.03v-23A1.032,1.032,0,0,1,197.965,160.331Z" transform="translate(-172.209 -141.993)" fill="#72d561" fill-rule="evenodd"/>
        <path id="Trazado_876753" data-name="Trazado 876753" d="M270,122.571h5.02a1.032,1.032,0,0,1,1.03,1.03v29.476a1.032,1.032,0,0,1-1.03,1.03H270a1.032,1.032,0,0,1-1.03-1.03V123.6A1.032,1.032,0,0,1,270,122.571Z" transform="translate(-231.881 -110.714)" fill="#64b5f6" fill-rule="evenodd"/>
        <path id="Trazado_876754" data-name="Trazado 876754" d="M98.633,59.088,68.242,76.634a1.37,1.37,0,1,1-1.373-2.371L97.261,56.717,94.674,56.2a1.372,1.372,0,0,1,.526-2.692l6.168,1.221a1.372,1.372,0,0,1,1.014,1.846l-2.006,5.892a1.37,1.37,0,1,1-2.6-.88Z" transform="translate(-63.9 -53.486)" fill="#8d9ca8" fill-rule="evenodd"/>
      </g>
      <g id="Grupo_1100049" data-name="Grupo 1100049" transform="translate(49.41 49.109)">
        <path id="Trazado_876755" data-name="Trazado 876755" d="M280.788,294.983h-5.5v-2.761a13.926,13.926,0,0,1-5.009-2.076l-1.954,1.954-3.892-3.892,1.954-1.954a13.925,13.925,0,0,1-2.076-5.009h-2.762v-5.5h2.762a13.925,13.925,0,0,1,2.076-5.009l-1.954-1.954,3.892-3.892,1.953,1.953a13.921,13.921,0,0,1,5.009-2.076V262h5.5v2.762a13.924,13.924,0,0,1,5.009,2.076l1.953-1.953,3.892,3.892-1.953,1.953a13.919,13.919,0,0,1,2.076,5.009h2.761v5.5h-2.761a13.921,13.921,0,0,1-2.076,5.009l1.953,1.954L287.75,292.1l-1.954-1.954a13.925,13.925,0,0,1-5.009,2.076v2.761Z" transform="translate(-261.545 -262.002)" fill="#ffda2d" fill-rule="evenodd"/>
        <ellipse id="Elipse_5048" data-name="Elipse 5048" cx="8.575" cy="8.575" rx="8.575" ry="8.575" transform="matrix(0.34, -0.94, 0.94, 0.34, 5.472, 21.626)" fill="#eff4f7"/>
      </g>
      <path id="Trazado_876756" data-name="Trazado 876756" d="M248.7,236.3a1.369,1.369,0,0,1,1.727,2.124,25.552,25.552,0,0,1-37.956-6.473l-.378,1.376a1.367,1.367,0,1,1-2.639-.719l1.3-4.749a1.368,1.368,0,0,1,1.679-.96,1.4,1.4,0,0,1,.172.059l4.535,1.92a1.368,1.368,0,0,1-1.062,2.521l-.981-.415a22.8,22.8,0,0,0,33.6,5.316Zm-16.07-44.245a1.369,1.369,0,0,1,1.952-1.92l3.461,3.5a1.369,1.369,0,0,1-.016,1.936,1.386,1.386,0,0,1-.135.117h0l-3.93,2.967a1.371,1.371,0,1,1-1.652-2.188l.838-.633a22.812,22.812,0,0,0-21.683,22.784q0,.938.072,1.831.077.961.216,1.821a1.368,1.368,0,1,1-2.7.429q-.168-1.045-.248-2.036-.082-1.025-.083-2.045a25.558,25.558,0,0,1,24.915-25.55Zm25.48,38.425-1.384.362a25.567,25.567,0,0,0-13.374-36.113,1.37,1.37,0,0,0-.965,2.564,22.81,22.81,0,0,1,12.19,31.755l-.13-1.05a1.372,1.372,0,1,0-2.725.333l.6,4.887h0a1.37,1.37,0,0,0,1.7,1.159l4.764-1.245a1.368,1.368,0,1,0-.686-2.649Z" transform="translate(-168.374 -153.018)" fill="#b4d2d7" fill-rule="evenodd"/>
    </g>
  </g>
</svg>
