<svg xmlns="http://www.w3.org/2000/svg" xmlns:xlink="http://www.w3.org/1999/xlink" width="55" height="55" viewBox="0 0 55 55">
  <defs>
    <clipPath id="clip-path">
      <rect id="Rectángulo_35049" data-name="Rectángulo 35049" width="55" height="55" transform="translate(600 1589)" fill="#fff505"/>
    </clipPath>
  </defs>
  <g id="Enmascarar_grupo_59" data-name="Enmascarar grupo 59" transform="translate(-600 -1589)" clip-path="url(#clip-path)">
    <g id="medicamento" transform="translate(610.581 1589)">
      <path id="Trazado_154442" data-name="Trazado 154442" d="M28.521,54.194H5.317A4.512,4.512,0,0,1,.806,49.683V12.837A4.512,4.512,0,0,1,5.317,8.325h23.2a4.512,4.512,0,0,1,4.512,4.512V49.683A4.512,4.512,0,0,1,28.521,54.194Zm0,0" fill="#cee8f2"/>
      <path id="Trazado_154443" data-name="Trazado 154443" d="M28.521,8.325H25.3a4.512,4.512,0,0,1,4.512,4.512V49.683A4.512,4.512,0,0,1,25.3,54.194h3.223a4.512,4.512,0,0,0,4.512-4.512V12.837A4.512,4.512,0,0,0,28.521,8.325Zm0,0" fill="#9ad5ed"/>
      <path id="Trazado_154444" data-name="Trazado 154444" d="M28.521,8.325H5.317V2.095A1.289,1.289,0,0,1,6.606.806H27.231a1.289,1.289,0,0,1,1.289,1.289Zm0,0" fill="#e8e1d5"/>
      <path id="Trazado_154445" data-name="Trazado 154445" d="M27.231.806H24.009A1.289,1.289,0,0,1,25.3,2.095v6.23h3.223V2.095A1.289,1.289,0,0,0,27.231.806Zm0,0" fill="#d6cfc4"/>
      <path id="Trazado_154446" data-name="Trazado 154446" d="M.806,15.469H33.032V46.191H.806Zm0,0" fill="#ff573d"/>
      <path id="Trazado_154447" data-name="Trazado 154447" d="M29.81,15.469h3.223V46.191H29.81Zm0,0" fill="#e64028"/>
      <path id="Trazado_154448" data-name="Trazado 154448" d="M25.781,23.838a3.11,3.11,0,1,0-3.109,3.106A3.108,3.108,0,0,0,25.781,23.838Zm0,0" fill="#b0693c"/>
      <path id="Trazado_154449" data-name="Trazado 154449" d="M14.276,23.838a3.11,3.11,0,1,0-3.11,3.106A3.108,3.108,0,0,0,14.276,23.838Zm0,0" fill="#b0693c"/>
      <path id="Trazado_154450" data-name="Trazado 154450" d="M24.071,29.274c0-3.174-3.2-5.746-7.152-5.746S9.767,26.1,9.767,29.274s3.2,5.746,7.152,5.746S24.071,32.447,24.071,29.274Zm0,0" fill="#ffd659"/>
      <path id="Trazado_154451" data-name="Trazado 154451" d="M29.326,7.58V2.095A2.1,2.1,0,0,0,27.231,0H13.481a.806.806,0,0,0,0,1.611h13.75a.484.484,0,0,1,.483.483V7.52H26.1V3.6a.806.806,0,0,0-1.611,0V7.52h-1.74V3.6a.806.806,0,0,0-1.611,0V7.52H19.4V3.6a.806.806,0,0,0-1.611,0V7.52H16.049V3.6a.806.806,0,1,0-1.611,0V7.52H12.7V3.6a.806.806,0,0,0-1.611,0V7.52H9.346V3.6a.806.806,0,1,0-1.611,0V7.52H6.123V2.095a.484.484,0,0,1,.483-.483h3.437a.806.806,0,0,0,0-1.611H6.606A2.1,2.1,0,0,0,4.512,2.095V7.58A5.326,5.326,0,0,0,0,12.837v4.315a.806.806,0,1,0,1.611,0v-.877H32.227V45.386H30.656a.806.806,0,1,0,0,1.611h1.571v2.686a3.71,3.71,0,0,1-3.706,3.706H5.317a3.71,3.71,0,0,1-3.706-3.706V47H27.218a.806.806,0,0,0,0-1.611H1.611v-24.8a.806.806,0,1,0-1.611,0V49.683A5.324,5.324,0,0,0,5.317,55h23.2a5.324,5.324,0,0,0,5.317-5.317V12.837A5.326,5.326,0,0,0,29.326,7.58ZM1.611,14.663V12.837A3.71,3.71,0,0,1,5.317,9.131h23.2a3.71,3.71,0,0,1,3.706,3.706v1.826Zm0,0"/>
      <path id="Trazado_154452" data-name="Trazado 154452" d="M22.671,19.927a3.92,3.92,0,0,0-3.8,2.995,9.618,9.618,0,0,0-3.9,0A3.914,3.914,0,1,0,9.333,27.3a5.473,5.473,0,0,0-.371,1.978c0,3.612,3.57,6.551,7.958,6.551s7.958-2.939,7.958-6.551a5.471,5.471,0,0,0-.371-1.978,3.912,3.912,0,0,0-1.834-7.369ZM8.862,23.838a2.3,2.3,0,0,1,4.562-.449,7.654,7.654,0,0,0-3.313,2.494,2.291,2.291,0,0,1-1.25-2.045Zm8.057,10.376c-3.5,0-6.346-2.216-6.346-4.94s2.847-4.94,6.346-4.94,6.346,2.216,6.346,4.94S20.418,34.214,16.919,34.214Zm6.807-8.331a7.654,7.654,0,0,0-3.313-2.494,2.3,2.3,0,1,1,3.313,2.494Zm0,0"/>
      <path id="Trazado_154453" data-name="Trazado 154453" d="M28.2,38.3H19.6a.806.806,0,0,0,0,1.611H28.2a.806.806,0,0,0,0-1.611Zm0,0"/>
      <path id="Trazado_154454" data-name="Trazado 154454" d="M28.2,41.089H19.6a.806.806,0,0,0,0,1.611H28.2a.806.806,0,0,0,0-1.611Zm0,0"/>
      <path id="Trazado_154455" data-name="Trazado 154455" d="M15.7,26.909a.806.806,0,1,0-.806.8A.805.805,0,0,0,15.7,26.909Zm0,0"/>
      <path id="Trazado_154456" data-name="Trazado 154456" d="M19.746,26.909a.806.806,0,1,1-.806-.806A.806.806,0,0,1,19.746,26.909Zm0,0"/>
    </g>
  </g>
</svg>
