<svg xmlns="http://www.w3.org/2000/svg" xmlns:xlink="http://www.w3.org/1999/xlink" width="55" height="55" viewBox="0 0 55 55">
  <defs>
    <clipPath id="clip-path">
      <rect id="Rectángulo_35050" data-name="Rectángulo 35050" width="55" height="55" transform="translate(600 1677)" fill="#fff505"/>
    </clipPath>
  </defs>
  <g id="Enmascarar_grupo_60" data-name="Enmascarar grupo 60" transform="translate(-600 -1677)" clip-path="url(#clip-path)">
    <g id="cuentagotas" transform="translate(600 1677)">
      <path id="Trazado_154457" data-name="Trazado 154457" d="M22.093,11.948v5.537H32.908V11.948a1.25,1.25,0,0,0-1.25-1.25H23.343A1.25,1.25,0,0,0,22.093,11.948Z" fill="#666984"/>
      <path id="Trazado_154458" data-name="Trazado 154458" d="M31.658,10.7H29.187a1.25,1.25,0,0,1,1.25,1.25v5.537h2.471V11.948A1.25,1.25,0,0,0,31.658,10.7Z" fill="#545777"/>
      <path id="Trazado_154459" data-name="Trazado 154459" d="M34.348,25.909l-2.792-1.891V22.15H31.9a1.457,1.457,0,0,0,0-2.915h-.345v-1.75H23.444v1.75H23.1a1.457,1.457,0,1,0,0,2.915h.345v1.868l-2.792,1.891a9.867,9.867,0,0,0-4.335,8.17V50.587a3.607,3.607,0,0,0,3.607,3.607H35.076a3.607,3.607,0,0,0,3.607-3.607V34.079A9.867,9.867,0,0,0,34.348,25.909Z" fill="#7ebfe7"/>
      <path id="Trazado_154460" data-name="Trazado 154460" d="M34.348,25.909l-2.792-1.891V22.15H31.9a1.457,1.457,0,1,0,0-2.915h-.345v-1.75H28.981v1.75h.345a1.457,1.457,0,0,1,0,2.915h-.345v1.868l2.792,1.891a9.867,9.867,0,0,1,4.335,8.17V50.587A3.607,3.607,0,0,1,32.5,54.194h2.575a3.607,3.607,0,0,0,3.607-3.607V34.079A9.868,9.868,0,0,0,34.348,25.909Z" fill="#3e91d9"/>
      <path id="Trazado_154461" data-name="Trazado 154461" d="M24.94,10.7l.178-7.565A2.383,2.383,0,0,1,27.5.806h0a2.383,2.383,0,0,1,2.382,2.327L30.06,10.7Z" fill="#747693"/>
      <path id="Trazado_154462" data-name="Trazado 154462" d="M29.882,3.133A2.383,2.383,0,0,0,27.5.806c.335,0,.609,1.033.617,2.327l.046,7.565h1.9Z" fill="#545777"/>
      <path id="Trazado_154463" data-name="Trazado 154463" d="M16.318,34.079V48.916H38.683V34.079a9.863,9.863,0,0,0-.246-2.185H16.563A9.864,9.864,0,0,0,16.318,34.079Z" fill="#e8c778"/>
      <path id="Trazado_154464" data-name="Trazado 154464" d="M38.665,33.5c0-.05-.007-.1-.011-.149s-.006-.089-.01-.134-.011-.115-.017-.172c0-.035-.007-.071-.011-.106q-.011-.1-.024-.191c0-.028-.008-.055-.011-.082q-.015-.1-.032-.208l-.01-.059c-.013-.075-.027-.15-.041-.225l-.007-.035c-.016-.081-.033-.163-.052-.244H35.862a9.863,9.863,0,0,1,.246,2.185V48.916h2.575V34.079q0-.146,0-.292c0-.038,0-.076,0-.114C38.671,33.615,38.669,33.557,38.665,33.5Z" fill="#d99a4a"/>
      <path id="Trazado_154465" data-name="Trazado 154465" d="M23.678,39.955a.806.806,0,0,0,.806-.806,3.017,3.017,0,1,1,4.478,2.638.806.806,0,0,0-.415.7v.925a1.047,1.047,0,1,1-2.093,0,.806.806,0,1,0-1.611,0,2.658,2.658,0,0,0,5.316,0v-.48a4.628,4.628,0,1,0-7.286-3.788A.806.806,0,0,0,23.678,39.955Z"/>
      <path id="Trazado_154466" data-name="Trazado 154466" d="M39.483,33.767c0-.049,0-.1-.006-.146s0-.106-.007-.159-.009-.131-.014-.2c0-.034,0-.068-.008-.1-.007-.077-.014-.154-.023-.231,0-.021,0-.041-.007-.062q-.015-.13-.033-.259l0-.027A10.659,10.659,0,0,0,34.8,25.242l-2.438-1.651v-.682a2.263,2.263,0,0,0,0-4.432v-.186h.546a.806.806,0,0,0,.806-.806V11.948a2.058,2.058,0,0,0-2.056-2.056h-.81l-.16-6.778a3.189,3.189,0,0,0-6.376,0l-.16,6.778h-.81a2.058,2.058,0,0,0-2.056,2.056v5.537a.806.806,0,0,0,.806.806h.546v.186a2.263,2.263,0,0,0,0,4.432v.682L20.2,25.242a.806.806,0,1,0,.9,1.334L23.9,24.685a.806.806,0,0,0,.354-.667V22.15a.806.806,0,0,0-.806-.806H23.1a.652.652,0,1,1,0-1.3h.345a.806.806,0,0,0,.806-.806v-.944h6.5v.944a.806.806,0,0,0,.806.806H31.9a.652.652,0,1,1,0,1.3H27.1a.806.806,0,1,0,0,1.611h3.65v1.063a.806.806,0,0,0,.354.667L33.9,26.576a9.052,9.052,0,0,1,3.474,4.512H17.636a9.064,9.064,0,0,1,1.283-2.425.806.806,0,1,0-1.292-.963A10.729,10.729,0,0,0,15.8,31.639c-.008.025-.016.05-.022.077a10.739,10.739,0,0,0-.187,1.083v0q-.026.211-.043.423v.008c-.01.124-.017.248-.023.373q0,.045,0,.091c0,.128-.008.257-.008.385V50.588A4.417,4.417,0,0,0,19.924,55H35.076a4.417,4.417,0,0,0,4.412-4.412V34.079C39.488,33.975,39.486,33.871,39.483,33.767ZM25.512,11.948a1.307,1.307,0,0,1,.069-.445h1.113v5.176H25.512Zm2.794-.445h1.113a1.306,1.306,0,0,1,.069.445v4.732H28.306Zm3.8.445v4.732h-1V11.948a3.24,3.24,0,0,0-.03-.445h.588A.445.445,0,0,1,32.1,11.948Zm-6.179-8.8a1.577,1.577,0,0,1,3.154,0l.159,6.74H25.765Zm-3.025,8.8a.445.445,0,0,1,.445-.445h.588a3.24,3.24,0,0,0-.03.445v4.732h-1ZM37.771,32.7q.026.169.046.339l0,.016q.017.15.029.3,0,.033.005.067c.006.086.011.172.015.258,0,.026,0,.052,0,.078,0,.107.006.215.006.322V48.111H17.123V34.079q0-.178.007-.356c0-.026,0-.051,0-.077,0-.095.01-.189.017-.284,0-.019,0-.039.006-.058.009-.1.019-.2.031-.307l0-.021c.011-.092.025-.184.039-.276H37.771ZM35.076,53.388H19.924a2.8,2.8,0,0,1-2.8-2.8v-.866H37.877v.866A2.8,2.8,0,0,1,35.076,53.388Z"/>
    </g>
  </g>
</svg>
