<svg xmlns="http://www.w3.org/2000/svg" xmlns:xlink="http://www.w3.org/1999/xlink" width="50" height="50" viewBox="0 0 50 50">
  <defs>
    <clipPath id="clip-path">
      <rect id="Rectángulo_35718" data-name="Rectángulo 35718" width="50" height="50" transform="translate(1065 4994)" fill="#0d66bf" stroke="#707070" stroke-width="1"/>
    </clipPath>
  </defs>
  <g id="Enmascarar_grupo_74" data-name="Enmascarar grupo 74" transform="translate(-1065 -4994)" clip-path="url(#clip-path)">
    <g id="factura_2_" data-name="factura (2)" transform="translate(1065 4994)">
      <g id="Grupo_81524" data-name="Grupo 81524">
        <g id="Grupo_81523" data-name="Grupo 81523">
          <path id="Trazado_157548" data-name="Trazado 157548" d="M31.716,21.883a9.146,9.146,0,0,0-5.288,1.667H16.716a.833.833,0,1,0,0,1.667h7.915a9.117,9.117,0,0,0-1.74,3.333H16.716a.833.833,0,1,0,0,1.667h5.871c-.024.274-.038.552-.038.833a9.25,9.25,0,0,0,.342,2.5H16.716a.833.833,0,1,0,0,1.667h6.825a9.171,9.171,0,1,0,8.175-13.333Zm0,16.667a7.469,7.469,0,0,1-7.5-7.5,7.644,7.644,0,0,1,.129-1.394.934.934,0,0,0,.031-.166,7.454,7.454,0,0,1,2.745-4.382.855.855,0,0,0,.182-.136,7.5,7.5,0,1,1,4.412,13.579Z" transform="translate(-2.549 -3.549)" fill="#0d66bf"/>
          <path id="Trazado_157549" data-name="Trazado 157549" d="M38.466,27.955a.82.82,0,0,0-1.167.25l-4.417,6.667L30.3,32.288a.825.825,0,1,0-1.167,1.167l3.333,3.333a.756.756,0,0,0,.583.25.66.66,0,0,0,.667-.417l5-7.5A.82.82,0,0,0,38.466,27.955Z" transform="translate(-4.716 -4.538)" fill="#0d66bf"/>
          <path id="Trazado_157550" data-name="Trazado 157550" d="M44.883-.117h-32.5A4.126,4.126,0,0,0,8.216,4.05V38.216H2.383a2.455,2.455,0,0,0-2.5,2.5v4.167a5.015,5.015,0,0,0,5,5H36.55a4.955,4.955,0,0,0,3.333-1.333,4.756,4.756,0,0,0,1.667-3.667V11.55h5.833a2.455,2.455,0,0,0,2.5-2.5V4.883A5.015,5.015,0,0,0,44.883-.117Zm-40,48.333A3.343,3.343,0,0,1,1.55,44.883V40.716a.835.835,0,0,1,.833-.833H31.55v5a4.876,4.876,0,0,0,1.25,3.333H4.883Zm35-43.333v40a3.464,3.464,0,0,1-1.083,2.5,3.851,3.851,0,0,1-2.134.84,1.046,1.046,0,0,0-.116-.007,3.3,3.3,0,0,1-1.566-.394,3.554,3.554,0,0,1-1.767-3.106V39.05a.787.787,0,0,0-.833-.833H9.883V4.05a2.455,2.455,0,0,1,2.5-2.5h28.75a5.9,5.9,0,0,0-.444.621,4.961,4.961,0,0,0-.8,2.475Q39.883,4.764,39.883,4.883ZM48.216,9.05a.835.835,0,0,1-.833.833H41.55v-5a3.333,3.333,0,1,1,6.667,0Z" transform="translate(0.117 0.117)" fill="#0d66bf"/>
          <path id="Trazado_157551" data-name="Trazado 157551" d="M23.716,7.55h10a.787.787,0,0,0,.833-.833.787.787,0,0,0-.833-.833h-10a.787.787,0,0,0-.833.833A.787.787,0,0,0,23.716,7.55Z" transform="translate(-3.716 -0.883)" fill="#0d66bf"/>
          <path id="Trazado_157552" data-name="Trazado 157552" d="M16.716,13.55H38.383a.833.833,0,1,0,0-1.667H16.716a.833.833,0,1,0,0,1.667Z" transform="translate(-2.549 -1.883)" fill="#0d66bf"/>
          <path id="Trazado_157553" data-name="Trazado 157553" d="M16.716,19.55H38.383a.833.833,0,0,0,0-1.667H16.716a.833.833,0,1,0,0,1.667Z" transform="translate(-2.549 -2.883)" fill="#0d66bf"/>
        </g>
      </g>
    </g>
  </g>
</svg>
