<svg xmlns="http://www.w3.org/2000/svg" xmlns:xlink="http://www.w3.org/1999/xlink" width="158.333" height="142.142" viewBox="0 0 158.333 142.142">
  <defs>
    <clipPath id="clip-path">
      <rect id="Rectángulo_401437" data-name="Rectángulo 401437" width="144.335" height="133.942" fill="none"/>
    </clipPath>
    <clipPath id="clip-path-3">
      <rect id="Rectángulo_401410" data-name="Rectángulo 401410" width="98.137" height="69.967" fill="none"/>
    </clipPath>
    <clipPath id="clip-path-4">
      <path id="Trazado_874680" data-name="Trazado 874680" d="M70.5,98.162l-54,37.9a.486.486,0,0,1,.477.044l54-37.9a.608.608,0,0,0-.3-.091.357.357,0,0,0-.178.045" transform="translate(-16.503 -98.117)" fill="none"/>
    </clipPath>
    <clipPath id="clip-path-6">
      <path id="Trazado_874683" data-name="Trazado 874683" d="M34.425,142.492a.011.011,0,0,0,.007,0Zm.009-.009,0,0L93.963,101.38h0Zm59.53-41.1.009-.006a.016.016,0,0,0-.009.006" transform="translate(-34.425 -101.373)" fill="none"/>
    </clipPath>
    <clipPath id="clip-path-7">
      <path id="Trazado_874685" data-name="Trazado 874685" d="M89.059,86.045,29.521,120.636a2.121,2.121,0,0,1,2.14.2C47.858,111.424,75,95.668,91.2,86.253a2.737,2.737,0,0,0-1.347-.41,1.566,1.566,0,0,0-.793.2" transform="translate(-29.521 -85.843)" fill="none"/>
    </clipPath>
    <clipPath id="clip-path-9">
      <path id="Trazado_874692" data-name="Trazado 874692" d="M93.878,86.907c-17.939,10.424-41.419,24.056-59.359,34.481,17.94-10.425,41.42-24.057,59.359-34.481L34.34,121.489a.022.022,0,0,0,0,.013l59.538-34.59s0,0,0-.006" transform="translate(-34.34 -86.907)" fill="none"/>
    </clipPath>
    <clipPath id="clip-path-11">
      <path id="Trazado_874719" data-name="Trazado 874719" d="M84.664,206.732l.03-.013Zm83.379-66.211-93.9,39.286c1.567-.649,3.665-.4,6.37,1.316.269.168.533.36.8.566a20.463,20.463,0,0,1,5.726,7.725,20.044,20.044,0,0,1,1.834,10.606c-.475,3.493-2.038,5.8-4.183,6.7l93.868-39.27c2.16-.9,3.734-3.207,4.213-6.717a20.092,20.092,0,0,0-1.834-10.608,20.424,20.424,0,0,0-5.727-7.722c-.266-.207-.533-.4-.8-.567a8.891,8.891,0,0,0-4.651-1.647,4.432,4.432,0,0,0-1.72.332" transform="translate(-74.146 -140.189)" fill="none"/>
    </clipPath>
    <clipPath id="clip-path-13">
      <rect id="Rectángulo_401415" data-name="Rectángulo 401415" width="98.243" height="49.601" fill="none"/>
    </clipPath>
    <clipPath id="clip-path-14">
      <rect id="Rectángulo_401416" data-name="Rectángulo 401416" width="15.179" height="7.294" fill="none"/>
    </clipPath>
    <clipPath id="clip-path-15">
      <rect id="Rectángulo_401417" data-name="Rectángulo 401417" width="12.533" height="12.735" fill="none"/>
    </clipPath>
    <clipPath id="clip-path-16">
      <rect id="Rectángulo_401435" data-name="Rectángulo 401435" width="22.964" height="16.754" fill="none"/>
    </clipPath>
    <clipPath id="clip-path-18">
      <rect id="Rectángulo_401418" data-name="Rectángulo 401418" width="0.038" height="2.02" fill="none"/>
    </clipPath>
    <clipPath id="clip-path-19">
      <rect id="Rectángulo_401419" data-name="Rectángulo 401419" width="0.193" height="2.384" fill="none"/>
    </clipPath>
    <clipPath id="clip-path-20">
      <rect id="Rectángulo_401420" data-name="Rectángulo 401420" width="0.024" height="1.929" fill="none"/>
    </clipPath>
    <clipPath id="clip-path-21">
      <rect id="Rectángulo_401421" data-name="Rectángulo 401421" width="1.052" height="3.313" fill="none"/>
    </clipPath>
    <clipPath id="clip-path-22">
      <rect id="Rectángulo_401422" data-name="Rectángulo 401422" width="1.812" height="3.523" fill="none"/>
    </clipPath>
    <clipPath id="clip-path-23">
      <rect id="Rectángulo_401423" data-name="Rectángulo 401423" width="2.762" height="3.558" fill="none"/>
    </clipPath>
    <clipPath id="clip-path-24">
      <rect id="Rectángulo_401424" data-name="Rectángulo 401424" width="3.624" height="3.511" fill="none"/>
    </clipPath>
    <clipPath id="clip-path-25">
      <rect id="Rectángulo_401425" data-name="Rectángulo 401425" width="0.005" height="1.811" fill="none"/>
    </clipPath>
    <clipPath id="clip-path-26">
      <rect id="Rectángulo_401426" data-name="Rectángulo 401426" width="0.006" height="1.812" fill="none"/>
    </clipPath>
    <clipPath id="clip-path-28">
      <rect id="Rectángulo_401428" data-name="Rectángulo 401428" width="0.008" height="1.815" fill="none"/>
    </clipPath>
    <clipPath id="clip-path-29">
      <rect id="Rectángulo_401429" data-name="Rectángulo 401429" width="0.004" height="0.004" fill="none"/>
    </clipPath>
    <clipPath id="clip-path-30">
      <rect id="Rectángulo_401430" data-name="Rectángulo 401430" width="4.597" height="3.215" fill="none"/>
    </clipPath>
    <clipPath id="clip-path-31">
      <rect id="Rectángulo_401431" data-name="Rectángulo 401431" width="22.958" height="12.883" fill="none"/>
    </clipPath>
    <clipPath id="clip-path-32">
      <path id="Trazado_874742" data-name="Trazado 874742" d="M173.078,199.587Z" transform="translate(-173.078 -199.587)" fill="none"/>
    </clipPath>
    <clipPath id="clip-path-33">
      <rect id="Rectángulo_401432" data-name="Rectángulo 401432" width="14.367" height="4.669" fill="none"/>
    </clipPath>
    <clipPath id="clip-path-34">
      <rect id="Rectángulo_401433" data-name="Rectángulo 401433" width="15.112" height="8" fill="none"/>
    </clipPath>
  </defs>
  <g id="Grupo_1100064" data-name="Grupo 1100064" transform="translate(-652.5 -5153.602)">
    <g id="Grupo_1099647" data-name="Grupo 1099647" transform="translate(654 5155.102)">
      <rect id="Rectángulo_401389" data-name="Rectángulo 401389" width="155.333" height="122.912" rx="20" fill="none" stroke="#53bced" stroke-width="3"/>
      <g id="Grupo_1099584" data-name="Grupo 1099584" transform="translate(5.499 6.7)">
        <g id="Grupo_1099583" data-name="Grupo 1099583" clip-path="url(#clip-path)">
          <g id="Grupo_1099498" data-name="Grupo 1099498">
            <g id="Grupo_1099497" data-name="Grupo 1099497" clip-path="url(#clip-path)">
              <path id="Trazado_874676" data-name="Trazado 874676" d="M76.826,211.073l.014.011.187.1s0,0,0,0a2.207,2.207,0,0,1-.206-.108" transform="translate(-39.968 -109.808)" fill="#68696b"/>
              <path id="Trazado_874677" data-name="Trazado 874677" d="M76.856,211.1l.183.1s0,0,0,0Z" transform="translate(-39.983 -109.82)" fill="#68696b"/>
              <g id="Grupo_1099496" data-name="Grupo 1099496" transform="translate(7.723 39.657)" opacity="0.25">
                <g id="Grupo_1099495" data-name="Grupo 1099495">
                  <g id="Grupo_1099494" data-name="Grupo 1099494" clip-path="url(#clip-path-3)">
                    <path id="Trazado_874678" data-name="Trazado 874678" d="M16.1,131.529a1.493,1.493,0,0,0,.667,1.161l5.665,3.267L45.55,149.306l4.563,2.633a1.59,1.59,0,0,0,.439.185c1.451.757,2.774.64,3.589-.216l57.191-33.279a5.645,5.645,0,0,0,2.895-5.2c.015-4.751,0-3.773,0-6.406,0-4.309-3.173-5.4-4.548-6.2l-4.561-2.632L78.164,82.67C76.847,81.9,19.7,126.453,19.568,128.8l-3.276,2.3c.005,0,.012,0,.016-.006a.46.46,0,0,0-.21.438m.56-15.433a.426.426,0,0,0-.3,0,.418.418,0,0,1,.3,0m1.682,15.953,6.317,3.645.018.014.215.122h0l10.417,6.056Z" transform="translate(-16.098 -82.66)" fill="#020406"/>
                  </g>
                </g>
              </g>
            </g>
          </g>
          <g id="Grupo_1099500" data-name="Grupo 1099500" transform="translate(7.917 47.073)">
            <g id="Grupo_1099499" data-name="Grupo 1099499" clip-path="url(#clip-path-4)">
              <path id="Trazado_874679" data-name="Trazado 874679" d="M16.98,136.111l54-37.9a.478.478,0,0,0-.476-.046l-54,37.9a.484.484,0,0,1,.477.045" transform="translate(-16.503 -98.117)" fill="#3a4934"/>
            </g>
          </g>
          <g id="Grupo_1099502" data-name="Grupo 1099502">
            <g id="Grupo_1099501" data-name="Grupo 1099501" clip-path="url(#clip-path)">
              <path id="Trazado_874681" data-name="Trazado 874681" d="M19.068,134.618,78.606,93.505l-7.112,2.3-54,37.9Z" transform="translate(-9.103 -48.645)" fill="#3a4934"/>
            </g>
          </g>
          <g id="Grupo_1099504" data-name="Grupo 1099504" transform="translate(16.516 48.635)">
            <g id="Grupo_1099503" data-name="Grupo 1099503" clip-path="url(#clip-path-6)">
              <path id="Trazado_874682" data-name="Trazado 874682" d="M34.425,142.492,93.963,101.38a.012.012,0,0,1,.01-.007l-59.539,41.11c0,.007-.007.009-.009.009" transform="translate(-34.425 -101.373)" fill="#cfd1d4"/>
            </g>
          </g>
          <g id="Grupo_1099506" data-name="Grupo 1099506" transform="translate(14.163 41.184)">
            <g id="Grupo_1099505" data-name="Grupo 1099505" clip-path="url(#clip-path-7)">
              <path id="Trazado_874684" data-name="Trazado 874684" d="M31.661,120.84,91.2,86.252a2.128,2.128,0,0,0-2.14-.207l-59.538,34.59a2.121,2.121,0,0,1,2.14.2" transform="translate(-29.521 -85.843)" fill="#cfd1d4"/>
            </g>
          </g>
          <g id="Grupo_1099508" data-name="Grupo 1099508">
            <g id="Grupo_1099507" data-name="Grupo 1099507" clip-path="url(#clip-path)">
              <path id="Trazado_874686" data-name="Trazado 874686" d="M33.938,186.8l.018.014.221.12s0,0,0-.006a2.326,2.326,0,0,1-.242-.128" transform="translate(-17.656 -97.179)" fill="#68696b"/>
              <path id="Trazado_874687" data-name="Trazado 874687" d="M33.975,186.825l.216.122.005,0Z" transform="translate(-17.675 -97.194)" fill="#68696b"/>
              <path id="Trazado_874688" data-name="Trazado 874688" d="M27.1,117.315,86.64,82.728,80.3,79.067,20.758,113.656Z" transform="translate(-10.799 -41.134)" fill="#b1b3b6"/>
              <path id="Trazado_874689" data-name="Trazado 874689" d="M22.674,149.035l2.445,1.411.288.166c-.11-.079-.223-.154-.337-.222l-2.051-1.185a2.848,2.848,0,0,0-.344-.17" transform="translate(-11.796 -77.534)" fill="#9fa1a3"/>
              <path id="Trazado_874690" data-name="Trazado 874690" d="M21.955,161.854c.19-1.823.069-8.824-1.2-10.691l6.345,3.659c.059.035,26.3,15.318,26.363,15.338,5.848,1.421,2.84,9.777,2.836,11.619-.006,1.815-1.238,2.592-2.79,1.835-.08-.037-26.348-15.307-26.431-15.356l-6.317-3.645c.737-.473,1.055-1.437,1.192-2.76" transform="translate(-10.799 -78.641)" fill="#bbb69d"/>
            </g>
          </g>
          <g id="Grupo_1099510" data-name="Grupo 1099510" transform="translate(16.475 41.695)">
            <g id="Grupo_1099509" data-name="Grupo 1099509" clip-path="url(#clip-path-9)">
              <path id="Trazado_874691" data-name="Trazado 874691" d="M34.343,121.5l59.538-34.59s0,0,0-.005L34.339,121.49a.022.022,0,0,0,0,.013" transform="translate(-34.339 -86.908)" fill="#cfd1d4"/>
            </g>
          </g>
          <g id="Grupo_1099512" data-name="Grupo 1099512">
            <g id="Grupo_1099511" data-name="Grupo 1099511" clip-path="url(#clip-path)">
              <path id="Trazado_874693" data-name="Trazado 874693" d="M34.158,158.9a.022.022,0,0,1,0-.013l-.171-.1c.059.035.119.069.176.109" transform="translate(-17.679 -82.609)" fill="#68696b"/>
              <path id="Trazado_874694" data-name="Trazado 874694" d="M34.154,121.38,93.692,86.8l-.173-.1L33.982,121.285Z" transform="translate(-17.679 -45.103)" fill="#b1b3b6"/>
              <path id="Trazado_874695" data-name="Trazado 874695" d="M74.507,75.4a4.4,4.4,0,0,1,3.894.245l26.954,15.52,4.561,2.632L50.379,128.38l-4.562-2.635L21.779,111.957l.075-.045-2.364-1.365-2.459-1.421a.47.47,0,0,0-.477-.041Z" transform="translate(-8.612 -39.045)" fill="#505a45"/>
              <path id="Trazado_874696" data-name="Trazado 874696" d="M90.423,165.609l57.9-33.688a5.645,5.645,0,0,0,2.894-5.206c.016-4.749,0-3.772,0-6.4,0-4.31-3.173-5.4-4.548-6.2l-59.473,34.44a8.962,8.962,0,0,1,4.468,5.428c.807,3.291.018,7.339.014,8.864a3,3,0,0,1-1.253,2.761" transform="translate(-45.361 -59.367)" fill="#5a654f"/>
              <path id="Trazado_874697" data-name="Trazado 874697" d="M16.793,145.979c-.367-.208-.673-.034-.673.387a1.5,1.5,0,0,0,.671,1.162l1.542.892,31.935,18.608.172.1A5.31,5.31,0,0,1,53.6,172.07c0,2.754-.057,5.48-.06,6.763-.006,1.814-1.258,2.753-3.77,1.256L18.339,161.871l-1.57-.906c-.367-.213-.671-.038-.671.386a1.5,1.5,0,0,0,.667,1.162l5.664,3.266L45.55,179.128l4.563,2.633a1.646,1.646,0,0,0,.439.186c2.3,1.2,4.278.208,4.422-2.454.119-2.215.119-5.326.119-7.9,0-4.105-4.289-6.01-5.666-6.806l1.376.839Z" transform="translate(-8.375 -75.898)" fill="#6a7460"/>
              <path id="Trazado_874698" data-name="Trazado 874698" d="M106.073,188.1c.016-4.745,0-3.77,0-6.4,0-4.308-3.173-5.4-4.548-6.194l3.512-2.076c1.375.793,4.548,1.887,4.548,6.195,0,2.637.014,1.657,0,6.405a5.645,5.645,0,0,1-2.9,5.206l-3.172,1.848a5.686,5.686,0,0,0,2.554-4.98" transform="translate(-52.817 -90.223)" fill="#edd160"/>
              <path id="Trazado_874699" data-name="Trazado 874699" d="M54.046,61.953a.4.4,0,0,1,.4.037l1.327.765L2.081,96.778l-1.33-.766a.407.407,0,0,0-.4-.037Z" transform="translate(-0.181 -32.21)" fill="#5a3d2f"/>
              <path id="Trazado_874700" data-name="Trazado 874700" d="M4.964,119.9c.16-1.543.059-7.469-1.015-9.051l5.369,3.1c.051.031,29.351,16.854,29.408,16.872,4.951,1.2,2.4,8.273,2.4,9.834-.006,1.538-1.048,2.2-2.361,1.555-.068-.03-29.393-16.844-29.464-16.886l-5.346-3.087A2.978,2.978,0,0,0,4.964,119.9" transform="translate(-2.054 -57.667)" fill="#cfcdbf"/>
              <path id="Trazado_874701" data-name="Trazado 874701" d="M50.3,45.687a3.727,3.727,0,0,1,3.3.206L83.5,62.918l3.862,2.23L36.111,94.917l-3.859-2.228L4.814,77.129l.063-.037-2-1.155L.8,74.734a.4.4,0,0,0-.4-.035Z" transform="translate(-0.203 -23.617)" fill="#9a4d45"/>
              <path id="Trazado_874702" data-name="Trazado 874702" d="M77.258,130.651l49.86-29.013a4.773,4.773,0,0,0,2.449-4.407c.015-4.019,0-3.192,0-5.422,0-3.648-2.686-4.573-3.847-5.242l-51.6,29.493c.9.522,3.53,2.062,4.19,4.749.682,2.783.012,6.212.011,7.5a2.554,2.554,0,0,1-1.06,2.339" transform="translate(-38.559 -45.036)" fill="#bc5a51"/>
              <path id="Trazado_874703" data-name="Trazado 874703" d="M.593,106.464c-.312-.177-.572-.031-.572.327a1.27,1.27,0,0,0,.568.983l1.307.754,34.121,19.641.145.083a4.5,4.5,0,0,1,2.675,4.186c0,2.33-.048,4.638-.052,5.725,0,1.534-1.062,2.327-3.191,1.063L1.9,119.916l-1.33-.766c-.31-.18-.571-.032-.571.325a1.267,1.267,0,0,0,.568.983l4.792,2.768,26.663,15.187,3.863,2.228a1.278,1.278,0,0,0,.372.156c1.945,1.017,3.62.177,3.743-2.079.1-1.873.1-4.506.1-6.686,0-3.475-3.631-5.087-4.8-5.759l1.166.709Z" transform="translate(0 -55.348)" fill="#7f543d"/>
              <path id="Trazado_874704" data-name="Trazado 874704" d="M60.858,1.276v10.57L10.313,46.86,8.127,44.145V33.579l2.186-3.089Z" transform="translate(-4.228 -0.664)" fill="#202731"/>
              <path id="Trazado_874705" data-name="Trazado 874705" d="M151.443,86.062l-48.014,27.9a2.611,2.611,0,0,1-2.391,0v.008s-.006,0-.007-.008v1.428a2.638,2.638,0,0,0,2.391,0l48.014-27.9a.852.852,0,0,0,.5-.69V85.374a.842.842,0,0,1-.492.688" transform="translate(-52.561 -44.415)" fill="#334d58"/>
              <path id="Trazado_874706" data-name="Trazado 874706" d="M105.123,57.126a.732.732,0,0,1,.009,1.386l-48.014,27.9a2.611,2.611,0,0,1-2.391,0L12.01,61.764,62.862,32.417Z" transform="translate(-6.248 -16.865)" fill="#51717c"/>
              <path id="Trazado_874707" data-name="Trazado 874707" d="M57.639,86.1v14.719L15.7,76V61.283Z" transform="translate(-8.166 -31.882)" fill="#e0e8ed"/>
              <path id="Trazado_874708" data-name="Trazado 874708" d="M150.431,57.673v13.9L103.12,98.944V84.226Z" transform="translate(-53.647 -30.004)" fill="#adbac5"/>
              <path id="Trazado_874709" data-name="Trazado 874709" d="M58.457,62.448l-40.434-24.1,38.146-21.8L97.719,40.718Z" transform="translate(-9.376 -8.608)" fill="#7a7b7c"/>
              <path id="Trazado_874710" data-name="Trazado 874710" d="M8.051,63.413c1.349-.535,3.821.708,3.851.73l39.833,23.31.018,1.246-40.8-24.015c-1.357-.8-3.178.47-3.178,2.463v7.19a4.53,4.53,0,0,0,2.355,3.85l41.6,24.278v1.428L9.283,78.986a5.25,5.25,0,0,1-3.02-5.2l-.007-7.151s0-2.5,1.795-3.218" transform="translate(-3.255 -32.92)" fill="#334d58"/>
              <path id="Trazado_874711" data-name="Trazado 874711" d="M151.451,54.762l-48.014,27.9v-.013a2.621,2.621,0,0,1-2.391,0l.02,1.26a2.394,2.394,0,0,0,1.2.246,2.423,2.423,0,0,0,1.184-.277l.011.005,47.98-28.1a.848.848,0,0,0,.5-.689V54.075a.839.839,0,0,1-.492.688" transform="translate(-52.568 -28.132)" fill="#334d58"/>
              <path id="Trazado_874712" data-name="Trazado 874712" d="M58.386.282A2.173,2.173,0,0,1,60.417.226l.51.309-.006,0,42.254,24.7a.733.733,0,0,1,.008,1.387L55.17,54.533a2.641,2.641,0,0,1-2.393,0L13.239,31.5a8.344,8.344,0,0,0-3.072-1.113,5.72,5.72,0,0,0-1.907.582Z" transform="translate(-4.297 0)" fill="#51717c"/>
              <path id="Trazado_874713" data-name="Trazado 874713" d="M65.1,190.525a7.777,7.777,0,0,1,10.391-5.654l6.571-3.463,79.546-30.933c-.823,6.047-.393,14.9,4.47,18.65,2.447,1.883,4.833,2.343,6.707,1.566L79.875,211.918c-1.874.78-4.686.1-7.487-2.395-3.943-3.512-7.4-10.68-7.638-16.242a10.538,10.538,0,0,1,.354-2.757" transform="translate(-33.677 -78.282)" fill="#8c7e61"/>
              <path id="Trazado_874714" data-name="Trazado 874714" d="M74.5,203.194c-3.168-3.3-5.533-8.969-4.92-13.476.306-2.259,1.265-4.341,3.028-5.075l93.9-39.288c-1.765.734-2.72,2.818-3.027,5.078a15.786,15.786,0,0,0,5.456,13.227,4.009,4.009,0,0,0,3.976.853c-13.613,5.658-28.137,11.983-45.519,19.2L80,205.69c-1.179.492-3.746-.669-5.5-2.5" transform="translate(-36.149 -75.619)" fill="#a89b7c"/>
              <path id="Trazado_874715" data-name="Trazado 874715" d="M77.173,198.827l93.895-39.288a4.827,4.827,0,0,1-.34-3.263,1.709,1.709,0,0,1,.957-1.068L77.79,194.493a1.7,1.7,0,0,0-.957,1.068,4.823,4.823,0,0,0,.34,3.266" transform="translate(-39.89 -80.745)" fill="#8c7e61"/>
              <path id="Trazado_874716" data-name="Trazado 874716" d="M84.773,210.686a3.844,3.844,0,0,0,.891-.522c1.5-1.166,2.232-3.354,1.963-5.853a14.759,14.759,0,0,0-2.461-6.6,11.281,11.281,0,0,0-2.341-2.536,5.458,5.458,0,0,0-1.967-1.022,3.344,3.344,0,0,0-2.1.074c13.612-5.658,30.995-12.874,48.379-20.09l45.517-19.2a3.327,3.327,0,0,1,2.1-.077,5.541,5.541,0,0,1,1.968,1.024,11.236,11.236,0,0,1,2.339,2.534,14.744,14.744,0,0,1,2.459,6.595c.273,2.5-.461,4.689-1.96,5.856a4.094,4.094,0,0,1-.892.522c-13.613,5.661-28.138,11.984-45.522,19.2Z" transform="translate(-40.974 -80.501)" fill="#d5c999"/>
            </g>
          </g>
          <g id="Grupo_1099514" data-name="Grupo 1099514" transform="translate(35.572 67.257)">
            <g id="Grupo_1099513" data-name="Grupo 1099513" clip-path="url(#clip-path-11)">
              <path id="Trazado_874717" data-name="Trazado 874717" d="M80.516,181.122c-2.7-1.719-4.8-1.965-6.37-1.316l93.9-39.286c1.566-.652,3.665-.407,6.371,1.314,4.761,3.005,9.342,11.685,8.361,18.9-.478,3.509-2.052,5.819-4.213,6.717l-93.9,39.283c7.846-3.254,4.148-20.4-4.147-25.61" transform="translate(-74.146 -140.189)" fill="#e2dcba"/>
              <path id="Trazado_874718" data-name="Trazado 874718" d="M80.516,181.122c-2.7-1.719-4.8-1.965-6.37-1.316l93.9-39.286c1.566-.652,3.665-.407,6.371,1.314,4.761,3.005,9.342,11.685,8.361,18.9-.478,3.509-2.052,5.819-4.213,6.717l-93.9,39.283c7.846-3.254,4.148-20.4-4.147-25.61" transform="translate(-74.146 -140.189)" fill="#fcf4d1"/>
            </g>
          </g>
          <g id="Grupo_1099582" data-name="Grupo 1099582">
            <g id="Grupo_1099581" data-name="Grupo 1099581" clip-path="url(#clip-path)">
              <g id="Grupo_1099517" data-name="Grupo 1099517" transform="translate(46.09 84.199)" opacity="0.25">
                <g id="Grupo_1099516" data-name="Grupo 1099516">
                  <g id="Grupo_1099515" data-name="Grupo 1099515" clip-path="url(#clip-path-13)">
                    <path id="Trazado_874720" data-name="Trazado 874720" d="M189.967,185.82,96.069,225.1c3.474-1.44,4.682-5.608,4.232-10.256L194.238,175.5a15.986,15.986,0,0,1-.058,3.6c-.478,3.509-2.053,5.819-4.213,6.717" transform="translate(-96.069 -175.502)" fill="#9d8a62"/>
                  </g>
                </g>
              </g>
              <g id="Grupo_1099520" data-name="Grupo 1099520" transform="translate(96.625 90.45)" opacity="0.4" style="mix-blend-mode: multiply;isolation: isolate">
                <g id="Grupo_1099519" data-name="Grupo 1099519">
                  <g id="Grupo_1099518" data-name="Grupo 1099518" clip-path="url(#clip-path-14)">
                    <path id="Trazado_874721" data-name="Trazado 874721" d="M201.4,190.935a24.471,24.471,0,0,1,7.233-2.241,13.394,13.394,0,0,1,7.029.712s-5.437,1.765-4.482,2.242c.2.1,5.4,3.872,5.4,3.872a25.6,25.6,0,0,0-8.659-.713c-4.279.509-6.52,1.019-6.52,1.019Z" transform="translate(-201.402 -188.532)" fill="#8c7e61"/>
                  </g>
                </g>
              </g>
              <g id="Grupo_1099523" data-name="Grupo 1099523" transform="translate(92.446 80.526)" opacity="0.4" style="mix-blend-mode: multiply;isolation: isolate">
                <g id="Grupo_1099522" data-name="Grupo 1099522">
                  <g id="Grupo_1099521" data-name="Grupo 1099521" clip-path="url(#clip-path-15)">
                    <path id="Trazado_874722" data-name="Trazado 874722" d="M195.749,180.581s3.383-5.06,5.2-7.131a28.091,28.091,0,0,1,4.278-3.973l-6.621,1.835-1.019-3.465a17.377,17.377,0,0,0-3.974,6.623c-1.018,3.667-.916,4.788-.916,4.788Z" transform="translate(-192.691 -167.846)" fill="#8c7e61"/>
                  </g>
                </g>
              </g>
              <path id="Trazado_874723" data-name="Trazado 874723" d="M201.4,186.121a24.5,24.5,0,0,1,7.233-2.241,13.4,13.4,0,0,1,7.029.713s-5.437,1.764-4.482,2.242c.2.1,5.4,3.871,5.4,3.871a25.617,25.617,0,0,0-8.659-.713c-4.279.51-6.52,1.018-6.52,1.018Z" transform="translate(-104.777 -95.578)" fill="#ab4f46"/>
              <path id="Trazado_874724" data-name="Trazado 874724" d="M195.749,175.768s3.383-5.061,5.2-7.132a28.123,28.123,0,0,1,4.278-3.973L198.6,166.5l-1.019-3.465a17.381,17.381,0,0,0-3.974,6.623c-1.018,3.667-.916,4.787-.916,4.787Z" transform="translate(-100.245 -84.816)" fill="#ab4f46"/>
              <path id="Trazado_874725" data-name="Trazado 874725" d="M181.052,201.215c1.011-7.43-2.518-16.254-8.49-20.85a9.663,9.663,0,0,0-9.169-1.358l6.859-2.988a8.736,8.736,0,0,1,8.626,1.493c5.973,4.6,9.942,13.832,8.93,21.266-.5,3.686-2.158,6.111-4.429,7.056L178,207.6a10.448,10.448,0,0,0,3.057-6.385" transform="translate(-85.003 -91.282)" fill="#d55c59"/>
              <path id="Trazado_874726" data-name="Trazado 874726" d="M171.671,210.1c4.828,2.013,6.489-1.589,7.335-7.811,1.011-7.429-2.388-14.394-8.286-19.084-5.3-4.21-10.8-1.34-11.781.98l4.69-1.953c1.951-.712,4.374-.066,6.879,1.863,5.155,3.967,8.639,12.415,7.767,18.829a7.653,7.653,0,0,1-4.092,6.089Z" transform="translate(-82.686 -94.192)" fill="#b04f46"/>
              <g id="Grupo_1099580" data-name="Grupo 1099580" transform="translate(77.735 84.485)">
                <g id="Grupo_1099579" data-name="Grupo 1099579">
                  <g id="Grupo_1099578" data-name="Grupo 1099578" clip-path="url(#clip-path-16)">
                    <g id="Grupo_1099577" data-name="Grupo 1099577" style="isolation: isolate">
                      <g id="Grupo_1099576" data-name="Grupo 1099576">
                        <g id="Grupo_1099575" data-name="Grupo 1099575" clip-path="url(#clip-path-16)">
                          <g id="Grupo_1099526" data-name="Grupo 1099526" transform="translate(17.837 1.61)">
                            <g id="Grupo_1099525" data-name="Grupo 1099525">
                              <g id="Grupo_1099524" data-name="Grupo 1099524" clip-path="url(#clip-path-18)">
                                <path id="Trazado_874727" data-name="Trazado 874727" d="M199.206,179.663l0,1.812a.652.652,0,0,0,.034-.208l0-1.813a.648.648,0,0,1-.034.209" transform="translate(-199.206 -179.454)" fill="#543d20"/>
                              </g>
                            </g>
                          </g>
                          <g id="Grupo_1099529" data-name="Grupo 1099529" transform="translate(17.648 1.819)">
                            <g id="Grupo_1099528" data-name="Grupo 1099528">
                              <g id="Grupo_1099527" data-name="Grupo 1099527" clip-path="url(#clip-path-19)">
                                <path id="Trazado_874728" data-name="Trazado 874728" d="M198.814,180.461l.005,1.812.188-.572,0-1.812Z" transform="translate(-198.814 -179.889)" fill="#513b1e"/>
                              </g>
                            </g>
                          </g>
                          <g id="Grupo_1099532" data-name="Grupo 1099532" transform="translate(17.63 2.39)">
                            <g id="Grupo_1099531" data-name="Grupo 1099531">
                              <g id="Grupo_1099530" data-name="Grupo 1099530" clip-path="url(#clip-path-20)">
                                <path id="Trazado_874729" data-name="Trazado 874729" d="M198.775,181.2l0,1.812a.364.364,0,0,1,.019-.117l-.005-1.812a.368.368,0,0,0-.019.117" transform="translate(-198.775 -181.08)" fill="#543d20"/>
                              </g>
                            </g>
                          </g>
                          <g id="Grupo_1099535" data-name="Grupo 1099535" transform="translate(2.705 2.629)">
                            <g id="Grupo_1099534" data-name="Grupo 1099534">
                              <g id="Grupo_1099533" data-name="Grupo 1099533" clip-path="url(#clip-path-21)">
                                <path id="Trazado_874730" data-name="Trazado 874730" d="M167.666,181.595a.764.764,0,0,0,.012.109.67.67,0,0,0,.031.105.651.651,0,0,0,.05.107.889.889,0,0,0,.075.111c.019.023.038.046.06.069l.728.782a.2.2,0,0,1,.026.027.446.446,0,0,1,.028.044.267.267,0,0,1,.02.041.372.372,0,0,1,.012.04.269.269,0,0,1,0,.043v.006l.005,1.812a.021.021,0,0,1,0-.008.246.246,0,0,0,0-.041.283.283,0,0,0-.012-.041.386.386,0,0,0-.019-.04.316.316,0,0,0-.029-.043.375.375,0,0,0-.026-.031l-.728-.781a.658.658,0,0,1-.06-.07.857.857,0,0,1-.075-.111.742.742,0,0,1-.05-.107.837.837,0,0,1-.03-.105.58.58,0,0,1-.012-.108v-.016l-.006-1.812s0,.011,0,.016" transform="translate(-167.666 -181.579)" fill="#594225"/>
                              </g>
                            </g>
                          </g>
                          <g id="Grupo_1099538" data-name="Grupo 1099538" transform="translate(20.393 4.033)">
                            <g id="Grupo_1099537" data-name="Grupo 1099537">
                              <g id="Grupo_1099536" data-name="Grupo 1099536" clip-path="url(#clip-path-22)">
                                <path id="Trazado_874731" data-name="Trazado 874731" d="M204.825,185.809l.932-.508a.983.983,0,0,0,.585-.8l.005,1.813a.985.985,0,0,1-.585.8l-.931.508a.5.5,0,0,0-.291.405l-.005-1.811a.5.5,0,0,1,.29-.408" transform="translate(-204.535 -184.505)" fill="#543d20"/>
                              </g>
                            </g>
                          </g>
                          <g id="Grupo_1099541" data-name="Grupo 1099541" transform="translate(0 5.775)">
                            <g id="Grupo_1099540" data-name="Grupo 1099540">
                              <g id="Grupo_1099539" data-name="Grupo 1099539" clip-path="url(#clip-path-23)">
                                <path id="Trazado_874732" data-name="Trazado 874732" d="M162.029,188.151a.6.6,0,0,0,.012.108.675.675,0,0,0,.03.105.736.736,0,0,0,.051.108.789.789,0,0,0,.076.113,1,1,0,0,0,.119.13,1.493,1.493,0,0,0,.242.179,2.189,2.189,0,0,0,.448.2c.036.012.071.022.108.032l1.209.334.049.014a.924.924,0,0,1,.189.085.605.605,0,0,1,.1.074.412.412,0,0,1,.051.054.291.291,0,0,1,.032.048.33.33,0,0,1,.021.046l.01.029c0,.007,0,.012,0,.018a.247.247,0,0,1,.006.048v.087l0,1.731v-.008a.26.26,0,0,0,0-.047s0-.012,0-.017a.214.214,0,0,0-.009-.028.255.255,0,0,0-.022-.047.337.337,0,0,0-.032-.048.518.518,0,0,0-.05-.053.63.63,0,0,0-.1-.074.913.913,0,0,0-.189-.085c-.015-.006-.032-.01-.048-.014l-1.209-.334c-.037-.01-.074-.021-.11-.033a2.057,2.057,0,0,1-.447-.2,1.469,1.469,0,0,1-.243-.178,1.287,1.287,0,0,1-.119-.129,1,1,0,0,1-.076-.114.72.72,0,0,1-.05-.107.745.745,0,0,1-.031-.106.722.722,0,0,1-.012-.107v-.017l-.005-1.811v.016" transform="translate(-162.029 -188.135)" fill="#594225"/>
                              </g>
                            </g>
                          </g>
                          <g id="Grupo_1099544" data-name="Grupo 1099544" transform="translate(19.341 7.511)">
                            <g id="Grupo_1099543" data-name="Grupo 1099543">
                              <g id="Grupo_1099542" data-name="Grupo 1099542" clip-path="url(#clip-path-24)">
                                <path id="Trazado_874733" data-name="Trazado 874733" d="M202.434,193.23a.59.59,0,0,1,.155-.124.791.791,0,0,1,.124-.059c.034-.014.07-.025.106-.037s.062-.015.093-.023l.087-.014.084-.01h.006l1.176-.088.03,0c.063-.005.124-.012.184-.02s.127-.02.189-.033.137-.031.2-.049c.082-.023.161-.05.235-.08a2.007,2.007,0,0,0,.281-.134,1.105,1.105,0,0,0,.548-.618.692.692,0,0,0,.025-.184l.005,1.812a.671.671,0,0,1-.025.182,1.1,1.1,0,0,1-.548.619,2.025,2.025,0,0,1-.281.134,2.183,2.183,0,0,1-.236.078c-.065.019-.133.037-.2.051s-.125.023-.189.033-.121.015-.183.021a.159.159,0,0,0-.03,0l-1.177.088h0c-.029,0-.057.005-.084.01l-.088.014-.093.023c-.037.011-.072.023-.107.036a.836.836,0,0,0-.123.06.605.605,0,0,0-.155.123.336.336,0,0,0-.093.224l-.005-1.812a.341.341,0,0,1,.093-.223" transform="translate(-202.341 -191.754)" fill="#5d4529"/>
                              </g>
                            </g>
                          </g>
                          <g id="Grupo_1099547" data-name="Grupo 1099547" transform="translate(19.435 9.447)">
                            <g id="Grupo_1099546" data-name="Grupo 1099546">
                              <g id="Grupo_1099545" data-name="Grupo 1099545" clip-path="url(#clip-path-25)">
                                <path id="Trazado_874734" data-name="Trazado 874734" d="M202.538,195.789l0,1.81h0l-.005-1.811Z" transform="translate(-202.538 -195.789)" fill="#644a2e"/>
                              </g>
                            </g>
                          </g>
                          <g id="Grupo_1099550" data-name="Grupo 1099550" transform="translate(19.435 9.448)">
                            <g id="Grupo_1099549" data-name="Grupo 1099549">
                              <g id="Grupo_1099548" data-name="Grupo 1099548" clip-path="url(#clip-path-26)">
                                <path id="Trazado_874735" data-name="Trazado 874735" d="M202.538,195.79l.005,1.811h0l-.005-1.811h0" transform="translate(-202.538 -195.79)" fill="#62492c"/>
                              </g>
                            </g>
                          </g>
                          <g id="Grupo_1099553" data-name="Grupo 1099553" transform="translate(19.436 9.448)">
                            <g id="Grupo_1099552" data-name="Grupo 1099552">
                              <g id="Grupo_1099551" data-name="Grupo 1099551" clip-path="url(#clip-path-26)">
                                <path id="Trazado_874736" data-name="Trazado 874736" d="M202.54,195.791l.005,1.811h0Z" transform="translate(-202.54 -195.791)" fill="#644a2e"/>
                              </g>
                            </g>
                          </g>
                          <g id="Grupo_1099556" data-name="Grupo 1099556" transform="translate(19.436 9.448)">
                            <g id="Grupo_1099555" data-name="Grupo 1099555">
                              <g id="Grupo_1099554" data-name="Grupo 1099554" clip-path="url(#clip-path-28)">
                                <path id="Trazado_874737" data-name="Trazado 874737" d="M202.54,195.791l.006,1.812,0,0,0-1.811,0,0" transform="translate(-202.54 -195.791)" fill="#644a2e"/>
                              </g>
                            </g>
                          </g>
                          <g id="Grupo_1099559" data-name="Grupo 1099559" transform="translate(19.435 9.447)">
                            <g id="Grupo_1099558" data-name="Grupo 1099558">
                              <g id="Grupo_1099557" data-name="Grupo 1099557" clip-path="url(#clip-path-29)">
                                <path id="Trazado_874738" data-name="Trazado 874738" d="M202.542,195.793l0,0h0l0,0" transform="translate(-202.538 -195.789)" fill="#513b1e"/>
                              </g>
                            </g>
                          </g>
                          <g id="Grupo_1099562" data-name="Grupo 1099562" transform="translate(0.851 9.246)">
                            <g id="Grupo_1099561" data-name="Grupo 1099561">
                              <g id="Grupo_1099560" data-name="Grupo 1099560" clip-path="url(#clip-path-30)">
                                <path id="Trazado_874739" data-name="Trazado 874739" d="M163.8,195.386a.587.587,0,0,0,.011.1.776.776,0,0,0,.03.1.792.792,0,0,0,.05.107.808.808,0,0,0,.077.113l.032.04a1.153,1.153,0,0,0,.086.088,1.431,1.431,0,0,0,.234.173,2.009,2.009,0,0,0,.437.194,2.764,2.764,0,0,0,.353.088q.119.022.243.034c.069.007.139.011.209.014s.128,0,.191,0,.124-.005.185-.009l.075-.008,1.354-.148.037,0c.027,0,.055,0,.084,0h.088l.1.006c.037,0,.074.01.111.016a1.135,1.135,0,0,1,.163.04.965.965,0,0,1,.193.084l.012.007a.705.705,0,0,1,.11.082.68.68,0,0,1,.055.058c.012.018.024.034.035.052a.407.407,0,0,1,.023.049.287.287,0,0,1,.013.048.23.23,0,0,1,.005.051v.006l0,1.719v.085a.264.264,0,0,0-.006-.05.275.275,0,0,0-.013-.048.413.413,0,0,0-.023-.049.319.319,0,0,0-.036-.052.506.506,0,0,0-.054-.059.773.773,0,0,0-.109-.082l-.012-.007a1.115,1.115,0,0,0-.194-.086c-.052-.015-.107-.03-.162-.04-.036-.007-.073-.011-.111-.014s-.064-.007-.1-.007H167.5l-.084.005-.037,0-1.353.148-.076.007c-.061.005-.122.009-.184.01s-.128,0-.191,0-.14-.006-.21-.013-.164-.02-.243-.034a2.891,2.891,0,0,1-.354-.088,2.172,2.172,0,0,1-.437-.193,1.611,1.611,0,0,1-.233-.174,1.065,1.065,0,0,1-.086-.088l-.033-.041a.907.907,0,0,1-.077-.113.694.694,0,0,1-.049-.106.677.677,0,0,1-.03-.1.577.577,0,0,1-.012-.105.063.063,0,0,1,0-.016l0-1.812s0,.01,0,.016" transform="translate(-163.801 -195.37)" fill="#594225"/>
                              </g>
                            </g>
                          </g>
                          <g id="Grupo_1099565" data-name="Grupo 1099565" transform="translate(0 3.871)" opacity="0.3" style="mix-blend-mode: multiply;isolation: isolate">
                            <g id="Grupo_1099564" data-name="Grupo 1099564">
                              <g id="Grupo_1099563" data-name="Grupo 1099563" clip-path="url(#clip-path-31)">
                                <path id="Trazado_874740" data-name="Trazado 874740" d="M165.093,194.471a2.463,2.463,0,0,1-2.014-.574c-.377-.433-.21-.942.387-1.286l1.081-.591a.374.374,0,0,0,.229-.4.594.594,0,0,0-.452-.35l-1.209-.334c-.748-.2-1.2-.677-1.062-1.173a1.072,1.072,0,0,1,.537-.608,2.625,2.625,0,0,1,1.109-.316l1.432-.109a1.008,1.008,0,0,0,.428-.121.543.543,0,0,0,.139-.11.277.277,0,0,0-.009-.4l-.728-.782c-.391-.415-.278-.944.33-1.294a2.967,2.967,0,0,1,2.233-.185l1.183.372a1.448,1.448,0,0,0,.812.008.961.961,0,0,0,.218-.093.479.479,0,0,0,.25-.292l.16-.69a1.07,1.07,0,0,1,.553-.646,2.639,2.639,0,0,1,1.062-.313,2.454,2.454,0,0,1,2.042.624l.286.351a1.352,1.352,0,0,0,.917.4,1.872,1.872,0,0,0,1.09-.215l.555-.338a3.009,3.009,0,0,1,2.211-.2c.771.228,1.156.717,1,1.186l-.189.572c-.063.19.033.4.289.544a1.591,1.591,0,0,0,.941.17l1.121-.12a2.434,2.434,0,0,1,2,.571c.373.427.209.933-.386,1.275l-.932.508a.455.455,0,0,0-.279.491.721.721,0,0,0,.546.426l.907.25c.757.207,1.218.685,1.076,1.188a1.1,1.1,0,0,1-.547.618,2.68,2.68,0,0,1-1.121.32l-1.176.088a1.219,1.219,0,0,0-.5.142.6.6,0,0,0-.156.125.329.329,0,0,0,0,.461c.415.5.26,1.122-.459,1.536a3.67,3.67,0,0,1-2.753.232l-.379-.119a.8.8,0,0,0-.45,0c-.127.038-.18-.151-.214-.118l-.209.908a1.1,1.1,0,0,1-.568.664,2.689,2.689,0,0,1-1.095.321,2.516,2.516,0,0,1-2.1-.642l-.191-.23a2.032,2.032,0,0,0-1.143-.453,1.94,1.94,0,0,0-1.065.191c-.08.048-.162.1-.248.147a2.751,2.751,0,0,1-2.105.471c-.865-.256-1.3-.807-1.124-1.335l.089-.274c.052-.156-.029-.325-.238-.447a1.332,1.332,0,0,0-.771-.14Zm5.731,1.44-.013.008a.1.1,0,0,0-.018.012l.031-.019" transform="translate(-162.028 -184.167)" fill="#8c7e61"/>
                              </g>
                            </g>
                          </g>
                          <g id="Grupo_1099568" data-name="Grupo 1099568" transform="translate(5.301 11.269)">
                            <g id="Grupo_1099567" data-name="Grupo 1099567">
                              <g id="Grupo_1099566" data-name="Grupo 1099566" clip-path="url(#clip-path-32)">
                                <path id="Trazado_874741" data-name="Trazado 874741" d="M173.078,199.587" transform="translate(-173.078 -199.587)" fill="#543d20"/>
                              </g>
                            </g>
                          </g>
                          <g id="Grupo_1099571" data-name="Grupo 1099571" transform="translate(5.301 10.027)">
                            <g id="Grupo_1099570" data-name="Grupo 1099570">
                              <g id="Grupo_1099569" data-name="Grupo 1099569" clip-path="url(#clip-path-33)">
                                <path id="Trazado_874743" data-name="Trazado 874743" d="M173.126,198.484a.967.967,0,0,0,.144.252,1.381,1.381,0,0,0,.134.145,1.731,1.731,0,0,0,.265.2,2.417,2.417,0,0,0,.5.224l.07.021a1.467,1.467,0,0,0,.176.043c.046.008.092.014.138.018s.077.007.116.01h.111l.114-.007c.041,0,.082-.008.123-.014s.1-.016.146-.025.123-.028.185-.046a3.05,3.05,0,0,0,.3-.1,5.253,5.253,0,0,0,.7-.348c.086-.049.168-.1.248-.147a1.442,1.442,0,0,1,.153-.07c.05-.02.1-.038.157-.054s.088-.023.135-.033l.126-.021c.04-.006.082-.011.123-.014s.082-.006.124-.006a1.286,1.286,0,0,1,.129,0c.039,0,.079,0,.118.007h.007c.055,0,.111.013.169.024a2.689,2.689,0,0,1,.344.086,2.032,2.032,0,0,1,.436.191.946.946,0,0,1,.141.1c.017.018.033.034.047.05l.191.23a1.239,1.239,0,0,0,.112.119,1.532,1.532,0,0,0,.248.184,2.164,2.164,0,0,0,.469.21,2.9,2.9,0,0,0,.373.093c.082.013.165.026.251.034.071.007.142.012.215.014s.133,0,.2,0,.131,0,.2-.009l.031,0c.057,0,.111-.011.166-.018s.133-.022.2-.034.141-.033.208-.052a2.462,2.462,0,0,0,.237-.08,2.114,2.114,0,0,0,.286-.137,1.1,1.1,0,0,0,.568-.665l.21-.908,0,0h.007a.01.01,0,0,1,.007,0s0,0,.007.006c.018.016.04.051.07.08a.212.212,0,0,0,.029.022l.024.012.014,0,.008,0h.02l.007,0h.008l.009,0h0c.018,0,.035-.009.053-.012a.358.358,0,0,1,.049-.008.321.321,0,0,1,.048-.006l.048,0h.048l.052,0c.02,0,.04.005.06.008a.8.8,0,0,1,.084.021.007.007,0,0,1,.006,0l.379.117a3.166,3.166,0,0,0,.42.1c.1.018.2.032.3.043s.171.014.257.016.158,0,.237,0,.152-.007.228-.012.15-.015.225-.025.154-.024.229-.04.163-.037.241-.059c.1-.028.19-.06.282-.1a2.613,2.613,0,0,0,.338-.161,1.165,1.165,0,0,0,.686-.959l.005,1.811a1.163,1.163,0,0,1-.686.959,2.511,2.511,0,0,1-.339.163,2.928,2.928,0,0,1-.281.094c-.079.023-.159.043-.241.06s-.153.029-.23.04-.149.017-.225.026-.151.009-.227.012-.157,0-.237,0-.171-.008-.257-.016-.2-.025-.3-.042a3.334,3.334,0,0,1-.42-.1l-.379-.118h-.006a.734.734,0,0,0-.085-.021l-.059-.008-.051,0a.208.208,0,0,0-.049,0,.393.393,0,0,0-.048,0l-.047,0a.41.41,0,0,0-.048.009l-.053.012h0l-.009,0h-.042l-.015,0a.1.1,0,0,1-.024-.012.132.132,0,0,1-.03-.022c-.029-.027-.052-.064-.069-.08a.036.036,0,0,1-.008-.006h-.017l-.208.908a1.1,1.1,0,0,1-.569.664,2,2,0,0,1-.286.137c-.075.03-.155.056-.238.081-.067.019-.136.036-.208.05s-.13.025-.2.035-.109.014-.166.019c-.01,0-.021,0-.031,0-.065.006-.131.008-.2.01s-.134,0-.2,0-.144-.008-.214-.014c-.086-.009-.169-.02-.251-.036a2.948,2.948,0,0,1-.373-.092,2.289,2.289,0,0,1-.468-.209,1.637,1.637,0,0,1-.248-.185,1.054,1.054,0,0,1-.113-.119l-.191-.229a.347.347,0,0,0-.047-.05.848.848,0,0,0-.14-.1,2.134,2.134,0,0,0-.436-.192,2.868,2.868,0,0,0-.345-.085c-.057-.011-.114-.02-.168-.025h-.007c-.04,0-.08-.006-.118-.007s-.087,0-.129,0-.083,0-.124.008l-.123.013c-.043.007-.085.013-.126.022s-.092.021-.136.034a1.517,1.517,0,0,0-.155.053,1.627,1.627,0,0,0-.154.07c-.079.048-.161.1-.247.147a5.271,5.271,0,0,1-.7.348c-.1.038-.2.071-.3.1-.061.018-.123.034-.184.046s-.1.019-.147.026l-.123.014-.112.006a1.065,1.065,0,0,1-.111,0c-.04,0-.078,0-.117-.008a1.325,1.325,0,0,1-.138-.02,1.434,1.434,0,0,1-.176-.041l-.071-.023a2.324,2.324,0,0,1-.5-.222,1.626,1.626,0,0,1-.265-.2,1.17,1.17,0,0,1-.134-.143,1.251,1.251,0,0,1-.087-.13.776.776,0,0,1-.057-.122.846.846,0,0,1-.035-.121.882.882,0,0,1-.014-.122v-.02l0-1.581v-.211a.64.64,0,0,0,.014.122.659.659,0,0,0,.034.122" transform="translate(-173.078 -196.997)" fill="#543d20"/>
                              </g>
                            </g>
                          </g>
                          <path id="Trazado_874744" data-name="Trazado 874744" d="M165.093,186.4a2.462,2.462,0,0,1-2.014-.575c-.377-.432-.21-.939.387-1.285l1.081-.591a.374.374,0,0,0,.229-.4.6.6,0,0,0-.452-.35l-1.209-.334c-.748-.2-1.2-.676-1.062-1.173a1.075,1.075,0,0,1,.537-.609,2.625,2.625,0,0,1,1.109-.315l1.432-.108a1.029,1.029,0,0,0,.428-.121.546.546,0,0,0,.139-.111.275.275,0,0,0-.009-.4l-.728-.782c-.391-.415-.278-.944.33-1.295a2.967,2.967,0,0,1,2.233-.184l1.183.371a1.435,1.435,0,0,0,.812.008.961.961,0,0,0,.218-.092.479.479,0,0,0,.25-.293l.16-.688a1.073,1.073,0,0,1,.553-.647,2.662,2.662,0,0,1,1.062-.313,2.457,2.457,0,0,1,2.042.624l.286.352a1.349,1.349,0,0,0,.917.4,1.857,1.857,0,0,0,1.09-.215l.555-.339a3.012,3.012,0,0,1,2.211-.2c.771.228,1.156.718,1,1.186l-.189.571c-.063.191.033.4.289.546a1.6,1.6,0,0,0,.941.169l1.121-.122a2.441,2.441,0,0,1,2,.572c.373.427.209.932-.386,1.274l-.932.508a.455.455,0,0,0-.279.492.718.718,0,0,0,.546.426l.907.25c.757.206,1.218.684,1.076,1.188a1.1,1.1,0,0,1-.547.618,2.68,2.68,0,0,1-1.121.318l-1.176.088a1.242,1.242,0,0,0-.5.144.585.585,0,0,0-.156.124.329.329,0,0,0,0,.461c.415.5.26,1.121-.459,1.537a3.667,3.667,0,0,1-2.753.23l-.379-.117a.79.79,0,0,0-.45,0c-.127.039-.18-.15-.214-.118l-.209.907a1.1,1.1,0,0,1-.568.665,2.689,2.689,0,0,1-1.095.321,2.514,2.514,0,0,1-2.1-.641l-.191-.23a2.026,2.026,0,0,0-1.143-.454,1.954,1.954,0,0,0-1.065.191c-.08.048-.162.1-.248.147a2.745,2.745,0,0,1-2.105.47c-.865-.256-1.3-.806-1.124-1.333l.089-.273c.052-.159-.029-.327-.238-.448a1.317,1.317,0,0,0-.771-.14Zm5.731,1.44-.013.007-.018.011.031-.018" transform="translate(-162.028 -176.098)" fill="#875140"/>
                          <g id="Grupo_1099574" data-name="Grupo 1099574" transform="translate(3.672 2.72)">
                            <g id="Grupo_1099573" data-name="Grupo 1099573">
                              <g id="Grupo_1099572" data-name="Grupo 1099572" clip-path="url(#clip-path-34)">
                                <path id="Trazado_874745" data-name="Trazado 874745" d="M169.682,185.767c0,2.21,3.383,4,7.557,4s7.555-1.79,7.555-4-3.383-4-7.555-4-7.557,1.791-7.557,4" transform="translate(-169.682 -181.767)" fill="#dba64a"/>
                              </g>
                            </g>
                          </g>
                        </g>
                      </g>
                    </g>
                  </g>
                </g>
              </g>
            </g>
          </g>
        </g>
      </g>
    </g>
  </g>
</svg>
