<svg xmlns="http://www.w3.org/2000/svg" xmlns:xlink="http://www.w3.org/1999/xlink" width="55" height="55" viewBox="0 0 55 55">
  <defs>
    <clipPath id="clip-path">
      <rect id="Rectángulo_35048" data-name="Rectángulo 35048" width="55" height="55" transform="translate(600 1501)" fill="#fff505"/>
    </clipPath>
  </defs>
  <g id="Enmascarar_grupo_58" data-name="Enmascarar grupo 58" transform="translate(-600 -1501)" clip-path="url(#clip-path)">
    <g id="locion" transform="translate(600 1501)">
      <g id="Grupo_80952" data-name="Grupo 80952">
        <path id="Trazado_154429" data-name="Trazado 154429" d="M32.4,22.914a11.01,11.01,0,0,1,5.664,9.619v18a3.669,3.669,0,0,1-3.657,3.66H18.117a3.669,3.669,0,0,1-3.657-3.66v-18a11.066,11.066,0,0,1,5.67-9.625,1.193,1.193,0,0,0,.731-1.206V19.574h10.8V21.7a1.227,1.227,0,0,0,.737,1.212Z" fill="#fbf7f8" fill-rule="evenodd"/>
        <path id="Trazado_154430" data-name="Trazado 154430" d="M32.4,22.914a11.01,11.01,0,0,1,5.664,9.619v18a3.669,3.669,0,0,1-3.657,3.66H18.117a3.673,3.673,0,0,1-3.5-2.607H31.8a3.671,3.671,0,0,0,3.657-3.66v-15.4c0-4.12-2.284-6.7-5.664-8.578a1.227,1.227,0,0,1-.737-1.212V20.1h2.607v1.6a1.227,1.227,0,0,0,.737,1.212Z" fill="#eceaed" fill-rule="evenodd"/>
        <path id="Trazado_154431" data-name="Trazado 154431" d="M24.162,2.384h4.2v9.933h-4.2Z" fill="#cac5cb" fill-rule="evenodd"/>
        <path id="Trazado_154432" data-name="Trazado 154432" d="M22.438,10.74h7.649a1.582,1.582,0,0,1,1.577,1.577V16.94h-10.8V12.317A1.582,1.582,0,0,1,22.438,10.74Z" fill="#eceaed" fill-rule="evenodd"/>
        <path id="Trazado_154433" data-name="Trazado 154433" d="M20.861,16.416h10.8a1.841,1.841,0,0,1,0,3.682h-10.8a1.841,1.841,0,0,1,0-3.682Z" fill="#cac5cb" fill-rule="evenodd"/>
        <path id="Trazado_154434" data-name="Trazado 154434" d="M19.405,3.959a1.576,1.576,0,1,1,0-3.152h14.61a7.646,7.646,0,0,1,6.236,3.228,1.571,1.571,0,1,1-2.561,1.821,4.551,4.551,0,0,0-1.611-1.4,4.483,4.483,0,0,0-2.065-.5Z" fill="#dad8db"/>
        <g id="Grupo_80951" data-name="Grupo 80951">
          <path id="Trazado_154435" data-name="Trazado 154435" d="M14.46,34.394H38.065v9.455H14.46Z" fill="#ff9ba7" fill-rule="evenodd"/>
          <path id="Trazado_154436" data-name="Trazado 154436" d="M26.263,48.645c3.837,0,6.964-4.278,6.964-9.522S30.1,29.6,26.262,29.6,19.3,33.876,19.3,39.123s3.127,9.522,6.964,9.522Z" fill="#ffe177" fill-rule="evenodd"/>
          <path id="Trazado_154437" data-name="Trazado 154437" d="M28.954,30.335c2.509,1.44,4.272,4.832,4.272,8.785,0,5.262-3.118,9.525-6.964,9.525a6.391,6.391,0,0,1-5.3-3.347,5.374,5.374,0,0,0,2.692.74c3.846,0,6.964-4.263,6.964-9.525a11.742,11.742,0,0,0-1.666-6.178Z" fill="#ffd05a" fill-rule="evenodd"/>
          <path id="Trazado_154438" data-name="Trazado 154438" d="M26.263,38.094a2.422,2.422,0,1,0-2.421-2.424,2.428,2.428,0,0,0,2.421,2.424Z" fill="#ffb357" fill-rule="evenodd"/>
          <path id="Trazado_154439" data-name="Trazado 154439" d="M27.493,13.809H20.861v2.607h10.8v-4.1a1.582,1.582,0,0,0-1.577-1.577H29.058v1.507A1.568,1.568,0,0,1,27.493,13.809Z" fill="#dad8db" fill-rule="evenodd"/>
          <path id="Trazado_154440" data-name="Trazado 154440" d="M35.459,34.394h2.607v9.455H35.459Z" fill="#ff7e92" fill-rule="evenodd"/>
        </g>
      </g>
      <path id="Trazado_154441" data-name="Trazado 154441" d="M37.261,40.947a.805.805,0,1,1,1.611,0v9.589A4.476,4.476,0,0,1,34.408,55H18.117a4.476,4.476,0,0,1-4.464-4.464v-18a11.75,11.75,0,0,1,1.861-6.346,11.964,11.964,0,0,1,4.54-4.153V20.776a2.648,2.648,0,0,1,0-5.039v-3.42a2.386,2.386,0,0,1,2.384-2.381h.916V4.765H19.405a2.383,2.383,0,1,1,0-4.765h5.033a.805.805,0,0,1,0,1.611H19.405a.773.773,0,0,0-.548,1.318.787.787,0,0,0,.548.225h14.61A5.437,5.437,0,0,1,35.27,3.3a5.189,5.189,0,0,1,1.179.438,5.327,5.327,0,0,1,1.047.71,5.408,5.408,0,0,1,.846.938.771.771,0,0,0,1.133.137A.772.772,0,0,0,39.6,4.5a6.82,6.82,0,0,0-2.445-2.125A6.7,6.7,0,0,0,35.629,1.8a6.793,6.793,0,0,0-1.614-.192H28.087a.805.805,0,0,1,0-1.611h5.929a8.513,8.513,0,0,1,1.991.241,8.42,8.42,0,0,1,3.548,1.836,8.5,8.5,0,0,1,1.352,1.492,2.376,2.376,0,0,1-3.828,2.814,5.806,5.806,0,0,0-.639-.716,3.759,3.759,0,0,0-.728-.5,3.588,3.588,0,0,0-.813-.3,3.715,3.715,0,0,0-.883-.1H29.171V9.936h.917a2.386,2.386,0,0,1,2.384,2.381v3.42a2.648,2.648,0,0,1,0,5.039v1.258a11.965,11.965,0,0,1,4.54,4.153,11.751,11.751,0,0,1,1.86,6.346V37.3a.805.805,0,1,1-1.611,0V35.2H33.455a13.643,13.643,0,0,1,0,7.841h3.806V40.947Zm-11.934.77a.805.805,0,0,1,0-1.611H27.2a.805.805,0,0,1,0,1.611Zm-.871,3.13a.807.807,0,0,1,0-1.614h3.611a.807.807,0,0,1,0,1.614Zm1.806-12.406a3.228,3.228,0,1,1-2.284.947A3.22,3.22,0,0,1,26.263,32.442ZM27.4,34.528a1.614,1.614,0,1,0,.475,1.142,1.608,1.608,0,0,0-.475-1.142Zm3.133-1.666a5.4,5.4,0,0,0-4.275-2.457A5.151,5.151,0,0,0,22.438,32.3a9.846,9.846,0,0,0-2.214,5.113.8.8,0,0,1-1.593-.219,12.9,12.9,0,0,1,.442-1.991h-3.81v7.841h3.81a12.9,12.9,0,0,1-.442-1.991.8.8,0,0,1,1.593-.219,9.845,9.845,0,0,0,2.214,5.113,5.151,5.151,0,0,0,3.825,1.894,5.4,5.4,0,0,0,4.275-2.457,11.35,11.35,0,0,0,0-12.518Zm2.293.728h4.431V32.534a10.123,10.123,0,0,0-1.6-5.475,10.305,10.305,0,0,0-4.309-3.782.8.8,0,0,1-.487-.74V20.9h-9.2v1.635a.808.808,0,0,1-.463.731,10.274,10.274,0,0,0-4.333,3.791,10.122,10.122,0,0,0-1.6,5.475V33.59H19.7a10.018,10.018,0,0,1,1.541-2.354,6.719,6.719,0,0,1,5.024-2.442,6.962,6.962,0,0,1,5.573,3.118,10.569,10.569,0,0,1,1,1.678ZM19.7,44.653H15.264v5.883a2.864,2.864,0,0,0,2.853,2.853H34.408a2.864,2.864,0,0,0,2.853-2.853V44.653H32.831a10.552,10.552,0,0,1-1,1.678,6.962,6.962,0,0,1-5.573,3.118,6.719,6.719,0,0,1-5.024-2.442A10.024,10.024,0,0,1,19.7,44.653ZM27.56,4.765H24.965V9.936H27.56Zm-5.9,10.847h9.2V12.317a.774.774,0,0,0-.228-.545.766.766,0,0,0-.545-.225H22.438a.766.766,0,0,0-.545.225.774.774,0,0,0-.228.545Zm10,1.611h-10.8a1.034,1.034,0,0,0,0,2.068h10.8a1.034,1.034,0,0,0,0-2.068Z"/>
    </g>
  </g>
</svg>
