<svg xmlns="http://www.w3.org/2000/svg" xmlns:xlink="http://www.w3.org/1999/xlink" width="170" height="154.784" viewBox="0 0 170 154.784">
  <defs>
    <clipPath id="clip-path">
      <rect id="Rectángulo_401387" data-name="Rectángulo 401387" width="137.882" height="141.163" fill="none"/>
    </clipPath>
    <clipPath id="clip-path-3">
      <rect id="Rectángulo_401331" data-name="Rectángulo 401331" width="3.403" height="34.506" fill="none"/>
    </clipPath>
    <clipPath id="clip-path-4">
      <rect id="Rectángulo_401332" data-name="Rectángulo 401332" width="40.71" height="58.438" fill="none"/>
    </clipPath>
    <clipPath id="clip-path-5">
      <rect id="Rectángulo_401333" data-name="Rectángulo 401333" width="37.389" height="21.586" fill="none"/>
    </clipPath>
    <clipPath id="clip-path-6">
      <rect id="Rectángulo_401334" data-name="Rectángulo 401334" width="29.558" height="17.066" fill="none"/>
    </clipPath>
    <clipPath id="clip-path-7">
      <rect id="Rectángulo_401335" data-name="Rectángulo 401335" width="1.989" height="11.729" fill="none"/>
    </clipPath>
    <clipPath id="clip-path-8">
      <rect id="Rectángulo_401336" data-name="Rectángulo 401336" width="1.612" height="4.605" fill="none"/>
    </clipPath>
    <clipPath id="clip-path-9">
      <rect id="Rectángulo_401337" data-name="Rectángulo 401337" width="1.511" height="12.232" fill="none"/>
    </clipPath>
    <clipPath id="clip-path-10">
      <rect id="Rectángulo_401339" data-name="Rectángulo 401339" width="1.892" height="1.535" fill="none"/>
    </clipPath>
    <clipPath id="clip-path-11">
      <rect id="Rectángulo_401340" data-name="Rectángulo 401340" width="1.792" height="1.651" fill="none"/>
    </clipPath>
    <clipPath id="clip-path-12">
      <rect id="Rectángulo_401342" data-name="Rectángulo 401342" width="1.884" height="1.544" fill="none"/>
    </clipPath>
    <clipPath id="clip-path-13">
      <rect id="Rectángulo_401343" data-name="Rectángulo 401343" width="1.728" height="1.717" fill="none"/>
    </clipPath>
    <clipPath id="clip-path-14">
      <rect id="Rectángulo_401345" data-name="Rectángulo 401345" width="1.795" height="1.647" fill="none"/>
    </clipPath>
    <clipPath id="clip-path-16">
      <rect id="Rectángulo_401347" data-name="Rectángulo 401347" width="21.723" height="45.013" fill="none"/>
    </clipPath>
    <clipPath id="clip-path-18">
      <rect id="Rectángulo_401349" data-name="Rectángulo 401349" width="43.481" height="25.149" fill="none"/>
    </clipPath>
    <clipPath id="clip-path-20">
      <rect id="Rectángulo_401352" data-name="Rectángulo 401352" width="1.647" height="1.871" fill="none"/>
    </clipPath>
    <clipPath id="clip-path-21">
      <rect id="Rectángulo_401353" data-name="Rectángulo 401353" width="1.58" height="1.928" fill="none"/>
    </clipPath>
    <clipPath id="clip-path-22">
      <rect id="Rectángulo_401355" data-name="Rectángulo 401355" width="1.585" height="1.924" fill="none"/>
    </clipPath>
    <clipPath id="clip-path-23">
      <rect id="Rectángulo_401356" data-name="Rectángulo 401356" width="1.637" height="1.88" fill="none"/>
    </clipPath>
    <clipPath id="clip-path-24">
      <rect id="Rectángulo_401358" data-name="Rectángulo 401358" width="1.573" height="1.933" fill="none"/>
    </clipPath>
    <clipPath id="clip-path-25">
      <rect id="Rectángulo_401359" data-name="Rectángulo 401359" width="1.668" height="1.852" fill="none"/>
    </clipPath>
    <clipPath id="clip-path-26">
      <rect id="Rectángulo_401361" data-name="Rectángulo 401361" width="1.591" height="1.919" fill="none"/>
    </clipPath>
    <clipPath id="clip-path-27">
      <rect id="Rectángulo_401362" data-name="Rectángulo 401362" width="1.626" height="1.89" fill="none"/>
    </clipPath>
    <clipPath id="clip-path-28">
      <rect id="Rectángulo_401364" data-name="Rectángulo 401364" width="1.574" height="1.933" fill="none"/>
    </clipPath>
    <clipPath id="clip-path-29">
      <rect id="Rectángulo_401365" data-name="Rectángulo 401365" width="1.665" height="1.855" fill="none"/>
    </clipPath>
    <clipPath id="clip-path-30">
      <rect id="Rectángulo_401367" data-name="Rectángulo 401367" width="1.613" height="1.9" fill="none"/>
    </clipPath>
    <clipPath id="clip-path-31">
      <rect id="Rectángulo_401368" data-name="Rectángulo 401368" width="1.601" height="1.911" fill="none"/>
    </clipPath>
    <clipPath id="clip-path-32">
      <rect id="Rectángulo_401370" data-name="Rectángulo 401370" width="1.596" height="1.915" fill="none"/>
    </clipPath>
    <clipPath id="clip-path-33">
      <rect id="Rectángulo_401371" data-name="Rectángulo 401371" width="1.619" height="1.896" fill="none"/>
    </clipPath>
    <clipPath id="clip-path-34">
      <rect id="Rectángulo_401373" data-name="Rectángulo 401373" width="1.606" height="1.906" fill="none"/>
    </clipPath>
    <clipPath id="clip-path-35">
      <rect id="Rectángulo_401374" data-name="Rectángulo 401374" width="1.607" height="1.905" fill="none"/>
    </clipPath>
    <clipPath id="clip-path-36">
      <rect id="Rectángulo_401376" data-name="Rectángulo 401376" width="1.606" height="1.907" fill="none"/>
    </clipPath>
    <clipPath id="clip-path-37">
      <rect id="Rectángulo_401377" data-name="Rectángulo 401377" width="1.608" height="1.905" fill="none"/>
    </clipPath>
    <clipPath id="clip-path-38">
      <rect id="Rectángulo_401379" data-name="Rectángulo 401379" width="1.602" height="1.91" fill="none"/>
    </clipPath>
    <clipPath id="clip-path-39">
      <rect id="Rectángulo_401380" data-name="Rectángulo 401380" width="1.612" height="1.902" fill="none"/>
    </clipPath>
    <clipPath id="clip-path-40">
      <rect id="Rectángulo_401382" data-name="Rectángulo 401382" width="1.654" height="1.865" fill="none"/>
    </clipPath>
    <clipPath id="clip-path-41">
      <rect id="Rectángulo_401383" data-name="Rectángulo 401383" width="1.577" height="1.93" fill="none"/>
    </clipPath>
  </defs>
  <g id="Grupo_1100062" data-name="Grupo 1100062" transform="translate(-641.5 -3774.396)">
    <g id="Grupo_1099652" data-name="Grupo 1099652" transform="translate(643 3775.896)">
      <rect id="Rectángulo_401330" data-name="Rectángulo 401330" width="167" height="132.143" rx="20" fill="none" stroke="#53bced" stroke-width="3"/>
      <g id="Grupo_1099440" data-name="Grupo 1099440" transform="translate(21.481 12.121)">
        <g id="Grupo_1099439" data-name="Grupo 1099439" clip-path="url(#clip-path)">
          <g id="Grupo_1099438" data-name="Grupo 1099438">
            <g id="Grupo_1099437" data-name="Grupo 1099437" clip-path="url(#clip-path)">
              <path id="Trazado_874409" data-name="Trazado 874409" d="M156.629,111.085,137.944,100.3C134,98.02,134.5,94,139.054,91.372s11.515-2.919,15.462-.642L173.2,101.518c3.946,2.278,3.447,6.295-1.11,8.927s-11.515,2.919-15.461.64" transform="translate(-41.539 -27.387)" fill="#ff725d" opacity="0.5"/>
              <path id="Trazado_874410" data-name="Trazado 874410" d="M162.824,141.707c-.01-.006-1.883.2-1.895.194-3.85-2.223-10.9-2.357-17.53,1.075-6.959,3.6-16.966,10.888-20.919,12.078s-7.764.662-11.849,3.021c-.3.173-.618.373-.946.589l-19.3,11.258,25.654,14.323a48.308,48.308,0,0,0,10.029-5.443c2.893-2.1,6.367-4.186,9.383-8.255a41.645,41.645,0,0,0,4.661-8.361c2.772-5.438,8.888-7.588,19.429-10.294,7.234-1.857,7.633-7.674,3.287-10.184" transform="translate(-27.752 -43.081)" fill="#ff725d" opacity="0.5"/>
              <path id="Trazado_874411" data-name="Trazado 874411" d="M20.626,167.413a1.207,1.207,0,0,1,1.511-.782L39.316,172.1l18.276-5.169a1.2,1.2,0,1,1,.655,2.314l-14.77,4.178,9.1,2.9L64,170.593a1.2,1.2,0,1,1,1.078,2.152L55.86,177.36l.913.29a1.2,1.2,0,0,1-.729,2.293L52.777,178.9l-20.2,10.119a1.2,1.2,0,0,1-1.078-2.152l17.992-9.012-10.217-3.251-16,4.527a1.2,1.2,0,0,1-.655-2.315l12.5-3.535-13.707-4.361a1.207,1.207,0,0,1-.782-1.511" transform="translate(-6.316 -51.147)" fill="#ff725d" opacity="0.5"/>
              <path id="Trazado_874412" data-name="Trazado 874412" d="M108.221,107.178,72.682,128.342.652,86.756,36.191,65.592Z" transform="translate(-0.2 -20.14)" fill="#ff725d" opacity="0.5"/>
              <path id="Trazado_874413" data-name="Trazado 874413" d="M109.491,34.979,84.857,28.008V56.46a2.889,2.889,0,0,0,1.72,2.888l18.95,10.94a8.684,8.684,0,0,0,3.964,1,11.913,11.913,0,0,0,6.185-1.417c1.7-.983,2.539-2.26,2.469-3.454h0l.006-28.984Z" transform="translate(-26.048 -8.6)" fill="#ff8bac"/>
              <path id="Trazado_874414" data-name="Trazado 874414" d="M128.1,40.241l-3.4-.963-4.275-1.209v36.3a12.7,12.7,0,0,0,4.275-.589,9.867,9.867,0,0,0,1.91-.828A6.475,6.475,0,0,0,128.1,71.8a3.134,3.134,0,0,0,.977-2.3h0l.006-28.984Z" transform="translate(-36.975 -11.689)" fill="#f5729d"/>
              <g id="Grupo_1099316" data-name="Grupo 1099316" transform="translate(87.718 27.589)" opacity="0.7" style="mix-blend-mode: multiply;isolation: isolate">
                <g id="Grupo_1099315" data-name="Grupo 1099315">
                  <g id="Grupo_1099314" data-name="Grupo 1099314" clip-path="url(#clip-path-3)">
                    <path id="Trazado_874415" data-name="Trazado 874415" d="M126.587,39.814V74.32a9.887,9.887,0,0,0,1.91-.828,6.47,6.47,0,0,0,1.493-1.156V40.777Z" transform="translate(-126.587 -39.814)" fill="#ffd2e3"/>
                  </g>
                </g>
              </g>
              <path id="Trazado_874416" data-name="Trazado 874416" d="M105.526,38.832,86.576,27.892c-2.591-1.5-2.263-4.133.728-5.86s7.8-2.115,10.391-.619c0,0,12.467,7.241,16.569,9.609.635.367,2.742,1.922,2.975,2.14,1.632,1.531,1.054,3.738-1.564,5.25-2.991,1.727-7.559,1.916-10.15.421" transform="translate(-26.047 -6.29)" fill="#ffabc7"/>
              <path id="Trazado_874417" data-name="Trazado 874417" d="M105.43,35.591,89.876,26.612c-2.126-1.228-1.857-3.392.6-4.81s6.2-1.573,8.33-.345l16.569,9.609c2.127,1.228,1.857,3.392-.6,4.81s-7.22.943-9.346-.285" transform="translate(-27.157 -6.334)" fill="#ffcade"/>
              <path id="Trazado_874418" data-name="Trazado 874418" d="M105.9,59.27c0,5.68-3.454,8.291-7.714,5.832S90.47,56.043,90.47,50.363s3.454-8.291,7.714-5.832S105.9,53.59,105.9,59.27" transform="translate(-27.779 -13.389)" fill="#422938"/>
              <path id="Trazado_874419" data-name="Trazado 874419" d="M101.132,66.175a6.465,6.465,0,0,1-3.2-.96C93.6,62.717,90.082,56,90.082,50.243c0-3.085,1.021-5.444,2.8-6.471,1.487-.859,3.375-.714,5.317.407,4.327,2.5,7.848,9.215,7.848,14.972,0,3.085-1.021,5.444-2.8,6.472a4.182,4.182,0,0,1-2.116.553M95,43.758a3.64,3.64,0,0,0-1.847.48c-1.609.929-2.532,3.118-2.532,6.005,0,5.586,3.4,12.093,7.579,14.506,1.769,1.021,3.465,1.166,4.779.407,1.608-.929,2.531-3.118,2.531-6.006,0-5.585-3.4-12.093-7.579-14.505A5.942,5.942,0,0,0,95,43.758" transform="translate(-27.66 -13.27)" fill="#fff"/>
              <path id="Trazado_874420" data-name="Trazado 874420" d="M93.286,57.836c0-.256.081-.339.242-.245a1.483,1.483,0,0,1,.318.292,1.528,1.528,0,0,0,.341.306.256.256,0,0,0,.313-.065.979.979,0,0,0,.263-.457,4.159,4.159,0,0,0,.194-1.229A7.014,7.014,0,0,0,94.8,55.06a15.5,15.5,0,0,0-.383-1.509q-.226-.733-.457-1.469a10.024,10.024,0,0,1-.54-2.932q-.006-1.124.53-1.452a.623.623,0,0,1,.667.049,1.281,1.281,0,0,1,.378.362,1.553,1.553,0,0,1,.257.523l-.183.2a1.23,1.23,0,0,1-.421-.382.293.293,0,0,0-.347.051,1.169,1.169,0,0,0-.267.865,7.028,7.028,0,0,0,.116,1.247,9.9,9.9,0,0,0,.289,1.2q.173.555.373,1.2t.378,1.242a9.445,9.445,0,0,1,.4,2.685,3.191,3.191,0,0,1-.352,1.576.791.791,0,0,1-.462.4.809.809,0,0,1-.657-.117,2.092,2.092,0,0,1-.612-.507.839.839,0,0,1-.224-.459" transform="translate(-28.644 -14.623)" fill="#fff"/>
              <path id="Trazado_874421" data-name="Trazado 874421" d="M100.146,57.564l-.094,1.76v.063a4.419,4.419,0,0,0-.068.822,2.592,2.592,0,0,1-.121.823,1.124,1.124,0,0,1-.367.552.452.452,0,0,1-.541.02,1.576,1.576,0,0,1-.536-.576,4.19,4.19,0,0,1-.4-.913,10.513,10.513,0,0,1-.279-1.155q-.121-.648-.186-1.236T97.446,56.5q-.063-.968-.06-1.481t0-.884c0-.247-.008-.471-.01-.668v-.707c0-.274.01-.517.018-.732s.025-.442.047-.684a6.008,6.008,0,0,1,.087-.622,2.8,2.8,0,0,1,.142-.489,1.053,1.053,0,0,1,.209-.349.46.46,0,0,1,.6-.057,2.039,2.039,0,0,1,.583.5,2.7,2.7,0,0,1,.407.764q.165.459.288.874a6.131,6.131,0,0,1,.195,1.068q.071.654.113,1.057t.058,1.133q.021.972.02,1.511Zm-.953-5.8a3.059,3.059,0,0,0-.268-.722.973.973,0,0,0-.318-.383.208.208,0,0,0-.259,0,.681.681,0,0,0-.174.317,5.1,5.1,0,0,0-.126.5,5.649,5.649,0,0,0-.084.663q-.029.386-.05.7c-.011.209-.019.442-.026.7q-.01.647-.015,1.007v.063q0,.959.109,2.134t.229,1.949a8.733,8.733,0,0,0,.317,1.385,1.348,1.348,0,0,0,.447.752q.215.125.362-.33a5.692,5.692,0,0,0,.211-1.224q.1-1.368.107-1.944t0-.844c0-.178-.007-.439-.016-.783s-.024-.67-.044-.978-.049-.653-.082-1.031-.077-.724-.131-1.035-.118-.61-.189-.9" transform="translate(-29.899 -15.274)" fill="#fff"/>
              <path id="Trazado_874422" data-name="Trazado 874422" d="M104.451,64.747a.612.612,0,0,1-.331-.562v-1.87a2.906,2.906,0,0,0-.549-.555,8.711,8.711,0,0,0-.708-.534,1.975,1.975,0,0,0-.181.624q-.07.436-.147.875a1.923,1.923,0,0,1-.2.647.846.846,0,0,1-.473-.56,13.24,13.24,0,0,0,.478-2.589q.331-2.394.544-3.731a18.426,18.426,0,0,1,.459-2.19q.246-.852.473-.722a.966.966,0,0,1,.346.326q0,.511.211,2.888t.21,3.039q0,.662.113,2.265t.113,2.373q0,.483-.357.277M104,59.8q-.1-1.326-.171-2.522t-.076-1.438c0-.161,0-.252.006-.274a8.209,8.209,0,0,0-.486,2.29q-.318,2.156-.34,2.767a4.4,4.4,0,0,0,.749.593,1.952,1.952,0,0,0,.428.205q-.016-.3-.11-1.621" transform="translate(-31.277 -16.446)" fill="#fff"/>
              <path id="Trazado_874423" data-name="Trazado 874423" d="M107.128,65.412l.053-5.09a38.745,38.745,0,0,0-.278-5.281.284.284,0,0,1,.414-.082,2.5,2.5,0,0,1,.728.658,3.968,3.968,0,0,1,.533.938A5.678,5.678,0,0,1,109,58.671a3.717,3.717,0,0,1-.342,1.711,1.3,1.3,0,0,1-1,.755l.085,4.518c0,.4-.119.526-.358.389a.459.459,0,0,1-.195-.263,1.165,1.165,0,0,1-.063-.369m.5-4.983a2.185,2.185,0,0,0,.82-1.958v-.007a3.775,3.775,0,0,0-.147-1.213c-.049-.131-.089-.234-.118-.31a2.592,2.592,0,0,0-.182-.339q-.162-.269-.5-.786,0,.757.064,2.306t.062,2.306" transform="translate(-32.825 -16.858)" fill="#fff"/>
              <path id="Trazado_874424" data-name="Trazado 874424" d="M99.713,21.084v6.8c0,1.695,2.583,3.07,5.771,3.07s5.771-1.375,5.771-3.07v-6.8Z" transform="translate(-30.617 -6.474)" fill="#422938"/>
              <path id="Trazado_874425" data-name="Trazado 874425" d="M103.169,21.084h-1.6v8.728a6.37,6.37,0,0,0,1.6.726Z" transform="translate(-31.186 -6.474)" fill="#281723"/>
              <path id="Trazado_874426" data-name="Trazado 874426" d="M113.932,21.084h-3.42v9.731a6.24,6.24,0,0,0,3.42-1.529Z" transform="translate(-33.933 -6.474)" fill="#281723"/>
              <path id="Trazado_874427" data-name="Trazado 874427" d="M105.484,16.654c3.187,0,5.771,1.374,5.771,3.07s-2.584,3.069-5.771,3.069-5.771-1.374-5.771-3.069,2.584-3.07,5.771-3.07" transform="translate(-30.617 -5.114)" fill="#56384b"/>
              <path id="Trazado_874428" data-name="Trazado 874428" d="M103.392,8.386v8.34c0,.94,1.432,1.7,3.2,1.7s3.2-.762,3.2-1.7V8.386Z" transform="translate(-31.747 -2.575)" fill="#422938"/>
              <path id="Trazado_874429" data-name="Trazado 874429" d="M105.392,8.386h-1.218v9.288a3.39,3.39,0,0,0,1.218.57Z" transform="translate(-31.987 -2.575)" fill="#281723"/>
              <path id="Trazado_874430" data-name="Trazado 874430" d="M109.767,8.386V18.3a3.389,3.389,0,0,0,1.55-.723V8.386Z" transform="translate(-33.704 -2.575)" fill="#281723"/>
              <path id="Trazado_874431" data-name="Trazado 874431" d="M106.59,5.931c1.766,0,3.2.762,3.2,1.7s-1.432,1.7-3.2,1.7-3.2-.762-3.2-1.7,1.432-1.7,3.2-1.7" transform="translate(-31.747 -1.821)" fill="#56384b"/>
              <path id="Trazado_874432" data-name="Trazado 874432" d="M103.3,1.924a11.137,11.137,0,0,1-4.713,2.893c-3.3.742-7.013,1.148-8.963,2.435a11.444,11.444,0,0,0-2.854,2.557l3.021,1.744a8.945,8.945,0,0,1,3.829-1.985c2.651-.582,8.755-.737,10.965-1.965a11.15,11.15,0,0,0,2.992-2.373,1.919,1.919,0,0,0,.507-1.374A1.509,1.509,0,0,0,107.5,2.7c-.9-.7-4.2-.78-4.2-.78" transform="translate(-26.642 -0.591)" fill="#422b2b"/>
              <path id="Trazado_874433" data-name="Trazado 874433" d="M103.946.126a1.011,1.011,0,0,0-1.167.134,10.281,10.281,0,0,1-4.2,2.4c-3.3.742-7.013,1.148-8.963,2.435a11.447,11.447,0,0,0-2.854,2.557L89.788,9.4A8.941,8.941,0,0,1,93.616,7.41c2.65-.582,8.754-.737,10.964-1.965a11.169,11.169,0,0,0,2.987-2.366.69.69,0,0,0-.191-1.054Z" transform="translate(-26.642 0)" fill="#56384b"/>
              <path id="Trazado_874434" data-name="Trazado 874434" d="M89.788,12.786v1.567l-3.021-1.743V11.043Z" transform="translate(-26.642 -3.391)" fill="#422938"/>
              <path id="Trazado_874435" data-name="Trazado 874435" d="M89.65,13.176v.917l-2.375-1.371V11.8Z" transform="translate(-26.798 -3.625)" fill="#422b2b"/>
              <g id="Grupo_1099319" data-name="Grupo 1099319" transform="translate(95.284 24.13)" opacity="0.5">
                <g id="Grupo_1099318" data-name="Grupo 1099318">
                  <g id="Grupo_1099317" data-name="Grupo 1099317" clip-path="url(#clip-path-4)">
                    <path id="Trazado_874436" data-name="Trazado 874436" d="M177.606,51.534c-.2-1.889-.434-3.025-1.2-3.93a6.363,6.363,0,0,0-1.685-1.426L157.5,36.239c-3.636-2.1-10.046-1.834-14.245.59a6.64,6.64,0,0,0-3.287,3.535c-1.7,5.786-4.482,31.339-.188,39.772h0a4.274,4.274,0,0,0,2.179,2.569l16,9.239c3.38,1.951,9.339,1.7,13.242-.549a6.023,6.023,0,0,0,3.143-3.626c0-.011.011-.021.016-.032,4.957-10.741,3.978-29.059,3.235-36.2" transform="translate(-137.506 -34.822)" fill="#fff"/>
                  </g>
                </g>
              </g>
              <path id="Trazado_874437" data-name="Trazado 874437" d="M177.493,70.339l-37.467-8.387c-.693,5.668,1.232,23.29,2.03,25.04l.01.012a4.083,4.083,0,0,0,1.922,2.1l14.685,8.478c3.1,1.791,8.571,1.565,12.152-.5a5.586,5.586,0,0,0,2.872-3.267h0s4.207-13.576,3.792-23.476" transform="translate(-42.95 -19.023)" fill="#d994e0"/>
              <path id="Trazado_874438" data-name="Trazado 874438" d="M159.8,72.7l-17.252-9.96c-3.644-2.1-3.183-5.812,1.025-8.242s10.632-2.7,14.275-.592l17.252,9.96c3.643,2.1,3.183,5.812-1.025,8.242s-10.632,2.7-14.276.591" transform="translate(-43.015 -16.118)" fill="#e9adf2"/>
              <g id="Grupo_1099322" data-name="Grupo 1099322" transform="translate(97.562 24.13)" opacity="0.5">
                <g id="Grupo_1099321" data-name="Grupo 1099321">
                  <g id="Grupo_1099320" data-name="Grupo 1099320" clip-path="url(#clip-path-5)">
                    <path id="Trazado_874439" data-name="Trazado 874439" d="M160.461,54.992l-17.215-9.938c-3.636-2.1-3.176-5.8,1.023-8.225s10.609-2.689,14.245-.59l17.215,9.939c3.636,2.1,3.176,5.8-1.023,8.225s-10.609,2.691-14.245.59" transform="translate(-140.793 -34.822)" fill="#fff"/>
                  </g>
                </g>
              </g>
              <g id="Grupo_1099325" data-name="Grupo 1099325" transform="translate(101.842 24.766)" opacity="0.5">
                <g id="Grupo_1099324" data-name="Grupo 1099324">
                  <g id="Grupo_1099323" data-name="Grupo 1099323" clip-path="url(#clip-path-6)">
                    <path id="Trazado_874440" data-name="Trazado 874440" d="M162.519,51.686,148.91,43.829c-2.874-1.66-2.511-4.586.809-6.5s8.387-2.127,11.262-.467l13.609,7.857c2.874,1.66,2.511,4.586-.809,6.5s-8.387,2.127-11.262.467" transform="translate(-146.97 -35.74)" fill="#fff"/>
                  </g>
                </g>
              </g>
              <path id="Trazado_874441" data-name="Trazado 874441" d="M157.809,91.488l-7.965-4.6c-2.183-1.26-3.969-4.673-3.969-7.584V63.525c0-2.91,1.786-4.261,3.969-3l7.965,4.6c2.183,1.26,3.969,4.673,3.969,7.583V88.487c0,2.91-1.786,4.261-3.969,3" transform="translate(-44.791 -18.439)" fill="#c1e6f4"/>
              <path id="Trazado_874442" data-name="Trazado 874442" d="M159.229,92.146a3.5,3.5,0,0,1-1.735-.518l-7.965-4.6c-2.28-1.317-4.136-4.849-4.136-7.873V63.376a3.845,3.845,0,0,1,1.544-3.493,2.865,2.865,0,0,1,2.926.2l7.965,4.6c2.28,1.317,4.136,4.849,4.136,7.873V88.339a3.844,3.844,0,0,1-1.544,3.494,2.357,2.357,0,0,1-1.19.313m-11.1-31.906a1.689,1.689,0,0,0-.857.222,3.222,3.222,0,0,0-1.211,2.915V79.158c0,2.811,1.706,6.083,3.8,7.294l7.965,4.6a2.237,2.237,0,0,0,2.258.2,3.225,3.225,0,0,0,1.21-2.915V72.558c0-2.811-1.705-6.083-3.8-7.293l-7.965-4.6a2.844,2.844,0,0,0-1.4-.425" transform="translate(-44.643 -18.291)" fill="#fff"/>
              <path id="Trazado_874443" data-name="Trazado 874443" d="M154.718,69.156s3.853,9.535,3.853,15.154-2.4,5.41-3.853,4.571-3.853-3.4-3.853-9.019,3.853-10.705,3.853-10.705" transform="translate(-46.324 -21.235)" fill="#8ec6ef"/>
              <path id="Trazado_874444" data-name="Trazado 874444" d="M154.45,73.066A19.175,19.175,0,0,0,152.019,81c-.319,4.525,2.176,5.758,2.432,3.583s.032-6.909,0-11.516" transform="translate(-46.669 -22.435)" fill="#fff"/>
              <path id="Trazado_874445" data-name="Trazado 874445" d="M158.679,33.575v8.437c0,2.1,3.206,3.809,7.161,3.809S173,44.115,173,42.012V33.575Z" transform="translate(-48.723 -10.309)" fill="#c1e6f4"/>
              <g id="Grupo_1099328" data-name="Grupo 1099328" transform="translate(111.55 23.266)" opacity="0.5">
                <g id="Grupo_1099327" data-name="Grupo 1099327">
                  <g id="Grupo_1099326" data-name="Grupo 1099326" clip-path="url(#clip-path-7)">
                    <path id="Trazado_874446" data-name="Trazado 874446" d="M162.968,33.575h-1.989v10.83a7.86,7.86,0,0,0,1.989.9Z" transform="translate(-160.979 -33.575)" fill="#fff"/>
                  </g>
                </g>
              </g>
              <path id="Trazado_874447" data-name="Trazado 874447" d="M176.323,33.575h-4.244V45.65a7.749,7.749,0,0,0,4.244-1.9Z" transform="translate(-52.838 -10.309)" fill="#8ec6ef"/>
              <path id="Trazado_874448" data-name="Trazado 874448" d="M165.84,28.078c3.955,0,7.161,1.705,7.161,3.809S169.795,35.7,165.84,35.7s-7.161-1.705-7.161-3.809,3.206-3.809,7.161-3.809" transform="translate(-48.723 -8.621)" fill="#fff"/>
              <path id="Trazado_874449" data-name="Trazado 874449" d="M160.372,30.138v1.936c0,1.705,2.6,3.088,5.8,3.088s5.8-1.382,5.8-3.088V30.138Z" transform="translate(-49.243 -9.254)" fill="#c1e6f4"/>
              <g id="Grupo_1099331" data-name="Grupo 1099331" transform="translate(112.421 20.884)" opacity="0.5">
                <g id="Grupo_1099330" data-name="Grupo 1099330">
                  <g id="Grupo_1099329" data-name="Grupo 1099329" clip-path="url(#clip-path-8)">
                    <path id="Trazado_874450" data-name="Trazado 874450" d="M163.848,30.138h-1.612v3.876a6.37,6.37,0,0,0,1.612.729Z" transform="translate(-162.236 -30.138)" fill="#fff"/>
                  </g>
                </g>
              </g>
              <path id="Trazado_874451" data-name="Trazado 874451" d="M174.674,30.138h-3.44v4.886a6.276,6.276,0,0,0,3.44-1.539Z" transform="translate(-52.578 -9.254)" fill="#8ec6ef"/>
              <path id="Trazado_874452" data-name="Trazado 874452" d="M166.177,25.682c3.206,0,5.8,1.382,5.8,3.088s-2.6,3.088-5.8,3.088-5.8-1.382-5.8-3.088,2.6-3.088,5.8-3.088" transform="translate(-49.243 -7.886)" fill="#fff"/>
              <path id="Trazado_874453" data-name="Trazado 874453" d="M163.033,14.607v10.35c0,1.165,1.777,2.11,3.968,2.11s3.969-.945,3.969-2.11V14.607Z" transform="translate(-50.06 -4.485)" fill="#c1e6f4"/>
              <g id="Grupo_1099334" data-name="Grupo 1099334" transform="translate(113.646 10.122)" opacity="0.5">
                <g id="Grupo_1099333" data-name="Grupo 1099333">
                  <g id="Grupo_1099332" data-name="Grupo 1099332" clip-path="url(#clip-path-9)">
                    <path id="Trazado_874454" data-name="Trazado 874454" d="M165.515,14.607H164V26.132a4.225,4.225,0,0,0,1.511.707Z" transform="translate(-164.004 -14.607)" fill="#fff"/>
                  </g>
                </g>
              </g>
              <path id="Trazado_874455" data-name="Trazado 874455" d="M170.944,14.607v12.3a4.2,4.2,0,0,0,1.924-.9v-11.4Z" transform="translate(-52.489 -4.485)" fill="#8ec6ef"/>
              <path id="Trazado_874456" data-name="Trazado 874456" d="M167,11.561c2.192,0,3.969.945,3.969,2.111s-1.777,2.111-3.969,2.111-3.968-.944-3.968-2.111,1.776-2.111,3.968-2.111" transform="translate(-50.06 -3.55)" fill="#56384b"/>
              <path id="Trazado_874457" data-name="Trazado 874457" d="M162.914,6.589s-2.739,2.89-5.848,3.589c-4.1.922-8.7,1.425-11.122,3.022a14.209,14.209,0,0,0-3.542,3.173l3.748,2.164a11.106,11.106,0,0,1,4.751-2.463c3.289-.722,10.863-.915,13.606-2.438a13.831,13.831,0,0,0,3.714-2.945,2.383,2.383,0,0,0,.629-1.7,1.872,1.872,0,0,0-.723-1.43c-1.116-.863-5.214-.967-5.214-.967" transform="translate(-43.725 -2.023)" fill="#8ec6ef"/>
              <path id="Trazado_874458" data-name="Trazado 874458" d="M163.72,4.357a1.254,1.254,0,0,0-1.448.167A12.746,12.746,0,0,1,157.066,7.5c-4.1.921-8.7,1.425-11.122,3.022A14.209,14.209,0,0,0,142.4,13.7l3.748,2.164A11.11,11.11,0,0,1,150.9,13.4c3.289-.722,10.863-.915,13.606-2.438a13.837,13.837,0,0,0,3.705-2.936.854.854,0,0,0-.236-1.307Z" transform="translate(-43.725 -1.29)" fill="#c1e6f4"/>
              <path id="Trazado_874459" data-name="Trazado 874459" d="M146.152,20.067v1.944L142.4,19.848V17.9Z" transform="translate(-43.726 -5.497)" fill="#8ec6ef"/>
              <path id="Trazado_874460" data-name="Trazado 874460" d="M145.981,20.551v1.139l-2.946-1.7V18.85Z" transform="translate(-43.919 -5.788)" fill="#8ec6ef"/>
              <path id="Trazado_874461" data-name="Trazado 874461" d="M104.36,73.468,75.313,90.239,10.77,52.975,39.817,36.2Z" transform="translate(-3.307 -11.117)" fill="#c1e6f4"/>
              <path id="Trazado_874462" data-name="Trazado 874462" d="M132.96,89.981l-29.048,16.771v25.491l29.048-16.771Z" transform="translate(-31.907 -27.629)" fill="#8ec6ef"/>
              <path id="Trazado_874463" data-name="Trazado 874463" d="M10.769,60.406V85.9l64.543,37.265V97.67Z" transform="translate(-3.307 -18.548)" fill="#a4dcff"/>
              <path id="Trazado_874464" data-name="Trazado 874464" d="M44.747,65.562,81.955,87.044l18.463-10.66c1.237-.714,1.082-1.961-.346-2.786L44.747,41.658a5.363,5.363,0,0,0-4.825-.2L19.95,52.988c-1.237.714-1.082,1.961.346,2.786l18.116,10.46,1.509-.872a5.363,5.363,0,0,1,4.825.2" transform="translate(-5.869 -12.582)" fill="#8ec6ef"/>
              <path id="Trazado_874465" data-name="Trazado 874465" d="M89,98.508l1.509-.871L53.3,76.155a5.363,5.363,0,0,0-4.825-.2l-1.509.872L84.172,98.308a5.363,5.363,0,0,0,4.826.2" transform="translate(-14.42 -23.174)" fill="#bbdefc"/>
              <path id="Trazado_874466" data-name="Trazado 874466" d="M132.96,118.546l-29.048,16.771v5.7l29.048-16.771Z" transform="translate(-31.907 -36.4)" fill="#281723"/>
              <path id="Trazado_874467" data-name="Trazado 874467" d="M10.769,94.669v-5.7l64.543,37.264v5.7Z" transform="translate(-3.307 -27.319)" fill="#422938"/>
              <path id="Trazado_874468" data-name="Trazado 874468" d="M101.064,78.921a4.606,4.606,0,0,0-2.747-1.283c.011-.046.029-.091.037-.137a2.287,2.287,0,0,0-.867-2.168,3.236,3.236,0,0,0-3.5-.278,1.8,1.8,0,0,0-.549-1.026,1.709,1.709,0,0,0-1.274-.384,2.691,2.691,0,0,0-.853-2.039,1.931,1.931,0,0,0-2.372-.042,1.721,1.721,0,0,0-.708-1.055,1.335,1.335,0,0,0-1.113-.052,2.937,2.937,0,0,0-1.424-2.152,1.884,1.884,0,0,0-1.807.121A2.467,2.467,0,0,0,83,66.741a2.251,2.251,0,0,0-2.565-.015,1.436,1.436,0,0,0-.429-.748,1.47,1.47,0,0,0-1.281-.261,2.248,2.248,0,0,0-1.264-1.493,2.165,2.165,0,0,0-1.876.318,1.741,1.741,0,0,0-.642-1.278,1.6,1.6,0,0,0-1.339-.29c-.031.008-.065.023-.1.033a2.729,2.729,0,0,0-1.532-1.917,2.773,2.773,0,0,0-2.007,0,4.658,4.658,0,0,0-.71.353,1.908,1.908,0,0,0-.675-.824,1.854,1.854,0,0,0-1.421-.17,2.76,2.76,0,0,0-1.554-2.2,2.8,2.8,0,0,0-1.92-.029,1.5,1.5,0,0,0-.425-.863,1.27,1.27,0,0,0-1-.349,1.581,1.581,0,0,0-.177.028,1.864,1.864,0,0,0-2.8-1.847,2.543,2.543,0,0,0-3.425-2.714,1.466,1.466,0,0,0-.508-.813,1.4,1.4,0,0,0-1.319-.216A3.985,3.985,0,0,0,52.222,49.6a2.814,2.814,0,0,0-2.878.335,1.617,1.617,0,0,0-.561-.6,1.96,1.96,0,0,0-1.846-.008,1.361,1.361,0,0,0-.674-.67,1.189,1.189,0,0,0-1.278.18,2.451,2.451,0,0,0-2.707-1.27,3.576,3.576,0,0,0-2.154,3.762,1.272,1.272,0,0,0-.647-.183,1.3,1.3,0,0,0-.664.192,1.168,1.168,0,0,0-1.224-.431,2.2,2.2,0,0,0-1.464,1.935,1.449,1.449,0,0,0-1.535.505,1.368,1.368,0,0,0-1.2-.463,2.115,2.115,0,0,0-1.613,1.791c-.052-.037-.1-.073-.155-.1a1.731,1.731,0,0,0-1.355-.188,1.793,1.793,0,0,0-1.062,1.06,1.715,1.715,0,0,0-2.28,1.337,1.415,1.415,0,0,0-1.644,1.881c-1.039-.5-1.039.481-1.039.481L77.2,89.715a5.084,5.084,0,0,0,2.255.682,9.263,9.263,0,0,0,2.571-.482s18.8-10.852,19.042-10.994" transform="translate(-7.445 -14.581)" fill="#fff"/>
              <path id="Trazado_874469" data-name="Trazado 874469" d="M47.982,48.567c-1.526-1.111-2.256-.946-3.914.381a6.9,6.9,0,0,1-1.791,1.033.544.544,0,0,1-.611-.139,9.71,9.71,0,0,1-1.777-2.758c-.929-2.382-5.178.67-5.178.67a14.1,14.1,0,0,1,2.025,4.113c.065.232.114.452.16.669a1.377,1.377,0,0,1-.59.592c-.878.423-3.243.8-3.517,2.547a4.371,4.371,0,0,0,.142,1.649,2.491,2.491,0,0,1,.421-.342,2.528,2.528,0,0,1,3,.168,1.609,1.609,0,0,1,.484-1.111,1.553,1.553,0,0,1,1.841-.191,2.322,2.322,0,0,1,.474-1.462,2.185,2.185,0,0,1,2.842-.475,1.925,1.925,0,0,1,.99-1.3c.913-.42,1.475.063,2.039.608a1.658,1.658,0,0,1,1.012-1.495,2.008,2.008,0,0,1,1.505.219,2.058,2.058,0,0,1,.28-.988,1.964,1.964,0,0,1,1.106-.852,1.524,1.524,0,0,1,.608-.058,6.729,6.729,0,0,0-1.551-1.48" transform="translate(-10.059 -14.178)" fill="#ffb5a0"/>
              <path id="Trazado_874470" data-name="Trazado 874470" d="M38.161,38.747a6.8,6.8,0,0,0-4.3,2.168,9.877,9.877,0,0,0-2.039,2.362.249.249,0,0,0-.006.252c1.506,2.2,3.465,4.375,6.636,4.212,2.607-.133,2.741-3.122,2.385-4.921-.416-2.1-1.285-4.363-2.673-4.072" transform="translate(-9.759 -11.89)" fill="#ffc5b2"/>
              <path id="Trazado_874471" data-name="Trazado 874471" d="M31.469,45.447s-.354-.359-3.007-2.836-1.592-4.743.973-6.883,4.423-2.414,6.988-1.175,2.493,3.193,2.493,3.193a5,5,0,0,0-4.44,1.8c-1.807,1.9-3.007,5.9-3.007,5.9" transform="translate(-8.265 -10.383)" fill="#ffabc7"/>
              <path id="Trazado_874472" data-name="Trazado 874472" d="M34.074,38.345a29.255,29.255,0,0,0-5.75,1.942C26.113,41.437,26.3,42.853,26.781,44s3.846,2.161,3.846,2.161Z" transform="translate(-8.129 -11.774)" fill="#ff8bac"/>
              <path id="Trazado_874473" data-name="Trazado 874473" d="M39.011,35.512c-2.319-.908-5.4-.239-7.372,5.878-.958,2.965.384,5.277,1.8,5.273a2.318,2.318,0,0,0,1.881-.635,5.082,5.082,0,0,1,.331-4.638c1.415-2.625,4.741-1.519,4.741-1.519s1.934-3.063-1.38-4.359" transform="translate(-9.615 -10.803)" fill="#f5729d"/>
              <path id="Trazado_874474" data-name="Trazado 874474" d="M75.689,53.215c1.141-.276,3.054-.811,2.02-1.407a6.888,6.888,0,0,0-4.379-.8c-1.493.176-5.091,2.643-6.635,3.522.006,0,.012.006.017.011a1.835,1.835,0,0,1,.539,1.474,2.124,2.124,0,0,1,2.276.651l3.206-2.54a2.537,2.537,0,0,0,2.061.825c.289,0,1.256.767,1.456.435S75.482,54.03,74.793,54s-.245-.506.9-.782" transform="translate(-20.479 -15.644)" fill="#ffc5b2"/>
              <path id="Trazado_874475" data-name="Trazado 874475" d="M44.928,71.068c-.009-.02-.023-.037-.031-.058a1.164,1.164,0,0,1,.011-.879,1.448,1.448,0,0,1-1.068-.62,1.067,1.067,0,0,1-.1-.215,2.442,2.442,0,0,1-.43.01,1.909,1.909,0,0,1-1.116-.46l-.01-.01a2.768,2.768,0,0,0-.378.179A8.55,8.55,0,0,0,38.287,73.5c-.6,2.279.956,4.649,2.019,4.052s-.166-2.967.532-3.233.766,1.155,1.562,1.34.415-1.048.15-1.468A8.528,8.528,0,0,1,41.8,72.53a10.866,10.866,0,0,0,3.124-1.461" transform="translate(-11.716 -21.136)" fill="#ffc5b2"/>
              <path id="Trazado_874476" data-name="Trazado 874476" d="M93.932,75.551c.137-2.692-.833-7.333-4.516-7.751-2.7-.306-7.778,1.256-10.3,2.113a4.371,4.371,0,0,1,1.807,4.115,2.645,2.645,0,0,1,1.454-.046,3.405,3.405,0,0,1,1.932,1.343,12.009,12.009,0,0,0,3.8-1.753A10.451,10.451,0,0,0,89.337,79.5a1.6,1.6,0,0,1,1.089-.263A3.083,3.083,0,0,1,92.6,80.683a1.845,1.845,0,0,1,.6-.481,1.6,1.6,0,0,1,.881-.141,33.285,33.285,0,0,1-.154-4.51" transform="translate(-24.292 -20.806)" fill="#ffb5a0"/>
              <path id="Trazado_874477" data-name="Trazado 874477" d="M105.945,91.629c-2.4-.748-9.725-3.948-14.949-5.722a43.824,43.824,0,0,0-6.57-1.566,1.554,1.554,0,0,1-.13.861,1.937,1.937,0,0,1-1.137.955,1.405,1.405,0,0,1,.545.483,1.79,1.79,0,0,1-.05,1.984A13.014,13.014,0,0,0,88.3,90.753a30.784,30.784,0,0,0,7.97.877s.522,3.368,2.91,2.6c2.592-.829,4.318,1.292,6.9-.166,1.655-.934,3.966-1.161-.131-2.438" transform="translate(-25.534 -25.897)" fill="#ffc5b2"/>
              <rect id="Rectángulo_401338" data-name="Rectángulo 401338" width="33.209" height="1.595" transform="translate(17.829 123.802) rotate(-15.805)" fill="#fff"/>
              <path id="Trazado_874478" data-name="Trazado 874478" d="M67.325,165.977s5.614-4.336,6.531-1.091-6.116,2.559-6.116,2.559a1.211,1.211,0,0,0,.188-.875,1.045,1.045,0,0,0-.6-.592" transform="translate(-20.672 -50.259)" fill="#ffabc7"/>
              <g id="Grupo_1099337" data-name="Grupo 1099337" transform="translate(50.547 113.743)" opacity="0.3">
                <g id="Grupo_1099336" data-name="Grupo 1099336">
                  <g id="Grupo_1099335" data-name="Grupo 1099335" clip-path="url(#clip-path-10)">
                    <path id="Trazado_874479" data-name="Trazado 874479" d="M73.868,165.679a.784.784,0,1,1,.969-.737.871.871,0,0,1-.969.737" transform="translate(-72.946 -164.145)" fill="#fff"/>
                  </g>
                </g>
              </g>
              <path id="Trazado_874480" data-name="Trazado 874480" d="M27.393,177.477s-7.053-.753-6.135,2.492,6.55-1.024,6.55-1.024a1.523,1.523,0,0,0,0-.8,1.505,1.505,0,0,0-.415-.669" transform="translate(-6.502 -54.472)" fill="#ffabc7"/>
              <g id="Grupo_1099340" data-name="Grupo 1099340" transform="translate(15.239 123.688)" opacity="0.3">
                <g id="Grupo_1099339" data-name="Grupo 1099339">
                  <g id="Grupo_1099338" data-name="Grupo 1099338" clip-path="url(#clip-path-11)">
                    <path id="Trazado_874481" data-name="Trazado 874481" d="M23.309,179.961a.784.784,0,1,0-1.212-.121.871.871,0,0,0,1.212.121" transform="translate(-21.992 -178.495)" fill="#fff"/>
                  </g>
                </g>
              </g>
              <rect id="Rectángulo_401341" data-name="Rectángulo 401341" width="33.209" height="1.595" transform="translate(27.44 133.731) rotate(-26.61)" fill="#fff"/>
              <path id="Trazado_874482" data-name="Trazado 874482" d="M78.269,172.3s4.7-5.312,6.21-2.3-5.527,3.661-5.527,3.661a1.208,1.208,0,0,0,.02-.895,1.045,1.045,0,0,0-.7-.469" transform="translate(-24.033 -51.916)" fill="#ffabc7"/>
              <g id="Grupo_1099343" data-name="Grupo 1099343" transform="translate(57.822 117.52)" opacity="0.3">
                <g id="Grupo_1099342" data-name="Grupo 1099342">
                  <g id="Grupo_1099341" data-name="Grupo 1099341" clip-path="url(#clip-path-12)">
                    <path id="Trazado_874483" data-name="Trazado 874483" d="M84.507,171.124a.784.784,0,1,1,.814-.906.871.871,0,0,1-.814.906" transform="translate(-83.444 -169.594)" fill="#fff"/>
                  </g>
                </g>
              </g>
              <path id="Trazado_874484" data-name="Trazado 874484" d="M41.168,191.034s-7.069.583-5.559,3.6,6.242-2.235,6.242-2.235a1.527,1.527,0,0,0-.15-.784,1.5,1.5,0,0,0-.534-.579" transform="translate(-10.869 -58.658)" fill="#ffabc7"/>
              <g id="Grupo_1099346" data-name="Grupo 1099346" transform="translate(25.046 133.891)" opacity="0.3">
                <g id="Grupo_1099345" data-name="Grupo 1099345">
                  <g id="Grupo_1099344" data-name="Grupo 1099344" clip-path="url(#clip-path-13)">
                    <path id="Trazado_874485" data-name="Trazado 874485" d="M37.543,194.629a.784.784,0,1,0-1.213.109.87.87,0,0,0,1.213-.109" transform="translate(-36.145 -193.219)" fill="#fff"/>
                  </g>
                </g>
              </g>
              <rect id="Rectángulo_401344" data-name="Rectángulo 401344" width="1.595" height="33.209" transform="matrix(0.262, -0.965, 0.965, 0.262, 17.664, 115.831)" fill="#fff"/>
              <path id="Trazado_874486" data-name="Trazado 874486" d="M67.542,176.33s7.045-.825,6.16,2.429-6.561-.958-6.561-.958a1.464,1.464,0,0,1-.04-.825,1.268,1.268,0,0,1,.441-.647" transform="translate(-20.591 -54.114)" fill="#ffabc7"/>
              <g id="Grupo_1099349" data-name="Grupo 1099349" transform="translate(50.824 122.851)" opacity="0.3">
                <g id="Grupo_1099348" data-name="Grupo 1099348">
                  <g id="Grupo_1099347" data-name="Grupo 1099347" clip-path="url(#clip-path-14)">
                    <path id="Trazado_874487" data-name="Trazado 874487" d="M73.827,178.757a.784.784,0,1,1,1.211-.133.871.871,0,0,1-1.211.133" transform="translate(-73.345 -177.288)" fill="#fff"/>
                  </g>
                </g>
              </g>
              <path id="Trazado_874488" data-name="Trazado 874488" d="M27.541,165.236S21.884,160.957,21,164.21s6.142,2.5,6.142,2.5a1.173,1.173,0,0,1-.247-.881c.113-.415.647-.59.647-.59" transform="translate(-6.424 -50.046)" fill="#ffabc7"/>
              <g id="Grupo_1099352" data-name="Grupo 1099352" transform="translate(15.318 113.263)" opacity="0.3">
                <g id="Grupo_1099351" data-name="Grupo 1099351">
                  <g id="Grupo_1099350" data-name="Grupo 1099350" clip-path="url(#clip-path-10)">
                    <path id="Trazado_874489" data-name="Trazado 874489" d="M23.083,164.986a.784.784,0,1,0-.977-.728.871.871,0,0,0,.977.728" transform="translate(-22.106 -163.452)" fill="#fff"/>
                  </g>
                </g>
              </g>
              <path id="Trazado_874490" data-name="Trazado 874490" d="M126.637,170.576a20.517,20.517,0,0,0,8.506-3.246c5.891-4.141,6.038-6.8,7.827-10.039.539-.975,2.838-4.864,5.512-6.388,4.774-2.722,11.412-3.382,15.595-5.8,6.526-3.768,7.1-13.828,3.236-17.1-.01-.008-12.518,4.21-19.044,7.977s-17.117,10.985-21.106,12.186-7.834.668-11.955,3.048l-11.055,6.382Z" transform="translate(-31.98 -39.303)" fill="#ff8bac"/>
              <path id="Trazado_874491" data-name="Trazado 874491" d="M126.637,164.344a17.52,17.52,0,0,0,8.515-4.365c6.1-5.534,6.409-8.863,7.818-11.627,2.8-5.486,10.471-9.455,21.106-12.186,7.3-1.874,6.3-7.665,1.916-10.2-.01-.006-.026-.009-.037-.015-3.885-2.242-10.994-2.377-17.687,1.085-7.021,3.632-17.117,10.985-21.106,12.186s-7.834.667-11.955,3.047-11.055,9.089-11.055,9.089Z" transform="translate(-31.98 -38.18)" fill="#ffabc7"/>
              <path id="Trazado_874492" data-name="Trazado 874492" d="M147.072,169.483a9.482,9.482,0,0,1-2.116,8.7,28.935,28.935,0,0,1-14.684,8.884l.294-9.238Z" transform="translate(-40.001 -52.04)" fill="#c1e6f4"/>
              <path id="Trazado_874493" data-name="Trazado 874493" d="M93.108,161.961l17.755-10.888s13.688,0,24.8,12.756c-3.856,6.668-18.391,13.054-18.391,13.054Z" transform="translate(-28.589 -46.388)" fill="#fff"/>
              <path id="Trazado_874494" data-name="Trazado 874494" d="M102.166,161.954s9.672-7.137,19.183-.9c10.407,6.82,1.937,15.644,1.937,15.644Z" transform="translate(-31.37 -48.667)" fill="#ffabc7"/>
              <path id="Trazado_874495" data-name="Trazado 874495" d="M118.766,171.21,97.433,158.894a3.745,3.745,0,0,0-.871-.368,1.41,1.41,0,0,0-.367-.12,4.156,4.156,0,0,0-3.117.736l.661.205a3.954,3.954,0,0,0-.857,1.92l-.969,5.5a6.876,6.876,0,0,0,2.951,6.7L116.2,185.785a3.948,3.948,0,0,0,.466.227l-.121.645a4.1,4.1,0,0,0,2.981-.974,3.675,3.675,0,0,0,1.225-2.272l.969-5.5a6.876,6.876,0,0,0-2.951-6.706" transform="translate(-28.196 -48.619)" fill="#e5578a"/>
              <path id="Trazado_874496" data-name="Trazado 874496" d="M92.872,174.061,114.2,186.376c2.063,1.192,4.111.123,4.551-2.373l.969-5.5a6.876,6.876,0,0,0-2.951-6.7L95.442,159.486c-2.064-1.191-4.112-.123-4.552,2.374l-.969,5.5a6.876,6.876,0,0,0,2.951,6.706" transform="translate(-27.585 -48.821)" fill="#f5729d"/>
              <path id="Trazado_874497" data-name="Trazado 874497" d="M92.23,171.857l24.733,14.253,1.922-10.9L94.152,160.957Z" transform="translate(-28.32 -49.422)" fill="#422938"/>
              <path id="Trazado_874498" data-name="Trazado 874498" d="M117.554,180.882,93.078,166.751l1.3-3.264,24.476,14.131Z" transform="translate(-28.58 -50.199)" fill="#ffd2e3"/>
              <path id="Trazado_874499" data-name="Trazado 874499" d="M117.129,180.613,92.654,166.482l1.3-3.264,24.476,14.131Z" transform="translate(-28.45 -50.117)" fill="#fff"/>
              <path id="Trazado_874500" data-name="Trazado 874500" d="M116.531,187.148,92.055,173.016l1.3-3.264,24.476,14.131Z" transform="translate(-28.266 -52.123)" fill="#ffd2e3"/>
              <path id="Trazado_874501" data-name="Trazado 874501" d="M116.106,186.878,91.63,172.747l1.3-3.264L117.4,183.613Z" transform="translate(-28.135 -52.04)" fill="#fff"/>
              <path id="Trazado_874502" data-name="Trazado 874502" d="M165,134.25c0,2.822-3.824,7.315-8.542,10.039s-8.543,2.645-8.543-.175,3.824-7.315,8.543-10.039,8.542-2.646,8.542.175" transform="translate(-45.418 -40.556)" fill="#fff"/>
              <path id="Trazado_874503" data-name="Trazado 874503" d="M149.778,147.673a5.286,5.286,0,0,1-2.71-.633,3.1,3.1,0,0,1-1.527-2.683c-.13-3.6,4.3-8.785,9.878-11.552,3.626-1.8,7.064-2.213,8.971-1.078a3.1,3.1,0,0,1,1.527,2.684c.13,3.6-4.3,8.785-9.879,11.552a14.68,14.68,0,0,1-6.26,1.71m11.9-16.228a14.343,14.343,0,0,0-6.1,1.678c-5.463,2.711-9.806,7.745-9.68,11.222a2.723,2.723,0,0,0,1.354,2.391c1.8,1.073,5.11.656,8.631-1.091,5.462-2.711,9.805-7.744,9.68-11.222a2.721,2.721,0,0,0-1.354-2.39,4.938,4.938,0,0,0-2.532-.588" transform="translate(-44.688 -40.253)" fill="#ff8bac"/>
              <path id="Trazado_874504" data-name="Trazado 874504" d="M163.232,135.392c0,1.772-2.4,4.595-5.365,6.306s-5.366,1.662-5.366-.11,2.4-4.595,5.366-6.306,5.365-1.662,5.365.11" transform="translate(-46.826 -41.154)" fill="#ffabc7"/>
              <path id="Trazado_874505" data-name="Trazado 874505" d="M189.6,132.375c-1.465,0-3.085-1.714-4.946-3.681l-.032-.033a11.3,11.3,0,0,0-8.4-3.63,3.761,3.761,0,0,1,1.324-.261,11.172,11.172,0,0,1,7.325,3.653l.031.033c1.819,1.923,3.524,3.738,4.889,3.56.6-.08,1.213-.768,1.676-1.634a2.38,2.38,0,0,1,.076.617,2.427,2.427,0,0,1-1.706,1.36,1.749,1.749,0,0,1-.241.017" transform="translate(-54.111 -38.31)" fill="#ff8bac"/>
              <path id="Trazado_874506" data-name="Trazado 874506" d="M26.439,152.883,0,137.618l26.481-15.344,26.439,15.265Z" transform="translate(0 -37.545)" fill="#ff725d" opacity="0.5"/>
              <g id="Grupo_1099355" data-name="Grupo 1099355" transform="translate(26.367 54.978)" opacity="0.5" style="mix-blend-mode: multiply;isolation: isolate">
                <g id="Grupo_1099354" data-name="Grupo 1099354">
                  <g id="Grupo_1099353" data-name="Grupo 1099353" clip-path="url(#clip-path-16)">
                    <path id="Trazado_874507" data-name="Trazado 874507" d="M59.774,91.89,38.05,79.34V111.8l21.723,12.551Z" transform="translate(-38.05 -79.339)" fill="#fc86b1"/>
                  </g>
                </g>
              </g>
              <g id="Grupo_1099358" data-name="Grupo 1099358" transform="translate(4.644 54.978)" opacity="0.5" style="mix-blend-mode: multiply;isolation: isolate">
                <g id="Grupo_1099357" data-name="Grupo 1099357">
                  <g id="Grupo_1099356" data-name="Grupo 1099356" clip-path="url(#clip-path-16)">
                    <path id="Trazado_874508" data-name="Trazado 874508" d="M6.7,91.89,28.424,79.34V111.8L6.7,124.352Z" transform="translate(-6.701 -79.339)" fill="#ffb6ce"/>
                  </g>
                </g>
              </g>
              <g id="Grupo_1099361" data-name="Grupo 1099361" transform="translate(4.644 87.416)" opacity="0.5">
                <g id="Grupo_1099360" data-name="Grupo 1099360">
                  <g id="Grupo_1099359" data-name="Grupo 1099359" clip-path="url(#clip-path-18)">
                    <path id="Trazado_874509" data-name="Trazado 874509" d="M28.424,151.3,6.7,138.759l21.757-12.607,21.723,12.542Z" transform="translate(-6.701 -126.151)" fill="#ff8bac"/>
                  </g>
                </g>
              </g>
              <g id="Grupo_1099364" data-name="Grupo 1099364" transform="translate(4.644 85.068)" opacity="0.5" style="mix-blend-mode: multiply;isolation: isolate">
                <g id="Grupo_1099363" data-name="Grupo 1099363">
                  <g id="Grupo_1099362" data-name="Grupo 1099362" clip-path="url(#clip-path-18)">
                    <path id="Trazado_874510" data-name="Trazado 874510" d="M28.424,147.913,6.7,135.37l21.757-12.607,21.723,12.542Z" transform="translate(-6.701 -122.763)" fill="#ffb6ce"/>
                  </g>
                </g>
              </g>
              <path id="Trazado_874511" data-name="Trazado 874511" d="M9.573,91.788,28.52,80.821,47.467,91.788h2.56L28.52,79.34,7.014,91.788Z" transform="translate(-2.154 -24.362)" fill="#ffd9e8"/>
              <rect id="Rectángulo_401351" data-name="Rectángulo 401351" width="33.972" height="1.632" transform="translate(36.839 97.049) rotate(-81.402)" fill="#fff"/>
              <path id="Trazado_874512" data-name="Trazado 874512" d="M59.692,93.459s-1.669-7.062,1.743-6.546-.2,6.779-.2,6.779a1.5,1.5,0,0,1-.833.138,1.293,1.293,0,0,1-.709-.371" transform="translate(-18.203 -26.679)" fill="#ffabc7"/>
              <g id="Grupo_1099367" data-name="Grupo 1099367" transform="translate(41.585 60.825)" opacity="0.3">
                <g id="Grupo_1099366" data-name="Grupo 1099366">
                  <g id="Grupo_1099365" data-name="Grupo 1099365" clip-path="url(#clip-path-20)">
                    <path id="Trazado_874513" data-name="Trazado 874513" d="M61.54,89.058a.8.8,0,1,1-.278-1.215.892.892,0,0,1,.278,1.215" transform="translate(-60.012 -87.777)" fill="#fff"/>
                  </g>
                </g>
              </g>
              <path id="Trazado_874514" data-name="Trazado 874514" d="M53.2,135.451s-3.682,6.252-.271,6.769,1.813-6.535,1.813-6.535a1.2,1.2,0,0,1-.866.354c-.435-.066-.676-.588-.676-.588" transform="translate(-15.808 -41.591)" fill="#ffabc7"/>
              <g id="Grupo_1099370" data-name="Grupo 1099370" transform="translate(35.999 97.964)" opacity="0.3">
                <g id="Grupo_1099369" data-name="Grupo 1099369">
                  <g id="Grupo_1099368" data-name="Grupo 1099368" clip-path="url(#clip-path-21)">
                    <path id="Trazado_874515" data-name="Trazado 874515" d="M53.516,142.214a.8.8,0,1,0-.624,1.078.89.89,0,0,0,.624-1.078" transform="translate(-51.95 -141.373)" fill="#fff"/>
                  </g>
                </g>
              </g>
              <rect id="Rectángulo_401354" data-name="Rectángulo 401354" width="1.632" height="33.972" transform="translate(22.98 54.069) rotate(-6.537)" fill="#fff"/>
              <path id="Trazado_874516" data-name="Trazado 874516" d="M33.131,79.808s-3.454-6.381-.027-6.774,1.577,6.6,1.577,6.6a1.5,1.5,0,0,1-.768.351,1.3,1.3,0,0,1-.782-.174" transform="translate(-9.699 -22.421)" fill="#ffabc7"/>
              <g id="Grupo_1099373" data-name="Grupo 1099373" transform="translate(22.217 51.34)" opacity="0.3">
                <g id="Grupo_1099372" data-name="Grupo 1099372">
                  <g id="Grupo_1099371" data-name="Grupo 1099371" clip-path="url(#clip-path-22)">
                    <path id="Trazado_874517" data-name="Trazado 874517" d="M33.625,75.2a.8.8,0,1,1-.586-1.1.892.892,0,0,1,.586,1.1" transform="translate(-32.062 -74.089)" fill="#fff"/>
                  </g>
                </g>
              </g>
              <path id="Trazado_874518" data-name="Trazado 874518" d="M38.077,122.005s-1.921,7,1.506,6.6.044-6.782.044-6.782a1.2,1.2,0,0,1-.744.568,1.077,1.077,0,0,1-.806-.391" transform="translate(-11.527 -37.408)" fill="#ffabc7"/>
              <g id="Grupo_1099376" data-name="Grupo 1099376" transform="translate(26.472 88.707)" opacity="0.3">
                <g id="Grupo_1099375" data-name="Grupo 1099375">
                  <g id="Grupo_1099374" data-name="Grupo 1099374" clip-path="url(#clip-path-23)">
                    <path id="Trazado_874519" data-name="Trazado 874519" d="M39.736,128.634a.8.8,0,1,0-.322,1.2.891.891,0,0,0,.322-1.2" transform="translate(-38.201 -128.014)" fill="#fff"/>
                  </g>
                </g>
              </g>
              <rect id="Rectángulo_401357" data-name="Rectángulo 401357" width="1.631" height="33.972" transform="translate(15.342 58.551) rotate(-12.312)" fill="#fff"/>
              <path id="Trazado_874520" data-name="Trazado 874520" d="M22.364,86.186s-4.079-6-.71-6.737,2.233,6.4,2.233,6.4a1.5,1.5,0,0,1-.729.427,1.3,1.3,0,0,1-.795-.094" transform="translate(-6.24 -24.379)" fill="#ffabc7"/>
              <g id="Grupo_1099379" data-name="Grupo 1099379" transform="translate(14.405 55.823)" opacity="0.3">
                <g id="Grupo_1099378" data-name="Grupo 1099378">
                  <g id="Grupo_1099377" data-name="Grupo 1099377" clip-path="url(#clip-path-24)">
                    <path id="Trazado_874521" data-name="Trazado 874521" d="M22.356,81.6a.8.8,0,1,1-1.563-.143.8.8,0,1,1,1.563.143" transform="translate(-20.788 -80.559)" fill="#fff"/>
                  </g>
                </g>
              </g>
              <path id="Trazado_874522" data-name="Trazado 874522" d="M31.61,127.662s-1.206,7.155,2.163,6.419-.639-6.751-.639-6.751-.244.545-.683.64a1.077,1.077,0,0,1-.841-.308" transform="translate(-9.641 -39.097)" fill="#ffabc7"/>
              <g id="Grupo_1099382" data-name="Grupo 1099382" transform="translate(22.379 92.588)" opacity="0.3">
                <g id="Grupo_1099381" data-name="Grupo 1099381">
                  <g id="Grupo_1099380" data-name="Grupo 1099380" clip-path="url(#clip-path-25)">
                    <path id="Trazado_874523" data-name="Trazado 874523" d="M33.81,134.15a.8.8,0,1,0-.2,1.23.891.891,0,0,0,.2-1.23" transform="translate(-32.295 -133.615)" fill="#fff"/>
                  </g>
                </g>
              </g>
              <rect id="Rectángulo_401360" data-name="Rectángulo 401360" width="1.632" height="33.972" transform="translate(20.898 62.503) rotate(-4.335)" fill="#fff"/>
              <path id="Trazado_874524" data-name="Trazado 874524" d="M30.027,92.006s-3.206-6.51.234-6.77,1.321,6.652,1.321,6.652a1.5,1.5,0,0,1-.782.322,1.3,1.3,0,0,1-.774-.2" transform="translate(-8.803 -26.17)" fill="#ffabc7"/>
              <g id="Grupo_1099385" data-name="Grupo 1099385" transform="translate(20.203 59.778)" opacity="0.3">
                <g id="Grupo_1099384" data-name="Grupo 1099384">
                  <g id="Grupo_1099383" data-name="Grupo 1099383" clip-path="url(#clip-path-26)">
                    <path id="Trazado_874525" data-name="Trazado 874525" d="M30.714,87.406a.8.8,0,1,1-.543-1.122.89.89,0,0,1,.543,1.122" transform="translate(-29.155 -86.267)" fill="#fff"/>
                  </g>
                </g>
              </g>
              <path id="Trazado_874526" data-name="Trazado 874526" d="M33.307,134.368s-2.19,6.918,1.25,6.657.306-6.775.306-6.775a1.2,1.2,0,0,1-.765.54,1.081,1.081,0,0,1-.791-.422" transform="translate(-10.016 -41.222)" fill="#ffabc7"/>
              <g id="Grupo_1099388" data-name="Grupo 1099388" transform="translate(23.022 97.276)" opacity="0.3">
                <g id="Grupo_1099387" data-name="Grupo 1099387">
                  <g id="Grupo_1099386" data-name="Grupo 1099386" clip-path="url(#clip-path-27)">
                    <path id="Trazado_874527" data-name="Trazado 874527" d="M34.764,141.032a.8.8,0,1,0-.367,1.19.891.891,0,0,0,.367-1.19" transform="translate(-33.223 -140.38)" fill="#fff"/>
                  </g>
                </g>
              </g>
              <rect id="Rectángulo_401363" data-name="Rectángulo 401363" width="1.632" height="33.972" transform="translate(8 62.202) rotate(-11.811)" fill="#fff"/>
              <path id="Trazado_874528" data-name="Trazado 874528" d="M11.749,91.464s-4.026-6.036-.65-6.742,2.177,6.423,2.177,6.423a1.5,1.5,0,0,1-.733.421,1.3,1.3,0,0,1-.794-.1" transform="translate(-2.994 -25.999)" fill="#ffabc7"/>
              <g id="Grupo_1099391" data-name="Grupo 1099391" transform="translate(7.08 59.473)" opacity="0.3">
                <g id="Grupo_1099390" data-name="Grupo 1099390">
                  <g id="Grupo_1099389" data-name="Grupo 1099389" clip-path="url(#clip-path-28)">
                    <path id="Trazado_874529" data-name="Trazado 874529" d="M11.785,86.871a.89.89,0,0,1-.878.884A.989.989,0,0,1,11.1,85.83a.891.891,0,0,1,.684,1.042" transform="translate(-10.218 -85.826)" fill="#fff"/>
                  </g>
                </g>
              </g>
              <path id="Trazado_874530" data-name="Trazado 874530" d="M20.622,133.018s-1.269,7.144,2.107,6.437-.579-6.757-.579-6.757-.249.543-.689.635a1.078,1.078,0,0,1-.838-.315" transform="translate(-6.26 -40.746)" fill="#ffabc7"/>
              <g id="Grupo_1099394" data-name="Grupo 1099394" transform="translate(14.73 96.306)" opacity="0.3">
                <g id="Grupo_1099393" data-name="Grupo 1099393">
                  <g id="Grupo_1099392" data-name="Grupo 1099392" clip-path="url(#clip-path-29)">
                    <path id="Trazado_874531" data-name="Trazado 874531" d="M22.774,139.523a.8.8,0,1,0-1.368.77.8.8,0,1,0,1.368-.77" transform="translate(-21.257 -138.98)" fill="#fff"/>
                  </g>
                </g>
              </g>
              <rect id="Rectángulo_401366" data-name="Rectángulo 401366" width="33.972" height="1.632" transform="matrix(0.028, -1, 1, 0.028, 26.432, 93.165)" fill="#fff"/>
              <path id="Trazado_874532" data-name="Trazado 874532" d="M39.073,87.3s-2.519-6.8.929-6.71.631,6.753.631,6.753a1.5,1.5,0,0,1-.811.239,1.294,1.294,0,0,1-.749-.282" transform="translate(-11.725 -24.746)" fill="#ffabc7"/>
              <g id="Grupo_1099397" data-name="Grupo 1099397" transform="translate(26.841 56.511)" opacity="0.3">
                <g id="Grupo_1099396" data-name="Grupo 1099396">
                  <g id="Grupo_1099395" data-name="Grupo 1099395" clip-path="url(#clip-path-30)">
                    <path id="Trazado_874533" data-name="Trazado 874533" d="M40.282,82.759a.8.8,0,1,1-.424-1.172.891.891,0,0,1,.424,1.172" transform="translate(-38.734 -81.552)" fill="#fff"/>
                  </g>
                </g>
              </g>
              <path id="Trazado_874534" data-name="Trazado 874534" d="M37.876,129.784s-2.89,6.656.559,6.751,1-6.708,1-6.708a1.2,1.2,0,0,1-.817.458,1.079,1.079,0,0,1-.743-.5" transform="translate(-11.282 -39.851)" fill="#ffabc7"/>
              <g id="Grupo_1099400" data-name="Grupo 1099400" transform="translate(25.813 94.081)" opacity="0.3">
                <g id="Grupo_1099399" data-name="Grupo 1099399">
                  <g id="Grupo_1099398" data-name="Grupo 1099398" clip-path="url(#clip-path-31)">
                    <path id="Trazado_874535" data-name="Trazado 874535" d="M38.8,136.509a.8.8,0,1,0-.488,1.146.891.891,0,0,0,.488-1.146" transform="translate(-37.251 -135.77)" fill="#fff"/>
                  </g>
                </g>
              </g>
              <rect id="Rectángulo_401369" data-name="Rectángulo 401369" width="1.631" height="33.972" transform="translate(32.393 58.401) rotate(-2.799)" fill="#fff"/>
              <path id="Trazado_874536" data-name="Trazado 874536" d="M46.544,86.1s-3.03-6.593.416-6.761S48.1,86.028,48.1,86.028a1.5,1.5,0,0,1-.79.3,1.3,1.3,0,0,1-.768-.225" transform="translate(-13.914 -24.362)" fill="#ffabc7"/>
              <g id="Grupo_1099403" data-name="Grupo 1099403" transform="translate(31.744 55.682)" opacity="0.3">
                <g id="Grupo_1099402" data-name="Grupo 1099402">
                  <g id="Grupo_1099401" data-name="Grupo 1099401" clip-path="url(#clip-path-32)">
                    <path id="Trazado_874537" data-name="Trazado 874537" d="M47.367,81.512a.8.8,0,1,1-.512-1.136.892.892,0,0,1,.512,1.136" transform="translate(-45.81 -80.355)" fill="#fff"/>
                  </g>
                </g>
              </g>
              <path id="Trazado_874538" data-name="Trazado 874538" d="M48.66,128.544s-2.374,6.857,1.071,6.688.487-6.765.487-6.765a1.2,1.2,0,0,1-.78.519,1.078,1.078,0,0,1-.779-.443" transform="translate(-14.696 -39.447)" fill="#ffabc7"/>
              <g id="Grupo_1099406" data-name="Grupo 1099406" transform="translate(33.562 93.237)" opacity="0.3">
                <g id="Grupo_1099405" data-name="Grupo 1099405">
                  <g id="Grupo_1099404" data-name="Grupo 1099404" clip-path="url(#clip-path-33)">
                    <path id="Trazado_874539" data-name="Trazado 874539" d="M49.978,135.226a.8.8,0,1,0-.4,1.18.892.892,0,0,0,.4-1.18" transform="translate(-48.433 -134.551)" fill="#fff"/>
                  </g>
                </g>
              </g>
              <rect id="Rectángulo_401372" data-name="Rectángulo 401372" width="1.632" height="33.972" transform="translate(35.817 65.707) rotate(-0.195)" fill="#fff"/>
              <path id="Trazado_874540" data-name="Trazado 874540" d="M51.355,96.67s-2.727-6.724.722-6.735.838,6.73.838,6.73a1.5,1.5,0,0,1-.8.264,1.291,1.291,0,0,1-.757-.259" transform="translate(-15.455 -27.615)" fill="#ffabc7"/>
              <g id="Grupo_1099409" data-name="Grupo 1099409" transform="translate(35.241 63.001)" opacity="0.3">
                <g id="Grupo_1099408" data-name="Grupo 1099408">
                  <g id="Grupo_1099407" data-name="Grupo 1099407" clip-path="url(#clip-path-34)">
                    <path id="Trazado_874541" data-name="Trazado 874541" d="M52.408,92.1a.8.8,0,1,1-.46-1.158.89.89,0,0,1,.46,1.158" transform="translate(-50.856 -90.917)" fill="#fff"/>
                  </g>
                </g>
              </g>
              <path id="Trazado_874542" data-name="Trazado 874542" d="M51.5,139.176s-2.682,6.742.766,6.731.793-6.735.793-6.735a1.2,1.2,0,0,1-.8.482,1.076,1.076,0,0,1-.758-.477" transform="translate(-15.508 -42.733)" fill="#ffabc7"/>
              <g id="Grupo_1099412" data-name="Grupo 1099412" transform="translate(35.365 100.591)" opacity="0.3">
                <g id="Grupo_1099411" data-name="Grupo 1099411">
                  <g id="Grupo_1099410" data-name="Grupo 1099410" clip-path="url(#clip-path-35)">
                    <path id="Trazado_874543" data-name="Trazado 874543" d="M52.588,145.877a.8.8,0,1,0-.452,1.161.89.89,0,0,0,.452-1.161" transform="translate(-51.037 -145.164)" fill="#fff"/>
                  </g>
                </g>
              </g>
              <rect id="Rectángulo_401375" data-name="Rectángulo 401375" width="1.632" height="33.972" transform="translate(31.326 68.029) rotate(-0.195)" fill="#fff"/>
              <path id="Trazado_874544" data-name="Trazado 874544" d="M44.874,100.02s-2.727-6.724.721-6.735.838,6.73.838,6.73a1.494,1.494,0,0,1-.8.265,1.3,1.3,0,0,1-.757-.259" transform="translate(-13.465 -28.644)" fill="#ffabc7"/>
              <g id="Grupo_1099415" data-name="Grupo 1099415" transform="translate(30.749 65.322)" opacity="0.3">
                <g id="Grupo_1099414" data-name="Grupo 1099414">
                  <g id="Grupo_1099413" data-name="Grupo 1099413" clip-path="url(#clip-path-36)">
                    <path id="Trazado_874545" data-name="Trazado 874545" d="M45.927,95.455a.8.8,0,1,1-.46-1.158.891.891,0,0,1,.46,1.158" transform="translate(-44.375 -94.267)" fill="#fff"/>
                  </g>
                </g>
              </g>
              <path id="Trazado_874546" data-name="Trazado 874546" d="M45.02,142.527s-2.682,6.742.767,6.731.793-6.736.793-6.736a1.2,1.2,0,0,1-.8.483,1.079,1.079,0,0,1-.758-.477" transform="translate(-13.518 -43.762)" fill="#ffabc7"/>
              <g id="Grupo_1099418" data-name="Grupo 1099418" transform="translate(30.874 102.913)" opacity="0.3">
                <g id="Grupo_1099417" data-name="Grupo 1099417">
                  <g id="Grupo_1099416" data-name="Grupo 1099416" clip-path="url(#clip-path-37)">
                    <path id="Trazado_874547" data-name="Trazado 874547" d="M46.107,149.228a.8.8,0,1,0-.452,1.161.89.89,0,0,0,.452-1.161" transform="translate(-44.555 -148.515)" fill="#fff"/>
                  </g>
                </g>
              </g>
              <rect id="Rectángulo_401378" data-name="Rectángulo 401378" width="1.632" height="33.972" transform="translate(14.782 65.16) rotate(-1.168)" fill="#fff"/>
              <path id="Trazado_874548" data-name="Trazado 874548" d="M21.043,95.872s-2.843-6.676.606-6.747.954,6.715.954,6.715a1.5,1.5,0,0,1-.8.278,1.3,1.3,0,0,1-.762-.246" transform="translate(-6.123 -27.366)" fill="#ffabc7"/>
              <g id="Grupo_1099421" data-name="Grupo 1099421" transform="translate(14.173 62.448)" opacity="0.3">
                <g id="Grupo_1099420" data-name="Grupo 1099420">
                  <g id="Grupo_1099419" data-name="Grupo 1099419" clip-path="url(#clip-path-38)">
                    <path id="Trazado_874549" data-name="Trazado 874549" d="M22.007,91.3a.8.8,0,1,1-1.506-.443.8.8,0,1,1,1.506.443" transform="translate(-20.453 -90.119)" fill="#fff"/>
                  </g>
                </g>
              </g>
              <path id="Trazado_874550" data-name="Trazado 874550" d="M21.937,138.363s-2.566,6.787.883,6.716.677-6.748.677-6.748a1.2,1.2,0,0,1-.793.5,1.079,1.079,0,0,1-.766-.464" transform="translate(-6.454 -42.475)" fill="#ffabc7"/>
              <g id="Grupo_1099424" data-name="Grupo 1099424" transform="translate(14.942 100.034)" opacity="0.3">
                <g id="Grupo_1099423" data-name="Grupo 1099423">
                  <g id="Grupo_1099422" data-name="Grupo 1099422" clip-path="url(#clip-path-39)">
                    <path id="Trazado_874551" data-name="Trazado 874551" d="M23.112,145.059a.8.8,0,1,0-1.486.5.8.8,0,1,0,1.486-.5" transform="translate(-21.563 -144.36)" fill="#fff"/>
                  </g>
                </g>
              </g>
              <rect id="Rectángulo_401381" data-name="Rectángulo 401381" width="33.972" height="1.631" transform="translate(19.17 101.509) rotate(-80.194)" fill="#fff"/>
              <path id="Trazado_874552" data-name="Trazado 874552" d="M35.144,100.06s-1.518-7.1,1.881-6.507-.344,6.773-.344,6.773a1.5,1.5,0,0,1-.836.121,1.3,1.3,0,0,1-.7-.387" transform="translate(-10.687 -28.715)" fill="#ffabc7"/>
              <g id="Grupo_1099427" data-name="Grupo 1099427" transform="translate(24.656 65.413)" opacity="0.3">
                <g id="Grupo_1099426" data-name="Grupo 1099426">
                  <g id="Grupo_1099425" data-name="Grupo 1099425" clip-path="url(#clip-path-40)">
                    <path id="Trazado_874553" data-name="Trazado 874553" d="M37.106,95.692a.8.8,0,1,1-.252-1.22.891.891,0,0,1,.252,1.22" transform="translate(-35.582 -94.399)" fill="#fff"/>
                  </g>
                </g>
              </g>
              <path id="Trazado_874554" data-name="Trazado 874554" d="M27.753,141.9s-3.813,6.173-.414,6.761,1.951-6.495,1.951-6.495a1.2,1.2,0,0,1-.873.336c-.434-.075-.664-.6-.664-.6" transform="translate(-7.962 -43.572)" fill="#ffabc7"/>
              <g id="Grupo_1099430" data-name="Grupo 1099430" transform="translate(18.291 102.421)" opacity="0.3">
                <g id="Grupo_1099429" data-name="Grupo 1099429">
                  <g id="Grupo_1099428" data-name="Grupo 1099428" clip-path="url(#clip-path-41)">
                    <path id="Trazado_874555" data-name="Trazado 874555" d="M27.962,148.665a.8.8,0,1,0-.647,1.065.891.891,0,0,0,.647-1.065" transform="translate(-26.396 -147.806)" fill="#fff"/>
                  </g>
                </g>
              </g>
              <g id="Grupo_1099433" data-name="Grupo 1099433" transform="translate(4.644 67.553)" opacity="0.5">
                <g id="Grupo_1099432" data-name="Grupo 1099432">
                  <g id="Grupo_1099431" data-name="Grupo 1099431" clip-path="url(#clip-path-16)">
                    <path id="Trazado_874556" data-name="Trazado 874556" d="M28.424,110.037,6.7,97.486v32.462L28.424,142.5Z" transform="translate(-6.701 -97.486)" fill="#fff"/>
                  </g>
                </g>
              </g>
              <g id="Grupo_1099436" data-name="Grupo 1099436" transform="translate(26.367 67.553)" opacity="0.5">
                <g id="Grupo_1099435" data-name="Grupo 1099435">
                  <g id="Grupo_1099434" data-name="Grupo 1099434" clip-path="url(#clip-path-16)">
                    <path id="Trazado_874557" data-name="Trazado 874557" d="M38.05,110.037,59.773,97.486v32.462L38.05,142.5Z" transform="translate(-38.05 -97.486)" fill="#fff"/>
                  </g>
                </g>
              </g>
              <path id="Trazado_874558" data-name="Trazado 874558" d="M47.736,95.437c-.191.095-.383.19-.57.286-.2.1-.476.267-.77.42l1.19.689L28.424,107.9,9.263,96.832l1.47-.852c-.482-.2-.913-.36-1.005-.4-.15-.069-.315-.141-.484-.217L6.7,96.833l21.723,12.551L50.147,96.833Z" transform="translate(-2.058 -29.281)" fill="#ffd9e8"/>
              <path id="Trazado_874559" data-name="Trazado 874559" d="M38.05,147.421V114.959l2.5-1.442Z" transform="translate(-11.683 -34.856)" fill="#fff"/>
            </g>
          </g>
        </g>
      </g>
    </g>
  </g>
</svg>
