<svg xmlns="http://www.w3.org/2000/svg" xmlns:xlink="http://www.w3.org/1999/xlink" width="158.333" height="136.244" viewBox="0 0 158.333 136.244">
  <defs>
    <clipPath id="clip-path">
      <rect id="Rectángulo_401440" data-name="Rectángulo 401440" width="144.334" height="120.042" fill="none"/>
    </clipPath>
  </defs>
  <g id="Grupo_1100065" data-name="Grupo 1100065" transform="translate(-652.5 -5428.5)">
    <g id="Grupo_1099646" data-name="Grupo 1099646" transform="translate(654 5430)">
      <rect id="Rectángulo_401390" data-name="Rectángulo 401390" width="155.333" height="122.912" rx="20" fill="none" stroke="#53bced" stroke-width="3"/>
      <g id="Grupo_1099587" data-name="Grupo 1099587" transform="translate(5.499 14.702)">
        <path id="Trazado_874746" data-name="Trazado 874746" d="M134.773,75.341l-3.927,2.267v-46l3.927-2.267Z" transform="translate(3.993 0.895)" fill="#a8572a"/>
        <path id="Trazado_874747" data-name="Trazado 874747" d="M127.133,75.341l3.927,2.267v-46l-3.927-2.267Z" transform="translate(3.88 0.895)" fill="#b56835"/>
        <path id="Trazado_874748" data-name="Trazado 874748" d="M96.571,53.194l-3.927,2.267v-46l3.927-2.267Z" transform="translate(2.827 0.219)" fill="#a8572a"/>
        <path id="Trazado_874749" data-name="Trazado 874749" d="M88.931,53.194l3.927,2.267v-46L88.931,7.192Z" transform="translate(2.714 0.219)" fill="#b56835"/>
        <path id="Trazado_874750" data-name="Trazado 874750" d="M138.5,46.78,85.4,16.113V1.617L138.5,32.283Z" transform="translate(2.606 0.049)" fill="#c47b42"/>
        <path id="Trazado_874751" data-name="Trazado 874751" d="M126.083,24.658l-14.731,6.209-8.654-5L118.751,19.1Z" transform="translate(3.134 0.583)" fill="#f7c908"/>
        <path id="Trazado_874752" data-name="Trazado 874752" d="M137.977,36.812l-9.38,3.953-8.654-5L136,29l3.062,2.234Z" transform="translate(3.66 0.885)" fill="#f7c908"/>
        <path id="Trazado_874753" data-name="Trazado 874753" d="M109.363,14.941,94.631,21.15l-8.654-5,16.054-6.766Z" transform="translate(2.624 0.286)" fill="#f7c908"/>
        <path id="Trazado_874754" data-name="Trazado 874754" d="M93.615,4.8,85.4,8.264V1.625l4.022-.284Z" transform="translate(2.606 0.041)" fill="#f7c908"/>
        <path id="Trazado_874755" data-name="Trazado 874755" d="M136.923,31.424v14.5l3.233-1.665v-14.5Z" transform="translate(4.179 0.908)" fill="#a8572a"/>
        <path id="Trazado_874756" data-name="Trazado 874756" d="M88.636,0,85.4,1.665,138.5,32.333l3.233-1.666Z" transform="translate(2.606)" fill="#b56835"/>
        <g id="Grupo_1099586" data-name="Grupo 1099586">
          <g id="Grupo_1099585" data-name="Grupo 1099585" clip-path="url(#clip-path)">
            <path id="Trazado_874757" data-name="Trazado 874757" d="M99.619,62.6l.024-.027V58.055l-1.4.307A21.5,21.5,0,0,0,92.6,52.376a34.321,34.321,0,0,0-8.563-6.867c-13.6-7.69-31.328-9.458-42.675-4.049C29.9,46.921,11.152,63.45,3.074,73A15.064,15.064,0,0,0,.949,76.2L0,75.961V79.94l.005.006a8.7,8.7,0,0,0,.709,3.473C2.572,87.9,15.833,95.868,18.929,96.763c5.16,1.492,12.321,2.149,21.784-.521C57.246,91.578,84.476,82.37,92.986,74.569c4.627-4.242,6.9-8.147,6.633-11.973" transform="translate(0 1.17)" fill="#f2a803"/>
            <path id="Trazado_874758" data-name="Trazado 874758" d="M22.16,82.329c15.12-2.372,20.654-9.68,20.654-9.68l46.2-28.08a40.489,40.489,0,0,0-4.978-3.437c-13.6-7.69-31.327-9.459-42.675-4.05C29.9,42.545,11.153,59.073,3.074,68.619-.525,72.873-.45,76.236.714,79.043A8.992,8.992,0,0,0,2.5,81.512a54.38,54.38,0,0,0,19.661.816" transform="translate(0 1.036)" fill="#f7c908"/>
            <path id="Trazado_874759" data-name="Trazado 874759" d="M18.855,92.072c5.16,1.492,12.321,2.149,21.784-.52C57.172,86.888,84.4,77.679,92.911,69.878c8.754-8.024,9.194-14.847-.385-22.193a28.664,28.664,0,0,0-3.583-3.43l-46.2,28.08s-5.533,7.307-20.654,9.68A54.4,54.4,0,0,1,2.425,81.2c4.208,4.46,13.846,10.127,16.43,10.874" transform="translate(0.074 1.351)" fill="#ffb40d"/>
            <path id="Trazado_874760" data-name="Trazado 874760" d="M18.855,92.072c5.16,1.492,12.321,2.149,21.784-.52C57.172,86.888,84.4,77.679,92.911,69.878c8.754-8.024,9.194-14.847-.385-22.193a28.664,28.664,0,0,0-3.583-3.43l-46.2,28.08s-5.533,7.307-20.654,9.68A54.4,54.4,0,0,1,2.425,81.2c4.208,4.46,13.846,10.127,16.43,10.874" transform="translate(0.074 1.351)" fill="#f9ba06"/>
            <path id="Trazado_874761" data-name="Trazado 874761" d="M82,26.931a40.444,40.444,0,0,0-25.881-9.167c-21.988,0-39.423,16.683-39.511,38.651-.008,4.234,2.337,8.178,6.367,11.49C30.036,73.712,42.29,77.57,56.243,77.6c21.912.043,39.693-9.372,39.716-21.027A38.308,38.308,0,0,0,82,26.931" transform="translate(0.507 0.542)" fill="#f7c908"/>
            <path id="Trazado_874762" data-name="Trazado 874762" d="M81.811,26.66a29.579,29.579,0,0,1,.93,7.348c0,19.851-19.833,35.943-44.3,35.943a53.376,53.376,0,0,1-15.657-2.318C29.847,73.44,42.1,77.3,56.054,77.325c21.912.043,39.693-9.372,39.716-21.027A38.307,38.307,0,0,0,81.811,26.66" transform="translate(0.695 0.814)" fill="#f7c908"/>
            <path id="Trazado_874763" data-name="Trazado 874763" d="M72.058,19.842l-11.077-5.4s-12.46.858-19.852,7.177S20.556,67.632,20.556,67.632,29.1,72.352,31.98,73.2s3.877-11.4,5.568-17.367,5.6-25.167,16.128-29.445,18.382-6.548,18.382-6.548" transform="translate(0.627 0.441)" fill="#ffdf22"/>
            <path id="Trazado_874764" data-name="Trazado 874764" d="M60.144,14.1c-3.214-1.191-12.676-2.452-22.879,9.139C24.7,37.516,20.557,67.664,20.557,67.664l3.619,1.07s4.838-32.453,16.472-44.1a29.656,29.656,0,0,1,11.638-7.261c7.56-2.189,12.126.47,12.126.47a7.631,7.631,0,0,0-4.267-3.74" transform="translate(0.627 0.408)" fill="#ffdf22"/>
            <path id="Trazado_874765" data-name="Trazado 874765" d="M71.23,19.508c-3.215-1.191-12.676-2.453-22.88,9.138C35.784,42.922,31.642,73.07,31.642,73.07l3.62,1.07s4.838-32.454,16.471-44.1a29.675,29.675,0,0,1,11.638-7.261c7.561-2.189,12.1-.009,12.1-.009a7.841,7.841,0,0,0-4.245-3.26" transform="translate(0.966 0.573)" fill="#f2a803"/>
            <path id="Trazado_874766" data-name="Trazado 874766" d="M95.959,54.773a40.143,40.143,0,0,0-.423-4.83,16.937,16.937,0,0,1-.2,4.941c-3.175,9.964-19.486,17.53-39.128,17.492-19.117-.037-35.05-7.266-38.779-16.85-.1-.249-.683-1.857-.765-2.109,0,1.069-.069,3.679-.071,4.881C16.57,69.946,34.307,79.426,56.208,79.468S95.881,70.1,95.9,58.452c0,0,.075-2.759.055-3.679" transform="translate(0.506 1.524)" fill="#512519"/>
            <path id="Trazado_874767" data-name="Trazado 874767" d="M32.911,68.084c0-5.057-3.074-10.93-6.866-13.12a4.37,4.37,0,0,0-4.519-.336l0-.005-2.344,1.4.495,1.018a9.118,9.118,0,0,0-.495,3.114c0,5.057,3.074,10.931,6.866,13.12a6.161,6.161,0,0,0,1.87.728l.448.922,2.274-1.352,0-.007c1.394-.871,2.276-2.781,2.276-5.481" transform="translate(0.585 1.652)" fill="#512519"/>
            <path id="Trazado_874768" data-name="Trazado 874768" d="M30.852,69.307c0,5.057-3.074,7.381-6.866,5.191s-6.866-8.063-6.866-13.12S20.193,54,23.985,56.187s6.866,8.063,6.866,13.12" transform="translate(0.522 1.69)" fill="#6d392b"/>
            <path id="Trazado_874769" data-name="Trazado 874769" d="M30.073,68.837c0,4.5-2.736,6.567-6.111,4.619s-6.11-7.174-6.11-11.675,2.736-6.567,6.11-4.619,6.111,7.175,6.111,11.675" transform="translate(0.545 1.722)" fill="#fcd702"/>
            <path id="Trazado_874770" data-name="Trazado 874770" d="M22.314,60.28c.144,1.491-.5,2.774-1.44,2.866S19.056,62.1,18.911,60.61s.5-2.774,1.44-2.865,1.82,1.044,1.964,2.535" transform="translate(0.577 1.762)" fill="#fff"/>
            <path id="Trazado_874771" data-name="Trazado 874771" d="M4.66,71.318a16.929,16.929,0,0,1,1.557-4c.14-.274-.211-.454-.472-.227a7.881,7.881,0,0,0-2.63,4.454c-.378,1.839-.258,4.472,1.317,5.726a.515.515,0,0,0,.852-.5c-.349-1.952-1.079-3.379-.624-5.46" transform="translate(0.09 2.044)" fill="#fff"/>
            <path id="Trazado_874772" data-name="Trazado 874772" d="M47.687,17.918c-3.925.873-9.319,5.664-11.982,10.438-1.887,3.383-3.621,7.13-3.645,10.943a.319.319,0,0,0,.589.16c4.787-7.379,8.741-14.891,15.465-20.806.349-.307-.027-.823-.428-.735" transform="translate(0.978 0.547)" fill="#fff"/>
            <path id="Trazado_874773" data-name="Trazado 874773" d="M108.278,89.112c9.107.019,16.481,4.109,16.472,9.137s-7.4,9.088-16.506,9.07-16.482-4.109-16.472-9.137,7.4-9.088,16.506-9.07" transform="translate(2.801 2.72)" fill="#ea524e"/>
            <rect id="Rectángulo_401438" data-name="Rectángulo 401438" width="32.978" height="3.515" transform="translate(94.573 97.453)" fill="#ea524e"/>
            <path id="Trazado_874774" data-name="Trazado 874774" d="M108.278,85.766c9.107.019,16.481,4.109,16.472,9.137s-7.4,9.088-16.506,9.07-16.482-4.109-16.472-9.137,7.4-9.088,16.506-9.07" transform="translate(2.801 2.617)" fill="#f7685e"/>
            <path id="Trazado_874775" data-name="Trazado 874775" d="M108.223,86.37c8.127.016,14.708,3.667,14.7,8.153s-6.6,8.11-14.73,8.094-14.708-3.667-14.7-8.153,6.6-8.11,14.73-8.094" transform="translate(2.853 2.636)" fill="#ea524e"/>
            <path id="Trazado_874776" data-name="Trazado 874776" d="M102.232,60.831,93.494,95.244l29.428.06-8.739-34.448Z" transform="translate(2.853 1.856)" fill="#ea524e"/>
            <path id="Trazado_874777" data-name="Trazado 874777" d="M107.955,57.641c3.3.007,5.973,1.489,5.97,3.311s-2.682,3.294-5.982,3.286-5.973-1.489-5.97-3.311,2.682-3.293,5.982-3.286" transform="translate(3.112 1.759)" fill="#f7685e"/>
            <path id="Trazado_874778" data-name="Trazado 874778" d="M119.628,81.9h-.008a3.689,3.689,0,0,1,.2,1.161c-.006,3.555-5.233,6.427-11.674,6.414s-11.657-2.906-11.65-6.461a3.556,3.556,0,0,1,.043-.469h-.043l-.94,3.826h0a3.965,3.965,0,0,0-.08.766c-.007,3.863,5.661,7.008,12.659,7.022s12.82-3.133,12.827-7c0-.447-1.332-5.264-1.332-5.264" transform="translate(2.914 2.5)" fill="#d6c9d4"/>
            <path id="Trazado_874779" data-name="Trazado 874779" d="M117.273,73.243h-.006a2.954,2.954,0,0,1,.157.931c-.005,2.844-4.187,5.142-9.341,5.131s-9.327-2.324-9.322-5.169a2.85,2.85,0,0,1,.035-.375h-.035l-.751,3.062h0a3.117,3.117,0,0,0-.065.612c-.006,3.092,4.529,5.607,10.129,5.618s10.258-2.506,10.263-5.6c0-.358-1.066-4.213-1.066-4.213" transform="translate(2.989 2.235)" fill="#d6c9d4"/>
            <path id="Trazado_874780" data-name="Trazado 874780" d="M115.19,65.395c0,2.195-3.232,3.969-7.208,3.96s-7.2-1.593-7.2-3.788c-.284,1.029-.6,2.276-.6,2.276h0a2.414,2.414,0,0,0-.049.472c-.005,2.386,3.494,4.327,7.815,4.335s7.915-1.933,7.921-4.319a27.792,27.792,0,0,0-.681-2.937" transform="translate(3.056 1.996)" fill="#d6c9d4"/>
            <path id="Trazado_874781" data-name="Trazado 874781" d="M66.259,98.82c9.107.019,16.481,4.109,16.472,9.137s-7.4,9.088-16.506,9.07-16.482-4.11-16.473-9.137,7.4-9.088,16.507-9.07" transform="translate(1.518 3.016)" fill="#ea524e"/>
            <rect id="Rectángulo_401439" data-name="Rectángulo 401439" width="32.978" height="3.515" transform="translate(51.271 107.457)" fill="#ea524e"/>
            <path id="Trazado_874782" data-name="Trazado 874782" d="M66.259,95.474c9.107.02,16.481,4.11,16.472,9.137s-7.4,9.088-16.506,9.07-16.482-4.109-16.473-9.137,7.4-9.088,16.507-9.07" transform="translate(1.518 2.914)" fill="#f7685e"/>
            <path id="Trazado_874783" data-name="Trazado 874783" d="M66.2,96.079c8.127.016,14.708,3.667,14.7,8.153s-6.6,8.11-14.73,8.094-14.708-3.668-14.7-8.153,6.6-8.11,14.73-8.094" transform="translate(1.571 2.932)" fill="#ea524e"/>
            <path id="Trazado_874784" data-name="Trazado 874784" d="M60.214,70.539l-8.739,34.413,29.429.06L72.165,70.564Z" transform="translate(1.571 2.153)" fill="#ea524e"/>
            <path id="Trazado_874785" data-name="Trazado 874785" d="M65.936,67.35c3.3.007,5.973,1.489,5.969,3.311s-2.681,3.294-5.981,3.286-5.973-1.489-5.97-3.311,2.682-3.293,5.982-3.286" transform="translate(1.83 2.055)" fill="#f7685e"/>
            <path id="Trazado_874786" data-name="Trazado 874786" d="M77.61,91.611H77.6a3.689,3.689,0,0,1,.2,1.161c-.006,3.555-5.233,6.427-11.674,6.414s-11.657-2.906-11.65-6.461a3.555,3.555,0,0,1,.043-.469h-.043l-.94,3.826h0a3.965,3.965,0,0,0-.08.766c-.007,3.863,5.661,7.008,12.659,7.022s12.82-3.133,12.827-7c0-.447-1.332-5.264-1.332-5.264" transform="translate(1.631 2.796)" fill="#d6c9d4"/>
            <path id="Trazado_874787" data-name="Trazado 874787" d="M75.254,82.952h-.006a2.941,2.941,0,0,1,.157.928c-.005,2.845-4.187,5.143-9.341,5.133s-9.327-2.326-9.322-5.17a2.835,2.835,0,0,1,.035-.375h-.035l-.751,3.062h0a3.117,3.117,0,0,0-.065.612c-.006,3.092,4.529,5.607,10.129,5.618s10.258-2.506,10.263-5.6c0-.358-1.066-4.212-1.066-4.212" transform="translate(1.707 2.532)" fill="#d6c9d4"/>
            <path id="Trazado_874788" data-name="Trazado 874788" d="M73.172,75.1c0,2.195-3.232,3.969-7.208,3.96s-7.2-1.593-7.2-3.788c-.284,1.029-.6,2.276-.6,2.276h0a2.416,2.416,0,0,0-.049.473c-.005,2.385,3.494,4.326,7.816,4.334s7.914-1.933,7.92-4.319a27.8,27.8,0,0,0-.681-2.937" transform="translate(1.774 2.292)" fill="#d6c9d4"/>
          </g>
        </g>
      </g>
    </g>
  </g>
</svg>
