<svg xmlns="http://www.w3.org/2000/svg" xmlns:xlink="http://www.w3.org/1999/xlink" width="78" height="78" viewBox="0 0 78 78">
  <defs>
    <clipPath id="clip-path">
      <rect id="Rectángulo_401089" data-name="Rectángulo 401089" width="78" height="78" transform="translate(1181 5667)" fill="#ffdc39" stroke="#707070" stroke-width="1"/>
    </clipPath>
  </defs>
  <g id="Enmascarar_grupo_1098688" data-name="Enmascarar grupo 1098688" transform="translate(-1181 -5667)" clip-path="url(#clip-path)">
    <path id="bienes" d="M48.356,59.129a1.258,1.258,0,0,0-1.258,0L40.572,62.9a1.258,1.258,0,0,0-.629,1.089v4.208a1.258,1.258,0,0,0,1.887,1.089l6.526-3.768a1.258,1.258,0,0,0,.629-1.089V60.219A1.258,1.258,0,0,0,48.356,59.129ZM46.469,63.7l-4.01,2.315v-1.3l4.01-2.315ZM69.484,45.526V21.387h0a1.258,1.258,0,0,0-.629-1.089L36.169,1.427a1.258,1.258,0,0,0-1.258,0L2.226,20.3A1.258,1.258,0,0,0,1.6,21.387h0V59.129a1.258,1.258,0,0,0,.629,1.089L34.911,79.09a1.258,1.258,0,0,0,1.258,0L54.748,68.363A13.994,13.994,0,1,0,69.484,45.526ZM65.709,21.387l-9.087,5.246L26.453,9.215,35.54,3.969ZM35.54,38.805,5.371,21.387l9.087-5.246L44.627,33.559Zm11.6-6.7L16.974,14.688l6.963-4.02,30.17,17.418ZM48.4,34.285l6.963-4.02V42.222L48.4,46.242ZM4.113,23.566l30.17,17.418V75.821L4.113,58.4ZM36.8,75.821V40.984l9.087-5.246V48.421a1.258,1.258,0,0,0,1.887,1.089l9.479-5.472a1.258,1.258,0,0,0,.629-1.089V28.813l9.087-5.246V44.912A14,14,0,0,0,50.925,58.76a13.916,13.916,0,0,0,2.252,7.605Zm28.124-5.58A11.481,11.481,0,1,1,76.4,58.76,11.494,11.494,0,0,1,64.922,70.241ZM73,52.727a3.143,3.143,0,0,0-4.449.015l-5.3,5.358-1.952-1.953A3.148,3.148,0,0,0,56.841,60.6l4.187,4.187a3.151,3.151,0,0,0,4.452,0C67.068,63.2,68.671,61.57,70.22,60q1.4-1.415,2.793-2.828A3.149,3.149,0,0,0,73,52.727ZM71.226,55.4q-1.4,1.414-2.8,2.832c-1.547,1.569-3.146,3.191-4.729,4.774a.632.632,0,0,1-.893,0L58.62,58.82a.631.631,0,0,1,.893-.893l2.847,2.847a1.259,1.259,0,0,0,.89.368h0a1.258,1.258,0,0,0,.891-.373l6.195-6.256a.621.621,0,0,1,.441-.184.612.612,0,0,1,.446.183.63.63,0,0,1,0,.889Z" transform="translate(1179.742 5665.742)" fill="#ffdc39"/>
  </g>
</svg>
