<svg xmlns="http://www.w3.org/2000/svg" xmlns:xlink="http://www.w3.org/1999/xlink" width="181.333" height="143.108" viewBox="0 0 181.333 143.108">
  <defs>
    <clipPath id="clip-path">
      <rect id="Rect치ngulo_401459" data-name="Rect치ngulo 401459" width="181.333" height="130.779" fill="none"/>
    </clipPath>
  </defs>
  <g id="Grupo_1100069" data-name="Grupo 1100069" transform="translate(-216 -6500.731)">
    <g id="Grupo_1099651" data-name="Grupo 1099651" transform="translate(216 6502.231)">
      <rect id="Rect치ngulo_401394" data-name="Rect치ngulo 401394" width="163.268" height="129.19" rx="20" transform="translate(9.033 0)" fill="none" stroke="#53bced" stroke-width="3"/>
      <g id="Grupo_1099591" data-name="Grupo 1099591" transform="translate(0 10.829)">
        <path id="Trazado_874794" data-name="Trazado 874794" d="M123.7,19.5,93.477,1.5,85.855,6.065,114.948,22.3Z" transform="translate(50.071 0.877)" fill="#ff618b"/>
        <g id="Grupo_1099590" data-name="Grupo 1099590" transform="translate(0 0)">
          <g id="Grupo_1099589" data-name="Grupo 1099589" clip-path="url(#clip-path)">
            <path id="Trazado_874795" data-name="Trazado 874795" d="M90.906,1.643,74.588,11.66V50.616l7.181-4.146c.8-5.546,4.183-11.314,8.233-13.652s7.432-.475,8.234,4.145l5.356-3.092V8.967A8.458,8.458,0,0,0,90.906,1.643" transform="translate(43.5 0.29)" fill="#ff618b"/>
            <path id="Trazado_874796" data-name="Trazado 874796" d="M112.424,38.1l-4.761-2.878-4.482-2.288s3.828-1.217,4.069-1.369,6.407,2.052,5.174,6.535" transform="translate(60.175 18.405)" fill="#262626"/>
            <path id="Trazado_874797" data-name="Trazado 874797" d="M109.946,37.863c0,4.569-2.779,9.878-6.2,11.857s-6.206-.122-6.206-4.691,2.779-9.878,6.206-11.857,6.2.122,6.2,4.691" transform="translate(56.883 18.912)" fill="#303030"/>
            <path id="Trazado_874798" data-name="Trazado 874798" d="M103.514,52.484l-4.493-2.528,8.017-17.222,4.3,2.4Z" transform="translate(57.749 19.09)" fill="#303030"/>
            <path id="Trazado_874799" data-name="Trazado 874799" d="M112.892,39.5c0,4.569-2.78,9.878-6.206,11.857s-6.206-.122-6.206-4.691,2.779-9.878,6.206-11.857,6.206.122,6.206,4.691" transform="translate(58.6 19.869)" fill="#494949"/>
            <path id="Trazado_874800" data-name="Trazado 874800" d="M109.9,39.688c0,2.962-1.8,6.4-4.023,7.686s-4.023-.079-4.023-3.041,1.8-6.4,4.023-7.686,4.023.079,4.023,3.041" transform="translate(59.404 21.091)" fill="#969696"/>
            <path id="Trazado_874801" data-name="Trazado 874801" d="M108.349,39.736a6.911,6.911,0,0,1-2.886,5.514c-1.594.921-2.886-.055-2.886-2.182a6.911,6.911,0,0,1,2.886-5.514c1.594-.921,2.886.057,2.886,2.182" transform="translate(59.823 21.7)" fill="#fff"/>
            <path id="Trazado_874802" data-name="Trazado 874802" d="M106.31,39.8a3.346,3.346,0,0,1-1.4,2.666c-.771.445-1.395-.027-1.395-1.054a3.34,3.34,0,0,1,1.395-2.666c.769-.445,1.4.027,1.4,1.054" transform="translate(60.372 22.498)" fill="#383838"/>
            <path id="Trazado_874803" data-name="Trazado 874803" d="M104.766,38.027a.644.644,0,0,1-.268.511c-.147.085-.268,0-.268-.2a.644.644,0,0,1,.268-.511c.147-.085.268.006.268.2" transform="translate(60.788 22.041)" fill="#383838"/>
            <path id="Trazado_874804" data-name="Trazado 874804" d="M105.909,38.027a.644.644,0,0,1-.268.511c-.147.085-.268,0-.268-.2a.644.644,0,0,1,.268-.511c.147-.085.268.006.268.2" transform="translate(61.454 22.041)" fill="#383838"/>
            <path id="Trazado_874805" data-name="Trazado 874805" d="M103.716,39.291a.644.644,0,0,1-.268.511c-.147.085-.268,0-.268-.2a.644.644,0,0,1,.268-.511c.147-.085.268.006.268.2" transform="translate(60.175 22.778)" fill="#383838"/>
            <path id="Trazado_874806" data-name="Trazado 874806" d="M105.909,40.4a.644.644,0,0,1-.268.511c-.147.085-.268,0-.268-.2a.644.644,0,0,1,.268-.511c.147-.085.268.006.268.2" transform="translate(61.454 23.425)" fill="#383838"/>
            <path id="Trazado_874807" data-name="Trazado 874807" d="M103.716,41.665a.641.641,0,0,1-.268.511c-.147.085-.268,0-.268-.2a.644.644,0,0,1,.268-.511c.147-.084.268.006.268.2" transform="translate(60.175 24.163)" fill="#383838"/>
            <path id="Trazado_874808" data-name="Trazado 874808" d="M106.182,39.122a.644.644,0,0,1-.268.511c-.147.085-.268-.006-.268-.2a.644.644,0,0,1,.268-.511c.147-.085.268,0,.268.2" transform="translate(61.613 22.679)" fill="#383838"/>
            <path id="Trazado_874809" data-name="Trazado 874809" d="M103.378,40.736a.644.644,0,0,1-.268.511c-.147.087-.268,0-.268-.2a.647.647,0,0,1,.268-.513c.147-.085.268.008.268.2" transform="translate(59.978 23.621)" fill="#383838"/>
            <path id="Trazado_874810" data-name="Trazado 874810" d="M104.766,41.665a.642.642,0,0,1-.268.511c-.147.085-.268,0-.268-.2a.644.644,0,0,1,.268-.511c.147-.084.268.006.268.2" transform="translate(60.788 24.163)" fill="#383838"/>
            <path id="Trazado_874811" data-name="Trazado 874811" d="M78.147,49.363,100.27,36.712l12.414,7.167L90.459,56.611Z" transform="translate(45.575 21.41)" fill="#6b6b6b"/>
            <path id="Trazado_874812" data-name="Trazado 874812" d="M108.189,41.239,85.855,54.012v6.057L108.189,47.3Z" transform="translate(50.071 24.051)" fill="#5b5b5b"/>
            <path id="Trazado_874813" data-name="Trazado 874813" d="M103.536,44.544,91.39,51.518v.687l12.146-6.971Z" transform="translate(53.299 25.978)" fill="#8c8c8c"/>
            <path id="Trazado_874814" data-name="Trazado 874814" d="M103.536,43.6,91.39,50.57v.687l12.146-6.971Z" transform="translate(53.299 25.426)" fill="#8c8c8c"/>
            <path id="Trazado_874815" data-name="Trazado 874815" d="M106.48,29.991l16.185-9.713L90.24,1.553,74.262,11.387Z" transform="translate(43.31 0.906)" fill="#f2466b"/>
            <path id="Trazado_874816" data-name="Trazado 874816" d="M78,12.574s9.607-5.864,13.06-7.87a44.817,44.817,0,0,1,4.113-2.058S94.814-.269,90.441.692A92.467,92.467,0,0,0,78,5.012Z" transform="translate(45.493 0.29)" fill="#f2466b"/>
            <path id="Trazado_874817" data-name="Trazado 874817" d="M119.138,15.81,93.527.833,78.969,5.7,103.992,22.7Z" transform="translate(46.055 0.486)" fill="#f2466b"/>
            <path id="Trazado_874818" data-name="Trazado 874818" d="M99.719,61.355,85.855,53.983V14.335l13.864,8.006Z" transform="translate(50.071 8.361)" fill="#fc6181"/>
            <path id="Trazado_874819" data-name="Trazado 874819" d="M104.554,26.289,78.005,11.545v-8.2l26.549,15.379Z" transform="translate(45.493 1.953)" fill="#fc6181"/>
            <path id="Trazado_874820" data-name="Trazado 874820" d="M51.262,63.794l6.828,3.942v7l-6.828-3.944Z" transform="translate(29.896 37.205)" fill="#303030"/>
            <path id="Trazado_874821" data-name="Trazado 874821" d="M92.468,47.992c0,4.569-2.779,9.878-6.2,11.857s-6.206-.122-6.206-4.691S82.836,45.28,86.263,43.3s6.2.122,6.2,4.691" transform="translate(46.689 24.819)" fill="#303030"/>
            <path id="Trazado_874822" data-name="Trazado 874822" d="M86.036,62.613l-4.493-2.528,8.017-17.222,4.3,2.4Z" transform="translate(47.556 24.997)" fill="#303030"/>
            <path id="Trazado_874823" data-name="Trazado 874823" d="M95.413,49.633c0,4.569-2.779,9.878-6.2,11.857S83,61.368,83,56.8s2.779-9.878,6.206-11.857,6.2.122,6.2,4.691" transform="translate(48.407 25.776)" fill="#494949"/>
            <path id="Trazado_874824" data-name="Trazado 874824" d="M92.427,49.817c0,2.962-1.8,6.4-4.023,7.686s-4.023-.079-4.023-3.041,1.8-6.4,4.023-7.686,4.023.079,4.023,3.041" transform="translate(49.211 26.998)" fill="#969696"/>
            <path id="Trazado_874825" data-name="Trazado 874825" d="M90.871,49.865a6.911,6.911,0,0,1-2.886,5.514C86.391,56.3,85.1,55.324,85.1,53.2a6.911,6.911,0,0,1,2.886-5.514c1.594-.921,2.886.057,2.886,2.182" transform="translate(49.63 27.607)" fill="#fff"/>
            <path id="Trazado_874826" data-name="Trazado 874826" d="M88.832,49.927a3.345,3.345,0,0,1-1.395,2.666c-.771.445-1.4-.027-1.4-1.054a3.342,3.342,0,0,1,1.4-2.666c.769-.445,1.395.027,1.395,1.054" transform="translate(50.179 28.405)" fill="#383838"/>
            <path id="Trazado_874827" data-name="Trazado 874827" d="M87.288,48.157a.644.644,0,0,1-.268.511c-.147.085-.268,0-.268-.2a.644.644,0,0,1,.268-.511c.147-.085.268,0,.268.2" transform="translate(50.594 27.948)" fill="#383838"/>
            <path id="Trazado_874828" data-name="Trazado 874828" d="M88.431,48.157a.644.644,0,0,1-.268.511c-.147.085-.268,0-.268-.2a.644.644,0,0,1,.268-.511c.147-.085.268,0,.268.2" transform="translate(51.261 27.948)" fill="#383838"/>
            <path id="Trazado_874829" data-name="Trazado 874829" d="M86.238,49.42a.642.642,0,0,1-.268.511c-.147.085-.268,0-.268-.2a.644.644,0,0,1,.268-.511c.147-.085.268.006.268.2" transform="translate(49.982 28.685)" fill="#383838"/>
            <path id="Trazado_874830" data-name="Trazado 874830" d="M88.431,50.529a.644.644,0,0,1-.268.511c-.147.085-.268,0-.268-.2a.644.644,0,0,1,.268-.511c.147-.085.268.006.268.2" transform="translate(51.261 29.332)" fill="#383838"/>
            <path id="Trazado_874831" data-name="Trazado 874831" d="M86.238,51.794a.644.644,0,0,1-.268.511c-.147.085-.268,0-.268-.2a.644.644,0,0,1,.268-.511c.147-.085.268.006.268.2" transform="translate(49.982 30.07)" fill="#383838"/>
            <path id="Trazado_874832" data-name="Trazado 874832" d="M88.7,49.25a.644.644,0,0,1-.268.511c-.147.085-.268,0-.268-.2a.644.644,0,0,1,.268-.511c.147-.085.268.006.268.2" transform="translate(51.42 28.586)" fill="#383838"/>
            <path id="Trazado_874833" data-name="Trazado 874833" d="M85.9,50.865a.644.644,0,0,1-.268.511c-.147.085-.268,0-.268-.2a.644.644,0,0,1,.268-.511c.147-.085.268.006.268.2" transform="translate(49.785 29.528)" fill="#383838"/>
            <path id="Trazado_874834" data-name="Trazado 874834" d="M87.288,51.794a.644.644,0,0,1-.268.511c-.147.085-.268,0-.268-.2a.644.644,0,0,1,.268-.511c.147-.085.268.006.268.2" transform="translate(50.594 30.07)" fill="#383838"/>
            <path id="Trazado_874835" data-name="Trazado 874835" d="M83.268,53.379c0,4.569-2.779,9.878-6.2,11.857s-6.206-.122-6.206-4.691,2.779-9.878,6.206-11.857,6.2.122,6.2,4.691" transform="translate(41.324 27.961)" fill="#303030"/>
            <path id="Trazado_874836" data-name="Trazado 874836" d="M76.837,68l-4.493-2.528,8.017-17.222,4.3,2.4Z" transform="translate(42.191 28.139)" fill="#303030"/>
            <path id="Trazado_874837" data-name="Trazado 874837" d="M86.214,55.02c0,4.569-2.779,9.878-6.2,11.857S73.8,66.755,73.8,62.186s2.779-9.878,6.206-11.857,6.2.122,6.2,4.691" transform="translate(43.042 28.918)" fill="#494949"/>
            <path id="Trazado_874838" data-name="Trazado 874838" d="M83.227,55.2c0,2.962-1.8,6.4-4.023,7.686s-4.023-.079-4.023-3.041,1.8-6.4,4.023-7.686,4.023.079,4.023,3.041" transform="translate(43.846 30.14)" fill="#969696"/>
            <path id="Trazado_874839" data-name="Trazado 874839" d="M81.673,55.252a6.912,6.912,0,0,1-2.888,5.514c-1.594.921-2.886-.055-2.886-2.182a6.911,6.911,0,0,1,2.886-5.514c1.594-.921,2.888.057,2.888,2.182" transform="translate(44.264 30.749)" fill="#fff"/>
            <path id="Trazado_874840" data-name="Trazado 874840" d="M79.632,55.315a3.341,3.341,0,0,1-1.4,2.666c-.769.445-1.395-.027-1.395-1.054a3.345,3.345,0,0,1,1.395-2.666c.771-.445,1.4.027,1.4,1.054" transform="translate(44.814 31.547)" fill="#383838"/>
            <path id="Trazado_874841" data-name="Trazado 874841" d="M78.088,53.543a.644.644,0,0,1-.268.511c-.147.085-.268,0-.268-.2a.644.644,0,0,1,.268-.511c.147-.085.268.006.268.2" transform="translate(45.229 31.09)" fill="#383838"/>
            <path id="Trazado_874842" data-name="Trazado 874842" d="M79.231,53.543a.644.644,0,0,1-.268.511c-.147.085-.268,0-.268-.2a.644.644,0,0,1,.268-.511c.147-.085.268.006.268.2" transform="translate(45.896 31.09)" fill="#383838"/>
            <path id="Trazado_874843" data-name="Trazado 874843" d="M77.038,54.808a.644.644,0,0,1-.268.511c-.147.085-.268,0-.268-.2a.644.644,0,0,1,.268-.511c.147-.085.268.006.268.2" transform="translate(44.617 31.828)" fill="#383838"/>
            <path id="Trazado_874844" data-name="Trazado 874844" d="M79.231,55.916a.644.644,0,0,1-.268.511c-.147.086-.268,0-.268-.2a.644.644,0,0,1,.268-.511c.147-.085.268.006.268.2" transform="translate(45.896 32.474)" fill="#383838"/>
            <path id="Trazado_874845" data-name="Trazado 874845" d="M77.038,57.181a.644.644,0,0,1-.268.511c-.147.085-.268,0-.268-.2a.644.644,0,0,1,.268-.511c.147-.085.268.006.268.2" transform="translate(44.617 33.212)" fill="#383838"/>
            <path id="Trazado_874846" data-name="Trazado 874846" d="M79.5,54.637a.644.644,0,0,1-.268.511c-.147.086-.268-.006-.268-.2a.644.644,0,0,1,.268-.511c.147-.086.268.006.268.2" transform="translate(46.055 31.728)" fill="#383838"/>
            <path id="Trazado_874847" data-name="Trazado 874847" d="M76.7,56.253a.644.644,0,0,1-.268.511c-.147.085-.268,0-.268-.2a.644.644,0,0,1,.268-.511c.147-.085.268.006.268.2" transform="translate(44.419 32.67)" fill="#383838"/>
            <path id="Trazado_874848" data-name="Trazado 874848" d="M78.088,57.181a.644.644,0,0,1-.268.511c-.147.085-.268,0-.268-.2a.644.644,0,0,1,.268-.511c.147-.085.268.006.268.2" transform="translate(45.229 33.212)" fill="#383838"/>
            <path id="Trazado_874849" data-name="Trazado 874849" d="M47.734,68.366,75.176,52.1,87.59,59.267,60.15,75.533Z" transform="translate(27.839 30.385)" fill="#6b6b6b"/>
            <path id="Trazado_874850" data-name="Trazado 874850" d="M55.576,72.851v6.061l27.442-16.22V56.626Z" transform="translate(32.412 33.024)" fill="#5b5b5b"/>
            <path id="Trazado_874851" data-name="Trazado 874851" d="M55.576,75.271v.687l26.3-15.419v-.689Z" transform="translate(32.412 34.905)" fill="#8c8c8c"/>
            <path id="Trazado_874852" data-name="Trazado 874852" d="M55.576,74.324v.687l26.3-15.419V58.9Z" transform="translate(32.412 34.352)" fill="#8c8c8c"/>
            <path id="Trazado_874853" data-name="Trazado 874853" d="M56.531,68.671c0,4.569-2.779,9.878-6.2,11.857s-6.206-.122-6.206-4.691S46.9,65.959,50.326,63.98s6.2.122,6.2,4.691" transform="translate(25.731 36.879)" fill="#303030"/>
            <path id="Trazado_874854" data-name="Trazado 874854" d="M50.1,83.291l-4.493-2.527,8.017-17.224,4.3,2.4Z" transform="translate(26.597 37.057)" fill="#303030"/>
            <path id="Trazado_874855" data-name="Trazado 874855" d="M59.476,70.312c0,4.569-2.779,9.878-6.2,11.857s-6.206-.122-6.206-4.691,2.779-9.878,6.206-11.857,6.2.122,6.2,4.691" transform="translate(27.448 37.836)" fill="#494949"/>
            <path id="Trazado_874856" data-name="Trazado 874856" d="M56.49,70.5c0,2.962-1.8,6.4-4.023,7.686s-4.023-.079-4.023-3.041,1.8-6.4,4.023-7.686,4.023.079,4.023,3.041" transform="translate(28.253 39.058)" fill="#969696"/>
            <path id="Trazado_874857" data-name="Trazado 874857" d="M54.934,70.543a6.911,6.911,0,0,1-2.886,5.514c-1.594.921-2.886-.055-2.886-2.182a6.911,6.911,0,0,1,2.886-5.514c1.594-.921,2.886.057,2.886,2.182" transform="translate(28.671 39.667)" fill="#fff"/>
            <path id="Trazado_874858" data-name="Trazado 874858" d="M52.894,70.606A3.345,3.345,0,0,1,51.5,73.272c-.771.445-1.4-.027-1.4-1.054a3.342,3.342,0,0,1,1.4-2.666c.769-.445,1.395.027,1.395,1.054" transform="translate(29.22 40.465)" fill="#383838"/>
            <path id="Trazado_874859" data-name="Trazado 874859" d="M51.351,68.834a.644.644,0,0,1-.268.511c-.147.085-.268,0-.268-.2a.644.644,0,0,1,.268-.511c.147-.085.268.006.268.2" transform="translate(29.636 40.008)" fill="#383838"/>
            <path id="Trazado_874860" data-name="Trazado 874860" d="M52.494,68.834a.644.644,0,0,1-.268.511c-.147.085-.268,0-.268-.2a.644.644,0,0,1,.268-.511c.147-.085.268.006.268.2" transform="translate(30.303 40.008)" fill="#383838"/>
            <path id="Trazado_874861" data-name="Trazado 874861" d="M50.3,70.1a.644.644,0,0,1-.268.511c-.147.085-.268,0-.268-.2a.644.644,0,0,1,.268-.511c.147-.085.268.006.268.2" transform="translate(29.023 40.745)" fill="#383838"/>
            <path id="Trazado_874862" data-name="Trazado 874862" d="M52.494,71.208a.644.644,0,0,1-.268.511c-.147.085-.268,0-.268-.2a.644.644,0,0,1,.268-.511c.147-.086.268.006.268.2" transform="translate(30.303 41.392)" fill="#383838"/>
            <path id="Trazado_874863" data-name="Trazado 874863" d="M50.3,72.472a.644.644,0,0,1-.268.511c-.147.085-.268,0-.268-.2a.644.644,0,0,1,.268-.511c.147-.086.268.006.268.2" transform="translate(29.023 42.129)" fill="#383838"/>
            <path id="Trazado_874864" data-name="Trazado 874864" d="M52.766,69.929a.644.644,0,0,1-.268.511c-.147.085-.268,0-.268-.2a.644.644,0,0,1,.268-.511c.147-.085.268.006.268.2" transform="translate(30.461 40.646)" fill="#383838"/>
            <path id="Trazado_874865" data-name="Trazado 874865" d="M49.962,71.544a.644.644,0,0,1-.268.511c-.147.085-.268,0-.268-.2a.644.644,0,0,1,.268-.511c.147-.085.268.006.268.2" transform="translate(28.826 41.588)" fill="#383838"/>
            <path id="Trazado_874866" data-name="Trazado 874866" d="M51.351,72.472a.644.644,0,0,1-.268.511c-.147.085-.268,0-.268-.2a.644.644,0,0,1,.268-.511c.147-.086.268.006.268.2" transform="translate(29.636 42.129)" fill="#383838"/>
            <path id="Trazado_874867" data-name="Trazado 874867" d="M48.371,73.39c0,4.569-2.779,9.878-6.2,11.857s-6.206-.122-6.206-4.691,2.779-9.878,6.206-11.857,6.2.122,6.2,4.691" transform="translate(20.972 39.631)" fill="#303030"/>
            <path id="Trazado_874868" data-name="Trazado 874868" d="M41.94,88.011l-4.495-2.528,8.019-17.222,4.3,2.4Z" transform="translate(21.838 39.81)" fill="#303030"/>
            <path id="Trazado_874869" data-name="Trazado 874869" d="M51.317,75.031c0,4.569-2.779,9.878-6.2,11.857s-6.206-.122-6.206-4.691,2.779-9.878,6.206-11.857,6.2.122,6.2,4.691" transform="translate(22.69 40.588)" fill="#494949"/>
            <path id="Trazado_874870" data-name="Trazado 874870" d="M48.33,75.216c0,2.962-1.8,6.4-4.023,7.686s-4.023-.079-4.023-3.041,1.8-6.4,4.023-7.686,4.023.079,4.023,3.041" transform="translate(23.494 41.811)" fill="#969696"/>
            <path id="Trazado_874871" data-name="Trazado 874871" d="M46.774,75.263a6.911,6.911,0,0,1-2.886,5.514C42.294,81.7,41,80.722,41,78.6a6.911,6.911,0,0,1,2.886-5.514c1.594-.921,2.886.057,2.886,2.182" transform="translate(23.912 42.419)" fill="#fff"/>
            <path id="Trazado_874872" data-name="Trazado 874872" d="M44.735,75.326a3.344,3.344,0,0,1-1.395,2.666c-.771.445-1.4-.027-1.4-1.054a3.342,3.342,0,0,1,1.4-2.666c.769-.445,1.395.027,1.395,1.054" transform="translate(24.462 43.218)" fill="#383838"/>
            <path id="Trazado_874873" data-name="Trazado 874873" d="M43.191,73.554a.644.644,0,0,1-.268.511c-.147.085-.268,0-.268-.2a.644.644,0,0,1,.268-.511c.147-.085.268.006.268.2" transform="translate(24.877 42.76)" fill="#383838"/>
            <path id="Trazado_874874" data-name="Trazado 874874" d="M44.334,73.554a.644.644,0,0,1-.268.511c-.147.085-.268,0-.268-.2a.644.644,0,0,1,.268-.511c.147-.085.268.006.268.2" transform="translate(25.544 42.76)" fill="#383838"/>
            <path id="Trazado_874875" data-name="Trazado 874875" d="M42.141,74.82a.644.644,0,0,1-.268.511c-.147.086-.268-.006-.268-.2a.644.644,0,0,1,.268-.511c.147-.085.268,0,.268.2" transform="translate(24.265 43.498)" fill="#383838"/>
            <path id="Trazado_874876" data-name="Trazado 874876" d="M44.334,75.927a.644.644,0,0,1-.268.511c-.147.085-.268,0-.268-.2a.644.644,0,0,1,.268-.511c.147-.085.268.006.268.2" transform="translate(25.544 44.144)" fill="#383838"/>
            <path id="Trazado_874877" data-name="Trazado 874877" d="M42.141,77.192a.644.644,0,0,1-.268.511c-.147.085-.268,0-.268-.2a.644.644,0,0,1,.268-.511c.147-.085.268.006.268.2" transform="translate(24.265 44.882)" fill="#383838"/>
            <path id="Trazado_874878" data-name="Trazado 874878" d="M44.607,74.648a.644.644,0,0,1-.268.511c-.147.085-.268,0-.268-.2a.644.644,0,0,1,.268-.511c.147-.085.268.006.268.2" transform="translate(25.703 43.398)" fill="#383838"/>
            <path id="Trazado_874879" data-name="Trazado 874879" d="M41.8,76.265a.644.644,0,0,1-.268.511c-.147.085-.268-.006-.268-.2a.644.644,0,0,1,.268-.511c.147-.085.268,0,.268.2" transform="translate(24.068 44.341)" fill="#383838"/>
            <path id="Trazado_874880" data-name="Trazado 874880" d="M43.191,77.192a.644.644,0,0,1-.268.511c-.147.085-.268,0-.268-.2a.644.644,0,0,1,.268-.511c.147-.085.268.006.268.2" transform="translate(24.877 44.882)" fill="#383838"/>
            <path id="Trazado_874881" data-name="Trazado 874881" d="M38.714,79.14c-1.81-.933-4.465-2.311-4.465-2.311l5.308-2.414Z" transform="translate(19.974 43.398)" fill="#494949"/>
            <path id="Trazado_874882" data-name="Trazado 874882" d="M45.646,68.261l-.489.288a16.477,16.477,0,0,0-8.089,14.179l1.491-.906.106-.621a15.424,15.424,0,0,1,5.465-9.36l.657-.534Z" transform="translate(21.618 39.81)" fill="#969696"/>
            <path id="Trazado_874883" data-name="Trazado 874883" d="M43.765,72.362l92.817-53.557L104.017,0,11.2,53.556Z" transform="translate(6.533 0)" fill="#ededed"/>
            <path id="Trazado_874884" data-name="Trazado 874884" d="M14.959,53.78,104.455,2.2l-1.843-.952-89.5,51.581Z" transform="translate(7.649 0.728)" fill="#ccc"/>
            <path id="Trazado_874885" data-name="Trazado 874885" d="M32.558,63.888l89.5-51.581-1.843-.951-89.5,51.581Z" transform="translate(17.913 6.623)" fill="#ccc"/>
            <path id="Trazado_874886" data-name="Trazado 874886" d="M12.01,65.614V70.93L44.574,89.72v-5.3Z" transform="translate(7.005 38.266)" fill="#303030"/>
            <path id="Trazado_874887" data-name="Trazado 874887" d="M34.1,76.923l-1.558.9v5.3l1.558-.9Z" transform="translate(18.978 44.862)" fill="#494949"/>
            <path id="Trazado_874888" data-name="Trazado 874888" d="M32.382,81.171l-2.117-1.222V77.128l2.117,1.221Z" transform="translate(17.651 44.981)" fill="#fc6181"/>
            <path id="Trazado_874889" data-name="Trazado 874889" d="M32.172,77.691l-.57.329v2.821l.57-.328Z" transform="translate(18.43 45.31)" fill="#d1406b"/>
            <path id="Trazado_874890" data-name="Trazado 874890" d="M32.952,78.14l-2.117-1.217-.57.329,2.117,1.217Z" transform="translate(17.651 44.861)" fill="#f95377"/>
            <path id="Trazado_874891" data-name="Trazado 874891" d="M14.679,70.605l-2.117-1.222V66.562l2.117,1.221Z" transform="translate(7.326 38.819)" fill="#fc6181"/>
            <path id="Trazado_874892" data-name="Trazado 874892" d="M14.469,67.126l-.57.329v2.821l.57-.328Z" transform="translate(8.106 39.148)" fill="#d1406b"/>
            <path id="Trazado_874893" data-name="Trazado 874893" d="M15.249,67.574l-2.117-1.216-.57.328L14.679,67.9Z" transform="translate(7.326 38.7)" fill="#f95377"/>
            <path id="Trazado_874894" data-name="Trazado 874894" d="M11.2,33.828v51.19l32.563,18.789V52.632Z" transform="translate(6.533 19.729)" fill="#ccc"/>
            <path id="Trazado_874895" data-name="Trazado 874895" d="M42.178,52.7,11.935,35.128V83.435l.046.027,30.2-17.425Z" transform="translate(6.96 20.487)" fill="#494949"/>
            <path id="Trazado_874896" data-name="Trazado 874896" d="M42.162,54.651l-30.2,17.425,30.2,17.529Z" transform="translate(6.977 31.873)" fill="#5b5b5b"/>
            <path id="Trazado_874897" data-name="Trazado 874897" d="M75.9,31.6,50.74,46.114l-3.782,4.954L75.9,34.373Z" transform="translate(27.386 18.428)" fill="#fff"/>
            <path id="Trazado_874898" data-name="Trazado 874898" d="M73.659,28.507,54.581,39.719,50.8,44.673l22.86-13.391Z" transform="translate(29.626 16.625)" fill="#fff"/>
            <path id="Trazado_874899" data-name="Trazado 874899" d="M31.77,65.372v51.274L124.587,63.1V11.815Z" transform="translate(18.528 6.891)" fill="#a5a5a5"/>
            <path id="Trazado_874900" data-name="Trazado 874900" d="M35.587,45.619l-1.2.7v44.8l1.2-.7Z" transform="translate(20.053 26.605)" fill="#8e8e8e"/>
            <path id="Trazado_874901" data-name="Trazado 874901" d="M38.992,43.656l-1.2.7v44.8l1.2-.7Z" transform="translate(22.038 25.461)" fill="#8e8e8e"/>
            <path id="Trazado_874902" data-name="Trazado 874902" d="M50.644,36.91l-1.2.7V82.4l1.2-.7Z" transform="translate(28.834 21.526)" fill="#8e8e8e"/>
            <path id="Trazado_874903" data-name="Trazado 874903" d="M54.048,34.947l-1.2.7v44.8l1.2-.7Z" transform="translate(30.819 20.381)" fill="#8e8e8e"/>
            <path id="Trazado_874904" data-name="Trazado 874904" d="M57.679,32.908l-1.2.7V78.4l1.2-.7Z" transform="translate(32.937 19.192)" fill="#8e8e8e"/>
            <path id="Trazado_874905" data-name="Trazado 874905" d="M61.084,30.945l-1.2.7v44.8l1.2-.7Z" transform="translate(34.922 18.047)" fill="#8e8e8e"/>
            <path id="Trazado_874906" data-name="Trazado 874906" d="M64.78,28.669l-1.2.7v44.8l1.2-.7Z" transform="translate(37.078 16.72)" fill="#8e8e8e"/>
            <path id="Trazado_874907" data-name="Trazado 874907" d="M68.185,26.706l-1.2.7V72.2l1.2-.7Z" transform="translate(39.064 15.575)" fill="#8e8e8e"/>
            <path id="Trazado_874908" data-name="Trazado 874908" d="M82.124,18.6l-1.2.7v44.8l1.2-.7Z" transform="translate(47.193 10.849)" fill="#8e8e8e"/>
            <path id="Trazado_874909" data-name="Trazado 874909" d="M85.529,16.64l-1.2.7v44.8l1.2-.7Z" transform="translate(49.179 9.705)" fill="#8e8e8e"/>
            <path id="Trazado_874910" data-name="Trazado 874910" d="M87.238,46.1l2.117-1.222V42.054l-2.117,1.222Z" transform="translate(50.878 24.526)" fill="#fff"/>
            <path id="Trazado_874911" data-name="Trazado 874911" d="M86.879,42.619l.57.329v2.821l-.57-.328Z" transform="translate(50.668 24.855)" fill="#bbb"/>
            <path id="Trazado_874912" data-name="Trazado 874912" d="M86.879,43.066,89,41.851l.57.328L87.449,43.4Z" transform="translate(50.668 24.407)" fill="#cecece"/>
            <path id="Trazado_874913" data-name="Trazado 874913" d="M43.429,71.5l2.117-1.222V67.453l-2.117,1.221Z" transform="translate(25.328 39.339)" fill="#fff"/>
            <path id="Trazado_874914" data-name="Trazado 874914" d="M43.07,68.017l.57.329v2.821l-.57-.328Z" transform="translate(25.118 39.668)" fill="#bbb"/>
            <path id="Trazado_874915" data-name="Trazado 874915" d="M43.07,68.465l2.117-1.216.57.328L43.64,68.794Z" transform="translate(25.118 39.22)" fill="#cecece"/>
            <path id="Trazado_874916" data-name="Trazado 874916" d="M16.929,34.766.621,44.184V92.453l16.309-9.411Z" transform="translate(0.362 20.276)" fill="#ccc"/>
            <path id="Trazado_874917" data-name="Trazado 874917" d="M.982,89.253,0,88.521V40.253l.982.731Z" transform="translate(0 23.476)" fill="#a5a5a5"/>
            <path id="Trazado_874918" data-name="Trazado 874918" d="M17.291,35.035,16.31,34.3,0,43.722l.983.731Z" transform="translate(0 20.006)" fill="#ededed"/>
            <path id="Trazado_874919" data-name="Trazado 874919" d="M1.69,87.309l5.969-3.333V39.055L1.69,42.387Z" transform="translate(0.986 22.777)" fill="#a5a5a5"/>
            <path id="Trazado_874920" data-name="Trazado 874920" d="M6.342,84.629,12.31,81.3V36.375L6.342,39.707Z" transform="translate(3.698 21.214)" fill="#a5a5a5"/>
            <path id="Trazado_874921" data-name="Trazado 874921" d="M110.886,13.523,94.568,23.54V62.5l7.181-4.146c.8-5.546,4.183-11.314,8.234-13.652s7.43-.475,8.233,4.145l5.356-3.092v-24.9a8.458,8.458,0,0,0-12.686-7.324" transform="translate(55.152 7.219)" fill="#d1406b"/>
            <path id="Trazado_874922" data-name="Trazado 874922" d="M102.569,14.8l-1.037.6V47.877l1.037-1.278Z" transform="translate(59.213 8.631)" fill="#b7325e"/>
            <path id="Trazado_874923" data-name="Trazado 874923" d="M107.338,34c-3.671,2.12-6.735,7.348-7.463,12.374l-.769.445c.8-5.546,4.181-11.315,8.233-13.654s7.43-.473,8.233,4.146l-.769.445c-.728-4.186-3.792-5.877-7.463-3.757" transform="translate(57.798 18.753)" fill="#fff"/>
            <path id="Trazado_874924" data-name="Trazado 874924" d="M94.774,22.288s9.607-5.864,13.06-7.87a44.814,44.814,0,0,1,4.113-2.058s-.364-2.915-4.737-1.954a92.466,92.466,0,0,0-12.436,4.321Z" transform="translate(55.272 5.955)" fill="#d1406b"/>
            <path id="Trazado_874925" data-name="Trazado 874925" d="M105.231,23.5a5.34,5.34,0,0,1,2.221-4.245l4.553-2.628a1.479,1.479,0,0,1,1.29-.18,1.282,1.282,0,0,0-1.979-.508l-4.553,2.628a5.34,5.34,0,0,0-2.221,4.245V33.33a1.83,1.83,0,0,0,.929,1.86,2.7,2.7,0,0,1-.241-1.172Z" transform="translate(60.969 9.146)" fill="#383838"/>
            <path id="Trazado_874926" data-name="Trazado 874926" d="M106.51,34.754l4.553-2.628a5.344,5.344,0,0,0,2.221-4.245V17.367a2.673,2.673,0,0,0-.242-1.172,1.486,1.486,0,0,0-1.29.182L107.2,19.006a5.34,5.34,0,0,0-2.221,4.245V33.763a2.686,2.686,0,0,0,.241,1.172,1.483,1.483,0,0,0,1.292-.18" transform="translate(61.223 9.4)" fill="#494949"/>
            <path id="Trazado_874927" data-name="Trazado 874927" d="M116.876,31.815l-6.35,3.648V38.8l6.35-3.664Z" transform="translate(64.458 18.555)" fill="#ccc"/>
            <path id="Trazado_874928" data-name="Trazado 874928" d="M109.443,33.5v3.336l1.713.993V34.484Z" transform="translate(63.827 19.535)" fill="#a5a5a5"/>
            <path id="Trazado_874929" data-name="Trazado 874929" d="M109.443,35.037,114.9,31.97V30.853l2.609,1.525-6.352,3.648Z" transform="translate(63.827 17.993)" fill="#ededed"/>
            <path id="Trazado_874930" data-name="Trazado 874930" d="M96.369,41.355l2.117-1.222V37.311l-2.117,1.221Z" transform="translate(56.203 21.76)" fill="#fff"/>
            <path id="Trazado_874931" data-name="Trazado 874931" d="M96.01,37.875l.57.329v2.821l-.57-.328Z" transform="translate(55.993 22.089)" fill="#bbb"/>
            <path id="Trazado_874932" data-name="Trazado 874932" d="M96.01,38.323l2.117-1.216.57.328L96.58,38.652Z" transform="translate(55.993 21.641)" fill="#cecece"/>
            <path id="Trazado_874933" data-name="Trazado 874933" d="M34.971,55.49,24.293,49.315V66.672l10.679,6.192Z" transform="translate(14.167 28.761)" fill="#dba763"/>
            <path id="Trazado_874934" data-name="Trazado 874934" d="M33.866,45.819l-9.574,5.535,10.68,6.174V46.5Z" transform="translate(14.167 26.722)" fill="#ffe1c0"/>
            <path id="Trazado_874935" data-name="Trazado 874935" d="M26.992,55.067l2.563,1.488v-4.2l-2.563-1.49Z" transform="translate(15.742 29.665)" fill="#4d4d4d"/>
            <path id="Trazado_874936" data-name="Trazado 874936" d="M33.4,48.527l-6.406,3.7,2.563,1.495L33.4,51.5Z" transform="translate(15.742 28.301)" fill="#6d6d6d"/>
            <path id="Trazado_874937" data-name="Trazado 874937" d="M26.645,53.375v2.566L24.8,54.872V52.3Z" transform="translate(14.463 30.504)" fill="#4d4d4d"/>
            <path id="Trazado_874938" data-name="Trazado 874938" d="M26.763,75.121l0-7.924-11.5-6.646v7.908Z" transform="translate(8.906 35.313)" fill="#dba763"/>
            <path id="Trazado_874939" data-name="Trazado 874939" d="M22.53,75.121l0-7.924,11.5-6.646v7.908Z" transform="translate(13.139 35.313)" fill="#e8b679"/>
            <path id="Trazado_874940" data-name="Trazado 874940" d="M38.262,63l-11.5,6.646L15.271,63l11.491-6.645Z" transform="translate(8.906 32.866)" fill="#ffe1c0"/>
            <path id="Trazado_874941" data-name="Trazado 874941" d="M17.971,66.3l2.563,1.488v-4.2L17.971,62.1Z" transform="translate(10.48 36.218)" fill="#4d4d4d"/>
            <path id="Trazado_874942" data-name="Trazado 874942" d="M17.971,64.546l11.48-6.637,2.568,1.483L20.534,66.041Z" transform="translate(10.48 33.773)" fill="#6d6d6d"/>
            <path id="Trazado_874943" data-name="Trazado 874943" d="M22.992,69.55v-.739l-3.86-2.239v.75Z" transform="translate(11.158 38.825)" fill="#4d4d4d"/>
            <path id="Trazado_874944" data-name="Trazado 874944" d="M22.992,68.715v-.739l-3.86-2.239v.75Z" transform="translate(11.158 38.338)" fill="#4d4d4d"/>
            <path id="Trazado_874945" data-name="Trazado 874945" d="M17.624,64.609v2.566l-1.846-1.069V63.54Z" transform="translate(9.202 37.057)" fill="#4d4d4d"/>
            <path id="Trazado_874946" data-name="Trazado 874946" d="M28.33,64.71v2.674l1.846-1.067V63.645Z" transform="translate(16.522 37.118)" fill="#4d4d4d"/>
            <path id="Trazado_874947" data-name="Trazado 874947" d="M26.739,65.633v2.674l1.846-1.067V64.567Z" transform="translate(15.594 37.656)" fill="#4d4d4d"/>
            <path id="Trazado_874948" data-name="Trazado 874948" d="M22.847,65.765v3.842l3.793-2.191V63.569Z" transform="translate(13.325 37.074)" fill="#fff"/>
            <path id="Trazado_874949" data-name="Trazado 874949" d="M23.141,66.317v-.625l2.984-1.721v.616Z" transform="translate(13.496 37.308)" fill="#4d4d4d"/>
            <path id="Trazado_874950" data-name="Trazado 874950" d="M34.607,71.707l-9.735-5.628v7.908l9.735,5.644Z" transform="translate(14.505 38.538)" fill="#dba763"/>
            <path id="Trazado_874951" data-name="Trazado 874951" d="M34.607,62.529l-9.735,5.62,9.735,5.628Z" transform="translate(14.505 36.467)" fill="#ffe1c0"/>
            <path id="Trazado_874952" data-name="Trazado 874952" d="M27.572,71.83l2.563,1.488v-4.2l-2.563-1.49Z" transform="translate(16.08 39.442)" fill="#4d4d4d"/>
            <path id="Trazado_874953" data-name="Trazado 874953" d="M33.033,65.638l-5.46,3.154,2.563,1.495,2.9-1.673Z" transform="translate(16.08 38.28)" fill="#6d6d6d"/>
            <path id="Trazado_874954" data-name="Trazado 874954" d="M32.595,65.135l-4.271-2.47v4.628l4.271,2.478Z" transform="translate(16.518 36.547)" fill="#dba763"/>
            <path id="Trazado_874955" data-name="Trazado 874955" d="M32.595,61.113l-4.271,2.467,4.271,2.47Z" transform="translate(16.518 35.641)" fill="#ffe1c0"/>
            <path id="Trazado_874956" data-name="Trazado 874956" d="M31.9,64.742l-2.4-1.392v2.44l2.4,1.392Z" transform="translate(17.209 36.946)" fill="#4d4d4d"/>
            <path id="Trazado_874957" data-name="Trazado 874957" d="M25.186,66.744l0-4.631-7.424-4.29v4.634Z" transform="translate(10.361 33.722)" fill="#dba763"/>
            <path id="Trazado_874958" data-name="Trazado 874958" d="M22.453,67.009l0-4.631,8.666-5.009V62Z" transform="translate(13.095 33.457)" fill="#e8b679"/>
            <path id="Trazado_874959" data-name="Trazado 874959" d="M33.856,58.949,25.19,63.958l-7.424-4.29,8.662-5.009Z" transform="translate(10.361 31.877)" fill="#ffe1c0"/>
            <path id="Trazado_874960" data-name="Trazado 874960" d="M23.021,63.631v-.478l-2.492-1.445v.484Z" transform="translate(11.973 35.988)" fill="#4d4d4d"/>
            <path id="Trazado_874961" data-name="Trazado 874961" d="M23.021,63.091v-.478l-2.492-1.444v.484Z" transform="translate(11.973 35.674)" fill="#4d4d4d"/>
            <path id="Trazado_874962" data-name="Trazado 874962" d="M26.756,58.871v2.155l1.487-.86V58.013Z" transform="translate(15.604 33.834)" fill="#4d4d4d"/>
            <path id="Trazado_874963" data-name="Trazado 874963" d="M22.822,61.646v2.571l3.793-2.193V59.451Z" transform="translate(13.31 34.672)" fill="#fff"/>
            <path id="Trazado_874964" data-name="Trazado 874964" d="M23.115,62.2v-.625L26.1,59.852v.614Z" transform="translate(13.481 34.906)" fill="#4d4d4d"/>
            <path id="Trazado_874965" data-name="Trazado 874965" d="M18.951,60.942l2.563,1.488V59.99L18.951,58.5Z" transform="translate(11.052 34.119)" fill="#4d4d4d"/>
            <path id="Trazado_874966" data-name="Trazado 874966" d="M18.951,60.345l8.655-5,2.571,1.483L21.514,61.84Z" transform="translate(11.052 32.275)" fill="#6d6d6d"/>
            <path id="Trazado_874967" data-name="Trazado 874967" d="M30.19,46.167,46.5,55.586v48.269L30.19,94.444Z" transform="translate(17.607 26.925)" fill="#ccc"/>
            <path id="Trazado_874968" data-name="Trazado 874968" d="M40.491,100.653l.982-.731V51.655l-.982.73Z" transform="translate(23.615 30.125)" fill="#8e8e8e"/>
            <path id="Trazado_874969" data-name="Trazado 874969" d="M30.19,46.436l.982-.73,16.31,9.417-.983.731Z" transform="translate(17.607 26.656)" fill="#ededed"/>
            <path id="Trazado_874970" data-name="Trazado 874970" d="M41.62,98.71l-5.969-3.333V50.456l5.969,3.333Z" transform="translate(20.792 29.426)" fill="#a5a5a5"/>
            <path id="Trazado_874971" data-name="Trazado 874971" d="M36.968,96.03,31,92.7V47.776l5.969,3.333Z" transform="translate(18.079 27.863)" fill="#a5a5a5"/>
          </g>
        </g>
      </g>
    </g>
  </g>
</svg>
