<svg xmlns="http://www.w3.org/2000/svg" width="176.229" height="132.036" viewBox="0 0 176.229 132.036">
  <g id="Grupo_1100055" data-name="Grupo 1100055" transform="translate(-192.5 -3986.962)">
    <g id="Grupo_1099219" data-name="Grupo 1099219" transform="translate(0 756)">
      <rect id="Rectángulo_401183" data-name="Rectángulo 401183" width="146" height="89" rx="20" transform="translate(194 3241)" fill="none" stroke="#ff725d" stroke-miterlimit="10" stroke-width="3"/>
      <g id="envase" transform="translate(213.403 3230.962)">
        <path id="Trazado_156124" data-name="Trazado 156124" d="M156.891,373.623H57.664a2.067,2.067,0,0,1-2.067-2.067V330.211a2.067,2.067,0,0,1,2.067-2.067h99.227a2.067,2.067,0,0,1,2.067,2.067v41.344A2.067,2.067,0,0,1,156.891,373.623Z" transform="translate(-5.566 -243.521)" fill="#96c3f0"/>
        <circle id="Elipse_4726" data-name="Elipse 4726" cx="4.134" cy="4.134" r="4.134" transform="translate(97.578 26.74)" fill="#867e88"/>
        <path id="Trazado_156125" data-name="Trazado 156125" d="M240.4,127.741H230.136a2.067,2.067,0,0,0-1.9,2.882l4.43,10.336a2.067,2.067,0,0,0,1.9,1.253h1.408a2.067,2.067,0,0,0,1.9-1.253l4.43-10.336A2.067,2.067,0,0,0,240.4,127.741Z" transform="translate(-133.558 -94.799)" fill="#ffd164"/>
        <path id="Trazado_156126" data-name="Trazado 156126" d="M151.325,82.689h-1.558L107.67,58.9a6.064,6.064,0,0,0-3.984-6.886.343.343,0,0,1-.04-.162v-2.7a4,4,0,0,0,2.448-2.23l4.43-10.336a4,4,0,0,0-2.743-5.466V1.934a1.934,1.934,0,1,0-3.868,0V25.221a6.045,6.045,0,0,0-4.4,0V1.934a1.934,1.934,0,0,0-3.868,0V31.12A4,4,0,0,0,92.9,36.586l4.43,10.336a4,4,0,0,0,2.448,2.23v2.7a3.965,3.965,0,0,0,2.633,3.814,2.2,2.2,0,1,1-2.9,2.087,1.934,1.934,0,1,0-3.868,0,6.063,6.063,0,0,0,.11,1.146l-42.1,23.794H52.1a4.006,4.006,0,0,0-4,4v41.344a4.006,4.006,0,0,0,4,4h99.227a4.006,4.006,0,0,0,4-4V86.69A4.006,4.006,0,0,0,151.325,82.689ZM101.712,28.675a2.2,2.2,0,0,1,2.2,2.2v.133h-4.4v-.133A2.2,2.2,0,0,1,101.712,28.675Zm-5.256,6.387a.133.133,0,0,1,.122-.185h10.268a.133.133,0,0,1,.122.185L102.538,45.4a.133.133,0,0,1-.122.081h-1.408a.133.133,0,0,1-.122-.081Zm1.2,27.2a6.055,6.055,0,0,0,8.105,0l36.141,20.427H61.518ZM79.1,86.557v41.611H72.637V86.557Zm3.868,0h6.468v41.611H82.973Zm10.336,0h6.468v41.611H93.309Zm10.336,0h6.468v41.611h-6.468Zm10.336,0h6.468v41.611h-6.468Zm10.336,0h6.468v41.611h-6.468ZM51.965,128.034V86.69a.133.133,0,0,1,.133-.133h6.335v29.074a1.934,1.934,0,1,0,3.868,0V86.557h6.468v41.611H62.3V123.9a1.934,1.934,0,0,0-3.868,0v4.267H52.1A.134.134,0,0,1,51.965,128.034Zm99.493,0a.133.133,0,0,1-.133.133H144.99V99.093a1.934,1.934,0,1,0-3.868,0v29.074h-6.468V86.557h6.468v4.267a1.934,1.934,0,0,0,3.868,0V86.557h6.335a.133.133,0,0,1,.133.133v41.344Z" fill="#12263f"/>
      </g>
    </g>
  </g>
</svg>
