<svg xmlns="http://www.w3.org/2000/svg" xmlns:xlink="http://www.w3.org/1999/xlink" width="400" height="421" viewBox="0 0 400 421">
  <defs>
    <filter id="Trazado_876794" x="31" y="346" width="338" height="60" filterUnits="userSpaceOnUse">
      <feOffset dy="3" input="SourceAlpha"/>
      <feGaussianBlur stdDeviation="3" result="blur"/>
      <feFlood flood-opacity="0.161"/>
      <feComposite operator="in" in2="blur"/>
      <feComposite in="SourceGraphic"/>
    </filter>
  </defs>
  <g id="Grupo_1100057" data-name="Grupo 1100057" transform="translate(-600 -7005.656)">
    <path id="_7056" data-name="7056" d="M22,0H378a22,22,0,0,1,22,22V399a22,22,0,0,1-22,22H22A22,22,0,0,1,0,399V22A22,22,0,0,1,22,0Z" transform="translate(600 7005.656)" fill="#53bced"/>
    <path id="Trazado_149821" data-name="Trazado 149821" d="M48.759,229.076l124.66,71.243,109.825-64.037L158.8,164.936Z" transform="translate(623.015 7085.909)" fill="#401888" opacity="0.25" style="mix-blend-mode: multiply;isolation: isolate"/>
    <path id="Trazado_149822" data-name="Trazado 149822" d="M92.156,185.514c-27.344,0-49.51,12.476-49.51,27.865s22.166,27.86,49.51,27.86,49.5-12.476,49.5-27.86S119.5,185.514,92.156,185.514Z" transform="translate(599.353 7165.576)" fill="#401888" opacity="0.25" style="mix-blend-mode: multiply;isolation: isolate"/>
    <path id="Trazado_149823" data-name="Trazado 149823" d="M136.578,165.171c-27.344,0-49.509,12.476-49.509,27.865S109.235,220.9,136.578,220.9s49.5-12.476,49.5-27.865S163.918,165.171,136.578,165.171Z" transform="translate(771.334 7086.817)" fill="#401888" opacity="0.25" style="mix-blend-mode: multiply;isolation: isolate"/>
    <g id="Grupo_79804" data-name="Grupo 79804" transform="translate(651.189 7025.656)">
      <g id="Grupo_79780" data-name="Grupo 79780" transform="translate(168.606)">
        <path id="Trazado_149824" data-name="Trazado 149824" d="M96.256,176.817c-3.809,3.712-4.988,4.779-8.525,8.233-2.066,2.017-.365,3.868,3.571,3.717a70.937,70.937,0,0,0,15.677-3.391,80.227,80.227,0,0,0,11.74-6.119,7.79,7.79,0,0,0,3.483-4.409v-6.2l-18.746.794S100.372,172.8,96.256,176.817Z" transform="translate(-49.322 74.638)" fill="#512e2b"/>
        <path id="Trazado_149825" data-name="Trazado 149825" d="M113.667,170.547a51.674,51.674,0,0,1-6.089,6.893,67.152,67.152,0,0,0-8.306,9.616c-.77,1.013-1.218,3.907,2.718,3.756,3.459-.136,8.73-1.607,13.114-3.171,5.008-1.783,9.236-6.83,12.15-8.671s4.2-5.919,4.2-5.919l-2.017-6.1Z" transform="translate(-3.218 68.037)" fill="#512e2b"/>
        <path id="Trazado_149826" data-name="Trazado 149826" d="M153.273,223.747c-.877-17.932-5.919-36.493-5.247-46.932,1.457-22.74-11.078-34.69-11.078-34.69,1-7.663-34.544,3.059-34.544,3.059S94.8,186.377,91.58,208.065c-3.654,24.65-1.442,74.856-1.442,74.856s.463,5.359,9.646,5.32c7.044-.024,12.242-6.2,12.242-6.2l.726-57.133,8.165-40.521s7.858,32.932,10.347,44.745c2.65,12.573,12.812,49.768,12.812,49.768s6.572,7.556,14.736,3.473,6.557-8.637,6.557-8.637S163.767,247.354,153.273,223.747Z" transform="translate(-39.146 -38.755)" fill="#3d6ec4"/>
        <path id="Trazado_149827" data-name="Trazado 149827" d="M109.492,128.3s-5.081-.248-10.328,9.611S88.9,158.269,88.9,158.269s7.643,1.091,15.949,8.744C116.22,156.74,118.076,133.108,109.492,128.3Z" transform="translate(-41.371 -81.572)" fill="#f6634d"/>
        <path id="Trazado_149828" data-name="Trazado 149828" d="M128.026,127.677s-18.142-.921-29.073,3.376a80.794,80.794,0,0,0-5.48,15.54c-2.626,10.055-1.686,56.817-1.686,56.817s10.839,7.658,28.976,6.158c10.786-.891,16.29-7.57,16.29-7.57s6.45-45.793,5.573-52.35S128.026,127.677,128.026,127.677Z" transform="translate(-30.831 -84.32)" fill="#ff725d"/>
        <path id="Trazado_149829" data-name="Trazado 149829" d="M97.352,135.219,95.243,147.5s6.255,7.02,12.379,1.773,7-7.663,7-7.663L111.6,124.867Z" transform="translate(-16.814 -94.878)" fill="#ffad97"/>
        <g id="Grupo_79776" data-name="Grupo 79776" transform="translate(58.821 44.058)">
          <path id="Trazado_149830" data-name="Trazado 149830" d="M121.145,129.117c-2.645.4-4.36,1.13-9.987,4.048s-11.794,10-14.254,14.337c-4.95,8.744.638,11.092,4.263,6.046,0,0,7.907-11.891,14.157-15.224s9.626-3.961,9.626-3.961S122.67,129.663,121.145,129.117Z" transform="translate(-76.766 -122.482)" fill="#3d6ec4"/>
          <path id="Trazado_149831" data-name="Trazado 149831" d="M92.568,147.548c-.619,5.9.56,7.721,2.933,7.926s2.509-4,3.21-8.7c.663-4.438,5-19.019,5-19.019l-5.373,1.608S93.187,141.644,92.568,147.548Z" transform="translate(-86.62 -127.755)" fill="#3d6ec4"/>
          <path id="Trazado_149832" data-name="Trazado 149832" d="M128.027,184.292c-5.008-.546-12.218-5.417-11.833-21.259s1.851-23.135,1.851-23.135l-19.14-8.389s-5.2,12.033-6.226,35.635-1.461,31.738-1.461,31.738,20.426,1.252,32.518,0,17.143-2.748,17.143-2.748L139.5,180.366S133.737,184.916,128.027,184.292Z" transform="translate(-91.218 -113.221)" fill="#3d6ec4"/>
          <ellipse id="Elipse_4710" data-name="Elipse 4710" cx="1.212" cy="1.759" rx="1.212" ry="1.759" transform="translate(7.375 20.868)" fill="#fff"/>
          <path id="Trazado_149833" data-name="Trazado 149833" d="M95.93,134.2c-.565.789-.585,1.744-.044,2.134s1.447.068,2.012-.721.585-1.744.044-2.134S96.5,133.413,95.93,134.2Z" transform="translate(-74.666 -106.225)" fill="#fff"/>
          <path id="Trazado_149834" data-name="Trazado 149834" d="M99.359,152.267c6.4,1.7,8.058-5.846,9.534-11.682a64.03,64.03,0,0,1-16.208-6.616C91.905,137.931,92.3,150.392,99.359,152.267Z" transform="translate(-86.644 -103.693)" fill="#4b87dd"/>
        </g>
        <path id="Trazado_149835" data-name="Trazado 149835" d="M115.885,123.269c-5.227-3.98-17.606-5.256-22.127,7.536-4.74,13.416,7.4,30.169,13.869,27.324,3.624-1.593,11.239-7.259,13.387-14.322C123.431,135.857,119.948,126.363,115.885,123.269Z" transform="translate(-26.71 -111.714)" fill="#ffc5b3"/>
        <g id="Grupo_79778" data-name="Grupo 79778" transform="translate(0 63.594)">
          <path id="Trazado_149836" data-name="Trazado 149836" d="M87.194,205.269l39.215-22.308v-45.9l-39.215,19.55Z" transform="translate(-47.978 -111.273)" fill="#dba763"/>
          <path id="Trazado_149837" data-name="Trazado 149837" d="M79.144,182.962l39.215,22.308V156.609l-39.215-19.55Z" transform="translate(-79.144 -111.273)" fill="#e8b679"/>
          <path id="Trazado_149838" data-name="Trazado 149838" d="M87.207,208.167l39.2-22.726V136.418L87.194,159.088Z" transform="translate(-47.978 -113.752)" fill="#dba763"/>
          <path id="Trazado_149839" data-name="Trazado 149839" d="M79.144,136.418v49.024l39.229,22.726-.013-49.079Z" transform="translate(-79.144 -113.752)" fill="#e8b679"/>
          <path id="Trazado_149840" data-name="Trazado 149840" d="M79.144,154.43,118.359,177.1l39.215-22.671-39.2-22.665Z" transform="translate(-79.144 -131.765)" fill="#ffe1c0"/>
          <g id="Grupo_79777" data-name="Grupo 79777" transform="translate(2.332 8.4)">
            <path id="Trazado_149841" data-name="Trazado 149841" d="M90.455,157.541l8.745-5.077V138.137l-8.745,5.081Z" transform="translate(-37.681 -115.496)" fill="#512e2b"/>
            <path id="Trazado_149842" data-name="Trazado 149842" d="M82.413,138.554l39.179,22.674,8.745-5.1-39.16-22.641Z" transform="translate(-68.817 -133.489)" fill="#724941"/>
            <path id="Trazado_149843" data-name="Trazado 149843" d="M88.26,157.778l13.165-7.6v-2.559L88.26,155.254Z" transform="translate(-46.181 -78.785)" fill="#512e2b"/>
            <path id="Trazado_149844" data-name="Trazado 149844" d="M88.26,156.851l13.165-7.6v-2.559L88.26,154.328Z" transform="translate(-46.181 -82.37)" fill="#512e2b"/>
            <path id="Trazado_149845" data-name="Trazado 149845" d="M93.389,156.659l6.3-3.646v-8.756l-6.3,3.649Z" transform="translate(-26.325 -91.802)" fill="#512e2b"/>
            <path id="Trazado_149846" data-name="Trazado 149846" d="M79.622,153.192l6.3,3.639v-9.123l-6.3-3.637Z" transform="translate(-79.622 -92.521)" fill="#512e2b"/>
            <path id="Trazado_149847" data-name="Trazado 149847" d="M81.386,154.216l6.3,3.638v-9.122l-6.3-3.637Z" transform="translate(-72.794 -88.561)" fill="#512e2b"/>
            <path id="Trazado_149848" data-name="Trazado 149848" d="M79.622,150.931l12.939,7.478V145.3l-12.939-7.493Z" transform="translate(-79.622 -116.775)" fill="#fff"/>
            <path id="Trazado_149849" data-name="Trazado 149849" d="M79.863,140.35l10.181,5.905v-2.134l-10.181-5.87Z" transform="translate(-78.689 -115.052)" fill="#512e2b"/>
          </g>
        </g>
        <path id="Trazado_149850" data-name="Trazado 149850" d="M133.4,137.213s-7.429,15.613-10.5,19.968-15.569,14.293-18.137,15.74S96.3,176.2,93.234,175.907s-5.149,1.213-2.187,2.333a25.016,25.016,0,0,0,5.831,1.383s-5.4,3.99-7.541,7.4c-1.715,2.738-3.171,7.765,3.469,6.3,5.368-1.174,12.817-9.4,14.77-11.234,3.688-3.459,18.337-11.38,21.649-13.723,4.677-3.318,17.937-22.852,17.937-22.852S143.08,135.157,133.4,137.213Z" transform="translate(-45.277 -48.127)" fill="#ffc5b3"/>
        <path id="Trazado_149851" data-name="Trazado 149851" d="M104.493,145.363c-4.375,6.562-7.877,16.378-7.877,16.378s5.266,3.824,9.982,6.8a76.183,76.183,0,0,0,8.131,4.384s19.428-30.876,6.221-41.515C117.1,128.3,108.863,138.806,104.493,145.363Z" transform="translate(-11.498 -71.73)" fill="#f6634d"/>
        <path id="Trazado_149852" data-name="Trazado 149852" d="M108.555,119.779c-9.407.872-14.878,7.093-16.042,12.471a6.594,6.594,0,0,0,1.481,5.89c2.153,2.2,5.3,4.643,11.784,3.571a26.048,26.048,0,0,0,9.11-3.352l1.086,7.108a6.179,6.179,0,0,0,1.866-.687c.107-2.811,1.111-3.688,2.66-2.85,1.749.95,1.822,4.954,1.822,4.954a14.554,14.554,0,0,0,3.5-13.114C124.709,128.771,117.962,118.9,108.555,119.779Z" transform="translate(-28.017 -114.79)" fill="#512e2b"/>
        <g id="Grupo_79779" data-name="Grupo 79779" transform="translate(49.665)">
          <path id="Trazado_149853" data-name="Trazado 149853" d="M89.584,132.543c-2.085,1.8,9.553,9.655,17.791,7.03s20.641-11.794,20.641-11.794l-24.265-5.539S91.664,130.746,89.584,132.543Z" transform="translate(-89.339 -105.048)" fill="#3d6ec4"/>
          <path id="Trazado_149854" data-name="Trazado 149854" d="M109.05,118.861c-15.8,0-16.753,16.461-16.753,16.461s13.777,8.559,22.375,6.1,10.932-4.589,10.932-4.589S124.858,118.861,109.05,118.861Z" transform="translate(-77.885 -118.13)" fill="#4b87dd"/>
          <path id="Trazado_149855" data-name="Trazado 149855" d="M97.279,118.711c-1.31,0-2.372.589-2.372,1.31s1.062,1.315,2.372,1.315,2.372-.589,2.372-1.315S98.59,118.711,97.279,118.711Z" transform="translate(-67.78 -118.711)" fill="#3d6ec4"/>
        </g>
      </g>
      <g id="Grupo_79798" data-name="Grupo 79798" transform="translate(36.243 155.942)">
        <g id="Grupo_79789" data-name="Grupo 79789" transform="translate(0 58.129)">
          <g id="Grupo_79781" data-name="Grupo 79781" transform="translate(104.361 64.345)">
            <path id="Trazado_149856" data-name="Trazado 149856" d="M73.4,229.881l2.914,1.831,93.758-54.145-3.189-1.7Z" transform="translate(-73.396 -175.863)" fill="#d1814a"/>
            <path id="Trazado_149857" data-name="Trazado 149857" d="M73.994,243.69l93.758-54.139v-13.34L73.994,230.349Z" transform="translate(-71.08 -174.514)" fill="#bc6f3b"/>
            <path id="Trazado_149858" data-name="Trazado 149858" d="M73.4,200.436l2.914,1.673V188.768L73.4,186.951Z" transform="translate(-73.396 -132.933)" fill="#ef995e"/>
          </g>
          <g id="Grupo_79782" data-name="Grupo 79782" transform="translate(0 3.814)">
            <path id="Trazado_149859" data-name="Trazado 149859" d="M51.973,217.456l2.914,1.831,93.758-54.145-3.189-1.705Z" transform="translate(-51.973 -163.437)" fill="#d1814a"/>
            <path id="Trazado_149860" data-name="Trazado 149860" d="M52.571,231.264l93.758-54.138v-13.34L52.571,217.923Z" transform="translate(-49.658 -162.088)" fill="#bc6f3b"/>
            <path id="Trazado_149861" data-name="Trazado 149861" d="M51.973,188.011l2.915,1.672V176.342l-2.915-1.817Z" transform="translate(-51.973 -120.507)" fill="#ef995e"/>
          </g>
          <g id="Grupo_79783" data-name="Grupo 79783" transform="translate(50.668 32.588)">
            <path id="Trazado_149862" data-name="Trazado 149862" d="M62.374,223.362l2.914,1.832,93.757-54.146-3.189-1.7Z" transform="translate(-62.374 -169.344)" fill="#d1814a"/>
            <path id="Trazado_149863" data-name="Trazado 149863" d="M62.972,237.171l93.757-54.139V169.692L62.972,223.83Z" transform="translate(-60.058 -167.995)" fill="#bc6f3b"/>
            <path id="Trazado_149864" data-name="Trazado 149864" d="M62.374,193.917l2.914,1.673V182.25l-2.914-1.818Z" transform="translate(-62.374 -126.414)" fill="#ef995e"/>
          </g>
          <g id="Grupo_79784" data-name="Grupo 79784" transform="translate(0 47.879)">
            <path id="Trazado_149865" data-name="Trazado 149865" d="M51.973,178.087l107.275,61.938V235.71L51.973,173.773Z" transform="translate(-51.973 -167.487)" fill="#ef995e"/>
            <path id="Trazado_149866" data-name="Trazado 149866" d="M51.973,178.768l107.275,61.938,11.245-6.288L63.162,172.482Z" transform="translate(-51.973 -172.482)" fill="#d1814a"/>
            <path id="Trazado_149867" data-name="Trazado 149867" d="M73.994,199.523l11.245-6.546V185.2l-11.245,6.288Z" transform="translate(33.281 -123.26)" fill="#bc6f3b"/>
          </g>
          <g id="Grupo_79785" data-name="Grupo 79785" transform="translate(20.618 35.286)">
            <path id="Trazado_149868" data-name="Trazado 149868" d="M56.205,175.5l107.579,62.2v-4.314l-107.579-62.2Z" transform="translate(-56.205 -164.902)" fill="#ef995e"/>
            <path id="Trazado_149869" data-name="Trazado 149869" d="M56.205,176.183l107.579,62.2L175.03,232.1,67.394,169.9Z" transform="translate(-56.205 -169.897)" fill="#d1814a"/>
            <path id="Trazado_149870" data-name="Trazado 149870" d="M78.289,196.992l11.246-6.546v-7.781l-11.246,6.288Z" transform="translate(29.291 -120.466)" fill="#bc6f3b"/>
          </g>
          <g id="Grupo_79786" data-name="Grupo 79786" transform="translate(41.79 23.016)">
            <path id="Trazado_149871" data-name="Trazado 149871" d="M60.551,172.983,168.38,235.316V231L60.551,168.669Z" transform="translate(-60.551 -162.383)" fill="#ef995e"/>
            <path id="Trazado_149872" data-name="Trazado 149872" d="M60.551,173.665,168.38,236l11.245-6.288L71.74,167.379Z" transform="translate(-60.551 -167.379)" fill="#d1814a"/>
            <path id="Trazado_149873" data-name="Trazado 149873" d="M82.686,194.5l11.245-6.546v-7.781l-11.245,6.288Z" transform="translate(25.143 -117.843)" fill="#bc6f3b"/>
          </g>
          <g id="Grupo_79787" data-name="Grupo 79787" transform="translate(62.961 11.082)">
            <path id="Trazado_149874" data-name="Trazado 149874" d="M64.9,170.534l107.579,61.938v-4.314L64.9,166.219Z" transform="translate(-64.897 -159.934)" fill="#ef995e"/>
            <path id="Trazado_149875" data-name="Trazado 149875" d="M64.9,171.215l107.579,61.938,11.245-6.288L76.087,164.929Z" transform="translate(-64.897 -164.929)" fill="#d1814a"/>
            <path id="Trazado_149876" data-name="Trazado 149876" d="M86.981,191.97l11.245-6.545v-7.781l-11.245,6.288Z" transform="translate(20.599 -115.707)" fill="#bc6f3b"/>
          </g>
          <g id="Grupo_79788" data-name="Grupo 79788" transform="translate(81.951)">
            <path id="Trazado_149877" data-name="Trazado 149877" d="M68.8,168.259l107.836,62.209v-4.314L68.8,163.945Z" transform="translate(-68.796 -157.659)" fill="#ef995e"/>
            <path id="Trazado_149878" data-name="Trazado 149878" d="M68.8,168.94l107.836,62.209,11.245-6.288L79.984,162.654Z" transform="translate(-68.796 -162.654)" fill="#d1814a"/>
            <path id="Trazado_149879" data-name="Trazado 149879" d="M90.931,189.75l11.246-6.545v-7.781l-11.246,6.288Z" transform="translate(16.905 -113.217)" fill="#bc6f3b"/>
          </g>
        </g>
        <g id="Grupo_79791" data-name="Grupo 79791" transform="translate(10.954 36.858)">
          <path id="Trazado_149880" data-name="Trazado 149880" d="M54.222,199.9l48.45,28.088.017-33.409L54.222,166.559Z" transform="translate(-54.222 -126.267)" fill="#dba763"/>
          <path id="Trazado_149881" data-name="Trazado 149881" d="M64.167,237.752l69.776-40.375v-33.34L64.184,204.343Z" transform="translate(-15.717 -136.031)" fill="#e8b679"/>
          <path id="Trazado_149882" data-name="Trazado 149882" d="M54.222,198.578,102.689,226.6l69.759-40.3L124,158.288Z" transform="translate(-54.222 -158.288)" fill="#ffe1c0"/>
          <g id="Grupo_79790" data-name="Grupo 79790" transform="translate(18.019 10.378)">
            <path id="Trazado_149883" data-name="Trazado 149883" d="M57.92,186.39l10.808,6.275v-17.7L57.92,168.683Z" transform="translate(-57.92 -128.419)" fill="#512e2b"/>
            <path id="Trazado_149884" data-name="Trazado 149884" d="M57.92,200.682l10.808,6.3,69.74-40.3-10.835-6.263Z" transform="translate(-57.92 -160.418)" fill="#724941"/>
            <path id="Trazado_149885" data-name="Trazado 149885" d="M60.085,178.619l16.271,9.391v-3.118l-16.271-9.437Z" transform="translate(-49.539 -102.2)" fill="#512e2b"/>
            <path id="Trazado_149886" data-name="Trazado 149886" d="M60.085,177.474l16.271,9.391v-3.118l-16.271-9.436Z" transform="translate(-49.539 -106.632)" fill="#512e2b"/>
            <path id="Trazado_149887" data-name="Trazado 149887" d="M76.48,183.778l7.781-4.5V168.008l-7.781,4.5Z" transform="translate(13.932 -131.033)" fill="#512e2b"/>
            <path id="Trazado_149888" data-name="Trazado 149888" d="M74.3,185.042l7.781-4.5V169.272L74.3,173.767Z" transform="translate(5.493 -126.139)" fill="#512e2b"/>
            <path id="Trazado_149889" data-name="Trazado 149889" d="M72.091,186.311l7.782-4.5V170.541l-7.782,4.5Z" transform="translate(-3.057 -121.228)" fill="#512e2b"/>
            <path id="Trazado_149890" data-name="Trazado 149890" d="M64.6,196.157,80.6,186.915V170.694L64.6,179.955Z" transform="translate(-32.049 -120.636)" fill="#fff"/>
            <path id="Trazado_149891" data-name="Trazado 149891" d="M65,181.136l12.583-7.3v-2.594L65,178.5Z" transform="translate(-30.493 -118.505)" fill="#512e2b"/>
          </g>
        </g>
        <g id="Grupo_79793" data-name="Grupo 79793" transform="translate(64.162 68.068)">
          <path id="Trazado_149892" data-name="Trazado 149892" d="M65.144,206.305l48.451,28.088.017-33.409L65.144,172.965Z" transform="translate(-65.144 -132.673)" fill="#dba763"/>
          <path id="Trazado_149893" data-name="Trazado 149893" d="M75.09,244.158l69.776-40.375v-33.34L75.107,210.749Z" transform="translate(-26.639 -142.438)" fill="#e8b679"/>
          <path id="Trazado_149894" data-name="Trazado 149894" d="M65.144,204.985,113.612,233l69.759-40.3-48.447-28.005Z" transform="translate(-65.144 -164.694)" fill="#ffe1c0"/>
          <g id="Grupo_79792" data-name="Grupo 79792" transform="translate(18.019 10.377)">
            <path id="Trazado_149895" data-name="Trazado 149895" d="M68.843,192.8l10.809,6.275v-17.7l-10.809-6.28Z" transform="translate(-68.843 -134.826)" fill="#512e2b"/>
            <path id="Trazado_149896" data-name="Trazado 149896" d="M68.843,207.088l10.809,6.3,69.739-40.3-10.834-6.263Z" transform="translate(-68.843 -166.825)" fill="#724941"/>
            <path id="Trazado_149897" data-name="Trazado 149897" d="M71.008,185.025l16.271,9.391V191.3l-16.271-9.437Z" transform="translate(-60.461 -108.606)" fill="#512e2b"/>
            <path id="Trazado_149898" data-name="Trazado 149898" d="M71.008,183.881l16.271,9.391v-3.118l-16.271-9.437Z" transform="translate(-60.461 -113.038)" fill="#512e2b"/>
            <path id="Trazado_149899" data-name="Trazado 149899" d="M87.4,190.185l7.782-4.5V174.415l-7.782,4.5Z" transform="translate(3.01 -137.44)" fill="#512e2b"/>
            <path id="Trazado_149900" data-name="Trazado 149900" d="M85.222,191.449l7.781-4.5V175.679l-7.781,4.5Z" transform="translate(-5.429 -132.546)" fill="#512e2b"/>
            <path id="Trazado_149901" data-name="Trazado 149901" d="M83.014,192.718l7.782-4.5V176.947l-7.782,4.5Z" transform="translate(-13.98 -127.635)" fill="#512e2b"/>
            <path id="Trazado_149902" data-name="Trazado 149902" d="M75.525,202.563l15.993-9.241V177.1l-15.993,9.261Z" transform="translate(-42.972 -127.043)" fill="#fff"/>
            <path id="Trazado_149903" data-name="Trazado 149903" d="M75.927,187.543l12.583-7.3v-2.594l-12.583,7.256Z" transform="translate(-41.415 -124.912)" fill="#512e2b"/>
          </g>
        </g>
        <g id="Grupo_79795" data-name="Grupo 79795" transform="translate(10.954)">
          <path id="Trazado_149904" data-name="Trazado 149904" d="M54.222,192.333l48.45,28.088.017-33.409L54.222,158.993Z" transform="translate(-54.222 -118.701)" fill="#dba763"/>
          <path id="Trazado_149905" data-name="Trazado 149905" d="M64.167,230.185l69.776-40.374v-33.34L64.184,196.776Z" transform="translate(-15.717 -128.465)" fill="#e8b679"/>
          <path id="Trazado_149906" data-name="Trazado 149906" d="M54.222,191.012l48.467,28.019,69.759-40.3L124,150.722Z" transform="translate(-54.222 -150.722)" fill="#ffe1c0"/>
          <g id="Grupo_79794" data-name="Grupo 79794" transform="translate(18.019 10.378)">
            <path id="Trazado_149907" data-name="Trazado 149907" d="M57.92,178.824,68.729,185.1V167.4L57.92,161.117Z" transform="translate(-57.92 -120.854)" fill="#512e2b"/>
            <path id="Trazado_149908" data-name="Trazado 149908" d="M57.92,193.116l10.808,6.3,69.74-40.3-10.835-6.263Z" transform="translate(-57.92 -152.852)" fill="#724941"/>
            <path id="Trazado_149909" data-name="Trazado 149909" d="M60.085,171.053l16.271,9.392v-3.118L60.085,167.89Z" transform="translate(-49.539 -94.635)" fill="#512e2b"/>
            <path id="Trazado_149910" data-name="Trazado 149910" d="M60.085,169.908,76.357,179.3v-3.118l-16.271-9.436Z" transform="translate(-49.539 -99.066)" fill="#512e2b"/>
            <path id="Trazado_149911" data-name="Trazado 149911" d="M76.48,176.212l7.781-4.5V160.442l-7.781,4.5Z" transform="translate(13.932 -123.468)" fill="#512e2b"/>
            <path id="Trazado_149912" data-name="Trazado 149912" d="M74.3,177.476l7.781-4.5V161.706L74.3,166.2Z" transform="translate(5.493 -118.574)" fill="#512e2b"/>
            <path id="Trazado_149913" data-name="Trazado 149913" d="M72.091,178.745l7.782-4.5V162.975l-7.782,4.5Z" transform="translate(-3.057 -113.663)" fill="#512e2b"/>
            <path id="Trazado_149914" data-name="Trazado 149914" d="M64.6,188.591,80.6,179.349V163.128L64.6,172.389Z" transform="translate(-32.049 -113.071)" fill="#fff"/>
            <path id="Trazado_149915" data-name="Trazado 149915" d="M65,173.571l12.583-7.3v-2.594L65,170.933Z" transform="translate(-30.493 -110.94)" fill="#512e2b"/>
          </g>
        </g>
        <g id="Grupo_79797" data-name="Grupo 79797" transform="translate(64.162 31.21)">
          <path id="Trazado_149916" data-name="Trazado 149916" d="M65.144,198.74l48.451,28.088.017-33.409L65.144,165.4Z" transform="translate(-65.144 -125.107)" fill="#dba763"/>
          <path id="Trazado_149917" data-name="Trazado 149917" d="M75.09,236.593l69.776-40.374V162.877L75.107,203.183Z" transform="translate(-26.639 -134.872)" fill="#e8b679"/>
          <path id="Trazado_149918" data-name="Trazado 149918" d="M65.144,197.419l48.468,28.02,69.759-40.3-48.447-28.006Z" transform="translate(-65.144 -157.128)" fill="#ffe1c0"/>
          <g id="Grupo_79796" data-name="Grupo 79796" transform="translate(18.019 10.378)">
            <path id="Trazado_149919" data-name="Trazado 149919" d="M68.843,185.232l10.809,6.275V173.8l-10.809-6.28Z" transform="translate(-68.843 -127.26)" fill="#512e2b"/>
            <path id="Trazado_149920" data-name="Trazado 149920" d="M68.843,199.523l10.809,6.3,69.739-40.3-10.834-6.263Z" transform="translate(-68.843 -159.259)" fill="#724941"/>
            <path id="Trazado_149921" data-name="Trazado 149921" d="M71.008,177.459l16.271,9.392v-3.119L71.008,174.3Z" transform="translate(-60.461 -101.041)" fill="#512e2b"/>
            <path id="Trazado_149922" data-name="Trazado 149922" d="M71.008,176.316l16.271,9.391v-3.118l-16.271-9.437Z" transform="translate(-60.461 -105.473)" fill="#512e2b"/>
            <path id="Trazado_149923" data-name="Trazado 149923" d="M87.4,182.619l7.782-4.5V166.849L87.4,171.344Z" transform="translate(3.01 -129.874)" fill="#512e2b"/>
            <path id="Trazado_149924" data-name="Trazado 149924" d="M85.222,183.883l7.781-4.5V168.113l-7.781,4.5Z" transform="translate(-5.429 -124.98)" fill="#512e2b"/>
            <path id="Trazado_149925" data-name="Trazado 149925" d="M83.014,185.152l7.782-4.5V169.381l-7.782,4.5Z" transform="translate(-13.98 -120.069)" fill="#512e2b"/>
            <path id="Trazado_149926" data-name="Trazado 149926" d="M75.525,195l15.993-9.241V169.534L75.525,178.8Z" transform="translate(-42.972 -119.477)" fill="#fff"/>
            <path id="Trazado_149927" data-name="Trazado 149927" d="M75.927,179.977l12.583-7.3v-2.594L75.927,177.34Z" transform="translate(-41.415 -117.346)" fill="#512e2b"/>
          </g>
        </g>
      </g>
      <g id="Grupo_79800" data-name="Grupo 79800" transform="translate(59.631 121.33)">
        <path id="Trazado_149928" data-name="Trazado 149928" d="M74.756,231.039l60.771-35.229V153.991L74.735,189.135Z" transform="translate(12.763 -103.453)" fill="#dba763"/>
        <path id="Trazado_149929" data-name="Trazado 149929" d="M56.774,150.827v41.818l87.519,50.641-.021-41.9Z" transform="translate(-56.774 -115.701)" fill="#e8b679"/>
        <path id="Trazado_149930" data-name="Trazado 149930" d="M56.774,178.744l87.5,50.552,60.792-35.144-87.523-50.535Z" transform="translate(-56.774 -143.617)" fill="#ffe1c0"/>
        <g id="Grupo_79799" data-name="Grupo 79799" transform="translate(2.526 13.017)">
          <path id="Trazado_149931" data-name="Trazado 149931" d="M79.792,186.736l13.557-7.87v-22.21l-13.557,7.876Z" transform="translate(29.814 -106.153)" fill="#512e2b"/>
          <path id="Trazado_149932" data-name="Trazado 149932" d="M61.836,154.145l87.473,50.55,13.557-7.9-87.441-50.5Z" transform="translate(-39.703 -146.289)" fill="#724941"/>
          <path id="Trazado_149933" data-name="Trazado 149933" d="M75.67,180.9l20.408-11.779V165.15L75.67,176.986Z" transform="translate(13.856 -73.267)" fill="#512e2b"/>
          <path id="Trazado_149934" data-name="Trazado 149934" d="M75.67,179.461l20.408-11.779v-3.967L75.67,175.55Z" transform="translate(13.856 -78.825)" fill="#512e2b"/>
          <path id="Trazado_149935" data-name="Trazado 149935" d="M57.292,169.949l9.76,5.641V161.447l-9.76-5.638Z" transform="translate(-57.292 -109.432)" fill="#512e2b"/>
          <path id="Trazado_149936" data-name="Trazado 149936" d="M60.027,171.535l9.76,5.64V163.033l-9.76-5.638Z" transform="translate(-46.707 -103.293)" fill="#512e2b"/>
          <path id="Trazado_149937" data-name="Trazado 149937" d="M62.8,173.126l9.761,5.64V164.623L62.8,158.985Z" transform="translate(-35.983 -97.133)" fill="#512e2b"/>
          <path id="Trazado_149938" data-name="Trazado 149938" d="M70.075,179.524l20.06,11.592V170.794l-20.06-11.617Z" transform="translate(-7.804 -96.391)" fill="#fff"/>
          <path id="Trazado_149939" data-name="Trazado 149939" d="M70.449,163.121l15.782,9.154v-3.308l-15.782-9.1Z" transform="translate(-6.357 -93.718)" fill="#512e2b"/>
        </g>
      </g>
      <g id="Grupo_79802" data-name="Grupo 79802" transform="translate(22.745 123.644)">
        <path id="Trazado_149940" data-name="Trazado 149940" d="M60.813,198l39.239-22.747V150.781L60.8,173.474Z" transform="translate(-4.302 -118.194)" fill="#dba763"/>
        <path id="Trazado_149941" data-name="Trazado 149941" d="M49.2,148.739v24.476l56.511,32.7-.014-24.531Z" transform="translate(-49.202 -126.102)" fill="#e8b679"/>
        <path id="Trazado_149942" data-name="Trazado 149942" d="M49.2,166.773l56.5,32.642,39.253-22.692L88.44,144.092Z" transform="translate(-49.202 -144.092)" fill="#ffe1c0"/>
        <g id="Grupo_79801" data-name="Grupo 79801" transform="translate(1.897 28.007)">
          <path id="Trazado_149943" data-name="Trazado 149943" d="M61.4,167.636l13.178-7.606v-2.561L61.4,165.11Z" transform="translate(-3.863 -120.312)" fill="#512e2b"/>
          <path id="Trazado_149944" data-name="Trazado 149944" d="M61.4,166.709,74.581,159.1v-2.561L61.4,164.183Z" transform="translate(-3.863 -123.901)" fill="#512e2b"/>
          <path id="Trazado_149945" data-name="Trazado 149945" d="M49.592,161.23l7.861,4.543V154.382l-7.861-4.541Z" transform="translate(-49.592 -149.841)" fill="#512e2b"/>
          <path id="Trazado_149946" data-name="Trazado 149946" d="M51.794,162.507l7.862,4.543V155.66l-7.862-4.542Z" transform="translate(-41.066 -144.897)" fill="#512e2b"/>
        </g>
        <path id="Trazado_149947" data-name="Trazado 149947" d="M56.051,167.208,76.111,178.8V165.2l-20.06-11.617Z" transform="translate(-22.688 -107.328)" fill="#fff"/>
        <path id="Trazado_149948" data-name="Trazado 149948" d="M56.425,157.532l15.783,9.155v-3.308l-15.783-9.1Z" transform="translate(-21.241 -104.656)" fill="#512e2b"/>
        <path id="Trazado_149949" data-name="Trazado 149949" d="M64.038,172.732l13.557-7.869V151.958l-13.557,7.876Z" transform="translate(8.236 -113.639)" fill="#512e2b"/>
        <path id="Trazado_149950" data-name="Trazado 149950" d="M52.44,153.139l56.5,32.659,13.557-7.9L66.072,145.259Z" transform="translate(-36.668 -139.575)" fill="#724941"/>
      </g>
      <g id="Grupo_79803" data-name="Grupo 79803" transform="translate(0 88.683)">
        <path id="Trazado_149951" data-name="Trazado 149951" d="M50.987,150.379s-4.818,10.493-6.06,18.327.57,11.56,3.688,15.272,14.22-1.242,14.634-1.515l.273-.2c3.254-11.049,4.915-23.218-.58-32.162Z" transform="translate(-44.533 -85.867)" fill="#ffc5b3"/>
        <path id="Trazado_149952" data-name="Trazado 149952" d="M84.377,190.7c-6.352.273-19.184,5.992-19.184,5.992l-10.98,2.567s-4.38,9.378,1.091,12.919c4.1,2.66,5.938,2.494,11.078.385,5.695-2.343,11.029-3.118,18-8.9S90.725,190.426,84.377,190.7Z" transform="translate(-13.483 71.281)" fill="#512e2b"/>
        <path id="Trazado_149953" data-name="Trazado 149953" d="M74.2,186.486c-6.352.273-16.544,4.535-16.544,4.535l-10.98,2.562c-.136-.014-4.531,9.358,1.086,12.924,4.126,2.616,5.943,2.494,11.083.38,5.695-2.343,10.055-3.624,17.016-9.407S80.553,186.213,74.2,186.486Z" transform="translate(-43.064 54.961)" fill="#512e2b"/>
        <path id="Trazado_149954" data-name="Trazado 149954" d="M53.57,163.282c-10.22,8.248-5.661,50.576-5.256,68.445.438,19.452-2.928,56.978-3.4,62.322,6.06,6.82,18.02,3.605,21.873-1.052.273-2.119,5.315-34.6,6.226-46.7,1.237-16.407,1.2-21.235,1.345-36.3,5.071,14.668,5.807,32.449,6.547,45.072,1.062,18.146,1.228,58.083,1.228,58.083s1.228,6.124,13.4,6.089c5.407-.015,10.961-5.846,10.961-5.846s.3-35.289.3-68.8c0-19.009-11.2-79.528-11.2-79.528S62.407,156.155,53.57,163.282Z" transform="translate(-43.063 -45.534)" fill="#3d6ec4"/>
        <path id="Trazado_149955" data-name="Trazado 149955" d="M55.188,150.287c-2.348,2.8-6.659,11.2-10.411,19.048,2.889,5.027,10.756,11.843,20.378,11.526a80.126,80.126,0,0,0-1.929-14.123l5.958-18.945S60.835,143.559,55.188,150.287Z" transform="translate(-43.586 -99.893)" fill="#f8cc00"/>
        <path id="Trazado_149956" data-name="Trazado 149956" d="M66.285,140.423c-4.462-3.093-13.046-2.129-16.773,5.739-2.061,4.355.853,16.071,1.315,24.294.37,6.635-1.851,10.464-1.851,10.464l5.69,2.343c5.69,2.348,11.619,0,11.619,0L66.1,173.15s6.128-.911,7.2-1.9c2.582-2.363,3.946-9.4,2.752-18.478C74.27,139.269,67.932,141.568,66.285,140.423Z" transform="translate(-28.079 -129.669)" fill="#ffc5b3"/>
        <path id="Trazado_149957" data-name="Trazado 149957" d="M77.128,150.877s-9.339-3.386-12.6-3.878c-1.422-.209-6.343-.521-6.343-.521s-10.868,17.1-12.077,26.516c-.843,6.6,2.752,28.153.088,49.383-1.408,11.234,40.984,8.067,44.716,3.488-2.173-10.625-5.286-27.963,1.578-42.611,3.356-7.171-4.258-20.178-6.391-24.855S77.128,150.877,77.128,150.877Z" transform="translate(-38.932 -99.893)" fill="#ffdc39"/>
        <path id="Trazado_149958" data-name="Trazado 149958" d="M90.972,190.032s-5.344,2.528-8.72,1.111-9.032-4.009-10.742-12.627c-1.213-6.128-.414-20.378-.127-24.182-.687-.1-17.981-5.183-17.981-5.183s-5.291,16.875-5.086,28.372c.02,1.111.736,14.147-.614,22.614s-2.168,21.557-2.168,21.557,12.052,9.378,25.975,7.751A48.9,48.9,0,0,0,95.074,219.7s-4.623-23.822-4.365-26.745Z" transform="translate(-40.655 -89.549)" fill="#3d6ec4"/>
        <path id="Trazado_149959" data-name="Trazado 149959" d="M58.036,139.025c-4.219,2.441-13.2,6.9-10.065,21.454,2.533,11.76,4.993,13.08,8.55,15.842,3.1,2.416,8.574,3.016,8.574,3.016a10.126,10.126,0,0,0,3.6-6.659c.171-1.4,0-5.661,0-5.661s-3.113-6.153-.7-8.345c2.567-2.333,5.188,1.379,5.787,2.879,2.1,5.261,4.19,7.731,3.683-1.072.677-2.265,2.226-7.531,2.611-9.651a10.323,10.323,0,0,0-2.777-9.621C73.927,137.71,62.26,136.585,58.036,139.025Z" transform="translate(-33.739 -133.8)" fill="#512e2b"/>
        <path id="Trazado_149960" data-name="Trazado 149960" d="M88.358,171.4a68.94,68.94,0,0,1-15.491-6.382c-1.593-2.8-4.487-11.585-4.487-11.585l-15.565,6.348s3.922,10.508,6.226,15.3c1.846,3.853,4.16,4.623,7.848,5.982,5.393,1.988,21.2,2.533,27.485,3.347a35.073,35.073,0,0,0,13.879-.741c7.619-1.841,5.086-7.58,4.784-9.689A86.349,86.349,0,0,1,88.358,171.4Z" transform="translate(-12.47 -72.959)" fill="#ffc5b3"/>
        <path id="Trazado_149961" data-name="Trazado 149961" d="M60.928,148.193c-3.527-1.164-9.836,11.053-8.769,19.715.3,2.446,1.783,9.256,3.62,17.221,7.39,1.583,15.375-.711,19.506-6.348C72.274,165.165,67.485,150.365,60.928,148.193Z" transform="translate(-15.473 -93.555)" fill="#f8cc00"/>
        <path id="Trazado_149962" data-name="Trazado 149962" d="M70.686,169.129c-13.626.2-24.514-7.492-24.514-7.492l-.55,5.977s8.087,6.957,25.551,7.351,23.169-5.573,23.169-5.573L93.31,163.24A47,47,0,0,1,70.686,169.129Z" transform="translate(-40.318 -41.205)" fill="#4b87dd"/>
        <path id="Trazado_149963" data-name="Trazado 149963" d="M62.386,147.381a14.1,14.1,0,0,0-7.035,4.107c-3.634,3.741-5.563,11.526-5.563,11.526l4.818,3.546s1.569-7.517,3.678-11.107,5.68-4.9,7.629-6.065C65.962,148.375,62.386,147.381,62.386,147.381Z" transform="translate(-24.19 -96.397)" fill="#3d6ec4"/>
        <path id="Trazado_149964" data-name="Trazado 149964" d="M48.889,158.949a110.088,110.088,0,0,0-2.148,11.107l3.371.424s3.235-12.52,5.066-17.036A53.132,53.132,0,0,1,58.35,146.7l-3.78-.219C54.38,146.556,51.213,151.306,48.889,158.949Z" transform="translate(-35.986 -99.893)" fill="#3d6ec4"/>
        <path id="Trazado_149965" data-name="Trazado 149965" d="M69.242,157.732a58.94,58.94,0,0,1-5.865,5.549h.638c.643,0,4.37.317,4.37.317s2.562-3.3,3.054-5.222S70.709,156.022,69.242,157.732Z" transform="translate(28.421 -60.463)" fill="#ffc5b3"/>
        <path id="Trazado_149966" data-name="Trazado 149966" d="M72.4,138.6c-8.52-.9-18.965,3.249-23.325,9.251s-.989,11.6,7.531,12.491,18.97-3.249,23.33-9.251S80.923,139.5,72.4,138.6Z" transform="translate(-34.319 -130.846)" fill="#4b87dd"/>
        <path id="Trazado_149967" data-name="Trazado 149967" d="M58.159,138.229c-15.365,5.217-10.3,22.506-10.3,22.506s36.843-3.644,34.115-10.552C77.494,138.852,69.2,134.478,58.159,138.229Z" transform="translate(-34.748 -136.915)" fill="#4b87dd"/>
        <path id="Trazado_149968" data-name="Trazado 149968" d="M63.6,139.092c-6.323-1.335-7.863-.521-7.863-.521a36.885,36.885,0,0,1,2.139,4.219c1.442,5.943-3.766,12.481-4.886,13.109A28,28,0,0,0,66.2,150.087C71.1,146.1,69.923,140.427,63.6,139.092Z" transform="translate(-11.793 -131.456)" fill="#3d6ec4"/>
      </g>
    </g>
    <g transform="matrix(1, 0, 0, 1, 600, 7005.66)" filter="url(#Trazado_876794)">
      <path id="Trazado_876794-2" data-name="Trazado 876794" d="M21,0H299a21,21,0,0,1,0,42H21A21,21,0,0,1,21,0Z" transform="translate(40 352)" fill="#ff725d"/>
    </g>
    <path id="Trazado_876795" data-name="Trazado 876795" d="M-83.162-4.342V0H-86V-12.6h4.447q4.764,0,4.764,4.017a3.854,3.854,0,0,1-1.367,3.072,5.414,5.414,0,0,1-3.652,1.173Zm0-6.082V-6.5h1.116q2.268,0,2.268-1.986,0-1.942-2.268-1.942ZM-69.346-6.5a2.409,2.409,0,0,0-1.169-.272A1.684,1.684,0,0,0-71.93-6.1a2.9,2.9,0,0,0-.51,1.806V0h-2.777V-9h2.777v1.67h.035a2.4,2.4,0,0,1,2.373-1.828,1.788,1.788,0,0,1,.686.105ZM-63.835.22a4.838,4.838,0,0,1-3.538-1.261A4.573,4.573,0,0,1-68.66-4.465a4.573,4.573,0,0,1,1.336-3.494A5.048,5.048,0,0,1-63.712-9.22,4.78,4.78,0,0,1-60.2-7.958a4.483,4.483,0,0,1,1.274,3.335,4.759,4.759,0,0,1-1.314,3.542A4.892,4.892,0,0,1-63.835.22Zm.07-7.312a1.852,1.852,0,0,0-1.529.677A2.984,2.984,0,0,0-65.839-4.5q0,2.593,2.092,2.593,2,0,2-2.663Q-61.752-7.093-63.765-7.093ZM-48.313,0h-2.777V-1.239h-.035A3.114,3.114,0,0,1-53.912.22,3.412,3.412,0,0,1-56.628-.971,4.93,4.93,0,0,1-57.656-4.3a5.366,5.366,0,0,1,1.134-3.577A3.7,3.7,0,0,1-53.552-9.22a2.527,2.527,0,0,1,2.426,1.248h.035v-5.353h2.777Zm-2.725-4.377v-.677a2.13,2.13,0,0,0-.51-1.459,1.683,1.683,0,0,0-1.327-.58,1.673,1.673,0,0,0-1.441.725,3.367,3.367,0,0,0-.519,1.991,2.914,2.914,0,0,0,.5,1.828,1.663,1.663,0,0,0,1.389.642,1.67,1.67,0,0,0,1.375-.677A2.821,2.821,0,0,0-51.038-4.377ZM-37.424,0h-2.769V-1.371h-.044A3.141,3.141,0,0,1-42.987.22q-3.129,0-3.129-3.788V-9h2.769v5.186q0,1.907,1.512,1.907a1.5,1.5,0,0,0,1.2-.523,2.109,2.109,0,0,0,.448-1.419V-9h2.769Zm9.158-.325A5.492,5.492,0,0,1-30.981.22a4.593,4.593,0,0,1-3.357-1.257A4.341,4.341,0,0,1-35.622-4.28,4.782,4.782,0,0,1-34.247-7.9,5.083,5.083,0,0,1-30.568-9.22a4.72,4.72,0,0,1,2.3.422v2.355a3.166,3.166,0,0,0-1.942-.65,2.559,2.559,0,0,0-1.894.7,2.607,2.607,0,0,0-.7,1.929,2.565,2.565,0,0,0,.668,1.876,2.455,2.455,0,0,0,1.837.681,3.666,3.666,0,0,0,2.03-.65Zm7.26.22A4.105,4.105,0,0,1-22.86.22Q-25.8.22-25.8-2.83V-6.952h-1.459V-9H-25.8v-1.942l2.769-.791V-9h2.021v2.048h-2.021v3.639q0,1.406,1.116,1.406a1.882,1.882,0,0,0,.905-.255Zm5.783.325A4.838,4.838,0,0,1-18.76-1.042a4.573,4.573,0,0,1-1.288-3.423,4.573,4.573,0,0,1,1.336-3.494A5.048,5.048,0,0,1-15.1-9.22a4.78,4.78,0,0,1,3.516,1.261A4.483,4.483,0,0,1-10.31-4.623a4.759,4.759,0,0,1-1.314,3.542A4.892,4.892,0,0,1-15.223.22Zm.07-7.312a1.852,1.852,0,0,0-1.529.677A2.984,2.984,0,0,0-17.227-4.5q0,2.593,2.092,2.593,2,0,2-2.663Q-13.14-7.093-15.152-7.093Zm19.7,3.384H-1.327q.141,1.96,2.47,1.96a4.822,4.822,0,0,0,2.61-.7v2A6.858,6.858,0,0,1,.51.22,4.565,4.565,0,0,1-2.874-.989a4.566,4.566,0,0,1-1.2-3.371,4.816,4.816,0,0,1,1.3-3.551,4.334,4.334,0,0,1,3.2-1.31A3.933,3.933,0,0,1,3.467-8.051,4.5,4.5,0,0,1,4.544-4.878ZM1.969-5.414Q1.969-7.348.4-7.348a1.494,1.494,0,0,0-1.156.554,2.513,2.513,0,0,0-.593,1.38ZM14.889,0H12.12V-5q0-2.092-1.494-2.092a1.483,1.483,0,0,0-1.187.554,2.109,2.109,0,0,0-.466,1.406V0H6.2V-9H8.974v1.424h.035A3.183,3.183,0,0,1,11.9-9.22q2.988,0,2.988,3.709Zm9.976-1.046h-.035V4.14H22.052V-9h2.777v1.354h.035A3.265,3.265,0,0,1,27.756-9.22a3.253,3.253,0,0,1,2.7,1.2,5.108,5.108,0,0,1,.954,3.265A5.537,5.537,0,0,1,30.3-1.143,3.625,3.625,0,0,1,27.343.22,2.8,2.8,0,0,1,24.864-1.046Zm-.079-3.691v.721A2.291,2.291,0,0,0,25.277-2.5a1.6,1.6,0,0,0,1.292.589,1.7,1.7,0,0,0,1.472-.734,3.543,3.543,0,0,0,.523-2.079q0-2.373-1.846-2.373a1.733,1.733,0,0,0-1.393.646A2.576,2.576,0,0,0,24.785-4.737ZM39.085-6.5a2.409,2.409,0,0,0-1.169-.272A1.684,1.684,0,0,0,36.5-6.1a2.9,2.9,0,0,0-.51,1.806V0H33.214V-9h2.777v1.67h.035A2.4,2.4,0,0,1,38.4-9.158a1.788,1.788,0,0,1,.686.105ZM44.6.22a4.838,4.838,0,0,1-3.538-1.261,4.573,4.573,0,0,1-1.288-3.423,4.573,4.573,0,0,1,1.336-3.494A5.048,5.048,0,0,1,44.719-9.22a4.78,4.78,0,0,1,3.516,1.261,4.483,4.483,0,0,1,1.274,3.335,4.759,4.759,0,0,1-1.314,3.542A4.892,4.892,0,0,1,44.6.22Zm.07-7.312a1.852,1.852,0,0,0-1.529.677A2.984,2.984,0,0,0,42.592-4.5q0,2.593,2.092,2.593,2,0,2-2.663Q46.679-7.093,44.666-7.093ZM58.131-.325A5.492,5.492,0,0,1,55.415.22a4.593,4.593,0,0,1-3.357-1.257A4.341,4.341,0,0,1,50.774-4.28,4.782,4.782,0,0,1,52.15-7.9,5.083,5.083,0,0,1,55.828-9.22a4.72,4.72,0,0,1,2.3.422v2.355a3.166,3.166,0,0,0-1.942-.65,2.559,2.559,0,0,0-1.894.7,2.607,2.607,0,0,0-.7,1.929,2.565,2.565,0,0,0,.668,1.876,2.455,2.455,0,0,0,1.837.681,3.666,3.666,0,0,0,2.03-.65Zm9.905-3.384H62.165q.141,1.96,2.47,1.96a4.822,4.822,0,0,0,2.61-.7v2A6.858,6.858,0,0,1,64,.22,4.565,4.565,0,0,1,60.618-.989a4.566,4.566,0,0,1-1.2-3.371,4.816,4.816,0,0,1,1.3-3.551,4.334,4.334,0,0,1,3.2-1.31,3.933,3.933,0,0,1,3.045,1.169,4.5,4.5,0,0,1,1.077,3.173ZM65.461-5.414q0-1.934-1.564-1.934a1.494,1.494,0,0,0-1.156.554,2.513,2.513,0,0,0-.593,1.38ZM69.1-.237v-2.25a5.913,5.913,0,0,0,1.367.615,4.531,4.531,0,0,0,1.288.2,2.762,2.762,0,0,0,1.165-.2.653.653,0,0,0,.426-.615.569.569,0,0,0-.193-.439,1.8,1.8,0,0,0-.5-.308,5.635,5.635,0,0,0-.664-.237q-.36-.105-.694-.237a6.653,6.653,0,0,1-.945-.435,2.731,2.731,0,0,1-.686-.541,2.125,2.125,0,0,1-.422-.712,2.841,2.841,0,0,1-.145-.958,2.466,2.466,0,0,1,.33-1.3,2.692,2.692,0,0,1,.879-.892,4.016,4.016,0,0,1,1.257-.51,6.553,6.553,0,0,1,1.472-.163,8.168,8.168,0,0,1,1.213.092,9.053,9.053,0,0,1,1.213.268v2.145a4.383,4.383,0,0,0-1.129-.461,4.764,4.764,0,0,0-1.182-.154,2.619,2.619,0,0,0-.514.048,1.693,1.693,0,0,0-.426.141.783.783,0,0,0-.29.237.546.546,0,0,0-.105.33.609.609,0,0,0,.158.422,1.374,1.374,0,0,0,.413.3,4.078,4.078,0,0,0,.567.229q.312.1.62.207a8.056,8.056,0,0,1,1,.422,3.2,3.2,0,0,1,.769.536,2.105,2.105,0,0,1,.492.721,2.562,2.562,0,0,1,.171.984,2.568,2.568,0,0,1-.347,1.367,2.78,2.78,0,0,1-.923.923,4.185,4.185,0,0,1-1.327.519,7.357,7.357,0,0,1-1.56.163A8.042,8.042,0,0,1,69.1-.237ZM81.9.22a4.838,4.838,0,0,1-3.538-1.261,4.573,4.573,0,0,1-1.288-3.423,4.573,4.573,0,0,1,1.336-3.494A5.048,5.048,0,0,1,82.02-9.22a4.78,4.78,0,0,1,3.516,1.261A4.483,4.483,0,0,1,86.81-4.623,4.759,4.759,0,0,1,85.5-1.081,4.892,4.892,0,0,1,81.9.22Zm.07-7.312a1.852,1.852,0,0,0-1.529.677A2.984,2.984,0,0,0,79.893-4.5q0,2.593,2.092,2.593,2,0,2-2.663Q83.979-7.093,81.967-7.093Z" transform="translate(800 7384.185)" fill="#12263f"/>
  </g>
</svg>
