<svg xmlns="http://www.w3.org/2000/svg" xmlns:xlink="http://www.w3.org/1999/xlink" width="166.268" height="154.461" viewBox="0 0 166.268 154.461">
  <defs>
    <clipPath id="clip-path">
      <rect id="Rect치ngulo_401462" data-name="Rect치ngulo 401462" width="64.496" height="98.049" fill="none"/>
    </clipPath>
  </defs>
  <g id="Grupo_1100068" data-name="Grupo 1100068" transform="translate(-223.533 -6226)">
    <g id="Grupo_1099650" data-name="Grupo 1099650" transform="translate(225.033 6226)">
      <rect id="Rect치ngulo_401393" data-name="Rect치ngulo 401393" width="163.268" height="129.19" rx="20" transform="translate(0 6.027)" fill="none" stroke="#53bced" stroke-width="3"/>
      <g id="Grupo_1099595" data-name="Grupo 1099595" transform="translate(0 0)">
        <g id="Grupo_1099592" data-name="Grupo 1099592" transform="translate(50.233 0)">
          <path id="Trazado_874972" data-name="Trazado 874972" d="M0,107.474l1.521.876V15.482L0,14.6Z" transform="translate(0 5.087)" fill="#3a3a3a"/>
          <path id="Trazado_874973" data-name="Trazado 874973" d="M1.128,108.4l1.838-1.046V14.468L1.128,15.529Z" transform="translate(0.393 5.039)" fill="#4d4d4d"/>
          <path id="Trazado_874974" data-name="Trazado 874974" d="M25.524,94.53V1.661L24,.782V93.653Z" transform="translate(8.359 0.273)" fill="#3a3a3a"/>
          <path id="Trazado_874975" data-name="Trazado 874975" d="M25.131,94.577,26.97,93.53V.647L25.131,1.708Z" transform="translate(8.752 0.226)" fill="#4d4d4d"/>
          <path id="Trazado_874976" data-name="Trazado 874976" d="M0,14.876l1.521.879,1.838-1.061-1.524-.874Z" transform="translate(0 4.814)" fill="#a3a3a3"/>
          <path id="Trazado_874977" data-name="Trazado 874977" d="M25.839,0,24,1.056l1.521.879L27.362.873Z" transform="translate(8.359 0.001)" fill="#a3a3a3"/>
          <path id="Trazado_874978" data-name="Trazado 874978" d="M34.524,74.422l-1.243,1.243L1.726,50.588,2.3,48.746Z" transform="translate(0.601 16.976)" fill="#4d4d4d"/>
          <path id="Trazado_874979" data-name="Trazado 874979" d="M1.912,96.809,2.2,98.585,33.952,36.871l-.733-1.077Z" transform="translate(0.666 12.466)" fill="#4d4d4d"/>
          <path id="Trazado_874980" data-name="Trazado 874980" d="M34.524,41.954,33.281,43.2,1.726,18.12,2.3,16.278Z" transform="translate(0.601 5.669)" fill="#4d4d4d"/>
          <path id="Trazado_874981" data-name="Trazado 874981" d="M1.912,64.341,2.2,66.117,33.952,4.4l-.733-1.077Z" transform="translate(0.666 1.159)" fill="#4d4d4d"/>
          <path id="Trazado_874982" data-name="Trazado 874982" d="M33.8,65.539,1.5,84.28l69.832,40.609,32.362-18.712Z" transform="translate(0.523 22.824)" fill="#97a9dd"/>
          <path id="Trazado_874983" data-name="Trazado 874983" d="M53.3,116.678v-2.39L85.658,95.575V97.96Z" transform="translate(18.56 33.284)" fill="#7c76ac"/>
          <path id="Trazado_874984" data-name="Trazado 874984" d="M1.5,79.44v2.4L71.332,122.2v-2.39Z" transform="translate(0.523 27.665)" fill="#8583b7"/>
          <path id="Trazado_874985" data-name="Trazado 874985" d="M51.081,79.179,26.861,93.174l.755.475L51.908,79.621Z" transform="translate(9.354 27.574)" fill="#ed8e2f"/>
          <path id="Trazado_874986" data-name="Trazado 874986" d="M51.712,79.505,27.422,93.531v3.457l24.29-14.026Z" transform="translate(9.55 27.688)" fill="#c96a1c"/>
          <path id="Trazado_874987" data-name="Trazado 874987" d="M26.861,93.053l.756.433V90.03l-.756-.471Z" transform="translate(9.354 31.189)" fill="#d87923"/>
          <path id="Trazado_874988" data-name="Trazado 874988" d="M31.027,67.548,6.807,81.542l.755.475L31.854,67.99Z" transform="translate(2.371 23.524)" fill="#ed8e2f"/>
          <path id="Trazado_874989" data-name="Trazado 874989" d="M31.658,67.874,7.368,81.9v3.457l24.29-14.027Z" transform="translate(2.566 23.637)" fill="#c96a1c"/>
          <path id="Trazado_874990" data-name="Trazado 874990" d="M6.808,81.421l.756.433V78.4l-.756-.471Z" transform="translate(2.371 27.138)" fill="#d87923"/>
          <path id="Trazado_874991" data-name="Trazado 874991" d="M40.764,73.077,16.544,87.071l.755.475L41.59,73.519Z" transform="translate(5.761 25.449)" fill="#ed8e2f"/>
          <path id="Trazado_874992" data-name="Trazado 874992" d="M41.395,73.4,17.1,87.428v3.457l24.29-14.027Z" transform="translate(5.957 25.563)" fill="#c96a1c"/>
          <path id="Trazado_874993" data-name="Trazado 874993" d="M16.545,86.951l.755.433V83.927l-.755-.471Z" transform="translate(5.762 29.064)" fill="#d87923"/>
          <path id="Trazado_874994" data-name="Trazado 874994" d="M34.6,93.269,6.808,77.223V78.34L34.6,94.387Z" transform="translate(2.371 26.893)" fill="#d87923"/>
          <path id="Trazado_874995" data-name="Trazado 874995" d="M37.514,92.061,34.6,93.69,6.808,77.643l2.9-1.629Z" transform="translate(2.371 26.472)" fill="#ed8e2f"/>
          <path id="Trazado_874996" data-name="Trazado 874996" d="M30.335,87.916l-2.914,1.629v2.083l2.914-1.7Z" transform="translate(9.549 30.617)" fill="#c96a1c"/>
          <path id="Trazado_874997" data-name="Trazado 874997" d="M38.641,90.918,10.77,74.8V75.92L38.641,92.036Z" transform="translate(3.751 26.05)" fill="#d87923"/>
          <path id="Trazado_874998" data-name="Trazado 874998" d="M41.554,89.709l-2.914,1.629L10.77,75.224l2.9-1.629Z" transform="translate(3.751 25.63)" fill="#ed8e2f"/>
          <path id="Trazado_874999" data-name="Trazado 874999" d="M34.356,85.547l-2.914,1.629v2.083l2.914-1.7Z" transform="translate(10.949 29.792)" fill="#c96a1c"/>
          <path id="Trazado_875000" data-name="Trazado 875000" d="M42.774,88.594,14.838,72.445v1.118L42.774,89.712Z" transform="translate(5.167 25.229)" fill="#d87923"/>
          <path id="Trazado_875001" data-name="Trazado 875001" d="M45.687,87.386l-2.914,1.629L14.838,72.865l2.9-1.629Z" transform="translate(5.167 24.808)" fill="#ed8e2f"/>
          <path id="Trazado_875002" data-name="Trazado 875002" d="M38.472,83.215l-2.914,1.629v2.083l2.914-1.7Z" transform="translate(12.383 28.98)" fill="#c96a1c"/>
          <path id="Trazado_875003" data-name="Trazado 875003" d="M46.778,86.2,18.907,70.152V71.27L46.778,87.316Z" transform="translate(6.584 24.431)" fill="#d87923"/>
          <path id="Trazado_875004" data-name="Trazado 875004" d="M49.691,84.99l-2.914,1.629L18.907,70.572l2.9-1.629Z" transform="translate(6.584 24.01)" fill="#ed8e2f"/>
          <path id="Trazado_875005" data-name="Trazado 875005" d="M42.492,80.846l-2.914,1.629v2.083l2.914-1.7Z" transform="translate(13.783 28.155)" fill="#c96a1c"/>
          <path id="Trazado_875006" data-name="Trazado 875006" d="M50.493,84.139,22.555,68.022V69.14L50.493,85.257Z" transform="translate(7.855 23.689)" fill="#d87923"/>
          <path id="Trazado_875007" data-name="Trazado 875007" d="M53.407,82.931,50.493,84.56,22.556,68.443l2.9-1.629Z" transform="translate(7.855 23.268)" fill="#ed8e2f"/>
          <path id="Trazado_875008" data-name="Trazado 875008" d="M46.191,78.768,43.277,80.4V82.48l2.914-1.7Z" transform="translate(15.071 27.431)" fill="#c96a1c"/>
          <path id="Trazado_875009" data-name="Trazado 875009" d="M21.465,86.384l0-8.656L8.913,70.47v8.638Z" transform="translate(3.104 24.541)" fill="#dba763"/>
          <path id="Trazado_875010" data-name="Trazado 875010" d="M18.223,87.206l0-8.656L36.3,68.109v8.638Z" transform="translate(6.346 23.719)" fill="#e8b679"/>
          <path id="Trazado_875011" data-name="Trazado 875011" d="M39.542,69.983,21.469,80.425,8.913,73.166,26.99,62.727Z" transform="translate(3.104 21.845)" fill="#ffe1c0"/>
          <path id="Trazado_875012" data-name="Trazado 875012" d="M12.375,77.046l2.8,1.626V74.085l-2.8-1.627Z" transform="translate(4.31 25.234)" fill="#4d4d4d"/>
          <path id="Trazado_875013" data-name="Trazado 875013" d="M12.375,75.153,30.436,64.721l2.807,1.623L15.176,76.785Z" transform="translate(4.31 22.539)" fill="#6d6d6d"/>
          <path id="Trazado_875014" data-name="Trazado 875014" d="M18.618,82.051v-.808L14.4,78.8v.82Z" transform="translate(5.015 27.441)" fill="#4d4d4d"/>
          <path id="Trazado_875015" data-name="Trazado 875015" d="M18.618,80.979v-.808L14.4,77.727v.818Z" transform="translate(5.015 27.069)" fill="#4d4d4d"/>
          <path id="Trazado_875016" data-name="Trazado 875016" d="M29.749,72.991v2.92l2.016-1.165v-2.92Z" transform="translate(10.36 25.014)" fill="#4d4d4d"/>
          <path id="Trazado_875017" data-name="Trazado 875017" d="M27.708,74.174V77.1l2.016-1.165V73.01Z" transform="translate(9.649 25.426)" fill="#4d4d4d"/>
          <path id="Trazado_875018" data-name="Trazado 875018" d="M25.641,75.362v2.922l2.016-1.165V74.2Z" transform="translate(8.929 25.839)" fill="#4d4d4d"/>
          <path id="Trazado_875019" data-name="Trazado 875019" d="M18.631,76.74v4.2l4.143-2.393v-4.2Z" transform="translate(6.488 25.889)" fill="#fff"/>
          <path id="Trazado_875020" data-name="Trazado 875020" d="M19.007,77.419v-.684l3.26-1.879v.671Z" transform="translate(6.619 26.069)" fill="#4d4d4d"/>
          <path id="Trazado_875021" data-name="Trazado 875021" d="M31.69,92.382l0-8.656L19.137,76.467v8.638Z" transform="translate(6.664 26.63)" fill="#dba763"/>
          <path id="Trazado_875022" data-name="Trazado 875022" d="M28.447,93.2l0-8.656L46.525,74.106v8.638Z" transform="translate(9.907 25.808)" fill="#e8b679"/>
          <path id="Trazado_875023" data-name="Trazado 875023" d="M49.767,75.98,31.694,86.422,19.138,79.163,37.216,68.725Z" transform="translate(6.664 23.934)" fill="#ffe1c0"/>
          <path id="Trazado_875024" data-name="Trazado 875024" d="M22.6,83.043l2.8,1.626V80.083l-2.8-1.627Z" transform="translate(7.87 27.322)" fill="#4d4d4d"/>
          <path id="Trazado_875025" data-name="Trazado 875025" d="M22.6,81.15,40.661,70.719l2.807,1.622L25.4,82.783Z" transform="translate(7.87 24.628)" fill="#6d6d6d"/>
          <path id="Trazado_875026" data-name="Trazado 875026" d="M28.842,88.048V87.24L24.626,84.8v.818Z" transform="translate(8.576 29.53)" fill="#4d4d4d"/>
          <path id="Trazado_875027" data-name="Trazado 875027" d="M28.842,86.976v-.808l-4.216-2.444v.818Z" transform="translate(8.576 29.157)" fill="#4d4d4d"/>
          <path id="Trazado_875028" data-name="Trazado 875028" d="M39.973,78.988V81.91l2.016-1.166v-2.92Z" transform="translate(13.92 27.102)" fill="#4d4d4d"/>
          <path id="Trazado_875029" data-name="Trazado 875029" d="M37.933,80.172v2.922l2.016-1.165V79.007Z" transform="translate(13.21 27.514)" fill="#4d4d4d"/>
          <path id="Trazado_875030" data-name="Trazado 875030" d="M35.865,81.359v2.922l2.016-1.165V80.194Z" transform="translate(12.49 27.928)" fill="#4d4d4d"/>
          <path id="Trazado_875031" data-name="Trazado 875031" d="M28.855,82.737v4.2L33,84.54v-4.2Z" transform="translate(10.049 27.978)" fill="#fff"/>
          <path id="Trazado_875032" data-name="Trazado 875032" d="M29.232,83.416v-.684l3.26-1.879v.673Z" transform="translate(10.18 28.157)" fill="#4d4d4d"/>
          <path id="Trazado_875033" data-name="Trazado 875033" d="M21.465,79.3l0-8.656L8.913,63.387v8.638Z" transform="translate(3.104 22.075)" fill="#dba763"/>
          <path id="Trazado_875034" data-name="Trazado 875034" d="M18.223,80.124l0-8.656L36.3,61.026v8.638Z" transform="translate(6.346 21.253)" fill="#e8b679"/>
          <path id="Trazado_875035" data-name="Trazado 875035" d="M39.542,62.9,21.469,73.342,8.913,66.084,26.99,55.644Z" transform="translate(3.104 19.378)" fill="#ffe1c0"/>
          <path id="Trazado_875036" data-name="Trazado 875036" d="M12.375,69.964l2.8,1.626V67l-2.8-1.627Z" transform="translate(4.31 22.767)" fill="#4d4d4d"/>
          <path id="Trazado_875037" data-name="Trazado 875037" d="M12.375,68.07,30.436,57.639l2.807,1.622L15.176,69.7Z" transform="translate(4.31 20.073)" fill="#6d6d6d"/>
          <path id="Trazado_875038" data-name="Trazado 875038" d="M18.618,74.968V74.16L14.4,71.716v.818Z" transform="translate(5.015 24.975)" fill="#4d4d4d"/>
          <path id="Trazado_875039" data-name="Trazado 875039" d="M18.618,73.9v-.808L14.4,70.644v.818Z" transform="translate(5.015 24.602)" fill="#4d4d4d"/>
          <path id="Trazado_875040" data-name="Trazado 875040" d="M29.749,65.909V68.83l2.016-1.166v-2.92Z" transform="translate(10.36 22.547)" fill="#4d4d4d"/>
          <path id="Trazado_875041" data-name="Trazado 875041" d="M27.708,67.092v2.922l2.016-1.166v-2.92Z" transform="translate(9.649 22.959)" fill="#4d4d4d"/>
          <path id="Trazado_875042" data-name="Trazado 875042" d="M25.641,68.279V71.2l2.016-1.166v-2.92Z" transform="translate(8.929 23.373)" fill="#4d4d4d"/>
          <path id="Trazado_875043" data-name="Trazado 875043" d="M18.631,69.657v4.2l4.143-2.393v-4.2Z" transform="translate(6.488 23.423)" fill="#fff"/>
          <path id="Trazado_875044" data-name="Trazado 875044" d="M19.007,70.336v-.684l3.26-1.879v.673Z" transform="translate(6.619 23.602)" fill="#4d4d4d"/>
          <path id="Trazado_875045" data-name="Trazado 875045" d="M31.69,85.3l0-8.656L19.137,69.384v8.638Z" transform="translate(6.664 24.163)" fill="#dba763"/>
          <path id="Trazado_875046" data-name="Trazado 875046" d="M28.447,86.121l0-8.656L46.525,67.023v8.638Z" transform="translate(9.907 23.341)" fill="#e8b679"/>
          <path id="Trazado_875047" data-name="Trazado 875047" d="M49.767,68.9,31.694,79.339,19.138,72.081,37.216,61.642Z" transform="translate(6.664 21.467)" fill="#ffe1c0"/>
          <path id="Trazado_875048" data-name="Trazado 875048" d="M22.6,75.961l2.8,1.626V73l-2.8-1.627Z" transform="translate(7.87 24.856)" fill="#4d4d4d"/>
          <path id="Trazado_875049" data-name="Trazado 875049" d="M22.6,74.068,40.661,63.636l2.807,1.622L25.4,75.7Z" transform="translate(7.87 22.162)" fill="#6d6d6d"/>
          <path id="Trazado_875050" data-name="Trazado 875050" d="M28.842,80.965v-.808l-4.216-2.444v.818Z" transform="translate(8.576 27.064)" fill="#4d4d4d"/>
          <path id="Trazado_875051" data-name="Trazado 875051" d="M28.842,79.894v-.808l-4.216-2.444v.818Z" transform="translate(8.576 26.691)" fill="#4d4d4d"/>
          <path id="Trazado_875052" data-name="Trazado 875052" d="M39.973,71.906v2.922l2.016-1.165V70.741Z" transform="translate(13.92 24.636)" fill="#4d4d4d"/>
          <path id="Trazado_875053" data-name="Trazado 875053" d="M37.933,73.089v2.922l2.016-1.165V71.924Z" transform="translate(13.21 25.048)" fill="#4d4d4d"/>
          <path id="Trazado_875054" data-name="Trazado 875054" d="M35.865,74.277V77.2l2.016-1.165V73.112Z" transform="translate(12.49 25.461)" fill="#4d4d4d"/>
          <path id="Trazado_875055" data-name="Trazado 875055" d="M28.855,75.655v4.2L33,77.459v-4.2Z" transform="translate(10.049 25.511)" fill="#fff"/>
          <path id="Trazado_875056" data-name="Trazado 875056" d="M29.232,76.333V75.65l3.26-1.879v.673Z" transform="translate(10.18 25.691)" fill="#4d4d4d"/>
          <path id="Trazado_875057" data-name="Trazado 875057" d="M75.753,93.381l-24.22,13.995.755.475L76.579,93.823Z" transform="translate(17.946 32.52)" fill="#ed8e2f"/>
          <path id="Trazado_875058" data-name="Trazado 875058" d="M76.384,93.707l-24.29,14.026v3.457l24.29-14.027Z" transform="translate(18.141 32.634)" fill="#c96a1c"/>
          <path id="Trazado_875059" data-name="Trazado 875059" d="M51.533,107.255l.755.433v-3.456l-.755-.471Z" transform="translate(17.946 36.135)" fill="#d87923"/>
          <path id="Trazado_875060" data-name="Trazado 875060" d="M55.7,81.75,31.479,95.744l.755.475L56.525,82.192Z" transform="translate(10.962 28.469)" fill="#ed8e2f"/>
          <path id="Trazado_875061" data-name="Trazado 875061" d="M56.33,82.076,32.04,96.1v3.457L56.33,85.533Z" transform="translate(11.158 28.583)" fill="#c96a1c"/>
          <path id="Trazado_875062" data-name="Trazado 875062" d="M31.479,95.623l.755.433V92.6l-.755-.471Z" transform="translate(10.962 32.084)" fill="#d87923"/>
          <path id="Trazado_875063" data-name="Trazado 875063" d="M65.435,87.279l-24.22,13.995.755.475L66.262,87.721Z" transform="translate(14.353 30.395)" fill="#ed8e2f"/>
          <path id="Trazado_875064" data-name="Trazado 875064" d="M66.066,87.6,41.776,101.63v3.457l24.29-14.026Z" transform="translate(14.548 30.508)" fill="#c96a1c"/>
          <path id="Trazado_875065" data-name="Trazado 875065" d="M41.215,101.152l.756.434V98.129l-.756-.471Z" transform="translate(14.353 34.01)" fill="#d87923"/>
          <path id="Trazado_875066" data-name="Trazado 875066" d="M59.272,107.471,31.479,91.425v1.118l27.793,16.047Z" transform="translate(10.962 31.839)" fill="#d87923"/>
          <path id="Trazado_875067" data-name="Trazado 875067" d="M62.185,106.263l-2.914,1.629L31.479,91.845l2.9-1.629Z" transform="translate(10.962 31.418)" fill="#ed8e2f"/>
          <path id="Trazado_875068" data-name="Trazado 875068" d="M55.007,102.118l-2.914,1.629v2.083l2.914-1.7Z" transform="translate(18.141 35.563)" fill="#c96a1c"/>
          <path id="Trazado_875069" data-name="Trazado 875069" d="M63.312,105.12,35.442,89v1.118l27.871,16.116Z" transform="translate(12.342 30.996)" fill="#d87923"/>
          <path id="Trazado_875070" data-name="Trazado 875070" d="M66.226,103.911l-2.914,1.629L35.442,89.426l2.9-1.629Z" transform="translate(12.342 30.575)" fill="#ed8e2f"/>
          <path id="Trazado_875071" data-name="Trazado 875071" d="M59.027,99.749l-2.914,1.629v2.083l2.914-1.7Z" transform="translate(19.541 34.738)" fill="#c96a1c"/>
          <path id="Trazado_875072" data-name="Trazado 875072" d="M67.445,102.8,39.51,86.647v1.118l27.936,16.149Z" transform="translate(13.759 30.175)" fill="#d87923"/>
          <path id="Trazado_875073" data-name="Trazado 875073" d="M70.359,101.588l-2.914,1.629L39.51,87.068l2.9-1.629Z" transform="translate(13.759 29.754)" fill="#ed8e2f"/>
          <path id="Trazado_875074" data-name="Trazado 875074" d="M63.143,97.417,60.23,99.045v2.083l2.914-1.7Z" transform="translate(20.975 33.925)" fill="#c96a1c"/>
          <path id="Trazado_875075" data-name="Trazado 875075" d="M71.449,100.4,43.578,84.354v1.118l27.871,16.047Z" transform="translate(15.176 29.376)" fill="#d87923"/>
          <path id="Trazado_875076" data-name="Trazado 875076" d="M74.363,99.192l-2.914,1.629L43.578,84.774l2.9-1.629Z" transform="translate(15.176 28.956)" fill="#ed8e2f"/>
          <path id="Trazado_875077" data-name="Trazado 875077" d="M67.164,95.048,64.25,96.676v2.083l2.914-1.7Z" transform="translate(22.375 33.1)" fill="#c96a1c"/>
          <path id="Trazado_875078" data-name="Trazado 875078" d="M75.165,98.341,47.227,82.224v1.118L75.165,99.459Z" transform="translate(16.446 28.635)" fill="#d87923"/>
          <path id="Trazado_875079" data-name="Trazado 875079" d="M78.078,97.133l-2.914,1.629L47.227,82.645l2.9-1.629Z" transform="translate(16.446 28.214)" fill="#ed8e2f"/>
          <path id="Trazado_875080" data-name="Trazado 875080" d="M70.862,92.97,67.949,94.6v2.083l2.914-1.7Z" transform="translate(23.663 32.377)" fill="#c96a1c"/>
          <path id="Trazado_875081" data-name="Trazado 875081" d="M46.137,100.586l0-8.656L33.585,84.672V93.31Z" transform="translate(11.696 29.487)" fill="#dba763"/>
          <path id="Trazado_875082" data-name="Trazado 875082" d="M42.895,101.408l0-8.656L60.972,82.311v8.638Z" transform="translate(14.938 28.665)" fill="#e8b679"/>
          <path id="Trazado_875083" data-name="Trazado 875083" d="M64.214,84.184,46.141,94.627,33.585,87.368,51.663,76.93Z" transform="translate(11.696 26.791)" fill="#ffe1c0"/>
          <path id="Trazado_875084" data-name="Trazado 875084" d="M37.047,91.248l2.8,1.626V88.287l-2.8-1.627Z" transform="translate(12.901 30.179)" fill="#4d4d4d"/>
          <path id="Trazado_875085" data-name="Trazado 875085" d="M37.047,89.355,55.108,78.923l2.807,1.622L39.847,90.987Z" transform="translate(12.901 27.485)" fill="#6d6d6d"/>
          <path id="Trazado_875086" data-name="Trazado 875086" d="M43.289,96.252v-.808L39.073,93v.818Z" transform="translate(13.607 32.387)" fill="#4d4d4d"/>
          <path id="Trazado_875087" data-name="Trazado 875087" d="M43.289,95.181v-.808l-4.216-2.444v.818Z" transform="translate(13.607 32.014)" fill="#4d4d4d"/>
          <path id="Trazado_875088" data-name="Trazado 875088" d="M54.42,87.193v2.922l2.016-1.166v-2.92Z" transform="translate(18.951 29.959)" fill="#4d4d4d"/>
          <path id="Trazado_875089" data-name="Trazado 875089" d="M52.38,88.376V91.3L54.4,90.132v-2.92Z" transform="translate(18.241 30.371)" fill="#4d4d4d"/>
          <path id="Trazado_875090" data-name="Trazado 875090" d="M50.312,89.564v2.922l2.016-1.165V88.4Z" transform="translate(17.521 30.785)" fill="#4d4d4d"/>
          <path id="Trazado_875091" data-name="Trazado 875091" d="M43.3,90.942v4.2l4.143-2.394v-4.2Z" transform="translate(15.08 30.835)" fill="#fff"/>
          <path id="Trazado_875092" data-name="Trazado 875092" d="M43.679,91.62v-.684l3.26-1.879v.673Z" transform="translate(15.211 31.014)" fill="#4d4d4d"/>
          <path id="Trazado_875093" data-name="Trazado 875093" d="M56.361,106.584l0-8.656L43.809,90.669v8.638Z" transform="translate(15.256 31.575)" fill="#dba763"/>
          <path id="Trazado_875094" data-name="Trazado 875094" d="M53.119,107.406l0-8.656L71.2,88.308v8.638Z" transform="translate(18.498 30.753)" fill="#e8b679"/>
          <path id="Trazado_875095" data-name="Trazado 875095" d="M74.438,90.182,56.365,100.624,43.809,93.365,61.886,82.926Z" transform="translate(15.256 28.879)" fill="#ffe1c0"/>
          <path id="Trazado_875096" data-name="Trazado 875096" d="M47.271,97.245l2.8,1.626V94.285l-2.8-1.627Z" transform="translate(16.462 32.268)" fill="#4d4d4d"/>
          <path id="Trazado_875097" data-name="Trazado 875097" d="M47.271,95.352,65.332,84.921l2.807,1.622L50.072,96.985Z" transform="translate(16.462 29.574)" fill="#6d6d6d"/>
          <path id="Trazado_875098" data-name="Trazado 875098" d="M53.514,102.25v-.808L49.3,99v.818Z" transform="translate(17.167 34.476)" fill="#4d4d4d"/>
          <path id="Trazado_875099" data-name="Trazado 875099" d="M53.514,101.178v-.808L49.3,97.926v.818Z" transform="translate(17.167 34.103)" fill="#4d4d4d"/>
          <path id="Trazado_875100" data-name="Trazado 875100" d="M64.645,93.19v2.922l2.016-1.165V92.026Z" transform="translate(22.512 32.048)" fill="#4d4d4d"/>
          <path id="Trazado_875101" data-name="Trazado 875101" d="M62.6,94.374V97.3l2.016-1.166v-2.92Z" transform="translate(21.801 32.46)" fill="#4d4d4d"/>
          <path id="Trazado_875102" data-name="Trazado 875102" d="M60.537,95.561v2.922l2.016-1.166V94.4Z" transform="translate(21.081 32.873)" fill="#4d4d4d"/>
          <path id="Trazado_875103" data-name="Trazado 875103" d="M53.527,96.939v4.2l4.143-2.393v-4.2Z" transform="translate(18.64 32.923)" fill="#fff"/>
          <path id="Trazado_875104" data-name="Trazado 875104" d="M53.9,97.618v-.684l3.26-1.879v.673Z" transform="translate(18.771 33.103)" fill="#4d4d4d"/>
          <path id="Trazado_875105" data-name="Trazado 875105" d="M46.137,93.5l0-8.656L33.585,77.589v8.638Z" transform="translate(11.696 27.02)" fill="#dba763"/>
          <path id="Trazado_875106" data-name="Trazado 875106" d="M42.895,94.326l0-8.656L60.972,75.228v8.638Z" transform="translate(14.938 26.198)" fill="#e8b679"/>
          <path id="Trazado_875107" data-name="Trazado 875107" d="M64.214,77.1,46.141,87.544,33.585,80.286,51.663,69.846Z" transform="translate(11.696 24.324)" fill="#ffe1c0"/>
          <path id="Trazado_875108" data-name="Trazado 875108" d="M37.047,84.166l2.8,1.626V81.2l-2.8-1.627Z" transform="translate(12.901 27.713)" fill="#4d4d4d"/>
          <path id="Trazado_875109" data-name="Trazado 875109" d="M37.047,82.272,55.108,71.841l2.807,1.622L39.847,83.9Z" transform="translate(12.901 25.019)" fill="#6d6d6d"/>
          <path id="Trazado_875110" data-name="Trazado 875110" d="M43.289,89.17v-.808l-4.216-2.446v.82Z" transform="translate(13.607 29.921)" fill="#4d4d4d"/>
          <path id="Trazado_875111" data-name="Trazado 875111" d="M43.289,88.1v-.808l-4.216-2.444v.818Z" transform="translate(13.607 29.548)" fill="#4d4d4d"/>
          <path id="Trazado_875112" data-name="Trazado 875112" d="M54.42,80.111v2.922l2.016-1.165V78.946Z" transform="translate(18.951 27.493)" fill="#4d4d4d"/>
          <path id="Trazado_875113" data-name="Trazado 875113" d="M52.38,81.294v2.922L54.4,83.049v-2.92Z" transform="translate(18.241 27.905)" fill="#4d4d4d"/>
          <path id="Trazado_875114" data-name="Trazado 875114" d="M50.312,82.481V85.4l2.016-1.165V81.316Z" transform="translate(17.521 28.319)" fill="#4d4d4d"/>
          <path id="Trazado_875115" data-name="Trazado 875115" d="M43.3,83.859v4.2l4.143-2.394v-4.2Z" transform="translate(15.08 28.368)" fill="#fff"/>
          <path id="Trazado_875116" data-name="Trazado 875116" d="M43.679,84.538v-.684l3.26-1.879v.673Z" transform="translate(15.211 28.548)" fill="#4d4d4d"/>
          <path id="Trazado_875117" data-name="Trazado 875117" d="M56.361,99.5l0-8.656L43.809,83.586v8.638Z" transform="translate(15.256 29.109)" fill="#dba763"/>
          <path id="Trazado_875118" data-name="Trazado 875118" d="M53.119,100.323l0-8.656L71.2,81.225v8.638Z" transform="translate(18.498 28.287)" fill="#e8b679"/>
          <path id="Trazado_875119" data-name="Trazado 875119" d="M74.438,83.1,56.365,93.541,43.809,86.283,61.886,75.844Z" transform="translate(15.256 26.413)" fill="#ffe1c0"/>
          <path id="Trazado_875120" data-name="Trazado 875120" d="M47.271,90.163l2.8,1.626V87.2l-2.8-1.627Z" transform="translate(16.462 29.802)" fill="#4d4d4d"/>
          <path id="Trazado_875121" data-name="Trazado 875121" d="M47.271,88.27,65.332,77.838l2.807,1.622L50.072,89.9Z" transform="translate(16.462 27.107)" fill="#6d6d6d"/>
          <path id="Trazado_875122" data-name="Trazado 875122" d="M53.514,95.168V94.36L49.3,91.914v.82Z" transform="translate(17.167 32.009)" fill="#4d4d4d"/>
          <path id="Trazado_875123" data-name="Trazado 875123" d="M53.514,94.1v-.808L49.3,90.843v.82Z" transform="translate(17.167 31.636)" fill="#4d4d4d"/>
          <path id="Trazado_875124" data-name="Trazado 875124" d="M64.645,86.108V89.03l2.016-1.165V84.943Z" transform="translate(22.512 29.581)" fill="#4d4d4d"/>
          <path id="Trazado_875125" data-name="Trazado 875125" d="M62.6,87.291v2.922l2.016-1.165V86.126Z" transform="translate(21.801 29.994)" fill="#4d4d4d"/>
          <path id="Trazado_875126" data-name="Trazado 875126" d="M60.537,88.479V91.4l2.016-1.165V87.314Z" transform="translate(21.081 30.407)" fill="#4d4d4d"/>
          <path id="Trazado_875127" data-name="Trazado 875127" d="M53.527,89.857v4.2l4.143-2.393v-4.2Z" transform="translate(18.64 30.457)" fill="#fff"/>
          <path id="Trazado_875128" data-name="Trazado 875128" d="M53.9,90.535v-.684l3.26-1.879v.673Z" transform="translate(18.771 30.636)" fill="#4d4d4d"/>
          <path id="Trazado_875129" data-name="Trazado 875129" d="M33.8,39.246,1.5,57.986,71.333,98.6l32.362-18.712Z" transform="translate(0.523 13.668)" fill="#97a9dd"/>
          <path id="Trazado_875130" data-name="Trazado 875130" d="M53.3,90.384v-2.39L85.658,69.282v2.385Z" transform="translate(18.56 24.127)" fill="#7c76ac"/>
          <path id="Trazado_875131" data-name="Trazado 875131" d="M1.5,53.146v2.4L71.332,95.9v-2.39Z" transform="translate(0.523 18.508)" fill="#8583b7"/>
          <path id="Trazado_875132" data-name="Trazado 875132" d="M51.081,52.984,26.861,66.979l.755.475L51.908,53.426Z" transform="translate(9.354 18.452)" fill="#ed8e2f"/>
          <path id="Trazado_875133" data-name="Trazado 875133" d="M51.712,53.31,27.422,67.336v3.457l24.29-14.026Z" transform="translate(9.55 18.566)" fill="#c96a1c"/>
          <path id="Trazado_875134" data-name="Trazado 875134" d="M26.861,66.859l.756.433V63.834l-.756-.471Z" transform="translate(9.354 22.067)" fill="#d87923"/>
          <path id="Trazado_875135" data-name="Trazado 875135" d="M31.027,41.353,6.807,55.347l.755.475L31.854,41.795Z" transform="translate(2.371 14.401)" fill="#ed8e2f"/>
          <path id="Trazado_875136" data-name="Trazado 875136" d="M31.658,41.679,7.368,55.7v3.457l24.29-14.026Z" transform="translate(2.566 14.515)" fill="#c96a1c"/>
          <path id="Trazado_875137" data-name="Trazado 875137" d="M6.808,55.227l.756.433V52.2l-.756-.472Z" transform="translate(2.371 18.016)" fill="#d87923"/>
          <path id="Trazado_875138" data-name="Trazado 875138" d="M40.764,46.882,16.544,60.876l.755.475L41.59,47.324Z" transform="translate(5.761 16.327)" fill="#ed8e2f"/>
          <path id="Trazado_875139" data-name="Trazado 875139" d="M41.395,47.208,17.1,61.234v3.457l24.29-14.026Z" transform="translate(5.957 16.441)" fill="#c96a1c"/>
          <path id="Trazado_875140" data-name="Trazado 875140" d="M16.545,60.755l.755.433V57.733l-.755-.471Z" transform="translate(5.762 19.942)" fill="#d87923"/>
          <path id="Trazado_875141" data-name="Trazado 875141" d="M34.6,67.075,6.808,51.028v1.118L34.6,68.192Z" transform="translate(2.371 17.771)" fill="#d87923"/>
          <path id="Trazado_875142" data-name="Trazado 875142" d="M37.514,65.866,34.6,67.495,6.808,51.448l2.9-1.629Z" transform="translate(2.371 17.35)" fill="#ed8e2f"/>
          <path id="Trazado_875143" data-name="Trazado 875143" d="M30.335,61.722,27.422,63.35v2.083l2.914-1.7Z" transform="translate(9.549 21.495)" fill="#c96a1c"/>
          <path id="Trazado_875144" data-name="Trazado 875144" d="M38.641,64.723,10.77,48.608v1.118L38.641,65.841Z" transform="translate(3.751 16.928)" fill="#d87923"/>
          <path id="Trazado_875145" data-name="Trazado 875145" d="M41.554,63.515l-2.914,1.629L10.77,49.029l2.9-1.629Z" transform="translate(3.751 16.508)" fill="#ed8e2f"/>
          <path id="Trazado_875146" data-name="Trazado 875146" d="M34.356,59.352l-2.914,1.629v2.083l2.914-1.7Z" transform="translate(10.949 20.67)" fill="#c96a1c"/>
          <path id="Trazado_875147" data-name="Trazado 875147" d="M42.774,62.4,14.838,46.25v1.118L42.774,63.517Z" transform="translate(5.167 16.107)" fill="#d87923"/>
          <path id="Trazado_875148" data-name="Trazado 875148" d="M45.687,61.191l-2.914,1.629L14.838,46.67l2.9-1.627Z" transform="translate(5.167 15.687)" fill="#ed8e2f"/>
          <path id="Trazado_875149" data-name="Trazado 875149" d="M38.472,57.02l-2.914,1.629v2.083l2.914-1.7Z" transform="translate(12.383 19.857)" fill="#c96a1c"/>
          <path id="Trazado_875150" data-name="Trazado 875150" d="M46.778,60,18.907,43.957v1.118L46.778,61.122Z" transform="translate(6.584 15.308)" fill="#d87923"/>
          <path id="Trazado_875151" data-name="Trazado 875151" d="M49.691,58.8l-2.914,1.629L18.907,44.377l2.9-1.627Z" transform="translate(6.584 14.888)" fill="#ed8e2f"/>
          <path id="Trazado_875152" data-name="Trazado 875152" d="M42.492,54.651l-2.914,1.629v2.083l2.914-1.7Z" transform="translate(13.783 19.032)" fill="#c96a1c"/>
          <path id="Trazado_875153" data-name="Trazado 875153" d="M50.493,57.944,22.555,41.828v1.118L50.493,59.062Z" transform="translate(7.855 14.567)" fill="#d87923"/>
          <path id="Trazado_875154" data-name="Trazado 875154" d="M53.407,56.736l-2.914,1.629L22.556,42.248l2.9-1.629Z" transform="translate(7.855 14.146)" fill="#ed8e2f"/>
          <path id="Trazado_875155" data-name="Trazado 875155" d="M46.191,52.573,43.277,54.2v2.083l2.914-1.7Z" transform="translate(15.071 18.309)" fill="#c96a1c"/>
          <path id="Trazado_875156" data-name="Trazado 875156" d="M26,56.923l0-15.143,12.1-6.995V49.911Z" transform="translate(9.052 12.114)" fill="#dba763"/>
          <path id="Trazado_875157" data-name="Trazado 875157" d="M29.122,56.923l0-15.143-12.1-6.995V49.911Z" transform="translate(5.927 12.114)" fill="#e8b679"/>
          <path id="Trazado_875158" data-name="Trazado 875158" d="M17.019,36.592l12.1,6.995,12.1-6.995L29.122,29.6Z" transform="translate(5.927 10.308)" fill="#ffe1c0"/>
          <path id="Trazado_875159" data-name="Trazado 875159" d="M32.328,41.123l-2.7,1.567V38.27l2.7-1.568Z" transform="translate(10.318 12.782)" fill="#4d4d4d"/>
          <path id="Trazado_875160" data-name="Trazado 875160" d="M35.45,38.506,23.367,31.521l-2.7,1.563,12.088,7Z" transform="translate(7.196 10.978)" fill="#6d6d6d"/>
          <path id="Trazado_875161" data-name="Trazado 875161" d="M27.182,50.408V49.63l4.062-2.357v.79Z" transform="translate(9.466 16.463)" fill="#4d4d4d"/>
          <path id="Trazado_875162" data-name="Trazado 875162" d="M27.182,49.375V48.6l4.062-2.357v.79Z" transform="translate(9.466 16.104)" fill="#4d4d4d"/>
          <path id="Trazado_875163" data-name="Trazado 875163" d="M32.9,44.651v2.7l1.943-1.124v-2.7Z" transform="translate(11.457 15.158)" fill="#4d4d4d"/>
          <path id="Trazado_875164" data-name="Trazado 875164" d="M19.495,44.44v2.815l-1.943-1.123V43.318Z" transform="translate(6.112 15.086)" fill="#4d4d4d"/>
          <path id="Trazado_875165" data-name="Trazado 875165" d="M21.461,45.58V48.4l-1.943-1.123V44.459Z" transform="translate(6.797 15.483)" fill="#4d4d4d"/>
          <path id="Trazado_875166" data-name="Trazado 875166" d="M21.545,38.646v4.045l-3.992-2.307v-4.05Z" transform="translate(6.112 12.654)" fill="#fff"/>
          <path id="Trazado_875167" data-name="Trazado 875167" d="M20.962,39.3v-.658L17.821,36.83v.648Z" transform="translate(6.206 12.827)" fill="#4d4d4d"/>
          <path id="Trazado_875168" data-name="Trazado 875168" d="M35.809,62.533l0-15.143,12.1-6.995V55.521Z" transform="translate(12.469 14.068)" fill="#dba763"/>
          <path id="Trazado_875169" data-name="Trazado 875169" d="M38.934,62.533l0-15.143-12.1-6.995V55.521Z" transform="translate(9.343 14.068)" fill="#e8b679"/>
          <path id="Trazado_875170" data-name="Trazado 875170" d="M26.83,42.2l12.1,6.995L51.03,42.2l-12.1-6.993Z" transform="translate(9.343 12.262)" fill="#ffe1c0"/>
          <path id="Trazado_875171" data-name="Trazado 875171" d="M42.139,46.732l-2.7,1.567V43.88l2.7-1.568Z" transform="translate(13.735 14.735)" fill="#4d4d4d"/>
          <path id="Trazado_875172" data-name="Trazado 875172" d="M45.262,44.116,33.179,37.131l-2.7,1.563,12.088,7Z" transform="translate(10.613 12.931)" fill="#6d6d6d"/>
          <path id="Trazado_875173" data-name="Trazado 875173" d="M36.993,56.017v-.778l4.062-2.357v.79Z" transform="translate(12.883 18.417)" fill="#4d4d4d"/>
          <path id="Trazado_875174" data-name="Trazado 875174" d="M36.993,54.985v-.778l4.062-2.357v.79Z" transform="translate(12.883 18.057)" fill="#4d4d4d"/>
          <path id="Trazado_875175" data-name="Trazado 875175" d="M42.711,50.26v2.7l1.943-1.124v-2.7Z" transform="translate(14.874 17.111)" fill="#4d4d4d"/>
          <path id="Trazado_875176" data-name="Trazado 875176" d="M29.306,50.05v2.815l-1.943-1.123V48.928Z" transform="translate(9.529 17.04)" fill="#4d4d4d"/>
          <path id="Trazado_875177" data-name="Trazado 875177" d="M31.273,51.19v2.815L29.33,52.882V50.068Z" transform="translate(10.214 17.437)" fill="#4d4d4d"/>
          <path id="Trazado_875178" data-name="Trazado 875178" d="M31.356,44.255V48.3l-3.992-2.307v-4.05Z" transform="translate(9.529 14.607)" fill="#fff"/>
          <path id="Trazado_875179" data-name="Trazado 875179" d="M30.774,44.909v-.658L27.632,42.44v.648Z" transform="translate(9.623 14.78)" fill="#4d4d4d"/>
          <path id="Trazado_875180" data-name="Trazado 875180" d="M16.757,62.494l0-15.143,12.1-6.995V55.482Z" transform="translate(5.834 14.054)" fill="#dba763"/>
          <path id="Trazado_875181" data-name="Trazado 875181" d="M19.882,62.494l0-15.143-12.1-6.995V55.482Z" transform="translate(2.709 14.054)" fill="#e8b679"/>
          <path id="Trazado_875182" data-name="Trazado 875182" d="M7.779,42.162l12.1,6.995,12.1-6.995-12.1-6.993Z" transform="translate(2.709 12.248)" fill="#ffe1c0"/>
          <path id="Trazado_875183" data-name="Trazado 875183" d="M23.088,46.694l-2.7,1.567v-4.42l2.7-1.568Z" transform="translate(7.101 14.722)" fill="#4d4d4d"/>
          <path id="Trazado_875184" data-name="Trazado 875184" d="M26.21,44.077,14.127,37.092l-2.7,1.563,12.088,7Z" transform="translate(3.978 12.918)" fill="#6d6d6d"/>
          <path id="Trazado_875185" data-name="Trazado 875185" d="M17.942,55.978V55.2L22,52.844v.79Z" transform="translate(6.248 18.403)" fill="#4d4d4d"/>
          <path id="Trazado_875186" data-name="Trazado 875186" d="M17.942,54.946v-.778L22,51.811v.79Z" transform="translate(6.248 18.044)" fill="#4d4d4d"/>
          <path id="Trazado_875187" data-name="Trazado 875187" d="M23.659,50.221v2.7L25.6,51.8V49.1Z" transform="translate(8.239 17.098)" fill="#4d4d4d"/>
          <path id="Trazado_875188" data-name="Trazado 875188" d="M10.255,50.011v2.815L8.312,51.7V48.889Z" transform="translate(2.895 17.026)" fill="#4d4d4d"/>
          <path id="Trazado_875189" data-name="Trazado 875189" d="M12.221,51.151v2.815l-1.943-1.123V50.029Z" transform="translate(3.579 17.423)" fill="#4d4d4d"/>
          <path id="Trazado_875190" data-name="Trazado 875190" d="M12.3,44.216v4.045L8.312,45.954V41.9Z" transform="translate(2.895 14.594)" fill="#fff"/>
          <path id="Trazado_875191" data-name="Trazado 875191" d="M11.722,44.871v-.658L8.581,42.4v.648Z" transform="translate(2.988 14.766)" fill="#4d4d4d"/>
          <path id="Trazado_875192" data-name="Trazado 875192" d="M26.569,68.1l0-15.143,12.1-6.995V61.091Z" transform="translate(9.251 16.008)" fill="#dba763"/>
          <path id="Trazado_875193" data-name="Trazado 875193" d="M29.694,68.1l0-15.143-12.1-6.995V61.091Z" transform="translate(6.126 16.008)" fill="#e8b679"/>
          <path id="Trazado_875194" data-name="Trazado 875194" d="M17.59,47.772l12.1,6.995,12.1-6.995-12.1-6.993Z" transform="translate(6.126 14.202)" fill="#ffe1c0"/>
          <path id="Trazado_875195" data-name="Trazado 875195" d="M32.9,52.3,30.2,53.87V49.45l2.7-1.568Z" transform="translate(10.517 16.675)" fill="#4d4d4d"/>
          <path id="Trazado_875196" data-name="Trazado 875196" d="M36.022,49.687,23.939,42.7l-2.7,1.563,12.088,7Z" transform="translate(7.395 14.871)" fill="#6d6d6d"/>
          <path id="Trazado_875197" data-name="Trazado 875197" d="M27.753,61.588V60.81l4.062-2.357v.79Z" transform="translate(9.665 20.357)" fill="#4d4d4d"/>
          <path id="Trazado_875198" data-name="Trazado 875198" d="M27.753,60.555v-.778l4.062-2.357v.79Z" transform="translate(9.665 19.997)" fill="#4d4d4d"/>
          <path id="Trazado_875199" data-name="Trazado 875199" d="M33.471,55.831v2.7l1.943-1.124v-2.7Z" transform="translate(11.656 19.051)" fill="#4d4d4d"/>
          <path id="Trazado_875200" data-name="Trazado 875200" d="M20.066,55.62v2.815l-1.943-1.123V54.5Z" transform="translate(6.311 18.979)" fill="#4d4d4d"/>
          <path id="Trazado_875201" data-name="Trazado 875201" d="M22.032,56.761v2.815L20.09,58.453V55.639Z" transform="translate(6.996 19.377)" fill="#4d4d4d"/>
          <path id="Trazado_875202" data-name="Trazado 875202" d="M22.116,49.826v4.045l-3.992-2.307v-4.05Z" transform="translate(6.311 16.547)" fill="#fff"/>
          <path id="Trazado_875203" data-name="Trazado 875203" d="M21.534,50.48v-.658L18.392,48.01v.648Z" transform="translate(6.405 16.72)" fill="#4d4d4d"/>
          <path id="Trazado_875204" data-name="Trazado 875204" d="M75.753,67.159,51.533,81.154l.755.475L76.579,67.6Z" transform="translate(17.946 23.388)" fill="#ed8e2f"/>
          <path id="Trazado_875205" data-name="Trazado 875205" d="M76.384,67.485,52.094,81.511v3.457l24.29-14.026Z" transform="translate(18.141 23.502)" fill="#c96a1c"/>
          <path id="Trazado_875206" data-name="Trazado 875206" d="M51.533,81.034l.755.433V78.009l-.755-.471Z" transform="translate(17.946 27.003)" fill="#d87923"/>
          <path id="Trazado_875207" data-name="Trazado 875207" d="M55.7,55.528,31.479,69.522l.755.475L56.525,55.97Z" transform="translate(10.962 19.338)" fill="#ed8e2f"/>
          <path id="Trazado_875208" data-name="Trazado 875208" d="M56.33,55.854,32.04,69.88v3.457L56.33,59.311Z" transform="translate(11.158 19.451)" fill="#c96a1c"/>
          <path id="Trazado_875209" data-name="Trazado 875209" d="M31.479,69.4l.755.433V66.379l-.755-.472Z" transform="translate(10.962 22.952)" fill="#d87923"/>
          <path id="Trazado_875210" data-name="Trazado 875210" d="M65.435,61.057,41.215,75.051l.755.475L66.262,61.5Z" transform="translate(14.353 21.263)" fill="#ed8e2f"/>
          <path id="Trazado_875211" data-name="Trazado 875211" d="M66.066,61.383,41.776,75.409v3.457l24.29-14.027Z" transform="translate(14.548 21.377)" fill="#c96a1c"/>
          <path id="Trazado_875212" data-name="Trazado 875212" d="M41.215,74.93l.756.433V71.908l-.756-.471Z" transform="translate(14.353 24.878)" fill="#d87923"/>
          <path id="Trazado_875213" data-name="Trazado 875213" d="M59.272,81.249,31.479,65.2V66.32L59.272,82.367Z" transform="translate(10.962 22.707)" fill="#d87923"/>
          <path id="Trazado_875214" data-name="Trazado 875214" d="M62.185,80.041,59.272,81.67,31.479,65.623l2.9-1.629Z" transform="translate(10.962 22.286)" fill="#ed8e2f"/>
          <path id="Trazado_875215" data-name="Trazado 875215" d="M55.007,75.9l-2.914,1.629v2.083l2.914-1.7Z" transform="translate(18.141 26.431)" fill="#c96a1c"/>
          <path id="Trazado_875216" data-name="Trazado 875216" d="M63.312,78.9,35.442,62.784V63.9L63.312,80.015Z" transform="translate(12.342 21.865)" fill="#d87923"/>
          <path id="Trazado_875217" data-name="Trazado 875217" d="M66.226,77.69l-2.914,1.629L35.442,63.2l2.9-1.629Z" transform="translate(12.342 21.444)" fill="#ed8e2f"/>
          <path id="Trazado_875218" data-name="Trazado 875218" d="M59.027,73.527l-2.914,1.629v2.083l2.914-1.7Z" transform="translate(19.541 25.606)" fill="#c96a1c"/>
          <path id="Trazado_875219" data-name="Trazado 875219" d="M67.445,76.574,39.51,60.425v1.118L67.445,77.692Z" transform="translate(13.759 21.043)" fill="#d87923"/>
          <path id="Trazado_875220" data-name="Trazado 875220" d="M70.359,75.366l-2.914,1.629L39.51,60.845l2.9-1.627Z" transform="translate(13.759 20.623)" fill="#ed8e2f"/>
          <path id="Trazado_875221" data-name="Trazado 875221" d="M63.143,71.195,60.23,72.824v2.083l2.914-1.7Z" transform="translate(20.975 24.794)" fill="#c96a1c"/>
          <path id="Trazado_875222" data-name="Trazado 875222" d="M71.449,74.179,43.578,58.132V59.25L71.449,75.3Z" transform="translate(15.176 20.245)" fill="#d87923"/>
          <path id="Trazado_875223" data-name="Trazado 875223" d="M74.363,72.971,71.449,74.6,43.578,58.552l2.9-1.629Z" transform="translate(15.176 19.824)" fill="#ed8e2f"/>
          <path id="Trazado_875224" data-name="Trazado 875224" d="M67.164,68.826,64.25,70.454v2.083l2.914-1.7Z" transform="translate(22.375 23.969)" fill="#c96a1c"/>
          <path id="Trazado_875225" data-name="Trazado 875225" d="M75.165,72.119,47.227,56V57.12L75.165,73.237Z" transform="translate(16.446 19.503)" fill="#d87923"/>
          <path id="Trazado_875226" data-name="Trazado 875226" d="M78.078,70.911,75.165,72.54,47.227,56.423l2.9-1.629Z" transform="translate(16.446 19.082)" fill="#ed8e2f"/>
          <path id="Trazado_875227" data-name="Trazado 875227" d="M70.862,66.748l-2.914,1.629V70.46l2.914-1.7Z" transform="translate(23.663 23.245)" fill="#c96a1c"/>
          <path id="Trazado_875228" data-name="Trazado 875228" d="M50.669,71.1l0-15.143,12.1-6.995V64.086Z" transform="translate(17.644 17.051)" fill="#dba763"/>
          <path id="Trazado_875229" data-name="Trazado 875229" d="M53.794,71.1l0-15.143L41.69,48.96V64.086Z" transform="translate(14.518 17.051)" fill="#e8b679"/>
          <path id="Trazado_875230" data-name="Trazado 875230" d="M41.69,50.767l12.1,6.995,12.1-6.995-12.1-6.993Z" transform="translate(14.518 15.245)" fill="#ffe1c0"/>
          <path id="Trazado_875231" data-name="Trazado 875231" d="M57,55.3l-2.7,1.567v-4.42L57,50.877Z" transform="translate(18.91 17.718)" fill="#4d4d4d"/>
          <path id="Trazado_875232" data-name="Trazado 875232" d="M60.122,52.681,48.039,45.7l-2.7,1.563,12.088,7Z" transform="translate(15.788 15.914)" fill="#6d6d6d"/>
          <path id="Trazado_875233" data-name="Trazado 875233" d="M51.853,64.583V63.8l4.062-2.357v.79Z" transform="translate(18.057 21.4)" fill="#4d4d4d"/>
          <path id="Trazado_875234" data-name="Trazado 875234" d="M51.853,63.55v-.778l4.062-2.357v.79Z" transform="translate(18.057 21.04)" fill="#4d4d4d"/>
          <path id="Trazado_875235" data-name="Trazado 875235" d="M57.571,58.826v2.7L59.514,60.4V57.7Z" transform="translate(20.049 20.094)" fill="#4d4d4d"/>
          <path id="Trazado_875236" data-name="Trazado 875236" d="M44.166,58.615V61.43l-1.943-1.123V57.493Z" transform="translate(14.704 20.022)" fill="#4d4d4d"/>
          <path id="Trazado_875237" data-name="Trazado 875237" d="M46.133,59.755v2.815L44.19,61.448V58.634Z" transform="translate(15.389 20.419)" fill="#4d4d4d"/>
          <path id="Trazado_875238" data-name="Trazado 875238" d="M46.216,52.821v4.045l-3.992-2.307v-4.05Z" transform="translate(14.704 17.59)" fill="#fff"/>
          <path id="Trazado_875239" data-name="Trazado 875239" d="M45.634,53.475v-.658l-3.141-1.812v.649Z" transform="translate(14.798 17.763)" fill="#4d4d4d"/>
          <path id="Trazado_875240" data-name="Trazado 875240" d="M60.48,76.708l0-15.143,12.1-6.995V69.7Z" transform="translate(21.06 19.004)" fill="#dba763"/>
          <path id="Trazado_875241" data-name="Trazado 875241" d="M63.605,76.708l0-15.143L51.5,54.57V69.7Z" transform="translate(17.935 19.004)" fill="#e8b679"/>
          <path id="Trazado_875242" data-name="Trazado 875242" d="M51.5,56.376l12.1,6.995,12.1-6.995L63.6,49.383Z" transform="translate(17.935 17.198)" fill="#ffe1c0"/>
          <path id="Trazado_875243" data-name="Trazado 875243" d="M66.811,60.907l-2.7,1.567v-4.42l2.7-1.568Z" transform="translate(22.327 19.672)" fill="#4d4d4d"/>
          <path id="Trazado_875244" data-name="Trazado 875244" d="M69.933,58.291,57.85,51.306l-2.7,1.563,12.088,7Z" transform="translate(19.204 17.868)" fill="#6d6d6d"/>
          <path id="Trazado_875245" data-name="Trazado 875245" d="M61.665,70.192v-.778l4.062-2.357v.79Z" transform="translate(21.474 23.353)" fill="#4d4d4d"/>
          <path id="Trazado_875246" data-name="Trazado 875246" d="M61.665,69.16v-.778l4.062-2.357v.79Z" transform="translate(21.474 22.993)" fill="#4d4d4d"/>
          <path id="Trazado_875247" data-name="Trazado 875247" d="M67.383,64.435v2.7l1.943-1.124v-2.7Z" transform="translate(23.465 22.048)" fill="#4d4d4d"/>
          <path id="Trazado_875248" data-name="Trazado 875248" d="M53.978,64.225V67.04l-1.943-1.123V63.1Z" transform="translate(18.121 21.976)" fill="#4d4d4d"/>
          <path id="Trazado_875249" data-name="Trazado 875249" d="M55.944,65.365V68.18L54,67.057V64.243Z" transform="translate(18.805 22.373)" fill="#4d4d4d"/>
          <path id="Trazado_875250" data-name="Trazado 875250" d="M56.028,58.43v4.045l-3.992-2.307v-4.05Z" transform="translate(18.121 19.543)" fill="#fff"/>
          <path id="Trazado_875251" data-name="Trazado 875251" d="M55.445,59.084v-.658L52.3,56.615v.649Z" transform="translate(18.214 19.716)" fill="#4d4d4d"/>
          <path id="Trazado_875252" data-name="Trazado 875252" d="M41.429,76.669l0-15.143,12.1-6.995V69.657Z" transform="translate(14.426 18.991)" fill="#dba763"/>
          <path id="Trazado_875253" data-name="Trazado 875253" d="M44.554,76.669l0-15.143-12.1-6.995V69.657Z" transform="translate(11.3 18.991)" fill="#e8b679"/>
          <path id="Trazado_875254" data-name="Trazado 875254" d="M32.45,56.337l12.1,6.995,12.1-6.995-12.1-6.993Z" transform="translate(11.3 17.184)" fill="#ffe1c0"/>
          <path id="Trazado_875255" data-name="Trazado 875255" d="M47.759,60.868l-2.7,1.567v-4.42l2.7-1.568Z" transform="translate(15.692 19.658)" fill="#4d4d4d"/>
          <path id="Trazado_875256" data-name="Trazado 875256" d="M50.881,58.252,38.8,51.267l-2.7,1.563,12.088,7Z" transform="translate(12.57 17.854)" fill="#6d6d6d"/>
          <path id="Trazado_875257" data-name="Trazado 875257" d="M42.613,70.153v-.778l4.062-2.357v.79Z" transform="translate(14.84 23.34)" fill="#4d4d4d"/>
          <path id="Trazado_875258" data-name="Trazado 875258" d="M42.613,69.121v-.778l4.062-2.357v.79Z" transform="translate(14.84 22.98)" fill="#4d4d4d"/>
          <path id="Trazado_875259" data-name="Trazado 875259" d="M48.331,64.4v2.7l1.943-1.124v-2.7Z" transform="translate(16.831 22.034)" fill="#4d4d4d"/>
          <path id="Trazado_875260" data-name="Trazado 875260" d="M34.926,64.186V67l-1.943-1.123V63.064Z" transform="translate(11.486 21.962)" fill="#4d4d4d"/>
          <path id="Trazado_875261" data-name="Trazado 875261" d="M36.892,65.326v2.815L34.95,67.018V64.2Z" transform="translate(12.171 22.359)" fill="#4d4d4d"/>
          <path id="Trazado_875262" data-name="Trazado 875262" d="M36.976,58.391v4.045l-3.992-2.307v-4.05Z" transform="translate(11.486 19.53)" fill="#fff"/>
          <path id="Trazado_875263" data-name="Trazado 875263" d="M36.394,59.046v-.658l-3.141-1.812v.648Z" transform="translate(11.58 19.703)" fill="#4d4d4d"/>
          <path id="Trazado_875264" data-name="Trazado 875264" d="M51.24,82.279l0-15.143,12.1-6.995V75.266Z" transform="translate(17.843 20.944)" fill="#dba763"/>
          <path id="Trazado_875265" data-name="Trazado 875265" d="M54.366,82.279l0-15.143-12.1-6.995V75.266Z" transform="translate(14.717 20.944)" fill="#e8b679"/>
          <path id="Trazado_875266" data-name="Trazado 875266" d="M42.262,61.947l12.1,6.995,12.1-6.995-12.1-6.993Z" transform="translate(14.717 19.138)" fill="#ffe1c0"/>
          <path id="Trazado_875267" data-name="Trazado 875267" d="M57.571,66.478l-2.7,1.567v-4.42l2.7-1.568Z" transform="translate(19.109 21.612)" fill="#4d4d4d"/>
          <path id="Trazado_875268" data-name="Trazado 875268" d="M60.693,63.862,48.61,56.876l-2.7,1.563,12.088,7Z" transform="translate(15.987 19.807)" fill="#6d6d6d"/>
          <path id="Trazado_875269" data-name="Trazado 875269" d="M52.425,75.763v-.778l4.062-2.357v.79Z" transform="translate(18.256 25.293)" fill="#4d4d4d"/>
          <path id="Trazado_875270" data-name="Trazado 875270" d="M52.425,74.73v-.778L56.487,71.6v.79Z" transform="translate(18.256 24.933)" fill="#4d4d4d"/>
          <path id="Trazado_875271" data-name="Trazado 875271" d="M58.143,70.006v2.7l1.943-1.124v-2.7Z" transform="translate(20.248 23.988)" fill="#4d4d4d"/>
          <path id="Trazado_875272" data-name="Trazado 875272" d="M44.738,69.8V72.61l-1.943-1.123V68.674Z" transform="translate(14.903 23.916)" fill="#4d4d4d"/>
          <path id="Trazado_875273" data-name="Trazado 875273" d="M46.7,70.936v2.815l-1.943-1.123V69.814Z" transform="translate(15.588 24.313)" fill="#4d4d4d"/>
          <path id="Trazado_875274" data-name="Trazado 875274" d="M46.788,64v4.045L42.8,65.739v-4.05Z" transform="translate(14.903 21.483)" fill="#fff"/>
          <path id="Trazado_875275" data-name="Trazado 875275" d="M46.205,64.655V64l-3.141-1.812v.649Z" transform="translate(14.997 21.656)" fill="#4d4d4d"/>
          <path id="Trazado_875276" data-name="Trazado 875276" d="M33.8,13.6,1.5,32.345,71.333,72.954l32.362-18.712Z" transform="translate(0.523 4.738)" fill="#97a9dd"/>
          <path id="Trazado_875277" data-name="Trazado 875277" d="M53.3,64.743v-2.39L85.658,43.641v2.385Z" transform="translate(18.56 15.198)" fill="#7c76ac"/>
          <path id="Trazado_875278" data-name="Trazado 875278" d="M1.5,27.5v2.4L71.332,70.262v-2.39Z" transform="translate(0.523 9.579)" fill="#8583b7"/>
          <path id="Trazado_875279" data-name="Trazado 875279" d="M51.081,26.367,26.861,40.362l.755.475L51.908,26.809Z" transform="translate(9.354 9.183)" fill="#ed8e2f"/>
          <path id="Trazado_875280" data-name="Trazado 875280" d="M51.712,26.693,27.422,40.719v3.457L51.712,30.15Z" transform="translate(9.55 9.296)" fill="#c96a1c"/>
          <path id="Trazado_875281" data-name="Trazado 875281" d="M26.861,40.241l.756.433V37.218l-.756-.471Z" transform="translate(9.354 12.798)" fill="#d87923"/>
          <path id="Trazado_875282" data-name="Trazado 875282" d="M31.027,14.735,6.807,28.73l.755.475L31.854,15.178Z" transform="translate(2.371 5.132)" fill="#ed8e2f"/>
          <path id="Trazado_875283" data-name="Trazado 875283" d="M31.658,15.062,7.368,29.087v3.457l24.29-14.027Z" transform="translate(2.566 5.246)" fill="#c96a1c"/>
          <path id="Trazado_875284" data-name="Trazado 875284" d="M6.808,28.609l.756.433V25.586l-.756-.471Z" transform="translate(2.371 8.747)" fill="#d87923"/>
          <path id="Trazado_875285" data-name="Trazado 875285" d="M40.764,20.265,16.544,34.259l.755.475L41.59,20.707Z" transform="translate(5.761 7.058)" fill="#ed8e2f"/>
          <path id="Trazado_875286" data-name="Trazado 875286" d="M41.395,20.591,17.1,34.616v3.457l24.29-14.026Z" transform="translate(5.957 7.171)" fill="#c96a1c"/>
          <path id="Trazado_875287" data-name="Trazado 875287" d="M16.545,34.138l.755.434V31.115l-.755-.471Z" transform="translate(5.762 10.672)" fill="#d87923"/>
          <path id="Trazado_875288" data-name="Trazado 875288" d="M34.6,40.457,6.808,24.411v1.118L34.6,41.575Z" transform="translate(2.371 8.502)" fill="#d87923"/>
          <path id="Trazado_875289" data-name="Trazado 875289" d="M37.514,39.249,34.6,40.877,6.808,24.831l2.9-1.627Z" transform="translate(2.371 8.081)" fill="#ed8e2f"/>
          <path id="Trazado_875290" data-name="Trazado 875290" d="M30.335,35.1l-2.914,1.629v2.083l2.914-1.7Z" transform="translate(9.549 12.226)" fill="#c96a1c"/>
          <path id="Trazado_875291" data-name="Trazado 875291" d="M38.641,38.106,10.77,21.99v1.118L38.641,39.224Z" transform="translate(3.751 7.659)" fill="#d87923"/>
          <path id="Trazado_875292" data-name="Trazado 875292" d="M41.554,36.9l-2.914,1.629L10.77,22.412l2.9-1.629Z" transform="translate(3.751 7.238)" fill="#ed8e2f"/>
          <path id="Trazado_875293" data-name="Trazado 875293" d="M34.356,32.735l-2.914,1.629v2.083l2.914-1.7Z" transform="translate(10.949 11.401)" fill="#c96a1c"/>
          <path id="Trazado_875294" data-name="Trazado 875294" d="M42.774,35.782,14.838,19.633v1.118L42.774,36.9Z" transform="translate(5.167 6.838)" fill="#d87923"/>
          <path id="Trazado_875295" data-name="Trazado 875295" d="M45.687,34.574,42.774,36.2,14.838,20.053l2.9-1.629Z" transform="translate(5.167 6.417)" fill="#ed8e2f"/>
          <path id="Trazado_875296" data-name="Trazado 875296" d="M38.472,30.4l-2.914,1.629v2.083l2.914-1.7Z" transform="translate(12.383 10.588)" fill="#c96a1c"/>
          <path id="Trazado_875297" data-name="Trazado 875297" d="M46.778,33.387,18.907,17.34v1.118L46.778,34.5Z" transform="translate(6.584 6.039)" fill="#d87923"/>
          <path id="Trazado_875298" data-name="Trazado 875298" d="M49.691,32.178l-2.914,1.629L18.907,17.76l2.9-1.629Z" transform="translate(6.584 5.618)" fill="#ed8e2f"/>
          <path id="Trazado_875299" data-name="Trazado 875299" d="M42.492,28.034l-2.914,1.629v2.083l2.914-1.7Z" transform="translate(13.783 9.763)" fill="#c96a1c"/>
          <path id="Trazado_875300" data-name="Trazado 875300" d="M50.493,31.327,22.555,15.21v1.118L50.493,32.445Z" transform="translate(7.855 5.298)" fill="#d87923"/>
          <path id="Trazado_875301" data-name="Trazado 875301" d="M53.407,30.119l-2.914,1.629L22.556,15.631,25.455,14Z" transform="translate(7.855 4.877)" fill="#ed8e2f"/>
          <path id="Trazado_875302" data-name="Trazado 875302" d="M46.191,25.956l-2.914,1.629v2.083l2.914-1.7Z" transform="translate(15.071 9.04)" fill="#c96a1c"/>
          <path id="Trazado_875303" data-name="Trazado 875303" d="M26,30.306l0-15.143,12.1-6.995V23.294Z" transform="translate(9.052 2.845)" fill="#dba763"/>
          <path id="Trazado_875304" data-name="Trazado 875304" d="M29.122,30.306l0-15.143-12.1-6.995V23.294Z" transform="translate(5.927 2.845)" fill="#e8b679"/>
          <path id="Trazado_875305" data-name="Trazado 875305" d="M17.019,9.975l12.1,6.995,12.1-6.995-12.1-6.993Z" transform="translate(5.927 1.039)" fill="#ffe1c0"/>
          <path id="Trazado_875306" data-name="Trazado 875306" d="M32.328,14.506l-2.7,1.567v-4.42l2.7-1.568Z" transform="translate(10.318 3.513)" fill="#4d4d4d"/>
          <path id="Trazado_875307" data-name="Trazado 875307" d="M35.45,11.889,23.367,4.9l-2.7,1.563,12.088,7Z" transform="translate(7.196 1.709)" fill="#6d6d6d"/>
          <path id="Trazado_875308" data-name="Trazado 875308" d="M27.182,23.791v-.778l4.062-2.357v.79Z" transform="translate(9.466 7.194)" fill="#4d4d4d"/>
          <path id="Trazado_875309" data-name="Trazado 875309" d="M27.182,22.758V21.98l4.062-2.357v.79Z" transform="translate(9.466 6.835)" fill="#4d4d4d"/>
          <path id="Trazado_875310" data-name="Trazado 875310" d="M32.9,18.034v2.7l1.943-1.124v-2.7Z" transform="translate(11.457 5.889)" fill="#4d4d4d"/>
          <path id="Trazado_875311" data-name="Trazado 875311" d="M19.495,17.823v2.815l-1.943-1.123V16.7Z" transform="translate(6.112 5.817)" fill="#4d4d4d"/>
          <path id="Trazado_875312" data-name="Trazado 875312" d="M21.461,18.963v2.815l-1.943-1.123V17.841Z" transform="translate(6.797 6.214)" fill="#4d4d4d"/>
          <path id="Trazado_875313" data-name="Trazado 875313" d="M21.545,12.029v4.045l-3.992-2.307V9.716Z" transform="translate(6.112 3.384)" fill="#fff"/>
          <path id="Trazado_875314" data-name="Trazado 875314" d="M20.962,12.683v-.658l-3.141-1.812v.648Z" transform="translate(6.206 3.557)" fill="#4d4d4d"/>
          <path id="Trazado_875315" data-name="Trazado 875315" d="M35.809,35.916l0-15.143,12.1-6.995V28.9Z" transform="translate(12.469 4.799)" fill="#dba763"/>
          <path id="Trazado_875316" data-name="Trazado 875316" d="M38.934,35.916l0-15.143-12.1-6.995V28.9Z" transform="translate(9.343 4.799)" fill="#e8b679"/>
          <path id="Trazado_875317" data-name="Trazado 875317" d="M26.83,15.584l12.1,6.995,12.1-6.995-12.1-6.993Z" transform="translate(9.343 2.992)" fill="#ffe1c0"/>
          <path id="Trazado_875318" data-name="Trazado 875318" d="M42.139,20.115l-2.7,1.567v-4.42l2.7-1.568Z" transform="translate(13.735 5.466)" fill="#4d4d4d"/>
          <path id="Trazado_875319" data-name="Trazado 875319" d="M45.262,17.5,33.179,10.514l-2.7,1.563,12.088,7Z" transform="translate(10.613 3.662)" fill="#6d6d6d"/>
          <path id="Trazado_875320" data-name="Trazado 875320" d="M36.993,29.4v-.778l4.062-2.357v.79Z" transform="translate(12.883 9.148)" fill="#4d4d4d"/>
          <path id="Trazado_875321" data-name="Trazado 875321" d="M36.993,28.368V27.59l4.062-2.357v.79Z" transform="translate(12.883 8.788)" fill="#4d4d4d"/>
          <path id="Trazado_875322" data-name="Trazado 875322" d="M42.711,23.643v2.7l1.943-1.124v-2.7Z" transform="translate(14.874 7.842)" fill="#4d4d4d"/>
          <path id="Trazado_875323" data-name="Trazado 875323" d="M29.306,23.432v2.815l-1.943-1.123V22.311Z" transform="translate(9.529 7.77)" fill="#4d4d4d"/>
          <path id="Trazado_875324" data-name="Trazado 875324" d="M31.273,24.573v2.815L29.33,26.265V23.451Z" transform="translate(10.214 8.167)" fill="#4d4d4d"/>
          <path id="Trazado_875325" data-name="Trazado 875325" d="M31.356,17.638v4.045l-3.992-2.307v-4.05Z" transform="translate(9.529 5.338)" fill="#fff"/>
          <path id="Trazado_875326" data-name="Trazado 875326" d="M30.774,18.292v-.658l-3.141-1.812v.647Z" transform="translate(9.623 5.511)" fill="#4d4d4d"/>
          <path id="Trazado_875327" data-name="Trazado 875327" d="M16.757,35.877l0-15.143,12.1-6.995V28.865Z" transform="translate(5.834 4.785)" fill="#dba763"/>
          <path id="Trazado_875328" data-name="Trazado 875328" d="M19.882,35.877l0-15.143-12.1-6.995V28.865Z" transform="translate(2.709 4.785)" fill="#e8b679"/>
          <path id="Trazado_875329" data-name="Trazado 875329" d="M7.779,15.545l12.1,6.995,12.1-6.995-12.1-6.993Z" transform="translate(2.709 2.979)" fill="#ffe1c0"/>
          <path id="Trazado_875330" data-name="Trazado 875330" d="M23.088,20.076l-2.7,1.567v-4.42l2.7-1.568Z" transform="translate(7.101 5.453)" fill="#4d4d4d"/>
          <path id="Trazado_875331" data-name="Trazado 875331" d="M26.21,17.46,14.127,10.475l-2.7,1.563,12.088,7Z" transform="translate(3.978 3.648)" fill="#6d6d6d"/>
          <path id="Trazado_875332" data-name="Trazado 875332" d="M17.942,29.361v-.778L22,26.227v.79Z" transform="translate(6.248 9.134)" fill="#4d4d4d"/>
          <path id="Trazado_875333" data-name="Trazado 875333" d="M17.942,28.329v-.778L22,25.194v.79Z" transform="translate(6.248 8.774)" fill="#4d4d4d"/>
          <path id="Trazado_875334" data-name="Trazado 875334" d="M23.659,23.6v2.7L25.6,25.18v-2.7Z" transform="translate(8.239 7.829)" fill="#4d4d4d"/>
          <path id="Trazado_875335" data-name="Trazado 875335" d="M10.255,23.394v2.815L8.312,25.086V22.272Z" transform="translate(2.895 7.757)" fill="#4d4d4d"/>
          <path id="Trazado_875336" data-name="Trazado 875336" d="M12.221,24.534v2.815l-1.943-1.123V23.412Z" transform="translate(3.579 8.154)" fill="#4d4d4d"/>
          <path id="Trazado_875337" data-name="Trazado 875337" d="M12.3,17.6v4.045L8.312,19.337v-4.05Z" transform="translate(2.895 5.324)" fill="#fff"/>
          <path id="Trazado_875338" data-name="Trazado 875338" d="M11.722,18.253V17.6L8.581,15.783v.647Z" transform="translate(2.988 5.497)" fill="#4d4d4d"/>
          <path id="Trazado_875339" data-name="Trazado 875339" d="M26.569,41.486l0-15.143,12.1-6.995V34.474Z" transform="translate(9.251 6.739)" fill="#dba763"/>
          <path id="Trazado_875340" data-name="Trazado 875340" d="M29.694,41.486l0-15.143-12.1-6.995V34.474Z" transform="translate(6.126 6.739)" fill="#e8b679"/>
          <path id="Trazado_875341" data-name="Trazado 875341" d="M17.59,21.155l12.1,6.995,12.1-6.995-12.1-6.993Z" transform="translate(6.126 4.932)" fill="#ffe1c0"/>
          <path id="Trazado_875342" data-name="Trazado 875342" d="M32.9,25.686l-2.7,1.567v-4.42l2.7-1.568Z" transform="translate(10.517 7.406)" fill="#4d4d4d"/>
          <path id="Trazado_875343" data-name="Trazado 875343" d="M36.022,23.069,23.939,16.084l-2.7,1.563,12.088,7Z" transform="translate(7.395 5.602)" fill="#6d6d6d"/>
          <path id="Trazado_875344" data-name="Trazado 875344" d="M27.753,34.971v-.778l4.062-2.357v.79Z" transform="translate(9.665 11.087)" fill="#4d4d4d"/>
          <path id="Trazado_875345" data-name="Trazado 875345" d="M27.753,33.938V33.16L31.816,30.8v.79Z" transform="translate(9.665 10.728)" fill="#4d4d4d"/>
          <path id="Trazado_875346" data-name="Trazado 875346" d="M33.471,29.214v2.7l1.943-1.124v-2.7Z" transform="translate(11.656 9.782)" fill="#4d4d4d"/>
          <path id="Trazado_875347" data-name="Trazado 875347" d="M20.066,29v2.815L18.123,30.7V27.881Z" transform="translate(6.311 9.71)" fill="#4d4d4d"/>
          <path id="Trazado_875348" data-name="Trazado 875348" d="M22.032,30.143v2.815L20.09,31.835V29.022Z" transform="translate(6.996 10.107)" fill="#4d4d4d"/>
          <path id="Trazado_875349" data-name="Trazado 875349" d="M22.116,23.209v4.045l-3.992-2.307V20.9Z" transform="translate(6.311 7.278)" fill="#fff"/>
          <path id="Trazado_875350" data-name="Trazado 875350" d="M21.534,23.863V23.2l-3.141-1.812v.648Z" transform="translate(6.405 7.451)" fill="#4d4d4d"/>
          <path id="Trazado_875351" data-name="Trazado 875351" d="M75.753,40.542,51.533,54.537l.755.475L76.579,40.984Z" transform="translate(17.946 14.119)" fill="#ed8e2f"/>
          <path id="Trazado_875352" data-name="Trazado 875352" d="M76.384,40.868,52.094,54.894v3.457l24.29-14.027Z" transform="translate(18.141 14.233)" fill="#c96a1c"/>
          <path id="Trazado_875353" data-name="Trazado 875353" d="M51.533,54.416l.755.433V51.393l-.755-.471Z" transform="translate(17.946 17.734)" fill="#d87923"/>
          <path id="Trazado_875354" data-name="Trazado 875354" d="M55.7,28.91,31.479,42.905l.755.475L56.525,29.353Z" transform="translate(10.962 10.069)" fill="#ed8e2f"/>
          <path id="Trazado_875355" data-name="Trazado 875355" d="M56.33,29.237,32.04,43.262v3.457L56.33,32.692Z" transform="translate(11.158 10.182)" fill="#c96a1c"/>
          <path id="Trazado_875356" data-name="Trazado 875356" d="M31.479,42.784l.755.433V39.761l-.755-.471Z" transform="translate(10.962 13.683)" fill="#d87923"/>
          <path id="Trazado_875357" data-name="Trazado 875357" d="M65.435,34.439,41.215,48.434l.755.475L66.262,34.882Z" transform="translate(14.353 11.994)" fill="#ed8e2f"/>
          <path id="Trazado_875358" data-name="Trazado 875358" d="M66.066,34.766,41.776,48.791v3.457l24.29-14.027Z" transform="translate(14.548 12.108)" fill="#c96a1c"/>
          <path id="Trazado_875359" data-name="Trazado 875359" d="M41.215,48.313l.756.434V45.29l-.756-.471Z" transform="translate(14.353 15.609)" fill="#d87923"/>
          <path id="Trazado_875360" data-name="Trazado 875360" d="M59.272,54.632,31.479,38.586V39.7L59.272,55.75Z" transform="translate(10.962 13.438)" fill="#d87923"/>
          <path id="Trazado_875361" data-name="Trazado 875361" d="M62.185,53.424l-2.914,1.629L31.479,39.006l2.9-1.629Z" transform="translate(10.962 13.017)" fill="#ed8e2f"/>
          <path id="Trazado_875362" data-name="Trazado 875362" d="M55.007,49.279l-2.914,1.629v2.083l2.914-1.7Z" transform="translate(18.141 17.162)" fill="#c96a1c"/>
          <path id="Trazado_875363" data-name="Trazado 875363" d="M63.312,52.281,35.442,36.165v1.118L63.312,53.4Z" transform="translate(12.342 12.595)" fill="#d87923"/>
          <path id="Trazado_875364" data-name="Trazado 875364" d="M66.226,51.072,63.312,52.7,35.442,36.587l2.9-1.629Z" transform="translate(12.342 12.175)" fill="#ed8e2f"/>
          <path id="Trazado_875365" data-name="Trazado 875365" d="M59.027,46.91l-2.914,1.629v2.083l2.914-1.7Z" transform="translate(19.541 16.337)" fill="#c96a1c"/>
          <path id="Trazado_875366" data-name="Trazado 875366" d="M67.445,49.957,39.51,33.808v1.118L67.445,51.075Z" transform="translate(13.759 11.774)" fill="#d87923"/>
          <path id="Trazado_875367" data-name="Trazado 875367" d="M70.359,48.749l-2.914,1.629L39.51,34.228l2.9-1.627Z" transform="translate(13.759 11.354)" fill="#ed8e2f"/>
          <path id="Trazado_875368" data-name="Trazado 875368" d="M63.143,44.578,60.23,46.206v2.083l2.914-1.7Z" transform="translate(20.975 15.525)" fill="#c96a1c"/>
          <path id="Trazado_875369" data-name="Trazado 875369" d="M71.449,47.562,43.578,31.515v1.118L71.449,48.679Z" transform="translate(15.176 10.976)" fill="#d87923"/>
          <path id="Trazado_875370" data-name="Trazado 875370" d="M74.363,46.353l-2.914,1.629L43.578,31.935l2.9-1.629Z" transform="translate(15.176 10.555)" fill="#ed8e2f"/>
          <path id="Trazado_875371" data-name="Trazado 875371" d="M67.164,42.209,64.25,43.837V45.92l2.914-1.7Z" transform="translate(22.375 14.7)" fill="#c96a1c"/>
          <path id="Trazado_875372" data-name="Trazado 875372" d="M75.165,45.5,47.227,29.385V30.5L75.165,46.62Z" transform="translate(16.446 10.234)" fill="#d87923"/>
          <path id="Trazado_875373" data-name="Trazado 875373" d="M78.078,44.294l-2.914,1.629L47.227,29.806l2.9-1.629Z" transform="translate(16.446 9.813)" fill="#ed8e2f"/>
          <path id="Trazado_875374" data-name="Trazado 875374" d="M70.862,40.131,67.949,41.76v2.083l2.914-1.7Z" transform="translate(23.663 13.976)" fill="#c96a1c"/>
          <path id="Trazado_875375" data-name="Trazado 875375" d="M51.81,40.414l0-6.264,8.952-5.16v6.268Z" transform="translate(18.041 10.096)" fill="#dba763"/>
          <path id="Trazado_875376" data-name="Trazado 875376" d="M54.488,40.631l0-6.264-10.367-6v6.265Z" transform="translate(15.364 9.879)" fill="#e8b679"/>
          <path id="Trazado_875377" data-name="Trazado 875377" d="M44.118,29.7l10.367,6,8.951-5.16-10.386-6Z" transform="translate(15.364 8.545)" fill="#ffe1c0"/>
          <path id="Trazado_875378" data-name="Trazado 875378" d="M52.365,37.285v-.646l3.371-1.955v.655Z" transform="translate(18.236 12.079)" fill="#4d4d4d"/>
          <path id="Trazado_875379" data-name="Trazado 875379" d="M52.365,36.428v-.646l3.371-1.955v.655Z" transform="translate(18.236 11.781)" fill="#4d4d4d"/>
          <path id="Trazado_875380" data-name="Trazado 875380" d="M46.862,30.955v2.914L44.85,32.707V29.793Z" transform="translate(15.619 10.376)" fill="#4d4d4d"/>
          <path id="Trazado_875381" data-name="Trazado 875381" d="M48.842,31.849V35.3l-4.18-2.416V29.444Z" transform="translate(15.553 10.254)" fill="#fff"/>
          <path id="Trazado_875382" data-name="Trazado 875382" d="M48.09,32.471v-.646l-3.082-1.777v.635Z" transform="translate(15.674 10.465)" fill="#4d4d4d"/>
          <path id="Trazado_875383" data-name="Trazado 875383" d="M57.1,30.092,54.8,31.43v3.3l2.3-1.337Z" transform="translate(19.084 10.48)" fill="#4d4d4d"/>
          <path id="Trazado_875384" data-name="Trazado 875384" d="M59.784,31.638,49.422,25.652l-2.315,1.332,10.373,6Z" transform="translate(16.404 8.934)" fill="#6d6d6d"/>
          <path id="Trazado_875385" data-name="Trazado 875385" d="M41.807,46.163l0-6.264,8.952-5.16v6.268Z" transform="translate(14.558 12.098)" fill="#dba763"/>
          <path id="Trazado_875386" data-name="Trazado 875386" d="M44.485,46.38l0-6.264-10.367-6v6.265Z" transform="translate(11.88 11.881)" fill="#e8b679"/>
          <path id="Trazado_875387" data-name="Trazado 875387" d="M34.115,35.45l10.367,6,8.951-5.16-10.386-6Z" transform="translate(11.88 10.547)" fill="#ffe1c0"/>
          <path id="Trazado_875388" data-name="Trazado 875388" d="M42.361,43.034v-.646l3.371-1.955v.655Z" transform="translate(14.752 14.081)" fill="#4d4d4d"/>
          <path id="Trazado_875389" data-name="Trazado 875389" d="M42.361,42.177v-.646l3.371-1.955v.655Z" transform="translate(14.752 13.783)" fill="#4d4d4d"/>
          <path id="Trazado_875390" data-name="Trazado 875390" d="M36.858,36.7v2.914l-2.012-1.162V35.542Z" transform="translate(12.135 12.378)" fill="#4d4d4d"/>
          <path id="Trazado_875391" data-name="Trazado 875391" d="M38.839,37.6v3.449l-4.18-2.416V35.193Z" transform="translate(12.07 12.256)" fill="#fff"/>
          <path id="Trazado_875392" data-name="Trazado 875392" d="M38.086,38.22v-.646L35,35.8v.635Z" transform="translate(12.19 12.467)" fill="#4d4d4d"/>
          <path id="Trazado_875393" data-name="Trazado 875393" d="M47.1,35.841l-2.3,1.339v3.3l2.3-1.337Z" transform="translate(15.6 12.482)" fill="#4d4d4d"/>
          <path id="Trazado_875394" data-name="Trazado 875394" d="M49.781,37.387,39.418,31.4,37.1,32.733l10.373,6Z" transform="translate(12.921 10.936)" fill="#6d6d6d"/>
          <path id="Trazado_875395" data-name="Trazado 875395" d="M61.59,46.11l0-6.264,8.951-5.16v6.268Z" transform="translate(21.447 12.08)" fill="#dba763"/>
          <path id="Trazado_875396" data-name="Trazado 875396" d="M64.267,46.327l0-6.264-10.367-6v6.265Z" transform="translate(18.769 11.863)" fill="#e8b679"/>
          <path id="Trazado_875397" data-name="Trazado 875397" d="M53.9,35.4l10.367,6,8.951-5.16-10.386-6Z" transform="translate(18.769 10.529)" fill="#ffe1c0"/>
          <path id="Trazado_875398" data-name="Trazado 875398" d="M62.144,42.981v-.646l3.371-1.955v.655Z" transform="translate(21.641 14.063)" fill="#4d4d4d"/>
          <path id="Trazado_875399" data-name="Trazado 875399" d="M62.144,42.124v-.646l3.371-1.955v.655Z" transform="translate(21.641 13.765)" fill="#4d4d4d"/>
          <path id="Trazado_875400" data-name="Trazado 875400" d="M56.641,36.652v2.914L54.629,38.4V35.49Z" transform="translate(19.024 12.36)" fill="#4d4d4d"/>
          <path id="Trazado_875401" data-name="Trazado 875401" d="M58.621,37.546v3.449l-4.18-2.416V35.141Z" transform="translate(18.959 12.238)" fill="#fff"/>
          <path id="Trazado_875402" data-name="Trazado 875402" d="M57.869,38.167v-.646l-3.082-1.777v.635Z" transform="translate(19.079 12.448)" fill="#4d4d4d"/>
          <path id="Trazado_875403" data-name="Trazado 875403" d="M66.884,35.788l-2.3,1.339v3.3l2.3-1.337Z" transform="translate(22.489 12.464)" fill="#4d4d4d"/>
          <path id="Trazado_875404" data-name="Trazado 875404" d="M69.563,37.334,59.2,31.348,56.886,32.68l10.373,6Z" transform="translate(19.81 10.917)" fill="#6d6d6d"/>
          <path id="Trazado_875405" data-name="Trazado 875405" d="M51.586,51.859l0-6.264,8.952-5.16V46.7Z" transform="translate(17.963 14.082)" fill="#dba763"/>
          <path id="Trazado_875406" data-name="Trazado 875406" d="M54.264,52.076l0-6.264-10.365-6v6.265Z" transform="translate(15.286 13.865)" fill="#e8b679"/>
          <path id="Trazado_875407" data-name="Trazado 875407" d="M43.894,41.147l10.367,6,8.951-5.16-10.385-6Z" transform="translate(15.286 12.531)" fill="#ffe1c0"/>
          <path id="Trazado_875408" data-name="Trazado 875408" d="M52.141,48.73v-.646l3.371-1.955v.655Z" transform="translate(18.157 16.065)" fill="#4d4d4d"/>
          <path id="Trazado_875409" data-name="Trazado 875409" d="M52.141,47.873v-.646l3.371-1.955v.655Z" transform="translate(18.157 15.767)" fill="#4d4d4d"/>
          <path id="Trazado_875410" data-name="Trazado 875410" d="M46.638,42.4v2.914l-2.012-1.162V41.239Z" transform="translate(15.541 14.362)" fill="#4d4d4d"/>
          <path id="Trazado_875411" data-name="Trazado 875411" d="M48.618,43.295v3.449l-4.18-2.416V40.89Z" transform="translate(15.475 14.24)" fill="#fff"/>
          <path id="Trazado_875412" data-name="Trazado 875412" d="M47.865,43.916V43.27l-3.082-1.777v.635Z" transform="translate(15.595 14.451)" fill="#4d4d4d"/>
          <path id="Trazado_875413" data-name="Trazado 875413" d="M56.881,41.537l-2.3,1.339v3.3l2.3-1.337Z" transform="translate(19.006 14.466)" fill="#4d4d4d"/>
          <path id="Trazado_875414" data-name="Trazado 875414" d="M59.56,43.083,49.2,37.1l-2.315,1.332,10.373,6Z" transform="translate(16.326 12.92)" fill="#6d6d6d"/>
          <path id="Trazado_875415" data-name="Trazado 875415" d="M51.81,35.306l0-6.264,8.952-5.16V30.15Z" transform="translate(18.041 8.318)" fill="#dba763"/>
          <path id="Trazado_875416" data-name="Trazado 875416" d="M54.488,35.523l0-6.264-10.367-6v6.265Z" transform="translate(15.364 8.101)" fill="#e8b679"/>
          <path id="Trazado_875417" data-name="Trazado 875417" d="M44.118,24.594l10.367,6,8.951-5.16-10.386-6Z" transform="translate(15.364 6.767)" fill="#ffe1c0"/>
          <path id="Trazado_875418" data-name="Trazado 875418" d="M52.365,32.177v-.646l3.371-1.955v.655Z" transform="translate(18.236 10.3)" fill="#4d4d4d"/>
          <path id="Trazado_875419" data-name="Trazado 875419" d="M52.365,31.32v-.646l3.371-1.955v.655Z" transform="translate(18.236 10.002)" fill="#4d4d4d"/>
          <path id="Trazado_875420" data-name="Trazado 875420" d="M46.862,25.848v2.914L44.85,27.6V24.686Z" transform="translate(15.619 8.597)" fill="#4d4d4d"/>
          <path id="Trazado_875421" data-name="Trazado 875421" d="M48.842,26.742V30.19l-4.18-2.416V24.336Z" transform="translate(15.553 8.476)" fill="#fff"/>
          <path id="Trazado_875422" data-name="Trazado 875422" d="M48.09,27.363v-.646L45.008,24.94v.635Z" transform="translate(15.674 8.686)" fill="#4d4d4d"/>
          <path id="Trazado_875423" data-name="Trazado 875423" d="M57.1,24.984l-2.3,1.339v3.3l2.3-1.337Z" transform="translate(19.084 8.701)" fill="#4d4d4d"/>
          <path id="Trazado_875424" data-name="Trazado 875424" d="M59.784,26.53,49.422,20.544l-2.315,1.332,10.373,6Z" transform="translate(16.404 7.155)" fill="#6d6d6d"/>
          <path id="Trazado_875425" data-name="Trazado 875425" d="M41.807,41.055l0-6.264,8.952-5.16V35.9Z" transform="translate(14.558 10.32)" fill="#dba763"/>
          <path id="Trazado_875426" data-name="Trazado 875426" d="M44.485,41.272l0-6.264-10.367-6v6.265Z" transform="translate(11.88 10.103)" fill="#e8b679"/>
          <path id="Trazado_875427" data-name="Trazado 875427" d="M34.115,30.343l10.367,6,8.951-5.16-10.386-6Z" transform="translate(11.88 8.769)" fill="#ffe1c0"/>
          <path id="Trazado_875428" data-name="Trazado 875428" d="M42.361,37.926V37.28l3.371-1.955v.655Z" transform="translate(14.752 12.302)" fill="#4d4d4d"/>
          <path id="Trazado_875429" data-name="Trazado 875429" d="M42.361,37.069v-.646l3.371-1.955v.655Z" transform="translate(14.752 12.004)" fill="#4d4d4d"/>
          <path id="Trazado_875430" data-name="Trazado 875430" d="M36.858,31.6V34.51l-2.012-1.162V30.435Z" transform="translate(12.135 10.599)" fill="#4d4d4d"/>
          <path id="Trazado_875431" data-name="Trazado 875431" d="M38.839,32.491v3.449l-4.18-2.416V30.085Z" transform="translate(12.07 10.478)" fill="#fff"/>
          <path id="Trazado_875432" data-name="Trazado 875432" d="M38.086,33.112v-.646L35,30.689v.635Z" transform="translate(12.19 10.688)" fill="#4d4d4d"/>
          <path id="Trazado_875433" data-name="Trazado 875433" d="M47.1,30.733l-2.3,1.339v3.3l2.3-1.337Z" transform="translate(15.6 10.703)" fill="#4d4d4d"/>
          <path id="Trazado_875434" data-name="Trazado 875434" d="M49.781,32.279,39.418,26.293,37.1,27.625l10.373,6Z" transform="translate(12.921 9.157)" fill="#6d6d6d"/>
          <path id="Trazado_875435" data-name="Trazado 875435" d="M61.59,41l0-6.264,8.951-5.16v6.268Z" transform="translate(21.447 10.301)" fill="#dba763"/>
          <path id="Trazado_875436" data-name="Trazado 875436" d="M64.267,41.219l0-6.264-10.367-6v6.265Z" transform="translate(18.769 10.084)" fill="#e8b679"/>
          <path id="Trazado_875437" data-name="Trazado 875437" d="M53.9,30.29l10.367,6,8.951-5.16-10.386-6Z" transform="translate(18.769 8.75)" fill="#ffe1c0"/>
          <path id="Trazado_875438" data-name="Trazado 875438" d="M62.144,37.873v-.646l3.371-1.955v.655Z" transform="translate(21.641 12.284)" fill="#4d4d4d"/>
          <path id="Trazado_875439" data-name="Trazado 875439" d="M62.144,37.017v-.646l3.371-1.955v.655Z" transform="translate(21.641 11.986)" fill="#4d4d4d"/>
          <path id="Trazado_875440" data-name="Trazado 875440" d="M56.641,31.544v2.914L54.629,33.3V30.382Z" transform="translate(19.024 10.581)" fill="#4d4d4d"/>
          <path id="Trazado_875441" data-name="Trazado 875441" d="M58.621,32.438v3.449l-4.18-2.416V30.033Z" transform="translate(18.959 10.459)" fill="#fff"/>
          <path id="Trazado_875442" data-name="Trazado 875442" d="M57.869,33.059v-.646l-3.082-1.777v.635Z" transform="translate(19.079 10.67)" fill="#4d4d4d"/>
          <path id="Trazado_875443" data-name="Trazado 875443" d="M66.884,30.68l-2.3,1.339v3.3l2.3-1.337Z" transform="translate(22.489 10.685)" fill="#4d4d4d"/>
          <path id="Trazado_875444" data-name="Trazado 875444" d="M69.563,32.227,59.2,26.24l-2.315,1.332,10.373,6Z" transform="translate(19.81 9.139)" fill="#6d6d6d"/>
          <path id="Trazado_875445" data-name="Trazado 875445" d="M51.586,46.752l0-6.264,8.952-5.161V41.6Z" transform="translate(17.963 12.303)" fill="#dba763"/>
          <path id="Trazado_875446" data-name="Trazado 875446" d="M54.264,46.968l0-6.264-10.365-6V40.97Z" transform="translate(15.286 12.086)" fill="#e8b679"/>
          <path id="Trazado_875447" data-name="Trazado 875447" d="M43.894,36.039l10.367,6,8.951-5.16-10.385-6Z" transform="translate(15.286 10.752)" fill="#ffe1c0"/>
          <path id="Trazado_875448" data-name="Trazado 875448" d="M52.141,43.622v-.646l3.371-1.955v.655Z" transform="translate(18.157 14.286)" fill="#4d4d4d"/>
          <path id="Trazado_875449" data-name="Trazado 875449" d="M52.141,42.766V42.12l3.371-1.955v.655Z" transform="translate(18.157 13.988)" fill="#4d4d4d"/>
          <path id="Trazado_875450" data-name="Trazado 875450" d="M46.638,37.293v2.914l-2.012-1.162V36.131Z" transform="translate(15.541 12.583)" fill="#4d4d4d"/>
          <path id="Trazado_875451" data-name="Trazado 875451" d="M48.618,38.187v3.449l-4.18-2.416V35.782Z" transform="translate(15.475 12.462)" fill="#fff"/>
          <path id="Trazado_875452" data-name="Trazado 875452" d="M47.865,38.808v-.646l-3.082-1.777v.635Z" transform="translate(15.595 12.672)" fill="#4d4d4d"/>
          <path id="Trazado_875453" data-name="Trazado 875453" d="M56.881,36.429l-2.3,1.339v3.3l2.3-1.337Z" transform="translate(19.006 12.687)" fill="#4d4d4d"/>
          <path id="Trazado_875454" data-name="Trazado 875454" d="M59.56,37.976,49.2,31.989l-2.315,1.332,10.373,6Z" transform="translate(16.326 11.141)" fill="#6d6d6d"/>
          <path id="Trazado_875455" data-name="Trazado 875455" d="M52.477,137.9l1.521.876V45.91l-1.522-.878Z" transform="translate(18.275 15.683)" fill="#3a3a3a"/>
          <path id="Trazado_875456" data-name="Trazado 875456" d="M53.6,45.958v92.868l1.838-1.046V44.9Z" transform="translate(18.667 15.635)" fill="#4d4d4d"/>
          <path id="Trazado_875457" data-name="Trazado 875457" d="M78,124.957V32.089L76.48,31.21v92.871Z" transform="translate(26.634 10.869)" fill="#3a3a3a"/>
          <path id="Trazado_875458" data-name="Trazado 875458" d="M77.608,32.137v92.868l1.839-1.046V31.076Z" transform="translate(27.026 10.823)" fill="#4d4d4d"/>
          <path id="Trazado_875459" data-name="Trazado 875459" d="M52.477,45.3,54,46.183l1.838-1.061-1.524-.874Z" transform="translate(18.275 15.41)" fill="#a3a3a3"/>
          <path id="Trazado_875460" data-name="Trazado 875460" d="M76.481,31.483,78,32.362,79.838,31.3l-1.522-.874Z" transform="translate(26.634 10.597)" fill="#a3a3a3"/>
          <path id="Trazado_875461" data-name="Trazado 875461" d="M54.2,81.015l31.556,25.076L87,104.851,54.781,79.174Z" transform="translate(18.876 27.572)" fill="#4d4d4d"/>
          <path id="Trazado_875462" data-name="Trazado 875462" d="M54.39,127.237l.293,1.776L86.429,67.3l-.735-1.077Z" transform="translate(18.941 23.062)" fill="#4d4d4d"/>
          <path id="Trazado_875463" data-name="Trazado 875463" d="M54.2,48.547,85.758,73.624,87,72.382,54.781,46.705Z" transform="translate(18.876 16.265)" fill="#4d4d4d"/>
          <path id="Trazado_875464" data-name="Trazado 875464" d="M54.39,94.77l.293,1.774L86.429,34.831l-.735-1.079Z" transform="translate(18.941 11.755)" fill="#4d4d4d"/>
        </g>
        <g id="Grupo_1099594" data-name="Grupo 1099594" transform="translate(0 56.412)">
          <g id="Grupo_1099593" data-name="Grupo 1099593" transform="translate(0 0)" clip-path="url(#clip-path)">
            <path id="Trazado_875465" data-name="Trazado 875465" d="M30.215,48.456s-.908.987-2.121,2.17c-1.122,1.095-1.471,1.41-2.512,2.425-.609.594-.107,1.14,1.053,1.095a20.8,20.8,0,0,0,4.618-1,23.494,23.494,0,0,0,3.458-1.8,2.287,2.287,0,0,0,1.026-1.3V48.222Z" transform="translate(12.45 23.71)" fill="#4d4d4d"/>
            <path id="Trazado_875466" data-name="Trazado 875466" d="M41.172,47.642a15.206,15.206,0,0,1-1.793,2.03,19.793,19.793,0,0,0-2.448,2.834c-.227.3-.359,1.15.8,1.105a15.347,15.347,0,0,0,3.863-.934c1.475-.525,2.721-2.011,3.58-2.555a3.61,3.61,0,0,0,1.237-1.742l-.594-1.8Z" transform="translate(18.084 22.903)" fill="#4d4d4d"/>
            <path id="Trazado_875467" data-name="Trazado 875467" d="M45.1,31.076c.43-6.7-3.264-10.22-3.264-10.22.294-2.257-10.176.9-10.176.9S29.417,33.893,28.47,40.282c-1.076,7.263-.424,22.053-.424,22.053s.136,1.578,2.84,1.568a5.377,5.377,0,0,0,3.607-1.826l.215-16.832,2.4-11.937s2.315,9.7,3.049,13.182c.78,3.7,3.774,14.662,3.774,14.662s1.936,2.226,4.341,1.023,1.932-2.546,1.932-2.546A48.54,48.54,0,0,0,46.645,44.9C46.388,39.62,44.9,34.151,45.1,31.076" transform="translate(13.694 9.855)" fill="#5d588d"/>
            <path id="Trazado_875468" data-name="Trazado 875468" d="M33.364,9.4s-1.5-.075-3.043,2.831-3.024,6-3.024,6A9.75,9.75,0,0,1,32,20.806c3.349-3.027,3.9-9.988,1.368-11.4" transform="translate(13.422 4.623)" fill="#d1406b"/>
            <path id="Trazado_875469" data-name="Trazado 875469" d="M32.076,9.739a23.791,23.791,0,0,0-1.616,4.577c-.773,2.964-.5,16.74-.5,16.74A13.663,13.663,0,0,0,38.5,32.869a7.247,7.247,0,0,0,4.8-2.23s1.9-13.491,1.642-15.423-4.3-6.472-4.3-6.472-5.346-.271-8.565.995" transform="translate(14.71 4.287)" fill="#fc6181"/>
            <path id="Trazado_875470" data-name="Trazado 875470" d="M34.021,9.146,33.4,12.764s1.842,2.067,3.646.521a7.282,7.282,0,0,0,2.062-2.255l-.889-4.935Z" transform="translate(16.423 2.997)" fill="#ffad97"/>
            <path id="Trazado_875471" data-name="Trazado 875471" d="M37.775,2.722a4.177,4.177,0,0,0-6.519,2.22c-1.4,3.953,2.181,8.889,4.086,8.051a8.008,8.008,0,0,0,3.944-4.219c.712-2.343-.315-5.14-1.511-6.052" transform="translate(15.213 0.94)" fill="#ffc5b3"/>
            <path id="Trazado_875472" data-name="Trazado 875472" d="M31.1,6.573a3.528,3.528,0,0,0,3.471,1.052,7.674,7.674,0,0,0,2.685-.988s1.2.806,1.653,1.052c.515.28.537,1.46.537,1.46a4.5,4.5,0,0,0,.489-3.65C39.608,4.029,38.162.9,35.39,1.163a5.111,5.111,0,0,0-4.727,3.676A1.948,1.948,0,0,0,31.1,6.573" transform="translate(15.053 0.564)" fill="#4d4d4d"/>
            <path id="Trazado_875473" data-name="Trazado 875473" d="M34.53,17.288s2.351-3.537,4.211-4.529a11.562,11.562,0,0,1,3.273-1.216s-.823-1.36-1.277-1.522a9.593,9.593,0,0,0-3.237,1.2,12.613,12.613,0,0,0-4.238,4.265c-1.472,2.6.189,3.3,1.268,1.8" transform="translate(16.069 4.927)" fill="#5d588d"/>
            <path id="Trazado_875474" data-name="Trazado 875474" d="M31.732,9.572a23.4,23.4,0,0,0-1.477,4.814c-.183,1.756.167,2.3.873,2.357s.746-1.19.955-2.588c.2-1.32,1.31-5.051,1.31-5.051Z" transform="translate(14.852 4.476)" fill="#5d588d"/>
            <path id="Trazado_875475" data-name="Trazado 875475" d="M44.031,26.612S41.7,28.23,40,28.045c-1.489-.164-3.634-1.613-3.519-6.323a44.736,44.736,0,0,1,.55-6.881l-5.694-2.5s-1.547,3.579-1.851,10.6-.434,9.441-.434,9.441a77.486,77.486,0,0,0,9.671,0,18.973,18.973,0,0,0,5.583-1.3Z" transform="translate(14.286 6.07)" fill="#5d588d"/>
            <path id="Trazado_875476" data-name="Trazado 875476" d="M31.244,13.383c0,.289-.161.524-.361.524s-.359-.234-.359-.524.161-.524.359-.524.361.234.361.524" transform="translate(15.008 6.322)" fill="#fff"/>
            <path id="Trazado_875477" data-name="Trazado 875477" d="M33.337,14.364c-.169.234-.175.519-.012.635s.428.019.6-.215.175-.519.013-.635-.43-.019-.6.215" transform="translate(16.328 6.933)" fill="#fff"/>
            <path id="Trazado_875478" data-name="Trazado 875478" d="M30.286,14.736c-.233,1.178-.115,4.884,1.985,5.442,1.9.506,2.4-1.739,2.836-3.474a19.063,19.063,0,0,1-4.821-1.968" transform="translate(14.85 7.245)" fill="#7c76ac"/>
            <path id="Trazado_875479" data-name="Trazado 875479" d="M37.762,17.793a25.542,25.542,0,0,1-1.971,3.941c-.588.834-4.092,3.2-5.46,4.287a5.436,5.436,0,0,1,1.677,2.069,33.909,33.909,0,0,0,5.819-3.073c1.38-.976,3.99-4.778,3.99-4.778s-1.2-3.052-4.056-2.446" transform="translate(14.914 8.709)" fill="#ffc5b3"/>
            <path id="Trazado_875480" data-name="Trazado 875480" d="M41.89,12.013c-1.134-.914-3.561,2.181-4.849,4.113a26.569,26.569,0,0,0-2.32,4.824s1.551,1.128,2.94,2a22.586,22.586,0,0,0,2.4,1.29s5.724-9.1,1.833-12.23" transform="translate(17.072 5.825)" fill="#d1406b"/>
            <path id="Trazado_875481" data-name="Trazado 875481" d="M38.477,2.777c2.241.889,2.73,2.658,1.093,3.954a7.841,7.841,0,0,1-7.018.737c-2.241-.889-2.73-2.66-1.093-3.954a7.836,7.836,0,0,1,7.018-.737" transform="translate(14.992 1.12)" fill="#ffba76"/>
            <path id="Trazado_875482" data-name="Trazado 875482" d="M30.527,6.562S29.577.807,34.557.074c5.806-.853,5.991,5.961,5.991,5.961Z" transform="translate(14.974 0)" fill="#ffba76"/>
            <path id="Trazado_875483" data-name="Trazado 875483" d="M30.764,3.829s-2.421,2.264.515,3.531c4.975,2.147,9.046-1.8,9.046-1.8s-5.287,1.26-7.97.084c-1.817-.8-1.59-1.815-1.59-1.815" transform="translate(14.665 1.882)" fill="#ffa543"/>
            <path id="Trazado_875484" data-name="Trazado 875484" d="M34.276.4a3.535,3.535,0,0,0-1.535,2.038,2.074,2.074,0,0,0,.99,2.722,6.49,6.49,0,0,1,1.8,1.692,2.374,2.374,0,0,0-.767-1.985c-.925-.773-1.787-1.172-1.256-2.428A4.607,4.607,0,0,1,36.3.318s-.728-.68-2.024.078" transform="translate(16.008 0.018)" fill="#ffa543"/>
            <path id="Trazado_875485" data-name="Trazado 875485" d="M34.609.05a4.826,4.826,0,0,0-2,1.459c-.273.431-.258,1.912-.515,2.281a14.96,14.96,0,0,1-1.592,1.434s-.4-.374.1-1.052,1.107-.734,1.162-1.744C31.8,1.751,31.457.247,34.609.05" transform="translate(14.924 0.024)" fill="#ffa543"/>
            <rect id="Rect치ngulo_401460" data-name="Rect치ngulo 401460" width="1.005" height="25.93" transform="translate(40.21 43.807)" fill="#4d4d4d"/>
            <rect id="Rect치ngulo_401461" data-name="Rect치ngulo 401461" width="1.709" height="25.93" transform="translate(38.501 43.807)" fill="#3a3a3a"/>
            <path id="Trazado_875486" data-name="Trazado 875486" d="M28.63,33.179c-.079-.019-.158-.042-.239-.07a2.667,2.667,0,0,1-1.465-1.347l-2.769-5.637a2.323,2.323,0,0,1,.212-2.572,1.859,1.859,0,0,1,2.348-.325l6.059,3.247a2.746,2.746,0,0,1,1.392,1.984,2.056,2.056,0,0,1-.746,2.051L30.132,32.9a1.825,1.825,0,0,1-1.5.279m-.613-1.917a1.091,1.091,0,0,0,.6.553.761.761,0,0,0,.715-.087l3.291-2.388a.844.844,0,0,0,.306-.843,1.126,1.126,0,0,0-.571-.814L26.3,24.437a.745.745,0,0,0-.964.134.922.922,0,0,0-.088,1.056Z" transform="translate(11.738 11.288)" fill="#4d4d4d"/>
            <path id="Trazado_875487" data-name="Trazado 875487" d="M27.394,30.353l1.087-.609v-.271l-1.393.667Z" transform="translate(13.319 14.492)" fill="#4d4d4d"/>
            <path id="Trazado_875488" data-name="Trazado 875488" d="M23.984,23.563l.843-.473.182.2-.732.729Z" transform="translate(11.793 11.353)" fill="#4d4d4d"/>
            <path id="Trazado_875489" data-name="Trazado 875489" d="M28.052,33.5c-.079-.019-.158-.042-.239-.07a2.667,2.667,0,0,1-1.465-1.347L23.58,26.45a2.323,2.323,0,0,1,.212-2.572,1.859,1.859,0,0,1,2.348-.325L32.2,26.8a2.736,2.736,0,0,1,1.392,1.984,2.054,2.054,0,0,1-.746,2.051l-3.291,2.39a1.825,1.825,0,0,1-1.5.279m-.613-1.917a1.091,1.091,0,0,0,.6.553.761.761,0,0,0,.715-.087l3.291-2.388a.844.844,0,0,0,.306-.843,1.126,1.126,0,0,0-.571-.814l-6.059-3.246a.744.744,0,0,0-.964.133.922.922,0,0,0-.088,1.056Z" transform="translate(11.454 11.447)" fill="#3a3a3a"/>
            <path id="Trazado_875490" data-name="Trazado 875490" d="M43.02,54.957l-28.812,16.7A5.811,5.811,0,0,1,9,71.885c-1.332-.765-1.167-2.12.368-3.009L38.19,52.166Z" transform="translate(3.981 25.649)" fill="#4d4d4d"/>
            <path id="Trazado_875491" data-name="Trazado 875491" d="M32.346,53.315v1.256l-2.117.412-.422-2.032Z" transform="translate(14.656 26.035)" fill="#4d4d4d"/>
            <path id="Trazado_875492" data-name="Trazado 875492" d="M8.1,63.662v1.271l.477.558.233-1.514Z" transform="translate(3.982 31.302)" fill="#4d4d4d"/>
            <path id="Trazado_875493" data-name="Trazado 875493" d="M43.02,54.115l-28.812,16.7A5.806,5.806,0,0,1,9,71.043c-1.332-.765-1.167-2.12.368-3.009L38.19,51.324Z" transform="translate(3.981 25.235)" fill="#707070"/>
            <path id="Trazado_875494" data-name="Trazado 875494" d="M12.8,63.214c.079.492-.543,1-1.39,1.14s-1.6-.152-1.68-.644.543-1,1.392-1.14,1.6.152,1.678.644" transform="translate(4.781 30.748)" fill="#ffba76"/>
            <path id="Trazado_875495" data-name="Trazado 875495" d="M12.541,63.04c.072.44-.486.9-1.244,1.019s-1.431-.136-1.5-.576.485-.9,1.243-1.019,1.431.136,1.5.576" transform="translate(4.814 30.698)" fill="#ffa543"/>
            <path id="Trazado_875496" data-name="Trazado 875496" d="M34.922,50.284,6.11,66.986a5.816,5.816,0,0,1-5.21.225c-1.332-.765-1.165-2.12.368-3.009l28.824-16.71Z" transform="translate(0 23.352)" fill="#4d4d4d"/>
            <path id="Trazado_875497" data-name="Trazado 875497" d="M24.248,48.641V49.9l-2.117.412-.422-2.03Z" transform="translate(10.674 23.738)" fill="#4d4d4d"/>
            <path id="Trazado_875498" data-name="Trazado 875498" d="M0,58.989V60.26l.477.558L.71,59.3Z" transform="translate(0 29.004)" fill="#4d4d4d"/>
            <path id="Trazado_875499" data-name="Trazado 875499" d="M34.922,49.442,6.11,66.144A5.811,5.811,0,0,1,.9,66.37c-1.332-.765-1.165-2.12.368-3.009l28.824-16.71Z" transform="translate(0 22.938)" fill="#707070"/>
            <path id="Trazado_875500" data-name="Trazado 875500" d="M4.7,58.541c.079.492-.543,1-1.392,1.14s-1.6-.152-1.678-.644.543-1,1.392-1.14,1.6.152,1.678.644" transform="translate(0.8 28.451)" fill="#ffba76"/>
            <path id="Trazado_875501" data-name="Trazado 875501" d="M4.444,58.367c.072.44-.486.9-1.244,1.019S1.77,59.25,1.7,58.81s.486-.9,1.244-1.019,1.431.136,1.5.576" transform="translate(0.832 28.4)" fill="#ffa543"/>
            <path id="Trazado_875502" data-name="Trazado 875502" d="M18.929,50.505,22.539,41l12.435,7.185.858,12.086Z" transform="translate(9.307 20.159)" fill="#ffa543"/>
            <path id="Trazado_875503" data-name="Trazado 875503" d="M30.542,58.25,32.4,57.17l-.9-12.057-1.821,1.05Z" transform="translate(14.596 22.181)" fill="#ffba76"/>
            <path id="Trazado_875504" data-name="Trazado 875504" d="M21.349,41.347l12.435,7.184,1.823-1.052L23.188,40.3Z" transform="translate(10.497 19.813)" fill="#ffa543"/>
            <path id="Trazado_875505" data-name="Trazado 875505" d="M32.664,22.958c-.266.194-.48.34-.607.412a5.268,5.268,0,0,1-2.742.859,1.7,1.7,0,0,0-1.459.489c.207.113.627.3.627.3s-1.441.594-1.395,1.778c.024.6.148.606.588.619.136.239.222.582.776.458.172.106.826.625,1.177.547,1.583-.348,2.684-1.812,3.259-2.352a13.639,13.639,0,0,1,1.783-1.26,4.784,4.784,0,0,0-2.006-1.853" transform="translate(13.319 11.288)" fill="#ffc5b3"/>
            <path id="Trazado_875506" data-name="Trazado 875506" d="M29.4,15.416a47.92,47.92,0,0,0-4.438,8.016c-.328.756-1.272,2.965-1.152,4.045a2.877,2.877,0,0,0,1.172,2.157.409.409,0,0,0,.641-.233,4.308,4.308,0,0,0,.841.312c.286.045.448-.312.448-.312s-.783-1.247-.448-1.672a2.04,2.04,0,0,1,.686-.579l1.058.567s-.764-1.21-.938-1.571a1.59,1.59,0,0,1-.249-.68c-.073-.661,3.234-5.213,3.6-5.664a15.4,15.4,0,0,0,1.868-2.942,11.2,11.2,0,0,0-1.18-.761,4.978,4.978,0,0,0-1.914-.685" transform="translate(11.703 7.58)" fill="#ffc5b3"/>
            <path id="Trazado_875507" data-name="Trazado 875507" d="M16.44,69.006l0-16.755,13.386-7.739V61.248Z" transform="translate(8.081 21.886)" fill="#dba763"/>
            <path id="Trazado_875508" data-name="Trazado 875508" d="M20.853,69.006l0-16.755L7.462,44.512V61.248Z" transform="translate(3.669 21.886)" fill="#e8b679"/>
            <path id="Trazado_875509" data-name="Trazado 875509" d="M8.755,59.3V46.435l-.392-.227V59.584l10.7,6.2v-.512Z" transform="translate(4.112 22.72)" fill="#cc8c46"/>
            <path id="Trazado_875510" data-name="Trazado 875510" d="M18.936,65.2l0-12.879L8.625,46.361V59.225Z" transform="translate(4.241 22.795)" fill="#dba763"/>
            <path id="Trazado_875511" data-name="Trazado 875511" d="M12.925,58.235,15.8,59.9V55.574l-2.873-1.662Z" transform="translate(6.355 26.508)" fill="#fff"/>
            <path id="Trazado_875512" data-name="Trazado 875512" d="M27.646,59.3V46.435l.392-.227V59.584l-10.7,6.2v-.512Z" transform="translate(8.524 22.72)" fill="#bf7e3d"/>
            <path id="Trazado_875513" data-name="Trazado 875513" d="M17.335,65.2l0-12.879,10.308-5.958V59.225Z" transform="translate(8.524 22.795)" fill="#cc8c46"/>
            <path id="Trazado_875514" data-name="Trazado 875514" d="M7.461,47.063,20.848,54.8l13.388-7.739L20.852,39.326Z" transform="translate(3.669 19.336)" fill="#ffe1c0"/>
            <path id="Trazado_875515" data-name="Trazado 875515" d="M30.685,46.807l.443-.257L20.085,40.166,9.033,46.55l.443.257,10.609-6.129Z" transform="translate(4.441 19.749)" fill="#dba763"/>
            <path id="Trazado_875516" data-name="Trazado 875516" d="M30.539,46.638l-10.6-6.129L9.33,46.638l10.6,6.131Z" transform="translate(4.587 19.918)" fill="#e8b679"/>
            <path id="Trazado_875517" data-name="Trazado 875517" d="M22.379,48.759v4.324l2.209-1.278V47.482Z" transform="translate(11.004 23.346)" fill="#4d4d4d"/>
            <path id="Trazado_875518" data-name="Trazado 875518" d="M20.182,50v4.324l2.209-1.278V48.727Z" transform="translate(9.924 23.959)" fill="#4d4d4d"/>
            <path id="Trazado_875519" data-name="Trazado 875519" d="M16.44,57.2l0-16.755L29.822,32.7V49.44Z" transform="translate(8.081 16.08)" fill="#dba763"/>
            <path id="Trazado_875520" data-name="Trazado 875520" d="M20.853,57.2l0-16.755L7.462,32.7V49.44Z" transform="translate(3.669 16.08)" fill="#e8b679"/>
            <path id="Trazado_875521" data-name="Trazado 875521" d="M8.755,47.492V34.628L8.362,34.4V47.777l10.7,6.2v-.512Z" transform="translate(4.112 16.914)" fill="#cc8c46"/>
            <path id="Trazado_875522" data-name="Trazado 875522" d="M18.936,53.39l0-12.879L8.625,34.553V47.417Z" transform="translate(4.241 16.989)" fill="#dba763"/>
            <path id="Trazado_875523" data-name="Trazado 875523" d="M12.925,46.427,15.8,48.092V43.766l-2.873-1.66Z" transform="translate(6.355 20.703)" fill="#fff"/>
            <path id="Trazado_875524" data-name="Trazado 875524" d="M27.646,47.492V34.628l.392-.227V47.777l-10.7,6.2v-.512Z" transform="translate(8.524 16.914)" fill="#bf7e3d"/>
            <path id="Trazado_875525" data-name="Trazado 875525" d="M17.335,53.39l0-12.879,10.308-5.958V47.417Z" transform="translate(8.524 16.989)" fill="#cc8c46"/>
            <path id="Trazado_875526" data-name="Trazado 875526" d="M7.461,35.256l13.386,7.739,13.388-7.739L20.852,27.518Z" transform="translate(3.669 13.53)" fill="#ffe1c0"/>
            <path id="Trazado_875527" data-name="Trazado 875527" d="M30.685,35l.443-.257L20.085,28.358,9.033,34.743,9.476,35,20.085,28.87Z" transform="translate(4.441 13.943)" fill="#dba763"/>
            <path id="Trazado_875528" data-name="Trazado 875528" d="M30.539,34.831,19.939,28.7,9.33,34.831l10.6,6.131Z" transform="translate(4.587 14.112)" fill="#e8b679"/>
            <path id="Trazado_875529" data-name="Trazado 875529" d="M22.379,36.952v4.324L24.588,40V35.675Z" transform="translate(11.004 17.541)" fill="#4d4d4d"/>
            <path id="Trazado_875530" data-name="Trazado 875530" d="M20.182,38.2v4.324l2.209-1.278V36.92Z" transform="translate(9.924 18.153)" fill="#4d4d4d"/>
            <path id="Trazado_875531" data-name="Trazado 875531" d="M16.44,45.325l0-16.755,13.386-7.739V37.567Z" transform="translate(8.081 10.242)" fill="#dba763"/>
            <path id="Trazado_875532" data-name="Trazado 875532" d="M20.853,45.325l0-16.755L7.462,20.831V37.567Z" transform="translate(3.669 10.242)" fill="#e8b679"/>
            <path id="Trazado_875533" data-name="Trazado 875533" d="M8.755,35.618V22.754l-.392-.227V35.9l10.7,6.2v-.512Z" transform="translate(4.112 11.076)" fill="#cc8c46"/>
            <path id="Trazado_875534" data-name="Trazado 875534" d="M18.936,41.517l0-12.879L8.625,22.68V35.544Z" transform="translate(4.241 11.151)" fill="#dba763"/>
            <path id="Trazado_875535" data-name="Trazado 875535" d="M12.925,34.554,15.8,36.218V31.892l-2.873-1.66Z" transform="translate(6.355 14.865)" fill="#fff"/>
            <path id="Trazado_875536" data-name="Trazado 875536" d="M27.646,35.618V22.754l.392-.227V35.9l-10.7,6.2v-.512Z" transform="translate(8.524 11.076)" fill="#bf7e3d"/>
            <path id="Trazado_875537" data-name="Trazado 875537" d="M17.335,41.517l0-12.879L27.646,22.68V35.544Z" transform="translate(8.524 11.151)" fill="#cc8c46"/>
            <path id="Trazado_875538" data-name="Trazado 875538" d="M7.461,23.382l13.386,7.739,13.388-7.739L20.852,15.645Z" transform="translate(3.669 7.692)" fill="#ffe1c0"/>
            <path id="Trazado_875539" data-name="Trazado 875539" d="M30.685,23.126l.443-.257L20.085,16.485,9.033,22.869l.443.257L20.085,17Z" transform="translate(4.441 8.105)" fill="#dba763"/>
            <path id="Trazado_875540" data-name="Trazado 875540" d="M30.539,22.957l-10.6-6.129L9.33,22.957l10.6,6.131Z" transform="translate(4.587 8.274)" fill="#e8b679"/>
            <path id="Trazado_875541" data-name="Trazado 875541" d="M22.379,25.078V29.4l2.209-1.28V23.8Z" transform="translate(11.004 11.703)" fill="#4d4d4d"/>
            <path id="Trazado_875542" data-name="Trazado 875542" d="M20.182,26.323v4.324l2.209-1.278V25.046Z" transform="translate(9.924 12.315)" fill="#4d4d4d"/>
          </g>
        </g>
      </g>
    </g>
  </g>
</svg>
