<svg xmlns="http://www.w3.org/2000/svg" width="50" height="50" viewBox="0 0 50 50">
  <g id="Grupo_1100059" data-name="Grupo 1100059" transform="translate(-215 -8176.261)">
    <g id="factura" transform="translate(215 8175.871)">
      <path id="Trazado_157535" data-name="Trazado 157535" d="M349.336,42.8c.023,0,.046,0,.069,0a.853.853,0,0,0,.118-.009,1.9,1.9,0,0,1,1.866,1.9.852.852,0,0,0,1.7,0,3.613,3.613,0,0,0-2.836-3.524v-.819a.852.852,0,0,0-1.7,0v.858a3.608,3.608,0,0,0,.932,7.093,1.9,1.9,0,1,1-1.9,1.9.852.852,0,1,0-1.7,0,3.614,3.614,0,0,0,2.676,3.485v.934a.852.852,0,0,0,1.7,0v-.895a3.607,3.607,0,0,0-.772-7.131,1.9,1.9,0,0,1-.149-3.8Zm0,0" transform="translate(-311.143 -34.948)" fill="#0d66bf"/>
      <path id="Trazado_157536" data-name="Trazado 157536" d="M38.5.39A11.671,11.671,0,0,0,27.67,8.379H7.564a.871.871,0,0,0-.81.889L6.562,39.116H.831A.814.814,0,0,0,0,39.927v3.788a6.546,6.546,0,0,0,6.076,6.656v.019H31.086v-.025c.2.008.286.025.414.025h.017a6.53,6.53,0,0,0,6.353-6.683V24.556c.2.012.417.018.627.018,6.342,0,11.5-5.431,11.5-12.092S44.841.39,38.5.39ZM6.383,48.689H6.378A4.888,4.888,0,0,1,1.62,43.706V40.818H25.112v2.876a6.848,6.848,0,0,0,1.876,4.73c.085.089.191.158.28.265Zm29.867-4.982a4.867,4.867,0,0,1-4.733,4.982H31.5A4.9,4.9,0,0,1,26.732,43.7V39.927a.807.807,0,0,0-.219-.582.729.729,0,0,0-.554-.229H8.182l.186-29.036H27.22A13.408,13.408,0,0,0,27,12.444a12.515,12.515,0,0,0,.978,4.869H20.324a.852.852,0,0,0,0,1.7h8.53a11.442,11.442,0,0,0,7.4,5.329ZM38.5,22.873a10.138,10.138,0,0,1-9.881-10.379A10.139,10.139,0,0,1,38.5,2.116,10.139,10.139,0,0,1,48.38,12.494,10.15,10.15,0,0,1,38.5,22.873Zm0,0" fill="#0d66bf"/>
      <path id="Trazado_157537" data-name="Trazado 157537" d="M126.489,212.746a2.642,2.642,0,1,0,2.728,2.641A2.688,2.688,0,0,0,126.489,212.746Zm0,3.577a.94.94,0,1,1,1.024-.937A.984.984,0,0,1,126.489,216.323Zm0,0" transform="translate(-111.305 -189.774)" fill="#0d66bf"/>
      <path id="Trazado_157538" data-name="Trazado 157538" d="M192.719,230.356a.852.852,0,0,0,.852.852h11.36a.852.852,0,0,0,0-1.7h-11.36A.852.852,0,0,0,192.719,230.356Zm0,0" transform="translate(-173.539 -204.747)" fill="#0d66bf"/>
      <path id="Trazado_157539" data-name="Trazado 157539" d="M126.489,143.2a2.642,2.642,0,1,0,2.728,2.641A2.688,2.688,0,0,0,126.489,143.2Zm0,3.578a.94.94,0,1,1,1.024-.937.984.984,0,0,1-1.024.937Zm0,0" transform="translate(-111.305 -127.626)" fill="#0d66bf"/>
      <path id="Trazado_157540" data-name="Trazado 157540" d="M126.489,282.281a2.642,2.642,0,1,0,2.728,2.641A2.688,2.688,0,0,0,126.489,282.281Zm0,3.577a.94.94,0,1,1,1.024-.937A.983.983,0,0,1,126.489,285.858Zm0,0" transform="translate(-111.305 -251.915)" fill="#0d66bf"/>
      <path id="Trazado_157541" data-name="Trazado 157541" d="M204.931,299.5h-11.36a.852.852,0,1,0,0,1.7h11.36a.852.852,0,0,0,0-1.7Zm0,0" transform="translate(-173.539 -267.302)" fill="#0d66bf"/>
    </g>
  </g>
</svg>
