<svg xmlns="http://www.w3.org/2000/svg" xmlns:xlink="http://www.w3.org/1999/xlink" width="400" height="244.307" viewBox="0 0 400 244.307">
  <defs>
    <clipPath id="clip-path">
      <rect id="Rectángulo_401083" data-name="Rectángulo 401083" width="400" height="223.422" rx="20" transform="translate(1020 4635.193)" fill="#53bced"/>
    </clipPath>
    <clipPath id="clip-path-2">
      <rect id="Rectángulo_401082" data-name="Rectángulo 401082" width="455.544" height="251.192" fill="none"/>
    </clipPath>
    <clipPath id="clip-path-4">
      <rect id="Rectángulo_401054" data-name="Rectángulo 401054" width="56.148" height="75.166" fill="none"/>
    </clipPath>
    <clipPath id="clip-path-5">
      <rect id="Rectángulo_401055" data-name="Rectángulo 401055" width="67.302" height="65.815" fill="none"/>
    </clipPath>
  </defs>
  <g id="Grupo_1100055" data-name="Grupo 1100055" transform="translate(-1020 -6491.849)">
    <path id="Trazado_876790" data-name="Trazado 876790" d="M20,0H259.5a20,20,0,0,1,20,20V203.422a20,20,0,0,1-20,20H20a20,20,0,0,1-20-20V20A20,20,0,0,1,20,0Z" transform="translate(1020 6491.849)" fill="#53bced"/>
    <g id="Enmascarar_grupo_1098685" data-name="Enmascarar grupo 1098685" transform="translate(0 1856.656)" clip-path="url(#clip-path)">
      <g id="Grupo_1099152" data-name="Grupo 1099152" transform="translate(980.456 4642.808)">
        <g id="Grupo_1099151" data-name="Grupo 1099151" transform="translate(7)" clip-path="url(#clip-path-2)">
          <g id="Grupo_1099150" data-name="Grupo 1099150">
            <g id="Grupo_1099149" data-name="Grupo 1099149" clip-path="url(#clip-path-2)">
              <path id="Trazado_873448" data-name="Trazado 873448" d="M672.988,182.345l14.751-35.316-28.882-12.065a6.973,6.973,0,0,0-9.121,3.746l-9.377,22.449a6.972,6.972,0,0,0,3.747,9.121Z" transform="translate(-320.027 -67.237)" fill="#eebf99"/>
              <path id="Trazado_873449" data-name="Trazado 873449" d="M665.982,183.193l20.092,8.393,14.752-35.316-8.069-3.37c-4.12,8.792-12.75,23.458-26.775,30.294" transform="translate(-333.114 -76.478)" fill="#e5a980"/>
              <path id="Trazado_873450" data-name="Trazado 873450" d="M777.481,231.133l21.159-50.656-94.955-37.059-17.353,41.543a5.073,5.073,0,0,0,2.725,6.635Z" transform="translate(-343.096 -71.735)" fill="#b9e9ff"/>
              <path id="Trazado_873451" data-name="Trazado 873451" d="M728.211,154.656l-19.894-7.764-5.327-.142-16.657,39.877a5.072,5.072,0,0,0,2.725,6.635l41.6,18.6c-7.591-16.252-12.027-36.807-2.452-57.209" transform="translate(-343.097 -73.402)" fill="#53bced"/>
              <path id="Trazado_873452" data-name="Trazado 873452" d="M552.757,131.173l16.358-39.163a6.016,6.016,0,0,1,7.846-3.223l32.417,13.541a15,15,0,0,1,8.037,19.567L610.4,138.7a21.332,21.332,0,0,1-27.825,11.429l-26.592-11.107a6.015,6.015,0,0,1-3.223-7.846" transform="translate(-276.25 -44.18)" fill="#eebf99"/>
              <path id="Trazado_873453" data-name="Trazado 873453" d="M610.017,176.8a20.152,20.152,0,0,1-8.442.088c-5.3,3.8-9.782-1.012-9.782-1.012s-7.409,5.06-16-15.673l-22.159,11.97a5.966,5.966,0,0,0,3.014,2.8l26.592,11.108a21.343,21.343,0,0,0,26.777-9.279" transform="translate(-276.919 -80.131)" fill="#e5a980"/>
              <path id="Trazado_873454" data-name="Trazado 873454" d="M558.1,135.748c34.809,12.98,49.615-6.347,49.615-6.347l-9.234-20.243-33.729,10.665Z" transform="translate(-279.154 -54.599)" fill="#e5a980"/>
              <path id="Trazado_873455" data-name="Trazado 873455" d="M598.31,71.288,562.265,0l-31.9,16.345,36.045,71.29Z" transform="translate(-265.278 0)" fill="#64913d"/>
              <path id="Trazado_873456" data-name="Trazado 873456" d="M564.694,7.167,537.528,21.086l33.618,66.551,27.167-13.917Z" transform="translate(-268.863 -3.585)" fill="#8fc764"/>
              <path id="Trazado_873457" data-name="Trazado 873457" d="M567.125,14.336,544.7,25.826,575.887,87.64l22.428-11.491Z" transform="translate(-272.449 -7.171)" fill="#64913d"/>
              <path id="Trazado_873458" data-name="Trazado 873458" d="M588.752,87.644a6.034,6.034,0,0,0-8.123-2.619L557.37,38.691a6.033,6.033,0,0,0,2.62-8.121l6.949-3.561a6.033,6.033,0,0,0,8.121,2.619l23.259,46.333a6.035,6.035,0,0,0-2.618,8.123Z" transform="translate(-278.788 -13.509)" fill="#8fc764"/>
              <path id="Trazado_873459" data-name="Trazado 873459" d="M586.88,73.2a7.853,7.853,0,1,0,10.57,3.408A7.852,7.852,0,0,0,586.88,73.2" transform="translate(-291.411 -36.179)" fill="#64913d"/>
              <g id="Grupo_1099145" data-name="Grupo 1099145" transform="translate(265.082 9.408)" opacity="0.22" style="mix-blend-mode: multiply;isolation: isolate">
                <g id="Grupo_1099144" data-name="Grupo 1099144">
                  <g id="Grupo_1099143" data-name="Grupo 1099143" clip-path="url(#clip-path-4)">
                    <path id="Trazado_873460" data-name="Trazado 873460" d="M564.857,93.988l21.651-20.05L543.9,18.821,530.36,25.759Z" transform="translate(-530.36 -18.822)" fill="#331f68"/>
                  </g>
                </g>
              </g>
              <path id="Trazado_873461" data-name="Trazado 873461" d="M561.694,70.208l-51.339-61.2L483.014,32.19l51.338,61.2Z" transform="translate(-241.596 -4.505)" fill="#79a847"/>
              <path id="Trazado_873462" data-name="Trazado 873462" d="M513.8,16.512,490.521,36.253l47.9,57.142L561.7,73.655Z" transform="translate(-245.351 -8.259)" fill="#a6de70"/>
              <path id="Trazado_873463" data-name="Trazado 873463" d="M517.248,24.019l-19.222,16.3L542.479,93.4,561.7,77.1Z" transform="translate(-249.105 -12.014)" fill="#79a847"/>
              <path id="Trazado_873464" data-name="Trazado 873464" d="M555.05,93.4a6.034,6.034,0,0,0-8.505-.7l-33.2-39.817a6.033,6.033,0,0,0,.7-8.5L520,39.332a6.033,6.033,0,0,0,8.5.7l33.2,39.816a6.035,6.035,0,0,0-.7,8.505Z" transform="translate(-256.765 -19.673)" fill="#a6de70"/>
              <path id="Trazado_873465" data-name="Trazado 873465" d="M548.86,79.95a7.853,7.853,0,1,0,11.068.91,7.852,7.852,0,0,0-11.068-.91" transform="translate(-273.144 -39.057)" fill="#79a847"/>
              <g id="Grupo_1099148" data-name="Grupo 1099148" transform="translate(241.418 22.449)" opacity="0.22" style="mix-blend-mode: multiply;isolation: isolate">
                <g id="Grupo_1099147" data-name="Grupo 1099147">
                  <g id="Grupo_1099146" data-name="Grupo 1099146" clip-path="url(#clip-path-5)">
                    <path id="Trazado_873466" data-name="Trazado 873466" d="M550.316,85.779,489.19,44.914l-6.176,5.237,50.815,60.578Z" transform="translate(-483.014 -44.914)" fill="#331f68"/>
                  </g>
                </g>
              </g>
              <path id="Trazado_873467" data-name="Trazado 873467" d="M531.339,90.021l-66.409-44.4L445.164,75.531l66.41,44.4Z" transform="translate(-222.664 -22.821)" fill="#8cc447"/>
              <path id="Trazado_873468" data-name="Trazado 873468" d="M469.373,53,452.544,78.469l61.968,41.462,16.831-25.466Z" transform="translate(-226.356 -26.511)" fill="#b6f86d"/>
              <path id="Trazado_873469" data-name="Trazado 873469" d="M473.818,60.382l-13.9,21.024,57.528,38.527L531.344,98.91Z" transform="translate(-230.046 -30.202)" fill="#8cc447"/>
              <path id="Trazado_873470" data-name="Trazado 873470" d="M527.045,118.231a6.034,6.034,0,0,0-8.361,1.708L475.668,91a6.033,6.033,0,0,0-1.707-8.36l4.3-6.515a6.033,6.033,0,0,0,8.36-1.707l43.016,28.938a6.035,6.035,0,0,0,1.708,8.361Z" transform="translate(-237.068 -37.222)" fill="#b6f86d"/>
              <path id="Trazado_873471" data-name="Trazado 873471" d="M517.135,108.1a7.853,7.853,0,1,0,10.881-2.223,7.852,7.852,0,0,0-10.881,2.223" transform="translate(-258.011 -52.309)" fill="#8cc447"/>
              <path id="Trazado_873472" data-name="Trazado 873472" d="M618.751,115.77s11.109,4.655,14.882-7.484c0,0-1.873-20.766-25.626-22.613,0,0-14.56-4.133-20.666-7.886A3.257,3.257,0,0,0,582.793,79c-2,3.675-3.43,10.208,5.086,17.235,4.674,3.857,11.637,5.761,18.64,6.617,2.215,3.7,6.57,9.926,12.233,12.914" transform="translate(-290.74 -38.67)" fill="#eebf99"/>
              <path id="Trazado_873473" data-name="Trazado 873473" d="M603.9,83.627a21.974,21.974,0,0,0-.028,8.979l1.2-8.5q-.594-.237-1.174-.48" transform="translate(-301.81 -41.829)" fill="#ffe1cc"/>
              <path id="Trazado_873474" data-name="Trazado 873474" d="M582.375,80.7a12.552,12.552,0,0,0,2.1,13.514,24.816,24.816,0,0,0,12.081,7.773,53.8,53.8,0,0,0,9.859,2.077,55.83,55.83,0,0,0,5.3,7.45,26.324,26.324,0,0,0,6.609,5.952c-5.5-2.618-9.6-7.5-12.682-12.644l.386.251c-6.605-.838-13.447-2.361-18.8-6.6-5.415-4.332-9.333-11.327-4.863-17.771" transform="translate(-290.322 -40.364)" fill="#cc8671"/>
              <path id="Trazado_873475" data-name="Trazado 873475" d="M596.128,89.55l-.3-.118c-.205-.082-5.053-2.046-7.239-5.216-1.528-2.215-1.1-5.423-.7-7.139l.036-.157.158-.032a3.469,3.469,0,0,1,2.517.438,45.243,45.243,0,0,0,6.621,3.142l.182.073Zm-7.788-12.2c-.363,1.668-.709,4.59.665,6.582,1.8,2.611,5.629,4.43,6.718,4.91l1.129-7.983a45.028,45.028,0,0,1-6.515-3.107,2.957,2.957,0,0,0-2-.4" transform="translate(-293.867 -38.423)" fill="#efae8e"/>
              <path id="Trazado_873476" data-name="Trazado 873476" d="M632.184,97.462l-.5,6.456s1.593-3.881.5-6.456" transform="translate(-315.956 -48.749)" fill="#e5a980"/>
              <path id="Trazado_873477" data-name="Trazado 873477" d="M629.969,94.134a26.912,26.912,0,0,0-.439,8.446s-1.961-4.669.439-8.446" transform="translate(-314.504 -47.084)" fill="#e5a980"/>
              <path id="Trazado_873478" data-name="Trazado 873478" d="M635.582,95.4a11.964,11.964,0,0,1,.036,6.83s2.411-1.788-.036-6.83" transform="translate(-317.908 -47.719)" fill="#e5a980"/>
              <path id="Trazado_873479" data-name="Trazado 873479" d="M587.614,170.376h0a6.642,6.642,0,0,0-9.322-.913l-10.99,8.956a6.623,6.623,0,0,0,8.409,10.234L586.7,179.7a6.642,6.642,0,0,0,.913-9.321" transform="translate(-282.55 -84.014)" fill="#eebf99"/>
              <path id="Trazado_873480" data-name="Trazado 873480" d="M565.1,187.027a6.759,6.759,0,0,0,9,4.382,7.465,7.465,0,0,0,1.877-1.243l3.7-3.045c1.22-1,4.368-3.592,5.556-4.554.605-.511,1.282-1,1.78-1.5,2.243-2.221,2.221-6,.607-8.514,2.665,2.2,2.648,6.711.162,9.246-1.044,1.061-2.594,2.176-3.711,3.128-2.089,1.686-5.831,4.71-7.921,6.392-4.167,3.42-10.506,1.243-11.049-4.294" transform="translate(-282.656 -86.309)" fill="#cc8671"/>
              <path id="Trazado_873481" data-name="Trazado 873481" d="M597.733,184.134s-5.069-5.317-5.785-7.773a14.463,14.463,0,0,1,5.785,7.773" transform="translate(-296.083 -88.213)" fill="#ffe1cc"/>
              <path id="Trazado_873482" data-name="Trazado 873482" d="M597.425,181.994l-.156-.164c-.208-.218-5.119-5.389-5.844-7.875l-.043-.151.117-.1c.114-.1,2.827-2.517,5.594-2.272a4.148,4.148,0,0,1,2.969,1.7,4.472,4.472,0,0,1,.983,3.4c-.362,2.906-3.315,5.231-3.441,5.328Zm-5.471-8.026c.76,2.181,4.675,6.446,5.518,7.348a11.437,11.437,0,0,0,2.162-2.47c1.256-2,1.266-3.824.033-5.408a3.667,3.667,0,0,0-2.618-1.512c-2.235-.208-4.544,1.587-5.095,2.042" transform="translate(-295.8 -85.737)" fill="#efae8e"/>
              <path id="Trazado_873483" data-name="Trazado 873483" d="M566.94,155.945h0a6.642,6.642,0,0,0-9.17-1.906L543.6,162.455a6.623,6.623,0,1,0,7.264,11.076l14.174-8.416a6.642,6.642,0,0,0,1.906-9.17" transform="translate(-270.405 -76.508)" fill="#eebf99"/>
              <path id="Trazado_873484" data-name="Trazado 873484" d="M540.645,171.343a6.7,6.7,0,0,0,9.1,5.089c1.442-.734,5.037-2.994,6.5-3.839l8.695-5.2c2.779-1.869,3.394-5.8,1.933-8.719,2.622,2.688,1.767,7.481-1.316,9.6-4.215,2.591-8.875,5.256-13.134,7.777-.678.375-1.54.978-2.259,1.3a6.632,6.632,0,0,1-9.517-6.015" transform="translate(-270.422 -79.368)" fill="#cc8671"/>
              <path id="Trazado_873485" data-name="Trazado 873485" d="M579.525,168.86s-4.47-5.829-4.919-8.348a14.464,14.464,0,0,1,4.919,8.348" transform="translate(-287.409 -80.286)" fill="#ffe1cc"/>
              <path id="Trazado_873486" data-name="Trazado 873486" d="M579.191,167.24l-.137-.179c-.184-.24-4.513-5.906-4.967-8.456l-.028-.154.128-.092c.125-.09,3.091-2.2,5.8-1.658a4.149,4.149,0,0,1,2.77,2.011,4.471,4.471,0,0,1,.614,3.483c-.672,2.85-3.857,4.845-3.992,4.929Zm-4.58-8.567c.522,2.251,3.958,6.911,4.7,7.9a11.439,11.439,0,0,0,2.414-2.224c1.463-1.859,1.669-3.667.612-5.374a3.669,3.669,0,0,0-2.441-1.784c-2.193-.441-4.689,1.091-5.284,1.484" transform="translate(-287.135 -78.334)" fill="#efae8e"/>
              <path id="Trazado_873487" data-name="Trazado 873487" d="M543.707,142.872h0a6.642,6.642,0,0,0-8.917-2.865l-12.637,6.426a6.623,6.623,0,1,0,6.051,11.782l12.637-6.426a6.642,6.642,0,0,0,2.865-8.917" transform="translate(-259.376 -69.665)" fill="#eebf99"/>
              <path id="Trazado_873488" data-name="Trazado 873488" d="M518.519,155.573a6.759,6.759,0,0,0,7.87,6.188,7.469,7.469,0,0,0,2.1-.817l4.258-2.193c1.4-.723,5.029-2.586,6.394-3.275.7-.371,1.464-.7,2.057-1.086,2.659-1.7,3.443-5.382,2.4-8.193,2.143,2.7,1.157,7.138-1.8,9.07-1.244.817-3,1.577-4.289,2.272-2.4,1.206-6.7,3.369-9.095,4.57-4.8,2.46-10.53-1.009-9.889-6.536" transform="translate(-259.33 -73.125)" fill="#cc8671"/>
              <path id="Trazado_873489" data-name="Trazado 873489" d="M554.138,154.882s-3.829-6.269-4.008-8.821a14.465,14.465,0,0,1,4.008,8.821" transform="translate(-275.166 -73.057)" fill="#ffe1cc"/>
              <path id="Trazado_873490" data-name="Trazado 873490" d="M553.781,153.735l-.118-.193c-.157-.258-3.862-6.35-4.045-8.934l-.011-.157.136-.078c.133-.076,3.305-1.86,5.947-1.036a4.146,4.146,0,0,1,2.542,2.293,4.469,4.469,0,0,1,.242,3.528c-.97,2.763-4.347,4.41-4.491,4.479Zm-3.648-9c.281,2.293,3.2,7.29,3.837,8.35a11.45,11.45,0,0,0,2.636-1.956c1.651-1.693,2.047-3.469,1.177-5.279a3.667,3.667,0,0,0-2.239-2.032c-2.134-.664-4.777.589-5.411.917" transform="translate(-274.905 -71.587)" fill="#efae8e"/>
              <path id="Trazado_873491" data-name="Trazado 873491" d="M521.884,128.647h0a6.643,6.643,0,0,0-8.482-3.972l-13.35,4.774a6.623,6.623,0,0,0,4.51,12.454l13.35-4.774a6.642,6.642,0,0,0,3.972-8.482" transform="translate(-247.935 -62.163)" fill="#eebf99"/>
              <path id="Trazado_873492" data-name="Trazado 873492" d="M495.648,138.855a6.759,6.759,0,0,0,7.022,7.135,7.462,7.462,0,0,0,2.184-.544l4.5-1.636c1.488-.54,5.314-1.927,6.758-2.439.741-.279,1.542-.514,2.178-.817a6.971,6.971,0,0,0,3.445-7.672l-.031-.151.077.134v.02c1.688,2.92.068,7.146-3.009,8.615-1.34.653-3.17,1.184-4.543,1.71-2.532.891-7.07,2.494-9.6,3.381-5.069,1.833-10.318-2.335-8.982-7.736" transform="translate(-247.81 -66.389)" fill="#cc8671"/>
              <path id="Trazado_873493" data-name="Trazado 873493" d="M532.413,139.5s-3-6.7-2.859-9.258a14.461,14.461,0,0,1,2.859,9.258" transform="translate(-264.872 -65.144)" fill="#ffe1cc"/>
              <path id="Trazado_873494" data-name="Trazado 873494" d="M532.028,138.842l-.092-.206c-.124-.276-3.027-6.788-2.88-9.374l.009-.157.145-.06c.142-.058,3.517-1.424,6.031-.274a4.15,4.15,0,0,1,2.231,2.6,4.473,4.473,0,0,1-.206,3.53c-1.312,2.619-4.872,3.824-5.023,3.874Zm-2.479-9.392c-.011,2.309,2.256,7.637,2.748,8.768a11.437,11.437,0,0,0,2.863-1.606c1.853-1.47,2.471-3.182,1.836-5.087a3.667,3.667,0,0,0-1.964-2.3c-2.036-.931-4.813-.021-5.484.225" transform="translate(-264.623 -64.179)" fill="#efae8e"/>
              <path id="Trazado_873495" data-name="Trazado 873495" d="M722.218,145.609l-17.113-7.148a2.739,2.739,0,0,0-3.58,1.465l-20,47.528a2.739,2.739,0,0,0,1.469,3.59l17.112,7.148a2.739,2.739,0,0,0,3.58-1.465l20-47.528a2.739,2.739,0,0,0-1.469-3.59" transform="translate(-340.779 -69.15)" fill="#b9e9ff"/>
              <path id="Trazado_873496" data-name="Trazado 873496" d="M535.5,330.7l-20.162,6.763-3.882.836c-.9-.2-6.388-2.942-13.119-4.814a8.459,8.459,0,0,0-6.836.544,7.159,7.159,0,0,0-2.486,2.6,7.705,7.705,0,0,0-.821,2.025l-.124.581,16.382,9.987.219.008c2.834.1,17.1.556,19.481-.588.58-.278,20.166-10.962,20.178-11.013l.155-.64Z" transform="translate(-244.127 -165.408)" fill="#e5a980"/>
              <path id="Trazado_873497" data-name="Trazado 873497" d="M530.45,334.542c-3.282,1.531-7.1,2.783-10.513,4.012l-3.546,1.215c-1.309.293-2.624.561-3.94.824l-.116.023a13.575,13.575,0,0,1-1.618-.567c-3.25-1.318-6.773-2.7-10.114-3.735-4.046-1.48-7.905-1.416-10.74,2.252,1.762-4.74,6.966-4.789,11.065-3.32a85.2,85.2,0,0,1,10.876,4.2c.228.1.476.2.649.259h-.194c1.208-.278,2.811-.643,3.824-.848,4.628-1.486,9.626-3.246,14.366-4.307" transform="translate(-245.023 -167.259)" fill="#ffe5cf"/>
              <path id="Trazado_873498" data-name="Trazado 873498" d="M488.074,345.858a74.036,74.036,0,0,1,8.459,4.554c2.752,1.628,5.491,3.279,8.183,5.006l-.241-.072c3.554.126,7.112.2,10.664.176,1.775-.016,3.552-.048,5.311-.165a11.2,11.2,0,0,0,3.72-.662c4.856-2.629,12.8-6.951,17.588-9.582.478-.268,1.558-.854,2.043-1.128l.064-.036a.143.143,0,0,0-.016.187l.971.236a1.342,1.342,0,0,1-.53.484c-.508.279-1.526.847-2.051,1.133-4.776,2.627-12.759,6.969-17.608,9.593a11.709,11.709,0,0,1-4.113.773c-1.8.119-3.583.152-5.37.167-3.614.026-7.221-.057-10.828-.178-2.81-1.624-5.573-3.326-8.321-5.053a74.034,74.034,0,0,1-7.923-5.433" transform="translate(-244.127 -172.037)" fill="#cc8671"/>
              <path id="Trazado_873499" data-name="Trazado 873499" d="M523.953,342.865l-20.846,4.206-3.956.347c-.871-.308-5.974-3.714-12.419-6.407a8.46,8.46,0,0,0-6.85-.309,7.165,7.165,0,0,0-2.79,2.271,7.736,7.736,0,0,0-1.066,1.907l-.2.561,15.015,11.945.216.035c2.8.454,16.894,2.675,19.4,1.836.61-.2,21.371-8.372,21.39-8.421l.234-.616Z" transform="translate(-238.002 -170.12)" fill="#eebf99"/>
              <path id="Trazado_873500" data-name="Trazado 873500" d="M501.308,359.9l15.256-7.283-22.27,1.7s-8.023-6.8-17.262-8.323a7.761,7.761,0,0,0-1.007,1.824l-.2.561,12.429,9.888c3.122.484,8.877,1.323,13.049,1.629" transform="translate(-238.002 -173.063)" fill="#e5a980"/>
              <path id="Trazado_873501" data-name="Trazado 873501" d="M519,343.641c-3.447,1.112-7.387,1.879-10.93,2.675l-3.669.765c-1.335.128-2.673.231-4.011.328l-.118.008a13.675,13.675,0,0,1-1.535-.764c-3.061-1.711-6.385-3.524-9.572-4.962-3.832-1.971-7.668-2.387-10.936.9,2.337-4.485,7.507-3.887,11.392-1.92a85.308,85.308,0,0,1,10.27,5.513c.213.129.447.26.612.338l-.193-.025c1.234-.126,2.869-.289,3.9-.367,4.777-.9,9.955-2.025,14.79-2.49" transform="translate(-239.204 -169.656)" fill="#cc8671"/>
              <path id="Trazado_873502" data-name="Trazado 873502" d="M475.83,350.772a73.959,73.959,0,0,1,7.828,5.57c2.529,1.957,5.042,3.936,7.5,5.984l-.231-.1c3.51.567,7.033,1.082,10.56,1.5,1.763.2,3.53.393,5.29.5a11.223,11.223,0,0,0,3.773-.2c5.145-2.006,13.562-5.308,18.642-7.324.508-.206,1.652-.654,2.167-.866l.068-.028a.142.142,0,0,0-.039.183l.934.356a1.351,1.351,0,0,1-.587.414c-.539.214-1.619.65-2.176.869-5.065,2.013-13.526,5.331-18.663,7.332a11.729,11.729,0,0,1-4.177.256c-1.8-.1-3.574-.295-5.35-.5-3.589-.422-7.157-.953-10.722-1.521-2.586-1.961-5.117-3.993-7.629-6.047a74,74,0,0,1-7.187-6.375" transform="translate(-238.003 -175.451)" fill="#cc8671"/>
              <path id="Trazado_873503" data-name="Trazado 873503" d="M513.656,355.606l-20.846,4.206-3.956.347c-.87-.308-5.973-3.713-12.419-6.407a8.46,8.46,0,0,0-6.85-.309,7.162,7.162,0,0,0-2.79,2.271,7.7,7.7,0,0,0-1.066,1.907l-.2.561,15.014,11.945.216.035c2.8.454,16.894,2.675,19.4,1.836.61-.2,21.371-8.372,21.39-8.421l.234-.616Z" transform="translate(-232.852 -176.493)" fill="#eebf99"/>
              <path id="Trazado_873504" data-name="Trazado 873504" d="M510.821,369.795l-22.27,1.7s-11.587-9.829-22.949-8.506l-.069.2,15.015,11.945.216.035c1.981.321,9.616,1.526,14.8,1.907Z" transform="translate(-232.852 -181.501)" fill="#e5a980"/>
              <path id="Trazado_873505" data-name="Trazado 873505" d="M508.706,356.488c-.065.009-14.58,3.559-14.642,3.555l-3.942.5-.159.02a11.213,11.213,0,0,1-1.637-.865c-3.078-1.839-6.206-3.652-9.448-5.181-3.869-2.081-7.682-2.525-10.943.917,2.36-4.329,7.547-3.762,11.384-1.9a89.478,89.478,0,0,1,9.737,4.9c.328.179.92.521,1.25.658l-.316-.04,3.97-.191c-.315.053,14.807-2.387,14.746-2.374" transform="translate(-234.054 -176.134)" fill="#cc8671"/>
              <path id="Trazado_873506" data-name="Trazado 873506" d="M465.533,363.513a73.97,73.97,0,0,1,7.828,5.57c2.529,1.957,5.041,3.936,7.5,5.984l-.231-.1c3.51.567,7.033,1.082,10.56,1.5,1.763.2,3.53.393,5.29.5a11.226,11.226,0,0,0,3.773-.2c5.145-2.006,13.562-5.307,18.642-7.324.508-.206,1.652-.654,2.167-.866l.068-.027a.142.142,0,0,0-.039.183l.934.356a1.35,1.35,0,0,1-.587.414c-.539.214-1.619.651-2.176.869-5.065,2.013-13.526,5.331-18.663,7.332a11.728,11.728,0,0,1-4.177.256c-1.8-.1-3.574-.295-5.35-.5-3.589-.422-7.157-.953-10.722-1.521-2.587-1.961-5.117-3.993-7.629-6.047a74,74,0,0,1-7.187-6.375" transform="translate(-232.852 -181.824)" fill="#cc8671"/>
              <path id="Trazado_873507" data-name="Trazado 873507" d="M668.358,365.8l.376-35.288-31.3-.334a6.972,6.972,0,0,0-7.046,6.9l-.228,21.345a6.973,6.973,0,0,0,6.9,7.046Z" transform="translate(-315.197 -165.15)" fill="#eebf99"/>
              <path id="Trazado_873508" data-name="Trazado 873508" d="M592.6,327.465c-15.453-8.847-35.754-1.412-41.308,3.57l-13.154,30.156,8.618,1.344,33.972-10.459,12.537-6.653Z" transform="translate(-269.17 -161.735)" fill="#eebf99"/>
              <path id="Trazado_873509" data-name="Trazado 873509" d="M511.43,371.6l-22.8,4.6-4.326.38c-.952-.337-6.533-4.061-13.583-7.007-2.827-1.182-5.348-1.3-7.492-.338a7.831,7.831,0,0,0-3.051,2.485,8.44,8.44,0,0,0-1.167,2.086l-.214.614,16.422,13.065.236.038c3.062.5,18.478,2.925,21.222,2.008.667-.223,23.374-9.156,23.394-9.21l.255-.673Z" transform="translate(-229.483 -184.366)" fill="#eebf99"/>
              <path id="Trazado_873510" data-name="Trazado 873510" d="M506.016,372.473c-3.766,1.195-8.085,2.038-11.958,2.9l-4.013.835c-1.46.14-2.922.253-4.385.36l-.123.009a15.021,15.021,0,0,1-1.671-.834c-3.347-1.875-6.983-3.859-10.47-5.431-4.215-2.156-8.39-2.624-11.972,1.009,2.6-4.887,8.183-4.224,12.448-2.076a88.945,88.945,0,0,1,10.513,5.595c.368.214,1.038.639,1.393.8l-.2-.025c1.352-.137,3.127-.313,4.268-.4,5.22-.986,10.9-2.216,16.171-2.746" transform="translate(-230.797 -183.879)" fill="#cc8671"/>
              <path id="Trazado_873511" data-name="Trazado 873511" d="M458.8,380.252a88.366,88.366,0,0,1,8.531,6.13c2.764,2.144,5.51,4.309,8.2,6.544l-.23-.1c3.84.62,7.693,1.183,11.551,1.64,1.929.224,3.862.43,5.789.542a15.87,15.87,0,0,0,3.825-.106c4.474-1.7,13.594-5.32,17.994-7.045,1.2-.477,3.558-1.406,4.75-1.886l.337-.136.076-.03a.067.067,0,0,0-.028.031.159.159,0,0,0,.011.144l.934.355a2.112,2.112,0,0,1-.956.564c-1.194.478-3.53,1.4-4.757,1.889-4.418,1.732-13.566,5.371-18.063,7.069a15.842,15.842,0,0,1-4.181.151c-1.963-.114-3.907-.322-5.848-.548-3.921-.462-7.82-1.041-11.715-1.663-2.821-2.147-5.585-4.365-8.332-6.606a88.528,88.528,0,0,1-7.891-6.935" transform="translate(-229.483 -190.196)" fill="#cc8671"/>
              <path id="Trazado_873512" data-name="Trazado 873512" d="M563.274,371.45a22.726,22.726,0,0,1,2.675-2.82,35.8,35.8,0,0,1,3.069-2.379q1.6-1.092,3.3-2.048c1.133-.635,2.268-1.228,3.478-1.769l-.4.4c.49-1.072,1.017-2.082,1.578-3.092s1.156-1.989,1.791-2.946a33.547,33.547,0,0,1,2.054-2.761,19.76,19.76,0,0,1,2.421-2.423,23.488,23.488,0,0,0-3.866,5.546c-.523,1-1,2.02-1.446,3.054s-.859,2.091-1.209,3.131l-.086.255-.313.149h0c-1.151.435-2.319.955-3.45,1.5s-2.245,1.154-3.33,1.8a34.874,34.874,0,0,0-3.122,2.133,22.206,22.206,0,0,0-2.755,2.576Z" transform="translate(-281.741 -175.872)" fill="#e5a980"/>
              <path id="Trazado_873513" data-name="Trazado 873513" d="M663.021,362.826l21.773.232.408-38.271-8.744-.093c-.516,9.695-3.006,26.529-13.438,38.132" transform="translate(-331.633 -162.407)" fill="#e5a980"/>
              <path id="Trazado_873514" data-name="Trazado 873514" d="M788.955,367.456l.585-54.894-101.922,1.316-.48,45.019a5.071,5.071,0,0,0,5.017,5.125Z" transform="translate(-343.696 -156.339)" fill="#c3e3f2"/>
              <path id="Trazado_873515" data-name="Trazado 873515" d="M713.943,314.515l-21.354.276-4.99,1.868-.461,43.214A5.072,5.072,0,0,0,692.155,365l45.546,1.616c-13.139-12.211-24.97-29.6-23.758-52.1" transform="translate(-343.695 -157.316)" fill="#53bced"/>
              <path id="Trazado_873516" data-name="Trazado 873516" d="M582.5,358.854s11.716-2.795,13.474,9.794c0,0-5.21,20.188-28.948,18.166,0,0-15.037,1.722-21.671,4.436a3.257,3.257,0,0,1-4.29-1.937c-1.381-3.951-1.732-10.629,7.809-16.185,5.237-3.049,12.416-3.8,19.465-3.512,2.784-3.288,8.091-8.731,14.162-10.763" transform="translate(-270.27 -179.361)" fill="#eebf99"/>
              <path id="Trazado_873517" data-name="Trazado 873517" d="M562.012,411.547a21.973,21.973,0,0,1,1.426-8.865l-.19,8.582q-.625.138-1.236.283" transform="translate(-281.077 -201.415)" fill="#ffe1cc"/>
              <path id="Trazado_873518" data-name="Trazado 873518" d="M540.708,389.578c-3.365-7.093,1.625-13.344,7.676-16.75,5.969-3.318,12.966-3.713,19.62-3.471l-.421.185c3.878-4.581,8.713-8.732,14.562-10.425a26.308,26.308,0,0,0-7.486,4.8,55.833,55.833,0,0,0-6.44,6.492,53.873,53.873,0,0,0-10.065.454,24.817,24.817,0,0,0-13.18,5.715,12.553,12.553,0,0,0-4.265,13" transform="translate(-269.911 -179.625)" fill="#cc8671"/>
              <path id="Trazado_873519" data-name="Trazado 873519" d="M546.518,413.48a3.513,3.513,0,0,1-1.251-.231l-.15-.057-.01-.16c-.109-1.757-.015-4.993,1.851-6.931,2.67-2.773,7.772-3.927,7.988-3.975l.311-.068-.2,9.1-.192.043a45.323,45.323,0,0,0-7.042,2.029,3.434,3.434,0,0,1-1.3.256m-.922-.646a2.965,2.965,0,0,0,2.035-.073,45.087,45.087,0,0,1,6.932-2.012l.178-8.06c-1.153.3-5.228,1.474-7.425,3.757-1.677,1.743-1.809,4.683-1.721,6.388" transform="translate(-272.638 -201.102)" fill="#efae8e"/>
              <path id="Trazado_873520" data-name="Trazado 873520" d="M592.235,404.891l.548-6.453s.944,4.087-.548,6.453" transform="translate(-296.227 -199.292)" fill="#e5a980"/>
              <path id="Trazado_873521" data-name="Trazado 873521" d="M589.6,405.973a26.918,26.918,0,0,1,.934-8.405s-2.69,4.289-.934,8.405" transform="translate(-294.61 -198.857)" fill="#e5a980"/>
              <path id="Trazado_873522" data-name="Trazado 873522" d="M594.758,407.11a11.96,11.96,0,0,0,1.141-6.734s2.09,2.154-1.141,6.734" transform="translate(-297.489 -200.262)" fill="#e5a980"/>
              <path id="Trazado_873523" data-name="Trazado 873523" d="M708.332,308.188l-18.544-.2a2.739,2.739,0,0,0-2.768,2.7l-.688,51.561a2.739,2.739,0,0,0,2.709,2.775l18.544.2a2.739,2.739,0,0,0,2.768-2.7l.688-51.561a2.739,2.739,0,0,0-2.709-2.775" transform="translate(-343.292 -154.052)" fill="#c3e3f2"/>
              <path id="Trazado_873524" data-name="Trazado 873524" d="M549.82,373.763c-1.439,2.092.333,3.147.333,3.147Z" transform="translate(-274.73 -186.95)" fill="#cc8671"/>
              <path id="Trazado_873525" data-name="Trazado 873525" d="M549.305,358.3c-1.793,1.8-.24,3.155-.24,3.155Z" transform="translate(-274.322 -179.216)" fill="#cc8671"/>
              <path id="Trazado_873526" data-name="Trazado 873526" d="M579.345,327.953q-.982.316-1.906.659c.963,6.354,1.344,16.136-4.4,19.948,7.406-2.783,7.23-13.7,6.307-20.607" transform="translate(-286.625 -164.037)" fill="#e5a980"/>
              <path id="Trazado_873527" data-name="Trazado 873527" d="M208.826,322.943c14.255-1.078,5.249-43.887-3.435-52.791,0,0-11.315,35.833,3.435,52.791" transform="translate(-100.659 -135.126)" fill="#2b2b3a"/>
              <path id="Trazado_873528" data-name="Trazado 873528" d="M341.155,285.391c2.855-8.506-66.916-26.114-66.916-26.114a41.2,41.2,0,0,0-6.185-.241l-4.153.638c-11.756,1.808-20.389,9.105-18.58,20.861l2.929,19.044c.81,5.268,1.624,5.948,6.862,5.451.39-.037,4.448.13,4.84.123l35.073,4.408a13.824,13.824,0,0,0,6.229-2.609c5.216-3.9,37.767-15.2,39.9-21.561" transform="translate(-122.586 -129.533)" fill="#f7c59f"/>
              <path id="Trazado_873529" data-name="Trazado 873529" d="M267.858,333.464c1.473.029,3.491-.011,4.924.161,7.014.733,17.4,2,24.438,2.8,3.26.373,6.514.8,9.772,1.192l-.257.01,3.982-.864-.377.208,3.813-3.89.1-.1.134-.059c-.17.061,28.941-12.565,28.343-12.291l7.171-4.643.815,1.259-7.171,4.644-.052.034c.012,0-28.5,12.362-28.509,12.374l.237-.163-3.813,3.891-.157.16-.22.047-3.982.864a.445.445,0,0,1-.257.011c-3.244-.466-6.491-.9-9.733-1.393-7.006-1.058-17.351-2.531-24.323-3.656-1.442-.265-3.427-.4-4.881-.595" transform="translate(-133.978 -158.052)" fill="#cc8671"/>
              <path id="Trazado_873530" data-name="Trazado 873530" d="M191.231,318.6l-7.644-33.9,51.819-9.317,4.57,29.717c.643,4.178-2.409,8.115-6.966,6.965Z" transform="translate(-91.827 -137.742)" fill="#f7c59f"/>
              <path id="Trazado_873531" data-name="Trazado 873531" d="M198.421,287.737l.229,36.6,13.135-2.054c-3.745-6.528-8.57-18.45-7.514-35.421Z" transform="translate(-99.247 -143.486)" fill="#e5a980"/>
              <path id="Trazado_873532" data-name="Trazado 873532" d="M107.131,270.152s-.671,47.552,3.435,52.791l-18.781,4.143-5.057-1.42-2.19,3.349L17.569,348.181,4.8,279.668Z" transform="translate(-2.398 -135.126)" fill="#34344f"/>
              <path id="Trazado_873533" data-name="Trazado 873533" d="M253.391,264.655c3.554-9.478,13.46-10.511,18.937-10.626,3.67-.077,8.3-.726,12.608.01,10.8,1.845,22.744-7.767,30.787-3.057s4.594,16.98-15.4,18.836c0,0-7.676,1.638-12.088,5.671s-11.6,11.085-19.7,12.941c0,0-21.943-5.641-15.142-23.775" transform="translate(-126.088 -124.88)" fill="#f7c59f"/>
              <path id="Trazado_873534" data-name="Trazado 873534" d="M294.951,279.893V258.3a17.334,17.334,0,0,1-2.886-.235c-4.313-.736-8.939-.087-12.608-.01a33.227,33.227,0,0,0-7.372.892l-5.229,17.747a12.617,12.617,0,0,0,8.672,15.725l.135.037c7.853-1.8,14.85-8.481,19.289-12.562" transform="translate(-133.217 -128.906)" fill="#e5a980"/>
              <path id="Trazado_873535" data-name="Trazado 873535" d="M249.814,264.254c3.664-8.527,15.012-11.569,23.522-11.783,4.511-.175,9.066-.137,13.576.132a30.553,30.553,0,0,0,4.352.07,16.4,16.4,0,0,0,4.1-1.126c6.281-2.545,16.466-4.945,21.546.946-5.246-4.748-12.967-2.366-18.843-.176a26.95,26.95,0,0,1-6.612,2.134c-3.142.253-6.032-.157-9.115-.159-5.882-.01-11.924-.255-17.679,1.107a27.7,27.7,0,0,0-14.852,8.855" transform="translate(-124.953 -124.463)" fill="#ffe5cf"/>
              <path id="Trazado_873536" data-name="Trazado 873536" d="M208.408,383.082c14.1-2.369,1.24-44.183-8.216-52.261,0,0-8.013,36.714,8.216,52.261" transform="translate(-99.143 -165.472)" fill="#2b2b3a"/>
              <path id="Trazado_873537" data-name="Trazado 873537" d="M336.233,317.076c2.071-8.731-40.18-26.163-45.852-29.789s-14.019-6.4-17.828-3.6l1,12.218c-1.315.02-11.181,1.234-12.512,1.564l-4.078,1.013c-11.543,2.868-19.477,10.92-16.608,22.463l4.647,18.7c1.286,5.172,2.158,5.776,7.33,4.8.385-.072,4.441-.275,4.831-.317l35.328,1.2a13.827,13.827,0,0,0,5.966-3.163c4.839-4.361,36.229-18.571,37.777-25.1" transform="translate(-119.927 -141.323)" fill="#f7c59f"/>
              <path id="Trazado_873538" data-name="Trazado 873538" d="M294.638,358.054l2.839,6.245a8.483,8.483,0,0,0,10,4.659l48.986-8.606a20.9,20.9,0,0,0,3.033-.78c.722-.568,1.37-1.119,1.929-1.649Z" transform="translate(-147.373 -179.028)" fill="#e5a980"/>
              <path id="Trazado_873539" data-name="Trazado 873539" d="M267.587,381.112c1.47-.1,3.476-.328,4.918-.287,7.051.093,17.513.406,24.592.572,3.28.076,6.56.2,9.84.3l-.255.034,3.888-1.222-.356.241,3.443-4.22.092-.114.129-.07c-.164.077,27.679-15.143,27.109-14.816l6.72-5.276.926,1.179-6.72,5.276-.049.038c.014,0-27.257,14.9-27.266,14.913l.221-.184-3.443,4.22-.142.174-.214.067-3.887,1.222a.449.449,0,0,1-.256.033c-3.272-.169-6.546-.311-9.819-.5-7.073-.417-17.51-.944-24.554-1.43-1.461-.133-3.45-.092-4.915-.149" transform="translate(-133.843 -178.193)" fill="#cc8671"/>
              <path id="Trazado_873540" data-name="Trazado 873540" d="M196.327,376.016l-3.554-36.431,43.62-10.618,7.252,29.179c1.019,4.1-1.662,8.3-6.305,7.57Z" transform="translate(-96.422 -164.544)" fill="#f7c59f"/>
              <path id="Trazado_873541" data-name="Trazado 873541" d="M192.773,348.812l3.554,36.431L209.221,382c-4.323-6.161-10.212-17.6-10.7-34.592Z" transform="translate(-96.422 -173.771)" fill="#e5a980"/>
              <rect id="Rectángulo_401056" data-name="Rectángulo 401056" width="144.138" height="101.33" transform="translate(151.922 77.797)" fill="#e8a060"/>
              <rect id="Rectángulo_401057" data-name="Rectángulo 401057" width="144.138" height="3.223" transform="translate(151.922 175.904)" fill="#d19161"/>
              <rect id="Rectángulo_401058" data-name="Rectángulo 401058" width="45.517" height="101.33" transform="translate(151.922 77.797)" fill="#ad7b55"/>
              <path id="Trazado_873542" data-name="Trazado 873542" d="M304.7,333.155h12.86c2.883-2.958,6.251-5.949,8.963-7.027,6.011-2.389,15.1-8.708,15.335-18.186l-23.041,11.1Z" transform="translate(-152.405 -154.028)" fill="#936b50"/>
              <rect id="Rectángulo_401059" data-name="Rectángulo 401059" width="1.263" height="101.33" transform="translate(174.05 77.797)" fill="#936b50"/>
              <rect id="Rectángulo_401060" data-name="Rectángulo 401060" width="17.309" height="20.334" transform="translate(166.026 77.797)" fill="#edc09f"/>
              <rect id="Rectángulo_401061" data-name="Rectángulo 401061" width="37.597" height="16.527" transform="translate(251.49 84.029)" fill="#fff"/>
              <rect id="Rectángulo_401062" data-name="Rectángulo 401062" width="0.799" height="12.862" transform="translate(253.988 85.861)" fill="#626d7f"/>
              <rect id="Rectángulo_401063" data-name="Rectángulo 401063" width="0.799" height="12.862" transform="translate(260.22 85.861)" fill="#626d7f"/>
              <rect id="Rectángulo_401064" data-name="Rectángulo 401064" width="1.437" height="12.862" transform="translate(262.066 85.861)" fill="#626d7f"/>
              <rect id="Rectángulo_401065" data-name="Rectángulo 401065" width="0.334" height="12.862" transform="translate(255.473 85.861)" fill="#626d7f"/>
              <rect id="Rectángulo_401066" data-name="Rectángulo 401066" width="0.334" height="12.862" transform="translate(256.239 85.861)" fill="#626d7f"/>
              <rect id="Rectángulo_401067" data-name="Rectángulo 401067" width="0.334" height="12.862" transform="translate(257.006 85.861)" fill="#626d7f"/>
              <rect id="Rectángulo_401068" data-name="Rectángulo 401068" width="0.334" height="12.862" transform="translate(257.771 85.861)" fill="#626d7f"/>
              <rect id="Rectángulo_401069" data-name="Rectángulo 401069" width="0.334" height="12.862" transform="translate(258.538 85.861)" fill="#626d7f"/>
              <rect id="Rectángulo_401070" data-name="Rectángulo 401070" width="0.799" height="12.862" transform="translate(264.468 85.861)" fill="#626d7f"/>
              <rect id="Rectángulo_401071" data-name="Rectángulo 401071" width="0.334" height="12.862" transform="translate(265.954 85.861)" fill="#626d7f"/>
              <rect id="Rectángulo_401072" data-name="Rectángulo 401072" width="0.334" height="12.862" transform="translate(266.721 85.861)" fill="#626d7f"/>
              <rect id="Rectángulo_401073" data-name="Rectángulo 401073" width="0.334" height="12.862" transform="translate(267.486 85.861)" fill="#626d7f"/>
              <rect id="Rectángulo_401074" data-name="Rectángulo 401074" width="0.334" height="12.862" transform="translate(268.253 85.861)" fill="#626d7f"/>
              <rect id="Rectángulo_401075" data-name="Rectángulo 401075" width="0.334" height="12.862" transform="translate(269.018 85.861)" fill="#626d7f"/>
              <rect id="Rectángulo_401076" data-name="Rectángulo 401076" width="14.485" height="4.41" transform="translate(273.172 85.875)" fill="#626d7f"/>
              <rect id="Rectángulo_401077" data-name="Rectángulo 401077" width="12.907" height="2.136" transform="translate(273.172 91.109)" fill="#626d7f"/>
              <rect id="Rectángulo_401078" data-name="Rectángulo 401078" width="12.907" height="1.114" transform="translate(273.172 93.802)" fill="#626d7f"/>
              <rect id="Rectángulo_401079" data-name="Rectángulo 401079" width="12.907" height="1.114" transform="translate(273.172 95.517)" fill="#626d7f"/>
              <rect id="Rectángulo_401080" data-name="Rectángulo 401080" width="12.907" height="1.114" transform="translate(273.172 97.203)" fill="#626d7f"/>
              <path id="Trazado_873543" data-name="Trazado 873543" d="M416.774,331.019H401.789V316.034h14.985Zm-14.485-.5h13.985V316.534H402.289Z" transform="translate(-200.969 -158.075)" fill="#8c6348"/>
              <path id="Trazado_873544" data-name="Trazado 873544" d="M450.492,331.019H435.507V316.034h14.985Zm-14.485-.5h13.985V316.534H436.007Z" transform="translate(-217.834 -158.075)" fill="#8c6348"/>
              <path id="Trazado_873545" data-name="Trazado 873545" d="M484.211,331.019H469.226V316.034h14.985Zm-14.485-.5h13.985V316.534H469.726Z" transform="translate(-234.7 -158.075)" fill="#8c6348"/>
              <path id="Trazado_873546" data-name="Trazado 873546" d="M412.5,321.855a4.631,4.631,0,1,0,4.631,4.631,4.631,4.631,0,0,0-4.631-4.631m4,4.631a3.993,3.993,0,0,1-.221,1.3,8.579,8.579,0,0,0-.66-1.4,7.292,7.292,0,0,0,.44-1.727,3.981,3.981,0,0,1,.442,1.822m-.888-2.51a7.3,7.3,0,0,1-.333,1.884,7.253,7.253,0,0,0-2.462-2.248,7.357,7.357,0,0,1,1.577-.65,4,4,0,0,1,1.218,1.014m-1.4,4.64.928.873a3.961,3.961,0,0,1-.622.449,7.493,7.493,0,0,1-1.356-.386,7.833,7.833,0,0,0,1.049-.935m-1.565.71a6.57,6.57,0,0,1-2.775-2.6,6.378,6.378,0,0,1,.856-1.388l3.132,2.943a7.238,7.238,0,0,1-1.213,1.042m-1.94-4.7-1.035-.972a4.043,4.043,0,0,1,.449-.382,7.313,7.313,0,0,1,1.672.412,7.639,7.639,0,0,0-1.087.942m-.336.377a6.906,6.906,0,0,0-.79,1.185A7.586,7.586,0,0,1,409,324.55a3.975,3.975,0,0,1,.34-.512Zm.689-.046a7.01,7.01,0,0,1,1.262-1.049,6.674,6.674,0,0,1,2.75,2.506,6.438,6.438,0,0,1-.884,1.482Zm2.638-2.293a8.611,8.611,0,0,0-1.4.687,7.348,7.348,0,0,0-1.508-.48,3.981,3.981,0,0,1,2.908-.207m-5.011,2.611a8.6,8.6,0,0,0,.633,1.46,7.448,7.448,0,0,0-.436,1.451,3.978,3.978,0,0,1-.2-2.911m.6,3.587a7.422,7.422,0,0,1,.358-1.583,7.11,7.11,0,0,0,2.514,2.352,7.269,7.269,0,0,1-1.173.555,4.008,4.008,0,0,1-1.7-1.324m2.45,1.548a8.7,8.7,0,0,0,.934-.522,7.474,7.474,0,0,0,1.09.39,3.95,3.95,0,0,1-2.024.132m3.758-1.282-.955-.9a6.984,6.984,0,0,0,.831-1.288,7.092,7.092,0,0,1,.6,1.53,3.993,3.993,0,0,1-.472.656" transform="translate(-204.012 -160.987)" fill="#8c6348"/>
              <path id="Trazado_873547" data-name="Trazado 873547" d="M450.645,326.013l-4.046-4.046-4.046,4.046h1.876v4.629h4.339v-4.629Z" transform="translate(-221.358 -161.043)" fill="#8c6348"/>
              <path id="Trazado_873548" data-name="Trazado 873548" d="M479.567,330.824a3.491,3.491,0,0,1-1.7-3.776,9.5,9.5,0,0,0,.385-3.66s1,.693,1.195,1.31a4.841,4.841,0,0,1,2.032-4.132,2.687,2.687,0,0,0,.318,1.994,6.22,6.22,0,0,1,.809,1.994l.491-1.734s3.757,6.589-1.1,8.063c0,0,1.416-3.164-.853-5.029a2.924,2.924,0,0,1-.231,1.459c-.318.52-.723,1.156-.636,1.575a1.69,1.69,0,0,1-.318-1.069s-1.219.925-.4,3.005" transform="translate(-238.972 -160.342)" fill="#8c6348"/>
              <path id="Trazado_873549" data-name="Trazado 873549" d="M270.518,315.465a9.569,9.569,0,0,1,6.868-11.641,37.181,37.181,0,0,1,12.177-1.264c10.927.856,21.944-9.8,30.382-5.842s6.118,16.493-13.625,20.158c0,0-7.5,2.329-11.523,6.746s-10.546,12.094-18.444,14.678c0,0-3.455-13.626-5.834-22.834" transform="translate(-135.156 -147.971)" fill="#f7c59f"/>
              <path id="Trazado_873550" data-name="Trazado 873550" d="M351.22,303.677s2.711,8.961,4.985,11.3c.669-8.477-4.985-11.3-4.985-11.3" transform="translate(-175.675 -151.895)" fill="#ffe1cc"/>
              <path id="Trazado_873551" data-name="Trazado 873551" d="M355.835,313.6l-.114-.118c-2.291-2.354-4.934-11.032-5.045-11.4l-.065-.216.208-.087c.251-.106,6.211-2.563,9.885-.812a4.579,4.579,0,0,1,2.48,2.982c1.785,6.082-7.1,9.559-7.195,9.593Zm-4.613-11.444c.425,1.361,2.757,8.631,4.743,10.856,1.151-.483,8.269-3.708,6.739-8.923a4.1,4.1,0,0,0-2.215-2.671c-3.1-1.479-8.175.319-9.267.739" transform="translate(-175.37 -150.223)" fill="#efae8e"/>
              <path id="Trazado_873552" data-name="Trazado 873552" d="M329.745,318.085l3.545,8.042s-.234-3.431-3.545-8.042" transform="translate(-164.933 -159.101)" fill="#e5a980"/>
              <path id="Trazado_873553" data-name="Trazado 873553" d="M333.572,318.548s2.831,4.995,1.922,8.445c0,0,2.344-3.719-1.922-8.445" transform="translate(-166.848 -159.333)" fill="#e5a980"/>
              <path id="Trazado_873554" data-name="Trazado 873554" d="M329.395,321.37a24.509,24.509,0,0,0,2.642,6.72,10.065,10.065,0,0,1-2.642-6.72" transform="translate(-164.756 -160.744)" fill="#e5a980"/>
              <path id="Trazado_873555" data-name="Trazado 873555" d="M325.16,372.848s7.346-.567,10.041,1.745a2.675,2.675,0,0,0-.5-1.467s2.982-2.4,4.325-3.659-13.869,3.381-13.869,3.381" transform="translate(-162.64 -184.693)" fill="#e5a980"/>
              <path id="Trazado_873556" data-name="Trazado 873556" d="M101.048,330.821s3.652,47.417,8.216,52.261l-18.326,5.832-5.165-.956L83.9,391.492,18.946,416.664,0,349.6Z" transform="translate(0 -165.472)" fill="#34344f"/>
              <path id="Trazado_873557" data-name="Trazado 873557" d="M101.048,330.821s.487,6.325,1.328,14.588a115.251,115.251,0,0,1-11.95,6.793c-23.117,11.442-29.374,7.984-40.353,8.16-7.132.115-28.424,9.543-42.473,16.139L0,349.6Z" transform="translate(0 -165.472)" fill="#3b3b59"/>
              <path id="Trazado_873558" data-name="Trazado 873558" d="M292,297.935c-6.221-4.083-14.821-.571-20.769,2.562a17.517,17.517,0,0,1-4.4,1.713c-3.108.531-6.022.374-9.092.665-5.853.505-11.906.8-17.494,2.731-5.385,1.9-10.62,5.272-13.38,10.382l-.154.326-.284.069c-4.874,1.168-12.225,3.011-17.063,4.116,2.344-.8,5.939-1.936,8.346-2.716l8.356-2.68-.438.395c2.636-5.845,8.23-9.474,14.025-11.575,5.786-2.031,11.9-2.429,17.956-2.943,2.9-.249,6.043-.1,8.859-.549,2.762-.57,5.463-2.385,8.128-3.384,5.362-2.161,12.956-3.975,17.4.888" transform="translate(-104.721 -147.477)" fill="#ffe5cf"/>
            </g>
          </g>
        </g>
      </g>
    </g>
    <path id="Trazado_876791" data-name="Trazado 876791" d="M20-1.5H259.5A21.483,21.483,0,0,1,281,20V203.422a21.483,21.483,0,0,1-21.5,21.5H20a21.483,21.483,0,0,1-21.5-21.5V20A21.483,21.483,0,0,1,20-1.5ZM259.5,221.922a18.521,18.521,0,0,0,18.5-18.5V20A18.521,18.521,0,0,0,259.5,1.5H20A18.521,18.521,0,0,0,1.5,20V203.422a18.521,18.521,0,0,0,18.5,18.5Z" transform="translate(1049 6511.234)" fill="#ff725d"/>
  </g>
</svg>
