<svg xmlns="http://www.w3.org/2000/svg" xmlns:xlink="http://www.w3.org/1999/xlink" width="243.5" height="164.781" viewBox="0 0 243.5 164.781">
  <defs>
    <clipPath id="clip-path">
      <rect id="Rectángulo_401513" data-name="Rectángulo 401513" width="171.866" height="153.094" fill="none"/>
    </clipPath>
    <clipPath id="clip-path-2">
      <rect id="Rectángulo_401509" data-name="Rectángulo 401509" width="171.867" height="153.095" fill="none"/>
    </clipPath>
    <clipPath id="clip-path-3">
      <rect id="Rectángulo_401508" data-name="Rectángulo 401508" width="34.939" height="20.165" fill="none"/>
    </clipPath>
    <clipPath id="clip-path-5">
      <rect id="Rectángulo_401511" data-name="Rectángulo 401511" width="17.245" height="17.927" fill="none"/>
    </clipPath>
  </defs>
  <g id="Grupo_1100073" data-name="Grupo 1100073" transform="translate(-338 -8241.678)">
    <g id="Grupo_1099746" data-name="Grupo 1099746" transform="translate(0 1902)">
      <rect id="Rectángulo_401023" data-name="Rectángulo 401023" width="160.605" height="164.781" rx="20" transform="translate(395.24 6339.678)" fill="#53bced"/>
      <g id="Grupo_1099700" data-name="Grupo 1099700" transform="translate(338 6345.521)">
        <g id="Grupo_1099699" data-name="Grupo 1099699" clip-path="url(#clip-path)">
          <g id="Grupo_1099693" data-name="Grupo 1099693" transform="translate(0 -0.001)">
            <g id="Grupo_1099692" data-name="Grupo 1099692" clip-path="url(#clip-path-2)">
              <g id="Grupo_1099691" data-name="Grupo 1099691" transform="translate(4.587 132.93)" opacity="0.3">
                <g id="Grupo_1099690" data-name="Grupo 1099690">
                  <g id="Grupo_1099689" data-name="Grupo 1099689" clip-path="url(#clip-path-3)">
                    <path id="Trazado_876069" data-name="Trazado 876069" d="M27.282,71.736,1.78,57.013l9.436-5.441,25.5,14.723Z" transform="translate(-1.78 -51.571)"/>
                  </g>
                </g>
              </g>
            </g>
          </g>
          <path id="Trazado_876070" data-name="Trazado 876070" d="M2.353,53.922v5.758L26.425,73.574V67.823L19.377,55.6,9.4,49.852Z" transform="translate(3.711 78.646)" fill="#9fb366"/>
          <path id="Trazado_876071" data-name="Trazado 876071" d="M15.062,58.387,5.089,52.636l7.9-4.549,9.973,5.756-5.529,4.833Z" transform="translate(8.028 75.861)" fill="#cfdb77"/>
          <path id="Trazado_876072" data-name="Trazado 876072" d="M16,67.085,8.958,54.865l7.905-4.544L23.91,62.535l-3.382,4.379Z" transform="translate(14.132 79.384)" fill="#87a15f"/>
          <path id="Trazado_876073" data-name="Trazado 876073" d="M11.692,59.609v5.751L19.6,60.82V55.059Z" transform="translate(18.445 86.86)" fill="#79995a"/>
          <path id="Trazado_876074" data-name="Trazado 876074" d="M30.357,45.559,11.817,71.535l4.714-2.722L39.765,50.969Z" transform="translate(18.642 71.872)" fill="#6a7147"/>
          <path id="Trazado_876075" data-name="Trazado 876075" d="M33.23,45.559,10,63.413l4.694,8.122L37.916,53.691Z" transform="translate(15.769 71.872)" fill="#9fb366"/>
          <path id="Trazado_876076" data-name="Trazado 876076" d="M41.765,56.606,34.718,44.4l-9.97-5.763L17.7,42.705V54.222l7.052,12.215,9.97,5.756,7.047-4.075Z" transform="translate(27.916 60.945)" fill="#e3bd5e"/>
          <path id="Trazado_876077" data-name="Trazado 876077" d="M30.4,47.175l-9.97-5.761,7.9-4.544L38.3,42.623l-5.526,4.833Z" transform="translate(32.233 58.165)" fill="#fbe979"/>
          <path id="Trazado_876078" data-name="Trazado 876078" d="M31.347,55.864,24.3,43.654,32.2,39.1l7.05,12.215L35.873,55.7Z" transform="translate(38.334 61.687)" fill="#d6a950"/>
          <path id="Trazado_876079" data-name="Trazado 876079" d="M27.034,59.9V48.387l7.905-4.544V55.356Z" transform="translate(42.647 69.164)" fill="#cc934c"/>
          <path id="Trazado_876080" data-name="Trazado 876080" d="M53.1,50.565,49.92,45.049V42.026l-18.8.09-4.709,2.722,21.979,8.447Z" transform="translate(41.659 66.299)" fill="#fbe979"/>
          <path id="Trazado_876081" data-name="Trazado 876081" d="M48.388,51.62,45.2,46.114V43.081l-18.8.1,3.183,5.506v3.031Z" transform="translate(41.658 67.963)" fill="#e3bd5e"/>
          <path id="Trazado_876082" data-name="Trazado 876082" d="M57.173,56.53,50.121,44.323l-9.973-5.763-7.055,4.07V54.143l7.055,12.215,9.973,5.761,7.052-4.075Z" transform="translate(52.207 60.83)" fill="#fdb053"/>
          <path id="Trazado_876083" data-name="Trazado 876083" d="M45.8,47.105,35.83,41.344l7.9-4.549,9.978,5.758-5.531,4.833Z" transform="translate(56.525 58.047)" fill="#fdd293"/>
          <path id="Trazado_876084" data-name="Trazado 876084" d="M46.752,55.789,39.7,43.581,47.6,39.029l7.047,12.21L51.27,55.619Z" transform="translate(62.629 61.571)" fill="#ff9f3d"/>
          <path id="Trazado_876085" data-name="Trazado 876085" d="M42.436,59.83V48.316l7.9-4.549V55.28Z" transform="translate(66.945 69.044)" fill="#ff8e1c"/>
          <path id="Trazado_876086" data-name="Trazado 876086" d="M71.62,38.233l-4.488,5.789-.951,2.42L47.272,52.128,41.73,50.293l4.712-2.722Z" transform="translate(65.832 60.314)" fill="#ff8e1c"/>
          <path id="Trazado_876087" data-name="Trazado 876087" d="M70.282,47.814,66.9,41.96V39.285L41.73,48.631,45.1,54.485v2.668Z" transform="translate(65.832 61.974)" fill="#fdb053"/>
          <path id="Trazado_876088" data-name="Trazado 876088" d="M73.939,50.974l-7.052-12.21-9.973-5.758-7.055,4.067V48.59l7.055,12.218,9.973,5.758,7.052-4.078Z" transform="translate(78.656 52.069)" fill="#fdb053"/>
          <path id="Trazado_876089" data-name="Trazado 876089" d="M62.568,41.546,52.6,35.791,60.5,31.241l9.97,5.753-5.526,4.833Z" transform="translate(82.973 49.285)" fill="#fdd293"/>
          <path id="Trazado_876090" data-name="Trazado 876090" d="M63.517,50.236l-7.052-12.21,7.9-4.552,7.052,12.21-3.384,4.384Z" transform="translate(89.078 52.807)" fill="#ff9f3d"/>
          <path id="Trazado_876091" data-name="Trazado 876091" d="M59.2,54.275V42.761l7.9-4.549V49.728Z" transform="translate(93.394 60.281)" fill="#ff8e1c"/>
          <path id="Trazado_876092" data-name="Trazado 876092" d="M63.065,50.169l-4.712,2.724-1.73-4.008L55.512,23.03l7.552,4.361Z" transform="translate(87.574 36.331)" fill="#ab281f"/>
          <path id="Trazado_876093" data-name="Trazado 876093" d="M61.235,51.226l-7.55-4.359V24.086l7.55,4.359Z" transform="translate(84.693 37.998)" fill="#fa5c52"/>
          <path id="Trazado_876094" data-name="Trazado 876094" d="M47.239,8.563V31.728L61.421,56.3,81.474,67.881l14.182-8.192V36.53L81.474,11.96,61.421.372Z" transform="translate(74.523 0.586)" fill="#991f16"/>
          <path id="Trazado_876095" data-name="Trazado 876095" d="M93.878,37.555,79.691,12.99,59.635,1.407,45.45,9.6V32.763L59.635,57.322,79.691,68.9l14.187-8.184Z" transform="translate(71.701 2.219)" fill="#c84030"/>
          <path id="Trazado_876096" data-name="Trazado 876096" d="M85.595,32.663,74.416,13.311l-15.8-9.125L47.444,10.635V28.882L58.613,48.234l15.8,9.117,11.179-6.444Z" transform="translate(74.846 6.604)" fill="#f4efe9"/>
          <path id="Trazado_876097" data-name="Trazado 876097" d="M78.027,28.2,69.6,13.6,57.688,6.721l-8.423,4.874V25.349l8.423,14.589L69.6,46.82l8.424-4.861Z" transform="translate(77.718 10.603)" fill="#c84030"/>
          <path id="Trazado_876098" data-name="Trazado 876098" d="M70.085,23.508l-5.537-9.6L56.71,9.388l-5.534,3.188v9.045l5.534,9.607,7.838,4.518,5.537-3.2Z" transform="translate(80.733 14.811)" fill="#f4efe9"/>
          <path id="Trazado_876099" data-name="Trazado 876099" d="M62.468,19.009l-2.773-4.8-3.913-2.268-2.773,1.6v4.526l2.773,4.8,3.913,2.261,2.773-1.593Z" transform="translate(83.625 18.839)" fill="#c84030"/>
          <path id="Trazado_876100" data-name="Trazado 876100" d="M50.953,3.039,71.01,14.623l2.67.314,1.936-2.98L55.56.372Z" transform="translate(80.383 0.586)" fill="#fa5c52"/>
          <path id="Trazado_876101" data-name="Trazado 876101" d="M54.419,0,52.741.959,72.8,12.545l1.366.577.312-1.544Z" transform="translate(83.202 0)" fill="#fff"/>
          <path id="Trazado_876102" data-name="Trazado 876102" d="M66.408,14.023l-.384.969V38.154l1.686-.964L67.7,14.023Z" transform="translate(104.157 22.122)" fill="#d1d1d1"/>
          <rect id="Rectángulo_401510" data-name="Rectángulo 401510" width="1.939" height="28.367" transform="translate(155.999 12.547) rotate(-29.994)" fill="#f4efe9"/>
          <path id="Trazado_876103" data-name="Trazado 876103" d="M58.734,7.53,72.921,32.094l2.549,1.111,2.052-3.768L63.34,4.867Z" transform="translate(92.657 7.679)" fill="#bf261b"/>
          <path id="Trazado_876104" data-name="Trazado 876104" d="M64.238,17.057V40.222l4.6-2.663V14.4Z" transform="translate(101.34 22.716)" fill="#991f16"/>
          <path id="Trazado_876105" data-name="Trazado 876105" d="M7.919,53.451l2.616,3.719,5.037.593v.68L13.16,59.591l-3.812-.412-3.307-4.4L5.306,44.93l.2-.428,1.8,3.444Z" transform="translate(8.37 70.204)" fill="#0a0808"/>
          <path id="Trazado_876106" data-name="Trazado 876106" d="M13.3,49.033l-.41,3.351,2.562,4.758v1.982l-2.415,1.142-3.81-.412L6.116,55.72l-.735-9.854,1.6-2.227,4.629.541Z" transform="translate(8.489 68.843)" fill="#6b4414"/>
          <path id="Trazado_876107" data-name="Trazado 876107" d="M29.324,39.513l3.026,2.681L35.995,43.8v.6l-1.369.735-4.189-.583-4.173-3.64-2.84-.428-1.9-1.536v-.6l3.872.137Z" transform="translate(33.952 60.501)" fill="#0a0808"/>
          <path id="Trazado_876108" data-name="Trazado 876108" d="M28.847,37.5l2.784,3.371,4.1,3.078.263,3.217-1.369.735-4.189-.577-4.173-3.647-2.84-.425-1.9-1.536.036-5.493,3.776.183Z" transform="translate(33.952 57.139)" fill="#6b4414"/>
          <path id="Trazado_876109" data-name="Trazado 876109" d="M22.115,29.08l4.459.356,1.807-4.021-3.134-1.99-3.5,2.145Z" transform="translate(34.311 36.955)" fill="#a39c95"/>
          <path id="Trazado_876110" data-name="Trazado 876110" d="M25.15,29.445l-3.629-2.879,1.431-3,3.078-.144,2.415,3.374-.879,2.116Z" transform="translate(33.951 36.945)" fill="#fff"/>
          <path id="Trazado_876111" data-name="Trazado 876111" d="M21.679,36.12l2.864,2.931,4.75,6.627L31.8,42.312l3.756-.3-6.08-7.563L23.69,16.286,20.942,13.27,17.2,12.9l1.289,15.161Z" transform="translate(27.133 20.357)" fill="#211a1a"/>
          <path id="Trazado_876112" data-name="Trazado 876112" d="M26.578,40.986l13.71-1.273L37.567,53.435l2.722,2.2,5.627-.59,1.2-6.215,4.274-11.9-.441-5.374-11.95-4.887L30.1,25.329,11.128,26.662Z" transform="translate(17.556 39.959)" fill="#0a0808"/>
          <path id="Trazado_876113" data-name="Trazado 876113" d="M15.181,33.817,10.836,55.84,7.676,60.77,5.941,71.413,8.3,77.857l4.567-.683L17.55,64.142l4.2-6.766,6.372-13.934,6.642-3.129,4.591-14.556-20.417.714Z" transform="translate(9.372 40.633)" fill="#211a1a"/>
          <path id="Trazado_876114" data-name="Trazado 876114" d="M14.332,33.394,20.3,31.342l4.173-2.879V25.174L14.825,29.09Z" transform="translate(22.61 39.714)" fill="#693121"/>
          <path id="Trazado_876115" data-name="Trazado 876115" d="M13.855,47.191l7.413-2.008L25.8,42.064,27.356,25.49,22.961,14.721l-8.516,3.413Z" transform="translate(21.857 23.224)" fill="#fff"/>
          <path id="Trazado_876116" data-name="Trazado 876116" d="M13.073,13.228l-.121,1.964.68,3.637,5.591,3.225L20.533,23.7l1.343.191.7-1.464.3-5.467L12.9,11.887Z" transform="translate(20.343 18.753)" fill="#c7a495"/>
          <path id="Trazado_876117" data-name="Trazado 876117" d="M17.1,16.213l-.449,1.3,1.217,2.32,2.678,9.89-.43,17.607,4.738,7.57,2.418-6.663,3.369-2.2-5.493-2.709-1.492-3.191,1.42-12.79L22.794,18.1l-4.436-4.933Z" transform="translate(26.265 20.774)" fill="#362c29"/>
          <path id="Trazado_876118" data-name="Trazado 876118" d="M18.838,13.943l-4.753,3.4-3.3,3.3,1.137,4.361,0,10.279.768,8.375L10.134,51.89,8.664,60.8l1.9,3.225,7.6,2.781,6.413-1,.647-20.412,2.242-13.805L26.1,21.091l-4.217-3.748Z" transform="translate(13.669 21.997)" fill="#362c29"/>
          <path id="Trazado_876119" data-name="Trazado 876119" d="M16.854,15.513l1.941,1.66-1.139-1.619-.91-.974Z" transform="translate(26.417 23.001)" fill="#d1d1d1"/>
          <path id="Trazado_876120" data-name="Trazado 876120" d="M16.79,20.019l.338-1.013,1.018-2.627-1.712-2.322Z" transform="translate(25.927 22.176)" fill="#fff"/>
          <path id="Trazado_876121" data-name="Trazado 876121" d="M16.415,17.665l1.348,10.3L16.307,44.376l.327,11.759,2.134,2.6L20.9,53.676,19.565,42.538l.046-15.69-2.444-9.638-.546-.668Z" transform="translate(25.726 26.099)" fill="#c84030"/>
          <path id="Trazado_876122" data-name="Trazado 876122" d="M15.858,17.25l1.266,1.309.755-.454.16-2.129Z" transform="translate(25.017 25.205)" fill="#fa5c52"/>
          <path id="Trazado_876123" data-name="Trazado 876123" d="M14.946,15.933l-.106.6,2.624,1.286-.879-2.2Z" transform="translate(23.412 24.64)" fill="#d1d1d1"/>
          <path id="Trazado_876124" data-name="Trazado 876124" d="M13.4,13.169l2.4,3.812,4.3,2.5-1.356,2.83-4.709-3.482-1.428-3.665Z" transform="translate(19.895 20.775)" fill="#fff"/>
          <path id="Trazado_876125" data-name="Trazado 876125" d="M27.424,11.8l.227,3.078-.8.83.4,1.273-.562,6.89-3.183,1.681-6.983-4.088-.415-2.067L14.9,18.945l-.639-.931-.727-1.165L12.487,13.73l4.547-4.544,7.086-.443Z" transform="translate(19.699 13.792)" fill="#f0c6b4"/>
          <path id="Trazado_876126" data-name="Trazado 876126" d="M14.265,18.466l1.312-1.144L17.315,19.1l.467,2.116.763.513V18.595l2.245-1.482.384-1.825,1.781,1.358,3.516.082,2.583-1.99-1.482-4.276-4.913-3.7-4.918.3-1.7,1.526-2.186.448-1.8,4.258.338,4.279,1.74,3.812.8-.253Z" transform="translate(19.024 10.67)" fill="#685750"/>
          <path id="Trazado_876127" data-name="Trazado 876127" d="M13.688,7.643,17.8,12.635,15.088,7.893Z" transform="translate(21.594 12.057)" fill="#544540"/>
          <path id="Trazado_876128" data-name="Trazado 876128" d="M0,44.394,16.543,57.532l3.145-10.274L1.431,34.832Z" transform="translate(0 54.949)" fill="#87511b"/>
          <g id="Grupo_1099698" data-name="Grupo 1099698" transform="translate(0 -0.001)">
            <g id="Grupo_1099697" data-name="Grupo 1099697" clip-path="url(#clip-path-2)">
              <g id="Grupo_1099696" data-name="Grupo 1099696" transform="translate(0.719 89.783)" opacity="0.3">
                <g id="Grupo_1099695" data-name="Grupo 1099695">
                  <g id="Grupo_1099694" data-name="Grupo 1099694" clip-path="url(#clip-path-5)">
                    <path id="Trazado_876129" data-name="Trazado 876129" d="M16.814,52.759.279,39.611l.714-4.779L17.523,47.98Z" transform="translate(-0.279 -34.832)"/>
                  </g>
                </g>
              </g>
            </g>
          </g>
          <path id="Trazado_876130" data-name="Trazado 876130" d="M.751,33.877l16.344,14.45,3.5-3.89L2.24,32.008Z" transform="translate(1.184 50.495)" fill="#a16739"/>
          <path id="Trazado_876131" data-name="Trazado 876131" d="M.2,42.3l16.538,13.14,1.541-5.5-.119-4.062L1.623,32.733Z" transform="translate(0.312 51.638)" fill="#87511b"/>
          <path id="Trazado_876132" data-name="Trazado 876132" d="M11.47,36.982,9.916,37.6,8.651,39.19,6.418,54.14l1.039-.059,1.554-.613,1.157-.8,2.23-14.95Z" transform="translate(10.125 58.341)" fill="#573711"/>
          <path id="Trazado_876133" data-name="Trazado 876133" d="M6.926,48.862,9.6,41.8l1.461-3.057.041-.619.99-.175-.747-1.124-1.817.719-1.49,1.869L6.614,48.981Z" transform="translate(10.434 58.102)" fill="#573711"/>
          <path id="Trazado_876134" data-name="Trazado 876134" d="M17.866,45.594,1.328,32.443l1.817-.711L19.683,44.874Z" transform="translate(2.095 50.058)" fill="#b87139"/>
          <path id="Trazado_876135" data-name="Trazado 876135" d="M.909,38.763,2.76,40.237,3.151,37.6,1.293,36.131Z" transform="translate(1.434 56.999)" fill="#e6e1dd"/>
          <path id="Trazado_876136" data-name="Trazado 876136" d="M2.019,36.778l-.392,2.632.312-.113.394-2.642Z" transform="translate(2.567 57.824)" fill="#bfa69d"/>
          <path id="Trazado_876137" data-name="Trazado 876137" d="M1.058,36.206l1.858,1.474.312-.124L1.375,36.083Z" transform="translate(1.67 56.923)" fill="#f7f2e8"/>
          <path id="Trazado_876138" data-name="Trazado 876138" d="M1.379,36.864l.191.343.039.294.353-.289-.155-.407Z" transform="translate(2.175 58.062)" fill="#e6e1dd"/>
          <path id="Trazado_876139" data-name="Trazado 876139" d="M1.569,37.081l-.129.157.064.281.3-.119.054-.438Z" transform="translate(2.272 58.312)" fill="#bfa69d"/>
          <path id="Trazado_876140" data-name="Trazado 876140" d="M1.059,36.677l-.077.438.173.415.84.673.235-.1.064-.438-.165-.412-.838-.662Z" transform="translate(1.549 57.726)" fill="#e6e1dd"/>
          <path id="Trazado_876141" data-name="Trazado 876141" d="M1.1,36.669l.838.662.3-.113-.851-.675Z" transform="translate(1.738 57.648)" fill="#f7f2e8"/>
          <path id="Trazado_876142" data-name="Trazado 876142" d="M4.945,41.98,6.8,43.455l.389-2.637L5.335,39.341Z" transform="translate(7.802 62.063)" fill="#e6e1dd"/>
          <path id="Trazado_876143" data-name="Trazado 876143" d="M6.056,39.988l-.389,2.634.317-.121.387-2.634Z" transform="translate(8.939 62.893)" fill="#bfa69d"/>
          <path id="Trazado_876144" data-name="Trazado 876144" d="M5.1,39.417l1.858,1.477.314-.119L5.414,39.293Z" transform="translate(8.04 61.987)" fill="#f7f2e8"/>
          <path id="Trazado_876145" data-name="Trazado 876145" d="M5.416,40.08l.191.345.036.291.366-.291-.162-.41Z" transform="translate(8.544 63.127)" fill="#e6e1dd"/>
          <path id="Trazado_876146" data-name="Trazado 876146" d="M5.607,40.29l-.126.165.059.268.307-.119.059-.43Z" transform="translate(8.646 63.378)" fill="#bfa69d"/>
          <path id="Trazado_876147" data-name="Trazado 876147" d="M5.092,39.894l-.07.441.16.407.848.673.232-.1.07-.433-.16-.412L5.326,39.8Z" transform="translate(7.923 62.788)" fill="#e6e1dd"/>
          <path id="Trazado_876148" data-name="Trazado 876148" d="M5.14,39.873l.848.668.3-.116-.848-.67Z" transform="translate(8.109 62.716)" fill="#f7f2e8"/>
          <path id="Trazado_876149" data-name="Trazado 876149" d="M3.51,33.291l-.036.26.289.227.451.07.333-.134.039-.255L4.3,33.227l-.446-.07Z" transform="translate(5.48 52.308)" fill="#e6e1dd"/>
          <path id="Trazado_876150" data-name="Trazado 876150" d="M3.448,33.727l.291.24.088-.392L3.8,33.537l-.289-.227Z" transform="translate(5.439 52.549)" fill="#a39c95"/>
          <path id="Trazado_876151" data-name="Trazado 876151" d="M3.561,33.828,4,33.887l.1-.387-.034-.031L3.623,33.4Z" transform="translate(5.618 52.687)" fill="#bfb8af"/>
          <path id="Trazado_876152" data-name="Trazado 876152" d="M3.8,33.507l-.07.42.34-.144.064-.41Z" transform="translate(5.889 52.648)" fill="#d8d1c7"/>
          <path id="Trazado_876153" data-name="Trazado 876153" d="M3.715,32.491l-.028.152.16.129.26.034.193-.077.028-.152-.17-.124-.25-.039Z" transform="translate(5.817 51.135)" fill="#785b56"/>
          <path id="Trazado_876154" data-name="Trazado 876154" d="M3.571,34.534l.157.129.32-2.013-.018-.018L3.87,32.5Z" transform="translate(5.634 51.276)" fill="#574943"/>
          <path id="Trazado_876155" data-name="Trazado 876155" d="M3.632,34.585l.263.036.32-2.021-.021-.013-.26-.034Z" transform="translate(5.73 51.355)" fill="#362c29"/>
          <path id="Trazado_876156" data-name="Trazado 876156" d="M4.033,32.615l-.3,2.034.188-.075.3-2.039Z" transform="translate(5.891 51.327)" fill="#0a0808"/>
          <path id="Trazado_876157" data-name="Trazado 876157" d="M5.979,35.25l-.041.255.286.232.443.064.343-.131.036-.255-.284-.235-.443-.064Z" transform="translate(9.367 55.399)" fill="#e6e1dd"/>
          <path id="Trazado_876158" data-name="Trazado 876158" d="M5.91,35.682l.291.229.088-.381L6.269,35.5l-.289-.232Z" transform="translate(9.324 55.637)" fill="#a39c95"/>
          <path id="Trazado_876159" data-name="Trazado 876159" d="M6.024,35.77l.451.067.1-.384-.039-.031-.443-.064Z" transform="translate(9.503 55.779)" fill="#bfb8af"/>
          <path id="Trazado_876160" data-name="Trazado 876160" d="M6.256,35.463l-.057.415.34-.137.059-.41Z" transform="translate(9.779 55.738)" fill="#d8d1c7"/>
          <path id="Trazado_876161" data-name="Trazado 876161" d="M6.174,34.45l-.023.155.168.126.25.034.2-.075.026-.147-.168-.129L6.37,34.37Z" transform="translate(9.703 54.221)" fill="#785b56"/>
          <path id="Trazado_876162" data-name="Trazado 876162" d="M6.034,36.487l.168.134.309-2.016L6.5,34.587l-.168-.126Z" transform="translate(9.518 54.364)" fill="#574943"/>
          <path id="Trazado_876163" data-name="Trazado 876163" d="M6.1,36.544l.25.039.317-2.021-.015-.018L6.4,34.51Z" transform="translate(9.621 54.442)" fill="#362c29"/>
          <path id="Trazado_876164" data-name="Trazado 876164" d="M6.5,34.57l-.3,2.039.191-.075.307-2.041Z" transform="translate(9.774 54.415)" fill="#0a0808"/>
          <path id="Trazado_876165" data-name="Trazado 876165" d="M4.224,32.19l-.464.583-.085.6.335.265.57-.224.461-.583.09-.6-.33-.263Z" transform="translate(5.798 50.432)" fill="#bfb8af"/>
          <path id="Trazado_876166" data-name="Trazado 876166" d="M3.676,32.023l.477.43.07,0,.58-.222L4.256,31.8Z" transform="translate(5.799 50.165)" fill="#e6e1dd"/>
          <path id="Trazado_876167" data-name="Trazado 876167" d="M3.5,32.469l.469.459.075-.026.464-.583-.549-.433Z" transform="translate(5.517 50.302)" fill="#d8d1c7"/>
          <path id="Trazado_876168" data-name="Trazado 876168" d="M3.46,32.72l.552.43.085-.606-.541-.433Z" transform="translate(5.459 50.659)" fill="#a39c95"/>
          <path id="Trazado_876169" data-name="Trazado 876169" d="M6.42,34.021l-.338.423-.064.433.25.2.4-.168L7,34.49l.064-.433-.242-.2Z" transform="translate(9.494 53.418)" fill="#785b56"/>
          <path id="Trazado_876170" data-name="Trazado 876170" d="M9.744,36.859l.4-.16-5.83-4.637-.407.155L9.7,36.856Z" transform="translate(6.17 50.58)" fill="#836e69"/>
          <path id="Trazado_876171" data-name="Trazado 876171" d="M9.611,37.187l.338-.423-5.83-4.642-.338.428L9.565,37.2Z" transform="translate(5.965 50.675)" fill="#685750"/>
          <path id="Trazado_876172" data-name="Trazado 876172" d="M9.59,37.358l.062-.433L3.824,32.288l-.07.436Z" transform="translate(5.923 50.936)" fill="#403531"/>
          <path id="Trazado_876173" data-name="Trazado 876173" d="M6.7,34.149l-.469.585-.1.606.343.263.57-.224.461-.585.09-.6-.338-.265Z" transform="translate(9.677 53.519)" fill="#bfb8af"/>
          <path id="Trazado_876174" data-name="Trazado 876174" d="M6.139,33.978l.477.43.075.005.562-.224-.541-.433Z" transform="translate(9.685 53.254)" fill="#e6e1dd"/>
          <path id="Trazado_876175" data-name="Trazado 876175" d="M5.958,34.433l.482.448.067-.018.469-.583-.552-.438Z" transform="translate(9.399 53.389)" fill="#d8d1c7"/>
          <path id="Trazado_876176" data-name="Trazado 876176" d="M5.926,34.672l.539.436.1-.606-.552-.43Z" transform="translate(9.348 53.75)" fill="#a39c95"/>
          <path id="Trazado_876177" data-name="Trazado 876177" d="M5.423,31.02,3.4,34.025l.76,3.6,3.3,2.972L9.805,39.08,8.364,37.948l.227-.619.706-.317,1.162.931.894-2.84L9.64,31.337Z" transform="translate(5.36 48.936)" fill="#f0c6b4"/>
          <path id="Trazado_876178" data-name="Trazado 876178" d="M4.843,29.069l-.735,4.985,2.235,1.539,2.676-1.126,1-3.73Z" transform="translate(6.481 45.859)" fill="#fff"/>
          <path id="Trazado_876179" data-name="Trazado 876179" d="M22.791,16.249l-5.637.882L6.519,36.785,4,50.361l2.2,2.2,4.585-.374,3.217-12.924L25.562,22.641Z" transform="translate(6.303 25.634)" fill="#211a1a"/>
          <path id="Trazado_876180" data-name="Trazado 876180" d="M23.765,25.666l-1.111,1.768.562,1.526H24.8l1.124,2.085,4.026-.1.7-1.451-.768-3.013-3.225-1.75Z" transform="translate(35.738 39.01)" fill="#f0c6b4"/>
          <path id="Trazado_876181" data-name="Trazado 876181" d="M20.087,23.7l.4,1.126,3.518-3.42Z" transform="translate(31.689 33.775)" fill="#0a0808"/>
        </g>
      </g>
      <rect id="Rectángulo_401024" data-name="Rectángulo 401024" width="157" height="78.734" rx="20" transform="translate(423 6409.819)" fill="none" stroke="#ff725d" stroke-miterlimit="10" stroke-width="3"/>
    </g>
  </g>
</svg>
