<svg xmlns="http://www.w3.org/2000/svg" width="212.288" height="214.511" viewBox="0 0 212.288 214.511">
  <g id="Grupo_1100053" data-name="Grupo 1100053" transform="translate(-690.765 -9521.244)">
    <rect id="Rect치ngulo_401395" data-name="Rect치ngulo 401395" width="149" height="201" rx="40" transform="translate(705.053 9528)" fill="none" stroke="#0d66bf" stroke-miterlimit="10" stroke-width="3"/>
    <rect id="Rect치ngulo_19304" data-name="Rect치ngulo 19304" width="212.288" height="214.511" transform="translate(690.765 9521.244)" fill="none"/>
    <g id="evaluacion-de-riesgos" transform="translate(714.052 9538.324)">
      <g id="Grupo_1099763" data-name="Grupo 1099763" transform="translate(13.173 9.992)">
        <g id="Grupo_1099754" data-name="Grupo 1099754">
          <path id="Trazado_876411" data-name="Trazado 876411" d="M133.606,54.437A6.978,6.978,0,0,1,140.57,61.4V189.579a6.98,6.98,0,0,1-6.964,6.974H26.322a6.98,6.98,0,0,1-6.965-6.974V61.4a6.978,6.978,0,0,1,6.965-6.964Z" transform="translate(-19.357 -41.168)" fill="#fff" fill-rule="evenodd"/>
          <path id="Trazado_876413" data-name="Trazado 876413" d="M146.321,82.7H50.763a3.143,3.143,0,0,0-3.138,3.138V202.3a3.135,3.135,0,0,0,3.138,3.129h95.557a3.141,3.141,0,0,0,3.138-3.129V85.842a3.149,3.149,0,0,0-3.138-3.138Z" transform="translate(-37.935 -59.746)" fill="#fff" fill-rule="evenodd"/>
          <path id="Trazado_876415" data-name="Trazado 876415" d="M121.048,24.786h9.938a3.068,3.068,0,0,0,2.872-1.89,11.846,11.846,0,0,1,21.765,0,3.069,3.069,0,0,0,2.872,1.89h9.928a3.148,3.148,0,0,1,3.138,3.138V39.77a3.141,3.141,0,0,1-3.138,3.129H121.048a3.133,3.133,0,0,1-3.129-3.129V27.924A3.141,3.141,0,0,1,121.048,24.786Z" transform="translate(-84.133 -15.729)" fill="#fff" fill-rule="evenodd"/>
          <path id="Trazado_876416" data-name="Trazado 876416" d="M165.294,57.134H117.919a3.133,3.133,0,0,0,3.129,3.129h47.375a3.14,3.14,0,0,0,3.138-3.129V45.288a3.148,3.148,0,0,0-3.138-3.138V54a3.145,3.145,0,0,1-3.129,3.138Z" transform="translate(-84.133 -33.093)" fill="#fff" fill-rule="evenodd"/>
        </g>
        <g id="Grupo_1099755" data-name="Grupo 1099755" transform="translate(39.362 34.127)">
          <path id="Trazado_876417" data-name="Trazado 876417" d="M137.737,115.286h10.376a3.953,3.953,0,0,1,3.5,2.015l3.719,6.435h20.551a3.554,3.554,0,0,1,3.551,3.552V147.6a3.551,3.551,0,0,1-3.551,3.54H137.737a3.551,3.551,0,0,1-3.551-3.54V118.826a3.551,3.551,0,0,1,3.551-3.54Z" transform="translate(-134.186 -115.286)" fill="#0d66bf" fill-rule="evenodd"/>
          <path id="Trazado_876418" data-name="Trazado 876418" d="M166.956,115.286h2.694a3.953,3.953,0,0,1,3.5,2.015l3.719,6.435H174.17l-3.718-6.435A3.953,3.953,0,0,0,166.956,115.286Zm27.765,8.45h2.694a3.554,3.554,0,0,1,3.551,3.552V147.6a3.551,3.551,0,0,1-3.551,3.54h-2.694a3.551,3.551,0,0,0,3.551-3.54V127.287A3.554,3.554,0,0,0,194.721,123.736Z" transform="translate(-155.723 -115.286)" fill="#ffc338" fill-rule="evenodd"/>
          <path id="Trazado_876419" data-name="Trazado 876419" d="M175.878,139.936a3.554,3.554,0,0,1,3.551,3.552V163.8a3.551,3.551,0,0,1-3.551,3.54H137.737a3.551,3.551,0,0,1-3.551-3.54V139.936Z" transform="translate(-134.186 -131.486)" fill="#0d66bf" fill-rule="evenodd"/>
          <path id="Trazado_876420" data-name="Trazado 876420" d="M176.817,140.2a3.546,3.546,0,0,1,2.783,3.462v20.317a3.551,3.551,0,0,1-3.551,3.54H137.908a3.548,3.548,0,0,1-3.462-2.772,3.464,3.464,0,0,0,.768.078h38.141a3.551,3.551,0,0,0,3.551-3.54V140.964A3.446,3.446,0,0,0,176.817,140.2Z" transform="translate(-134.357 -131.657)" fill="#ffd064" fill-rule="evenodd"/>
        </g>
        <g id="Grupo_1099758" data-name="Grupo 1099758" transform="translate(24.937 78.548)">
          <g id="Grupo_1099756" data-name="Grupo 1099756">
            <path id="Trazado_876421" data-name="Trazado 876421" d="M108.411,244.877H96.153a4.055,4.055,0,0,0-4.048,4.048v12.258a4.053,4.053,0,0,0,4.048,4.038h12.258a4.051,4.051,0,0,0,4.038-4.038V248.925A4.053,4.053,0,0,0,108.411,244.877Z" transform="translate(-92.105 -244.877)" fill="#0d66bf" fill-rule="evenodd"/>
            <path id="Trazado_876422" data-name="Trazado 876422" d="M99.58,244.877H96.153a4.055,4.055,0,0,0-4.048,4.048v12.258a4.053,4.053,0,0,0,4.048,4.038H99.58a4.053,4.053,0,0,1-4.048-4.038V248.925A4.055,4.055,0,0,1,99.58,244.877Z" transform="translate(-92.105 -244.877)" fill="#0d66bf" fill-rule="evenodd"/>
          </g>
          <g id="Grupo_1099757" data-name="Grupo 1099757" transform="translate(0 34.385)">
            <path id="Trazado_876423" data-name="Trazado 876423" d="M108.411,345.187H96.153a4.053,4.053,0,0,0-4.048,4.038v12.259a4.055,4.055,0,0,0,4.048,4.047h12.258a4.053,4.053,0,0,0,4.038-4.047V349.225A4.051,4.051,0,0,0,108.411,345.187Z" transform="translate(-92.105 -345.187)" fill="#0d66bf" fill-rule="evenodd"/>
            <path id="Trazado_876424" data-name="Trazado 876424" d="M99.58,345.187H96.153a4.053,4.053,0,0,0-4.048,4.038v12.259a4.055,4.055,0,0,0,4.048,4.047H99.58a4.055,4.055,0,0,1-4.048-4.047V349.225A4.053,4.053,0,0,1,99.58,345.187Z" transform="translate(-92.105 -345.187)" fill="#0d66bf" fill-rule="evenodd"/>
          </g>
        </g>
        <g id="Grupo_1099759" data-name="Grupo 1099759" transform="translate(88.389 37.092)">
          <path id="Trazado_876425" data-name="Trazado 876425" d="M280.461,168.381l42.759-42.758a6.1,6.1,0,0,1,8.6.182l1.76,1.76a6.1,6.1,0,0,1,.183,8.6l-42.759,42.759-13.03,3.228a.62.62,0,0,1-.744-.743Z" transform="translate(-277.214 -123.936)" fill="#0d66bf" fill-rule="evenodd"/>
          <path id="Trazado_876427" data-name="Trazado 876427" d="M277.232,266.624l3.228-13.03,10.545,10.545-13.03,3.228A.62.62,0,0,1,277.232,266.624Z" transform="translate(-277.214 -209.149)" fill="#0d66bf" fill-rule="evenodd"/>
          <path id="Trazado_876428" data-name="Trazado 876428" d="M277.232,281.081l.739-3L288,275.591l3,3-13.03,3.228a.62.62,0,0,1-.744-.743Z" transform="translate(-277.214 -223.606)" fill="#0d66bf" fill-rule="evenodd"/>
          <path id="Trazado_876429" data-name="Trazado 876429" d="M401.115,129.156l3.534-3.534a6.1,6.1,0,0,1,8.6.182l1.76,1.76a6.1,6.1,0,0,1,.183,8.6l-3.534,3.534Z" transform="translate(-358.644 -123.936)" fill="#0d66bf" fill-rule="evenodd"/>
        </g>
        <g id="Grupo_1099762" data-name="Grupo 1099762" transform="translate(83.583 93.999)">
          <g id="Grupo_1099760" data-name="Grupo 1099760">
            <path id="Trazado_876431" data-name="Trazado 876431" d="M308.483,293.469l32.167,55.7a7.034,7.034,0,0,1-6.094,10.551H270.236a7.034,7.034,0,0,1-6.087-10.551l32.161-55.7a7.026,7.026,0,0,1,12.174,0Z" transform="translate(-263.192 -289.952)" fill="#0d66bf" fill-rule="evenodd"/>
            <path id="Trazado_876432" data-name="Trazado 876432" d="M370.515,290.367a7.128,7.128,0,0,1,2.416-.415,6.918,6.918,0,0,1,6.087,3.517l32.167,55.7a7.034,7.034,0,0,1-6.094,10.551h-4.834a7.034,7.034,0,0,0,6.094-10.551l-32.167-55.7A6.924,6.924,0,0,0,370.515,290.367Z" transform="translate(-333.726 -289.952)" fill="#0d66bf" fill-rule="evenodd"/>
          </g>
          <g id="Grupo_1099761" data-name="Grupo 1099761" transform="translate(35.184 17.57)">
            <path id="Trazado_876433" data-name="Trazado 876433" d="M370.018,369.465a3.134,3.134,0,0,1-3.134-3.027l-.8-21.973a3.071,3.071,0,0,1,.879-2.3,3.039,3.039,0,0,1,2.262-.96h1.584a3.142,3.142,0,0,1,3.141,3.255l-.792,21.973A3.14,3.14,0,0,1,370.018,369.465Z" transform="translate(-365.998 -341.21)" fill="#ffdc39" fill-rule="evenodd"/>
            <path id="Trazado_876434" data-name="Trazado 876434" d="M369.854,443.953a4.02,4.02,0,1,0-4.02-4.02A4.027,4.027,0,0,0,369.854,443.953Z" transform="translate(-365.834 -403.45)" fill="#ffdc39" fill-rule="evenodd"/>
          </g>
        </g>
      </g>
      <path id="Trazado_876435" data-name="Trazado 876435" d="M94.232,169.168H19.719a9.787,9.787,0,0,1-9.771-9.763V30.149a9.8,9.8,0,0,1,9.771-9.771h24.3v-1.5a2.742,2.742,0,0,1,2.742-2.742H60.211a14.688,14.688,0,0,1,27.194,0h13.45a2.742,2.742,0,0,1,2.742,2.742v1.5h24.3a9.8,9.8,0,0,1,9.771,9.771V55.727l8-8a8.5,8.5,0,0,1,12.019-.009l1.636,1.622.014.014a8.543,8.543,0,0,1-.006,12.025L137.668,83.043V101.9a9.591,9.591,0,0,1,6.782,4.749l0,0,32.167,55.7h0a9.649,9.649,0,0,1,0,9.775l0,0a9.653,9.653,0,0,1-8.466,4.882H103.828a9.647,9.647,0,0,1-8.463-4.889v0a9.958,9.958,0,0,1-1.132-2.963ZM44.019,25.862h-24.3a4.3,4.3,0,0,0-4.287,4.287V159.405a4.292,4.292,0,0,0,4.287,4.278h75a10.194,10.194,0,0,1,.641-1.324l1.709-2.961H22.469a2.742,2.742,0,0,1-2.742-2.742V32.9a2.742,2.742,0,0,1,2.742-2.742H44.019Zm59.578,0v4.293h21.551A2.742,2.742,0,0,1,127.89,32.9V65.505l4.293-4.294V30.149a4.3,4.3,0,0,0-4.287-4.287Zm0,9.778v1.5a2.742,2.742,0,0,1-2.742,2.742H46.762a2.742,2.742,0,0,1-2.742-2.742v-1.5H25.211V153.914h75.03l22.165-38.391V98.306l-4.545,4.545a2.732,2.732,0,0,1-1.224.707l-13.157,3.529a2.734,2.734,0,0,1-.933.163H75.353a2.742,2.742,0,1,1,0-5.485h25.1l1.483-5.529H75.353a2.742,2.742,0,1,1,0-5.485h28.053l.089-.334a2.731,2.731,0,0,1,.707-1.225l18.2-18.2V35.64Zm28.587,52.887-4.293,4.294v13.247a9.6,9.6,0,0,1,4.293-3.553ZM107.548,96.4l-1.137,4.238,4.238-1.137Zm8.379.65L148.76,64.221l-5.928-5.928L110,91.126Zm36.7-36.7,2.839-2.839a3.06,3.06,0,0,0,0-4.3L153.831,51.6l-.014-.014a3.021,3.021,0,0,0-4.275,0l-.006.006L146.7,54.428ZM139.7,109.393a4.284,4.284,0,0,0-7.422,0l-32.16,55.7a4.292,4.292,0,0,0,3.711,6.439h64.322a4.291,4.291,0,0,0,3.718-6.439l-32.167-55.7Zm-.95,43a6.762,6.762,0,1,1-5.522,0,5.874,5.874,0,0,1-3.114-4.984l-.8-21.981v-.008a5.726,5.726,0,0,1,1.645-4.281l.005-.005a5.684,5.684,0,0,1,4.232-1.794h1.584a5.883,5.883,0,0,1,5.881,6.1L141.87,147.4a5.877,5.877,0,0,1-3.12,4.985Zm-2.761,7.449a1.278,1.278,0,1,0-1.278-1.278A1.28,1.28,0,0,0,135.989,159.839Zm0-12.248a.4.4,0,0,0,.4-.383l.792-21.976v0a.378.378,0,0,0-.114-.289l-.005-.005a.375.375,0,0,0-.281-.114H135.2a.4.4,0,0,0-.291.125.42.42,0,0,0-.109.3l.8,21.962h0A.4.4,0,0,0,135.989,147.591ZM51.179,76.346V49.082a6.112,6.112,0,0,1,6.107-6.1h9.83A6.41,6.41,0,0,1,72.8,46.246l.006.01,2.731,4.735H93.42A6.111,6.111,0,0,1,99.527,57.1V76.346a6.111,6.111,0,0,1-6.107,6.1H57.286a6.112,6.112,0,0,1-6.107-6.1ZM69.2,50.991,68.053,49a1.061,1.061,0,0,0-.937-.528h-9.83a.618.618,0,0,0-.623.612v1.909ZM93.42,56.475H56.663V76.346a.618.618,0,0,0,.622.612H93.42a.618.618,0,0,0,.622-.612V57.1A.623.623,0,0,0,93.42,56.475ZM61.225,97.723v7.64a6.8,6.8,0,0,1-6.79,6.781H42.177a6.8,6.8,0,0,1-6.781-6.781V93.1a6.8,6.8,0,0,1,6.781-6.79H54.436a6.806,6.806,0,0,1,6.354,4.4l3.937-3.571A2.742,2.742,0,1,1,68.411,91.2Zm-5.485-2.43V93.1a1.307,1.307,0,0,0-1.3-1.3H42.177a1.3,1.3,0,0,0-1.3,1.3v12.259a1.3,1.3,0,0,0,1.3,1.3H54.436a1.3,1.3,0,0,0,1.3-1.3V102.7l-1.791,1.624a2.742,2.742,0,0,1-3.782-.092l-5.946-5.946A2.742,2.742,0,0,1,48.1,94.406l4.1,4.1Zm19.612,46.57a2.742,2.742,0,0,1,0-5.485h27.193a2.742,2.742,0,0,1,0,5.485Zm0-11.014a2.742,2.742,0,1,1,0-5.485H111.6a2.742,2.742,0,1,1,0,5.485Zm-14.128,1.259v7.631a6.8,6.8,0,0,1-6.79,6.79H42.177a6.8,6.8,0,0,1-6.781-6.79V127.48a6.8,6.8,0,0,1,6.781-6.781H54.436a6.81,6.81,0,0,1,6.355,4.4l3.936-3.57a2.742,2.742,0,1,1,3.685,4.062Zm-5.485-2.43v-2.2a1.3,1.3,0,0,0-1.3-1.3H42.177a1.3,1.3,0,0,0-1.3,1.3v12.258a1.3,1.3,0,0,0,1.3,1.3H54.436a1.307,1.307,0,0,0,1.3-1.3v-2.656l-1.791,1.624a2.742,2.742,0,0,1-3.783-.094l-5.946-5.955a2.742,2.742,0,0,1,3.881-3.876l4.1,4.105ZM49.5,21.618V34.4H98.113V21.618h-12.7a2.742,2.742,0,0,1-2.666-2.1,9.2,9.2,0,0,0-17.887,0,2.742,2.742,0,0,1-2.666,2.1ZM73.8,22.69a3.156,3.156,0,1,1,3.161-3.152A3.157,3.157,0,0,1,73.8,22.69Z" transform="translate(0 0)" fill="#ff725d" fill-rule="evenodd"/>
    </g>
  </g>
</svg>
