<svg xmlns="http://www.w3.org/2000/svg" xmlns:xlink="http://www.w3.org/1999/xlink" width="193" height="212.22" viewBox="0 0 193 212.22">
  <defs>
    <clipPath id="clip-path">
      <rect id="Rect치ngulo_401244" data-name="Rect치ngulo 401244" width="117.5" height="195.259" fill="none"/>
    </clipPath>
  </defs>
  <g id="Grupo_1100053" data-name="Grupo 1100053" transform="translate(-1124 -7722.039)">
    <g id="Grupo_1099254" data-name="Grupo 1099254" transform="translate(0 1651)">
      <path id="Rect치ngulo_401239" data-name="Rect치ngulo 401239" d="M40-1.5H150A41.467,41.467,0,0,1,191.5,40V161A41.467,41.467,0,0,1,150,202.5H40A41.467,41.467,0,0,1-1.5,161V40A41.467,41.467,0,0,1,40-1.5Zm110,201A38.544,38.544,0,0,0,188.5,161V40A38.544,38.544,0,0,0,150,1.5H40A38.544,38.544,0,0,0,1.5,40V161A38.544,38.544,0,0,0,40,199.5Z" transform="translate(1125.5 6072.539)" fill="#ff725d"/>
      <g id="Grupo_1099253" data-name="Grupo 1099253" transform="translate(1161 6088)">
        <g id="Grupo_1099252" data-name="Grupo 1099252" transform="translate(0 0)" clip-path="url(#clip-path)">
          <path id="Trazado_873839" data-name="Trazado 873839" d="M61.815,63.818c7.948,4.783,7.674,12.405-.609,17.025s-21.443,4.485-29.389-.3-7.677-12.405.609-17.022,21.441-4.487,29.389.3" transform="translate(45.983 106.243)" fill="#d1d1d1"/>
          <path id="Trazado_873840" data-name="Trazado 873840" d="M59.681,63.321,48.037,68.84a4.819,4.819,0,0,0-4.363-.044c-1.228.686-1.27,1.818-.089,2.529a4.8,4.8,0,0,0,4.363.044c1.228-.686,1.27-1.818.089-2.529l11.644-5.519c7.348,4.424,7.1,11.47-.564,15.739s-19.822,4.15-27.17-.274-7.1-11.47.562-15.739,19.825-4.147,27.173.274" transform="translate(46.983 105.855)" fill="#e1edff"/>
          <path id="Trazado_873841" data-name="Trazado 873841" d="M27.264,63.76c.158-.3.315-.6.47-.9-1.945,3.729-.456,7.934,4.526,10.933,7.348,4.421,19.512,4.545,27.173.274,5.411-3.018,7.127-7.423,5.068-11.31l.479.9c2.108,3.984.351,8.5-5.2,11.6-7.857,4.382-20.337,4.255-27.873-.282C26.794,71.9,25.27,67.583,27.264,63.76" transform="translate(46.668 110.855)" fill="#d3e4ff"/>
          <path id="Trazado_873842" data-name="Trazado 873842" d="M32.426,82.37q.116-14.694.235-29.386a1.349,1.349,0,0,0,.772,1.115,4.313,4.313,0,0,0,3.912.039,1.4,1.4,0,0,0,.849-1.17q.05,3.673.1,7.345t.1,7.348q.1,7.345.2,14.69a1.565,1.565,0,0,1-.952,1.309,4.813,4.813,0,0,1-4.36-.044,1.51,1.51,0,0,1-.86-1.245" transform="translate(57.281 93.568)" fill="#d3e4ff"/>
          <path id="Trazado_873843" data-name="Trazado 873843" d="M39.923,32.363c-.058-.158-.122-.315-.194-.47.055.147.122.307.194.47" transform="translate(70.182 56.34)" fill="#f8ff2e"/>
          <path id="Trazado_873844" data-name="Trazado 873844" d="M74.12,67.338c-.044-.927-.191-2.648-.26-3.278-.111-1-.274-2.332-.4-3.328-.069-.523-.18-1.217-.263-1.737-.122-.753-.318-1.931-.628-3.5-.249-1.256-.249-1.256-.769-3.549-.124-.542-.3-1.262-.443-1.8-.282-1.054-.661-2.459-.968-3.505-.155-.539-.376-1.25-.548-1.784-.163-.515-.4-1.2-.564-1.712s-.429-1.228-.622-1.751c-.764-2.069-1.322-3.345-1.328-3.359-.144-.329-.335-.728-.5-1.1a6.155,6.155,0,0,1,.2,3.776c-.29-1-.62-2.105-1.018-3.367a9.516,9.516,0,0,0-4.457-5.024c-6.5-3.915-17.271-4.023-24.049-.243-2.692,1.5-4.349,3.389-4.963,5.364-.382,1.226-.747,2.479-1,3.375a6.218,6.218,0,0,1,.365-4.255c-.827,1.84-1.389,3.328-1.394,3.345-.376,1-.86,2.343-1.212,3.356-.183.523-.407,1.228-.57,1.762s-.385,1.242-.534,1.779c-.293,1.051-.681,2.454-.946,3.511-.3,1.223-.755,3.143-1.179,5.35a89.528,89.528,0,0,0-1.383,10.247c-.036.49-.083,1.145-.1,1.638-.036.91-.075,2.122-.075,3.032,0,1.134.086,2.645.188,3.771.08.9.252,2.083.412,2.966a29.907,29.907,0,0,0,.683,3c.368,1.217.918,2.822,1.4,4a24.863,24.863,0,0,0,1.364,2.764A30.948,30.948,0,0,0,30.456,90,34.108,34.108,0,0,0,32.8,92.716a20.763,20.763,0,0,0,1.945,1.743c.75.587,1.793,1.314,2.6,1.815a16.3,16.3,0,0,0,1.491.824c.373.18.871.423,1.253.589s.9.373,1.295.515a22.079,22.079,0,0,0,2.352.714c.73.185,1.7.365,2.21.434.426.055,1.422.191,2.133.213.315.011.739.039,1.054.033.631-.006,1.475-.03,2.105-.072.31-.019,1.289-.116,2.18-.274a21.547,21.547,0,0,0,2.3-.523,23.5,23.5,0,0,0,2.526-.869c.766-.315,1.754-.813,2.487-1.2a25.589,25.589,0,0,0,2.316-1.475c.393-.268.888-.67,1.256-.974a24.6,24.6,0,0,0,3.483-3.555c.551-.681,1.209-1.643,1.688-2.374.321-.487.7-1.165.977-1.679a25.818,25.818,0,0,0,1.209-2.548c.465-1.184.99-2.8,1.358-4.014a35.831,35.831,0,0,0,.952-5.113c.133-1.345.216-3.143.241-4.493.014-.7-.044-2.069-.094-3.1" transform="translate(43.283 51.775)" fill="#d3e4ff"/>
          <path id="Trazado_873845" data-name="Trazado 873845" d="M37,71.643c-.736-.456-1.685-1.118-2.365-1.652a18.515,18.515,0,0,1-1.771-1.585,31.122,31.122,0,0,1-2.136-2.465,29.183,29.183,0,0,1-1.735-2.67,23,23,0,0,1-1.239-2.512c-.437-1.071-.938-2.531-1.273-3.638a27.732,27.732,0,0,1-.62-2.725c-.149-.8-.3-1.884-.376-2.7-.094-1.024-.169-2.4-.172-3.43,0-.827.036-1.931.066-2.758.019-.445.061-1.043.094-1.488.022-.326.05-.656.077-.985.232-2.659,44.707-.232,44.738.094.061.705.13,1.616.158,2.191.047.935.1,2.183.086,2.816-.022,1.226-.1,2.863-.216,4.086a32.345,32.345,0,0,1-.869,4.651c-.332,1.109-.813,2.576-1.234,3.652a23.968,23.968,0,0,1-1.1,2.318c-.252.468-.6,1.084-.891,1.527-.437.664-1.035,1.541-1.535,2.158a22.37,22.37,0,0,1-3.168,3.237c-.335.274-.786.639-1.143.885a23.554,23.554,0,0,1-2.105,1.342c-.667.349-1.566.8-2.263,1.09a21.116,21.116,0,0,1-4.39,1.267c-.813.144-1.7.232-1.984.249-.573.036-1.342.058-1.914.066-.288,0-.672-.022-.96-.03-.647-.022-1.552-.144-1.939-.2-.468-.061-1.347-.227-2.014-.393a20.739,20.739,0,0,1-2.136-.65c-.357-.127-.83-.318-1.179-.468s-.8-.373-1.14-.537A15.043,15.043,0,0,1,37,71.643" transform="translate(44.718 73.852)" fill="#a80d0d"/>
          <path id="Trazado_873846" data-name="Trazado 873846" d="M63.923,41.738c8.557,5.151,8.264,13.357-.656,18.331s-23.089,4.83-31.646-.321-8.264-13.357.656-18.331,23.089-4.83,31.646.321" transform="translate(44.854 66.738)" fill="#d41010"/>
          <path id="Trazado_873847" data-name="Trazado 873847" d="M57.879,32.286C64.746,36.419,64.511,43,57.354,47s-18.525,3.876-25.391-.257-6.631-10.718.526-14.71,18.525-3.876,25.391.257m-.683.382c-6.5-3.915-17.271-4.023-24.052-.243s-7,10.018-.5,13.932S49.917,50.382,56.7,46.6s7-10.018.5-13.932" transform="translate(47.63 51.424)" fill="#e1edff"/>
          <path id="Trazado_873848" data-name="Trazado 873848" d="M54.035,62.988c12,7.223,11.589,18.732-.918,25.707S20.74,95.469,8.739,88.246-2.85,69.514,9.657,62.539s32.377-6.775,44.378.448" transform="translate(0.001 101.464)" fill="#d1d1d1"/>
          <path id="Trazado_873849" data-name="Trazado 873849" d="M26.867,17.05c4.438,2.67,4.285,6.925-.34,9.5s-11.968,2.5-16.406-.166-3.97-6.858.653-9.437,11.655-2.57,16.093.1" transform="translate(12.431 26.554)" fill="#4d2c28"/>
          <path id="Trazado_873850" data-name="Trazado 873850" d="M.882,72.5c.7-3.862,3.671-7.611,8.883-10.518,11.719-6.532,30.329-6.344,41.57.421.017.124.365,2.509-6.482,6.327-3.588,2-13.96,7.785-14.707,8.2a.047.047,0,0,0-.039,0c-.008.008-.011.017,0,.022a.033.033,0,0,0,.039,0c.011-.006.011-.014,0-.022.747-.415,11.119-6.2,14.707-8.2,6.847-3.818,6.5-6.2,6.482-6.327,4.673,2.814,7.337,6.322,8.012,9.929a10.324,10.324,0,0,1,.174,1.549,14.309,14.309,0,0,1-.058,1.613,7.452,7.452,0,0,1-.16,1.015c-.111.481-.288,1.123-.448,1.594a10.307,10.307,0,0,1-.456,1.1c-.221.451-.539,1.049-.811,1.475a16.331,16.331,0,0,1-1.92,2.465,20.938,20.938,0,0,1-2.562,2.282,26.17,26.17,0,0,1-3.187,2.056,35.548,35.548,0,0,1-3.583,1.69,38,38,0,0,1-4.014,1.347c-1.231.321-2.885.705-4.139.921-.642.111-1.5.238-2.141.318s-1.508.183-2.155.219-1.519.116-2.172.122-1.527.033-2.18.028-1.522-.05-2.174-.072-1.527-.1-2.18-.166-1.5-.177-2.136-.263-1.511-.243-2.155-.371c-.62-.119-1.444-.3-2.058-.454-.634-.16-1.477-.393-2.1-.584-.587-.177-1.361-.432-1.937-.647-.614-.232-1.428-.553-2.031-.816-.537-.235-1.242-.57-1.762-.841s-1.184-.634-1.677-.932c-.548-.335-1.262-.811-1.787-1.179-.5-.346-1.129-.852-1.585-1.25a16.94,16.94,0,0,1-1.486-1.436,27.156,27.156,0,0,1-1.746-2.23,15.1,15.1,0,0,1-.9-1.632A12.021,12.021,0,0,1,.882,76.33C.84,76.023.771,75.611.746,75.3c-.028-.365-.03-.855-.03-1.22A12.682,12.682,0,0,1,.882,72.5" transform="translate(1.265 101.049)" fill="#4d2c28"/>
          <path id="Trazado_873851" data-name="Trazado 873851" d="M27.351,130.228c-.011-4.23-2.731-8.46-8.186-11.744l-.238-93.03c5.456,3.281,8.172,7.511,8.186,11.741.072,25.242.166,67.791.238,93.033" transform="translate(33.435 44.965)" fill="#402521"/>
          <path id="Trazado_873852" data-name="Trazado 873852" d="M.632,40.689C.618,36.2,3.648,31.717,9.679,28.353c11.716-6.532,30.327-6.344,41.567.421l.238,93.033c-11.24-6.767-29.851-6.955-41.567-.421C3.885,124.747.859,129.235.87,133.722.8,108.48.7,65.931.632,40.689" transform="translate(1.116 41.646)" fill="#402521"/>
          <path id="Trazado_873853" data-name="Trazado 873853" d="M7.229,22.133c.188-.177.443-.412.631-.589l.315-.3c.188-.174.443-.412.631-.589s.44-.412.631-.589c.094-.089.221-.2.315-.293.188-.177.44-.412.631-.589s.44-.412.631-.589l.315-.3c.188-.177.44-.412.631-.589s.44-.412.631-.589c.094-.089.221-.2.315-.293.188-.177.44-.412.631-.589-2.7,2.523-2.233,5.873,1.475,8.1,4.388,2.642,11.653,2.717,16.228.166,3.992-2.227,4.615-5.716,1.793-8.322q3.17,2.926,6.341,5.857C44.027,26.344,43,32.1,36.416,35.767,28.875,39.972,16.9,39.85,9.661,35.5c-6.114-3.679-6.886-9.2-2.432-13.362" transform="translate(7.757 28.597)" fill="#54302c"/>
          <path id="Trazado_873854" data-name="Trazado 873854" d="M.632,50c.008-.512.008-1.2.028-1.707.019-.556.05-1.3.1-1.851.1-1.015.249-2.365.387-3.375.072-.548.207-1.275.315-1.818s.252-1.264.39-1.8c.252-.979.611-2.274.9-3.24.16-.528.407-1.223.6-1.74s.456-1.206.67-1.715c.385-.921.954-2.122,1.389-3.018.243-.5.609-1.14.871-1.629.235-.434,1.051-1.82,1.84-2.968.318-.462.741-1.079,1.084-1.522.589-.764,1.4-1.765,2.022-2.5.368-.432.883-.979,1.275-1.383s.949-.949,1.367-1.342C9.418,22.554,10.19,28.076,16.3,31.756c7.237,4.355,19.216,4.476,26.758.271,6.582-3.671,7.608-9.423,2.955-13.722a14.719,14.719,0,0,1,1.12,1.079c.412.418.96.974,1.342,1.414.631.728,1.455,1.715,2.053,2.468.357.451.8,1.076,1.132,1.546s.747,1.09,1.04,1.574c.515.844,1.17,1.986,1.649,2.852.268.49.595,1.165.835,1.671s.545,1.181.758,1.7c.382.927.844,2.183,1.179,3.126.185.526.387,1.239.551,1.768.006.017.473,1.588.847,3.433.111.542.255,1.267.332,1.818.147,1.007.313,2.354.418,3.367.055.553.094,1.295.119,1.851s.041,1.3.044,1.859c.011,4.487-3.018,8.975-9.047,12.336-11.716,6.532-30.327,6.344-41.57-.421C3.36,58.458.643,54.228.632,50" transform="translate(1.116 32.337)" fill="#4d2c28"/>
          <path id="Trazado_873855" data-name="Trazado 873855" d="M7.075,20.579a7.093,7.093,0,0,0,1.934-4.8c.006,1.369.885,2.742,2.653,3.807a14.857,14.857,0,0,0,13.476.136c1.956-1.09,2.935-2.545,2.933-4a7.1,7.1,0,0,0,1.961,4.789c.006,1.751-1.179,3.5-3.533,4.817-4.573,2.551-11.841,2.476-16.228-.166-2.13-1.281-3.19-2.933-3.2-4.584" transform="translate(12.498 27.777)" fill="#4d2c28"/>
          <path id="Trazado_873856" data-name="Trazado 873856" d="M7.809,27.945,7.754,8.894c.006,1.372.885,2.742,2.653,3.807a14.84,14.84,0,0,0,13.476.136c1.956-1.09,2.938-2.545,2.933-4l.055,19.05c0,1.455-.979,2.908-2.933,4a14.84,14.84,0,0,1-13.476-.136c-1.768-1.065-2.65-2.435-2.653-3.807" transform="translate(13.698 15.615)" fill="#402521"/>
          <path id="Trazado_873857" data-name="Trazado 873857" d="M9.438,10.679,8.406,10.09a17.191,17.191,0,0,0,15.338.033c.047-.025.1-.053.144-.08-.343.2-.686.4-1.032.595l-.124.072a14.9,14.9,0,0,1-13.293-.03" transform="translate(14.849 17.742)" fill="#402521"/>
          <path id="Trazado_873858" data-name="Trazado 873858" d="M26.14,3.005c4.205,2.529,4.061,6.562-.321,9.005s-11.343,2.374-15.548-.158S6.21,5.29,10.592,2.847,21.935.474,26.14,3.005M23.39,4.538a11.189,11.189,0,0,0-10.159-.1c-2.863,1.6-2.957,4.23-.21,5.884a11.2,11.2,0,0,0,10.159.1c2.863-1.6,2.957-4.23.21-5.884" transform="translate(12.735 1.873)" fill="#54302c"/>
          <path id="Trazado_873859" data-name="Trazado 873859" d="M7.248,17.4,7.209,3.414c0,1.582,1.021,3.165,3.06,4.393,4.205,2.531,11.166,2.6,15.548.158C28.071,6.706,29.206,5.029,29.2,3.35l.039,13.985c.006,1.677-1.126,3.356-3.383,4.615-4.382,2.443-11.343,2.371-15.545-.158C8.269,20.563,7.253,18.981,7.248,17.4" transform="translate(12.735 5.918)" fill="#4d2c28"/>
          <path id="Trazado_873860" data-name="Trazado 873860" d="M20.949,1.27c2.747,1.654,2.653,4.288-.21,5.884a11.2,11.2,0,0,1-10.159-.1C7.836,5.4,7.93,2.764,10.79,1.168a11.189,11.189,0,0,1,10.159.1" transform="translate(15.16 0)" fill="#ffb14a"/>
          <path id="Trazado_873861" data-name="Trazado 873861" d="M8.6,6.678l-.014-5.14a3.52,3.52,0,0,0,2,2.872,11.192,11.192,0,0,0,10.156.1A3.646,3.646,0,0,0,22.949,1.5l.017,5.14a3.648,3.648,0,0,1-2.21,3.013,11.181,11.181,0,0,1-10.159-.1,3.516,3.516,0,0,1-2-2.869" transform="translate(15.16 2.643)" fill="#de7e2f"/>
          <path id="Trazado_873862" data-name="Trazado 873862" d="M54.938,119.655c-.011-.318,0-89.738,0-89.738L1.727,30.1v89.738c0,.332.006.775.028,1.1.022.282.083.653.122.932a10.914,10.914,0,0,0,.847,2.645A13.472,13.472,0,0,0,3.542,126a24.593,24.593,0,0,0,1.577,2.02,16.1,16.1,0,0,0,1.345,1.3c.415.36.985.819,1.436,1.134.476.332,1.12.761,1.616,1.062.445.271,1.054.606,1.519.847s1.109.548,1.594.758c.545.238,1.281.531,1.837.739.52.2,1.223.426,1.751.589.567.172,1.331.382,1.9.526.556.138,1.3.3,1.865.412.581.113,1.361.255,1.948.332s1.353.183,1.934.238,1.378.136,1.973.152,1.375.058,1.967.066,1.38-.019,1.973-.025,1.375-.077,1.964-.111,1.367-.125,1.95-.2,1.358-.185,1.937-.288c1.134-.194,2.631-.542,3.746-.833a34.175,34.175,0,0,0,3.632-1.22,32.377,32.377,0,0,0,3.242-1.527,23.583,23.583,0,0,0,2.883-1.862,18.663,18.663,0,0,0,2.318-2.067,14.5,14.5,0,0,0,1.74-2.23c.243-.385.531-.924.733-1.333a9.837,9.837,0,0,0,.412-1c.144-.426.3-1,.407-1.444a6.821,6.821,0,0,0,.144-.918,12.82,12.82,0,0,0,.053-1.458m-26.581,2.78a.041.041,0,0,1-.036,0c-.008-.006-.008-.014,0-.019h.033c.011.006.011.014,0,.019" transform="translate(3.051 52.85)" fill="#8f0b0b"/>
          <path id="Trazado_873863" data-name="Trazado 873863" d="M1.879,38.3c.634-3.494,3.32-6.886,8.04-9.517,10.6-5.912,27.441-5.741,37.614.382.017.113.329,2.269-5.865,5.724-3.248,1.812-12.632,7.044-13.307,7.42a.041.041,0,0,0-.036,0v.019a.041.041,0,0,0,.036,0v-.019c.675-.376,10.059-5.608,13.307-7.42,6.194-3.455,5.882-5.611,5.865-5.724,4.227,2.545,6.64,5.718,7.248,8.983a9.874,9.874,0,0,1,.16,1.4,14.323,14.323,0,0,1-.053,1.461,7.379,7.379,0,0,1-.147.918c-.1.437-.26,1.015-.407,1.441a8.715,8.715,0,0,1-.412,1c-.2.409-.487.949-.733,1.336a14.747,14.747,0,0,1-1.737,2.23A18.867,18.867,0,0,1,49.134,50a23.825,23.825,0,0,1-2.885,1.859,32.347,32.347,0,0,1-3.24,1.53,34.314,34.314,0,0,1-3.632,1.217c-1.115.29-2.612.639-3.746.835-.578.1-1.356.213-1.937.288s-1.364.163-1.95.2-1.375.105-1.967.111-1.381.03-1.973.025S26.427,56.02,25.837,56s-1.381-.094-1.973-.152-1.353-.16-1.934-.238-1.364-.219-1.948-.335c-.562-.108-1.306-.274-1.862-.412-.575-.141-1.336-.351-1.9-.526-.531-.16-1.234-.393-1.751-.587-.556-.21-1.292-.5-1.837-.739-.487-.213-1.126-.515-1.6-.761s-1.071-.573-1.516-.844c-.5-.3-1.143-.733-1.618-1.065-.448-.315-1.021-.772-1.433-1.134a15.3,15.3,0,0,1-1.347-1.3,24.685,24.685,0,0,1-1.577-2.017,13.926,13.926,0,0,1-.816-1.477,10.749,10.749,0,0,1-.847-2.645c-.039-.279-.1-.653-.122-.932-.025-.332-.03-.775-.03-1.1A11.34,11.34,0,0,1,1.879,38.3" transform="translate(3.051 43.213)" fill="#a80d0d"/>
          <path id="Trazado_873864" data-name="Trazado 873864" d="M51.3,89.622l-.011-5.1,0,.011L51.157,38.2a4.129,4.129,0,0,0-.3-2c-.52,0-.52,0-.985.711A19.8,19.8,0,0,1,42.644,43.3c-9.21,5.137-22.677,6.12-33.481,3.018-3.785-.935-4.05,1.635-4.139,2.482l.147,51.421,0,.8.006,0,0,1.084A6.047,6.047,0,0,0,9.338,107.5c10.8,3.1,24.271,2.116,33.481-3.018A19.8,19.8,0,0,0,50.042,98.1c.368-.7,1.231-2.346,1.267-6.582Z" transform="translate(8.877 63.954)" fill="#dedede"/>
          <path id="Trazado_873865" data-name="Trazado 873865" d="M24.06,40.517a44,44,0,0,1-11.083,2.468l.036,12.333A44.028,44.028,0,0,0,24.1,52.85Z" transform="translate(22.924 71.575)" fill="#cbac6b"/>
          <path id="Trazado_873866" data-name="Trazado 873866" d="M22.931,49.58c-1.212.127-2.437.207-3.663.246l0,.528.346-.011c1.209-.025,1.051.5.833,1.231-1.657,4.974-1.657,4.974-1.909,6.012-.257-1.043-.556-1.917-.656-2.2-.57-1.641-1.331-3.832-1.9-5.475-.365-.011-.728-.028-1.087-.047-2.072,6.175-2.072,6.175-2.365,7.467-.183-.672-.4-1.389-.653-2.194-1.721-5.287-1.721-5.287-.6-5.162l.338.041v-.528c-1.358-.166-2.7-.387-4.014-.667l0,.528.188.041a1.123,1.123,0,0,1,1.021.86c1.591,4.872,1.652,5.06,2.7,8.2.456.055.913.105,1.372.152.681-2.064,1.588-4.814,2.266-6.878.741,2.133,1.732,4.977,2.476,7.107.454,0,.9-.006,1.356-.017,2.863-8.585,2.863-8.585,3.657-8.676.094-.008.188-.017.285-.028Z" transform="translate(13.438 86.235)" fill="#3c2a1c"/>
          <path id="Trazado_873867" data-name="Trazado 873867" d="M17.657,48.811c-1.394.3-2.816.531-4.258.7v.528l.191-.025c.775-.089,1.2,0,1.215.739l.017,6.117c-.014.758-.473.971-1.209,1.068l-.191.022,0,.528c1.441-.172,2.863-.4,4.258-.7V57.26l-.191.041c-.57.113-1.179.166-1.19-.672l-.017-6.117c.014-.813.567-1,1.184-1.134.064-.011.127-.025.191-.039Z" transform="translate(23.67 86.226)" fill="#3c2a1c"/>
          <path id="Trazado_873868" data-name="Trazado 873868" d="M24.465,47.471a32.222,32.222,0,0,1-3.09,1.5V49.5c.058-.025.113-.047.169-.072.459-.191,1.029-.426,1.037.39l.017,5.572c-2.606-2.838-2.805-3.057-4.711-5.154-.833.257-1.688.49-2.556.7l.006.528.177-.041c.625-.147,1.137-.2,1.156.553l.017,6.167c-.011.764-.429,1.018-1.148,1.2-.064.014-.122.028-.183.044l0,.528c1.187-.285,2.349-.617,3.478-1l0-.528c-.058.019-.116.039-.177.061-.415.13-1.112.351-1.123-.553l-.017-5.815c1.926,2.105,2.5,2.739,4.96,5.395.3-.138.589-.279.877-.423L23.331,49.5a1.516,1.516,0,0,1,.985-1.419L24.465,48Z" transform="translate(27.081 83.859)" fill="#3c2a1c"/>
          <path id="Trazado_873869" data-name="Trazado 873869" d="M23.619,45.977a21.854,21.854,0,0,1-4.711,3.693V50.2l.144-.086c.5-.3.885-.459.894.34l.017,6.178a1.526,1.526,0,0,1-.888,1.405c-.047.028-.1.055-.144.086l0,.528A21.528,21.528,0,0,0,23.879,54.7l.044-2.252c-.124.138-.252.277-.385.412a3.209,3.209,0,0,1-.805,2.363,20.4,20.4,0,0,1-1.743,1.433l-.011-3.762a20.7,20.7,0,0,0,2.139-1.807l0-.614a20.653,20.653,0,0,1-2.136,1.807l-.011-3.348q.822-.606,1.535-1.245c.448-.385.664-.279.725.351l.039.5c.136-.133.266-.268.393-.4Z" transform="translate(33.402 81.22)" fill="#3c2a1c"/>
          <path id="Trazado_873870" data-name="Trazado 873870" d="M51.2,53.778c-1.118,3.328-3.959,6.5-8.5,9.033-10.433,5.818-26.335,6.3-37.63,1.566l0,.918c11.3,4.739,27.2,4.252,37.63-1.566,4.543-2.531,7.384-5.7,8.5-9.033Z" transform="translate(8.962 95.001)" fill="#3c2a1c"/>
          <path id="Trazado_873871" data-name="Trazado 873871" d="M51.209,55.18c-1.118,3.328-3.959,6.5-8.5,9.033-10.433,5.818-26.335,6.3-37.63,1.566l0,.916c11.3,4.742,27.2,4.255,37.63-1.563,4.543-2.534,7.384-5.7,8.5-9.033Z" transform="translate(8.969 97.477)" fill="#cbac6b"/>
          <path id="Trazado_873872" data-name="Trazado 873872" d="M14.341,55.3c-1.087.152-1.09.719-.894.88a.641.641,0,0,0,.481.075c.006-1,.667-.661.672-.653.05.047.459.492-.6,1.552l-.67.661v.4c.717-.083,1.43-.18,2.136-.29l.022-.811-.266.041c-.064.213-.119.4-.409.445-.349.05-.7.1-1.051.141a6.949,6.949,0,0,0,1.56-1.693c.03-.075.26-.739-.614-.766a2.244,2.244,0,0,0-.371.022" transform="translate(23.555 97.646)" fill="#cbac6b"/>
          <path id="Trazado_873873" data-name="Trazado 873873" d="M15.338,57.721c-.631.108-.409-1.912-.232-2.169.075-.111.468-.4.584.224,0,.017.255,1.829-.351,1.945m0-2.573a1.2,1.2,0,0,0-1.024.949c-.055.219-.224,1.408.326,1.779.642.432,2.083-.183,1.737-2.014a.792.792,0,0,0-1.04-.714" transform="translate(25.161 97.374)" fill="#cbac6b"/>
          <path id="Trazado_873874" data-name="Trazado 873874" d="M16.6,54.905l-.481.124a3.557,3.557,0,0,1-.946.714l-.017.008a.2.2,0,0,0,.177.235c.213.011.432-.282.628-.539l0,1.925c0,.185-.055.263-.213.3-.119.03-.238.058-.357.086v.2c.6-.141,1.192-.29,1.776-.454v-.2c-.113.033-.23.064-.343.094-.183.047-.219-.028-.221-.191Z" transform="translate(26.76 96.992)" fill="#cbac6b"/>
          <path id="Trazado_873875" data-name="Trazado 873875" d="M16.955,54.761c-1.076.343-1,.885-.816.974a.712.712,0,0,0,.437-.025c.006-.816.526-.766.617-.672a.72.72,0,0,1-.44,1.035l-.277.083v.238c.089-.025.174-.053.263-.077.8-.243.694.456.548.714-.183.324-.8.52-.913.125-.014-.047.006-.1-.028-.144-.385.127-.456.515-.194.636.609.285,2.152-.542,1.843-1.422-.047-.127-.2-.326-.711-.246.786-.509.775-1.2.324-1.292a1.321,1.321,0,0,0-.653.075" transform="translate(28.258 96.577)" fill="#cbac6b"/>
          <path id="Trazado_873876" data-name="Trazado 873876" d="M11.769,55.776l-.819.678.822.694.822-.692Z" transform="translate(19.343 98.53)" fill="#cbac6b"/>
          <path id="Trazado_873877" data-name="Trazado 873877" d="M10.2,55.759l-.664.5.667.622.667-.512Z" transform="translate(16.84 98.501)" fill="#cbac6b"/>
          <path id="Trazado_873878" data-name="Trazado 873878" d="M8.647,55.625l-.5.349.506.523.506-.354Z" transform="translate(14.385 98.263)" fill="#cbac6b"/>
          <path id="Trazado_873879" data-name="Trazado 873879" d="M18.925,54.135l-.653,1.026.656.343.642-1.037Z" transform="translate(32.277 95.632)" fill="#cbac6b"/>
          <path id="Trazado_873880" data-name="Trazado 873880" d="M19.872,53.513l-.451.877.454.243.434-.883Z" transform="translate(34.308 94.533)" fill="#cbac6b"/>
          <path id="Trazado_873881" data-name="Trazado 873881" d="M20.637,52.827l-.277.7.279.169.268-.705Z" transform="translate(35.966 93.32)" fill="#cbac6b"/>
        </g>
      </g>
    </g>
  </g>
</svg>
