<svg xmlns="http://www.w3.org/2000/svg" xmlns:xlink="http://www.w3.org/1999/xlink" width="193" height="209.31" viewBox="0 0 193 209.31">
  <defs>
    <clipPath id="clip-path">
      <rect id="Rectángulo_401243" data-name="Rectángulo 401243" width="90.621" height="192.348" fill="none"/>
    </clipPath>
    <clipPath id="clip-path-2">
      <rect id="Rectángulo_401242" data-name="Rectángulo 401242" width="90.621" height="192.35" fill="none"/>
    </clipPath>
    <clipPath id="clip-path-3">
      <rect id="Rectángulo_401241" data-name="Rectángulo 401241" width="40.828" height="16.184" fill="none"/>
    </clipPath>
    <clipPath id="clip-path-4">
      <rect id="Rectángulo_401240" data-name="Rectángulo 401240" width="40.827" height="16.182" fill="none"/>
    </clipPath>
  </defs>
  <g id="Grupo_1100052" data-name="Grupo 1100052" transform="translate(-703.5 -7722.039)">
    <path id="Rectángulo_401238" data-name="Rectángulo 401238" d="M40-1.5H150A41.467,41.467,0,0,1,191.5,40V161A41.467,41.467,0,0,1,150,202.5H40A41.467,41.467,0,0,1-1.5,161V40A41.467,41.467,0,0,1,40-1.5Zm110,201A38.544,38.544,0,0,0,188.5,161V40A38.544,38.544,0,0,0,150,1.5H40A38.544,38.544,0,0,0,1.5,40V161A38.544,38.544,0,0,0,40,199.5Z" transform="translate(705 7723.539)" fill="#ff725d"/>
    <g id="Grupo_1099251" data-name="Grupo 1099251" transform="translate(754.689 7739)">
      <g id="Grupo_1099250" data-name="Grupo 1099250" clip-path="url(#clip-path)">
        <g id="Grupo_1099249" data-name="Grupo 1099249" transform="translate(0 -0.002)">
          <g id="Grupo_1099248" data-name="Grupo 1099248" clip-path="url(#clip-path-2)">
            <path id="Trazado_873824" data-name="Trazado 873824" d="M68.32,80.5c-7.642,4.356-17.459,6.531-27.25,6.531S21.462,84.854,13.824,80.5C5.942,76.027,1.586,69.879,1.586,63.142c0-6.678,4.356-12.827,12.238-17.326,15.281-8.68,39.215-8.68,54.5,0,7.878,4.5,12.238,10.648,12.238,17.326,0,6.737-4.36,12.885-12.238,17.356M65.1,51.316C58.47,47.552,49.757,45.7,41.07,45.7c-8.713,0-17.4,1.854-24.023,5.619-5.821,3.3-9.015,7.532-9.015,11.826,0,4.353,3.194,8.562,9.015,11.885,13.25,7.532,34.8,7.532,48.05,0,5.821-3.323,9.015-7.532,9.015-11.885,0-4.294-3.194-8.529-9.015-11.826" transform="translate(4.25 105.319)" fill="#f0911d"/>
            <path id="Trazado_873825" data-name="Trazado 873825" d="M4.717,14.578a12.857,12.857,0,0,0-.865,1.531,25,25,0,0,0-3.492,12.3L.269,55.824V58.47L0,149.433a30.15,30.15,0,0,0,.361,3.97c.924,5.8,4.088,11.59,9.968,16.477a36.566,36.566,0,0,0,9.787,6V2.281C13.849,5.162,8.3,9.254,4.717,14.578" transform="translate(0 6.114)" fill="#f0911d"/>
            <path id="Trazado_873826" data-name="Trazado 873826" d="M75.723,29.32A25.123,25.123,0,0,0,71.069,17.7a32.027,32.027,0,0,0-7.73-7.561C52.057,2.548,39.282.168,25.374,1.047a56.666,56.666,0,0,0-19.906,5v173.6c.626.294,1.225.559,1.939.854,18.714,7.414,45.426,5.53,60.317-8.912a25.994,25.994,0,0,0,7.042-11.977,28.588,28.588,0,0,0,.868-6.148l.088-27.445v-2.679l.239-90.963a24.07,24.07,0,0,0-.239-3.058" transform="translate(14.651 2.343)" fill="#f0911d"/>
            <path id="Trazado_873827" data-name="Trazado 873827" d="M64.367,6.9c14.147,8.062,14.147,21.124,0,29.185-14.177,8.058-37.126,8.058-51.273,0-14.177-8.062-14.177-21.124,0-29.185,14.147-8.032,37.1-8.032,51.273,0" transform="translate(6.595 2.354)" fill="#f0911d"/>
            <path id="Trazado_873828" data-name="Trazado 873828" d="M68.32,41.192c-7.642,4.356-17.459,6.531-27.25,6.531s-19.608-2.175-27.246-6.531C5.942,36.692,1.586,30.544,1.586,23.836c0-6.678,4.356-12.827,12.238-17.326,15.281-8.68,39.215-8.68,54.5,0,7.878,4.5,12.238,10.648,12.238,17.326,0,6.708-4.36,12.856-12.238,17.356M65.1,12.01C58.47,8.246,49.757,6.362,41.07,6.362c-8.713,0-17.4,1.884-24.023,5.648-5.821,3.293-9.015,7.5-9.015,11.826,0,4.353,3.194,8.533,9.015,11.855,13.25,7.561,34.8,7.561,48.05,0,5.821-3.323,9.015-7.5,9.015-11.855,0-4.323-3.194-8.533-9.015-11.826" transform="translate(4.25 0.001)" fill="#f0911d"/>
            <path id="Trazado_873829" data-name="Trazado 873829" d="M39.456,12.167,20.117,19.934a9.919,9.919,0,0,1-8-.412c-2.149-1.207-2.447-3.12-.688-4.529L25.1,3.987c2.211-1.821,6.748-2.027,9.464-.471l5.7,3.238c2.745,1.56,2.329,4.117-.806,5.412" transform="translate(27.558 6.626)" fill="#f0911d"/>
            <path id="Trazado_873830" data-name="Trazado 873830" d="M68.32,80.5c-7.642,4.356-17.459,6.531-27.25,6.531S21.462,84.854,13.824,80.5C5.942,76.027,1.586,69.879,1.586,63.142c0-6.678,4.356-12.827,12.238-17.326,15.281-8.68,39.215-8.68,54.5,0,7.878,4.5,12.238,10.648,12.238,17.326,0,6.737-4.36,12.885-12.238,17.356M65.1,51.316C58.47,47.552,49.757,45.7,41.07,45.7c-8.713,0-17.4,1.854-24.023,5.619-5.821,3.3-9.015,7.532-9.015,11.826,0,4.353,3.194,8.562,9.015,11.885,13.25,7.532,34.8,7.532,48.05,0,5.821-3.323,9.015-7.532,9.015-11.885,0-4.294-3.194-8.529-9.015-11.826" transform="translate(4.25 105.319)" fill="#333"/>
            <path id="Trazado_873831" data-name="Trazado 873831" d="M4.717,14.578a12.857,12.857,0,0,0-.865,1.531,25,25,0,0,0-3.492,12.3L.269,55.824V58.47L0,149.433a30.15,30.15,0,0,0,.361,3.97c.924,5.8,4.088,11.59,9.968,16.477a36.566,36.566,0,0,0,9.787,6V2.281C13.849,5.162,8.3,9.254,4.717,14.578" transform="translate(0 6.114)" fill="#c42939"/>
            <path id="Trazado_873832" data-name="Trazado 873832" d="M75.723,29.32A25.123,25.123,0,0,0,71.069,17.7a32.027,32.027,0,0,0-7.73-7.561C52.057,2.548,39.282.168,25.374,1.047a56.666,56.666,0,0,0-19.906,5v173.6c.626.294,1.225.559,1.939.854,18.714,7.414,45.426,5.53,60.317-8.912a25.994,25.994,0,0,0,7.042-11.977,28.588,28.588,0,0,0,.868-6.148l.088-27.445v-2.679l.239-90.963a24.07,24.07,0,0,0-.239-3.058" transform="translate(14.651 2.343)" fill="#ff364a"/>
            <path id="Trazado_873833" data-name="Trazado 873833" d="M64.367,6.9c14.147,8.062,14.147,21.124,0,29.185-14.177,8.058-37.126,8.058-51.273,0-14.177-8.062-14.177-21.124,0-29.185,14.147-8.032,37.1-8.032,51.273,0" transform="translate(6.595 2.354)" fill="#ccc"/>
            <path id="Trazado_873834" data-name="Trazado 873834" d="M68.32,41.192c-7.642,4.356-17.459,6.531-27.25,6.531s-19.608-2.175-27.246-6.531C5.942,36.692,1.586,30.544,1.586,23.836c0-6.678,4.356-12.827,12.238-17.326,15.281-8.68,39.215-8.68,54.5,0,7.878,4.5,12.238,10.648,12.238,17.326,0,6.708-4.36,12.856-12.238,17.356M65.1,12.01C58.47,8.246,49.757,6.362,41.07,6.362c-8.713,0-17.4,1.884-24.023,5.648-5.821,3.293-9.015,7.5-9.015,11.826,0,4.353,3.194,8.533,9.015,11.855,13.25,7.561,34.8,7.561,48.05,0,5.821-3.323,9.015-7.5,9.015-11.855,0-4.323-3.194-8.533-9.015-11.826" transform="translate(4.25 0.001)" fill="#999"/>
            <path id="Trazado_873835" data-name="Trazado 873835" d="M39.456,12.167,20.117,19.934a9.919,9.919,0,0,1-8-.412c-2.149-1.207-2.447-3.12-.688-4.529L25.1,3.987c2.211-1.821,6.748-2.027,9.464-.471l5.7,3.238c2.745,1.56,2.329,4.117-.806,5.412" transform="translate(27.558 6.626)" fill="#999"/>
            <path id="Trazado_873836" data-name="Trazado 873836" d="M83.425,56.7C81.784,69.17,34.481,73.258,2.724,43.606L2.665,20.013C34.6,49.577,82.111,44.754,83.366,33.075Z" transform="translate(7.141 53.625)" fill="#fff"/>
            <path id="Trazado_873837" data-name="Trazado 873837" d="M83.419,53.534c-1.641,12.473-48.977,16.561-80.7-13.091l-.029-11.8c31.934,29.564,79.446,24.711,80.7,13.091Z" transform="translate(7.202 76.757)" fill="#ffbb52"/>
            <g id="Grupo_1099247" data-name="Grupo 1099247" transform="translate(40.747 44.48)" opacity="0.5">
              <g id="Grupo_1099246" data-name="Grupo 1099246">
                <g id="Grupo_1099245" data-name="Grupo 1099245" clip-path="url(#clip-path-3)">
                  <g id="Grupo_1099244" data-name="Grupo 1099244" transform="translate(0.003 0)">
                    <g id="Grupo_1099243" data-name="Grupo 1099243" clip-path="url(#clip-path-4)">
                      <path id="Trazado_873838" data-name="Trazado 873838" d="M51.751,13.089c2.359,7.885-24.413,20.947-38.829,12.356-1.461-.824-4.117-3,2-4.294,6.954-1.442,14.026-2.208,20.862-4.239,4.327-1.291,8.327-3.5,12.742-4.559.924-.235,2.8-.706,3.223.736" transform="translate(-11.075 -12.09)" fill="#fff"/>
                    </g>
                  </g>
                </g>
              </g>
            </g>
          </g>
        </g>
      </g>
    </g>
  </g>
</svg>
