<svg xmlns="http://www.w3.org/2000/svg" xmlns:xlink="http://www.w3.org/1999/xlink" width="243.595" height="176.633" viewBox="0 0 243.595 176.633">
  <defs>
    <clipPath id="clip-path">
      <rect id="Rectángulo_401530" data-name="Rectángulo 401530" width="211.562" height="173.744" fill="none"/>
    </clipPath>
    <clipPath id="clip-path-2">
      <rect id="Rectángulo_401525" data-name="Rectángulo 401525" width="211.562" height="173.743" fill="none"/>
    </clipPath>
    <clipPath id="clip-path-3">
      <rect id="Rectángulo_401524" data-name="Rectángulo 401524" width="38.091" height="21.99" fill="none"/>
    </clipPath>
    <clipPath id="clip-path-5">
      <rect id="Rectángulo_401526" data-name="Rectángulo 401526" width="2.653" height="5.451" fill="none"/>
    </clipPath>
    <clipPath id="clip-path-7">
      <rect id="Rectángulo_401528" data-name="Rectángulo 401528" width="9.423" height="10.048" fill="none"/>
    </clipPath>
  </defs>
  <g id="Grupo_1100075" data-name="Grupo 1100075" transform="translate(-337.905 -8710.684)">
    <g id="Grupo_1099743" data-name="Grupo 1099743" transform="translate(0 1902)">
      <rect id="Rectángulo_401023" data-name="Rectángulo 401023" width="160.605" height="164.781" rx="20" transform="translate(395.24 6820.535)" fill="#53bced"/>
      <g id="Grupo_1099742" data-name="Grupo 1099742" transform="translate(337.905 6808.684)">
        <g id="Grupo_1099741" data-name="Grupo 1099741" clip-path="url(#clip-path)">
          <path id="Trazado_876353" data-name="Trazado 876353" d="M137.668,78.209,59.97,38.65l-15.2-14.076V14.154l92.9,53.633.137,3.017v4.146Z" transform="translate(73.595 23.268)" fill="#13384d"/>
          <path id="Trazado_876354" data-name="Trazado 876354" d="M135.254,82.788,80.368,61.123,42.351,29.149,48.739,18.1l92.9,53.635-.878,1.816-4.984,8.619Z" transform="translate(69.623 29.748)" fill="#17435c"/>
          <path id="Trazado_876355" data-name="Trazado 876355" d="M17.074,69.643,7.826,82.656,78.9,132.479l7.8,4.413,105.32-60.978-92.9-53.638Z" transform="translate(12.865 36.621)" fill="#29617d"/>
          <path id="Trazado_876356" data-name="Trazado 876356" d="M81.806,33.4,18.71,69.829l1.84,1.063,63.1-36.429Z" transform="translate(30.759 54.913)" fill="#fff"/>
          <path id="Trazado_876357" data-name="Trazado 876357" d="M78.182,31.31l-63.1,36.429,1.84,1.06,63.1-36.429Z" transform="translate(24.801 51.472)" fill="#fff"/>
          <path id="Trazado_876358" data-name="Trazado 876358" d="M62.738,30.278l-1.84-1.06L19.771,52.96l1.843,1.063Z" transform="translate(32.502 48.033)" fill="#fff"/>
          <path id="Trazado_876359" data-name="Trazado 876359" d="M58.581,43.041,49.65,37.886l12.762-7.369,8.931,5.156Zm-7.728-5.156,7.728,4.463,11.559-6.676-7.728-4.46Z" transform="translate(81.623 50.169)" fill="#fff"/>
          <path id="Trazado_876360" data-name="Trazado 876360" d="M66.486,47.607,57.56,42.452l12.765-7.369,8.923,5.156ZM58.76,42.452l7.726,4.46,11.562-6.673-7.723-4.46Z" transform="translate(94.627 57.675)" fill="#fff"/>
          <path id="Trazado_876361" data-name="Trazado 876361" d="M50.671,38.474,41.74,33.319,54.505,25.95l8.929,5.156Zm-7.728-5.156,7.728,4.463,11.559-6.676-7.726-4.46Z" transform="translate(68.619 42.661)" fill="#fff"/>
          <path id="Trazado_876362" data-name="Trazado 876362" d="M74.4,52.174l-8.931-5.156L78.23,39.65,87.159,44.8Zm-7.728-5.156,7.728,4.46L85.959,44.8l-7.728-4.46Z" transform="translate(107.627 65.183)" fill="#fff"/>
          <path id="Trazado_876363" data-name="Trazado 876363" d="M57.348,52.884l-8.931-5.156L61.179,40.36l8.934,5.156Zm-7.726-5.156,7.726,4.463L68.91,45.516l-7.731-4.46Z" transform="translate(79.596 66.35)" fill="#fff"/>
          <path id="Trazado_876364" data-name="Trazado 876364" d="M48.933,62.268l-8.926-5.156,12.762-7.369L61.7,54.9ZM41.21,57.113l7.723,4.46L60.5,54.9l-7.728-4.463Z" transform="translate(65.77 81.777)" fill="#fff"/>
          <path id="Trazado_876365" data-name="Trazado 876365" d="M65.257,57.451,56.328,52.3,69.09,44.927l8.931,5.156ZM57.531,52.3l7.726,4.46,11.562-6.673-7.728-4.46Z" transform="translate(92.601 73.858)" fill="#fff"/>
          <path id="Trazado_876366" data-name="Trazado 876366" d="M60.973,36.5,48.216,29.137l-1.1.751,12.633,7.295Z" transform="translate(77.457 47.901)" fill="#fff"/>
          <path id="Trazado_876367" data-name="Trazado 876367" d="M56.18,33.7l-1.2.7L67.639,41.7l1.227-.679Z" transform="translate(90.385 55.4)" fill="#fff"/>
          <path id="Trazado_876368" data-name="Trazado 876368" d="M64.059,38.246l-1.2.7,12.712,7.337,1.2-.7Z" transform="translate(103.332 62.875)" fill="#fff"/>
          <path id="Trazado_876369" data-name="Trazado 876369" d="M66.409,51.436,53.876,44.2l1.2-.7,12.583,7.263Z" transform="translate(88.571 71.52)" fill="#fff"/>
          <path id="Trazado_876370" data-name="Trazado 876370" d="M54.585,45.59l12.022-6.94,1.161.717L55.78,46.291Z" transform="translate(89.735 63.539)" fill="#fff"/>
          <path id="Trazado_876371" data-name="Trazado 876371" d="M62.5,50.132l11.961-6.906,1.232.674L63.722,50.814Z" transform="translate(102.748 71.062)" fill="#fff"/>
          <path id="Trazado_876372" data-name="Trazado 876372" d="M46.2,60.2,72.775,44.862l.6,1.039L47.4,60.9Z" transform="translate(75.951 73.751)" fill="#fff"/>
          <path id="Trazado_876373" data-name="Trazado 876373" d="M141.053,36.459v.349l6.063-3.5,6.385,3.686V47.419l-6.385,11.054L41.828,119.258l-6.388-3.68V105.152L41.828,94.1l6.06-3.5-.005-.349-6.19,3.569-6.557,11.364V115.9l6.557,3.784,105.55-60.933L153.8,47.389V36.676l-6.557-3.791Z" transform="translate(57.762 54.061)" fill="#a39c95"/>
          <path id="Trazado_876374" data-name="Trazado 876374" d="M0,50.659l92.9,53.635V93.579L86.32,84.343.008,39.943Z" transform="translate(0 65.665)" fill="#d1d1d1"/>
          <path id="Trazado_876375" data-name="Trazado 876375" d="M0,47.008l92.89,53.635,6.56-11.364-9.595-8.749L6.554,35.647Z" transform="translate(0.004 58.602)" fill="#e0dedc"/>
          <path id="Trazado_876376" data-name="Trazado 876376" d="M95.379,91.5,2.48,37.871l6.19-3.577,92.9,53.638Z" transform="translate(4.077 56.378)" fill="#f4efe9"/>
          <path id="Trazado_876377" data-name="Trazado 876377" d="M132.96,67.936,40.059,14.3v-.346l6.375,1.925L132.96,67.587Z" transform="translate(65.855 22.935)" fill="#b5afa7"/>
          <path id="Trazado_876378" data-name="Trazado 876378" d="M132.96,69.809l-92.9-53.635,6.19-3.575,92.9,53.635Z" transform="translate(65.855 20.712)" fill="#f4efe9"/>
          <g id="Grupo_1099730" data-name="Grupo 1099730" transform="translate(0 0.001)">
            <g id="Grupo_1099729" data-name="Grupo 1099729" clip-path="url(#clip-path-2)">
              <g id="Grupo_1099728" data-name="Grupo 1099728" transform="translate(79.664 106.814)" opacity="0.3">
                <g id="Grupo_1099727" data-name="Grupo 1099727">
                  <g id="Grupo_1099726" data-name="Grupo 1099726" clip-path="url(#clip-path-3)">
                    <path id="Trazado_876379" data-name="Trazado 876379" d="M68.222,45.251,59.817,40.4H47.932L30.13,50.676l0,6.861,8.405,4.852H50.425l17.8-10.274Z" transform="translate(-30.131 -40.4)"/>
                  </g>
                </g>
              </g>
            </g>
          </g>
          <path id="Trazado_876380" data-name="Trazado 876380" d="M39.68,49.692l1.2.111v.6l-.169,2.932-4.809.151-2.988-2.893-1.174-5.087v-.6l1.277.579Z" transform="translate(52.184 73.824)" fill="#0a0808"/>
          <path id="Trazado_876381" data-name="Trazado 876381" d="M45,42.384l6.8,1.541,4.13,1.8v.6l-5.243.309L44.256,44.71l-4.307.352L36.9,44.509v-.6l2.538-2.694Z" transform="translate(60.655 67.76)" fill="#0a0808"/>
          <path id="Trazado_876382" data-name="Trazado 876382" d="M38.291,44.345l.865,4.058,1.729,4.471-.169,2.93-4.809.151-2.988-2.892-1.177-5.084.2-2.937.4-2Z" transform="translate(52.182 70.755)" fill="#6b4414"/>
          <path id="Trazado_876383" data-name="Trazado 876383" d="M45.922,40.907l4.709,2.274,5.3,1.951V48.1l-5.246.307-6.425-1.925-4.307.354-3.056-.55.391-4.957L41.1,39.773Z" transform="translate(60.654 65.385)" fill="#6b4414"/>
          <path id="Trazado_876384" data-name="Trazado 876384" d="M51.515,19.911l-.373,17.027-2.594,17.12-1.877,5.259L46.409,76.6l-4.746,2.247-4.357-1.774.449-19.156,1.454-4.328L38.792,47.3l-2.025-22.08,7.374-7.242Z" transform="translate(60.443 29.564)" fill="#0a0808"/>
          <path id="Trazado_876385" data-name="Trazado 876385" d="M47.577,8.127l2.57,3.781.526,3.107L46.554,31.043,45.417,35.4l-2.033.714-1.671-2.4L43.574,10.05Z" transform="translate(68.574 13.361)" fill="#f0c6b4"/>
          <path id="Trazado_876386" data-name="Trazado 876386" d="M43.051,11.293l-.1,1.034,4.37-2.4Z" transform="translate(70.618 16.319)" fill="#c7a495"/>
          <path id="Trazado_876387" data-name="Trazado 876387" d="M37.176,21.163,35.1,26.615V55.463l-3.107,8.215-.249,20.031,4.807,2.358L40,83.709l2.533-21.384,2.076-6.258,5.01-20.456L56.6,28.616l3.173-9.9Z" transform="translate(52.183 30.762)" fill="#362c29"/>
          <path id="Trazado_876388" data-name="Trazado 876388" d="M43.2,21.866l-.185,2.517-1.184,2.308.167,1.147,1.208-.132,3.942-2.62-.777-8.291Z" transform="translate(68.762 27.609)" fill="#f0c6b4"/>
          <path id="Trazado_876389" data-name="Trazado 876389" d="M44.591,5.163l2,1.5L50.1,12.9l-1.3,4.8-3.593.227L40.348,8.957Z" transform="translate(66.33 8.488)" fill="#fff"/>
          <path id="Trazado_876390" data-name="Trazado 876390" d="M45.655,13.944l-2.98-6.5-.415.865.642,4.418,1.568,1.367Z" transform="translate(69.474 12.24)" fill="#d1d1d1"/>
          <path id="Trazado_876391" data-name="Trazado 876391" d="M37.321,5.561l-.73,2.755L38.146,12.9l7.424,5.975,4.77-1.766-1.507-5.161L39.3,4.448Z" transform="translate(60.155 7.312)" fill="#c7a495"/>
          <path id="Trazado_876392" data-name="Trazado 876392" d="M34.368,19.553,33.8,22.736,37.779,25.6,52.358,24.45,56.4,20.285l.005-2.53Z" transform="translate(55.561 29.189)" fill="#693121"/>
          <path id="Trazado_876393" data-name="Trazado 876393" d="M33.3,13.078l7.683-6.554h1.256l1.652,3.8,5.632,2.054.883,2.2,2.8,1.652.8-3.316-.5-2.192,1.547-4.741L57.4,9.847l1.843,6.65-.375,8.453-1.388,8.165.547,3.353-4.709,4.809-14.777,1.3-3.955-3.255,2.089-6.507L33.68,17.888Z" transform="translate(54.752 9.838)" fill="#fff"/>
          <path id="Trazado_876394" data-name="Trazado 876394" d="M40.478,10.418l.78,10.568-.767,27.36L42.68,51l2.187-5.187L43.156,19.842l-1.9-9.891-.563-.679Z" transform="translate(66.544 15.241)" fill="#c84030"/>
          <path id="Trazado_876395" data-name="Trazado 876395" d="M39.987,10.012l1.3,1.343.775-.471L42.221,8.7Z" transform="translate(65.737 14.307)" fill="#fa5c52"/>
          <g id="Grupo_1099735" data-name="Grupo 1099735" transform="translate(0 0.001)">
            <g id="Grupo_1099734" data-name="Grupo 1099734" clip-path="url(#clip-path-2)">
              <g id="Grupo_1099733" data-name="Grupo 1099733" transform="translate(108.268 17.304)" opacity="0.3">
                <g id="Grupo_1099732" data-name="Grupo 1099732">
                  <g id="Grupo_1099731" data-name="Grupo 1099731" clip-path="url(#clip-path-5)">
                    <path id="Trazado_876396" data-name="Trazado 876396" d="M43.6,11.555,41.447,12,40.95,9.8l1.076-3.257Z" transform="translate(-40.949 -6.545)"/>
                  </g>
                </g>
              </g>
            </g>
          </g>
          <path id="Trazado_876397" data-name="Trazado 876397" d="M41.366,9.3l2.3,1.8-1.1-3.382-1.917-1Z" transform="translate(66.826 11.057)" fill="#fff"/>
          <g id="Grupo_1099740" data-name="Grupo 1099740" transform="translate(0 0.001)">
            <g id="Grupo_1099739" data-name="Grupo 1099739" clip-path="url(#clip-path-2)">
              <g id="Grupo_1099738" data-name="Grupo 1099738" transform="translate(95.739 16.361)" opacity="0.3">
                <g id="Grupo_1099737" data-name="Grupo 1099737">
                  <g id="Grupo_1099736" data-name="Grupo 1099736" clip-path="url(#clip-path-7)">
                    <path id="Trazado_876398" data-name="Trazado 876398" d="M44.75,12.042l.883,2.2-1.991,1.991-6.576-5.484L36.21,6.188l1.346.32,2.292,4.056Z" transform="translate(-36.21 -6.189)"/>
                  </g>
                </g>
              </g>
            </g>
          </g>
          <path id="Trazado_876399" data-name="Trazado 876399" d="M36.818,10.732,41.173,20l-1.7,1.753-4.511-7.144Z" transform="translate(57.476 17.644)" fill="#d1d1d1"/>
          <path id="Trazado_876400" data-name="Trazado 876400" d="M33.552,20.17l4.807-.124,3.694-4.619-2.943-2.194-5.558,2.781Z" transform="translate(55.158 21.754)" fill="#a39c95"/>
          <path id="Trazado_876401" data-name="Trazado 876401" d="M33.644,19.575l3.234,8.691,6.115-6.409L41.9,15.9l-.293-.738-3.292-1.724L34.424,15.8Z" transform="translate(55.31 22.097)" fill="#f0c6b4"/>
          <path id="Trazado_876402" data-name="Trazado 876402" d="M38.924,14.372l-3.469,4.251L35.8,20.17l2.263-1.147Z" transform="translate(58.287 23.627)" fill="#c7a495"/>
          <path id="Trazado_876403" data-name="Trazado 876403" d="M53.03,6.4,51.637,9.7l-.6.6v1.2L48.7,16.986l-2.855,1.5-6.311-5.256-.412-1.917L37.838,9.961l-.891-2.4V4.552l3.871-2.065,10.066.264Z" transform="translate(60.739 4.088)" fill="#f0c6b4"/>
          <path id="Trazado_876404" data-name="Trazado 876404" d="M43.138,0,41.372,1.5,38.948,2.612,37.39,5.185,36.449,8.64l.426,3.506,1.779,1.9L38.628,11.1h1.705l1.3,1.75v1.2l1.206-1.475,4.106-.526.627-1.454,2.4,1.253,2.811-.4,1.771-1.608-1-3.881L50.073,1.655,47.244.076Z" transform="translate(59.921 0)" fill="#685750"/>
          <path id="Trazado_876405" data-name="Trazado 876405" d="M38.567.953l4.616,6.121L38.567,2.267Z" transform="translate(63.403 1.566)" fill="#544540"/>
          <path id="Trazado_876406" data-name="Trazado 876406" d="M43.531,5.911l.516,3.08-.65.55-2.218-.375L41.053,6.31Z" transform="translate(67.49 9.718)" fill="#f0c6b4"/>
          <path id="Trazado_876407" data-name="Trazado 876407" d="M35.437,8.667,32.455,11.2l-.447,5.082,1.15,4.307,2.932,7.088,2.752-3.231,5.748-1.512-2.916-8.8-2.755-3.8Z" transform="translate(52.619 14.249)" fill="#fff"/>
          <path id="Trazado_876408" data-name="Trazado 876408" d="M37.022,25.226l8.466-14.476,3.146,3.826-6.4,17.112-7.366,1Z" transform="translate(57.32 17.674)" fill="#f0c6b4"/>
          <path id="Trazado_876409" data-name="Trazado 876409" d="M38.884,14.752l2.5-5.507,3.231-.928,2.15,1.647,1.457,3.374-.338.865-1.24.114L43.368,18l-1.338.574-2.557-1.409Z" transform="translate(63.924 13.673)" fill="#f0c6b4"/>
          <path id="Trazado_876410" data-name="Trazado 876410" d="M37.991,5.039l1.716,5.338,5.209,3.556-1.473,2.752-5.6-4.532L36.111,7.347Z" transform="translate(59.365 8.283)" fill="#fff"/>
        </g>
      </g>
      <rect id="Rectángulo_401024" data-name="Rectángulo 401024" width="157" height="78.734" rx="20" transform="translate(423 6890.676)" fill="none" stroke="#ff725d" stroke-miterlimit="10" stroke-width="3"/>
    </g>
  </g>
</svg>
