<svg xmlns="http://www.w3.org/2000/svg" xmlns:xlink="http://www.w3.org/1999/xlink" width="243.5" height="185.532" viewBox="0 0 243.5 185.532">
  <defs>
    <clipPath id="clip-path">
      <rect id="Rectángulo_401523" data-name="Rectángulo 401523" width="172.098" height="175.959" fill="none"/>
    </clipPath>
    <clipPath id="clip-path-2">
      <rect id="Rectángulo_401515" data-name="Rectángulo 401515" width="172.098" height="175.958" fill="none"/>
    </clipPath>
    <clipPath id="clip-path-3">
      <rect id="Rectángulo_401514" data-name="Rectángulo 401514" width="48.518" height="28.013" fill="none"/>
    </clipPath>
    <clipPath id="clip-path-5">
      <rect id="Rectángulo_401516" data-name="Rectángulo 401516" width="63.244" height="79.623" fill="none"/>
    </clipPath>
    <clipPath id="clip-path-7">
      <rect id="Rectángulo_401518" data-name="Rectángulo 401518" width="38.883" height="13.575" fill="none"/>
    </clipPath>
    <clipPath id="clip-path-9">
      <rect id="Rectángulo_401520" data-name="Rectángulo 401520" width="2.833" height="3.101" fill="none"/>
    </clipPath>
    <clipPath id="clip-path-10">
      <rect id="Rectángulo_401521" data-name="Rectángulo 401521" width="6.099" height="6.878" fill="none"/>
    </clipPath>
  </defs>
  <g id="Grupo_1100076" data-name="Grupo 1100076" transform="translate(-1020 -8935.855)">
    <g id="Grupo_1099744" data-name="Grupo 1099744" transform="translate(0 1902)">
      <rect id="Rectángulo_401023" data-name="Rectángulo 401023" width="160.605" height="164.781" rx="20" transform="translate(1077.24 7054.606)" fill="#53bced"/>
      <g id="Grupo_1099725" data-name="Grupo 1099725" transform="translate(1020 7033.855)">
        <g id="Grupo_1099724" data-name="Grupo 1099724" clip-path="url(#clip-path)">
          <path id="Trazado_876182" data-name="Trazado 876182" d="M0,56.587v45.22L30.035,84.467V39.247Z" transform="translate(0 51.399)" fill="#fff"/>
          <path id="Trazado_876183" data-name="Trazado 876183" d="M8.923,48.876l-2.949,1.7L3.89,54.184v3.4l2.083,1.2,1.388-.8v2.975L4.909,62.383l-3.6-2.074V54.44l3.594-6.224L9.99,45.282Z" transform="translate(1.719 59.304)" fill="#eb5c44"/>
          <path id="Trazado_876184" data-name="Trazado 876184" d="M3.932,57.99l1.561-.9,2.081-3.605v-3.4l-2.081-1.2L6.56,45.282l3.6,2.074v5.869l-3.6,6.227L3.932,60.965Z" transform="translate(5.149 59.303)" fill="#fdb053"/>
          <path id="Trazado_876185" data-name="Trazado 876185" d="M17.45,44.364,7.3,50.223V49l10.153-5.86Z" transform="translate(9.556 56.504)" fill="#f4efe9"/>
          <path id="Trazado_876186" data-name="Trazado 876186" d="M17.45,45.539,7.3,51.4V50.179l10.153-5.86Z" transform="translate(9.556 58.042)" fill="#f4efe9"/>
          <path id="Trazado_876187" data-name="Trazado 876187" d="M13.26,47.759,7.3,51.2V49.981L13.26,46.54Z" transform="translate(9.556 60.95)" fill="#f4efe9"/>
          <path id="Trazado_876188" data-name="Trazado 876188" d="M25.286,55.061,1.312,68.9v-.3L25.286,54.758Z" transform="translate(1.719 71.714)" fill="#7dd2e3"/>
          <path id="Trazado_876189" data-name="Trazado 876189" d="M9.68,55.707,2.367,59.929l0,6.019L9.68,61.725Z" transform="translate(3.1 72.956)" fill="#fdb053"/>
          <path id="Trazado_876190" data-name="Trazado 876190" d="M14.783,51.223,7.471,55.447v9.721l7.312-4.222Z" transform="translate(9.784 67.083)" fill="#eb5c44"/>
          <path id="Trazado_876191" data-name="Trazado 876191" d="M8.292,53.991,2.969,57.063l-.3.922V59.04l.3.568,5.319-3.07.3-.919V54.563Z" transform="translate(3.495 70.708)" fill="#fdb053"/>
          <path id="Trazado_876192" data-name="Trazado 876192" d="M13.393,49.446,8.074,52.518l-.3.922V54.5l.3.57L13.393,52l.3-.922V50.021Z" transform="translate(10.177 64.757)" fill="#eb5c44"/>
          <path id="Trazado_876193" data-name="Trazado 876193" d="M25.286,61.941,1.312,75.783V69.364L25.286,55.525Z" transform="translate(1.719 72.717)" fill="#f4efe9"/>
          <path id="Trazado_876194" data-name="Trazado 876194" d="M38.624,58.405,8.592,75.744V30.525L38.624,13.185Z" transform="translate(11.252 17.267)" fill="#fff"/>
          <path id="Trazado_876195" data-name="Trazado 876195" d="M15.185,34.28h0l-4.361-2.518,1.783-3.093,5.107-2.947Z" transform="translate(14.175 33.688)" fill="#eb5c44"/>
          <path id="Trazado_876196" data-name="Trazado 876196" d="M15.241,25.724l3.617,2.083-.009,5.9-3.608,6.255-2.529-5.677Z" transform="translate(16.648 33.689)" fill="#eb5c44"/>
          <path id="Trazado_876197" data-name="Trazado 876197" d="M16.222,30.856h0l2.529,5.677L13.644,39.48,10.032,37.4V31.5l1.829-3.162Z" transform="translate(13.138 37.113)" fill="#cca7cf"/>
          <path id="Trazado_876198" data-name="Trazado 876198" d="M33.4,30.5,10.032,43.986V42.764L33.4,29.273Z" transform="translate(13.139 38.337)" fill="#f4efe9"/>
          <path id="Trazado_876199" data-name="Trazado 876199" d="M33.4,31.666,10.032,45.159V43.939L33.4,30.449Z" transform="translate(13.139 39.877)" fill="#f4efe9"/>
          <path id="Trazado_876200" data-name="Trazado 876200" d="M23.756,35.254,10.033,43.176V41.959l13.724-7.927Z" transform="translate(13.139 44.57)" fill="#f4efe9"/>
          <path id="Trazado_876201" data-name="Trazado 876201" d="M33.4,27.352,10.032,40.842V28.95L33.4,15.457Z" transform="translate(13.139 20.243)" fill="#baf3ff"/>
          <path id="Trazado_876202" data-name="Trazado 876202" d="M10.556,21.986l-.134.4v.457l.134.249,1.407-.815.129-.4V21.42l-.129-.247Z" transform="translate(13.649 27.729)" fill="#cca7cf"/>
          <path id="Trazado_876203" data-name="Trazado 876203" d="M10.556,22.8l-.134.4v.457l.134.249,1.407-.815.129-.4v-.46l-.129-.247Z" transform="translate(13.649 28.788)" fill="#eb5c44"/>
          <path id="Trazado_876204" data-name="Trazado 876204" d="M10.032,40.844l8.118-10.585,2.926-1.27,4.042-6.144,3.6-.247L33.4,15.456v2.605L32.08,26.348Z" transform="translate(13.139 20.242)" fill="#eb5c44"/>
          <path id="Trazado_876205" data-name="Trazado 876205" d="M10.032,39.367l4.012-6.58,6.712-2.28,7.171-7.368,2.977-.991,2.5-5.564v9.292Z" transform="translate(13.139 21.719)" fill="#cca7cf"/>
          <path id="Trazado_876206" data-name="Trazado 876206" d="M22.087,24.373l-5.321,3.072-.3.922V29.42l.3.573,5.321-3.072.3-.919V24.946Z" transform="translate(21.557 31.92)" fill="#cca7cf"/>
          <path id="Trazado_876207" data-name="Trazado 876207" d="M22.087,26.24l-5.321,3.072-.3.922v1.056l.3.573,5.321-3.074.3-.919V26.813Z" transform="translate(21.557 34.365)" fill="#eb5c44"/>
          <path id="Trazado_876208" data-name="Trazado 876208" d="M90.937,0,35.729,31.873V80.759L90.937,48.884Z" transform="translate(46.792 0.001)" fill="#fff"/>
          <path id="Trazado_876209" data-name="Trazado 876209" d="M50.733,18.31v-7.7l3.384-.333v4.465Z" transform="translate(66.443 13.456)" fill="#fdb053"/>
          <path id="Trazado_876210" data-name="Trazado 876210" d="M55.45,18.5,50.733,15.78l3.384-3.573,2.732,1.58Z" transform="translate(66.443 15.986)" fill="#dde65c"/>
          <path id="Trazado_876211" data-name="Trazado 876211" d="M54.175,13.486,56,12.435v3.908L52.776,18.2Z" transform="translate(69.117 16.286)" fill="#8ccccb"/>
          <path id="Trazado_876212" data-name="Trazado 876212" d="M50.733,17.234,55.45,9.067l6.673-3.852-1.4,4.716-3.869,2.233L54.117,16.9Z" transform="translate(66.443 6.83)" fill="#cca7cf"/>
          <path id="Trazado_876213" data-name="Trazado 876213" d="M54.17,21.892l2.046-1.183,2.735-4.732V11.513l-2.732-1.58,1.4-4.719L62.337,7.94v7.7l-4.716,8.165L54.17,25.8Z" transform="translate(70.943 6.829)" fill="#eb5c44"/>
          <path id="Trazado_876214" data-name="Trazado 876214" d="M63.456,15.165,50.714,22.521V20.99l12.742-7.356Z" transform="translate(66.417 17.855)" fill="#f4efe9"/>
          <path id="Trazado_876215" data-name="Trazado 876215" d="M58.2,17.575,50.714,21.9V20.365L58.2,16.044Z" transform="translate(66.417 21.012)" fill="#f4efe9"/>
          <path id="Trazado_876216" data-name="Trazado 876216" d="M58.4,11.279,37.736,23.209V21.677L58.4,9.748Z" transform="translate(49.42 12.767)" fill="#f4efe9"/>
          <path id="Trazado_876217" data-name="Trazado 876217" d="M45.219,15.67l-7.483,4.319V18.46l7.483-4.321Z" transform="translate(49.42 18.517)" fill="#f4efe9"/>
          <path id="Trazado_876218" data-name="Trazado 876218" d="M85.075,20.125,37.383,47.658l0-.256L85.075,19.866Z" transform="translate(48.959 26.017)" fill="#7dd2e3"/>
          <path id="Trazado_876219" data-name="Trazado 876219" d="M43.932,27.832l-6.2,3.578v5.1l6.2-3.578Z" transform="translate(49.419 36.45)" fill="#fdb053"/>
          <path id="Trazado_876220" data-name="Trazado 876220" d="M48.255,18.045l-6.2,3.578V43.555l6.2-3.578Z" transform="translate(55.081 23.632)" fill="#eb5c44"/>
          <path id="Trazado_876221" data-name="Trazado 876221" d="M52.579,20.618,46.38,24.2V34.429l6.2-3.578Z" transform="translate(60.741 27.002)" fill="#cca7cf"/>
          <path id="Trazado_876222" data-name="Trazado 876222" d="M56.9,21.327,50.7,24.9v2.827L56.9,24.151Z" transform="translate(66.401 27.93)" fill="#8ccccb"/>
          <path id="Trazado_876223" data-name="Trazado 876223" d="M61.223,18.275l-6.2,3.575v4.118l6.2-3.578Z" transform="translate(72.062 23.934)" fill="#dde65c"/>
          <path id="Trazado_876224" data-name="Trazado 876224" d="M37.273,46.284V45.176L43.1,36.233l1.185-10.255,6.546-10.259,6.892,4.917,2.518,4.1,5.957-.6L70.664,28l5-4.194,9.682-4.64v.651l-9.384,4.518L70.659,28.8l-4.665-4.035-6.074.61-2.684-4.365-6.241-4.428-6.167,9.666L43.639,36.5Z" transform="translate(48.815 20.586)" fill="#eb5c44"/>
          <path id="Trazado_876225" data-name="Trazado 876225" d="M41.952,24.338l-.771-.443-1.088.628-.771,1.333v1.259l.771.443,1.088-.628.771-1.335Z" transform="translate(51.496 31.293)" fill="#fdb053"/>
          <path id="Trazado_876226" data-name="Trazado 876226" d="M42.479,19.881l-.771-.443-1.088.628L39.848,21.4v1.254l.771.446,1.088-.631.771-1.333Z" transform="translate(52.187 25.457)" fill="#eb5c44"/>
          <path id="Trazado_876227" data-name="Trazado 876227" d="M48.106,17.557l-.769-.446-1.09.628-.769,1.333v1.256l.769.446,1.09-.628.769-1.335Z" transform="translate(59.559 22.41)" fill="#eb5c44"/>
          <path id="Trazado_876228" data-name="Trazado 876228" d="M49.2,19.373l-.769-.443-1.09.628-.767,1.333V22.15l.767.443,1.09-.628L49.2,20.63Z" transform="translate(61.002 24.792)" fill="#cca7cf"/>
          <path id="Trazado_876229" data-name="Trazado 876229" d="M51.824,19.143l-.769-.446-1.092.631L49.2,20.661v1.256l.767.446,1.092-.631.769-1.333Z" transform="translate(64.429 24.487)" fill="#cca7cf"/>
          <path id="Trazado_876230" data-name="Trazado 876230" d="M53.687,20.726l-.769-.441-1.088.624-.769,1.335V23.5l.769.443,1.088-.628.769-1.335Z" transform="translate(66.872 26.566)" fill="#8ccccb"/>
          <path id="Trazado_876231" data-name="Trazado 876231" d="M56.014,18.968l-.771-.443-1.086.628-.774,1.333v1.259l.774.441,1.086-.626.771-1.335Z" transform="translate(69.913 24.26)" fill="#dde65c"/>
          <path id="Trazado_876232" data-name="Trazado 876232" d="M47.456,15.351l-1.582-.912L43.636,15.73l-1.577,2.737v2.587l1.577.91,2.238-1.289,1.582-2.742Z" transform="translate(55.082 18.909)" fill="#eb5c44"/>
          <g id="Grupo_1099705" data-name="Grupo 1099705" transform="translate(0 0.001)">
            <g id="Grupo_1099704" data-name="Grupo 1099704" clip-path="url(#clip-path-2)">
              <g id="Grupo_1099703" data-name="Grupo 1099703" transform="translate(45.158 147.787)" opacity="0.3">
                <g id="Grupo_1099702" data-name="Grupo 1099702">
                  <g id="Grupo_1099701" data-name="Grupo 1099701" clip-path="url(#clip-path-3)">
                    <path id="Trazado_876233" data-name="Trazado 876233" d="M68.07,72.193,53.861,63.987l-20.1,0-14.211,8.2,0,11.6L33.763,92h20.1L68.07,83.8Z" transform="translate(-19.552 -63.988)"/>
                  </g>
                </g>
              </g>
            </g>
          </g>
          <path id="Trazado_876234" data-name="Trazado 876234" d="M23.439,65.417l-1.217.88v1.116l15.8,9.123-3.536,11.13-.395.455v1.116l.986.818,1.693.173,1.407-.568,3.864-12.5L63.692,74.93l.979-.813V73l-1.714-.73-22,2.268-15.8-9.121Z" transform="translate(29.103 85.673)" fill="#403531"/>
          <path id="Trazado_876235" data-name="Trazado 876235" d="M23.439,65.063l-1.217.7v.993l15.8,9.125-3.931,12.7.986.815,1.693.173L38.18,89l3.864-12.493,21.648-2.233.979-.815-.3-.975-1.411-.57-22,2.268-15.8-9.123Z" transform="translate(29.103 85.209)" fill="#836e69"/>
          <path id="Trazado_876236" data-name="Trazado 876236" d="M30.408,68.4l-1.164.674v.947l1.164.672H32.05l1.166-.672v-.947L32.05,68.4Z" transform="translate(38.299 89.584)" fill="#e6e1dd"/>
          <path id="Trazado_876237" data-name="Trazado 876237" d="M29.244,70.641l1.164.674L30.5,69.9l-.095-.125-1.164-.672Z" transform="translate(38.299 90.503)" fill="#d8d1c7"/>
          <path id="Trazado_876238" data-name="Trazado 876238" d="M29.748,69.4v1.538H31.39l.136-1.444L31.39,69.4Z" transform="translate(38.959 90.884)" fill="#bfb8af"/>
          <path id="Trazado_876239" data-name="Trazado 876239" d="M30.459,69.777v1.538l1.166-.674V69.1Z" transform="translate(39.89 90.503)" fill="#a39c95"/>
          <path id="Trazado_876240" data-name="Trazado 876240" d="M30.284,55.161l-.663.381v.543l.663.381h.94l.663-.381v-.543l-.663-.381Z" transform="translate(38.793 72.241)" fill="#785b56"/>
          <path id="Trazado_876241" data-name="Trazado 876241" d="M29.621,86.532l.663.386.055-30.9-.055-.072-.663-.383Z" transform="translate(38.793 72.764)" fill="#574943"/>
          <path id="Trazado_876242" data-name="Trazado 876242" d="M29.908,55.726V86.7h.94l.074-30.921-.074-.053Z" transform="translate(39.169 72.981)" fill="#362c29"/>
          <path id="Trazado_876243" data-name="Trazado 876243" d="M30.315,55.943V86.918l.663-.386V55.56Z" transform="translate(39.701 72.763)" fill="#0a0808"/>
          <path id="Trazado_876244" data-name="Trazado 876244" d="M32.617,56.892H30.5L29,56.025l0-1.222L30.5,53.94h2.12l1.5.864v1.222Z" transform="translate(37.98 70.642)" fill="#e6e1dd"/>
          <path id="Trazado_876245" data-name="Trazado 876245" d="M29,56.822l1.494.864.12-1.818-.12-.159L29,54.843Z" transform="translate(37.979 71.824)" fill="#d8d1c7"/>
          <path id="Trazado_876246" data-name="Trazado 876246" d="M29.649,57.2l2.12,0,.166-1.855-.166-.12-2.12,0Z" transform="translate(38.829 72.314)" fill="#bfb8af"/>
          <path id="Trazado_876247" data-name="Trazado 876247" d="M30.567,55.709v1.975l1.5-.864V54.843Z" transform="translate(40.031 71.825)" fill="#a39c95"/>
          <path id="Trazado_876248" data-name="Trazado 876248" d="M48.947,18.264l-1.058-1.832-1.494-.866-1.06.612v1.73l1.06,1.832,1.494.864,1.058-.61Z" transform="translate(59.372 20.386)" fill="#d8d1c7"/>
          <path id="Trazado_876249" data-name="Trazado 876249" d="M45.793,16.125l1.494.866.2.023L49,16l-1.494-.864Z" transform="translate(59.972 19.827)" fill="#e6e1dd"/>
          <path id="Trazado_876250" data-name="Trazado 876250" d="M47.5,18.333,46.44,16.5l1.711-.989,1.058,1.832-1.522,1.074Z" transform="translate(60.82 20.316)" fill="#d8d1c7"/>
          <path id="Trazado_876251" data-name="Trazado 876251" d="M46.9,17.295v1.73l1.714-.991V16.306Z" transform="translate(61.42 21.355)" fill="#a39c95"/>
          <path id="Trazado_876252" data-name="Trazado 876252" d="M48.947,46.681l-1.058-1.832-1.494-.866-1.06.61v1.73l1.06,1.834,1.494.864,1.058-.612Z" transform="translate(59.372 57.602)" fill="#d8d1c7"/>
          <path id="Trazado_876253" data-name="Trazado 876253" d="M45.793,44.542l1.494.866.2.023L49,44.419l-1.494-.864Z" transform="translate(59.972 57.042)" fill="#e6e1dd"/>
          <path id="Trazado_876254" data-name="Trazado 876254" d="M47.5,46.752,46.44,44.92l1.711-.991,1.058,1.834-1.522,1.072Z" transform="translate(60.82 57.532)" fill="#d8d1c7"/>
          <path id="Trazado_876255" data-name="Trazado 876255" d="M46.9,45.712V47.44l1.714-.989V44.724Z" transform="translate(61.42 58.572)" fill="#a39c95"/>
          <path id="Trazado_876256" data-name="Trazado 876256" d="M16.092,64.752l-.767-1.321-1.079-.624-.762.441v1.245l.762,1.321,1.079.624L16.092,66Z" transform="translate(17.66 82.255)" fill="#785b56"/>
          <path id="Trazado_876257" data-name="Trazado 876257" d="M14.893,87.674l-1.079-.624L87.866,44.3l1.081.624L15.036,87.688Z" transform="translate(18.092 58.013)" fill="#836e69"/>
          <path id="Trazado_876258" data-name="Trazado 876258" d="M15.048,88.641l-.767-1.321L88.333,44.566l.764,1.321L15.184,88.7Z" transform="translate(18.703 58.366)" fill="#685750"/>
          <path id="Trazado_876259" data-name="Trazado 876259" d="M14.613,89.137V87.892L88.663,45.139v1.247Z" transform="translate(19.138 59.115)" fill="#403531"/>
          <path id="Trazado_876260" data-name="Trazado 876260" d="M14.319,98.806h-.356v-63h.356L19.945,71.43Z" transform="translate(18.287 46.896)" fill="#d1d1d1"/>
          <path id="Trazado_876261" data-name="Trazado 876261" d="M88.079,80.293l-73.955,42.7V59.781l73.955-42.7Z" transform="translate(18.498 22.375)" fill="#fff"/>
          <path id="Trazado_876262" data-name="Trazado 876262" d="M16.092,36.335l-.767-1.321-1.079-.624-.762.439v1.25l.762,1.319,1.079.624.767-.439Z" transform="translate(17.66 45.039)" fill="#785b56"/>
          <path id="Trazado_876263" data-name="Trazado 876263" d="M14.893,59.256l-1.079-.624L87.866,15.879l1.081.624L15.036,59.273Z" transform="translate(18.092 20.796)" fill="#836e69"/>
          <path id="Trazado_876264" data-name="Trazado 876264" d="M15.048,60.224,14.281,58.9,88.333,16.149l.764,1.321L15.184,60.284Z" transform="translate(18.703 21.15)" fill="#685750"/>
          <path id="Trazado_876265" data-name="Trazado 876265" d="M14.613,60.722V59.475L88.663,16.721v1.245Z" transform="translate(19.138 21.899)" fill="#403531"/>
          <path id="Trazado_876266" data-name="Trazado 876266" d="M16.187,37.176l-1.056-1.832-1.5-.864-1.06.61v1.73l1.06,1.832,1.5.864,1.056-.61Z" transform="translate(16.468 45.158)" fill="#d8d1c7"/>
          <path id="Trazado_876267" data-name="Trazado 876267" d="M13.033,35.04l1.5.864.2.023,1.513-1.012-1.5-.862Z" transform="translate(17.068 44.598)" fill="#e6e1dd"/>
          <path id="Trazado_876268" data-name="Trazado 876268" d="M14.737,37.248l-1.056-1.832,1.709-.991,1.06,1.834-1.524,1.074Z" transform="translate(17.918 45.086)" fill="#d8d1c7"/>
          <path id="Trazado_876269" data-name="Trazado 876269" d="M14.139,36.208V37.94l1.714-.993V35.22Z" transform="translate(18.517 46.125)" fill="#a39c95"/>
          <path id="Trazado_876270" data-name="Trazado 876270" d="M16.187,65.6l-1.056-1.832-1.5-.866-1.06.612v1.728l1.06,1.834,1.5.864,1.056-.612Z" transform="translate(16.468 82.373)" fill="#d8d1c7"/>
          <path id="Trazado_876271" data-name="Trazado 876271" d="M13.033,63.457l1.5.866.2.025,1.513-1.014-1.5-.866Z" transform="translate(17.068 81.812)" fill="#e6e1dd"/>
          <path id="Trazado_876272" data-name="Trazado 876272" d="M14.737,65.666l-1.056-1.832,1.709-.991,1.06,1.834-1.524,1.072Z" transform="translate(17.918 82.302)" fill="#d8d1c7"/>
          <path id="Trazado_876273" data-name="Trazado 876273" d="M14.139,64.626v1.728l1.714-.986v-1.73Z" transform="translate(18.517 83.342)" fill="#a39c95"/>
          <g id="Grupo_1099710" data-name="Grupo 1099710" transform="translate(0 0.001)">
            <g id="Grupo_1099709" data-name="Grupo 1099709" clip-path="url(#clip-path-2)">
              <g id="Grupo_1099708" data-name="Grupo 1099708" transform="translate(38.262 47.106)" opacity="0.5">
                <g id="Grupo_1099707" data-name="Grupo 1099707">
                  <g id="Grupo_1099706" data-name="Grupo 1099706" clip-path="url(#clip-path-5)">
                    <path id="Trazado_876274" data-name="Trazado 876274" d="M79.811,65.623l-.1.06,0-45.114L16.566,57.025v-.115L79.811,20.4Z" transform="translate(-16.567 -20.396)" fill="#428aa8"/>
                    <path id="Trazado_876275" data-name="Trazado 876275" d="M42.289,66.585l-.1.058V21.469l.1-.058Z" transform="translate(16.991 -19.066)" fill="#428aa8"/>
                    <path id="Trazado_876276" data-name="Trazado 876276" d="M40.567,67.575l-.095.055V22.459l.1-.055Z" transform="translate(14.742 -17.767)" fill="#428aa8"/>
                    <path id="Trazado_876277" data-name="Trazado 876277" d="M38.856,68.566l-.1.06V23.452l.1-.058Z" transform="translate(12.492 -16.47)" fill="#428aa8"/>
                    <path id="Trazado_876278" data-name="Trazado 876278" d="M37.137,69.559l-.1.058V24.442l.1-.058Z" transform="translate(10.244 -15.173)" fill="#428aa8"/>
                    <path id="Trazado_876279" data-name="Trazado 876279" d="M35.419,70.548l-.1.055V25.434l.1-.058Z" transform="translate(7.997 -13.874)" fill="#428aa8"/>
                    <path id="Trazado_876280" data-name="Trazado 876280" d="M33.705,71.541l-.1.058,0-45.174.1-.058Z" transform="translate(5.746 -12.576)" fill="#428aa8"/>
                    <path id="Trazado_876281" data-name="Trazado 876281" d="M31.988,72.532l-.1.058V27.418l.1-.06Z" transform="translate(3.5 -11.279)" fill="#428aa8"/>
                    <path id="Trazado_876282" data-name="Trazado 876282" d="M30.269,73.522l-.1.055V28.405l.1-.055Z" transform="translate(1.252 -9.98)" fill="#428aa8"/>
                    <path id="Trazado_876283" data-name="Trazado 876283" d="M28.554,74.514l-.1.058V29.4l.1-.06Z" transform="translate(-0.997 -8.683)" fill="#428aa8"/>
                    <path id="Trazado_876284" data-name="Trazado 876284" d="M26.835,75.506l-.1.053V30.389l.1-.058Z" transform="translate(-3.245 -7.384)" fill="#428aa8"/>
                    <path id="Trazado_876285" data-name="Trazado 876285" d="M25.125,76.5l-.1.058V31.38l.1-.058Z" transform="translate(-5.493 -6.086)" fill="#428aa8"/>
                    <path id="Trazado_876286" data-name="Trazado 876286" d="M23.4,77.486l-.1.058V32.369l.1-.055Z" transform="translate(-7.74 -4.788)" fill="#428aa8"/>
                    <path id="Trazado_876287" data-name="Trazado 876287" d="M21.692,78.477l-.1.055V33.363l.1-.058Z" transform="translate(-9.99 -3.489)" fill="#428aa8"/>
                    <path id="Trazado_876288" data-name="Trazado 876288" d="M19.969,79.467l-.1.058V34.352l.1-.055Z" transform="translate(-12.237 -2.191)" fill="#428aa8"/>
                    <path id="Trazado_876289" data-name="Trazado 876289" d="M18.258,80.459l-.1.058,0-45.174.1-.055Z" transform="translate(-14.487 -0.894)" fill="#428aa8"/>
                    <path id="Trazado_876290" data-name="Trazado 876290" d="M79.756,22.506,16.567,58.989v-.113L79.756,22.39Z" transform="translate(-16.566 -17.784)" fill="#428aa8"/>
                    <path id="Trazado_876291" data-name="Trazado 876291" d="M79.756,24.484,16.567,60.972v-.113L79.756,24.373Z" transform="translate(-16.566 -15.187)" fill="#428aa8"/>
                    <path id="Trazado_876292" data-name="Trazado 876292" d="M79.756,26.47,16.567,62.956V62.84L79.756,26.355Z" transform="translate(-16.566 -12.592)" fill="#428aa8"/>
                    <path id="Trazado_876293" data-name="Trazado 876293" d="M79.756,28.449,16.567,64.934v-.113L79.756,28.338Z" transform="translate(-16.566 -9.995)" fill="#428aa8"/>
                    <path id="Trazado_876294" data-name="Trazado 876294" d="M79.756,30.433,16.567,66.918V66.8L79.756,30.32Z" transform="translate(-16.566 -7.4)" fill="#428aa8"/>
                    <path id="Trazado_876295" data-name="Trazado 876295" d="M79.756,32.417,16.567,68.9v-.111L79.756,32.3Z" transform="translate(-16.566 -4.804)" fill="#428aa8"/>
                    <path id="Trazado_876296" data-name="Trazado 876296" d="M79.756,34.4,16.567,70.882v-.113L79.756,34.284Z" transform="translate(-16.566 -2.208)" fill="#428aa8"/>
                    <path id="Trazado_876297" data-name="Trazado 876297" d="M79.756,36.381,16.567,72.864v-.113L79.756,36.266Z" transform="translate(-16.566 0.388)" fill="#428aa8"/>
                    <path id="Trazado_876298" data-name="Trazado 876298" d="M79.756,38.362,16.567,74.847v-.115L79.756,38.249Z" transform="translate(-16.566 2.985)" fill="#428aa8"/>
                  </g>
                </g>
              </g>
            </g>
          </g>
          <path id="Trazado_876299" data-name="Trazado 876299" d="M17.005,81.813V35.883l-.774.446V83.15l64.28-37.111v-.894Z" transform="translate(21.257 46.994)" fill="#428aa8"/>
          <path id="Trazado_876300" data-name="Trazado 876300" d="M43.429,34l-1.023-.589-1.444.834-1.025,1.771v1.67l1.025.591,1.444-.836,1.023-1.771Z" transform="translate(52.303 43.751)" fill="#fbe979"/>
          <path id="Trazado_876301" data-name="Trazado 876301" d="M40.734,38.242l-1.016-.591-1.446.836-1.025,1.771v1.67l1.025.591,1.446-.836,1.016-1.771Z" transform="translate(48.78 49.31)" fill="#fbe979"/>
          <path id="Trazado_876302" data-name="Trazado 876302" d="M37.1,39.468l-1.023-.591-1.444.834-1.023,1.771v1.672l1.023.589,1.444-.834L37.1,41.138Z" transform="translate(44.022 50.915)" fill="#fbe979"/>
          <path id="Trazado_876303" data-name="Trazado 876303" d="M31.359,45.938l-1.021-.589-1.444.834-1.021,1.771v1.67l1.021.591,1.444-.836,1.025-1.769Z" transform="translate(36.505 59.392)" fill="#fbe979"/>
          <path id="Trazado_876304" data-name="Trazado 876304" d="M27.988,46.731l-1.023-.589-1.448.834L24.5,48.75v1.67l1.019.589,1.448-.834L27.988,48.4Z" transform="translate(32.083 60.43)" fill="#fbe979"/>
          <path id="Trazado_876305" data-name="Trazado 876305" d="M24.444,49.5l-1.019-.591-1.448.836L20.957,51.52v1.67l1.021.589,1.448-.834,1.019-1.769Z" transform="translate(27.446 64.058)" fill="#fbe979"/>
          <path id="Trazado_876306" data-name="Trazado 876306" d="M46.3,32.3,45.03,31.57l-1.8,1.037-1.27,2.2v2.074l1.27.737,1.8-1.039,1.268-2.2Z" transform="translate(54.947 41.345)" fill="#fbe979"/>
          <path id="Trazado_876307" data-name="Trazado 876307" d="M44.534,64.806,36.681,66.42l-8.213,6.61-11.925,5,.106-.97,11.793-4.943,8.282-6.668,7.747-1.591,13.2-15.128,8.262-2.46,6.153-9.9,5.284-3.675.076.864-5.023,3.494-6.275,10.1-8.384,2.494Z" transform="translate(21.666 42.816)" fill="#fbe979"/>
          <path id="Trazado_876308" data-name="Trazado 876308" d="M28.453,41.683l-1.023-.589-1.45.831L24.959,43.7v1.67l1.021.591,1.45-.836,1.023-1.771Z" transform="translate(32.687 53.819)" fill="#fa5c52"/>
          <path id="Trazado_876309" data-name="Trazado 876309" d="M32.121,40.216,31.1,39.627l-1.448.834-1.025,1.774V43.9l1.025.589,1.444-.836,1.023-1.769Z" transform="translate(37.493 51.898)" fill="#fa5c52"/>
          <path id="Trazado_876310" data-name="Trazado 876310" d="M40.574,32.212l-1.019-.589-1.448.834-1.025,1.771V35.9l1.025.591,1.448-.834,1.021-1.771Z" transform="translate(48.564 41.415)" fill="#fa5c52"/>
          <path id="Trazado_876311" data-name="Trazado 876311" d="M42.659,28.967l-1.028-.589-1.444.834-1.023,1.771v1.67l1.023.591,1.444-.834,1.028-1.771Z" transform="translate(51.292 37.165)" fill="#fa5c52"/>
          <path id="Trazado_876312" data-name="Trazado 876312" d="M46.3,26.052l-1.268-.734-1.8,1.039-1.275,2.2v2.076l1.27.734,1.8-1.037,1.268-2.2Z" transform="translate(54.947 33.157)" fill="#fa5c52"/>
          <path id="Trazado_876313" data-name="Trazado 876313" d="M16.679,79.528l-.143-.82L37.669,62.143l8.5-3.291,19.553-18.57,4.665-7.389L77.3,26.466l.229.746-6.758,6.275-4.654,7.377-.079.074L46.224,59.755l-8.55,3.314Z" transform="translate(21.656 34.662)" fill="#fa5c52"/>
          <path id="Trazado_876314" data-name="Trazado 876314" d="M46.3,22.384,45.03,21.65l-1.8,1.037-1.275,2.206v2.076l1.275.734,1.8-1.037,1.268-2.2Z" transform="translate(54.947 28.353)" fill="#7dd2e3"/>
          <path id="Trazado_876315" data-name="Trazado 876315" d="M40.082,27.66l-1.023-.589-1.444.831L36.59,29.676v1.67l1.025.591,1.444-.836,1.023-1.771Z" transform="translate(47.919 35.453)" fill="#7dd2e3"/>
          <path id="Trazado_876316" data-name="Trazado 876316" d="M34.976,34.573l-1.019-.589-1.453.834-1.023,1.771v1.672l1.023.589,1.45-.836,1.021-1.771Z" transform="translate(41.229 44.506)" fill="#7dd2e3"/>
          <path id="Trazado_876317" data-name="Trazado 876317" d="M29.077,38.254l-1.023-.591L26.61,38.5l-1.03,1.771V41.94l1.03.589,1.444-.836,1.023-1.769Z" transform="translate(33.5 49.324)" fill="#7dd2e3"/>
          <path id="Trazado_876318" data-name="Trazado 876318" d="M25.146,41.706l-1.023-.587-1.441.834-1.028,1.771v1.668l1.028.6,1.441-.838,1.023-1.771Z" transform="translate(28.359 53.851)" fill="#7dd2e3"/>
          <path id="Trazado_876319" data-name="Trazado 876319" d="M30.158,67.993,16.527,72.176l.178-1,13.435-4.12L39.157,59,52.85,50.645,64.473,34.588l.058-.058L77.323,22.8l.222.751L64.817,35.224,53.111,51.4,39.228,59.879Z" transform="translate(21.644 29.857)" fill="#7dd2e3"/>
          <path id="Trazado_876320" data-name="Trazado 876320" d="M80.511,48.8,16.232,85.918V78.474l64.28-37.116Z" transform="translate(21.257 54.165)" fill="#baf3ff"/>
          <path id="Trazado_876321" data-name="Trazado 876321" d="M66.662,39.928l1.912,4.206,3.806.326L81.7,47.742l-.4,3.883-12.6-.665-4.855-3.086-2.693-4.691L62.863,40.2Z" transform="translate(80.092 52.292)" fill="#f0c6b4"/>
          <g id="Grupo_1099715" data-name="Grupo 1099715" transform="translate(0 0.001)">
            <g id="Grupo_1099714" data-name="Grupo 1099714" clip-path="url(#clip-path-2)">
              <g id="Grupo_1099713" data-name="Grupo 1099713" transform="translate(106.69 162.383)" opacity="0.3">
                <g id="Grupo_1099712" data-name="Grupo 1099712">
                  <g id="Grupo_1099711" data-name="Grupo 1099711" clip-path="url(#clip-path-7)">
                    <path id="Trazado_876322" data-name="Trazado 876322" d="M51.764,72.511l-5.571,3.809.388,4.712,6.116,2.85,26.81-2.2,5.569-3.813-.386-4.709-6.118-2.85Z" transform="translate(-46.193 -70.307)"/>
                  </g>
                </g>
              </g>
            </g>
          </g>
          <path id="Trazado_876323" data-name="Trazado 876323" d="M58.578,70.491l9.4,3.578,3.194,1.806v.612l-.785,1.587-4.855-1.226-3.852-2.668-3.5-1.007-2.231-1.751v-.612Z" transform="translate(73.27 92.318)" fill="#0a0808"/>
          <path id="Trazado_876324" data-name="Trazado 876324" d="M52,74.776l-3.892,1v.612l.3,4.3L52,81.377l1.954-2.206.654-4.552,1.282-2.594v-.61Z" transform="translate(63.011 93.529)" fill="#0a0808"/>
          <path id="Trazado_876325" data-name="Trazado 876325" d="M64.271,71.091l2.356,1.972,3.792,2.266.753,2.448-.785,1.587-4.855-1.226-3.852-2.67-3.5-1-2.231-1.751.661-3.675Z" transform="translate(73.27 90.415)" fill="#6b4414"/>
          <path id="Trazado_876326" data-name="Trazado 876326" d="M50.674,73.133,48.113,77.4l.3,4.3L52,82.385l1.954-2.206.654-4.555,1.282-2.589V70.474l-4.266-.3Z" transform="translate(63.011 91.909)" fill="#6b4414"/>
          <path id="Trazado_876327" data-name="Trazado 876327" d="M53.49,47.688l-1.074,1.9L50.907,64.839l.437,13.038-1.312,5.776L49.506,99.34l2.43,2.425,4.527-2.425L59.044,80.5l3.869-19.514h.312l1.965,16.5-1.046,3.61.173,16.62,1.905,1.626,6.483-.289-.557-4.176.674-14.962,2.238-17.131V49.344l-.878-.956Z" transform="translate(64.834 62.454)" fill="#362c29"/>
          <path id="Trazado_876328" data-name="Trazado 876328" d="M58.052,49.2H55.818l-.508,9.8,2.233-1.058Z" transform="translate(72.436 64.438)" fill="#211a1a"/>
          <path id="Trazado_876329" data-name="Trazado 876329" d="M55.581,54.584l6.294.261-6.43-1.4Z" transform="translate(72.613 69.997)" fill="#0a0808"/>
          <path id="Trazado_876330" data-name="Trazado 876330" d="M60.927,34.506l3.926.374,2.19,2.79,2.887,8.871-2.014,3.13-4.816.776L58.9,40.321Z" transform="translate(77.14 45.19)" fill="#fff"/>
          <path id="Trazado_876331" data-name="Trazado 876331" d="M61.335,36.814l2.132,10.232L61.9,47.3l-.737-.607-.744-7.6Z" transform="translate(79.126 48.213)" fill="#d1d1d1"/>
          <path id="Trazado_876332" data-name="Trazado 876332" d="M54.614,33.912,54.529,35.2l-.714,3.039,1.356,5.423,7.266.552.963-5.01-2.668-6.476H55.824Z" transform="translate(70.478 42.867)" fill="#c7a495"/>
          <path id="Trazado_876333" data-name="Trazado 876333" d="M51.688,46.86l-.457,1.912,4.254,3.183,8.652.975,5.95-1.49,1.838-1.968-.15-1.808Z" transform="translate(67.094 61.37)" fill="#693121"/>
          <path id="Trazado_876334" data-name="Trazado 876334" d="M49.733,38.144,58.12,35.1l1.721,1.4.878,2.134,2.6.256.85,1.755,1.367.5,1.086-.924.266-1.767,2.6-4.157,3.444.469,2.4,5.331.788,9.3-1.97,10.329.79,3.257-3.15,2.954-5.578,1.18L58.12,66.4l-4.929-3.411,1.136-3.806-3-7.971Z" transform="translate(65.133 44.925)" fill="#fff"/>
          <path id="Trazado_876335" data-name="Trazado 876335" d="M50.3,41.644l.224,2.446.691,1.582,1.231-5.848Z" transform="translate(65.877 52.155)" fill="#d1d1d1"/>
          <g id="Grupo_1099723" data-name="Grupo 1099723" transform="translate(0 0.001)">
            <g id="Grupo_1099722" data-name="Grupo 1099722" clip-path="url(#clip-path-2)">
              <g id="Grupo_1099718" data-name="Grupo 1099718" transform="translate(131.756 82.379)" opacity="0.3">
                <g id="Grupo_1099717" data-name="Grupo 1099717">
                  <g id="Grupo_1099716" data-name="Grupo 1099716" clip-path="url(#clip-path-9)">
                    <path id="Trazado_876336" data-name="Trazado 876336" d="M57.309,36.675l-.263,1.767,2.832.328-.425-3.1Z" transform="translate(-57.046 -35.668)"/>
                  </g>
                </g>
              </g>
              <g id="Grupo_1099721" data-name="Grupo 1099721" transform="translate(123.252 80.029)" opacity="0.3">
                <g id="Grupo_1099720" data-name="Grupo 1099720">
                  <g id="Grupo_1099719" data-name="Grupo 1099719" clip-path="url(#clip-path-10)">
                    <path id="Trazado_876337" data-name="Trazado 876337" d="M58.563,38.445l.9,1.859-2.936,1.224-2.956-3.839-.208-3.039,2.026,2.591Z" transform="translate(-53.364 -34.651)"/>
                  </g>
                </g>
              </g>
            </g>
          </g>
          <path id="Trazado_876338" data-name="Trazado 876338" d="M57.416,37.585l.39-1.185.7-.524.568.707-1.931,2.178-.476-.263Z" transform="translate(74.214 46.985)" fill="#c84030"/>
          <path id="Trazado_876339" data-name="Trazado 876339" d="M57.16,37.035,59.416,38.8l-.464-2.707-1.792-.7Z" transform="translate(74.859 46.352)" fill="#fff"/>
          <path id="Trazado_876340" data-name="Trazado 876340" d="M56.793,37.83l.58,9.516L56.126,70.181l2.34,3.284,1.908-3.631L59.2,47.246,57.71,37.722l-.49-.6Z" transform="translate(73.505 48.621)" fill="#c84030"/>
          <path id="Trazado_876341" data-name="Trazado 876341" d="M55.572,36.511l-.524.658,2.9,1.374.032-.922-.848-.252-.771-1.076Z" transform="translate(72.092 47.531)" fill="#c84030"/>
          <path id="Trazado_876342" data-name="Trazado 876342" d="M55.949,36.946l1.074,1.55.919-.106.413-1.774Z" transform="translate(73.274 47.954)" fill="#fa5c52"/>
          <path id="Trazado_876343" data-name="Trazado 876343" d="M46.344,43.266l2.742,4.06,4.758-.721.33-3.806-5.22-1.728Z" transform="translate(60.694 53.79)" fill="#a39c95"/>
          <path id="Trazado_876344" data-name="Trazado 876344" d="M57.006,42.842,54.1,48.179l-14.475-.437-.836,3.85,11.079,2.319H55.5l3.194-2.143,4.321-6.074L62.8,42.842l-3.566-1.61Z" transform="translate(50.794 53.999)" fill="#f0c6b4"/>
          <path id="Trazado_876345" data-name="Trazado 876345" d="M56.076,36.283l-1.9-.316-3.379,3.806L46.344,49.954,50.395,50l3.448,3.3,3.788-8.416V40.265Z" transform="translate(60.694 47.103)" fill="#fff"/>
          <path id="Trazado_876346" data-name="Trazado 876346" d="M67.178,32.358l.206,2.834-.725.758.36,1.171-1.268,6.631-2.633,1.111-5.959-3.624-.376-1.9-1.111-.409-.584-.857L54.415,37l-.961-2.859,4.171-4.183,6.518-.406Z" transform="translate(70.006 38.705)" fill="#f0c6b4"/>
          <path id="Trazado_876347" data-name="Trazado 876347" d="M55.036,38.277l1.213-1.053,1.6,1.638.427,1.947.7.469V38.392l2.067-1.358.353-1.681L63.02,36.6l3.236.079,2.381-1.832L67.27,30.914l-4.513-3.388-4.522.275-1.559,1.4-2.007.411-1.654,3.915.312,3.933,1.594,3.5.741-.231Z" transform="translate(69.43 36.049)" fill="#685750"/>
          <path id="Trazado_876348" data-name="Trazado 876348" d="M54.686,28.423l3.779,4.6-2.5-4.365Z" transform="translate(71.618 37.224)" fill="#544540"/>
          <path id="Trazado_876349" data-name="Trazado 876349" d="M45.5,45.581l-2.765-2.7-3.541.337.141,1.014L37.9,44.44l-3.208-.5L34.294,45.3l3.647,4.55H43.8l.866-.42L46.5,47.6Z" transform="translate(44.914 56.159)" fill="#f0c6b4"/>
          <path id="Trazado_876350" data-name="Trazado 876350" d="M55.119,33.8l.27,2.707,3.173,3.046-1.947,2.561-2.6-3.765-.649-2.589Z" transform="translate(69.888 44.268)" fill="#fff"/>
          <path id="Trazado_876351" data-name="Trazado 876351" d="M53.015,55.339l5.1-.889.2-1Z" transform="translate(69.43 69.996)" fill="#0a0808"/>
          <path id="Trazado_876352" data-name="Trazado 876352" d="M70.956,44.526l-1.6.7,1.2,3.183,3.485,1.106h3.1l4.113-4.023V44.309l-2.626.217-2.014-.741.831-.919-3.367-.483Z" transform="translate(90.836 55.507)" fill="#f0c6b4"/>
        </g>
      </g>
      <rect id="Rectángulo_401024" data-name="Rectángulo 401024" width="157" height="78.734" rx="20" transform="translate(1105 7124.748)" fill="none" stroke="#ff725d" stroke-miterlimit="10" stroke-width="3"/>
    </g>
  </g>
</svg>
