<svg xmlns="http://www.w3.org/2000/svg" xmlns:xlink="http://www.w3.org/1999/xlink" width="243.5" height="183.859" viewBox="0 0 243.5 183.859">
  <defs>
    <clipPath id="clip-path">
      <path id="Trazado_176041" data-name="Trazado 176041" d="M1065.783,1215.43l-4.638,2.695c-2.135,1.241-3.458,3.878-3.468,7.626-.022,7.545,5.284,16.735,11.851,20.526l4.638-2.7c-6.567-3.791-11.872-12.98-11.851-20.526C1062.326,1219.307,1063.649,1216.67,1065.783,1215.43Z" fill="#251b29"/>
    </clipPath>
    <clipPath id="clip-path-2">
      <path id="Trazado_176044" data-name="Trazado 176044" d="M1077.987,1247.106l4.638-2.7c-2.161,1.256-5.155,1.079-8.459-.829l-4.638,2.7C1072.831,1248.185,1075.825,1248.362,1077.987,1247.106Z" fill="#251b29"/>
    </clipPath>
    <clipPath id="clip-path-3">
      <path id="Trazado_176047" data-name="Trazado 176047" d="M1062.736,1210.187l-4.638,2.7c2.944-1.711,7.021-1.47,11.521,1.128l4.639-2.7C1069.758,1208.717,1065.681,1208.476,1062.736,1210.187Z" fill="#251b29"/>
    </clipPath>
    <clipPath id="clip-path-4">
      <path id="Trazado_176052" data-name="Trazado 176052" d="M1081.034,1252.347l4.638-2.7c2.907-1.689,4.709-5.281,4.723-10.385.03-10.274-7.2-22.79-16.137-27.952l-4.639,2.7c8.941,5.162,16.167,17.678,16.138,27.952C1085.742,1247.067,1083.94,1250.658,1081.034,1252.347Z" fill="#251b29"/>
    </clipPath>
    <clipPath id="clip-path-5">
      <path id="Trazado_176056" data-name="Trazado 176056" d="M1095.914,1259.959l-8.494-12.131-1.221.856,8.494,12.13Z" fill="#e9ecf5"/>
    </clipPath>
    <clipPath id="clip-path-6">
      <path id="Trazado_176060" data-name="Trazado 176060" d="M1082.533,1251.251l8.494,12.13.328-.23,3.338-2.337-8.494-12.13-3.338,2.337Z" fill="#e9ecf5"/>
    </clipPath>
    <clipPath id="clip-path-7">
      <path id="Trazado_176064" data-name="Trazado 176064" d="M1110.789,1277.771l-16.043-22.913-2.005,1.4,16.044,22.913C1110.071,1278.275,1110.789,1277.771,1110.789,1277.771Z" fill="#e5354f"/>
    </clipPath>
    <clipPath id="clip-path-8">
      <path id="Trazado_176068" data-name="Trazado 176068" d="M1086.73,1260.471l16.044,22.913.537-.376,5.474-3.833-16.044-22.913-5.474,3.833Z" fill="#e5354f"/>
    </clipPath>
    <clipPath id="clip-path-9">
      <path id="Trazado_176090" data-name="Trazado 176090" d="M975.952,1252.475l-.022,7.87a9.62,9.62,0,0,0-4.057-4.037l.022-7.87A9.6,9.6,0,0,1,975.952,1252.475Z" fill="none"/>
    </clipPath>
    <clipPath id="clip-path-10">
      <path id="Trazado_176092" data-name="Trazado 176092" d="M976.5,1254.872l-.023,7.871a5.567,5.567,0,0,0-.548-2.4l.022-7.87A5.581,5.581,0,0,1,976.5,1254.872Z" fill="none"/>
    </clipPath>
    <clipPath id="clip-path-11">
      <path id="Trazado_176095" data-name="Trazado 176095" d="M945.275,1262.655l.023-7.87c.006-2.3,1.516-4.593,4.533-6.346,6.072-3.529,15.952-3.53,22.064,0l-.022,7.87c-6.113-3.528-15.992-3.528-22.064,0C946.792,1258.062,945.282,1260.357,945.275,1262.655Z" fill="#e5354f"/>
    </clipPath>
    <clipPath id="clip-path-12">
      <path id="Trazado_176098" data-name="Trazado 176098" d="M935.015,1262.6l.023-7.87a9.228,9.228,0,0,0,.91,3.964l-.022,7.87A9.246,9.246,0,0,1,935.015,1262.6Z" fill="none"/>
    </clipPath>
    <clipPath id="clip-path-13">
      <path id="Trazado_176102" data-name="Trazado 176102" d="M954.315,1269.294l-.022,7.87a33.88,33.88,0,0,1-11.7-3.839,15.8,15.8,0,0,1-6.667-6.765l.022-7.87a15.8,15.8,0,0,0,6.667,6.764A33.881,33.881,0,0,0,954.315,1269.294Z" fill="none"/>
    </clipPath>
    <clipPath id="clip-path-14">
      <path id="Trazado_176104" data-name="Trazado 176104" d="M986.832,1254.891l-.022,7.87c-.019,6.593-7.6,12.615-19.114,14.4a42.194,42.194,0,0,1-13.4,0l.022-7.87a42.194,42.194,0,0,0,13.4,0C979.233,1267.505,986.813,1261.484,986.832,1254.891Z" fill="none"/>
    </clipPath>
    <clipPath id="clip-path-15">
      <path id="Trazado_176141" data-name="Trazado 176141" d="M976.308,1265.773l-1.072.623a.3.3,0,0,1,.3.028l1.072-.623A.292.292,0,0,0,976.308,1265.773Z" fill="none"/>
    </clipPath>
    <clipPath id="clip-path-16">
      <path id="Trazado_176165" data-name="Trazado 176165" d="M1038.039,1289.595l.185-.108a.277.277,0,0,0,.116-.256l-.185.108A.278.278,0,0,1,1038.039,1289.595Z" fill="#eff6fe"/>
    </clipPath>
    <clipPath id="clip-path-17">
      <path id="Trazado_176172" data-name="Trazado 176172" d="M1038.166,1285.595l.185-.107a.874.874,0,0,0-.4-.688l-.185.108A.873.873,0,0,1,1038.166,1285.595Z" fill="#eff6fe"/>
    </clipPath>
  </defs>
  <g id="Grupo_1100072" data-name="Grupo 1100072" transform="translate(-1019.999 -7992)">
    <g id="Grupo_1099747" data-name="Grupo 1099747" transform="translate(0 1902)">
      <rect id="Rectángulo_401023" data-name="Rectángulo 401023" width="160.605" height="164.781" rx="20" transform="translate(1077.24 6109.078)" fill="#53bced"/>
      <g id="Grupo_76487" data-name="Grupo 76487" transform="translate(84.984 4943.876)">
        <g id="Grupo_76310" data-name="Grupo 76310">
          <g id="Grupo_76292" data-name="Grupo 76292">
            <g id="Grupo_76291" data-name="Grupo 76291" style="isolation: isolate">
              <g id="Grupo_76288" data-name="Grupo 76288">
                <path id="Trazado_175993" data-name="Trazado 175993" d="M1109.463,1248.026l1.715-1,.144-50.805-1.715,1Z" fill="#bcc5df"/>
              </g>
              <g id="Grupo_76289" data-name="Grupo 76289">
                <path id="Trazado_175994" data-name="Trazado 175994" d="M1109.607,1197.221l1.715-1-73.876-42.652-1.715,1Z" fill="#fff"/>
              </g>
              <g id="Grupo_76290" data-name="Grupo 76290">
                <path id="Trazado_175995" data-name="Trazado 175995" d="M1035.731,1154.569l-.144,50.805,73.876,42.652.144-50.805Z" fill="#e9ecf5"/>
              </g>
            </g>
          </g>
          <g id="Grupo_76309" data-name="Grupo 76309">
            <g id="Grupo_76308" data-name="Grupo 76308" opacity="0.4">
              <g id="Grupo_76293" data-name="Grupo 76293">
                <path id="Trazado_175996" data-name="Trazado 175996" d="M1106.919,1244.775l-.065-.038L1037.33,1204.6v-46.445l.066.038,69.524,40.138Zm-69.5-40.226,69.415,40.076V1198.38l-69.416-40.075Z" fill="#372b3d"/>
              </g>
              <g id="Grupo_76294" data-name="Grupo 76294">
                <rect id="Rectángulo_22786" data-name="Rectángulo 22786" width="0.087" height="80.254" transform="matrix(0.5, -0.866, 0.866, 0.5, 1037.352, 1165.991)" fill="#372b3d"/>
              </g>
              <g id="Grupo_76295" data-name="Grupo 76295">
                <rect id="Rectángulo_22787" data-name="Rectángulo 22787" width="0.087" height="80.254" transform="matrix(0.5, -0.866, 0.866, 0.5, 1037.352, 1173.715)" fill="#372b3d"/>
              </g>
              <g id="Grupo_76296" data-name="Grupo 76296">
                <rect id="Rectángulo_22788" data-name="Rectángulo 22788" width="0.087" height="80.254" transform="translate(1037.352 1181.439) rotate(-60.001)" fill="#372b3d"/>
              </g>
              <g id="Grupo_76297" data-name="Grupo 76297">
                <rect id="Rectángulo_22789" data-name="Rectángulo 22789" width="0.087" height="80.254" transform="translate(1037.352 1189.163) rotate(-60.001)" fill="#372b3d"/>
              </g>
              <g id="Grupo_76298" data-name="Grupo 76298">
                <rect id="Rectángulo_22790" data-name="Rectángulo 22790" width="0.087" height="80.254" transform="translate(1037.352 1196.888) rotate(-60.001)" fill="#372b3d"/>
              </g>
              <g id="Grupo_76299" data-name="Grupo 76299">
                <rect id="Rectángulo_22791" data-name="Rectángulo 22791" width="0.087" height="46.345" transform="translate(1044.28 1162.242)" fill="#372b3d"/>
              </g>
              <g id="Grupo_76300" data-name="Grupo 76300">
                <rect id="Rectángulo_22792" data-name="Rectángulo 22792" width="0.087" height="46.344" transform="translate(1051.23 1166.255)" fill="#372b3d"/>
              </g>
              <g id="Grupo_76301" data-name="Grupo 76301">
                <rect id="Rectángulo_22793" data-name="Rectángulo 22793" width="0.087" height="46.344" transform="translate(1058.181 1170.267)" fill="#372b3d"/>
              </g>
              <g id="Grupo_76302" data-name="Grupo 76302">
                <rect id="Rectángulo_22794" data-name="Rectángulo 22794" width="0.087" height="46.345" transform="translate(1065.131 1174.28)" fill="#372b3d"/>
              </g>
              <g id="Grupo_76303" data-name="Grupo 76303">
                <rect id="Rectángulo_22795" data-name="Rectángulo 22795" width="0.087" height="46.345" transform="translate(1072.081 1178.292)" fill="#372b3d"/>
              </g>
              <g id="Grupo_76304" data-name="Grupo 76304">
                <rect id="Rectángulo_22796" data-name="Rectángulo 22796" width="0.087" height="46.344" transform="translate(1079.031 1182.305)" fill="#372b3d"/>
              </g>
              <g id="Grupo_76305" data-name="Grupo 76305">
                <rect id="Rectángulo_22797" data-name="Rectángulo 22797" width="0.087" height="46.344" transform="translate(1085.982 1186.318)" fill="#372b3d"/>
              </g>
              <g id="Grupo_76306" data-name="Grupo 76306">
                <rect id="Rectángulo_22798" data-name="Rectángulo 22798" width="0.087" height="46.345" transform="translate(1092.932 1190.33)" fill="#372b3d"/>
              </g>
              <g id="Grupo_76307" data-name="Grupo 76307">
                <rect id="Rectángulo_22799" data-name="Rectángulo 22799" width="0.087" height="46.344" transform="translate(1099.882 1194.343)" fill="#372b3d"/>
              </g>
            </g>
            <path id="Trazado_175997" data-name="Trazado 175997" d="M1099.925,1240.687l6.95,4.013v-21.347l-6.95-4.013Z" fill="#a6afcd"/>
            <path id="Trazado_175998" data-name="Trazado 175998" d="M1089.5,1234.668l6.95,4.013v-6.644l-6.95-4.012Z" fill="#a6afcd"/>
            <path id="Trazado_175999" data-name="Trazado 175999" d="M1047.8,1210.593l6.95,4.013v-34.641l-6.95-4.012Z" fill="#a6afcd"/>
            <path id="Trazado_176000" data-name="Trazado 176000" d="M1068.649,1222.631l6.95,4.012v-15.757l-6.95-4.013Z" fill="#a6afcd"/>
            <path id="Trazado_176001" data-name="Trazado 176001" d="M1037.373,1204.574l6.95,4.013v-13.107l-6.95-4.013Z" fill="#a6afcd"/>
            <path id="Trazado_176002" data-name="Trazado 176002" d="M1079.074,1228.649l6.95,4.013v-40.924l-6.95-4.013Z" fill="#a6afcd"/>
            <path id="Trazado_176003" data-name="Trazado 176003" d="M1058.224,1216.612l6.95,4.012v-26.215l-6.95-4.012Z" fill="#a6afcd"/>
          </g>
        </g>
        <g id="Grupo_76455" data-name="Grupo 76455">
          <g id="Grupo_76351" data-name="Grupo 76351">
            <g id="Grupo_76315" data-name="Grupo 76315">
              <g id="Grupo_76314" data-name="Grupo 76314" style="isolation: isolate">
                <g id="Grupo_76311" data-name="Grupo 76311">
                  <path id="Trazado_176004" data-name="Trazado 176004" d="M1078.251,1211.514l1.805-1.049-.272,95.934-1.805,1.049Z" fill="#bcc5df"/>
                </g>
                <g id="Grupo_76312" data-name="Grupo 76312">
                  <path id="Trazado_176005" data-name="Trazado 176005" d="M967.815,1147.754l1.8-1.049,110.436,63.76-1.805,1.049Z" fill="#fff"/>
                </g>
                <g id="Grupo_76313" data-name="Grupo 76313">
                  <path id="Trazado_176006" data-name="Trazado 176006" d="M1078.251,1211.514l-.272,95.934-110.436-63.76.272-95.934Z" fill="#eef1f8"/>
                </g>
              </g>
            </g>
            <g id="Grupo_76316" data-name="Grupo 76316">
              <path id="Trazado_176007" data-name="Trazado 176007" d="M1047.983,1240.494l-4.055-2.341v-4.682l4.055,2.341Z" fill="#f75061"/>
              <path id="Trazado_176008" data-name="Trazado 176008" d="M1047.983,1246.893l-4.055-2.341v-4.682l4.055,2.341Z" fill="#15d9fd"/>
              <path id="Trazado_176009" data-name="Trazado 176009" d="M1047.983,1253.291l-4.055-2.341v-4.682l4.055,2.341Z" fill="#ffde23"/>
              <path id="Trazado_176010" data-name="Trazado 176010" d="M1075.591,1256.433l-25.659-14.814v-4.682l25.659,14.814Z" fill="#f75061"/>
              <path id="Trazado_176011" data-name="Trazado 176011" d="M1075.59,1262.831l-25.659-14.814v-4.682l25.659,14.814Z" fill="#15d9fd"/>
              <path id="Trazado_176012" data-name="Trazado 176012" d="M1075.59,1269.23l-25.659-14.814v-4.682l25.659,14.814Z" fill="#ffde23"/>
            </g>
            <g id="Grupo_76321" data-name="Grupo 76321">
              <g id="Grupo_76320" data-name="Grupo 76320">
                <g id="Grupo_76317" data-name="Grupo 76317" opacity="0.2">
                  <path id="Trazado_176013" data-name="Trazado 176013" d="M970.546,1192.116v51.545l70.012,40.42v-51.545l-.059-.034h0l-69.776-40.284h0Zm.235,37.031,6.108,3.526v7.053l-6.108-3.526Zm69.542,10.577-6.108-3.526v-7.052l6.108,3.526Zm-69.542-47.2,6.108,3.526v7.053l-6.108-3.526Zm37.825,36.488v7.052l-6.108-3.527v-7.052Zm-6.108,10.85v-7.052l6.108,3.526v7.053Zm12.451.136v7.052l-6.107-3.526v-7.052Zm-18.794-3.8v-7.052l6.107,3.526v7.052Zm0-7.325v-7.052l6.107,3.526v7.052Zm18.794,3.8v7.052l-6.107-3.526v-7.052Zm6.344,10.987v7.052l-6.108-3.527v-7.052Zm0,7.325v7.052l-6.108-3.527v-7.052Zm-6.344,3.389-6.107-3.526V1243.8l6.107,3.526Zm-6.343-3.661-6.108-3.527v-7.053l6.108,3.527Zm-6.344-3.663-6.107-3.526v-7.053l6.107,3.526Zm-12.451-14.514v-7.052l6.109,3.527v7.052Zm0-7.324v-7.052l6.109,3.526v7.052Zm31.482,11.123v7.052l-6.108-3.526v-7.052Zm6.343,10.987v7.052l-6.108-3.526V1243.8Zm0,7.324v7.053l-6.108-3.526v-7.053Zm-37.825-14.785v-7.052l6.109,3.527v7.052Zm-6.343-10.987v-7.052l6.108,3.526v7.052Zm0-7.324V1214.5l6.108,3.526v7.052Zm6.343-3.663v-7.053l6.109,3.527v7.053Zm6.344-3.39,6.107,3.526v7.052l-6.107-3.526Zm6.343,3.662,6.108,3.526v7.053l-6.108-3.526Zm6.344,3.662,6.107,3.526v7.053l-6.107-3.526Zm6.343,3.662,6.108,3.527v7.053l-6.108-3.527Zm6.343,3.663,6.108,3.526v7.053l-6.108-3.526Zm6.108,10.851v7.052l-6.108-3.526v-7.052Zm6.344,10.987v7.052l-6.109-3.526v-7.052Zm0,7.325v7.052l-6.109-3.526v-7.053Zm-50.512-22.11v-7.052l6.108,3.526v7.052Zm-6.344-10.987v-7.052l6.109,3.526v7.053Zm0-7.325v-7.052l6.109,3.527v7.052Zm6.344-3.662v-7.053l6.108,3.526v7.053Zm0-7.325v-7.052l6.108,3.526v7.052Zm6.343-3.39,6.109,3.526v7.053l-6.109-3.527Zm6.344,3.662,6.107,3.526v7.053l-6.107-3.526Zm6.343,3.662,6.108,3.527v7.052l-6.108-3.526Zm6.344,3.663,6.107,3.526v7.052l-6.107-3.526Zm6.343,3.662,6.108,3.526v7.053l-6.108-3.527Zm6.343,3.662,6.108,3.526v7.053l-6.108-3.526Zm6.343,3.662,6.109,3.527v7.052l-6.109-3.526Zm6.109,10.851v7.053l-6.109-3.527v-7.053Zm0,7.326v7.052l-6.109-3.527v-7.052Zm6.343,10.986v7.053l-6.108-3.527v-7.052Zm0,14.377-6.108-3.526v-7.052l6.108,3.526Zm-12.687-7.052v7.053l-6.108-3.526v-7.053Zm-6.343,3.391-6.108-3.527v-7.053l6.108,3.527Zm-6.344-3.662-6.107-3.526v-7.053l6.107,3.526Zm-6.343-3.662-6.108-3.527v-7.053l6.108,3.527Zm-6.344-3.663-6.107-3.526V1243.8l6.107,3.526Zm-6.342-3.662-6.109-3.527v-7.052l6.109,3.526Zm-6.344-3.663-6.108-3.526v-7.052l6.108,3.526Zm-12.452-14.513v-7.053l6.109,3.527v7.053Zm-6.343-10.987V1214.5l6.108,3.526v7.052Zm0-7.325v-7.052l6.108,3.526v7.052Zm6.343-3.663v-7.052l6.109,3.526v7.053Zm0-7.324v-7.053l6.109,3.527v7.052Zm63.2,43.811-6.108-3.526v-7.053l6.108,3.526Zm0,7.325-6.108-3.526V1243.8l6.108,3.526Zm0,21.975-6.108-3.526v-7.053l6.108,3.526Zm-6.343-3.662-6.109-3.527v-7.053l6.109,3.527Zm0,.271v7.053l-6.109-3.526v-7.053Zm-6.344,3.391-6.108-3.526v-7.053l6.108,3.526Zm-6.343-3.662-6.108-3.527v-7.053l6.108,3.527Zm-6.344-3.663-6.107-3.526v-7.053l6.107,3.526Zm-6.343-3.661-6.108-3.527v-7.053l6.108,3.526Zm-6.344-3.663-6.107-3.526v-7.053l6.107,3.526Zm-6.342-3.662-6.109-3.527v-7.053l6.109,3.527Zm-6.344-3.663-6.108-3.526V1243.8l6.108,3.526Zm-6.343-3.661-6.109-3.527v-7.053l6.109,3.526Zm-6.109-10.852v-7.053l6.109,3.527v7.053Zm-6.343-18.04,6.108,3.526v7.053l-6.108-3.526Zm0-21.974,6.108,3.526v7.053l-6.108-3.527Zm69.542,83.825-6.108-3.526v-7.053l6.108,3.526Zm-69.542-40.148v-7.053l6.108,3.526v7.053Z" fill="#828cc0"/>
                </g>
                <g id="Grupo_76318" data-name="Grupo 76318">
                  <path id="Trazado_176014" data-name="Trazado 176014" d="M1039.329,1261.422a.479.479,0,0,0,.19-.041.471.471,0,0,0,.24-.621c-.447-1.006-4.43-9.871-6.765-11.286-1.251-.757-2.405.33-3.423,1.29-1.036.976-1.708,1.542-2.308,1.156-2.354-1.511-4.489-6.893-6.553-12.1-2.211-5.576-4.3-10.843-6.9-12.532-1.4-.912-2.753.3-3.943,1.373s-2.046,1.758-2.784,1.3c-1.474-.923-2.675-4.44-3.947-8.165-1.876-5.494-4-11.72-8.027-13.338a6.181,6.181,0,0,0-7.083,1.36,26.65,26.65,0,0,0-4.483,6.6c-2.478,4.522-4.173,7.18-6.826,5.954-1.92-.888-4.016-5.695-4.662-7.472a.471.471,0,1,0-.885.321c.1.276,2.486,6.773,5.152,8.005,1.665.77,3.186.405,4.648-1.115a25.562,25.562,0,0,0,3.4-5.241c2.586-4.721,5.26-9.6,10.389-7.54,3.625,1.457,5.677,7.467,7.488,12.769,1.385,4.056,2.581,7.559,4.338,8.659,1.4.873,2.733-.331,3.914-1.394,1.245-1.122,2.055-1.768,2.8-1.284,2.348,1.526,4.478,6.9,6.538,12.09,2.217,5.59,4.31,10.869,6.919,12.543,1.264.811,2.432-.291,3.463-1.263,1-.94,1.695-1.529,2.289-1.17,1.764,1.068,5.212,8.2,6.392,10.863A.472.472,0,0,0,1039.329,1261.422Z" fill="#f75061"/>
                </g>
                <g id="Grupo_76319" data-name="Grupo 76319">
                  <path id="Trazado_176015" data-name="Trazado 176015" d="M1022.471,1273.366l11.28,6.512v-20.667l-11.279-6.512Z" fill="#f75061"/>
                  <path id="Trazado_176016" data-name="Trazado 176016" d="M1005.552,1263.6l11.279,6.512v-30.867l-11.279-6.512Z" fill="#ffde23"/>
                  <path id="Trazado_176017" data-name="Trazado 176017" d="M971.714,1244.062l11.279,6.512v-19.234l-11.279-6.512Z" fill="#ffd438"/>
                  <path id="Trazado_176018" data-name="Trazado 176018" d="M988.633,1253.83l11.279,6.512v-39.227l-11.279-6.512Z" fill="#f75061"/>
                </g>
              </g>
            </g>
            <g id="Grupo_76340" data-name="Grupo 76340">
              <g id="Grupo_76322" data-name="Grupo 76322">
                <path id="Trazado_176019" data-name="Trazado 176019" d="M976.808,1180.158l-3.574,1.024c2.65,5.609,6.87,10.69,11.616,13.43v-5.156A21.453,21.453,0,0,1,976.808,1180.158Z" fill="#ffd438"/>
                <path id="Trazado_176020" data-name="Trazado 176020" d="M994.141,1187.63c-1.507,3.345-5.1,4.244-9.291,1.826v5.156c6.049,3.493,11.244,2.194,13.42-2.638Z" fill="#ffd438"/>
                <path id="Trazado_176021" data-name="Trazado 176021" d="M984.851,1166.252V1161.1c-6.05-3.492-11.244-2.194-13.42,2.638l4.129,4.344C977.066,1164.733,980.663,1163.834,984.851,1166.252Z" fill="#ffd438"/>
                <path id="Trazado_176022" data-name="Trazado 176022" d="M974.8,1172.053a9.665,9.665,0,0,1,.757-3.975l-4.129-4.344a13.976,13.976,0,0,0-1.094,5.741,28.1,28.1,0,0,0,2.9,11.707l3.574-1.024A19.462,19.462,0,0,1,974.8,1172.053Z" fill="#ffd438"/>
                <path id="Trazado_176023" data-name="Trazado 176023" d="M992.892,1175.55l3.575-1.024c-2.65-5.609-6.87-10.69-11.616-13.43v5.156A21.445,21.445,0,0,1,992.892,1175.55Z" fill="#ff445f"/>
                <path id="Trazado_176024" data-name="Trazado 176024" d="M994.9,1183.655a9.662,9.662,0,0,1-.757,3.975l4.129,4.344a13.96,13.96,0,0,0,1.093-5.741,28.1,28.1,0,0,0-2.9-11.707l-3.575,1.024A19.456,19.456,0,0,1,994.9,1183.655Z" fill="#ff445f"/>
              </g>
              <g id="Grupo_76339" data-name="Grupo 76339">
                <g id="Grupo_76338" data-name="Grupo 76338" opacity="0.4">
                  <g id="Grupo_76323" data-name="Grupo 76323">
                    <path id="Trazado_176025" data-name="Trazado 176025" d="M1063.771,1237.589l-.065-.037-60.349-34.841v-29.12l.065.038,60.348,34.84Zm-60.327-34.929,60.24,34.779V1208.52l-60.239-34.779Z" fill="#cddcfb"/>
                  </g>
                  <g id="Grupo_76324" data-name="Grupo 76324">
                    <rect id="Rectángulo_22800" data-name="Rectángulo 22800" width="0.087" height="69.659" transform="translate(1003.379 1178.54) rotate(-60.001)" fill="#cddcfb"/>
                  </g>
                  <g id="Grupo_76325" data-name="Grupo 76325">
                    <rect id="Rectángulo_22801" data-name="Rectángulo 22801" width="0.087" height="69.659" transform="translate(1003.379 1183.377) rotate(-60.001)" fill="#cddcfb"/>
                  </g>
                  <g id="Grupo_76326" data-name="Grupo 76326">
                    <rect id="Rectángulo_22802" data-name="Rectángulo 22802" width="0.087" height="69.658" transform="translate(1003.379 1188.214) rotate(-60.001)" fill="#cddcfb"/>
                  </g>
                  <g id="Grupo_76327" data-name="Grupo 76327">
                    <rect id="Rectángulo_22803" data-name="Rectángulo 22803" width="0.087" height="69.659" transform="translate(1003.379 1193.05) rotate(-60.001)" fill="#cddcfb"/>
                  </g>
                  <g id="Grupo_76328" data-name="Grupo 76328">
                    <rect id="Rectángulo_22804" data-name="Rectángulo 22804" width="0.087" height="69.659" transform="translate(1003.379 1197.887) rotate(-60.001)" fill="#cddcfb"/>
                  </g>
                  <g id="Grupo_76329" data-name="Grupo 76329">
                    <rect id="Rectángulo_22805" data-name="Rectángulo 22805" width="0.087" height="29.02" transform="translate(1057.651 1205.012)" fill="#cddcfb"/>
                  </g>
                  <g id="Grupo_76330" data-name="Grupo 76330">
                    <rect id="Rectángulo_22806" data-name="Rectángulo 22806" width="0.087" height="29.02" transform="translate(1051.619 1201.529)" fill="#cddcfb"/>
                  </g>
                  <g id="Grupo_76331" data-name="Grupo 76331">
                    <rect id="Rectángulo_22807" data-name="Rectángulo 22807" width="0.087" height="29.019" transform="translate(1045.586 1198.046)" fill="#cddcfb"/>
                  </g>
                  <g id="Grupo_76332" data-name="Grupo 76332">
                    <rect id="Rectángulo_22808" data-name="Rectángulo 22808" width="0.087" height="29.019" transform="translate(1039.553 1194.563)" fill="#cddcfb"/>
                  </g>
                  <g id="Grupo_76333" data-name="Grupo 76333">
                    <rect id="Rectángulo_22809" data-name="Rectángulo 22809" width="0.087" height="29.019" transform="translate(1033.521 1191.08)" fill="#cddcfb"/>
                  </g>
                  <g id="Grupo_76334" data-name="Grupo 76334">
                    <rect id="Rectángulo_22810" data-name="Rectángulo 22810" width="0.087" height="29.02" transform="translate(1027.488 1187.597)" fill="#cddcfb"/>
                  </g>
                  <g id="Grupo_76335" data-name="Grupo 76335">
                    <rect id="Rectángulo_22811" data-name="Rectángulo 22811" width="0.087" height="29.02" transform="translate(1021.455 1184.115)" fill="#cddcfb"/>
                  </g>
                  <g id="Grupo_76336" data-name="Grupo 76336">
                    <rect id="Rectángulo_22812" data-name="Rectángulo 22812" width="0.087" height="29.02" transform="translate(1015.423 1180.632)" fill="#cddcfb"/>
                  </g>
                  <g id="Grupo_76337" data-name="Grupo 76337">
                    <rect id="Rectángulo_22813" data-name="Rectángulo 22813" width="0.087" height="29.019" transform="translate(1009.39 1177.149)" fill="#cddcfb"/>
                  </g>
                </g>
                <path id="Trazado_176026" data-name="Trazado 176026" d="M1009.434,1206.168l-6.033-3.483V1178.5l6.033,3.483Z" fill="#ffd438"/>
                <path id="Trazado_176027" data-name="Trazado 176027" d="M1018.483,1211.393l-6.033-3.483v-14.595l6.033,3.483Z" fill="#f75061"/>
                <path id="Trazado_176028" data-name="Trazado 176028" d="M1054.678,1232.29l-6.033-3.483v-14.595l6.032,3.483Z" fill="#f75061"/>
                <path id="Trazado_176029" data-name="Trazado 176029" d="M1036.58,1221.841l-6.033-3.483v-5.284l6.033,3.483Z" fill="#f75061"/>
                <path id="Trazado_176030" data-name="Trazado 176030" d="M1063.727,1237.514l-6.033-3.483V1221.94l6.032,3.483Z" fill="#ffd438"/>
                <path id="Trazado_176031" data-name="Trazado 176031" d="M1027.531,1216.617l-6.033-3.483v-19.365l6.033,3.483Z" fill="#ffd438"/>
                <path id="Trazado_176032" data-name="Trazado 176032" d="M1045.63,1227.066l-6.033-3.483v-25.789l6.033,3.483Z" fill="#ffd438"/>
              </g>
            </g>
            <g id="Grupo_76350" data-name="Grupo 76350">
              <g id="Grupo_76349" data-name="Grupo 76349">
                <g id="Grupo_76342" data-name="Grupo 76342">
                  <g id="Grupo_76341" data-name="Grupo 76341">
                    <path id="Trazado_176033" data-name="Trazado 176033" d="M1058.893,1278.9l-6.773,9.636c-6.479-8.06-8.7-18.908-4.958-24.23,2.491-3.544,6.749-3.925,11.731-1.048Z" fill="#15d9fd"/>
                  </g>
                </g>
                <g id="Grupo_76344" data-name="Grupo 76344">
                  <g id="Grupo_76343" data-name="Grupo 76343">
                    <path id="Trazado_176034" data-name="Trazado 176034" d="M1058.893,1278.9l6.773,17.456c-4.315.386-9.231-2.452-13.546-7.82Z" fill="#a6afcd"/>
                  </g>
                </g>
                <g id="Grupo_76346" data-name="Grupo 76346">
                  <g id="Grupo_76345" data-name="Grupo 76345">
                    <path id="Trazado_176035" data-name="Trazado 176035" d="M1058.893,1278.9l6.773-9.636c6.479,8.06,8.7,18.908,4.958,24.23a6.33,6.33,0,0,1-4.958,2.862Z" fill="#f75061"/>
                  </g>
                </g>
                <g id="Grupo_76348" data-name="Grupo 76348">
                  <g id="Grupo_76347" data-name="Grupo 76347">
                    <path id="Trazado_176036" data-name="Trazado 176036" d="M1058.893,1278.9v-15.642a23.833,23.833,0,0,1,6.773,6.006Z" fill="#ffde23"/>
                  </g>
                </g>
              </g>
            </g>
          </g>
          <g id="Grupo_76383" data-name="Grupo 76383">
            <g id="Grupo_76365" data-name="Grupo 76365">
              <g id="Grupo_76364" data-name="Grupo 76364" style="isolation: isolate">
                <g id="Grupo_76354" data-name="Grupo 76354" style="isolation: isolate">
                  <path id="Trazado_176037" data-name="Trazado 176037" d="M1065.783,1215.43l-4.638,2.695c-2.135,1.241-3.458,3.878-3.468,7.626-.022,7.545,5.284,16.735,11.851,20.526l4.638-2.7c-6.567-3.791-11.872-12.98-11.851-20.526C1062.326,1219.307,1063.649,1216.67,1065.783,1215.43Z" fill="#251b29"/>
                  <g id="Grupo_76353" data-name="Grupo 76353" clip-path="url(#clip-path)">
                    <g id="Grupo_76352" data-name="Grupo 76352" style="isolation: isolate">
                      <path id="Trazado_176038" data-name="Trazado 176038" d="M1069.528,1246.277l4.638-2.7a21.522,21.522,0,0,1-5.658-4.915l-4.639,2.695a21.547,21.547,0,0,0,5.659,4.916Z" fill="#251b29"/>
                      <path id="Trazado_176039" data-name="Trazado 176039" d="M1063.869,1241.361l4.639-2.695c-3.7-4.454-6.207-10.421-6.193-15.611a11.264,11.264,0,0,1,.958-4.8l-4.639,2.7a11.261,11.261,0,0,0-.957,4.8c-.015,5.189,2.49,11.157,6.192,15.61Z" fill="#251b29"/>
                      <path id="Trazado_176040" data-name="Trazado 176040" d="M1058.634,1220.955l4.639-2.7a6.308,6.308,0,0,1,2.51-2.829l-4.638,2.695a6.308,6.308,0,0,0-2.511,2.83Z" fill="#251b29"/>
                    </g>
                  </g>
                </g>
                <g id="Grupo_76357" data-name="Grupo 76357" style="isolation: isolate">
                  <path id="Trazado_176042" data-name="Trazado 176042" d="M1077.987,1247.106l4.638-2.7c-2.161,1.256-5.155,1.079-8.459-.829l-4.638,2.7C1072.831,1248.185,1075.825,1248.362,1077.987,1247.106Z" fill="#251b29"/>
                  <g id="Grupo_76356" data-name="Grupo 76356" clip-path="url(#clip-path-2)">
                    <g id="Grupo_76355" data-name="Grupo 76355" style="isolation: isolate">
                      <path id="Trazado_176043" data-name="Trazado 176043" d="M1077.987,1247.106l4.638-2.7c-2.161,1.256-5.155,1.079-8.459-.829l-4.638,2.7c3.3,1.908,6.3,2.085,8.459.829Z" fill="#251b29"/>
                    </g>
                  </g>
                </g>
                <g id="Grupo_76360" data-name="Grupo 76360" style="isolation: isolate">
                  <path id="Trazado_176045" data-name="Trazado 176045" d="M1062.736,1210.187l-4.638,2.7c2.944-1.711,7.021-1.47,11.521,1.128l4.639-2.7C1069.758,1208.717,1065.681,1208.476,1062.736,1210.187Z" fill="#251b29"/>
                  <g id="Grupo_76359" data-name="Grupo 76359" clip-path="url(#clip-path-3)">
                    <g id="Grupo_76358" data-name="Grupo 76358" style="isolation: isolate">
                      <path id="Trazado_176046" data-name="Trazado 176046" d="M1069.619,1214.011l4.639-2.7c-4.5-2.6-8.577-2.839-11.522-1.128l-4.638,2.7c2.944-1.711,7.021-1.47,11.521,1.128Z" fill="#251b29"/>
                    </g>
                  </g>
                </g>
                <g id="Grupo_76363" data-name="Grupo 76363" style="isolation: isolate">
                  <path id="Trazado_176048" data-name="Trazado 176048" d="M1081.034,1252.347l4.638-2.7c2.907-1.689,4.709-5.281,4.723-10.385.03-10.274-7.2-22.79-16.137-27.952l-4.639,2.7c8.941,5.162,16.167,17.678,16.138,27.952C1085.742,1247.067,1083.94,1250.658,1081.034,1252.347Z" fill="#251b29"/>
                  <g id="Grupo_76362" data-name="Grupo 76362" clip-path="url(#clip-path-4)">
                    <g id="Grupo_76361" data-name="Grupo 76361" style="isolation: isolate">
                      <path id="Trazado_176049" data-name="Trazado 176049" d="M1081.034,1252.347l4.638-2.7a8.591,8.591,0,0,0,3.419-3.854l-4.639,2.7a8.594,8.594,0,0,1-3.418,3.853Z" fill="#251b29"/>
                      <path id="Trazado_176050" data-name="Trazado 176050" d="M1084.452,1248.494l4.639-2.7a15.325,15.325,0,0,0,1.3-6.531c.02-7.066-3.392-15.194-8.433-21.259l-4.639,2.7c5.042,6.065,8.454,14.192,8.434,21.259a15.341,15.341,0,0,1-1.3,6.531Z" fill="#251b29"/>
                      <path id="Trazado_176051" data-name="Trazado 176051" d="M1077.323,1220.7l4.639-2.7a29.364,29.364,0,0,0-7.7-6.693l-4.639,2.7a29.327,29.327,0,0,1,7.7,6.693Z" fill="#251b29"/>
                    </g>
                  </g>
                </g>
              </g>
            </g>
            <g id="Grupo_76373" data-name="Grupo 76373">
              <g id="Grupo_76372" data-name="Grupo 76372" style="isolation: isolate">
                <g id="Grupo_76368" data-name="Grupo 76368" style="isolation: isolate">
                  <path id="Trazado_176053" data-name="Trazado 176053" d="M1095.914,1259.959l-8.494-12.131-1.221.856,8.494,12.13Z" fill="#e9ecf5"/>
                  <g id="Grupo_76367" data-name="Grupo 76367" clip-path="url(#clip-path-5)">
                    <g id="Grupo_76366" data-name="Grupo 76366" style="isolation: isolate">
                      <path id="Trazado_176054" data-name="Trazado 176054" d="M1095.914,1259.959l-8.494-12.131-.51.358,8.494,12.13.51-.357Z" fill="#e9ecf5"/>
                      <path id="Trazado_176055" data-name="Trazado 176055" d="M1095.4,1260.316l-8.494-12.13-.711.5,8.494,12.13.711-.5Z" fill="#e9ecf5"/>
                    </g>
                  </g>
                </g>
                <g id="Grupo_76371" data-name="Grupo 76371" style="isolation: isolate">
                  <path id="Trazado_176057" data-name="Trazado 176057" d="M1082.533,1251.251l8.494,12.13.328-.23,3.338-2.337-8.494-12.13-3.338,2.337Z" fill="#e9ecf5"/>
                  <g id="Grupo_76370" data-name="Grupo 76370" clip-path="url(#clip-path-6)">
                    <g id="Grupo_76369" data-name="Grupo 76369" style="isolation: isolate">
                      <path id="Trazado_176058" data-name="Trazado 176058" d="M1094.693,1260.814l-8.494-12.13-2.209,1.547,8.493,12.13,2.21-1.547Z" fill="#fff"/>
                      <path id="Trazado_176059" data-name="Trazado 176059" d="M1092.483,1262.361l-8.493-12.13-1.129.79-.328.23,8.494,12.13.328-.23,1.128-.79Z" fill="#e9ecf5"/>
                    </g>
                  </g>
                </g>
              </g>
            </g>
            <g id="Grupo_76381" data-name="Grupo 76381">
              <g id="Grupo_76380" data-name="Grupo 76380" style="isolation: isolate">
                <g id="Grupo_76376" data-name="Grupo 76376" style="isolation: isolate">
                  <path id="Trazado_176061" data-name="Trazado 176061" d="M1110.789,1277.771l-16.043-22.913-2.005,1.4,16.044,22.913C1110.071,1278.275,1110.789,1277.771,1110.789,1277.771Z" fill="#e5354f"/>
                  <g id="Grupo_76375" data-name="Grupo 76375" clip-path="url(#clip-path-7)">
                    <g id="Grupo_76374" data-name="Grupo 76374" style="isolation: isolate">
                      <path id="Trazado_176062" data-name="Trazado 176062" d="M1110.789,1277.771l-16.043-22.913-.837.586,16.044,22.913.836-.586Z" fill="#e5354f"/>
                      <path id="Trazado_176063" data-name="Trazado 176063" d="M1109.953,1278.357l-16.044-22.913-1.168.818,16.044,22.913,1.168-.818Z" fill="#e5354f"/>
                    </g>
                  </g>
                </g>
                <g id="Grupo_76379" data-name="Grupo 76379" style="isolation: isolate">
                  <path id="Trazado_176065" data-name="Trazado 176065" d="M1086.73,1260.471l16.044,22.913.537-.376,5.474-3.833-16.044-22.913-5.474,3.833Z" fill="#e5354f"/>
                  <g id="Grupo_76378" data-name="Grupo 76378" clip-path="url(#clip-path-8)">
                    <g id="Grupo_76377" data-name="Grupo 76377" style="isolation: isolate">
                      <path id="Trazado_176066" data-name="Trazado 176066" d="M1108.785,1279.175l-16.044-22.913c-1.151.806-2.494,1.747-3.624,2.537l16.044,22.913,3.624-2.537Z" fill="#ff445f"/>
                      <path id="Trazado_176067" data-name="Trazado 176067" d="M1105.161,1281.712l-16.044-22.913-1.85,1.3-.537.376,16.044,22.913.537-.376,1.85-1.3Z" fill="#e5354f"/>
                    </g>
                  </g>
                </g>
              </g>
            </g>
            <path id="Trazado_176069" data-name="Trazado 176069" d="M1071.861,1244.981c-6.567-3.791-11.872-12.981-11.851-20.527s5.362-10.588,11.929-6.8,11.871,12.98,11.849,20.525-5.361,10.589-11.927,6.8Z" fill="#15d9fd" opacity="0.3"/>
            <path id="Trazado_176070" data-name="Trazado 176070" d="M1060.009,1224.455c-.021,7.545,5.285,16.734,11.852,20.526,4.023,2.322,7.584,2.079,9.746-.19a10.576,10.576,0,0,1-5.6-1.626c-6.567-3.79-11.872-12.98-11.85-20.527a9.418,9.418,0,0,1,2.181-6.6C1062.586,1216.169,1060.025,1219.234,1060.009,1224.455Z" fill="#15d9fd" opacity="0.3"/>
            <g id="Grupo_76382" data-name="Grupo 76382">
              <path id="Trazado_176071" data-name="Trazado 176071" d="M1085.757,1241.963c-.029,10.275-7.3,14.418-16.243,9.256s-16.168-17.677-16.139-27.952,7.3-14.419,16.244-9.256S1085.786,1231.689,1085.757,1241.963Zm-16.229,4.314c6.565,3.791,11.906.748,11.927-6.8s-5.284-16.734-11.85-20.525-11.907-.748-11.928,6.8,5.284,16.735,11.851,20.526Z" fill="#372b3d"/>
            </g>
          </g>
          <g id="Grupo_76390" data-name="Grupo 76390">
            <g id="Grupo_76386" data-name="Grupo 76386">
              <g id="Grupo_76384" data-name="Grupo 76384">
                <path id="Trazado_176072" data-name="Trazado 176072" d="M1036.338,1207.832l-19.254-16.419-12.741-32.525-27.454-11.154.654-1.611,28.146,11.436,12.855,32.814,18.1,15.435,21.651-9.315,28.946,1.807,23.854-1.227.089,1.736-23.953,1.232-.049,0-28.581-1.784Z" fill="#e5354f"/>
              </g>
              <g id="Grupo_76385" data-name="Grupo 76385">
                <path id="Trazado_176073" data-name="Trazado 176073" d="M1002.394,1157.318a5.183,5.183,0,0,0,2.346,4.064c1.3.748,2.347.142,2.347-1.355a5.187,5.187,0,0,0-2.347-4.064C1003.444,1155.215,1002.394,1155.821,1002.394,1157.318Z" fill="#f75061"/>
                <path id="Trazado_176074" data-name="Trazado 176074" d="M1015.339,1189.059a5.188,5.188,0,0,0,2.346,4.065c1.3.748,2.347.141,2.347-1.355a5.19,5.19,0,0,0-2.346-4.065C1016.389,1186.956,1015.339,1187.563,1015.339,1189.059Z" fill="#f75061"/>
                <path id="Trazado_176075" data-name="Trazado 176075" d="M1033.564,1205.931a5.187,5.187,0,0,0,2.347,4.064c1.3.748,2.346.142,2.346-1.355a5.185,5.185,0,0,0-2.346-4.064C1034.615,1203.828,1033.564,1204.434,1033.564,1205.931Z" fill="#f75061"/>
                <path id="Trazado_176076" data-name="Trazado 176076" d="M1108.093,1196.4a5.186,5.186,0,0,0,2.346,4.064c1.3.748,2.347.142,2.347-1.355a5.187,5.187,0,0,0-2.347-4.064C1109.143,1194.3,1108.093,1194.907,1108.093,1196.4Z" fill="#f75061"/>
                <path id="Trazado_176077" data-name="Trazado 176077" d="M1056.1,1195.706a5.186,5.186,0,0,0,2.346,4.064c1.3.748,2.347.142,2.347-1.355a5.184,5.184,0,0,0-2.347-4.064C1057.152,1193.6,1056.1,1194.209,1056.1,1195.706Z" fill="#f75061"/>
                <path id="Trazado_176078" data-name="Trazado 176078" d="M1084.7,1198.067a5.19,5.19,0,0,0,2.346,4.065c1.3.748,2.347.141,2.347-1.355a5.188,5.188,0,0,0-2.346-4.065C1085.752,1195.964,1084.7,1196.571,1084.7,1198.067Z" fill="#f75061"/>
              </g>
            </g>
            <g id="Grupo_76389" data-name="Grupo 76389">
              <g id="Grupo_76387" data-name="Grupo 76387">
                <path id="Trazado_176079" data-name="Trazado 176079" d="M1055.4,1206.688l-26.163-29.079-19.937,3.6-16.267-15.552-22.747,4.713-.353-1.7,23.641-4.9,16.287,15.571,20.02-3.616,25.688,28.551,27.384-22.969,27.961-7.366.443,1.681-27.585,7.267Z" fill="#13b7fd"/>
              </g>
              <g id="Grupo_76388" data-name="Grupo 76388">
                <path id="Trazado_176080" data-name="Trazado 176080" d="M1027.892,1175.867a5.187,5.187,0,0,0,2.347,4.064c1.3.748,2.347.142,2.347-1.355a5.185,5.185,0,0,0-2.347-4.064C1028.943,1173.763,1027.892,1174.37,1027.892,1175.867Z" fill="#1499fc"/>
                <path id="Trazado_176081" data-name="Trazado 176081" d="M1053.142,1204.127a5.186,5.186,0,0,0,2.346,4.065c1.3.748,2.347.141,2.347-1.355a5.185,5.185,0,0,0-2.347-4.064C1054.192,1202.024,1053.142,1202.631,1053.142,1204.127Z" fill="#1499fc"/>
                <path id="Trazado_176082" data-name="Trazado 176082" d="M1080.008,1180.908a5.184,5.184,0,0,0,2.346,4.064c1.3.749,2.347.142,2.347-1.354a5.189,5.189,0,0,0-2.347-4.065C1081.058,1178.805,1080.008,1179.412,1080.008,1180.908Z" fill="#1499fc"/>
                <path id="Trazado_176083" data-name="Trazado 176083" d="M1108.093,1173.218a5.185,5.185,0,0,0,2.346,4.064c1.3.748,2.347.142,2.347-1.355a5.187,5.187,0,0,0-2.347-4.064C1109.143,1171.115,1108.093,1171.721,1108.093,1173.218Z" fill="#1499fc"/>
                <path id="Trazado_176084" data-name="Trazado 176084" d="M1007.021,1178.342a5.186,5.186,0,0,0,2.346,4.065c1.3.748,2.347.141,2.347-1.355a5.187,5.187,0,0,0-2.347-4.064C1008.071,1176.24,1007.021,1176.846,1007.021,1178.342Z" fill="#1499fc"/>
                <path id="Trazado_176085" data-name="Trazado 176085" d="M991.665,1163.935a5.186,5.186,0,0,0,2.346,4.064c1.3.748,2.347.142,2.347-1.355a5.187,5.187,0,0,0-2.347-4.064C992.715,1161.832,991.665,1162.438,991.665,1163.935Z" fill="#1499fc"/>
              </g>
            </g>
          </g>
          <g id="Grupo_76417" data-name="Grupo 76417">
            <ellipse id="Elipse_5045" data-name="Elipse 5045" cx="27.759" cy="16.027" rx="27.759" ry="16.027" transform="translate(937.102 1248.071)" fill="#bcc5df" opacity="0.5" style="mix-blend-mode: multiply;isolation: isolate"/>
            <g id="Grupo_76416" data-name="Grupo 76416" style="isolation: isolate">
              <g id="Grupo_76391" data-name="Grupo 76391">
                <path id="Trazado_176086" data-name="Trazado 176086" d="M979.183,1244.2l-.022,7.87-7.288,4.235.022-7.87Z" fill="#0d889f"/>
              </g>
              <g id="Grupo_76392" data-name="Grupo 76392">
                <path id="Trazado_176087" data-name="Trazado 176087" d="M979.183,1244.2c3.379,1.951,5.491,4.059,6.738,6.724l-9.969,1.548a9.6,9.6,0,0,0-4.057-4.037Z" fill="#15d9fd"/>
              </g>
              <g id="Grupo_76393" data-name="Grupo 76393">
                <path id="Trazado_176088" data-name="Trazado 176088" d="M985.921,1250.927l-.022,7.87-9.969,1.548.022-7.87Z" fill="#a89317"/>
              </g>
              <g id="Grupo_76396" data-name="Grupo 76396" style="isolation: isolate">
                <g id="Grupo_76395" data-name="Grupo 76395" clip-path="url(#clip-path-9)">
                  <g id="Grupo_76394" data-name="Grupo 76394" style="isolation: isolate">
                    <path id="Trazado_176089" data-name="Trazado 176089" d="M975.952,1252.475l-.022,7.87a9.62,9.62,0,0,0-4.057-4.037l.022-7.87a9.6,9.6,0,0,1,4.057,4.037Z" fill="#1499fc"/>
                  </g>
                </g>
              </g>
              <g id="Grupo_76399" data-name="Grupo 76399" style="isolation: isolate">
                <g id="Grupo_76398" data-name="Grupo 76398" clip-path="url(#clip-path-10)">
                  <g id="Grupo_76397" data-name="Grupo 76397" style="isolation: isolate">
                    <path id="Trazado_176091" data-name="Trazado 176091" d="M976.5,1254.872l-.023,7.871a5.567,5.567,0,0,0-.548-2.4l.022-7.87a5.581,5.581,0,0,1,.549,2.4Z" fill="#ffb700"/>
                  </g>
                </g>
              </g>
              <g id="Grupo_76402" data-name="Grupo 76402" style="isolation: isolate">
                <path id="Trazado_176093" data-name="Trazado 176093" d="M945.275,1262.655l.023-7.87c.006-2.3,1.516-4.593,4.533-6.346,6.072-3.529,15.952-3.53,22.064,0l-.022,7.87c-6.113-3.528-15.992-3.528-22.064,0C946.792,1258.062,945.282,1260.357,945.275,1262.655Z" fill="#e5354f"/>
                <g id="Grupo_76401" data-name="Grupo 76401" clip-path="url(#clip-path-11)">
                  <g id="Grupo_76400" data-name="Grupo 76400" style="isolation: isolate">
                    <path id="Trazado_176094" data-name="Trazado 176094" d="M971.9,1248.438l-.022,7.87c-6.113-3.528-15.992-3.528-22.064,0-3.017,1.753-4.527,4.048-4.534,6.346l.023-7.87c.006-2.3,1.516-4.593,4.533-6.346,6.072-3.529,15.952-3.53,22.064,0Z" fill="#e5354f"/>
                  </g>
                </g>
              </g>
              <g id="Grupo_76403" data-name="Grupo 76403">
                <path id="Trazado_176096" data-name="Trazado 176096" d="M979.183,1244.2l-7.288,4.235c-6.112-3.529-15.992-3.528-22.064,0-4.063,2.361-5.393,5.705-4,8.715l-9.885,1.536c-3.746-8,4.405-16.224,18.2-18.368C963.342,1238.894,972.428,1240.3,979.183,1244.2Z" fill="#ff445f"/>
              </g>
              <g id="Grupo_76406" data-name="Grupo 76406" style="isolation: isolate">
                <g id="Grupo_76405" data-name="Grupo 76405" clip-path="url(#clip-path-12)">
                  <g id="Grupo_76404" data-name="Grupo 76404" style="isolation: isolate">
                    <path id="Trazado_176097" data-name="Trazado 176097" d="M935.948,1258.69l-.022,7.87a9.246,9.246,0,0,1-.911-3.964l.023-7.87a9.228,9.228,0,0,0,.91,3.964Z" fill="#e5354f"/>
                  </g>
                </g>
              </g>
              <g id="Grupo_76407" data-name="Grupo 76407">
                <path id="Trazado_176099" data-name="Trazado 176099" d="M945.833,1257.154l-.022,7.87-9.885,1.535.022-7.87Z" fill="#0e8fa7"/>
              </g>
              <g id="Grupo_76408" data-name="Grupo 76408">
                <path id="Trazado_176100" data-name="Trazado 176100" d="M956.934,1263.563l-2.619,5.731a33.881,33.881,0,0,1-11.7-3.84,15.8,15.8,0,0,1-6.667-6.764l9.885-1.536a9.586,9.586,0,0,0,4.07,4.065A20.35,20.35,0,0,0,956.934,1263.563Z" fill="#e9ecf5"/>
              </g>
              <g id="Grupo_76411" data-name="Grupo 76411" style="isolation: isolate">
                <g id="Grupo_76410" data-name="Grupo 76410" clip-path="url(#clip-path-13)">
                  <g id="Grupo_76409" data-name="Grupo 76409" style="isolation: isolate">
                    <path id="Trazado_176101" data-name="Trazado 176101" d="M954.315,1269.294l-.022,7.87a33.88,33.88,0,0,1-11.7-3.839,15.8,15.8,0,0,1-6.667-6.765l.022-7.87a15.8,15.8,0,0,0,6.667,6.764,33.881,33.881,0,0,0,11.7,3.84Z" fill="#d4dbef"/>
                  </g>
                </g>
              </g>
              <g id="Grupo_76414" data-name="Grupo 76414" style="isolation: isolate">
                <g id="Grupo_76413" data-name="Grupo 76413" clip-path="url(#clip-path-14)">
                  <g id="Grupo_76412" data-name="Grupo 76412" style="isolation: isolate">
                    <path id="Trazado_176103" data-name="Trazado 176103" d="M986.832,1254.891l-.022,7.87c-.019,6.593-7.6,12.615-19.114,14.4a42.194,42.194,0,0,1-13.4,0l.022-7.87a42.194,42.194,0,0,0,13.4,0c11.515-1.789,19.095-7.81,19.114-14.4Z" fill="#ffb700"/>
                  </g>
                </g>
              </g>
              <g id="Grupo_76415" data-name="Grupo 76415">
                <path id="Trazado_176105" data-name="Trazado 176105" d="M985.921,1250.927c3.746,8-4.4,16.224-18.2,18.367a42.194,42.194,0,0,1-13.4,0l2.619-5.731c5.2.8,10.97.017,15.033-2.344s5.4-5.725,3.985-8.744Z" fill="#ffd438"/>
              </g>
            </g>
          </g>
          <g id="Grupo_76454" data-name="Grupo 76454">
            <ellipse id="Elipse_5046" data-name="Elipse 5046" cx="7.585" cy="4.379" rx="7.585" ry="4.379" transform="translate(987.372 1291.274)" fill="#bcc5df" opacity="0.8" style="mix-blend-mode: multiply;isolation: isolate"/>
            <path id="Trazado_176106" data-name="Trazado 176106" d="M971.358,1295.939c-2.962,1.71-2.962,4.483,0,6.193a11.85,11.85,0,0,0,10.727,0c2.962-1.71,2.962-4.483,0-6.193A11.857,11.857,0,0,0,971.358,1295.939Z" fill="#bcc5df" opacity="0.8" style="mix-blend-mode: multiply;isolation: isolate"/>
            <g id="man">
              <g id="man-2" data-name="man">
                <g id="Grupo_76424" data-name="Grupo 76424">
                  <g id="Grupo_76421" data-name="Grupo 76421">
                    <g id="Grupo_76420" data-name="Grupo 76420">
                      <path id="Trazado_176107" data-name="Trazado 176107" d="M992.38,1272.334c.423-.986.823-2.285,1.379-3.9a4.421,4.421,0,0,0,.241-1.365,2.641,2.641,0,0,0-.36-1.286.75.75,0,0,0-.453-.441.7.7,0,0,0-.54.186,4.876,4.876,0,0,0-1.658,2.988c-.2,1.035-.542,2.038-.733,3.078a3.072,3.072,0,0,0-.084.611c.023.966.656,1.557,1.306,1.264A2.248,2.248,0,0,0,992.38,1272.334Z" fill="#fff"/>
                      <path id="Trazado_176108" data-name="Trazado 176108" d="M996.747,1293.966a29.12,29.12,0,0,0-2.235,2.165,5.648,5.648,0,0,0-.582.674,1.09,1.09,0,0,0-.28.719c.056.329.766.408,1.034.423a2.26,2.26,0,0,0,1.059-.187,1.338,1.338,0,0,0,.686-.693,1.949,1.949,0,0,1,.555-.79c.253-.171.609-.212.77-.471a.844.844,0,0,0,.095-.453c0-.294-.084-.585-.084-.874a2.142,2.142,0,0,0-.024-.654.512.512,0,0,0-.461-.291.782.782,0,0,0-.537.214Z" fill="#bcc5df"/>
                      <path id="Trazado_176109" data-name="Trazado 176109" d="M994.231,1292.577a29.092,29.092,0,0,0-2.6,1.708,5.562,5.562,0,0,0-.7.553,1.089,1.089,0,0,0-.41.654c-.007.334.676.544.937.609a2.258,2.258,0,0,0,1.075.014,1.331,1.331,0,0,0,.8-.552,1.946,1.946,0,0,1,.693-.672c.28-.12.637-.094.844-.318a.849.849,0,0,0,.179-.428c.055-.288.026-.589.08-.874a2.126,2.126,0,0,0,.1-.647.512.512,0,0,0-.4-.372.782.782,0,0,0-.568.109Z" fill="#bcc5df"/>
                      <path id="Trazado_176110" data-name="Trazado 176110" d="M995.44,1288.942a11.916,11.916,0,0,0-.383-3.255v-.011a2.676,2.676,0,0,0,.265-1.047c.022-.628-.045-1.519-.034-2.147.023-1.3,1.131-5.519-1.542-6.223-.4-.106-1.044-.869-1.371-.578a2.042,2.042,0,0,0-.419.942,11.828,11.828,0,0,0-.159,1.319,10.068,10.068,0,0,0,.116,2.654c.218,1.268.258,4.33.918,5.694h0c.32,1.518.511,6.94.514,6.956.077.366.32.763,1.574.667.34-.027.5-1.027.542-1.295A28.568,28.568,0,0,0,995.44,1288.942Z" fill="#0f1317"/>
                      <path id="Trazado_176111" data-name="Trazado 176111" d="M997.964,1276.472l-.156-.213a5.933,5.933,0,0,1-1.984.263c-1.481.147-1.6.406-2.562-.263a7.514,7.514,0,0,0,0,2.2c-.066,1.167,1.016,1.285,1.046,1.9.072,1.429.2,4.252.389,5.67a5.584,5.584,0,0,0,.25,1.172q.035.72.074,1.44c.2,3.583.161,5.409.442,6.161.231.622,1.049.59,1.581.426a1.108,1.108,0,0,0,.594-.4,1.622,1.622,0,0,0,.217-.671,17.976,17.976,0,0,0-.115-6.443v0a13.806,13.806,0,0,1,.352-3.8A13.074,13.074,0,0,0,997.964,1276.472Z" fill="#1c232a"/>
                      <path id="Trazado_176112" data-name="Trazado 176112" d="M998.029,1274.081l0,.006q-.072.556-.092,1.118Q997.959,1274.641,998.029,1274.081Z" fill="#f3a984"/>
                      <path id="Trazado_176113" data-name="Trazado 176113" d="M997.933,1275.2q-.016.342-.017.684l.013-.006Q997.92,1275.544,997.933,1275.2Z" fill="#f3a984"/>
                      <path id="Trazado_176114" data-name="Trazado 176114" d="M997.933,1275.2q.026-.564.1-1.124l0,.006a14.338,14.338,0,0,1,.256-1.42c.191-.832.41-1.5.637-2.32.127-.459.4-1.155.442-1.483.087-.757-.351-1.341-1.331-2.005a14.352,14.352,0,0,0-3.277-1.442c-1.81-.567-2.065.093-2.586,1.537a11.96,11.96,0,0,0-.127,4.993,19.516,19.516,0,0,1,.211,2.289,9.5,9.5,0,0,1-.161,1.935c1.583,1.122,3.745.836,5.553.4a1.538,1.538,0,0,0,.322-.1A10.111,10.111,0,0,1,997.933,1275.2Z" fill="#f4f4f4"/>
                      <path id="Trazado_176115" data-name="Trazado 176115" d="M996.166,1269.84c-.356,1.01.178,2.02.178,3.03.048,1.318,0,2.646-.083,3.976.472-.071.937-.169,1.381-.277a1.538,1.538,0,0,0,.322-.1,10.111,10.111,0,0,1-.031-1.267q.026-.564.1-1.124l-.005.006a14.338,14.338,0,0,1,.256-1.42c.191-.832.41-1.5.637-2.32.127-.459.4-1.155.442-1.483a1.531,1.531,0,0,0-.412-1.226C997.867,1268.245,996.64,1268.609,996.166,1269.84Z" fill="#d4e2fc"/>
                      <g id="Grupo_76419" data-name="Grupo 76419">
                        <g id="Grupo_76418" data-name="Grupo 76418">
                          <path id="Trazado_176116" data-name="Trazado 176116" d="M994.721,1275.25c-.2.167-.43.368-.624.534-.28-.439-.288-.476-.547-.918a30.257,30.257,0,0,1,.729-7.582l.609.431A28.408,28.408,0,0,0,994.721,1275.25Z" fill="#1c232a"/>
                        </g>
                      </g>
                      <path id="Trazado_176117" data-name="Trazado 176117" d="M994.019,1267.225a.137.137,0,0,0,0,.037.873.873,0,0,0,.072.235,2.659,2.659,0,0,0,.2.432.42.42,0,0,0,.178.185.331.331,0,0,0,.281-.039c.1-.054.276-.135.254-.257a2.177,2.177,0,0,0-.091-.315,1.143,1.143,0,0,0-.36-.594c-.216-.143-.37.072-.484.232A.266.266,0,0,0,994.019,1267.225Z" fill="#283032"/>
                      <path id="Trazado_176118" data-name="Trazado 176118" d="M996.754,1266.164c.047,1.462-2.7,1.487-2.657.112.055-1.916.172-2.136,1.075-2.433a2.614,2.614,0,0,1,.767-.149c.953-.018.584.466.549.8C996.381,1265.5,996.738,1265.638,996.754,1266.164Z" fill="#f5a783"/>
                      <path id="Trazado_176119" data-name="Trazado 176119" d="M996.754,1266.164c-.016-.526-.373-.665-.267-1.666.036-.338.405-.822-.548-.8a2.614,2.614,0,0,0-.767.149c-.891.293-1.016.512-1.072,2.355.759-.073,1.429-.91,2.2-.413a1.4,1.4,0,0,1,.44.573A.947.947,0,0,0,996.754,1266.164Z" fill="#ee9c76"/>
                      <path id="Trazado_176120" data-name="Trazado 176120" d="M996.3,1265.785c-.774-.5-1.444.34-2.2.413l0,.078c-.037,1.311,2.456,1.349,2.646.082A1.4,1.4,0,0,0,996.3,1265.785Z" fill="#f5a783"/>
                      <path id="Trazado_176121" data-name="Trazado 176121" d="M994.547,1267.065c-.049.157-.256.211-.392.3-.06.04-.164.118-.242.1s-.127-.122-.154-.187a4.068,4.068,0,0,1-.309-1.5.586.586,0,0,1,.151-.456.444.444,0,0,1,.45-.063c.15.065.186.361.133.5A1.17,1.17,0,0,0,994.547,1267.065Z" fill="#fff"/>
                      <path id="Trazado_176122" data-name="Trazado 176122" d="M994.525,1267.072a3.518,3.518,0,0,0,.529.635c.073.064.13.143.227.112a3.712,3.712,0,0,0,1.659-1.51.688.688,0,0,0-.175-.576,3,3,0,0,0-.2-.252,3.26,3.26,0,0,1-.287.651A2.486,2.486,0,0,1,994.525,1267.072Z" fill="#fff"/>
                    </g>
                  </g>
                  <g id="Grupo_76422" data-name="Grupo 76422">
                    <path id="Trazado_176123" data-name="Trazado 176123" d="M993.8,1275.182a3.365,3.365,0,0,0-.695.012c-.141.029.252.205.167.322-.128.177-.376.3-.349.514a2.059,2.059,0,0,0,.114.51.784.784,0,0,0,.324.4.389.389,0,0,0,.193.056.628.628,0,0,0,.136-.024l.753-.2a.81.81,0,0,0,.16-.055.52.52,0,0,0,.169-.151.92.92,0,0,0,.135-.764.853.853,0,0,0-.174-.377c-.076-.08-.218-.084-.32-.112A5.166,5.166,0,0,0,993.8,1275.182Z" fill="#ffbfa2"/>
                    <path id="Trazado_176124" data-name="Trazado 176124" d="M994.374,1275.26l-.685-.508a1.182,1.182,0,0,0-.28-.169,2.548,2.548,0,0,0-.248-.061c-.075-.019-.148-.046-.225-.059a1.22,1.22,0,0,0-.674.157.785.785,0,0,0-.243.149c-.043.044-.074.115-.039.165a.161.161,0,0,0,.072.047.545.545,0,0,0,.242.061c.1,0,.192-.062.293-.076a.513.513,0,0,1,.447.223c.108.137.175.3.27.448a.624.624,0,0,0,.4.308.711.711,0,0,0,.185-.005,1.013,1.013,0,0,0,.406-.129.527.527,0,0,0,.228-.279C994.568,1275.4,994.474,1275.334,994.374,1275.26Z" fill="#ffbfa2"/>
                  </g>
                  <path id="Trazado_176125" data-name="Trazado 176125" d="M992.013,1272.269l-3.632-2.106.175-.117,3.632,2.105Z" fill="#1c232a"/>
                  <path id="Trazado_176126" data-name="Trazado 176126" d="M992.188,1272.151l1.536,4.688-.294-.2-1.417-4.375Z" fill="#0f1317"/>
                  <path id="Trazado_176127" data-name="Trazado 176127" d="M993.549,1276.957l-3.632-2.106-1.536-4.688,3.632,2.106Z" fill="#0f1317"/>
                  <path id="Trazado_176128" data-name="Trazado 176128" d="M993.782,1275.889c.15-.09-.391-.285-.452-.36-.148-.182-.119.114-.655.106a1.345,1.345,0,0,1-.461-.06c-.106-.04-.227-.107-.323-.046a.186.186,0,0,0-.053.232c-.144-.067-.171.2-.065.329.205.246-.158.286.269.614l-.08.052c.046.465,1.182.319,1.643.234A.572.572,0,0,0,993.782,1275.889Z" fill="#ffbfa2"/>
                  <g id="Grupo_76423" data-name="Grupo 76423">
                    <path id="Trazado_176129" data-name="Trazado 176129" d="M989.541,1273.231c-.254.124-.388-.181-.277-.286s.512-.146.6.068C989.936,1273.189,989.708,1273.15,989.541,1273.231Z" fill="#ffbfa2"/>
                    <path id="Trazado_176130" data-name="Trazado 176130" d="M988.854,1271.8c-.156.108-.039.4.043.407a.375.375,0,0,0,.138-.053.579.579,0,0,1,.326-.031.56.56,0,0,0,.138.019.117.117,0,0,0,.107-.077c.072-.2-.241-.31-.331-.335A.427.427,0,0,0,988.854,1271.8Z" fill="#ffbfa2"/>
                    <path id="Trazado_176131" data-name="Trazado 176131" d="M988.951,1272.562c.124.12.166-.1.513-.047a.562.562,0,0,0,.139.016.117.117,0,0,0,.1-.079c.07-.2-.243-.306-.334-.329C988.942,1272.014,988.724,1272.343,988.951,1272.562Z" fill="#ffbfa2"/>
                    <path id="Trazado_176132" data-name="Trazado 176132" d="M989.1,1272.906c.14.059.159-.01.427-.039.412-.046.261-.42-.229-.346a1.843,1.843,0,0,0-.2.039A.189.189,0,0,0,989.1,1272.906Z" fill="#ffbfa2"/>
                  </g>
                </g>
                <path id="Trazado_176133" data-name="Trazado 176133" d="M1000.08,1270.1a4.4,4.4,0,0,0-.279-1.357,2.633,2.633,0,0,0-.81-1.063.752.752,0,0,0-.584-.243.7.7,0,0,0-.432.373,4.873,4.873,0,0,0-.438,3.389c.2,1.028.247,2.081.451,3.111a14.576,14.576,0,0,0-3.407.99.959.959,0,0,0-.438.359,1.029,1.029,0,0,0,.263.994,1.343,1.343,0,0,0,1.046.158,11.74,11.74,0,0,0,4.009-.971.8.8,0,0,0,.359-.219,2.246,2.246,0,0,0,.42-1.384C1000.269,1273.16,1000.161,1271.805,1000.08,1270.1Z" fill="#fff"/>
                <g id="Grupo_76425" data-name="Grupo 76425">
                  <path id="Trazado_176134" data-name="Trazado 176134" d="M993.154,1261.569a1.892,1.892,0,0,0-.3,1.026,1.481,1.481,0,0,0,.081.471,1.384,1.384,0,0,1,.143.434,1.915,1.915,0,0,1-.19.56.7.7,0,0,0-.023.484,1.587,1.587,0,0,0,.149.242c.242.38.014.941.436,1.215a.7.7,0,0,0,.354.088,4.911,4.911,0,0,0,1.132-.309,2.814,2.814,0,0,0,.811-.722,3.6,3.6,0,0,0,.564-.673c.033-.072-.047-.085.026-.12.043-.021.1-.3.145-.307a.544.544,0,0,0,.186-.1c.094-.063.139.166.17.057a4.588,4.588,0,0,0,.28-1.424,1.67,1.67,0,0,0-1.157-1.833,2.4,2.4,0,0,0-1.609-.029A2.31,2.31,0,0,0,993.154,1261.569Z" fill="#ffbfa2"/>
                  <path id="Trazado_176135" data-name="Trazado 176135" d="M997.121,1262.488a1.67,1.67,0,0,0-1.157-1.833,2.383,2.383,0,0,0-.961-.15c-.489.976.218,2.226-.314,3.237-.178.238-.535.416-.535.713-.118.534.414,1.009.121,1.542a5.357,5.357,0,0,0,.664-.217,2.814,2.814,0,0,0,.811-.722,3.6,3.6,0,0,0,.564-.673c.033-.072-.047-.085.026-.12.043-.021.1-.3.145-.307a.544.544,0,0,0,.186-.1c.094-.063.139.166.17.057A4.588,4.588,0,0,0,997.121,1262.488Z" fill="#f8b495"/>
                  <path id="Trazado_176136" data-name="Trazado 176136" d="M994.851,1261.981a.644.644,0,0,1,.369.036.654.654,0,0,1,.345.514,8.072,8.072,0,0,1-.106,1.4.384.384,0,0,0,.037.2c.094.166.269.075.368-.03.064-.067.114-.146.175-.216a.414.414,0,0,1,.229-.148.249.249,0,0,1,.281.223.853.853,0,0,1-.034.365c-.008.029-.07.243.018.244a2.826,2.826,0,0,0,.9-2.159,1.411,1.411,0,0,0-.871-1.548,1.563,1.563,0,0,0-1.45-.625,3.254,3.254,0,0,0-1.56.5l-.056.035a1.942,1.942,0,0,0-.587.55c-.4.623.14,1.123.793,1.018a5.226,5.226,0,0,0,.886-.295,1.555,1.555,0,0,1,.262-.07Z" fill="#c99c83"/>
                </g>
                <path id="Trazado_176137" data-name="Trazado 176137" d="M997.434,1262.418a3.622,3.622,0,0,1-.033.4,2.645,2.645,0,0,1-.867,1.759c-.089,0-.027-.215-.019-.244a.853.853,0,0,0,.034-.365.25.25,0,0,0-.281-.224.426.426,0,0,0-.229.149c-.061.069-.111.149-.175.216-.1.1-.274.2-.368.03a.386.386,0,0,1-.037-.2c0-.067.007-.133.013-.2.013-.121.032-.242.05-.363a2.83,2.83,0,0,0,.043-.841.658.658,0,0,0-.345-.515.644.644,0,0,0-.369-.035,5.517,5.517,0,0,1,.8-.669,6.085,6.085,0,0,1,.914-.442,1.367,1.367,0,0,1,.871,1.379C997.435,1262.3,997.435,1262.359,997.434,1262.418Z" fill="#b98c74"/>
                <path id="Trazado_176138" data-name="Trazado 176138" d="M996.406,1263.388c.388-.026.486.455.22.826a1.86,1.86,0,0,1-.316.291c-.7.591-.869-.048-.648-.25C996.174,1263.788,995.919,1263.421,996.406,1263.388Z" fill="#f8b495"/>
                <path id="Trazado_176139" data-name="Trazado 176139" d="M996.172,1264.306c.045-.041.486-.3.186-.479a.133.133,0,0,0-.189.112c-.007.046.007.092,0,.138a.208.208,0,0,1-.03.076c-.039.064-.173.125-.147.219S996.147,1264.329,996.172,1264.306Z" fill="#f3a984"/>
              </g>
            </g>
            <g id="man-3" data-name="man">
              <g id="Grupo_76430" data-name="Grupo 76430">
                <g id="Grupo_76429" data-name="Grupo 76429" style="isolation: isolate">
                  <g id="Grupo_76428" data-name="Grupo 76428" style="isolation: isolate">
                    <g id="Grupo_76427" data-name="Grupo 76427" clip-path="url(#clip-path-15)">
                      <g id="Grupo_76426" data-name="Grupo 76426" style="isolation: isolate">
                        <path id="Trazado_176140" data-name="Trazado 176140" d="M975.532,1266.424l1.072-.623a.292.292,0,0,0-.3-.028l-1.072.623a.3.3,0,0,1,.3.028Z" fill="#7f89a6"/>
                      </g>
                    </g>
                  </g>
                </g>
              </g>
              <g id="man-4" data-name="man">
                <g id="man-5" data-name="man">
                  <g id="Grupo_76433" data-name="Grupo 76433">
                    <g id="Grupo_76432" data-name="Grupo 76432">
                      <g id="Grupo_76431" data-name="Grupo 76431">
                        <path id="Trazado_176142" data-name="Trazado 176142" d="M974.173,1298.25c.035-.1.1-.149.282-.158.214-.01.43-.012.644-.018l.872-.024c-.006-.235,0-.474-.022-.708a1.218,1.218,0,0,0,.78-.1c.352-.116.709-.22,1.068-.311a.986.986,0,0,1,.469-.037c.389.094.58.746.515,1.083a.986.986,0,0,1-.411.579,2.376,2.376,0,0,1-1.064.425,2.173,2.173,0,0,0-1.065.383A2.2,2.2,0,0,1,975,1300a.872.872,0,0,1-.968-.875,2.864,2.864,0,0,1,.083-.587C974.138,1298.417,974.148,1298.321,974.173,1298.25Z" fill="#3f4961"/>
                        <path id="Trazado_176143" data-name="Trazado 176143" d="M976.311,1299.308c0-.043,0-.085,0-.128a2.738,2.738,0,0,1,.3-1.2.93.93,0,0,1,.249-.408.668.668,0,0,1,.925.291c.084.147.131.314.207.466a1.074,1.074,0,0,0,.783.65c.469.021,1-.14,1.471-.169a1.269,1.269,0,0,1,.549.052.938.938,0,0,1-.134,1.676,2.381,2.381,0,0,1-1.124.219,2.178,2.178,0,0,0-1.118.178c-.612.29-1.324.7-1.943.142a.91.91,0,0,1-.265-.6C976.172,1300.081,976.306,1299.7,976.311,1299.308Z" fill="#546282"/>
                      </g>
                    </g>
                  </g>
                </g>
                <path id="Trazado_176144" data-name="Trazado 176144" d="M976.5,1290.294l.219-.92C976.634,1289.678,976.562,1289.985,976.5,1290.294Z" fill="#6e4cb3"/>
                <path id="Trazado_176145" data-name="Trazado 176145" d="M973.1,1281.594c.106-.547-.04-1.584.744-1.667.71-.075,1.1.8,1.287,1,.283.309,1.416-.2,1.436-.345,1.36-.978,1.056,3.112.617,4.725-.235.87-.214,1.786-.368,2.672a20.158,20.158,0,0,1-.683,2.763,18.935,18.935,0,0,0-.218,2.39c-.047,1.379,0,2.76-.061,4.138a3.178,3.178,0,0,1-.124.869,1.232,1.232,0,0,1-.241.444.631.631,0,0,1-.4.174,1.469,1.469,0,0,1-.4-.021.98.98,0,0,1-.386-.13,1.1,1.1,0,0,1-.378-.682q-.122-.469-.222-.943a19.922,19.922,0,0,1-.365-2.5,22.5,22.5,0,0,1-.059-2.477q.018-.633.065-1.264c.015-.216.033-.431.052-.645.01-.109.021-.218.032-.327a1.419,1.419,0,0,0,.032-.317l.009.008a6.129,6.129,0,0,0-.073-.961l-.33-1.991a17.465,17.465,0,0,1-.229-1.749A12.564,12.564,0,0,1,973.1,1281.594Z" fill="#2c2030"/>
                <path id="Trazado_176146" data-name="Trazado 176146" d="M977.068,1281.59c.126-.066.777-.393.772-.569,0-.119.317-.218.4-.216a.814.814,0,0,1,.42.185,1.946,1.946,0,0,1,.651.887,4.961,4.961,0,0,1,.258,1.523,28.6,28.6,0,0,1-.118,4.627q-.123,1.164-.342,2.312c-.072.382-.153.763-.241,1.141a.848.848,0,0,1-.466.671,1.777,1.777,0,0,1-2.306-.385c-.5-.8-.295-2.042-.456-2.941-.235-1.3-1.1-2.262-1.5-3.5a5.523,5.523,0,0,1-.1-2.7c.073-.439.208-1.488.655-1.744a1.528,1.528,0,0,1,1.573.394C976.644,1281.653,976.6,1281.831,977.068,1281.59Z" fill="#372b3d"/>
                <g id="Grupo_76439" data-name="Grupo 76439">
                  <g id="Grupo_76438" data-name="Grupo 76438">
                    <g id="Grupo_76437" data-name="Grupo 76437">
                      <g id="Grupo_76436" data-name="Grupo 76436">
                        <g id="Grupo_76435" data-name="Grupo 76435">
                          <g id="Grupo_76434" data-name="Grupo 76434">
                            <path id="Trazado_176147" data-name="Trazado 176147" d="M972.6,1277.986c-.029-.23-.063-.46-.1-.688-.193-1.095-.52-2.164-.658-3.269a3.015,3.015,0,0,1,.5-2.59,1.815,1.815,0,0,1,.373-.273c1.322-.747,2.587.162,3.827.608a11.712,11.712,0,0,1,2.323,1.144,2.077,2.077,0,0,1,.685.526,1.7,1.7,0,0,1,.3.881,4.887,4.887,0,0,1-.108,1.1,22.479,22.479,0,0,0-.258,6.4c.081.681.113,1.369.15,2.053.014.257.177.663.047.9s-.638.455-.881.578a5.227,5.227,0,0,1-5.447-.421,1.293,1.293,0,0,1-.68-1.124c.033-.631.013-1.269.028-1.9A26.389,26.389,0,0,0,972.6,1277.986Z" fill="#e9ecf5"/>
                          </g>
                        </g>
                      </g>
                    </g>
                  </g>
                </g>
                <g id="Grupo_76445" data-name="Grupo 76445">
                  <g id="Grupo_76444" data-name="Grupo 76444">
                    <g id="Grupo_76443" data-name="Grupo 76443">
                      <g id="Grupo_76442" data-name="Grupo 76442">
                        <g id="Grupo_76441" data-name="Grupo 76441">
                          <g id="Grupo_76440" data-name="Grupo 76440">
                            <path id="Trazado_176148" data-name="Trazado 176148" d="M972.6,1277.986c-.029-.23-.063-.46-.1-.688-.193-1.095-.52-2.164-.658-3.269a3.015,3.015,0,0,1,.5-2.59,1.815,1.815,0,0,1,.373-.273c1.322-.747,2.587.162,3.827.608a11.712,11.712,0,0,1,2.323,1.144,2.077,2.077,0,0,1,.685.526,1.7,1.7,0,0,1,.3.881,4.887,4.887,0,0,1-.108,1.1,22.479,22.479,0,0,0-.258,6.4c.081.681.113,1.369.15,2.053.014.257.177.663.047.9s-.638.455-.881.578a5.227,5.227,0,0,1-5.447-.421,1.293,1.293,0,0,1-.68-1.124c.033-.631.013-1.269.028-1.9A26.389,26.389,0,0,0,972.6,1277.986Z" fill="#e9ecf5"/>
                          </g>
                        </g>
                      </g>
                    </g>
                  </g>
                </g>
                <g id="Grupo_76450" data-name="Grupo 76450">
                  <g id="Grupo_76449" data-name="Grupo 76449">
                    <g id="Grupo_76448" data-name="Grupo 76448">
                      <g id="Grupo_76447" data-name="Grupo 76447">
                        <g id="Grupo_76446" data-name="Grupo 76446">
                          <path id="Trazado_176149" data-name="Trazado 176149" d="M977.173,1272.03c-.225-.1-.464-.194-.635-.256a9.913,9.913,0,0,0-2.63-.889,1.213,1.213,0,0,0,.553,1.744,2.613,2.613,0,0,0,2.612-.182C977.225,1272.34,977.339,1272.158,977.173,1272.03Z" fill="#cddcfb"/>
                        </g>
                      </g>
                    </g>
                  </g>
                </g>
                <path id="Trazado_176150" data-name="Trazado 176150" d="M978.822,1292.09q-.086,1-.157,2.007-.055.793-.1,1.589c-.021.408-.04.816-.054,1.225-.077,2.236.159,2.739-.9,3.029a1.436,1.436,0,0,1-.725.025c-.686-.17-.8-.773-.89-1.521-.047-.42-.069-.927-.083-1.352-.011-.359-.018-.719-.025-1.078q-.012-.729-.018-1.459-.011-.963-.016-1.925c-.006-.82-.076-1.657-.082-2.478a.387.387,0,0,1,.17-.3,10.709,10.709,0,0,1,2.845,1.1A3.4,3.4,0,0,1,978.822,1292.09Z" fill="#372b3d"/>
                <path id="Trazado_176151" data-name="Trazado 176151" d="M976.868,1270.7c.048-.328.3-.252.17-.549a1.6,1.6,0,0,0-.484-.651,1.158,1.158,0,0,0-.763-.252c-.094.006-.157.06-.25.06a5.4,5.4,0,0,0-.775-.011c-.256.037-.492.056-.492.344a3.542,3.542,0,0,1-.106,1.135,2.848,2.848,0,0,0-.183.61,1.071,1.071,0,0,0,.646.988,2.539,2.539,0,0,0,1.48.132c.247-.036.595-.085.74-.321a.932.932,0,0,0,.039-.6A3.333,3.333,0,0,1,976.868,1270.7Z" fill="#ffbfa2"/>
                <g id="Grupo_76452" data-name="Grupo 76452">
                  <g id="Grupo_76451" data-name="Grupo 76451">
                    <path id="Trazado_176152" data-name="Trazado 176152" d="M977.967,1266.508a1.34,1.34,0,0,1,.314.651c.083.556-.141,1.128-.02,1.68a1.846,1.846,0,0,1-1.166,2.059,3.743,3.743,0,0,1-1.925-.189,2.722,2.722,0,0,1-1.023-1.084C971.945,1266.128,976.473,1264.69,977.967,1266.508Z" fill="#ffbfa2"/>
                  </g>
                </g>
              </g>
              <path id="Trazado_176153" data-name="Trazado 176153" d="M973.143,1268.057c.015.1.029.208.049.31a1.967,1.967,0,0,0,.057.23,1.742,1.742,0,0,0,.074.19,4.116,4.116,0,0,0,.4.659,2.1,2.1,0,0,0,.745.749,1.98,1.98,0,0,0,.441.136,1.483,1.483,0,0,0,1.351-.234,1.026,1.026,0,0,0,.226-.574,3.914,3.914,0,0,1,.086-.572c.013-.05.026-.1.042-.148a1.083,1.083,0,0,1,.093-.226.522.522,0,0,1,.293-.256c.218-.067.48.057.669-.069a.591.591,0,0,0,.191-.288c.044-.107.084-.227.128-.345a1.583,1.583,0,0,1,.222-.431,1.494,1.494,0,0,0,.151-.195.671.671,0,0,0,.125-.3,1.972,1.972,0,0,0-.754-1.345,2.32,2.32,0,0,0-.639-.436,2.594,2.594,0,0,0-.658-.166,3.127,3.127,0,0,0-1.966.247.859.859,0,0,0-.38.362.482.482,0,0,1-.055.1.385.385,0,0,1-.134.084,1.322,1.322,0,0,0-.4.278A2.709,2.709,0,0,0,973.143,1268.057Z" fill="#d6af75"/>
              <path id="Trazado_176154" data-name="Trazado 176154" d="M976.762,1268.082c-.422-.036-.538.487-.255.9a2.081,2.081,0,0,0,.34.323c.746.658.948-.036.711-.26C977.008,1268.522,977.293,1268.127,976.762,1268.082Z" fill="#ffbfa2"/>
              <path id="Trazado_176155" data-name="Trazado 176155" d="M976.876,1268.881c-.047-.045-.524-.338-.193-.526a.145.145,0,0,1,.2.126c.006.05-.01.1,0,.151a.216.216,0,0,0,.031.083c.041.07.186.14.156.241S976.9,1268.907,976.876,1268.881Z" fill="#f3a984"/>
              <path id="Trazado_176156" data-name="Trazado 176156" d="M988.855,1278.009c.09-.134.037-.391-.1-.312a.181.181,0,0,0-.074-.219c-.1-.049-.21.028-.308.077a1.315,1.315,0,0,1-.439.1c-.317.037-.667-.081-.637-.128a.411.411,0,0,1,.335-.214c.081,0,.158.041.239.037a.452.452,0,0,0,.185-.068.122.122,0,0,0,.053-.044c.024-.042-.006-.1-.044-.127a.582.582,0,0,0-.2-.1.959.959,0,0,0-.546-.069c-.06.016-.115.044-.173.065a2.024,2.024,0,0,0-.191.068,4.713,4.713,0,0,0-.681.429c-.806.353-.745.868-.312,1.211a3.2,3.2,0,0,0,1.182.333c.011,0,.02.005.031.006l.063,0h.006c.489.032,1.5.037,1.5-.4l-.084-.043C989.036,1278.269,988.682,1278.267,988.855,1278.009Z" fill="#f3a984"/>
              <path id="Trazado_176157" data-name="Trazado 176157" d="M986.371,1278.1a1.1,1.1,0,0,1-.112.693c-.108.134-.359.18-.487.238-.661.3-4.547,1.53-5.194,1.089-.336-.229.061-1.45.654-1.962.635-.549,3.752-.685,4.431-.685a.884.884,0,0,1,.428.074A.734.734,0,0,1,986.371,1278.1Z" fill="#e9ecf5"/>
              <path id="Trazado_176158" data-name="Trazado 176158" d="M980.18,1274.159a1.527,1.527,0,0,0-1.1-1.019,1.37,1.37,0,0,0-.655.126,2.452,2.452,0,0,0-1.312,1.1,1.12,1.12,0,0,0-.114.326c-.067.421.2.712.408,1.034.254.388.487.79.715,1.193a20.744,20.744,0,0,0,1.459,2.363,2.054,2.054,0,0,0,1.286.924,1.161,1.161,0,0,0,.987-.379,1.235,1.235,0,0,0,.305-1.347A42.4,42.4,0,0,0,980.18,1274.159Z" fill="#e9ecf5"/>
            </g>
            <g id="Grupo_76453" data-name="Grupo 76453">
              <path id="Trazado_176159" data-name="Trazado 176159" d="M983.879,1255.084l4.774,2.756a2.409,2.409,0,0,1,1.089,1.887v1.235c.2.708.89,3.206.934,3.437l-1.526-1.973a2.45,2.45,0,0,0-.686-.622l-4.585-2.646a2.412,2.412,0,0,1-1.089-1.888v-1.557C982.79,1255.018,983.278,1254.736,983.879,1255.084Z" fill="#dde3f4"/>
            </g>
          </g>
        </g>
        <g id="man-6" data-name="man">
          <ellipse id="Elipse_5047" data-name="Elipse 5047" cx="6.971" cy="4.025" rx="6.971" ry="4.025" transform="translate(1022.131 1311.813)" fill="#bcc5df" opacity="0.8" style="mix-blend-mode: multiply;isolation: isolate"/>
          <path id="Trazado_176160" data-name="Trazado 176160" d="M1038.7,1285.957c-.077-.108-.21-.228-.325-.16s-.1.246-.113.351a.792.792,0,0,0,.074.451,1.172,1.172,0,0,1,.142.45.289.289,0,0,1-.024.127,7.211,7.211,0,0,1,.82.728.828.828,0,0,0,.081-.286A2.739,2.739,0,0,0,1038.7,1285.957Z" fill="#ffbfa2"/>
          <path id="Trazado_176161" data-name="Trazado 176161" d="M1031.174,1286.158c.015.01-.021.011-.026-.006a1.294,1.294,0,0,1,.032-.537c.063-.46-.106-.932-.03-1.39a.79.79,0,0,1,.155-.375,1.087,1.087,0,0,1,.291-.224,5.261,5.261,0,0,0,.5-.324,2.308,2.308,0,0,1,.136,1.931Z" fill="#ffbf99"/>
          <path id="Trazado_176162" data-name="Trazado 176162" d="M1030.226,1285.959a26.253,26.253,0,0,0-3.176.832,2.827,2.827,0,0,0-1.307.681,1.447,1.447,0,0,0-.206,1.454.808.808,0,0,0,.508.6,2.246,2.246,0,0,0,.977-.143,10.956,10.956,0,0,0,1.995-.8c.219-.113.435-.234.65-.355q.486-.27.968-.547A2.451,2.451,0,0,1,1030.226,1285.959Z" fill="#fff"/>
          <g id="Grupo_76466" data-name="Grupo 76466">
            <g id="Grupo_76465" data-name="Grupo 76465" style="isolation: isolate">
              <g id="Grupo_76458" data-name="Grupo 76458" style="isolation: isolate">
                <path id="Trazado_176163" data-name="Trazado 176163" d="M1038.039,1289.595l.185-.108a.277.277,0,0,0,.116-.256l-.185.108A.278.278,0,0,1,1038.039,1289.595Z" fill="#eff6fe"/>
                <g id="Grupo_76457" data-name="Grupo 76457" clip-path="url(#clip-path-16)">
                  <g id="Grupo_76456" data-name="Grupo 76456" style="isolation: isolate">
                    <path id="Trazado_176164" data-name="Trazado 176164" d="M1038.039,1289.595l.185-.108a.277.277,0,0,0,.116-.256l-.185.108a.278.278,0,0,1-.116.256Z" fill="#eff6fe"/>
                  </g>
                </g>
              </g>
              <g id="Grupo_76459" data-name="Grupo 76459">
                <path id="Trazado_176166" data-name="Trazado 176166" d="M1038.155,1289.339l.185-.108.011-3.744-.185.107Z" fill="#eff6fe"/>
              </g>
              <g id="Grupo_76460" data-name="Grupo 76460">
                <path id="Trazado_176167" data-name="Trazado 176167" d="M1037.769,1284.908l.185-.107-5.359-3.094-.185.107Z" fill="#eff6fe"/>
              </g>
              <g id="Grupo_76463" data-name="Grupo 76463" style="isolation: isolate">
                <path id="Trazado_176168" data-name="Trazado 176168" d="M1038.166,1285.595l.185-.107a.874.874,0,0,0-.4-.688l-.185.108A.873.873,0,0,1,1038.166,1285.595Z" fill="#eff6fe"/>
                <g id="Grupo_76462" data-name="Grupo 76462" clip-path="url(#clip-path-17)">
                  <g id="Grupo_76461" data-name="Grupo 76461" style="isolation: isolate">
                    <path id="Trazado_176169" data-name="Trazado 176169" d="M1038.166,1285.595l.185-.107a.767.767,0,0,0-.07-.3l-.185.108a.757.757,0,0,1,.07.3Z" fill="#eff6fe"/>
                    <path id="Trazado_176170" data-name="Trazado 176170" d="M1038.1,1285.294l.185-.108a.987.987,0,0,0-.134-.217l-.185.107a.985.985,0,0,1,.134.218Z" fill="#eff6fe"/>
                    <path id="Trazado_176171" data-name="Trazado 176171" d="M1037.962,1285.076l.185-.107a.725.725,0,0,0-.193-.169l-.185.108a.723.723,0,0,1,.193.168Z" fill="#eff6fe"/>
                  </g>
                </g>
              </g>
              <g id="Grupo_76464" data-name="Grupo 76464">
                <path id="Trazado_176173" data-name="Trazado 176173" d="M1032.41,1281.813c-.22-.127-.4-.025-.4.228l-.01,3.744a.873.873,0,0,0,.4.687l5.359,3.095c.22.127.4.025.4-.228l.011-3.744a.873.873,0,0,0-.4-.687Z" fill="#cddcfb"/>
                <path id="Trazado_176174" data-name="Trazado 176174" d="M1032.218,1285.786a.665.665,0,0,0,.288.5l5.36,3.1a.2.2,0,0,0,.061.024.2.2,0,0,0,.01-.064v-.034l.01-3.71a.661.661,0,0,0-.287-.5l-5.31-3.066-.05-.028a.166.166,0,0,0-.062-.025.175.175,0,0,0-.009.063Z" fill="#bcc5df"/>
                <path id="Trazado_176175" data-name="Trazado 176175" d="M1032.34,1285.741a.665.665,0,0,0,.287.5l5.31,3.065.01-3.71a.661.661,0,0,0-.287-.5l-5.31-3.066Z" fill="#15d9fd"/>
              </g>
            </g>
            <path id="Trazado_176176" data-name="Trazado 176176" d="M1032.311,1281.678l-.185.108a.282.282,0,0,1,.284.027l.185-.107A.282.282,0,0,0,1032.311,1281.678Z" fill="#eff6fe"/>
            <path id="Trazado_176177" data-name="Trazado 176177" d="M1036.5,1287.724l-3.254-1.879V1284.7l3.254,1.879Z" fill="#fff"/>
            <path id="Trazado_176178" data-name="Trazado 176178" d="M1036.638,1284.507l1.307,2.105,0,.8-2.325-3.491Z" fill="#47e0ff" opacity="0.3" style="mix-blend-mode: screen;isolation: isolate"/>
            <path id="Trazado_176179" data-name="Trazado 176179" d="M1037.939,1288.4l0,.9-.286-.166-4.611-6.709,1.544.892Z" fill="#47e0ff" opacity="0.3" style="mix-blend-mode: screen;isolation: isolate"/>
          </g>
          <path id="Trazado_176180" data-name="Trazado 176180" d="M1038.44,1287.2a.3.3,0,0,1-.1.081c-.132.073-.389.185-.447-.034a.479.479,0,0,1,.005-.206c.023-.142.046-.284.07-.425.013-.078.009-.184-.067-.2a.155.155,0,0,0-.139.066,1.569,1.569,0,0,0-.251.389q-.04.084-.078.168a7.089,7.089,0,0,0-.514,1.334,2.312,2.312,0,0,0-.084.787,3.307,3.307,0,0,0,.113.648.682.682,0,0,0,.247.419c.159.086.319-.046.423-.159a3.993,3.993,0,0,0,.345-.6c.059-.092.083-.191.139-.28a.981.981,0,0,1,.289-.239,2.485,2.485,0,0,0,.6-.579,2.739,2.739,0,0,0,.289-.466,7.211,7.211,0,0,0-.82-.728A.245.245,0,0,1,1038.44,1287.2Z" fill="#ffbfa2"/>
          <g id="man-7" data-name="man">
            <g id="Grupo_76469" data-name="Grupo 76469">
              <g id="Grupo_76468" data-name="Grupo 76468">
                <g id="Grupo_76467" data-name="Grupo 76467">
                  <path id="Trazado_176181" data-name="Trazado 176181" d="M1026.22,1315.338c.032-.1.1-.156.282-.172.219-.018.439-.028.658-.041l.891-.057c-.015-.241-.022-.485-.048-.724a1.243,1.243,0,0,0,.793-.136q.534-.2,1.081-.356a1,1,0,0,1,.477-.057c.4.082.621.743.567,1.089a1.011,1.011,0,0,1-.4.608,2.421,2.421,0,0,1-1.072.473,2.23,2.23,0,0,0-1.075.431,2.248,2.248,0,0,1-1.249.7.891.891,0,0,1-1.022-.858,2.855,2.855,0,0,1,.063-.6A2.747,2.747,0,0,1,1026.22,1315.338Z" fill="#bcc5df"/>
                  <path id="Trazado_176182" data-name="Trazado 176182" d="M1027.884,1316.016c0-.043,0-.087,0-.13a2.807,2.807,0,0,1,.305-1.232.952.952,0,0,1,.255-.417.684.684,0,0,1,.946.3c.087.152.134.322.212.478a1.1,1.1,0,0,0,.8.665c.48.022,1.02-.144,1.506-.173a1.275,1.275,0,0,1,.561.053.959.959,0,0,1-.137,1.715,2.427,2.427,0,0,1-1.15.224,2.227,2.227,0,0,0-1.144.183c-.626.3-1.355.72-1.987.144a.934.934,0,0,1-.272-.613A11.66,11.66,0,0,1,1027.884,1316.016Z" fill="#d4dbef"/>
                </g>
              </g>
            </g>
          </g>
          <path id="Trazado_176183" data-name="Trazado 176183" d="M1028.08,1306.794l.224-.941C1028.214,1306.163,1028.141,1306.477,1028.08,1306.794Z" fill="#6e4cb3"/>
          <path id="Trazado_176184" data-name="Trazado 176184" d="M1024.4,1299.257a11.463,11.463,0,0,0-.046,2.169,23.614,23.614,0,0,0,.482,2.78,11.761,11.761,0,0,1,.352,2.17,23.887,23.887,0,0,0,.777,8.642,1.124,1.124,0,0,0,.412.683,1,1,0,0,0,.4.119,1.532,1.532,0,0,0,.412.007.646.646,0,0,0,.4-.193,1.27,1.27,0,0,0,.23-.462,3.31,3.31,0,0,0,.095-.894c.01-1.412-.088-2.822-.09-4.233a19.3,19.3,0,0,1,.135-2.452,20.7,20.7,0,0,0,.6-2.85c.125-.912.07-1.847.279-2.746a13.3,13.3,0,0,0,.275-2.74Z" fill="#6e4cb3"/>
          <path id="Trazado_176185" data-name="Trazado 176185" d="M1028.022,1297.188c-.015.149-1.155.711-1.456.406-.074-.075-.18-.242-.319-.418a4.611,4.611,0,0,0-.849,4.779,20.305,20.305,0,0,1,1.437,6.176c.269,3.047.056,6.446.1,7.7a1.175,1.175,0,0,0,.244-.008.646.646,0,0,0,.4-.193,1.27,1.27,0,0,0,.23-.462,3.31,3.31,0,0,0,.095-.894c.01-1.412-.088-2.822-.09-4.233a19.3,19.3,0,0,1,.135-2.452,20.7,20.7,0,0,0,.6-2.85c.125-.912.07-1.847.279-2.746C1029.216,1300.331,1029.377,1296.138,1028.022,1297.188Z" fill="#5e3e9e"/>
          <path id="Trazado_176186" data-name="Trazado 176186" d="M1028.658,1297.887c.129-.067.8-.4.79-.582,0-.121.324-.222.408-.221a.837.837,0,0,1,.43.19,1.989,1.989,0,0,1,.666.907,5.1,5.1,0,0,1,.264,1.558,29.251,29.251,0,0,1-.121,4.735c-.084.793-.2,1.583-.349,2.365q-.112.588-.247,1.169a.867.867,0,0,1-.477.685,1.819,1.819,0,0,1-2.36-.393c-.516-.817-.3-2.09-.467-3.009-.24-1.336-1.128-2.315-1.537-3.584a5.65,5.65,0,0,1-.1-2.761c.074-.448.213-1.522.67-1.784a1.56,1.56,0,0,1,1.609.4C1028.224,1297.952,1028.179,1298.134,1028.658,1297.887Z" fill="#8763cd"/>
          <g id="Grupo_76474" data-name="Grupo 76474">
            <g id="Grupo_76473" data-name="Grupo 76473">
              <g id="Grupo_76472" data-name="Grupo 76472">
                <g id="Grupo_76471" data-name="Grupo 76471">
                  <g id="Grupo_76470" data-name="Grupo 76470">
                    <path id="Trazado_176187" data-name="Trazado 176187" d="M1024.09,1294.2c-.03-.236-.065-.47-.106-.7-.2-1.12-.532-2.214-.673-3.344a3.082,3.082,0,0,1,.508-2.65,1.842,1.842,0,0,1,.381-.281c1.353-.763,2.647.167,3.915.624a11.911,11.911,0,0,1,2.378,1.17,2.107,2.107,0,0,1,.7.538,1.748,1.748,0,0,1,.3.9,4.989,4.989,0,0,1-.11,1.121,22.976,22.976,0,0,0-.264,6.547c.112.937.223,3.5.223,3.5a4.169,4.169,0,0,1-2.023.29c-3.121.056-4.847-.731-5.027-.9s-.117-.543-.123-.77c-.02-.679-.006-1.359.01-2.038A27.192,27.192,0,0,0,1024.09,1294.2Z" fill="#ecf5fe"/>
                  </g>
                </g>
              </g>
            </g>
          </g>
          <g id="Grupo_76479" data-name="Grupo 76479">
            <g id="Grupo_76478" data-name="Grupo 76478">
              <g id="Grupo_76477" data-name="Grupo 76477">
                <g id="Grupo_76476" data-name="Grupo 76476">
                  <g id="Grupo_76475" data-name="Grupo 76475">
                    <path id="Trazado_176188" data-name="Trazado 176188" d="M1031.5,1290.454a1.748,1.748,0,0,0-.3-.9,2.107,2.107,0,0,0-.7-.538c-.157-.1-.317-.2-.478-.289-.987.831-2.345,1.828-1.653,3.04a20.949,20.949,0,0,1,2.319,10.056,2.213,2.213,0,0,0,.664-.2s-.111-2.56-.223-3.5a22.976,22.976,0,0,1,.264-6.547A4.989,4.989,0,0,0,1031.5,1290.454Z" fill="#d4e2fc"/>
                  </g>
                </g>
              </g>
            </g>
          </g>
          <g id="Grupo_76484" data-name="Grupo 76484">
            <g id="Grupo_76483" data-name="Grupo 76483">
              <g id="Grupo_76482" data-name="Grupo 76482">
                <g id="Grupo_76481" data-name="Grupo 76481">
                  <g id="Grupo_76480" data-name="Grupo 76480">
                    <path id="Trazado_176189" data-name="Trazado 176189" d="M1028.766,1288.106c-.23-.1-.475-.2-.651-.261a10.124,10.124,0,0,0-2.69-.911,1.242,1.242,0,0,0,.566,1.785,2.672,2.672,0,0,0,2.672-.186C1028.818,1288.423,1028.935,1288.237,1028.766,1288.106Z" fill="#cddcfb"/>
                  </g>
                </g>
              </g>
            </g>
          </g>
          <path id="Trazado_176190" data-name="Trazado 176190" d="M1030.453,1308.631q-.088,1.026-.161,2.053-.057.813-.1,1.627-.033.625-.055,1.253c-.08,2.288.162,2.8-.916,3.1a1.481,1.481,0,0,1-.742.026c-.7-.174-.824-.791-.91-1.557-.049-.43-.071-.948-.085-1.383-.012-.368-.019-.735-.026-1.1q-.012-.747-.019-1.493-.01-.984-.016-1.969c-.006-.839-.078-1.7-.084-2.536a.394.394,0,0,1,.174-.312,10.968,10.968,0,0,1,2.911,1.127A3.491,3.491,0,0,1,1030.453,1308.631Z" fill="#8763cd"/>
          <path id="Trazado_176191" data-name="Trazado 176191" d="M1030.945,1289.273a1.561,1.561,0,0,0-1.5-.326,1.4,1.4,0,0,0-.513.451,2.5,2.5,0,0,0-.584,1.655,1.135,1.135,0,0,0,.068.346c.16.406.544.526.9.7.425.21.838.444,1.249.681a21.2,21.2,0,0,0,2.512,1.328,2.1,2.1,0,0,0,1.614.148,1.186,1.186,0,0,0,.673-.846.963.963,0,0,0-.585-1.167C1031.9,1290.081,1030.879,1289.228,1030.945,1289.273Z" fill="#fff"/>
          <path id="Trazado_176192" data-name="Trazado 176192" d="M1037.659,1288.687c.168.089.461.315.466.537,0,.184-.207.445-.287.6-.25.485-.514.961-.777,1.438-.119.216-.239.432-.365.644a11,11,0,0,1-1.274,1.729,2.249,2.249,0,0,1-.755.638.813.813,0,0,1-.748-.242,1.446,1.446,0,0,1-.592-1.344,2.83,2.83,0,0,1,.75-1.268,26.406,26.406,0,0,1,2.351-2.47,1.643,1.643,0,0,1,.49-.348A.92.92,0,0,1,1037.659,1288.687Z" fill="#fff"/>
          <path id="Trazado_176193" data-name="Trazado 176193" d="M1032.653,1284.8a3.732,3.732,0,0,0-.22,1.017,2.319,2.319,0,0,1-.051.433,1.245,1.245,0,0,1-.5.627.485.485,0,0,1-.365.13.66.66,0,0,0,.033-.284.559.559,0,0,0-.156-.338c-.064-.066-.174-.1-.215-.19-.083-.176.033-.335.087-.494s.049-.362.116-.537a.382.382,0,0,1,.084-.141.149.149,0,0,1,.153-.038c.084.033.1.145.109.235a.075.075,0,0,0,.018.043c.031.029.077-.01.1-.045.114-.174.218-.353.332-.527a1.325,1.325,0,0,1,.305-.409.146.146,0,0,1,.072-.03l.016,0c.066.007.105.073.12.139A.671.671,0,0,1,1032.653,1284.8Z" fill="#ffbf99"/>
          <path id="Trazado_176194" data-name="Trazado 176194" d="M1031.534,1286.362a.926.926,0,0,0-.584-.465,1.619,1.619,0,0,0-.6.037l-.125.025a2.451,2.451,0,0,0,.409,1.726c.151-.087.3-.174.451-.264s.467-.2.56-.356C1031.759,1286.873,1031.629,1286.526,1031.534,1286.362Z" fill="#fff"/>
          <path id="Trazado_176195" data-name="Trazado 176195" d="M1028.453,1286.743c.049-.335.3-.257.175-.561a1.641,1.641,0,0,0-.5-.667,1.184,1.184,0,0,0-.78-.257c-.1,0-.161.06-.257.061a5.664,5.664,0,0,0-.792-.012c-.262.038-.5.057-.5.353a3.618,3.618,0,0,1-.108,1.161,2.847,2.847,0,0,0-.188.624,1.1,1.1,0,0,0,.662,1.011,2.594,2.594,0,0,0,1.514.135c.253-.037.609-.087.757-.328a.963.963,0,0,0,.04-.619A3.4,3.4,0,0,1,1028.453,1286.743Z" fill="#ffbfa2"/>
          <g id="Grupo_76486" data-name="Grupo 76486">
            <g id="Grupo_76485" data-name="Grupo 76485">
              <path id="Trazado_176196" data-name="Trazado 176196" d="M1029.578,1282.456a1.366,1.366,0,0,1,.321.666c.085.569-.144,1.154-.02,1.719a1.89,1.89,0,0,1-1.194,2.107,3.823,3.823,0,0,1-1.969-.194,2.773,2.773,0,0,1-1.047-1.109C1023.416,1282.068,1028.05,1280.6,1029.578,1282.456Z" fill="#ffbfa2"/>
            </g>
            <path id="Trazado_176197" data-name="Trazado 176197" d="M1025.011,1281.753a1.346,1.346,0,0,1,.406-.285.369.369,0,0,0,.137-.087.419.419,0,0,0,.057-.107.876.876,0,0,1,.389-.37,3.2,3.2,0,0,1,2.011-.253,2.686,2.686,0,0,1,.674.17,2.383,2.383,0,0,1,.653.446,2.021,2.021,0,0,1,.772,1.376.7.7,0,0,1-.127.309,1.663,1.663,0,0,1-.155.2,3.252,3.252,0,0,0-.358.794.609.609,0,0,1-.2.294c-.194.129-.462,0-.685.071a.542.542,0,0,0-.3.262,1.606,1.606,0,0,0-.138.382,4.1,4.1,0,0,0-.088.587,1.048,1.048,0,0,1-.231.587,1.516,1.516,0,0,1-1.382.238,2.062,2.062,0,0,1-.451-.138,2.146,2.146,0,0,1-.762-.767,2.48,2.48,0,0,1-.6-1.421A2.768,2.768,0,0,1,1025.011,1281.753Z" fill="#d6af75"/>
            <path id="Trazado_176198" data-name="Trazado 176198" d="M1028.345,1284.066c-.432-.036-.551.5-.261.918a2.09,2.09,0,0,0,.348.331c.763.673.97-.037.728-.266C1028.6,1284.517,1028.889,1284.112,1028.345,1284.066Z" fill="#ffbfa2"/>
            <path id="Trazado_176199" data-name="Trazado 176199" d="M1028.462,1284.884c-.049-.046-.537-.346-.2-.538a.149.149,0,0,1,.209.129c.006.051-.01.1,0,.154a.22.22,0,0,0,.032.085c.043.072.191.143.16.247S1028.49,1284.911,1028.462,1284.884Z" fill="#f3a984"/>
          </g>
        </g>
      </g>
      <rect id="Rectángulo_401024" data-name="Rectángulo 401024" width="157" height="78.734" rx="20" transform="translate(1105 6179.219)" fill="none" stroke="#ff725d" stroke-miterlimit="10" stroke-width="3"/>
    </g>
  </g>
</svg>
