<svg xmlns="http://www.w3.org/2000/svg" xmlns:xlink="http://www.w3.org/1999/xlink" width="85" height="85" viewBox="0 0 85 85">
  <defs>
    <clipPath id="clip-path">
      <rect id="Rectángulo_401127" data-name="Rectángulo 401127" width="85" height="85" transform="translate(180 449)" fill="#fff" stroke="#707070" stroke-width="1"/>
    </clipPath>
  </defs>
  <g id="Enmascarar_grupo_1098693" data-name="Enmascarar grupo 1098693" transform="translate(-180 -449)" clip-path="url(#clip-path)">
    <g id="recoger" transform="translate(180 449)">
      <path id="Trazado_873614" data-name="Trazado 873614" d="M68.3,74.319H16.7a1.66,1.66,0,0,1-1.66-1.66V24.369a1.66,1.66,0,0,1,1.66-1.66H68.3a1.66,1.66,0,0,1,1.66,1.66v48.29A1.66,1.66,0,0,1,68.3,74.319Z" fill="#e2ae83"/>
      <path id="Trazado_873615" data-name="Trazado 873615" d="M69.965,24.419a1.71,1.71,0,0,0-1.71-1.71H50.56v6.914a5.129,5.129,0,0,0,8.513,3.858l3.877-3.4a.5.5,0,0,1,.332-.126h6.683Z" fill="#d39c72"/>
      <path id="Trazado_873616" data-name="Trazado 873616" d="M19.791,72.609V24.419a1.71,1.71,0,0,1,1.71-1.71H16.745a1.71,1.71,0,0,0-1.71,1.71v48.19a1.71,1.71,0,0,0,1.71,1.71H21.5A1.71,1.71,0,0,1,19.791,72.609Z" fill="#d39c72"/>
      <path id="Trazado_873617" data-name="Trazado 873617" d="M46.867,37.644l-3.836-3.038a.855.855,0,0,0-1.062,0l-3.836,3.038a.855.855,0,0,1-1.386-.67V22.709H48.253V36.974A.855.855,0,0,1,46.867,37.644Z" fill="#dc4955"/>
      <path id="Trazado_873618" data-name="Trazado 873618" d="M26.9,56.825h3.153a.855.855,0,0,0,.855-.855V50.618H33a.855.855,0,0,0,.588-1.476l-4.315-4.088a.855.855,0,0,0-1.154-.02l-4.629,4.088a.855.855,0,0,0,.566,1.5h1.983V55.97a.855.855,0,0,0,.855.855Z" fill="#f1f6f7"/>
      <path id="Trazado_873619" data-name="Trazado 873619" d="M80.211,25.679H63.282a4.778,4.778,0,0,0-3.15,1.187l-3.877,3.4a.855.855,0,0,1-1.419-.643V4.807A4.8,4.8,0,0,1,59.624,0H80.211A4.8,4.8,0,0,1,85,4.807V20.872a4.8,4.8,0,0,1-4.789,4.807Z" fill="#dc4955"/>
      <path id="Trazado_873620" data-name="Trazado 873620" d="M59.039,4.807A4.8,4.8,0,0,1,63.828,0h-4.2a4.8,4.8,0,0,0-4.789,4.807V29.622a.855.855,0,0,0,1.419.643l2.785-2.442Z" fill="#c42430"/>
      <path id="Trazado_873621" data-name="Trazado 873621" d="M79.873,12.488,75.785,7.859a.855.855,0,0,0-1.5.566v1.983H65.546v-2.1a.855.855,0,0,0-1.476-.588l-4.088,4.315a.855.855,0,0,0-.02,1.154l4.088,4.629a.855.855,0,0,0,1.5-.566V15.271h8.743v2.1a.855.855,0,0,0,1.476.588l4.088-4.315a.855.855,0,0,0,.02-1.154Z" fill="#f1f6f7"/>
      <path id="Trazado_873622" data-name="Trazado 873622" d="M84.145,85A.855.855,0,0,0,85,84.145V65.359a.855.855,0,0,0-.855-.855h-3.1a7.365,7.365,0,0,1-5.208-2.157l-7.354-7.354A3.044,3.044,0,0,0,64.173,59.3l3.015,3.015H52.38a2.885,2.885,0,0,0-2.909,2.739,2.836,2.836,0,0,0,2.834,2.933H49.469a2.836,2.836,0,1,0,0,5.672h2.836a2.836,2.836,0,1,0,0,5.672h2.683a2.836,2.836,0,0,0-2.834,2.933A2.885,2.885,0,0,0,55.062,85H84.145Z" fill="#ffcebf"/>
      <path id="Trazado_873623" data-name="Trazado 873623" d="M67.189,62.313h2.849L67.023,59.3a3.045,3.045,0,0,1,.728-4.843A3.044,3.044,0,0,0,64.173,59.3Z" fill="#ffb09e"/>
      <path id="Trazado_873624" data-name="Trazado 873624" d="M.855,85A.855.855,0,0,1,0,84.145V65.359A.855.855,0,0,1,.855,64.5h3.1a7.365,7.365,0,0,0,5.208-2.157l7.354-7.354A3.044,3.044,0,0,1,20.826,59.3l-3.015,3.015H32.62a2.885,2.885,0,0,1,2.909,2.739,2.836,2.836,0,0,1-2.834,2.933H35.53a2.836,2.836,0,1,1,0,5.672H32.695a2.836,2.836,0,1,1,0,5.672H30.012a2.836,2.836,0,0,1,2.834,2.933A2.885,2.885,0,0,1,29.938,85H.855Z" fill="#ffcebf"/>
      <g id="Grupo_1099186" data-name="Grupo 1099186">
        <path id="Trazado_873625" data-name="Trazado 873625" d="M3.879,84.145V65.359a.855.855,0,0,1,.855-.855h3.1a7.365,7.365,0,0,0,5.208-2.157L20.4,54.992c.068-.068.14-.132.213-.193a3.044,3.044,0,0,0-4.092.193L9.168,62.346A7.365,7.365,0,0,1,3.96,64.5H.855A.855.855,0,0,0,0,65.359V84.145A.855.855,0,0,0,.855,85H4.734a.855.855,0,0,1-.855-.855Z" fill="#ffb09e"/>
        <path id="Trazado_873626" data-name="Trazado 873626" d="M35.515,65.419h-11.9a1.283,1.283,0,0,0,0,2.565h9.083a2.834,2.834,0,0,0,2.82-2.565Z" fill="#ffb09e"/>
        <path id="Trazado_873627" data-name="Trazado 873627" d="M38.353,71.091H23.612a1.283,1.283,0,1,0,0,2.565H35.53a2.836,2.836,0,0,0,2.822-2.565Z" fill="#ffb09e"/>
        <path id="Trazado_873628" data-name="Trazado 873628" d="M23.612,76.763a1.283,1.283,0,0,0,0,2.565h9.083a2.836,2.836,0,0,0,2.822-2.565h-11.9Z" fill="#ffb09e"/>
        <path id="Trazado_873629" data-name="Trazado 873629" d="M55.155,73.656h6.233a1.283,1.283,0,1,0,0-2.565H49.5c-.008-.089-.014-.179-.014-.27a2.836,2.836,0,0,1,2.836-2.836h9.069a1.283,1.283,0,1,0,0-2.565H52.335a2.838,2.838,0,0,1-.014-.368,2.885,2.885,0,0,1,2.909-2.739H52.38a2.885,2.885,0,0,0-2.909,2.739,2.836,2.836,0,0,0,2.834,2.933H49.47a2.836,2.836,0,1,0,0,5.672h2.836a2.836,2.836,0,1,0,0,5.672h2.683a2.836,2.836,0,0,0-2.834,2.933A2.885,2.885,0,0,0,55.063,85h2.849A2.885,2.885,0,0,1,55,82.261a2.836,2.836,0,0,1,2.834-2.933h3.55a1.283,1.283,0,0,0,0-2.565H52.333c-.008-.089-.014-.179-.014-.27a2.836,2.836,0,0,1,2.836-2.836Z" fill="#ffb09e"/>
      </g>
    </g>
  </g>
</svg>
