<svg xmlns="http://www.w3.org/2000/svg" xmlns:xlink="http://www.w3.org/1999/xlink" width="193" height="231.556" viewBox="0 0 193 231.556">
  <defs>
    <clipPath id="clip-path">
      <rect id="Rectángulo_401575" data-name="Rectángulo 401575" width="130.483" height="231.556" fill="none"/>
    </clipPath>
    <clipPath id="clip-path-2">
      <rect id="Rectángulo_401546" data-name="Rectángulo 401546" width="130.482" height="231.556" fill="none"/>
    </clipPath>
    <clipPath id="clip-path-3">
      <rect id="Rectángulo_401545" data-name="Rectángulo 401545" width="59.461" height="34.33" fill="none"/>
    </clipPath>
    <clipPath id="clip-path-5">
      <rect id="Rectángulo_401547" data-name="Rectángulo 401547" width="8.797" height="10.49" fill="none"/>
    </clipPath>
    <clipPath id="clip-path-6">
      <rect id="Rectángulo_401548" data-name="Rectángulo 401548" width="8.785" height="14.246" fill="none"/>
    </clipPath>
    <clipPath id="clip-path-7">
      <rect id="Rectángulo_401549" data-name="Rectángulo 401549" width="8.785" height="6.908" fill="none"/>
    </clipPath>
    <clipPath id="clip-path-8">
      <rect id="Rectángulo_401550" data-name="Rectángulo 401550" width="8.797" height="10.488" fill="none"/>
    </clipPath>
    <clipPath id="clip-path-9">
      <rect id="Rectángulo_401551" data-name="Rectángulo 401551" width="8.789" height="10.494" fill="none"/>
    </clipPath>
    <clipPath id="clip-path-10">
      <rect id="Rectángulo_401552" data-name="Rectángulo 401552" width="8.789" height="10.488" fill="none"/>
    </clipPath>
    <clipPath id="clip-path-12">
      <rect id="Rectángulo_401554" data-name="Rectángulo 401554" width="8.789" height="10.496" fill="none"/>
    </clipPath>
    <clipPath id="clip-path-13">
      <rect id="Rectángulo_401555" data-name="Rectángulo 401555" width="8.791" height="14.244" fill="none"/>
    </clipPath>
    <clipPath id="clip-path-14">
      <rect id="Rectángulo_401556" data-name="Rectángulo 401556" width="8.791" height="6.918" fill="none"/>
    </clipPath>
    <clipPath id="clip-path-15">
      <rect id="Rectángulo_401557" data-name="Rectángulo 401557" width="8.789" height="10.49" fill="none"/>
    </clipPath>
    <clipPath id="clip-path-16">
      <rect id="Rectángulo_401558" data-name="Rectángulo 401558" width="8.779" height="10.478" fill="none"/>
    </clipPath>
    <clipPath id="clip-path-17">
      <rect id="Rectángulo_401559" data-name="Rectángulo 401559" width="8.779" height="10.5" fill="none"/>
    </clipPath>
    <clipPath id="clip-path-19">
      <rect id="Rectángulo_401561" data-name="Rectángulo 401561" width="8.795" height="10.494" fill="none"/>
    </clipPath>
    <clipPath id="clip-path-20">
      <rect id="Rectángulo_401562" data-name="Rectángulo 401562" width="8.791" height="14.242" fill="none"/>
    </clipPath>
    <clipPath id="clip-path-22">
      <rect id="Rectángulo_401564" data-name="Rectángulo 401564" width="8.795" height="10.488" fill="none"/>
    </clipPath>
    <clipPath id="clip-path-24">
      <rect id="Rectángulo_401566" data-name="Rectángulo 401566" width="8.789" height="10.498" fill="none"/>
    </clipPath>
    <clipPath id="clip-path-27">
      <rect id="Rectángulo_401569" data-name="Rectángulo 401569" width="8.791" height="14.246" fill="none"/>
    </clipPath>
    <clipPath id="clip-path-28">
      <rect id="Rectángulo_401570" data-name="Rectángulo 401570" width="8.791" height="6.916" fill="none"/>
    </clipPath>
    <clipPath id="clip-path-29">
      <rect id="Rectángulo_401571" data-name="Rectángulo 401571" width="8.789" height="10.486" fill="none"/>
    </clipPath>
    <clipPath id="clip-path-30">
      <rect id="Rectángulo_401572" data-name="Rectángulo 401572" width="8.779" height="10.482" fill="none"/>
    </clipPath>
    <clipPath id="clip-path-31">
      <rect id="Rectángulo_401573" data-name="Rectángulo 401573" width="8.779" height="10.498" fill="none"/>
    </clipPath>
  </defs>
  <g id="Grupo_1100071" data-name="Grupo 1100071" transform="translate(-1018.5 -7230.43)">
    <g id="Grupo_1099866" data-name="Grupo 1099866" transform="translate(0 1898)">
      <rect id="Rectángulo_401123" data-name="Rectángulo 401123" width="190" height="201" rx="40" transform="translate(1020 5339)" fill="none" stroke="#ff725d" stroke-miterlimit="10" stroke-width="3"/>
      <g id="Grupo_1099865" data-name="Grupo 1099865" transform="translate(1049.759 5332.43)">
        <g id="Grupo_1099864" data-name="Grupo 1099864" clip-path="url(#clip-path)">
          <g id="Grupo_1099783" data-name="Grupo 1099783">
            <g id="Grupo_1099782" data-name="Grupo 1099782" clip-path="url(#clip-path-2)">
              <g id="Grupo_1099781" data-name="Grupo 1099781" transform="translate(57.657 147.28)" opacity="0.3">
                <g id="Grupo_1099780" data-name="Grupo 1099780">
                  <g id="Grupo_1099779" data-name="Grupo 1099779" clip-path="url(#clip-path-3)">
                    <path id="Trazado_876501" data-name="Trazado 876501" d="M87.238,81.011,69.823,70.954H45.189L27.778,81.011V95.234l17.411,10.051H69.823L87.238,95.234Z" transform="translate(-27.777 -70.955)"/>
                  </g>
                </g>
              </g>
            </g>
          </g>
          <path id="Trazado_876502" data-name="Trazado 876502" d="M52.1,72.654,27.991,82.328v1.065l.533,3.487,3.867,1.37,8.267-3.267,5.349-5.156,7.628-1.353,4.4-4.187V73.225Z" transform="translate(30.11 78.153)" fill="#f7edd4"/>
          <path id="Trazado_876503" data-name="Trazado 876503" d="M44.916,88.986v1.063l.6,2.5,5,1.515,8.529-2.655,2.781-7.2,3.194-4.479V78.668Z" transform="translate(48.316 84.623)" fill="#f7edd4"/>
          <path id="Trazado_876504" data-name="Trazado 876504" d="M19.683,27.262,26.31,9.195,37.1,6.843,47.252,9.8,65.815,22.4v6.331l-6.5-.419L44.136,23.97,36.7,20.5,35.3,34.7l-7.856-2.362Z" transform="translate(21.172 7.361)" fill="#f0c6b4"/>
          <path id="Trazado_876505" data-name="Trazado 876505" d="M26.227,44.387l-6.852-4.251-2.447-10,5.131-13.3,10.625-1.661L40.058,22.4,36.932,39.172Z" transform="translate(18.21 16.326)" fill="#b5afa7"/>
          <path id="Trazado_876506" data-name="Trazado 876506" d="M38.866,41.364l-10.4,7.913-2.678-2.734-4.07-13.384,4.911-3.836L35.879,31.6l2.507,5.386Z" transform="translate(23.36 31.543)" fill="#f0c6b4"/>
          <path id="Trazado_876507" data-name="Trazado 876507" d="M21.569,33.7l5.743.058,8.932,5.787,3.031,3.2L38.81,36.6,28.623,29.093l-5.459.668-1.546,3.448Z" transform="translate(23.202 31.295)" fill="#b5afa7"/>
          <path id="Trazado_876508" data-name="Trazado 876508" d="M43.393,71.771,38.913,77.16,29.583,82.7l-1.592,4.172.533,3.493,3.867,1.364,8.27-3.265L46.01,83.3l7.628-1.351,4.4-4.187-2.582-9.332Z" transform="translate(30.11 73.613)" fill="#dbb276"/>
          <path id="Trazado_876509" data-name="Trazado 876509" d="M40.193,36.686,29.271,72.06l.911,6.528,10.011,31.256,8.5,1.214,6.8-4.7-7.107-34.6L67.35,37.313,48.307,33.672Z" transform="translate(31.487 36.221)" fill="#428aa8"/>
          <path id="Trazado_876510" data-name="Trazado 876510" d="M53.87,76.728l-1.822,4.7-6.221,7.956-.911,3.807.6,2.5,5,1.517,8.527-2.655,2.784-7.207,3.192-4.475-.61-8.12Z" transform="translate(48.315 80.415)" fill="#dbb276"/>
          <path id="Trazado_876511" data-name="Trazado 876511" d="M53.712,53.908,47.562,97.38l7.533,42.054,8.691,2.219,6.543-6.41L66.455,97.836l15.591-52.92L76.7,28.188l-11.53-8.3-13.245-2.7L42.1,21.019Z" transform="translate(45.287 18.488)" fill="#428aa8"/>
          <path id="Trazado_876512" data-name="Trazado 876512" d="M41.907,18.534l4.8-.469L58.924,22.1l8.535,8.558,3.9,12.512-7.993,8.882Z" transform="translate(45.079 19.432)" fill="#693121"/>
          <path id="Trazado_876513" data-name="Trazado 876513" d="M23.647,45.5l6.076-1.513,9.108,6.026,2.725,5.542L59.617,58l15.779-4.1,7.753.793,3.365.345,7.134-11.379L89.474,31.22l-9.739-9.179L66.216,17.664H63.592l-.741.554-4.479-.554H54.378l-.565,1.181L48.5,17.664H42.169L27.145,22.211,19.683,36.1l1.468,6.3Z" transform="translate(21.173 19.001)" fill="#fdb053"/>
          <path id="Trazado_876514" data-name="Trazado 876514" d="M59.028,54.284l4.787-12.572L61.2,32.133l-9.891-9.388-12.99-5.081h5.222l12.108,4.778,8.994,9.006,3.078,10.729L63.094,54.7Z" transform="translate(41.222 19)" fill="#fff"/>
          <path id="Trazado_876515" data-name="Trazado 876515" d="M56.214,53.907l2.844-12.195L56.214,32.59,45.861,23.056,33.567,17.663h5.876L50.9,22.442l8.994,9.006,3.2,10.4L60.2,53.947Z" transform="translate(36.107 19)" fill="#fff"/>
          <path id="Trazado_876516" data-name="Trazado 876516" d="M38.774,20.25l1.364,2.58,4.739.291,4.388-1.881h4.552l2.615,1.181,2.109-.606-1.995-5.359-5.916-2.117H45.278L43.561,19.2Z" transform="translate(41.709 15.424)" fill="#574943"/>
          <path id="Trazado_876517" data-name="Trazado 876517" d="M17.147,52.992l3.815.513L24.2,54.929l1.708-1.937,7.568-1.137,2.906-6.945V39.849L34.84,36.887,25,35.125l-10.64,9.9Z" transform="translate(15.444 37.784)" fill="#f0c6b4"/>
          <path id="Trazado_876518" data-name="Trazado 876518" d="M31.79,31.428,26.1,29.78l-8.994,2.5-3.983,3.985h1.48L10.848,44l.571,8.421,2.844,4.556,8.313,3.184-1.144-1.818,4.556-1.594,4.1-5.123,3.186-.453,2.387.907V51.06l-2.275-2.617.911-3.981,3.072-.687,2.79,1.825-.4-6.524L36.834,35.28Z" transform="translate(11.67 32.034)" fill="#362c29"/>
          <path id="Trazado_876519" data-name="Trazado 876519" d="M60.65,51.325l-3.23,2.549-1.247,5.345,1.247,3.489L60.268,64.6l2.885,5.393,2.424-.683,4.479-6.374-.681-6.3-4.513-5.316Z" transform="translate(60.425 55.21)" fill="#574943"/>
          <path id="Trazado_876520" data-name="Trazado 876520" d="M44.731,48.057l10.814,4.894L59.072,59.1,70.91,72.3l4.515-.382,1.746-3.491-6.6-16.954-6.831-6.034L52.816,35.426,45.641,38.9Z" transform="translate(48.117 38.108)" fill="#f0c6b4"/>
          <path id="Trazado_876521" data-name="Trazado 876521" d="M33.256,36.177,39.095,30l10.85-.417,15.1,10.547.693,9.407-8.847,6.374-20.6-10.717Z" transform="translate(35.773 31.817)" fill="#b5afa7"/>
          <path id="Trazado_876522" data-name="Trazado 876522" d="M48.727,30.368,52.7,28.739,35.835,3.955Z" transform="translate(38.547 4.254)" fill="#c84030"/>
          <path id="Trazado_876523" data-name="Trazado 876523" d="M49.838,28.739l2.719,3.329L71.35,8.715Z" transform="translate(53.61 9.374)" fill="#c84030"/>
          <path id="Trazado_876524" data-name="Trazado 876524" d="M46.739,28.364l4.066,1.4L54.517,0Z" transform="translate(50.277 0)" fill="#c84030"/>
          <path id="Trazado_876525" data-name="Trazado 876525" d="M46.709,18.233,44.241,20.7V24.19l2.468,2.466H50.2l2.46-2.466V20.7L50.2,18.233Z" transform="translate(47.589 19.613)" fill="#c84030"/>
          <path id="Trazado_876526" data-name="Trazado 876526" d="M52.215,17.186H46.932L43.2,20.926v5.283l3.734,3.738h5.283l3.74-3.738V20.926Zm3.143,8.778-3.39,3.388H47.179L43.8,25.964V21.175l3.383-3.388h4.789l3.39,3.388Z" transform="translate(46.468 18.487)" fill="#c84030"/>
          <path id="Trazado_876527" data-name="Trazado 876527" d="M30.07,17.865,25.848,9.521l2.4-.228Z" transform="translate(27.804 9.996)" fill="#c7a495"/>
          <path id="Trazado_876528" data-name="Trazado 876528" d="M62.387,90.416,33.408,73.536l-21,12.029,29.035,16.473Z" transform="translate(13.35 79.102)" fill="#389998"/>
          <path id="Trazado_876529" data-name="Trazado 876529" d="M43.861,97.1,11.418,79.331V95.343l31.6,18.239Z" transform="translate(12.282 85.336)" fill="#d7b37f"/>
          <g id="Grupo_1099803" data-name="Grupo 1099803">
            <g id="Grupo_1099802" data-name="Grupo 1099802" clip-path="url(#clip-path-2)">
              <g id="Grupo_1099786" data-name="Grupo 1099786" transform="translate(35.137 173.078)" opacity="0.6">
                <g id="Grupo_1099785" data-name="Grupo 1099785">
                  <g id="Grupo_1099784" data-name="Grupo 1099784" clip-path="url(#clip-path-5)">
                    <path id="Trazado_876530" data-name="Trazado 876530" d="M25.725,93.873l-8.8-5.075V83.383l8.8,5.073Z" transform="translate(-16.928 -83.384)" fill="#836e69"/>
                  </g>
                </g>
              </g>
              <g id="Grupo_1099789" data-name="Grupo 1099789" transform="translate(24.985 167.216)" opacity="0.6">
                <g id="Grupo_1099788" data-name="Grupo 1099788">
                  <g id="Grupo_1099787" data-name="Grupo 1099787" clip-path="url(#clip-path-6)">
                    <path id="Trazado_876531" data-name="Trazado 876531" d="M20.822,94.8l-8.784-5.063V80.559l8.784,5.077Z" transform="translate(-12.037 -80.559)" fill="#836e69"/>
                  </g>
                </g>
              </g>
              <g id="Grupo_1099792" data-name="Grupo 1099792" transform="translate(24.985 178.07)" opacity="0.6">
                <g id="Grupo_1099791" data-name="Grupo 1099791">
                  <g id="Grupo_1099790" data-name="Grupo 1099790" clip-path="url(#clip-path-7)">
                    <path id="Trazado_876532" data-name="Trazado 876532" d="M20.822,92.7l-8.784-5.075V85.789l8.784,5.069Z" transform="translate(-12.037 -85.788)" fill="#685750"/>
                  </g>
                </g>
              </g>
              <g id="Grupo_1099795" data-name="Grupo 1099795" transform="translate(35.137 180.428)" opacity="0.6">
                <g id="Grupo_1099794" data-name="Grupo 1099794">
                  <g id="Grupo_1099793" data-name="Grupo 1099793" clip-path="url(#clip-path-8)">
                    <path id="Trazado_876533" data-name="Trazado 876533" d="M25.725,97.412l-8.8-5.083V86.924l8.8,5.063Z" transform="translate(-16.928 -86.925)" fill="#685750"/>
                  </g>
                </g>
              </g>
              <g id="Grupo_1099798" data-name="Grupo 1099798" transform="translate(45.262 178.928)" opacity="0.6">
                <g id="Grupo_1099797" data-name="Grupo 1099797">
                  <g id="Grupo_1099796" data-name="Grupo 1099796" clip-path="url(#clip-path-9)">
                    <path id="Trazado_876534" data-name="Trazado 876534" d="M30.595,96.7l-8.788-5.077V86.2l8.788,5.067Z" transform="translate(-21.805 -86.202)" fill="#836e69"/>
                  </g>
                </g>
              </g>
              <g id="Grupo_1099801" data-name="Grupo 1099801" transform="translate(45.262 186.266)" opacity="0.6">
                <g id="Grupo_1099800" data-name="Grupo 1099800">
                  <g id="Grupo_1099799" data-name="Grupo 1099799" clip-path="url(#clip-path-10)">
                    <path id="Trazado_876535" data-name="Trazado 876535" d="M30.595,100.225l-8.788-5.061V89.736l8.788,5.083Z" transform="translate(-21.805 -89.737)" fill="#836e69"/>
                  </g>
                </g>
              </g>
            </g>
          </g>
          <path id="Trazado_876536" data-name="Trazado 876536" d="M49.5,97.777V81.767L35.1,88.2,26.64,94.966v16Z" transform="translate(28.657 87.956)" fill="#ac8854"/>
          <path id="Trazado_876537" data-name="Trazado 876537" d="M37.764,93.169,27.433,99.137V96.222l10.331-5.97Z" transform="translate(29.51 97.084)" fill="#ab281f"/>
          <path id="Trazado_876538" data-name="Trazado 876538" d="M35.1,92.332l-2.406,1.4V90.816L35.1,89.422Z" transform="translate(35.165 96.19)" fill="#362c29"/>
          <path id="Trazado_876539" data-name="Trazado 876539" d="M12.929,85.789l27.958,15.688,19.5-10.823L32.667,73.835ZM39.618,97.417,20.839,86.582l13.581-7.856L53.21,89.581Z" transform="translate(13.908 79.424)" fill="#ac8854"/>
          <path id="Trazado_876540" data-name="Trazado 876540" d="M11.418,86.162l31.6,18.254,22.855-13.2-31.6-18.237ZM41.244,98.037,22.465,87.191l13.581-7.838L54.835,90.211Z" transform="translate(12.282 78.505)" fill="#f7dfaf"/>
          <path id="Trazado_876541" data-name="Trazado 876541" d="M27.559,91.431l.419-.062-2.192-6.316Z" transform="translate(27.738 91.49)" fill="#ac8854"/>
          <path id="Trazado_876542" data-name="Trazado 876542" d="M43.366,82.289l-.7-.4-10.329-.606Z" transform="translate(34.783 87.434)" fill="#ac8854"/>
          <path id="Trazado_876543" data-name="Trazado 876543" d="M23.951,79.642l.253-.291-1.777-6.37Z" transform="translate(24.125 78.506)" fill="#ac8854"/>
          <path id="Trazado_876544" data-name="Trazado 876544" d="M22.465,80.361l.646-.241-11.692-.789Z" transform="translate(12.282 85.336)" fill="#ac8854"/>
          <path id="Trazado_876545" data-name="Trazado 876545" d="M.989,92.157l29.047,16.466L50.963,97.008,22,80.149Z" transform="translate(1.064 86.216)" fill="#fa5c52"/>
          <path id="Trazado_876546" data-name="Trazado 876546" d="M0,101.944l31.6,18.249.851-16.487L0,85.934Z" transform="translate(0 92.438)" fill="#d7b37f"/>
          <g id="Grupo_1099823" data-name="Grupo 1099823">
            <g id="Grupo_1099822" data-name="Grupo 1099822" clip-path="url(#clip-path-2)">
              <g id="Grupo_1099806" data-name="Grupo 1099806" transform="translate(11.431 186.781)" opacity="0.6">
                <g id="Grupo_1099805" data-name="Grupo 1099805">
                  <g id="Grupo_1099804" data-name="Grupo 1099804" clip-path="url(#clip-path-12)">
                    <path id="Trazado_876547" data-name="Trazado 876547" d="M14.3,100.481,5.507,95.412V89.984L14.3,95.068Z" transform="translate(-5.507 -89.985)" fill="#836e69"/>
                  </g>
                </g>
              </g>
              <g id="Grupo_1099809" data-name="Grupo 1099809" transform="translate(1.279 180.923)" opacity="0.6">
                <g id="Grupo_1099808" data-name="Grupo 1099808">
                  <g id="Grupo_1099807" data-name="Grupo 1099807" clip-path="url(#clip-path-13)">
                    <path id="Trazado_876548" data-name="Trazado 876548" d="M9.407,101.406.617,96.335V87.163L9.407,92.24Z" transform="translate(-0.616 -87.162)" fill="#836e69"/>
                  </g>
                </g>
              </g>
              <g id="Grupo_1099812" data-name="Grupo 1099812" transform="translate(1.279 191.771)" opacity="0.6">
                <g id="Grupo_1099811" data-name="Grupo 1099811">
                  <g id="Grupo_1099810" data-name="Grupo 1099810" clip-path="url(#clip-path-14)">
                    <path id="Trazado_876549" data-name="Trazado 876549" d="M9.407,99.307.617,94.236V92.389l8.791,5.088Z" transform="translate(-0.616 -92.389)" fill="#685750"/>
                  </g>
                </g>
              </g>
              <g id="Grupo_1099815" data-name="Grupo 1099815" transform="translate(11.431 194.127)" opacity="0.6">
                <g id="Grupo_1099814" data-name="Grupo 1099814">
                  <g id="Grupo_1099813" data-name="Grupo 1099813" clip-path="url(#clip-path-15)">
                    <path id="Trazado_876550" data-name="Trazado 876550" d="M14.3,104.014,5.507,98.943v-5.42L14.3,98.6Z" transform="translate(-5.507 -93.524)" fill="#685750"/>
                  </g>
                </g>
              </g>
              <g id="Grupo_1099818" data-name="Grupo 1099818" transform="translate(21.562 192.639)" opacity="0.6">
                <g id="Grupo_1099817" data-name="Grupo 1099817">
                  <g id="Grupo_1099816" data-name="Grupo 1099816" clip-path="url(#clip-path-16)">
                    <path id="Trazado_876551" data-name="Trazado 876551" d="M19.167,103.285l-8.78-5.069V92.807l8.78,5.073Z" transform="translate(-10.388 -92.807)" fill="#836e69"/>
                  </g>
                </g>
              </g>
              <g id="Grupo_1099821" data-name="Grupo 1099821" transform="translate(21.562 199.973)" opacity="0.6">
                <g id="Grupo_1099820" data-name="Grupo 1099820">
                  <g id="Grupo_1099819" data-name="Grupo 1099819" clip-path="url(#clip-path-17)">
                    <path id="Trazado_876552" data-name="Trazado 876552" d="M19.167,106.841l-8.78-5.075V96.34l8.78,5.085Z" transform="translate(-10.388 -96.341)" fill="#836e69"/>
                  </g>
                </g>
              </g>
            </g>
          </g>
          <path id="Trazado_876553" data-name="Trazado 876553" d="M38.074,104.381v-16L23.675,94.8l-8.452,6.765v16.006Z" transform="translate(16.375 95.067)" fill="#ac8854"/>
          <path id="Trazado_876554" data-name="Trazado 876554" d="M26.343,99.766l-10.331,5.976v-2.923l10.331-5.961Z" transform="translate(17.224 104.19)" fill="#ab281f"/>
          <path id="Trazado_876555" data-name="Trazado 876555" d="M23.672,98.937l-2.4,1.387V97.418l2.4-1.393Z" transform="translate(22.883 103.294)" fill="#362c29"/>
          <path id="Trazado_876556" data-name="Trazado 876556" d="M1.514,92.384l27.958,15.7L48.944,97.264,21.237,80.438ZM28.2,104.022,9.4,93.172,23,85.337,41.776,96.178Z" transform="translate(1.629 86.527)" fill="#ac8854"/>
          <path id="Trazado_876557" data-name="Trazado 876557" d="M11.032,93.8l13.6-7.844L43.4,96.819,29.826,104.65ZM0,92.769l31.6,18.254L54.448,97.84l-31.6-18.26Z" transform="translate(0 85.604)" fill="#f7dfaf"/>
          <path id="Trazado_876558" data-name="Trazado 876558" d="M16.141,98.03l.419-.05-2.192-6.323Z" transform="translate(15.456 98.596)" fill="#ac8854"/>
          <path id="Trazado_876559" data-name="Trazado 876559" d="M31.954,88.89l-.7-.392-10.343-.612Z" transform="translate(22.494 94.538)" fill="#ac8854"/>
          <path id="Trazado_876560" data-name="Trazado 876560" d="M12.525,86.26l.262-.305L11.008,79.58Z" transform="translate(11.841 85.604)" fill="#ac8854"/>
          <path id="Trazado_876561" data-name="Trazado 876561" d="M11.033,86.965l.66-.247L0,85.934Z" transform="translate(0 92.438)" fill="#ac8854"/>
          <path id="Trazado_876562" data-name="Trazado 876562" d="M70.256,106.123,41.279,89.264,20.285,101.291l29.037,16.473Z" transform="translate(21.821 96.021)" fill="#389998"/>
          <path id="Trazado_876563" data-name="Trazado 876563" d="M19.29,111.057,50.89,129.3l.851-16.483L19.29,95.058Z" transform="translate(20.75 102.253)" fill="#d7b37f"/>
          <g id="Grupo_1099843" data-name="Grupo 1099843">
            <g id="Grupo_1099842" data-name="Grupo 1099842" clip-path="url(#clip-path-2)">
              <g id="Grupo_1099826" data-name="Grupo 1099826" transform="translate(51.473 205.711)" opacity="0.6">
                <g id="Grupo_1099825" data-name="Grupo 1099825">
                  <g id="Grupo_1099824" data-name="Grupo 1099824" clip-path="url(#clip-path-19)">
                    <path id="Trazado_876564" data-name="Trazado 876564" d="M33.593,109.6,24.8,104.524V99.1l8.795,5.077Z" transform="translate(-24.798 -99.105)" fill="#836e69"/>
                  </g>
                </g>
              </g>
              <g id="Grupo_1099829" data-name="Grupo 1099829" transform="translate(41.321 199.849)" opacity="0.6">
                <g id="Grupo_1099828" data-name="Grupo 1099828">
                  <g id="Grupo_1099827" data-name="Grupo 1099827" clip-path="url(#clip-path-20)">
                    <path id="Trazado_876565" data-name="Trazado 876565" d="M28.7,110.522l-8.791-5.075V96.281l8.791,5.077Z" transform="translate(-19.907 -96.28)" fill="#836e69"/>
                  </g>
                </g>
              </g>
              <g id="Grupo_1099832" data-name="Grupo 1099832" transform="translate(41.321 210.706)" opacity="0.6">
                <g id="Grupo_1099831" data-name="Grupo 1099831">
                  <g id="Grupo_1099830" data-name="Grupo 1099830" clip-path="url(#clip-path-14)">
                    <path id="Trazado_876566" data-name="Trazado 876566" d="M28.7,108.429l-8.791-5.073v-1.845l8.791,5.083Z" transform="translate(-19.907 -101.511)" fill="#685750"/>
                  </g>
                </g>
              </g>
              <g id="Grupo_1099835" data-name="Grupo 1099835" transform="translate(51.473 213.057)" opacity="0.6">
                <g id="Grupo_1099834" data-name="Grupo 1099834">
                  <g id="Grupo_1099833" data-name="Grupo 1099833" clip-path="url(#clip-path-22)">
                    <path id="Trazado_876567" data-name="Trazado 876567" d="M33.593,113.132,24.8,108.057v-5.413l8.795,5.069Z" transform="translate(-24.798 -102.644)" fill="#685750"/>
                  </g>
                </g>
              </g>
              <g id="Grupo_1099838" data-name="Grupo 1099838" transform="translate(61.604 211.555)" opacity="0.6">
                <g id="Grupo_1099837" data-name="Grupo 1099837">
                  <g id="Grupo_1099836" data-name="Grupo 1099836" clip-path="url(#clip-path-12)">
                    <path id="Trazado_876568" data-name="Trazado 876568" d="M38.468,112.417l-8.788-5.071V101.92L38.468,107Z" transform="translate(-29.678 -101.921)" fill="#836e69"/>
                  </g>
                </g>
              </g>
              <g id="Grupo_1099841" data-name="Grupo 1099841" transform="translate(61.604 218.897)" opacity="0.6">
                <g id="Grupo_1099840" data-name="Grupo 1099840">
                  <g id="Grupo_1099839" data-name="Grupo 1099839" clip-path="url(#clip-path-24)">
                    <path id="Trazado_876569" data-name="Trazado 876569" d="M38.468,115.956l-8.788-5.071v-5.428l8.788,5.085Z" transform="translate(-29.678 -105.458)" fill="#836e69"/>
                  </g>
                </g>
              </g>
            </g>
          </g>
          <path id="Trazado_876570" data-name="Trazado 876570" d="M42.967,103.918l-8.452,6.773v15.993l22.86-13.174V97.492Z" transform="translate(37.127 104.871)" fill="#ac8854"/>
          <path id="Trazado_876571" data-name="Trazado 876571" d="M45.644,108.893,35.3,114.858V111.94l10.341-5.963Z" transform="translate(37.975 113.998)" fill="#ab281f"/>
          <path id="Trazado_876572" data-name="Trazado 876572" d="M42.976,108.052l-2.412,1.382v-2.9l2.412-1.384Z" transform="translate(43.634 113.107)" fill="#362c29"/>
          <path id="Trazado_876573" data-name="Trazado 876573" d="M20.808,101.5l27.951,15.7L68.244,106.38,40.529,89.561Zm26.683,11.647L28.7,102.291l13.587-7.84L61.07,105.293Z" transform="translate(22.383 96.34)" fill="#ac8854"/>
          <path id="Trazado_876574" data-name="Trazado 876574" d="M19.29,101.9l31.6,18.252,22.86-13.2L42.139,88.7Zm29.834,11.877L30.331,102.928l13.587-7.85L62.7,105.938Z" transform="translate(20.75 95.415)" fill="#f7dfaf"/>
          <path id="Trazado_876575" data-name="Trazado 876575" d="M35.429,107.154l.423-.06-2.19-6.314Z" transform="translate(36.211 108.408)" fill="#ac8854"/>
          <path id="Trazado_876576" data-name="Trazado 876576" d="M51.243,98.017l-.689-.407L40.2,97Z" transform="translate(43.248 104.346)" fill="#ac8854"/>
          <path id="Trazado_876577" data-name="Trazado 876577" d="M31.826,95.37l.253-.291L30.3,88.7Z" transform="translate(32.591 95.414)" fill="#ac8854"/>
          <path id="Trazado_876578" data-name="Trazado 876578" d="M30.332,96.09l.658-.259-11.7-.772Z" transform="translate(20.75 102.253)" fill="#ac8854"/>
          <path id="Trazado_876579" data-name="Trazado 876579" d="M.989,84.145,30.036,100.61,50.963,89,22,72.135Z" transform="translate(1.064 77.595)" fill="#389998"/>
          <path id="Trazado_876580" data-name="Trazado 876580" d="M0,93.931l31.6,18.245.851-16.483L0,77.921Z" transform="translate(0 83.819)" fill="#d7b37f"/>
          <g id="Grupo_1099863" data-name="Grupo 1099863">
            <g id="Grupo_1099862" data-name="Grupo 1099862" clip-path="url(#clip-path-2)">
              <g id="Grupo_1099846" data-name="Grupo 1099846" transform="translate(11.431 170.147)" opacity="0.6">
                <g id="Grupo_1099845" data-name="Grupo 1099845">
                  <g id="Grupo_1099844" data-name="Grupo 1099844" clip-path="url(#clip-path-24)">
                    <path id="Trazado_876581" data-name="Trazado 876581" d="M14.3,92.47,5.507,87.4V81.971L14.3,87.052Z" transform="translate(-5.507 -81.972)" fill="#836e69"/>
                  </g>
                </g>
              </g>
              <g id="Grupo_1099849" data-name="Grupo 1099849" transform="translate(1.279 164.291)" opacity="0.6">
                <g id="Grupo_1099848" data-name="Grupo 1099848">
                  <g id="Grupo_1099847" data-name="Grupo 1099847" clip-path="url(#clip-path-27)">
                    <path id="Trazado_876582" data-name="Trazado 876582" d="M9.407,93.4.617,88.322V79.15l8.791,5.073Z" transform="translate(-0.616 -79.15)" fill="#836e69"/>
                  </g>
                </g>
              </g>
              <g id="Grupo_1099852" data-name="Grupo 1099852" transform="translate(1.279 175.139)" opacity="0.6">
                <g id="Grupo_1099851" data-name="Grupo 1099851">
                  <g id="Grupo_1099850" data-name="Grupo 1099850" clip-path="url(#clip-path-28)">
                    <path id="Trazado_876583" data-name="Trazado 876583" d="M9.407,91.293.617,86.224V84.376l8.791,5.09Z" transform="translate(-0.616 -84.376)" fill="#685750"/>
                  </g>
                </g>
              </g>
              <g id="Grupo_1099855" data-name="Grupo 1099855" transform="translate(11.431 177.495)" opacity="0.6">
                <g id="Grupo_1099854" data-name="Grupo 1099854">
                  <g id="Grupo_1099853" data-name="Grupo 1099853" clip-path="url(#clip-path-29)">
                    <path id="Trazado_876584" data-name="Trazado 876584" d="M14.3,96,5.507,90.928V85.511L14.3,90.584Z" transform="translate(-5.507 -85.511)" fill="#685750"/>
                  </g>
                </g>
              </g>
              <g id="Grupo_1099858" data-name="Grupo 1099858" transform="translate(21.562 176.001)" opacity="0.6">
                <g id="Grupo_1099857" data-name="Grupo 1099857">
                  <g id="Grupo_1099856" data-name="Grupo 1099856" clip-path="url(#clip-path-30)">
                    <path id="Trazado_876585" data-name="Trazado 876585" d="M19.167,95.273,10.387,90.2V84.791l8.78,5.077Z" transform="translate(-10.388 -84.792)" fill="#836e69"/>
                  </g>
                </g>
              </g>
              <g id="Grupo_1099861" data-name="Grupo 1099861" transform="translate(21.562 183.341)" opacity="0.6">
                <g id="Grupo_1099860" data-name="Grupo 1099860">
                  <g id="Grupo_1099859" data-name="Grupo 1099859" clip-path="url(#clip-path-31)">
                    <path id="Trazado_876586" data-name="Trazado 876586" d="M19.167,98.826l-8.78-5.073V88.327l8.78,5.079Z" transform="translate(-10.388 -88.328)" fill="#836e69"/>
                  </g>
                </g>
              </g>
            </g>
          </g>
          <path id="Trazado_876587" data-name="Trazado 876587" d="M38.074,96.37V80.363l-14.4,6.42-8.452,6.767v16Z" transform="translate(16.375 86.445)" fill="#ac8854"/>
          <path id="Trazado_876588" data-name="Trazado 876588" d="M26.343,91.759,16.012,97.73V94.808l10.331-5.963Z" transform="translate(17.224 95.569)" fill="#ab281f"/>
          <path id="Trazado_876589" data-name="Trazado 876589" d="M23.672,90.924l-2.4,1.387v-2.9l2.4-1.395Z" transform="translate(22.883 94.673)" fill="#362c29"/>
          <path id="Trazado_876590" data-name="Trazado 876590" d="M1.514,84.372l27.958,15.7L48.944,89.252,21.237,72.424ZM28.2,96.012,9.4,85.16,23,77.318,41.776,88.164Z" transform="translate(1.629 77.906)" fill="#ac8854"/>
          <path id="Trazado_876591" data-name="Trazado 876591" d="M11.032,85.79l13.6-7.844L43.4,88.806,29.826,96.637ZM0,84.756,31.6,103.01,54.448,89.825l-31.6-18.258Z" transform="translate(0 76.984)" fill="#f7dfaf"/>
          <path id="Trazado_876592" data-name="Trazado 876592" d="M16.141,90.018l.419-.05-2.192-6.323Z" transform="translate(15.456 89.977)" fill="#ac8854"/>
          <path id="Trazado_876593" data-name="Trazado 876593" d="M31.954,80.875l-.7-.39-10.343-.612Z" transform="translate(22.494 85.919)" fill="#ac8854"/>
          <path id="Trazado_876594" data-name="Trazado 876594" d="M12.525,78.24l.262-.293-1.779-6.381Z" transform="translate(11.841 76.984)" fill="#ac8854"/>
          <path id="Trazado_876595" data-name="Trazado 876595" d="M11.033,78.955l.66-.249L0,77.921Z" transform="translate(0 83.819)" fill="#ac8854"/>
        </g>
      </g>
    </g>
  </g>
</svg>
