<svg xmlns="http://www.w3.org/2000/svg" width="212.288" height="214.511" viewBox="0 0 212.288 214.511">
  <g id="Grupo_1100054" data-name="Grupo 1100054" transform="translate(-688.712 -10185.641)">
    <rect id="Rectángulo_401397" data-name="Rectángulo 401397" width="149" height="201" rx="40" transform="translate(703 10192.396)" fill="none" stroke="#0d66bf" stroke-miterlimit="10" stroke-width="3"/>
    <rect id="Rectángulo_19304" data-name="Rectángulo 19304" width="212.288" height="214.511" transform="translate(688.712 10185.641)" fill="none"/>
    <g id="Grupo_1099752" data-name="Grupo 1099752" transform="translate(-1153.909 8835.568)">
      <g id="Grupo_81312" data-name="Grupo 81312" transform="translate(1909.682 1389.584)">
        <path id="Trazado_156548" data-name="Trazado 156548" d="M2014.05,1446.564V1443a32.523,32.523,0,0,0-65.045,0v3.562c-3.444,0-6.235,3.959-6.235,8.84s2.791,8.838,6.235,8.838c.1,0,.2-.013.307-.022a32.514,32.514,0,0,0,64.436,0c.1.008.206.022.3.022,3.451,0,6.242-3.959,6.242-8.838S2017.5,1446.564,2014.05,1446.564Z" transform="translate(-1940.605 -1408.316)" fill="#fff"/>
        <path id="Trazado_156549" data-name="Trazado 156549" d="M1979.831,1492.827a34.783,34.783,0,0,1-34.085-28.3c-3.938-.934-6.836-5.352-6.836-10.819,0-5.187,2.607-9.428,6.235-10.649v-1.753a34.687,34.687,0,0,1,69.375,0v1.752c3.631,1.22,6.241,5.462,6.241,10.65,0,5.466-2.9,9.883-6.837,10.818A34.785,34.785,0,0,1,1979.831,1492.827Zm-32.213-32.467a2.165,2.165,0,0,1,2.143,1.876,30.35,30.35,0,0,0,60.147,0,2.153,2.153,0,0,1,2.328-1.868l.168.015c2.123,0,4.028-3.119,4.028-6.674s-1.905-6.675-4.077-6.675a2.165,2.165,0,0,1-2.164-2.165v-3.562a30.359,30.359,0,0,0-60.717,0v3.562a2.165,2.165,0,0,1-2.164,2.165c-2.168,0-4.07,3.119-4.07,6.675s1.9,6.673,4.07,6.673l.011,0,.119-.011C1947.5,1460.363,1947.559,1460.36,1947.618,1460.36Z" transform="translate(-1938.91 -1406.621)" fill="#ff725d"/>
      </g>
      <g id="Grupo_81313" data-name="Grupo 81313" transform="translate(1872.356 1468.158)">
        <path id="Trazado_156550" data-name="Trazado 156550" d="M2023.021,1591.512c-4.6-17.424-18.363-19.323-18.363-19.323l-37.786-9.017v-12.59a32.49,32.49,0,0,1-29.141,0v12.59l-37.786,9.017s-13.767,1.9-18.376,19.323l-5.354,30.515h152.172Z" transform="translate(-1874.051 -1548.418)" fill="#fff"/>
        <path id="Trazado_156551" data-name="Trazado 156551" d="M2026.692,1622.5H1874.52a2.165,2.165,0,0,1-2.132-2.538l5.354-30.515c.01-.061.023-.12.039-.18,4.744-17.932,18.511-20.645,20.052-20.894l36.038-8.6v-10.881a2.165,2.165,0,0,1,3.139-1.933,30.329,30.329,0,0,0,27.195,0,2.165,2.165,0,0,1,3.137,1.933v10.881l36.037,8.6c1.541.249,15.306,2.962,20.039,20.9.015.059.029.118.039.178l5.365,30.515a2.165,2.165,0,0,1-2.132,2.539Zm-149.595-4.329h147.016l-4.9-27.885c-4.17-15.64-16.049-17.571-16.554-17.645-.062-.01-.135-.023-.2-.037l-37.786-9.017a2.165,2.165,0,0,1-1.662-2.105v-9.266a34.753,34.753,0,0,1-24.812,0v9.264a2.165,2.165,0,0,1-1.662,2.105l-37.786,9.017c-.068.016-.137.029-.206.039-.495.073-12.377,2-16.556,17.645Z" transform="translate(-1872.356 -1546.723)" fill="#ff725d"/>
      </g>
      <g id="Grupo_81316" data-name="Grupo 81316" transform="translate(1918.986 1480.202)">
        <g id="Grupo_81314" data-name="Grupo 81314">
          <path id="Trazado_156552" data-name="Trazado 156552" d="M1973.615,1572.058l-14.255,3.4,16.477,20.063,12.045-14.706Z" transform="translate(-1957.195 -1569.894)" fill="#fff"/>
          <path id="Trazado_156553" data-name="Trazado 156553" d="M1974.141,1596a2.166,2.166,0,0,1-1.673-.791l-16.476-20.063a2.164,2.164,0,0,1,1.17-3.478l14.255-3.4a2.151,2.151,0,0,1,1.635.261l14.266,8.761a2.162,2.162,0,0,1,.542,3.215l-12.044,14.707a2.169,2.169,0,0,1-1.673.793Zm-12.607-20.926,12.6,15.349,8.8-10.747-11.39-6.994Z" transform="translate(-1955.5 -1568.198)" fill="#ff725d"/>
        </g>
        <g id="Grupo_81315" data-name="Grupo 81315" transform="translate(28.521 0.132)">
          <path id="Trazado_156554" data-name="Trazado 156554" d="M2026.431,1572.293l14.176,3.387-16.386,19.949-14.006-14.706Z" transform="translate(-2008.05 -1570.128)" fill="#fff"/>
          <path id="Trazado_156555" data-name="Trazado 156555" d="M2022.526,1596.1a2.165,2.165,0,0,1-1.568-.672l-14.005-14.706a2.164,2.164,0,0,1,.551-3.4l16.216-8.629a2.157,2.157,0,0,1,1.519-.195l14.177,3.387a2.164,2.164,0,0,1,1.17,3.478l-16.387,19.949a2.164,2.164,0,0,1-1.593.789Zm-10.472-16.3,10.352,10.871,12.637-15.385-10.014-2.392Z" transform="translate(-2006.355 -1568.433)" fill="#ff725d"/>
        </g>
      </g>
      <g id="Grupo_81317" data-name="Grupo 81317" transform="translate(1940.04 1487.862)">
        <path id="Trazado_156556" data-name="Trazado 156556" d="M2005.555,1587.68l-7.372,9,7.372,7.771,7.987-8.384Z" transform="translate(-1995.3 -1584.414)" fill="#0d66bf"/>
        <path id="Trazado_156557" data-name="Trazado 156557" d="M2003.294,1605.031l-10.252-10.807,10.133-12.368,11.1,11.65Zm-4.485-11.016,4.492,4.735,4.995-5.243-4.876-5.118Z" transform="translate(-1993.042 -1581.856)" fill="#ff725d"/>
      </g>
      <g id="Grupo_81318" data-name="Grupo 81318" transform="translate(1935.384 1499.997)">
        <path id="Trazado_156558" data-name="Trazado 156558" d="M2005.614,1610.98l-3.814,3.7-3.262-3.442-8.905,37.166h24.95Z" transform="translate(-1986.889 -1606.782)" fill="#0d66bf"/>
        <path id="Trazado_156559" data-name="Trazado 156559" d="M2015.178,1647.282H1984.74l10.475-43.715,4.5,4.749,4.969-4.82Zm-24.951-4.328h19.463l-7.445-31.062-2.659,2.58-2.023-2.134Z" transform="translate(-1984.74 -1603.495)" fill="#ff725d"/>
      </g>
      <g id="Grupo_81325" data-name="Grupo 81325" transform="translate(1907.528 1367.828)">
        <g id="Grupo_81319" data-name="Grupo 81319" transform="translate(36.447)">
          <path id="Trazado_156560" data-name="Trazado 156560" d="M2012.812,1389.785l-1.5-18.1h-5.58l-1.49,18.1Z" transform="translate(-2001.896 -1369.523)" fill="#0d66bf"/>
          <path id="Trazado_156561" data-name="Trazado 156561" d="M2013.323,1390.254h-13.266l1.845-22.427h9.565Zm-8.567-4.328h3.865l-1.138-13.769h-1.594Z" transform="translate(-2000.057 -1367.828)" fill="#ff725d"/>
        </g>
        <g id="Grupo_81320" data-name="Grupo 81320" transform="translate(3.729 2.188)">
          <path id="Trazado_156562" data-name="Trazado 156562" d="M2019.95,1421.326c0-11.99-5.03-24.175-14.847-32.167a35.636,35.636,0,0,0-7.957-4.892l-.819-5.271a33.375,33.375,0,0,0-10.57-2.962l1.29,15.637h-8.566l1.291-15.688A27.231,27.231,0,0,0,1969.2,1379l-.944,5.271a39.391,39.391,0,0,0-20.3,22.865,43.09,43.09,0,0,0-2.375,14.194h74.372" transform="translate(-1943.414 -1373.598)" fill="#fff"/>
          <path id="Trazado_156563" data-name="Trazado 156563" d="M2020.419,1421.622h-78.7v-2.164a45.137,45.137,0,0,1,2.5-14.907,41.551,41.551,0,0,1,20.411-23.626l.922-5.153.853-.505a29.322,29.322,0,0,1,11.482-3.306l2.562-.231-1.308,15.91H1983l-1.312-15.9,2.6.275a35.68,35.68,0,0,1,11.252,3.151l1.052.487.82,5.274a37.693,37.693,0,0,1,7.363,4.688c9.8,7.974,15.645,20.627,15.645,33.844Zm-74.317-4.328h69.931a39.331,39.331,0,0,0-13.992-28.324,33.459,33.459,0,0,0-7.475-4.595l-1.073-.481-.818-5.266a31.726,31.726,0,0,0-6.231-1.916l1.259,15.256h-13.266l1.262-15.348a25.768,25.768,0,0,0-6.253,1.942l-.955,5.332-1.028.472a37.071,37.071,0,0,0-19.161,21.61A40.544,40.544,0,0,0,1946.1,1417.293Z" transform="translate(-1941.719 -1371.729)" fill="#ff725d"/>
        </g>
        <g id="Grupo_81321" data-name="Grupo 81321" transform="translate(54.503 7.255)">
          <rect id="Rectángulo_35707" data-name="Rectángulo 35707" width="4.329" height="18.585" transform="translate(0 0.663) rotate(-8.815)" fill="#ff725d"/>
        </g>
        <g id="Grupo_81322" data-name="Grupo 81322" transform="translate(24.103 7.206)">
          <rect id="Rectángulo_35708" data-name="Rectángulo 35708" width="18.656" height="4.328" transform="translate(0 18.365) rotate(-79.87)" fill="#ff725d"/>
        </g>
        <g id="Grupo_81323" data-name="Grupo 81323" transform="translate(12.431 29.801)">
          <path id="Trazado_156564" data-name="Trazado 156564" d="M1982.674,1435.862h-25.3l-.117-2.04c-.322-5.622,3.592-12.564,3.76-12.856l3.761,2.141a28.573,28.573,0,0,0-3.081,8.428h20.98Z" transform="translate(-1957.235 -1420.965)" fill="#ff725d"/>
        </g>
        <g id="Grupo_81324" data-name="Grupo 81324" transform="translate(0 47.752)">
          <path id="Trazado_156565" data-name="Trazado 156565" d="M2017.444,1456.832h-75.156s-3.387.129-3.358,5.337h81.822C2020.787,1456.961,2017.444,1456.832,2017.444,1456.832Z" transform="translate(-1936.765 -1454.668)" fill="#fff"/>
          <path id="Trazado_156566" data-name="Trazado 156566" d="M2021.206,1462.638h-86.124l-.012-2.153c-.031-5.776,3.546-7.439,5.441-7.511l.082,0,75.239,0c1.881.072,5.427,1.736,5.389,7.514Zm-81.471-4.329h76.834a1.48,1.48,0,0,0-.943-1.006l.123,0h-75.03A1.493,1.493,0,0,0,1939.735,1458.309Z" transform="translate(-1935.069 -1452.973)" fill="#ff725d"/>
        </g>
      </g>
    </g>
  </g>
</svg>
