<svg xmlns="http://www.w3.org/2000/svg" width="212.288" height="214.511" viewBox="0 0 212.288 214.511">
  <g id="Grupo_1100056" data-name="Grupo 1100056" transform="translate(-688.712 -10823.641)">
    <rect id="Rectángulo_401399" data-name="Rectángulo 401399" width="149" height="201" rx="40" transform="translate(703 10830.396)" fill="none" stroke="#0d66bf" stroke-miterlimit="10" stroke-width="3"/>
    <rect id="Rectángulo_19304" data-name="Rectángulo 19304" width="212.288" height="214.511" transform="translate(688.712 10823.641)" fill="none"/>
    <g id="Grupo_1099751" data-name="Grupo 1099751" transform="translate(718.447 10868.531)">
      <g id="Grupo_81307" data-name="Grupo 81307" transform="translate(0 61.223)">
        <g id="Grupo_81304" data-name="Grupo 81304">
          <rect id="Rectángulo_35706" data-name="Rectángulo 35706" width="21.782" height="56.688" transform="translate(1.826 1.826)" fill="#0d66bf"/>
          <path id="Trazado_156540" data-name="Trazado 156540" d="M206.157,1608.171H180.723v-60.339h25.434Zm-21.782-3.652H202.5v-53.036h-18.13Z" transform="translate(-180.723 -1547.832)" fill="#ff725d"/>
        </g>
        <g id="Grupo_81305" data-name="Grupo 81305" transform="translate(7.005 44.03)">
          <path id="Trazado_156541" data-name="Trazado 156541" d="M203.272,1652.524a3.885,3.885,0,1,1,3.888-3.887A3.885,3.885,0,0,1,203.272,1652.524Z" transform="translate(-197.561 -1642.928)" fill="#fff"/>
          <path id="Trazado_156542" data-name="Trazado 156542" d="M201.239,1652.316a5.711,5.711,0,1,1,5.714-5.713A5.718,5.718,0,0,1,201.239,1652.316Zm0-7.769a2.059,2.059,0,1,0,2.063,2.057A2.06,2.06,0,0,0,201.239,1644.547Z" transform="translate(-195.528 -1640.895)" fill="#ff725d"/>
        </g>
        <g id="Grupo_81306" data-name="Grupo 81306" transform="translate(21.782 5.418)">
          <path id="Trazado_156543" data-name="Trazado 156543" d="M322.582,1586.135l37.554-15.53s8.2,5.4-.431,12.946l-62.742,33.985-66.342-15.717V1570.6l32.394-7.339,50.5,14.461s9.067,1.927,9.067,8.407c0,0-.652,8.847-9.067,6.7l-28.055-6.7" transform="translate(-228.795 -1561.382)" fill="#fff"/>
          <path id="Trazado_156544" data-name="Trazado 156544" d="M295.187,1617.375l-68.425-16.21v-34.118l34.273-7.764,50.9,14.575c.866.2,8.254,2.017,10.051,7.609L358.3,1566.45l.808.531c.164.108,4.027,2.7,4.324,7.037.207,3.02-1.326,5.983-4.556,8.809l-.153.134Zm-64.773-19.1,64.259,15.223,61.947-33.554c2.216-1.979,3.282-3.882,3.17-5.657a5.807,5.807,0,0,0-1.99-3.681l-35.6,14.724a10.048,10.048,0,0,1-3.614,6.145c-2.012,1.447-4.553,1.792-7.551,1.027L283,1585.812l.848-3.552,28.055,6.7c1.924.491,3.439.342,4.53-.436,1.853-1.321,2.236-4.119,2.287-4.567-.083-4.849-7.548-6.524-7.624-6.541l-.119-.03-50.05-14.333-30.515,6.913Z" transform="translate(-226.762 -1559.283)" fill="#ff725d"/>
        </g>
      </g>
      <g id="Grupo_81310" data-name="Grupo 81310" transform="translate(42.162)">
        <g id="Grupo_81308" data-name="Grupo 81308">
          <path id="Trazado_156545" data-name="Trazado 156545" d="M338.523,1457.326c0-.885-.048-1.758-.124-2.621l5.835-1.529-2.617-9.995-5.946,1.556a29.17,29.17,0,0,0-4.829-7.115l3.822-4.951-8.18-6.31-3.864,5.01a28.971,28.971,0,0,0-8.065-2.717v-6.367H304.222v6.367a29,29,0,0,0-7.683,2.523l-3.8-5.066-8.267,6.2,3.75,5.008a29.122,29.122,0,0,0-3.779,4.948l-5.8-2.131-3.573,9.7,5.7,2.094a29.124,29.124,0,0,0-.512,5.4c0,.637.028,1.269.067,1.9l-5.777,1.514,2.617,10,5.648-1.481a29.352,29.352,0,0,0,4.82,7.433l-3.515,4.552,8.18,6.313,3.462-4.485a28.962,28.962,0,0,0,8.464,2.924v5.629h10.333v-5.629a29.072,29.072,0,0,0,8.089-2.724l3.389,4.533,8.271-6.193-3.443-4.6a29.416,29.416,0,0,0,3.822-5.234l5.452,2.007,3.567-9.7-5.567-2.049A28.763,28.763,0,0,0,338.523,1457.326Zm-29.134,14.02a14.389,14.389,0,1,1,14.389-14.388A14.39,14.39,0,0,1,309.389,1471.346Z" transform="translate(-272.319 -1420.463)" fill="#0d66bf"/>
          <path id="Trazado_156546" data-name="Trazado 156546" d="M313.9,1491.414H299.915v-5.967a30.707,30.707,0,0,1-6.11-2.109l-3.661,4.743-11.071-8.544,3.729-4.829a31.09,31.09,0,0,1-3.465-5.338l-5.96,1.562-3.541-13.531,6.118-1.6q0-.259-.005-.5a30.741,30.741,0,0,1,.293-4.211l-6-2.2,4.835-13.121,6.138,2.254a31.251,31.251,0,0,1,2.164-2.836l-3.944-5.268,11.188-8.384,4.005,5.345a30.787,30.787,0,0,1,5.281-1.734v-6.7H313.9v6.705a30.8,30.8,0,0,1,5.7,1.918l4.076-5.285,11.072,8.54-4.021,5.209a30.97,30.97,0,0,1,3.424,5.05l6.292-1.647,3.542,13.526-6.141,1.609c.018.425.027.835.027,1.237a30.769,30.769,0,0,1-.2,3.508l5.9,2.172-4.827,13.122-5.755-2.119a31.32,31.32,0,0,1-2.255,3.089l3.652,4.878-11.194,8.382-3.586-4.8a30.866,30.866,0,0,1-5.7,1.919Zm-10.333-3.652h6.681v-5.332l1.5-.269a27.242,27.242,0,0,0,7.582-2.554l1.37-.7,3.216,4.3,5.347-4-3.257-4.349,1.024-1.116a27.578,27.578,0,0,0,3.584-4.909l.768-1.336,5.184,1.908,2.306-6.268-5.271-1.941.247-1.49a27.046,27.046,0,0,0,.364-4.414c0-.761-.038-1.566-.117-2.461l-.135-1.536,5.559-1.456-1.692-6.463-5.635,1.475-.652-1.355a27.353,27.353,0,0,0-4.527-6.67l-1.043-1.133,3.647-4.724-5.288-4.079-3.676,4.766-1.351-.691a27.158,27.158,0,0,0-7.558-2.545l-1.5-.271v-6.067h-6.681v6.068l-1.5.27a27.181,27.181,0,0,0-7.2,2.364l-1.359.669-3.61-4.817-5.345,4.006,3.579,4.781-1.06,1.117a27.389,27.389,0,0,0-3.543,4.638l-.779,1.285-5.5-2.021-2.31,6.27,5.432,2-.287,1.519a27.438,27.438,0,0,0-.48,5.066c0,.521.02,1.089.063,1.785l.093,1.5-5.464,1.432,1.692,6.466,5.373-1.408.635,1.406a27.5,27.5,0,0,0,4.519,6.97l1.007,1.131-3.325,4.3,5.289,4.082,3.287-4.259,1.36.722a27.14,27.14,0,0,0,7.931,2.74l1.5.269Zm3.342-16.624a16.215,16.215,0,1,1,16.215-16.214A16.232,16.232,0,0,1,306.908,1471.138Zm0-28.777a12.563,12.563,0,1,0,12.564,12.563A12.577,12.577,0,0,0,306.908,1442.361Z" transform="translate(-269.837 -1418.43)" fill="#ff725d"/>
        </g>
        <g id="Grupo_81309" data-name="Grupo 81309" transform="translate(14.886 14.31)">
          <path id="Trazado_156547" data-name="Trazado 156547" d="M323.486,1493.044a22.184,22.184,0,1,1,0-44.368v3.652a18.532,18.532,0,1,0,0,37.064Z" transform="translate(-301.301 -1448.676)" fill="#ff725d"/>
        </g>
      </g>
    </g>
  </g>
</svg>
