<svg xmlns="http://www.w3.org/2000/svg" width="212.288" height="214.511" viewBox="0 0 212.288 214.511">
  <g id="Grupo_1100055" data-name="Grupo 1100055" transform="translate(-688.712 -10504.641)">
    <rect id="Rect치ngulo_401398" data-name="Rect치ngulo 401398" width="149" height="201" rx="40" transform="translate(703 10511.396)" fill="none" stroke="#0d66bf" stroke-miterlimit="10" stroke-width="3"/>
    <rect id="Rect치ngulo_19304" data-name="Rect치ngulo 19304" width="212.288" height="214.511" transform="translate(688.712 10504.641)" fill="none"/>
    <g id="Grupo_1099750" data-name="Grupo 1099750" transform="translate(721.949 10533.396)">
      <g id="Grupo_81301" data-name="Grupo 81301" transform="translate(53.055 42.549)">
        <g id="Grupo_81298" data-name="Grupo 81298">
          <path id="Trazado_156533" data-name="Trazado 156533" d="M318.974,929.019a7.531,7.531,0,0,0-.133,1.36v35.709h17.043V930.379a7.068,7.068,0,0,0-.132-1.36,22.6,22.6,0,0,0,.612-41.714v20.732h-18V887.3a22.6,22.6,0,0,0,.613,41.714Z" transform="translate(-302.839 -884.365)" fill="#fff"/>
          <path id="Trazado_156534" data-name="Trazado 156534" d="M335.88,965.069h-20.9V927.432c0-.052,0-.1,0-.154a24.528,24.528,0,0,1,.678-44.687l2.7-1.172v21.745h14.148V881.419l2.7,1.172a24.528,24.528,0,0,1,.678,44.687c0,.052,0,.1,0,.154Zm-17.043-3.855h13.188V927.432a5.108,5.108,0,0,0-.1-.993l-.3-1.564,1.479-.592a20.673,20.673,0,0,0,3.256-36.742v19.477H314.5V887.541a20.674,20.674,0,0,0,3.256,36.742l1.459.584-.278,1.547a5.6,5.6,0,0,0-.1,1.019Z" transform="translate(-300.907 -881.419)" fill="#ff725d"/>
        </g>
        <g id="Grupo_81299" data-name="Grupo 81299" transform="translate(19.78 46.107)">
          <path id="Trazado_156535" data-name="Trazado 156535" d="M349.818,1011.286v-31.46a2.778,2.778,0,0,0-5.447,0v31.46Z" transform="translate(-342.444 -975.67)" fill="#fff"/>
          <path id="Trazado_156536" data-name="Trazado 156536" d="M349.813,1011.281h-9.3V977.894a4.68,4.68,0,0,1,9.3,0Zm-5.447-3.855h1.593V977.894a1.008,1.008,0,0,0-.8-.3.944.944,0,0,0-.8.323Z" transform="translate(-340.512 -973.738)" fill="#ff725d"/>
        </g>
        <g id="Grupo_81300" data-name="Grupo 81300" transform="translate(24.193 24.755)">
          <path id="Trazado_156537" data-name="Trazado 156537" d="M349.8,949.118q-.226,0-.453-.006l.092-3.853A14.619,14.619,0,0,0,364.4,930.986l3.854.092a18.474,18.474,0,0,1-18.45,18.04Z" transform="translate(-349.349 -930.986)" fill="#ff725d"/>
        </g>
      </g>
      <g id="Grupo_81302" data-name="Grupo 81302" transform="translate(0 0)">
        <path id="Trazado_156538" data-name="Trazado 156538" d="M337.333,875.623c0-1.908-.1-3.791-.267-5.654l12.583-3.293L344,845.128l-12.827,3.352a62.918,62.918,0,0,0-10.4-15.345l8.229-10.668-17.634-13.611-8.336,10.8a62.283,62.283,0,0,0-17.381-5.847V800.082H263.38V813.81a62.3,62.3,0,0,0-16.571,5.435l-8.18-10.921-17.837,13.358,8.094,10.8a62.709,62.709,0,0,0-8.149,10.677l-12.513-4.61-7.7,20.906,12.273,4.52a62.8,62.8,0,0,0-1.1,11.651c0,1.375.062,2.737.148,4.095l-12.462,3.258,5.644,21.557,12.184-3.194A62.854,62.854,0,0,0,227.6,917.372l-7.577,9.815L237.661,940.8l7.462-9.665a62.437,62.437,0,0,0,18.256,6.288v12.148h22.276V937.425a62.319,62.319,0,0,0,17.431-5.868l7.32,9.774,17.831-13.356-7.425-9.912a62.875,62.875,0,0,0,8.235-11.286l11.764,4.327,7.7-20.9L336.5,885.781A63.441,63.441,0,0,0,337.333,875.623ZM274.52,917.6a42.773,42.773,0,1,1,42.77-42.773A42.775,42.775,0,0,1,274.52,917.6Z" transform="translate(-197.034 -798.155)" fill="#0d66bf"/>
        <path id="Trazado_156539" data-name="Trazado 156539" d="M285.225,949.569h-26.13V937.086a64.316,64.316,0,0,1-15.783-5.433l-7.66,9.921L214.966,925.6l7.79-10.09a64.7,64.7,0,0,1-8.968-13.832L201.3,904.955l-6.62-25.288,12.8-3.348c-.043-.959-.064-1.817-.064-2.629a64.793,64.793,0,0,1,.849-10.4l-12.571-4.63,9.03-24.523,12.848,4.733a64.87,64.87,0,0,1,6.451-8.454l-8.288-11.054,20.923-15.669,8.389,11.2a64.264,64.264,0,0,1,14.048-4.609V796.223h26.13v14.063a64.158,64.158,0,0,1,14.892,5.012l8.549-11.078,20.685,15.967-8.426,10.924a64.739,64.739,0,0,1,8.926,13.176l13.173-3.442,6.62,25.276-12.889,3.373c.1,1.462.147,2.847.147,4.2a65.3,65.3,0,0,1-.618,8.892l12.342,4.546-9.03,24.516-12.063-4.437a64.931,64.931,0,0,1-6.589,9.03l7.634,10.192L307.661,942.1l-7.514-10.033a64.22,64.22,0,0,1-14.922,5.022Zm-22.276-3.855H281.37V933.88l1.588-.284a60.4,60.4,0,0,0,16.893-5.687l1.446-.74,7.138,9.532,14.746-11.045-7.228-9.65,1.082-1.179a61,61,0,0,0,7.982-10.94l.809-1.414L337.31,906.7l6.366-17.284-11.688-4.306.255-1.567a61.787,61.787,0,0,0,.8-9.85c0-1.726-.085-3.52-.26-5.483l-.144-1.623,12.294-3.217-4.668-17.82-12.5,3.266-.688-1.433A60.977,60.977,0,0,0,317,832.506l-1.1-1.2,8.044-10.428-14.583-11.256-8.136,10.542-1.425-.728a60.33,60.33,0,0,0-16.843-5.666l-1.588-.284V800.078H262.949v13.414l-1.588.284a60.4,60.4,0,0,0-16.059,5.267l-1.435.707-7.983-10.659-14.751,11.046,7.912,10.554-1.118,1.181a60.938,60.938,0,0,0-7.9,10.349l-.823,1.362-12.2-4.494-6.366,17.288,11.994,4.418-.3,1.6a61.194,61.194,0,0,0-1.065,11.294c0,1.152.046,2.415.144,3.973l.1,1.585-12.133,3.171,4.667,17.828,11.9-3.118.669,1.486a60.867,60.867,0,0,0,10.072,15.541l1.064,1.194-7.377,9.556,14.583,11.26,7.277-9.424,1.435.76a60.481,60.481,0,0,0,17.693,6.094l1.588.284Zm9.212-28.118a44.7,44.7,0,1,1,44.7-44.7A44.752,44.752,0,0,1,272.161,917.6Zm0-85.547A40.846,40.846,0,1,0,313,872.895,40.893,40.893,0,0,0,272.161,832.049Z" transform="translate(-194.676 -796.223)" fill="#ff725d"/>
      </g>
    </g>
  </g>
</svg>
