<svg xmlns="http://www.w3.org/2000/svg" xmlns:xlink="http://www.w3.org/1999/xlink" width="55" height="55" viewBox="0 0 55 55">
  <defs>
    <clipPath id="clip-path">
      <rect id="Rectángulo_401176" data-name="Rectángulo 401176" width="55" height="55" transform="translate(452 738)" fill="#fff505"/>
    </clipPath>
  </defs>
  <g id="Enmascarar_grupo_1098708" data-name="Enmascarar grupo 1098708" transform="translate(-452 -738)" clip-path="url(#clip-path)">
    <g id="botella-de-spray" transform="translate(452 738)">
      <path id="Trazado_873660" data-name="Trazado 873660" d="M29.965,23.773v-2.43H17.607v2.43h-1.32a3.313,3.313,0,0,0-3.313,3.313v23.8a3.313,3.313,0,0,0,3.313,3.313h15A3.313,3.313,0,0,0,34.6,50.882v-23.8a3.313,3.313,0,0,0-3.313-3.313Z" fill="#d0f0fe"/>
      <path id="Trazado_873661" data-name="Trazado 873661" d="M31.286,23.773h-1.32v-2.43H27.341v2.43h1.32a3.313,3.313,0,0,1,3.313,3.313v23.8a3.313,3.313,0,0,1-3.313,3.313h2.625A3.313,3.313,0,0,0,34.6,50.882v-23.8A3.313,3.313,0,0,0,31.286,23.773Z" fill="#a6d3e8"/>
      <path id="Trazado_873662" data-name="Trazado 873662" d="M12.975,28.037V50.882a3.313,3.313,0,0,0,3.313,3.313h15A3.313,3.313,0,0,0,34.6,50.882V28.037Z" fill="#e8c778"/>
      <path id="Trazado_873663" data-name="Trazado 873663" d="M31.974,50.882a3.313,3.313,0,0,1-3.313,3.313h2.625A3.313,3.313,0,0,0,34.6,50.882V28.037H31.974V50.882Z" fill="#d99a4a"/>
      <path id="Trazado_873664" data-name="Trazado 873664" d="M28.415,11.762V1.981A1.175,1.175,0,0,0,27.24.806H20.333a1.175,1.175,0,0,0-1.175,1.175v9.782h-.517A1.033,1.033,0,0,0,17.607,12.8v1.973H29.966V12.8a1.033,1.033,0,0,0-1.033-1.033Z" fill="#747693"/>
      <path id="Trazado_873665" data-name="Trazado 873665" d="M28.932,11.762h-.517V1.981A1.175,1.175,0,0,0,27.24.806H24.8A1.175,1.175,0,0,1,25.98,1.981v9.782H26.5A1.033,1.033,0,0,1,27.531,12.8v1.973h2.435V12.8A1.033,1.033,0,0,0,28.932,11.762Z" fill="#545777"/>
      <path id="Trazado_873666" data-name="Trazado 873666" d="M28.415,5.667a2.595,2.595,0,1,0,0,3.221Z" fill="#bcbcce"/>
      <rect id="Rectángulo_401172" data-name="Rectángulo 401172" width="15.984" height="6.574" transform="translate(15.794 14.768)" fill="#747693"/>
      <rect id="Rectángulo_401173" data-name="Rectángulo 401173" width="2.188" height="6.574" transform="translate(29.59 14.768)" fill="#545777"/>
      <rect id="Rectángulo_401174" data-name="Rectángulo 401174" width="15.887" height="15.232" transform="translate(18.712 31.367)" fill="#50d399"/>
      <rect id="Rectángulo_401175" data-name="Rectángulo 401175" width="2.625" height="15.232" transform="translate(31.974 31.367)" fill="#32a873"/>
      <path id="Trazado_873667" data-name="Trazado 873667" d="M31.286,22.967h-.514v-.819h1.008a.806.806,0,0,0,.806-.806V14.768a.806.806,0,0,0-.806-.806H30.771V12.8a1.842,1.842,0,0,0-1.551-1.816v-9A1.983,1.983,0,0,0,27.24,0H20.333a1.983,1.983,0,0,0-1.981,1.981V4.564a.806.806,0,0,0,1.611,0V1.981a.37.37,0,0,1,.369-.369H27.24a.37.37,0,0,1,.369.369V4.106a3.4,3.4,0,1,0,0,6.342v1.314a.806.806,0,0,0,.806.806h.517a.228.228,0,0,1,.228.228v1.167H18.413V12.8a.228.228,0,0,1,.228-.228h.517a.806.806,0,0,0,.806-.806V7.787a.806.806,0,0,0-1.611,0v3.192A1.842,1.842,0,0,0,16.8,12.8v1.167H15.794a.806.806,0,0,0-.806.806v6.574a.806.806,0,0,0,.806.806H16.8v.819h-.514a4.123,4.123,0,0,0-4.118,4.118V30a.806.806,0,0,0,1.611,0V28.843H33.793v1.719H18.712a.806.806,0,0,0-.806.806v3.305a.806.806,0,0,0,1.611,0v-2.5H33.793V45.794H19.517V37.9a.806.806,0,0,0-1.611,0v8.7a.806.806,0,0,0,.806.806H33.793v3.476a2.51,2.51,0,0,1-2.507,2.507h-15a2.51,2.51,0,0,1-2.507-2.507V33.223a.806.806,0,0,0-1.611,0V50.882A4.123,4.123,0,0,0,16.287,55h15A4.123,4.123,0,0,0,35.4,50.882v-23.8A4.123,4.123,0,0,0,31.286,22.967Zm-4.9-13.9a1.789,1.789,0,1,1,1.228-3.089v2.6A1.777,1.777,0,0,1,26.381,9.066Zm3.584,6.508h1.008v4.963H28.839V15.574Zm-5.373,4.963V15.574h2.635v4.963Zm-1.611,0H20.345V15.574h2.635ZM16.6,15.574h2.134v4.963H16.6ZM13.78,27.085a2.51,2.51,0,0,1,2.507-2.507h1.32a.806.806,0,0,0,.806-.806V22.148h4.568v5.084h-9.2Zm10.812.146V22.148H29.16v1.625a.806.806,0,0,0,.806.806h1.32a2.51,2.51,0,0,1,2.507,2.507v.146Z"/>
      <path id="Trazado_873668" data-name="Trazado 873668" d="M27.125,6.968a.812.812,0,0,0-.074-.139.79.79,0,0,0-.1-.123.806.806,0,0,0-1.14,0,.728.728,0,0,0-.1.123.812.812,0,0,0-.074.139.85.85,0,0,0-.046.151.771.771,0,0,0-.016.157.789.789,0,0,0,.016.158.816.816,0,0,0,.12.289.732.732,0,0,0,.1.123.788.788,0,0,0,.122.1.81.81,0,0,0,.29.12.862.862,0,0,0,.157.015.812.812,0,0,0,.57-.236.785.785,0,0,0,.1-.123.816.816,0,0,0,.12-.289.873.873,0,0,0,.015-.158.789.789,0,0,0-.061-.308Z"/>
      <path id="Trazado_873669" data-name="Trazado 873669" d="M33.448,7.282a.806.806,0,0,0,.806.806h.083a.806.806,0,0,0,0-1.611h-.083A.806.806,0,0,0,33.448,7.282Z"/>
      <path id="Trazado_873670" data-name="Trazado 873670" d="M36.9,8.088a.806.806,0,0,0,0-1.611h-.083a.806.806,0,0,0,0,1.611Z"/>
      <path id="Trazado_873671" data-name="Trazado 873671" d="M39.462,6.476H39.38a.806.806,0,1,0,0,1.611h.083a.806.806,0,1,0,0-1.611Z"/>
      <path id="Trazado_873672" data-name="Trazado 873672" d="M42.025,6.476h-.083a.806.806,0,1,0,0,1.611h.083a.806.806,0,1,0,0-1.611Z"/>
      <path id="Trazado_873673" data-name="Trazado 873673" d="M32.716,11.808l.072.037a.806.806,0,0,0,.735-1.434l-.072-.037a.806.806,0,0,0-.735,1.434Z"/>
      <path id="Trazado_873674" data-name="Trazado 873674" d="M35.744,11.551l-.072-.037a.806.806,0,1,0-.737,1.433l.072.037a.806.806,0,0,0,.737-1.433Z"/>
      <path id="Trazado_873675" data-name="Trazado 873675" d="M37.963,12.691l-.072-.037a.806.806,0,0,0-.737,1.433l.072.037a.806.806,0,0,0,.737-1.433Z"/>
      <path id="Trazado_873676" data-name="Trazado 873676" d="M33.126,4.269a.8.8,0,0,0,.367-.089l.072-.037a.806.806,0,0,0-.735-1.434l-.072.037a.806.806,0,0,0,.368,1.523Z"/>
      <path id="Trazado_873677" data-name="Trazado 873677" d="M35.346,3.129a.8.8,0,0,0,.367-.089L35.784,3a.806.806,0,0,0-.736-1.434l-.072.037a.806.806,0,0,0,.368,1.523Z"/>
      <path id="Trazado_873678" data-name="Trazado 873678" d="M37.269.43,37.2.466A.806.806,0,1,0,37.932,1.9L38,1.863A.806.806,0,0,0,37.269.43Z"/>
    </g>
  </g>
</svg>
