<svg xmlns="http://www.w3.org/2000/svg" xmlns:xlink="http://www.w3.org/1999/xlink" width="55" height="55" viewBox="0 0 55 55">
  <defs>
    <clipPath id="clip-path">
      <rect id="Rectángulo_401171" data-name="Rectángulo 401171" width="55" height="55" transform="translate(452 657.587)" fill="#fff505"/>
    </clipPath>
  </defs>
  <g id="Enmascarar_grupo_1098707" data-name="Enmascarar grupo 1098707" transform="translate(-452 -657.587)" clip-path="url(#clip-path)">
    <g id="_Group_3" data-name=" Group 3" transform="translate(450.167 655.754)">
      <path id="Trazado_873650" data-name="Trazado 873650" d="M22.32,7V2.535H41.786V8.11H22.32Z" fill="#fedb41"/>
      <path id="Trazado_873651" data-name="Trazado 873651" d="M40.5,31.2V56.132H16.88V38.658A14.963,14.963,0,0,1,27.627,24.3a5.829,5.829,0,0,0,4.211-5.587V15.248h5.929A47.794,47.794,0,0,1,40.5,31.2ZM35.96,51.262V35.121h-9.6a3.651,3.651,0,0,0-3.651,3.651V51.262Z" fill="#00acea"/>
      <path id="Trazado_873652" data-name="Trazado 873652" d="M36.529,11.9h2.483v3.346H30.64V11.9h5.89Z" fill="#00efd1"/>
      <path id="Trazado_873653" data-name="Trazado 873653" d="M33.123,8.11h3.407V11.9H33.123Z" fill="#00acea"/>
      <path id="Trazado_873654" data-name="Trazado 873654" d="M35.96,35.121V51.262H22.707V38.772a3.651,3.651,0,0,1,3.651-3.651Z" fill="#00efd1"/>
      <path id="Trazado_873655" data-name="Trazado 873655" d="M22.32,3.649V7H20.494a1.742,1.742,0,0,1-1.916-1.673,1.742,1.742,0,0,1,1.916-1.673Z" fill="#00efd1"/>
      <g id="Grupo_1099212" data-name="Grupo 1099212">
        <path id="Trazado_873656" data-name="Trazado 873656" d="M16.88,56.833H40.5a.655.655,0,0,0,.632-.7V31.2A49.382,49.382,0,0,0,38.75,15.927h.262a.637.637,0,0,0,.634-.679V11.9a.631.631,0,0,0-.634-.673H37.24V8.823h4.547a.742.742,0,0,0,.724-.713V2.535a.732.732,0,0,0-.724-.7H22.32a.679.679,0,0,0-.663.7v.445H20.494a2.427,2.427,0,0,0-2.6,2.349,2.427,2.427,0,0,0,2.6,2.349h1.162V8.11a.689.689,0,0,0,.663.713H26.23c-.093,1.26-.626,4.4-3.543,5.824a.682.682,0,0,0,.3,1.3.671.671,0,0,0,.3-.059c3.612-1.759,4.222-5.572,4.318-7.062h4.82v2.406H30.64a.716.716,0,0,0-.733.673v3.346a.721.721,0,0,0,.733.679h.527v2.788a5.181,5.181,0,0,1-3.724,4.927A15.817,15.817,0,0,0,19.364,29.2a15.526,15.526,0,0,0-3.208,9.462V56.132a.732.732,0,0,0,.724.7ZM20.494,6.3c-.735,0-1.228-.385-1.228-.974s.494-.974,1.228-.974h1.162V6.3Zm2.537-3.094h18.1v4.24h-18.1ZM33.8,8.823h2.063v2.406H33.8ZM31.281,12.6h6.99v1.948h-6.99ZM17.531,38.658a14.158,14.158,0,0,1,2.923-8.63,14.421,14.421,0,0,1,7.367-5.066,6.572,6.572,0,0,0,4.721-6.247V15.927H37.29A47.3,47.3,0,0,1,39.76,31.2V55.458H17.531Z" fill="#083863"/>
        <path id="Trazado_873657" data-name="Trazado 873657" d="M35.96,34.49h-9.6A4.312,4.312,0,0,0,22,38.772V51.262a.669.669,0,0,0,.707.644H35.96a.669.669,0,0,0,.707-.644V35.121A.659.659,0,0,0,35.96,34.49Zm-.668,16.042H23.375V38.772a2.936,2.936,0,0,1,2.983-2.907h8.934Z" fill="#083863"/>
        <path id="Trazado_873658" data-name="Trazado 873658" d="M25.245,43.542a.687.687,0,0,0,.688.688h6.8a.688.688,0,0,0,0-1.375h-6.8A.687.687,0,0,0,25.245,43.542Z" fill="#083863"/>
        <path id="Trazado_873659" data-name="Trazado 873659" d="M32.734,45.833H27.27a.688.688,0,0,0,0,1.375h5.464a.687.687,0,1,0,0-1.375Z" fill="#083863"/>
      </g>
    </g>
  </g>
</svg>
