<svg xmlns="http://www.w3.org/2000/svg" xmlns:xlink="http://www.w3.org/1999/xlink" width="55" height="55" viewBox="0 0 55 55">
  <defs>
    <clipPath id="clip-path">
      <rect id="Rectángulo_35047" data-name="Rectángulo 35047" width="55" height="55" transform="translate(600 1390.587)" fill="#fff505"/>
    </clipPath>
  </defs>
  <g id="Enmascarar_grupo_57" data-name="Enmascarar grupo 57" transform="translate(-600 -1390.587)" clip-path="url(#clip-path)">
    <g id="agua" transform="translate(600 1390.587)">
      <path id="Trazado_154416" data-name="Trazado 154416" d="M16.335,16.252l8.61-11.194h5.166l8.611,11.194Z" fill="#baf0ff"/>
      <g id="Grupo_80947" data-name="Grupo 80947">
        <path id="Trazado_154417" data-name="Trazado 154417" d="M24.945,5.059l-8.61,11.194H18.6l8.61-11.194Z" fill="#8adeff"/>
        <path id="Trazado_154418" data-name="Trazado 154418" d="M23.621,6.781l1.325-1.722h5.166l1.325,1.722Z" fill="#8adeff"/>
        <path id="Trazado_154419" data-name="Trazado 154419" d="M38.722,16.252H16.335L17.66,14.53H37.4Z" fill="#8adeff"/>
        <path id="Trazado_154420" data-name="Trazado 154420" d="M38.722,24V16.252H16.335V24a3.444,3.444,0,0,0,3.444,3.444h-.431a3.014,3.014,0,0,0-3.014,3.014h0a3.014,3.014,0,0,0,3.014,3.014,3.014,3.014,0,0,0-3.014,3.014h0A3.014,3.014,0,0,0,19.348,39.5h.431a3.444,3.444,0,0,0-3.444,3.444v6.888a3.444,3.444,0,0,0,3.444,3.444H24.39a3.43,3.43,0,0,0,2.277.861h1.722a3.431,3.431,0,0,0,2.277-.861h4.611a3.444,3.444,0,0,0,3.444-3.444V42.945A3.444,3.444,0,0,0,35.278,39.5h.431a3.014,3.014,0,0,0,3.014-3.014h0a3.014,3.014,0,0,0-3.014-3.014,3.014,3.014,0,0,0,3.014-3.014h0a3.014,3.014,0,0,0-3.014-3.014h-.431A3.444,3.444,0,0,0,38.722,24Z" fill="#8adeff"/>
      </g>
      <g id="Grupo_80948" data-name="Grupo 80948">
        <path id="Trazado_154421" data-name="Trazado 154421" d="M18.487,49.833V42.945A3.444,3.444,0,0,1,21.932,39.5H21.5a3.014,3.014,0,1,1,0-6.027,3.014,3.014,0,1,1,0-6.027h.431A3.444,3.444,0,0,1,18.487,24V16.252H16.335V24a3.444,3.444,0,0,0,3.444,3.444h-.431a3.014,3.014,0,1,0,0,6.027,3.014,3.014,0,1,0,0,6.027h.431a3.444,3.444,0,0,0-3.444,3.444v6.888a3.444,3.444,0,0,0,3.444,3.444h2.153A3.444,3.444,0,0,1,18.487,49.833Z" fill="#2fb6eb"/>
        <path id="Trazado_154422" data-name="Trazado 154422" d="M26.543,53.278H24.39a3.43,3.43,0,0,0,2.277.861h1.722c.072,0,.144,0,.215-.007A3.43,3.43,0,0,1,26.543,53.278Z" fill="#2fb6eb"/>
        <path id="Trazado_154423" data-name="Trazado 154423" d="M35.278,39.5h-15.5a3.444,3.444,0,0,0-3.444,3.444v6.888a3.444,3.444,0,0,0,3.444,3.444H24.39a3.43,3.43,0,0,0,2.277.861h1.722a3.431,3.431,0,0,0,2.277-.861h4.611a3.444,3.444,0,0,0,3.444-3.444V42.945A3.444,3.444,0,0,0,35.278,39.5Z" fill="#2fb6eb"/>
        <path id="Trazado_154424" data-name="Trazado 154424" d="M35.709,33.473H19.348a3.014,3.014,0,0,1-3.014-3.014h0a3.014,3.014,0,0,1,3.014-3.014h16.36a3.014,3.014,0,0,1,3.014,3.014h0A3.014,3.014,0,0,1,35.709,33.473Z" fill="#2fb6eb"/>
      </g>
      <path id="Trazado_154425" data-name="Trazado 154425" d="M18.487,49.833V42.945A3.444,3.444,0,0,1,21.932,39.5H19.779a3.444,3.444,0,0,0-3.444,3.444v6.888a3.444,3.444,0,0,0,3.444,3.444h2.153A3.444,3.444,0,0,1,18.487,49.833Z" fill="#0097c6"/>
      <path id="Trazado_154426" data-name="Trazado 154426" d="M26.543,53.278H24.39a3.43,3.43,0,0,0,2.277.861h1.722c.072,0,.144,0,.215-.007A3.43,3.43,0,0,1,26.543,53.278Z" fill="#00a1d3"/>
      <path id="Trazado_154427" data-name="Trazado 154427" d="M18.487,30.46A3.014,3.014,0,0,1,21.5,27.446H19.349a3.014,3.014,0,0,0,0,6.027H21.5A3.014,3.014,0,0,1,18.487,30.46Z" fill="#0097c6"/>
      <rect id="Rectángulo_35628" data-name="Rectángulo 35628" width="10.333" height="4.305" transform="translate(22.363 0.753)" fill="#ff6243"/>
      <g id="Grupo_80949" data-name="Grupo 80949">
        <rect id="Rectángulo_35629" data-name="Rectángulo 35629" width="1.722" height="4.305" transform="translate(22.363 0.753)" fill="#d80027"/>
        <rect id="Rectángulo_35630" data-name="Rectángulo 35630" width="10.333" height="1.722" transform="translate(22.363 3.337)" fill="#d80027"/>
      </g>
      <path id="Trazado_154428" data-name="Trazado 154428" d="M39.516,36.487a3.809,3.809,0,0,0-1.47-3.014,3.8,3.8,0,0,0-.167-6.135A4.223,4.223,0,0,0,39.476,24V15.978L31.751,5.92h1.7V0H21.5V5.92h1.8L15.474,15.978V24a4.269,4.269,0,0,0,1.648,3.337A3.819,3.819,0,0,0,17,33.474a3.835,3.835,0,0,0,.123,6.135,4.267,4.267,0,0,0-1.647,3.337v6.888a4.349,4.349,0,0,0,4.305,4.305h4.305v-.071A4.276,4.276,0,0,0,26.667,55h1.722a4.275,4.275,0,0,0,2.583-.932v.071h4.305a4.257,4.257,0,0,0,4.2-4.305V42.945a4.221,4.221,0,0,0-1.594-3.337A3.831,3.831,0,0,0,39.516,36.487ZM23.116,4.305V1.614h8.718V4.305ZM25.343,5.92h4.371L37.083,15.5H17.974M35.709,34.334a2.206,2.206,0,0,1,0,4.413H33.556v1.614h1.722a2.549,2.549,0,0,1,2.583,2.583v6.888a2.641,2.641,0,0,1-2.583,2.691H32.251a4.868,4.868,0,0,0,.39-1.83H31.027a2.686,2.686,0,0,1-2.637,2.691H26.667a2.686,2.686,0,0,1-2.637-2.691H22.416a4.87,4.87,0,0,0,.39,1.83H19.779a2.733,2.733,0,0,1-2.691-2.691V42.945a2.641,2.641,0,0,1,2.691-2.583H28.39V38.747H19.349a2.206,2.206,0,1,1,0-4.413H28.39V32.72H19.349a2.206,2.206,0,1,1,0-4.413H28.39V26.693H19.779A2.733,2.733,0,0,1,17.088,24V17.114H37.861V24a2.641,2.641,0,0,1-2.583,2.691H33.556v1.614h2.153a2.206,2.206,0,0,1,0,4.413H33.556v1.614Z"/>
      <g id="Grupo_80950" data-name="Grupo 80950">
        <rect id="Rectángulo_35631" data-name="Rectángulo 35631" width="1.722" height="1.614" transform="translate(21.501 12.001)" fill="#fff"/>
        <rect id="Rectángulo_35632" data-name="Rectángulo 35632" width="1.722" height="1.614" transform="translate(23.224 10.279)" fill="#fff"/>
        <rect id="Rectángulo_35633" data-name="Rectángulo 35633" width="1.722" height="1.614" transform="translate(30.112 32.666)" fill="#fff"/>
        <rect id="Rectángulo_35634" data-name="Rectángulo 35634" width="1.722" height="1.614" transform="translate(30.112 26.639)" fill="#fff"/>
        <rect id="Rectángulo_35635" data-name="Rectángulo 35635" width="1.722" height="1.614" transform="translate(30.112 38.694)" fill="#fff"/>
      </g>
    </g>
  </g>
</svg>
