<svg xmlns="http://www.w3.org/2000/svg" width="1228" height="523.75" viewBox="0 0 1228 523.75">
  <g id="Grupo_1100051" data-name="Grupo 1100051" transform="translate(-180.333 -476)">
    <path id="Trazado_876757" data-name="Trazado 876757" d="M20,0H380a20,20,0,0,1,20,20V35a20,20,0,0,1-20,20H20A20,20,0,0,1,0,35V20A20,20,0,0,1,20,0Z" transform="translate(600.333 476)" fill="#ff725d"/>
    <path id="Trazado_876758" data-name="Trazado 876758" d="M20,0H275a20,20,0,0,1,20,20V35a20,20,0,0,1-20,20H20A20,20,0,0,1,0,35V20A20,20,0,0,1,20,0Z" transform="translate(180.333 621)" fill="#0d66bf"/>
    <path id="Trazado_876759" data-name="Trazado 876759" d="M20,0H170a20,20,0,0,1,20,20V35a20,20,0,0,1-20,20H20A20,20,0,0,1,0,35V20A20,20,0,0,1,20,0Z" transform="translate(285.333 722)" fill="#53bced"/>
    <path id="Trazado_876760" data-name="Trazado 876760" d="M20,0H170a20,20,0,0,1,20,20V35a20,20,0,0,1-20,20H20A20,20,0,0,1,0,35V20A20,20,0,0,1,20,0Z" transform="translate(600.333 722)" fill="#53bced"/>
    <path id="Trazado_876761" data-name="Trazado 876761" d="M20,0H170a20,20,0,0,1,20,20V35a20,20,0,0,1-20,20H20A20,20,0,0,1,0,35V20A20,20,0,0,1,20,0Z" transform="translate(860.333 749.75)" fill="#53bced"/>
    <path id="Trazado_876762" data-name="Trazado 876762" d="M20,0H170a20,20,0,0,1,20,20V35a20,20,0,0,1-20,20H20A20,20,0,0,1,0,35V20A20,20,0,0,1,20,0Z" transform="translate(860.333 814.75)" fill="#53bced"/>
    <path id="Trazado_876763" data-name="Trazado 876763" d="M20,0H170a20,20,0,0,1,20,20V35a20,20,0,0,1-20,20H20A20,20,0,0,1,0,35V20A20,20,0,0,1,20,0Z" transform="translate(860.333 879.75)" fill="#53bced"/>
    <path id="Trazado_876764" data-name="Trazado 876764" d="M20,0H170a20,20,0,0,1,20,20V35a20,20,0,0,1-20,20H20A20,20,0,0,1,0,35V20A20,20,0,0,1,20,0Z" transform="translate(860.333 944.75)" fill="#53bced"/>
    <path id="Trazado_876765" data-name="Trazado 876765" d="M20,0H275a20,20,0,0,1,20,20V62a20,20,0,0,1-20,20H20A20,20,0,0,1,0,62V20A20,20,0,0,1,20,0Z" transform="translate(1078.333 749.75)" fill="#53bced"/>
    <path id="Trazado_876766" data-name="Trazado 876766" d="M20,0H275a20,20,0,0,1,20,20V62a20,20,0,0,1-20,20H20A20,20,0,0,1,0,62V20A20,20,0,0,1,20,0Z" transform="translate(1078.333 841.75)" fill="#53bced"/>
    <path id="Trazado_876767" data-name="Trazado 876767" d="M20,0H170a20,20,0,0,1,20,20V35a20,20,0,0,1-20,20H20A20,20,0,0,1,0,35V20A20,20,0,0,1,20,0Z" transform="translate(285.333 787)" fill="#53bced"/>
    <path id="Trazado_876768" data-name="Trazado 876768" d="M20,0H170a20,20,0,0,1,20,20V35a20,20,0,0,1-20,20H20A20,20,0,0,1,0,35V20A20,20,0,0,1,20,0Z" transform="translate(600.333 787)" fill="#53bced"/>
    <path id="Trazado_876769" data-name="Trazado 876769" d="M20,0H170a20,20,0,0,1,20,20V35a20,20,0,0,1-20,20H20A20,20,0,0,1,0,35V20A20,20,0,0,1,20,0Z" transform="translate(285.333 852)" fill="#53bced"/>
    <path id="Trazado_876770" data-name="Trazado 876770" d="M20,0H170a20,20,0,0,1,20,20V35a20,20,0,0,1-20,20H20A20,20,0,0,1,0,35V20A20,20,0,0,1,20,0Z" transform="translate(600.333 852)" fill="#53bced"/>
    <path id="Trazado_876771" data-name="Trazado 876771" d="M20,0H275a20,20,0,0,1,20,20V35a20,20,0,0,1-20,20H20A20,20,0,0,1,0,35V20A20,20,0,0,1,20,0Z" transform="translate(495.333 621)" fill="#0d66bf"/>
    <path id="Trazado_876772" data-name="Trazado 876772" d="M20,0H275a20,20,0,0,1,20,20V35a20,20,0,0,1-20,20H20A20,20,0,0,1,0,35V20A20,20,0,0,1,20,0Z" transform="translate(1020.333 621)" fill="#0d66bf"/>
    <path id="Trazado_876773" data-name="Trazado 876773" d="M65.231,22V8H69.45V18.7h4.824V22Zm21.563-5.176A5.207,5.207,0,0,1,85.266,20.8a7.061,7.061,0,0,1-8.516.034,5.051,5.051,0,0,1-1.519-3.892,5.214,5.214,0,0,1,.713-2.764,4.636,4.636,0,0,1,2.031-1.8,7.012,7.012,0,0,1,3.037-.625,6.792,6.792,0,0,1,3.081.654,4.763,4.763,0,0,1,2,1.816A4.946,4.946,0,0,1,86.794,16.824Zm-4.219.02q0-2.041-1.562-2.041T79.45,16.941q0,2.256,1.582,2.256Q82.575,19.2,82.575,16.844ZM99.187,20.6a5.685,5.685,0,0,1-1.812,4.487A7.736,7.736,0,0,1,92.087,26.7a11.033,11.033,0,0,1-1.816-.146,5.006,5.006,0,0,1-1.26-.332V22.957a6.284,6.284,0,0,0,2.959.859,3.469,3.469,0,0,0,2.236-.674,2.177,2.177,0,0,0,.84-1.787V20.74h-.039a3.232,3.232,0,0,1-1.235,1.094,3.589,3.589,0,0,1-1.685.41A3.775,3.775,0,0,1,89.03,20.9,5.605,5.605,0,0,1,87.907,17.2a6.627,6.627,0,0,1,.586-2.861,4.465,4.465,0,0,1,1.631-1.909,4.188,4.188,0,0,1,2.3-.669,2.884,2.884,0,0,1,2.578,1.279h.039V12h4.141Zm-4.072-3.887a2.245,2.245,0,0,0-.4-1.4,1.256,1.256,0,0,0-1.05-.518,1.293,1.293,0,0,0-1.123.625,2.951,2.951,0,0,0-.42,1.67,2.89,2.89,0,0,0,.352,1.533,1.214,1.214,0,0,0,1.113.566,1.29,1.29,0,0,0,1.118-.581,2.676,2.676,0,0,0,.405-1.558ZM101.188,22V12h4.16V22Zm2.6-11.582h-2.939l2.92-3.135h3.5Zm11.689,8.262a3.054,3.054,0,0,1-1.294,2.632,6.082,6.082,0,0,1-3.608.933,12.546,12.546,0,0,1-1.665-.137,10.286,10.286,0,0,1-1.616-.332v-2.92a7.958,7.958,0,0,0,3.086.82q1.221,0,1.221-.635a.5.5,0,0,0-.283-.435,10.01,10.01,0,0,0-1.484-.571,4.192,4.192,0,0,1-1.934-1.113,2.647,2.647,0,0,1-.605-1.807,2.883,2.883,0,0,1,1.235-2.456,5.8,5.8,0,0,1,3.472-.9,11.035,11.035,0,0,1,2.773.381v2.8a8.387,8.387,0,0,0-1.348-.439,5.443,5.443,0,0,0-1.23-.176,1.339,1.339,0,0,0-.654.137.421.421,0,0,0-.244.381.531.531,0,0,0,.264.459,4.664,4.664,0,0,0,1.055.42,4.894,4.894,0,0,1,2.2,1.152A2.525,2.525,0,0,1,115.476,18.68Zm8.574,3.184a4.053,4.053,0,0,1-.928.259,8.482,8.482,0,0,1-1.553.122,3.73,3.73,0,0,1-2.72-.957,3.632,3.632,0,0,1-.981-2.725V14.881H116.3V12h1.572V10.037l4.1-1.133V12h2.08v2.881h-2.08v3q0,1.318,1.045,1.318a2.835,2.835,0,0,0,1.035-.215Zm5.7-12.559a1.787,1.787,0,0,1-.64,1.426,2.5,2.5,0,0,1-1.685.547,2.441,2.441,0,0,1-1.665-.566,1.791,1.791,0,0,1-.649-1.406,1.734,1.734,0,0,1,.63-1.392,2.932,2.932,0,0,1,3.369,0A1.723,1.723,0,0,1,129.753,9.3Zm-4.4,12.7V12h4.16V22Zm14.4-.283a3.921,3.921,0,0,1-1.26.381,11.91,11.91,0,0,1-1.982.146,6.1,6.1,0,0,1-2.827-.64,4.667,4.667,0,0,1-1.929-1.792,4.975,4.975,0,0,1-.684-2.588,5.667,5.667,0,0,1,.728-2.944,4.743,4.743,0,0,1,2.075-1.875A7.119,7.119,0,0,1,137,11.756a10.933,10.933,0,0,1,1.753.127,2.678,2.678,0,0,1,1,.293v3.242a2.889,2.889,0,0,0-.9-.43,3.609,3.609,0,0,0-1.084-.186,2.639,2.639,0,0,0-1.851.581,2.114,2.114,0,0,0-.63,1.636,2.075,2.075,0,0,0,.62,1.606,2.419,2.419,0,0,0,1.7.571,4.244,4.244,0,0,0,2.139-.557ZM146.96,22V20.477h-.039a3.272,3.272,0,0,1-3.047,1.768,2.917,2.917,0,0,1-2.217-.84,3.12,3.12,0,0,1-.8-2.246q0-2.949,3.623-3.418l2.48-.322a.946.946,0,0,0-.439-.8,2,2,0,0,0-1.182-.312,7.783,7.783,0,0,0-3.545.957V12.557a9.484,9.484,0,0,1,2.031-.576,11.822,11.822,0,0,1,2.09-.225,5.247,5.247,0,0,1,3.7,1.089,4.853,4.853,0,0,1,1.147,3.638V22ZM144.5,18.6a.922.922,0,0,0,.259.674.987.987,0,0,0,.737.264,1.311,1.311,0,0,0,1.06-.488,1.892,1.892,0,0,0,.405-1.25V17.42l-1.406.2Q144.5,17.791,144.5,18.6Zm21.934,3.115a3.921,3.921,0,0,1-1.26.381,11.91,11.91,0,0,1-1.982.146,6.1,6.1,0,0,1-2.827-.64,4.667,4.667,0,0,1-1.929-1.792,4.975,4.975,0,0,1-.684-2.588,5.667,5.667,0,0,1,.728-2.944,4.743,4.743,0,0,1,2.075-1.875,7.119,7.119,0,0,1,3.125-.649,10.933,10.933,0,0,1,1.753.127,2.678,2.678,0,0,1,1,.293v3.242a2.889,2.889,0,0,0-.9-.43,3.609,3.609,0,0,0-1.084-.186,2.639,2.639,0,0,0-1.851.581,2.114,2.114,0,0,0-.63,1.636,2.075,2.075,0,0,0,.62,1.606,2.419,2.419,0,0,0,1.7.571,4.244,4.244,0,0,0,2.139-.557Zm12.783-4.893a5.207,5.207,0,0,1-1.528,3.975,7.061,7.061,0,0,1-8.516.034,5.051,5.051,0,0,1-1.519-3.892,5.214,5.214,0,0,1,.713-2.764,4.636,4.636,0,0,1,2.031-1.8,7.012,7.012,0,0,1,3.037-.625,6.792,6.792,0,0,1,3.081.654,4.763,4.763,0,0,1,2,1.816A4.946,4.946,0,0,1,179.216,16.824Zm-4.219.02q0-2.041-1.562-2.041t-1.562,2.139q0,2.256,1.582,2.256Q175,19.2,175,16.844ZM193.737,22V16.238a1.838,1.838,0,0,0-.259-1.079.973.973,0,0,0-.845-.356,1.055,1.055,0,0,0-.9.435,1.989,1.989,0,0,0-.322,1.206V22h-4.16V16.336q0-1.533-1.045-1.533a1.106,1.106,0,0,0-.957.444,2.148,2.148,0,0,0-.322,1.274V22h-4.16V12h4.16v1.582h.039a3.224,3.224,0,0,1,.747-.854,4.385,4.385,0,0,1,1.157-.7,3.6,3.6,0,0,1,1.4-.269,3.535,3.535,0,0,1,1.792.42,3.256,3.256,0,0,1,1.216,1.328,3.564,3.564,0,0,1,1.406-1.294,4.191,4.191,0,0,1,1.953-.454,2.939,2.939,0,0,1,2.412,1.025,4.566,4.566,0,0,1,.84,2.959V22Zm9.619-3.818a1.405,1.405,0,0,0,.742,1.011,3.347,3.347,0,0,0,1.68.366A6.917,6.917,0,0,0,208.532,19v2.637a9.9,9.9,0,0,1-3.672.605,5.794,5.794,0,0,1-4.072-1.338,4.753,4.753,0,0,1-1.455-3.682,6.074,6.074,0,0,1,.64-2.842,4.6,4.6,0,0,1,1.895-1.929,5.6,5.6,0,0,1,2.769-.7,5.447,5.447,0,0,1,2.656.605,4.033,4.033,0,0,1,1.675,1.7,5.452,5.452,0,0,1,.571,2.559v1.563Zm2.5-2.178q0-1.729-1.24-1.729a1.049,1.049,0,0,0-.869.474,2.364,2.364,0,0,0-.41,1.255Zm12.637-.439a4,4,0,0,0-1.3-.283q-2.061,0-2.061,2.383V22h-4.16V12h4.16v1.758h.039a3.123,3.123,0,0,1,1.084-1.44,2.785,2.785,0,0,1,1.641-.493,1.409,1.409,0,0,1,.6.117Zm9.443,6.152a3.921,3.921,0,0,1-1.26.381,11.91,11.91,0,0,1-1.982.146,6.1,6.1,0,0,1-2.827-.64,4.667,4.667,0,0,1-1.929-1.792,4.975,4.975,0,0,1-.684-2.588,5.667,5.667,0,0,1,.728-2.944,4.743,4.743,0,0,1,2.075-1.875,7.119,7.119,0,0,1,3.125-.649,10.933,10.933,0,0,1,1.753.127,2.678,2.678,0,0,1,1,.293v3.242a2.889,2.889,0,0,0-.9-.43,3.609,3.609,0,0,0-1.084-.186,2.639,2.639,0,0,0-1.851.581,2.114,2.114,0,0,0-.63,1.636,2.075,2.075,0,0,0,.62,1.606,2.419,2.419,0,0,0,1.7.571,4.244,4.244,0,0,0,2.139-.557ZM234,9.3a1.787,1.787,0,0,1-.64,1.426,2.5,2.5,0,0,1-1.685.547,2.441,2.441,0,0,1-1.665-.566,1.791,1.791,0,0,1-.649-1.406,1.734,1.734,0,0,1,.63-1.392,2.932,2.932,0,0,1,3.369,0A1.723,1.723,0,0,1,234,9.3ZM229.6,22V12h4.16V22Zm11.709,0V20.477h-.039a3.272,3.272,0,0,1-3.047,1.768A2.917,2.917,0,0,1,236,21.4a3.12,3.12,0,0,1-.8-2.246q0-2.949,3.623-3.418l2.48-.322a.946.946,0,0,0-.439-.8,2,2,0,0,0-1.182-.312,7.783,7.783,0,0,0-3.545.957V12.557a9.484,9.484,0,0,1,2.031-.576,11.822,11.822,0,0,1,2.09-.225,5.247,5.247,0,0,1,3.7,1.089,4.853,4.853,0,0,1,1.147,3.638V22Zm-2.461-3.4a.922.922,0,0,0,.259.674.987.987,0,0,0,.737.264,1.311,1.311,0,0,0,1.06-.488,1.892,1.892,0,0,0,.405-1.25V17.42l-1.406.2Q238.845,17.791,238.845,18.6Zm8.135,3.4V7.2h4.16V22Z" transform="translate(642.333 491.5)" fill="#12263f"/>
    <path id="Trazado_876774" data-name="Trazado 876774" d="M54.09,22l-.615-2.578h-4.18L48.631,22H44.07L48.895,8h5.234L58.67,22ZM51.434,11.043h-.1a6.8,6.8,0,0,1-.137.771q-.117.537-1.182,4.609h2.676l-.977-3.809A12.044,12.044,0,0,1,51.434,11.043ZM59.93,22V7.2h4.16V22Zm19.131,0V16.238a1.838,1.838,0,0,0-.259-1.079.973.973,0,0,0-.845-.356,1.055,1.055,0,0,0-.9.435,1.989,1.989,0,0,0-.322,1.206V22h-4.16V16.336q0-1.533-1.045-1.533a1.106,1.106,0,0,0-.957.444,2.148,2.148,0,0,0-.322,1.274V22h-4.16V12h4.16v1.582h.039a3.224,3.224,0,0,1,.747-.854,4.385,4.385,0,0,1,1.157-.7,3.594,3.594,0,0,1,1.4-.269,3.535,3.535,0,0,1,1.792.42A3.256,3.256,0,0,1,76.6,13.5a3.564,3.564,0,0,1,1.406-1.294,4.191,4.191,0,0,1,1.953-.454,2.939,2.939,0,0,1,2.412,1.025,4.566,4.566,0,0,1,.84,2.959V22Zm11.582,0V20.477H90.6a3.272,3.272,0,0,1-3.047,1.768,2.917,2.917,0,0,1-2.217-.84,3.12,3.12,0,0,1-.8-2.246q0-2.949,3.623-3.418l2.48-.322a.946.946,0,0,0-.439-.8,2,2,0,0,0-1.182-.312,7.783,7.783,0,0,0-3.545.957V12.557a9.484,9.484,0,0,1,2.031-.576,11.822,11.822,0,0,1,2.09-.225,5.247,5.247,0,0,1,3.7,1.089,4.853,4.853,0,0,1,1.147,3.638V22Zm-2.461-3.4a.922.922,0,0,0,.259.674.987.987,0,0,0,.737.264,1.311,1.311,0,0,0,1.06-.488,1.892,1.892,0,0,0,.405-1.25V17.42l-1.406.2Q88.182,17.791,88.182,18.6Zm16.377,3.115a3.922,3.922,0,0,1-1.26.381,11.91,11.91,0,0,1-1.982.146,6.1,6.1,0,0,1-2.827-.64,4.667,4.667,0,0,1-1.929-1.792,4.975,4.975,0,0,1-.684-2.588A5.667,5.667,0,0,1,96.6,14.28a4.743,4.743,0,0,1,2.075-1.875,7.119,7.119,0,0,1,3.125-.649,10.933,10.933,0,0,1,1.753.127,2.678,2.678,0,0,1,1,.293v3.242a2.889,2.889,0,0,0-.9-.43,3.609,3.609,0,0,0-1.084-.186,2.639,2.639,0,0,0-1.851.581,2.114,2.114,0,0,0-.63,1.636,2.075,2.075,0,0,0,.62,1.606,2.419,2.419,0,0,0,1.7.571,4.244,4.244,0,0,0,2.139-.557Zm5.244-3.535a1.405,1.405,0,0,0,.742,1.011,3.347,3.347,0,0,0,1.68.366A6.917,6.917,0,0,0,114.979,19v2.637a9.9,9.9,0,0,1-3.672.605,5.794,5.794,0,0,1-4.072-1.338,4.753,4.753,0,0,1-1.455-3.682,6.074,6.074,0,0,1,.64-2.842,4.6,4.6,0,0,1,1.895-1.929,5.6,5.6,0,0,1,2.769-.7,5.447,5.447,0,0,1,2.656.605,4.033,4.033,0,0,1,1.675,1.7,5.452,5.452,0,0,1,.571,2.559v1.563ZM112.3,16q0-1.729-1.24-1.729a1.049,1.049,0,0,0-.869.474,2.364,2.364,0,0,0-.41,1.255Zm11.6,6V16.541a2.427,2.427,0,0,0-.278-1.333,1.017,1.017,0,0,0-.9-.405.978.978,0,0,0-.84.42,1.792,1.792,0,0,0-.3,1.074V22h-4.16V12h4.16v1.563h.039a3.53,3.53,0,0,1,1.338-1.333,3.655,3.655,0,0,1,1.826-.474q3.281,0,3.281,4.141V22Zm11.582,0V20.477h-.039a3.272,3.272,0,0,1-3.047,1.768,2.917,2.917,0,0,1-2.217-.84,3.12,3.12,0,0,1-.8-2.246q0-2.949,3.623-3.418l2.48-.322a.946.946,0,0,0-.439-.8,2,2,0,0,0-1.182-.312,7.783,7.783,0,0,0-3.545.957V12.557a9.484,9.484,0,0,1,2.031-.576,11.822,11.822,0,0,1,2.09-.225,5.247,5.247,0,0,1,3.7,1.089,4.853,4.853,0,0,1,1.147,3.638V22Zm-2.461-3.4a.922.922,0,0,0,.259.674.987.987,0,0,0,.737.264,1.311,1.311,0,0,0,1.06-.488,1.892,1.892,0,0,0,.405-1.25V17.42l-1.406.2Q133.025,17.791,133.025,18.6Zm21.1,3.4V16.238a1.838,1.838,0,0,0-.259-1.079.973.973,0,0,0-.845-.356,1.055,1.055,0,0,0-.9.435,1.989,1.989,0,0,0-.322,1.206V22h-4.16V16.336q0-1.533-1.045-1.533a1.106,1.106,0,0,0-.957.444,2.148,2.148,0,0,0-.322,1.274V22h-4.16V12h4.16v1.582h.039a3.224,3.224,0,0,1,.747-.854,4.385,4.385,0,0,1,1.157-.7,3.6,3.6,0,0,1,1.4-.269,3.535,3.535,0,0,1,1.792.42,3.256,3.256,0,0,1,1.216,1.328,3.564,3.564,0,0,1,1.406-1.294,4.191,4.191,0,0,1,1.953-.454,2.939,2.939,0,0,1,2.412,1.025,4.566,4.566,0,0,1,.84,2.959V22ZM164.568,9.3a1.787,1.787,0,0,1-.64,1.426,2.5,2.5,0,0,1-1.685.547,2.441,2.441,0,0,1-1.665-.566A1.791,1.791,0,0,1,159.93,9.3a1.734,1.734,0,0,1,.63-1.392,2.932,2.932,0,0,1,3.369,0A1.723,1.723,0,0,1,164.568,9.3Zm-4.4,12.7V12h4.16V22Zm9.746-3.818a1.405,1.405,0,0,0,.742,1.011,3.347,3.347,0,0,0,1.68.366A6.917,6.917,0,0,0,175.086,19v2.637a9.9,9.9,0,0,1-3.672.605,5.794,5.794,0,0,1-4.072-1.338,4.753,4.753,0,0,1-1.455-3.682,6.074,6.074,0,0,1,.64-2.842,4.6,4.6,0,0,1,1.895-1.929,5.6,5.6,0,0,1,2.769-.7,5.447,5.447,0,0,1,2.656.605,4.033,4.033,0,0,1,1.675,1.7,5.452,5.452,0,0,1,.571,2.559v1.563ZM172.41,16q0-1.729-1.24-1.729a1.049,1.049,0,0,0-.869.474,2.364,2.364,0,0,0-.41,1.255Zm11.6,6V16.541a2.427,2.427,0,0,0-.278-1.333,1.017,1.017,0,0,0-.9-.405.978.978,0,0,0-.84.42,1.792,1.792,0,0,0-.3,1.074V22h-4.16V12h4.16v1.563h.039a3.53,3.53,0,0,1,1.338-1.333,3.655,3.655,0,0,1,1.826-.474q3.281,0,3.281,4.141V22Zm13.076-.137a4.053,4.053,0,0,1-.928.259,8.482,8.482,0,0,1-1.553.122,3.73,3.73,0,0,1-2.72-.957,3.632,3.632,0,0,1-.981-2.725V14.881h-1.572V12h1.572V10.037l4.1-1.133V12h2.08v2.881h-2.08v3q0,1.318,1.045,1.318a2.835,2.835,0,0,0,1.035-.215Zm12.422-5.039a5.207,5.207,0,0,1-1.528,3.975,7.061,7.061,0,0,1-8.516.034,5.051,5.051,0,0,1-1.519-3.892,5.214,5.214,0,0,1,.713-2.764,4.636,4.636,0,0,1,2.031-1.8,7.012,7.012,0,0,1,3.037-.625,6.792,6.792,0,0,1,3.081.654,4.763,4.763,0,0,1,2,1.816A4.946,4.946,0,0,1,209.51,16.824Zm-4.219.02q0-2.041-1.562-2.041t-1.562,2.139q0,2.256,1.582,2.256Q205.291,19.2,205.291,16.844Z" transform="translate(200.333 636.5)" fill="#fff"/>
    <path id="Trazado_876775" data-name="Trazado 876775" d="M53.96,19H52.2l-2.109-3.533a7.7,7.7,0,0,0-.562-.839,3.207,3.207,0,0,0-.558-.567,1.933,1.933,0,0,0-.615-.321,2.53,2.53,0,0,0-.743-.1H46.4V19H44.925V6.4h3.762a5.361,5.361,0,0,1,1.525.207,3.412,3.412,0,0,1,1.213.628,2.92,2.92,0,0,1,.8,1.05,3.483,3.483,0,0,1,.29,1.472,3.545,3.545,0,0,1-.2,1.208,3.156,3.156,0,0,1-.562.98,3.41,3.41,0,0,1-.879.734,4.487,4.487,0,0,1-1.156.47v.035a2.658,2.658,0,0,1,.549.321,3.023,3.023,0,0,1,.444.426,5.646,5.646,0,0,1,.417.558q.207.312.461.725ZM46.4,7.732V12.3h2a3.039,3.039,0,0,0,1.024-.167,2.37,2.37,0,0,0,.813-.479,2.172,2.172,0,0,0,.536-.765,2.56,2.56,0,0,0,.193-1.015A1.976,1.976,0,0,0,50.317,8.3a2.813,2.813,0,0,0-1.894-.567ZM62.2,14.86H55.85a3.366,3.366,0,0,0,.809,2.32A2.788,2.788,0,0,0,58.785,18a4.422,4.422,0,0,0,2.795-1V18.35a5.224,5.224,0,0,1-3.138.861,3.8,3.8,0,0,1-3-1.226,5.018,5.018,0,0,1-1.09-3.45,4.921,4.921,0,0,1,1.191-3.423A3.819,3.819,0,0,1,58.5,9.789a3.384,3.384,0,0,1,2.733,1.143A4.764,4.764,0,0,1,62.2,14.1Zm-1.477-1.222a2.933,2.933,0,0,0-.6-1.942A2.051,2.051,0,0,0,58.478,11a2.328,2.328,0,0,0-1.731.729,3.31,3.31,0,0,0-.879,1.907Zm9.791,4.948a4.684,4.684,0,0,1-2.461.624,4.074,4.074,0,0,1-3.107-1.252,4.539,4.539,0,0,1-1.182-3.248,4.99,4.99,0,0,1,1.274-3.573,4.458,4.458,0,0,1,3.4-1.349,4.735,4.735,0,0,1,2.092.439v1.477a3.665,3.665,0,0,0-2.145-.7,2.9,2.9,0,0,0-2.263.989,3.752,3.752,0,0,0-.883,2.6,3.573,3.573,0,0,0,.831,2.5A2.863,2.863,0,0,0,68.3,18a3.613,3.613,0,0,0,2.215-.782ZM73.437,7.715a.913.913,0,0,1-.659-.264.89.89,0,0,1-.272-.668.923.923,0,0,1,.932-.94.931.931,0,0,1,.672.268.939.939,0,0,1,0,1.332A.923.923,0,0,1,73.437,7.715ZM74.14,19H72.7V10H74.14Zm4.395-1.3H78.5V19H77.058V5.676H78.5v5.906h.035a3.408,3.408,0,0,1,3.111-1.793A3.3,3.3,0,0,1,84.357,11a4.99,4.99,0,0,1,.98,3.239,5.578,5.578,0,0,1-1.1,3.617,3.658,3.658,0,0,1-3.006,1.358A2.96,2.96,0,0,1,78.534,17.7Zm-.035-3.63v1.257a2.676,2.676,0,0,0,.725,1.894A2.587,2.587,0,0,0,83.118,17a4.6,4.6,0,0,0,.743-2.786,3.629,3.629,0,0,0-.694-2.355A2.3,2.3,0,0,0,81.285,11a2.554,2.554,0,0,0-2.021.875A3.211,3.211,0,0,0,78.5,14.069Zm12.9,5.142a4.175,4.175,0,0,1-3.186-1.261,4.672,4.672,0,0,1-1.191-3.344,4.867,4.867,0,0,1,1.239-3.542,4.455,4.455,0,0,1,3.349-1.274,4.037,4.037,0,0,1,3.142,1.239,4.914,4.914,0,0,1,1.129,3.437,4.835,4.835,0,0,1-1.217,3.45A4.265,4.265,0,0,1,91.4,19.211ZM91.507,11a2.742,2.742,0,0,0-2.2.945,3.88,3.88,0,0,0-.809,2.606,3.67,3.67,0,0,0,.817,2.522A2.778,2.778,0,0,0,91.507,18a2.635,2.635,0,0,0,2.149-.905,3.928,3.928,0,0,0,.751-2.575,4,4,0,0,0-.751-2.6A2.623,2.623,0,0,0,91.507,11Z" transform="translate(310.333 739)" fill="#12263f"/>
    <path id="Trazado_876776" data-name="Trazado 876776" d="M51.271,19h-6.68V6.4h6.4V7.732H46.067v4.192H50.62v1.327H46.067v4.412h5.2Zm9.7,0H59.532V13.867Q59.532,11,57.44,11a2.269,2.269,0,0,0-1.789.813,3.013,3.013,0,0,0-.708,2.052V19H53.5V10h1.441v1.494h.035a3.248,3.248,0,0,1,2.953-1.705,2.753,2.753,0,0,1,2.259.954,4.248,4.248,0,0,1,.782,2.755Zm9.791-9-3.586,9H65.764l-3.41-9h1.582l2.285,6.539a5.869,5.869,0,0,1,.316,1.257h.035a5.943,5.943,0,0,1,.281-1.222L69.244,10Zm7.989,9H77.313V17.594h-.035a3.018,3.018,0,0,1-2.769,1.617,2.959,2.959,0,0,1-2.1-.712,2.466,2.466,0,0,1-.76-1.89q0-2.522,2.971-2.936l2.7-.378Q77.313,11,75.458,11a4.431,4.431,0,0,0-2.936,1.107V10.633a5.577,5.577,0,0,1,3.059-.844q3.173,0,3.173,3.357Zm-1.441-4.553-2.171.3a3.525,3.525,0,0,0-1.512.5,1.432,1.432,0,0,0-.51,1.261,1.374,1.374,0,0,0,.47,1.077A1.817,1.817,0,0,0,74.843,18a2.314,2.314,0,0,0,1.771-.751,2.685,2.685,0,0,0,.7-1.9Zm3.612,4.228V17.128a4.266,4.266,0,0,0,2.593.87q1.9,0,1.9-1.266a1.1,1.1,0,0,0-.163-.611,1.62,1.62,0,0,0-.439-.444,3.383,3.383,0,0,0-.65-.347q-.374-.154-.8-.321a10.357,10.357,0,0,1-1.05-.479,3.173,3.173,0,0,1-.756-.545,2.028,2.028,0,0,1-.457-.69,2.441,2.441,0,0,1-.154-.905,2.15,2.15,0,0,1,.29-1.121,2.572,2.572,0,0,1,.773-.817,3.607,3.607,0,0,1,1.1-.5,4.893,4.893,0,0,1,1.279-.167,5.164,5.164,0,0,1,2.092.4v1.459A4.077,4.077,0,0,0,84.194,11a2.671,2.671,0,0,0-.729.092,1.786,1.786,0,0,0-.558.259,1.2,1.2,0,0,0-.36.4,1.053,1.053,0,0,0-.127.514,1.233,1.233,0,0,0,.127.589,1.3,1.3,0,0,0,.374.422,2.855,2.855,0,0,0,.6.334q.352.149.8.325a11.131,11.131,0,0,1,1.072.47,3.678,3.678,0,0,1,.809.545,2.129,2.129,0,0,1,.514.7,2.254,2.254,0,0,1,.18.94,2.217,2.217,0,0,1-.294,1.16,2.523,2.523,0,0,1-.787.817,3.6,3.6,0,0,1-1.134.483,5.6,5.6,0,0,1-1.345.158A5.106,5.106,0,0,1,80.925,18.675ZM96.341,14.86H89.986a3.366,3.366,0,0,0,.809,2.32A2.788,2.788,0,0,0,92.922,18a4.422,4.422,0,0,0,2.795-1V18.35a5.224,5.224,0,0,1-3.138.861,3.8,3.8,0,0,1-3-1.226,5.018,5.018,0,0,1-1.09-3.45,4.921,4.921,0,0,1,1.191-3.423,3.819,3.819,0,0,1,2.958-1.323,3.384,3.384,0,0,1,2.733,1.143,4.764,4.764,0,0,1,.967,3.173Zm-1.477-1.222a2.933,2.933,0,0,0-.6-1.942A2.051,2.051,0,0,0,92.614,11a2.328,2.328,0,0,0-1.731.729A3.31,3.31,0,0,0,90,13.639Z" transform="translate(625.333 739)" fill="#12263f"/>
    <path id="Trazado_876777" data-name="Trazado 876777" d="M29.126,13.9q0,5.309-4.79,5.309-4.588,0-4.588-5.106V6.4h1.477v7.611q0,3.876,3.27,3.876,3.155,0,3.155-3.744V6.4h1.477ZM39.55,19H38.109V13.867Q38.109,11,36.017,11a2.269,2.269,0,0,0-1.789.813,3.013,3.013,0,0,0-.708,2.052V19H32.08V10h1.441v1.494h.035a3.248,3.248,0,0,1,2.953-1.705,2.753,2.753,0,0,1,2.259.954A4.248,4.248,0,0,1,39.55,13.5ZM43,7.715a.913.913,0,0,1-.659-.264.89.89,0,0,1-.272-.668A.923.923,0,0,1,43,5.843a.931.931,0,0,1,.672.268.939.939,0,0,1,0,1.332A.923.923,0,0,1,43,7.715ZM43.708,19H42.266V10h1.441Zm7.093-.088a2.779,2.779,0,0,1-1.345.281q-2.364,0-2.364-2.637V11.23H45.544V10h1.547V7.8l1.441-.466V10H50.8v1.23H48.533V16.3a2.1,2.1,0,0,0,.308,1.292,1.228,1.228,0,0,0,1.02.387,1.515,1.515,0,0,0,.94-.3ZM59.167,19H57.726V17.594h-.035a3.018,3.018,0,0,1-2.769,1.617,2.959,2.959,0,0,1-2.1-.712,2.466,2.466,0,0,1-.76-1.89q0-2.522,2.971-2.936l2.7-.378Q57.726,11,55.872,11a4.431,4.431,0,0,0-2.936,1.107V10.633a5.577,5.577,0,0,1,3.059-.844q3.173,0,3.173,3.357Zm-1.441-4.553-2.171.3a3.525,3.525,0,0,0-1.512.5,1.432,1.432,0,0,0-.51,1.261A1.374,1.374,0,0,0,54,17.581,1.817,1.817,0,0,0,55.256,18a2.314,2.314,0,0,0,1.771-.751,2.685,2.685,0,0,0,.7-1.9Zm8.851-2.988a1.763,1.763,0,0,0-1.09-.29,1.839,1.839,0,0,0-1.542.87,4.023,4.023,0,0,0-.62,2.373V19H61.883V10h1.441v1.854h.035a3.143,3.143,0,0,1,.94-1.481,2.144,2.144,0,0,1,1.415-.532,2.353,2.353,0,0,1,.861.123Zm2.3-3.744a.913.913,0,0,1-.659-.264.89.89,0,0,1-.272-.668.923.923,0,0,1,.932-.94.931.931,0,0,1,.672.268.939.939,0,0,1,0,1.332A.923.923,0,0,1,68.879,7.715ZM69.583,19H68.141V10h1.441Zm9.193-8.587L73.45,17.77h5.273V19H71.332v-.448l5.326-7.321H71.833V10h6.943ZM87.082,19H85.64V17.594H85.6a3.018,3.018,0,0,1-2.769,1.617,2.959,2.959,0,0,1-2.1-.712,2.466,2.466,0,0,1-.76-1.89q0-2.522,2.971-2.936l2.7-.378Q85.64,11,83.786,11a4.431,4.431,0,0,0-2.936,1.107V10.633a5.577,5.577,0,0,1,3.059-.844q3.173,0,3.173,3.357ZM85.64,14.447l-2.171.3a3.525,3.525,0,0,0-1.512.5,1.432,1.432,0,0,0-.51,1.261,1.374,1.374,0,0,0,.47,1.077A1.817,1.817,0,0,0,83.17,18a2.314,2.314,0,0,0,1.771-.751,2.685,2.685,0,0,0,.7-1.9Zm10.292,4.14a4.684,4.684,0,0,1-2.461.624,4.074,4.074,0,0,1-3.107-1.252,4.539,4.539,0,0,1-1.182-3.248,4.99,4.99,0,0,1,1.274-3.573,4.458,4.458,0,0,1,3.4-1.349,4.735,4.735,0,0,1,2.092.439v1.477a3.665,3.665,0,0,0-2.145-.7,2.9,2.9,0,0,0-2.263.989,3.752,3.752,0,0,0-.883,2.6,3.573,3.573,0,0,0,.831,2.5A2.863,2.863,0,0,0,93.717,18a3.613,3.613,0,0,0,2.215-.782ZM98.85,7.715a.913.913,0,0,1-.659-.264.89.89,0,0,1-.272-.668.923.923,0,0,1,.932-.94.931.931,0,0,1,.672.268.939.939,0,0,1,0,1.332A.923.923,0,0,1,98.85,7.715ZM99.553,19H98.112V10h1.441Zm6.68.211a4.175,4.175,0,0,1-3.186-1.261,4.672,4.672,0,0,1-1.191-3.344,4.867,4.867,0,0,1,1.239-3.542,4.455,4.455,0,0,1,3.349-1.274,4.037,4.037,0,0,1,3.142,1.239,4.914,4.914,0,0,1,1.129,3.437,4.835,4.835,0,0,1-1.217,3.45A4.265,4.265,0,0,1,106.233,19.211ZM106.338,11a2.742,2.742,0,0,0-2.2.945,3.88,3.88,0,0,0-.809,2.606,3.67,3.67,0,0,0,.817,2.522,2.778,2.778,0,0,0,2.188.923,2.635,2.635,0,0,0,2.149-.905,3.928,3.928,0,0,0,.751-2.575,4,4,0,0,0-.751-2.6A2.623,2.623,0,0,0,106.338,11Zm2.109-5.59-2.3,2.883h-1.116l1.96-2.883ZM120.489,19h-1.441V13.867q0-2.865-2.092-2.865a2.269,2.269,0,0,0-1.789.813,3.013,3.013,0,0,0-.708,2.052V19h-1.441V10h1.441v1.494h.035a3.248,3.248,0,0,1,2.953-1.705,2.753,2.753,0,0,1,2.259.954,4.248,4.248,0,0,1,.782,2.755Z" transform="translate(885.333 766.75)" fill="#12263f"/>
    <path id="Trazado_876778" data-name="Trazado 876778" d="M6.161,19V6.4h3.48Q16.3,6.4,16.3,12.54a6.191,6.191,0,0,1-1.85,4.689A6.863,6.863,0,0,1,9.5,19ZM7.637,7.732v9.932H9.518a5.338,5.338,0,0,0,3.858-1.327,4.975,4.975,0,0,0,1.38-3.762q0-4.843-5.15-4.843ZM25.822,14.86H19.467a3.366,3.366,0,0,0,.809,2.32A2.788,2.788,0,0,0,22.4,18,4.422,4.422,0,0,0,25.2,17V18.35a5.224,5.224,0,0,1-3.138.861,3.8,3.8,0,0,1-3-1.226,5.018,5.018,0,0,1-1.09-3.45,4.921,4.921,0,0,1,1.191-3.423,3.819,3.819,0,0,1,2.958-1.323,3.384,3.384,0,0,1,2.733,1.143,4.764,4.764,0,0,1,.967,3.173Zm-1.477-1.222a2.933,2.933,0,0,0-.6-1.942A2.051,2.051,0,0,0,22.1,11a2.328,2.328,0,0,0-1.731.729,3.31,3.31,0,0,0-.879,1.907Zm3.111,5.036V17.128a4.266,4.266,0,0,0,2.593.87q1.9,0,1.9-1.266a1.1,1.1,0,0,0-.163-.611,1.62,1.62,0,0,0-.439-.444,3.383,3.383,0,0,0-.65-.347q-.374-.154-.8-.321a10.357,10.357,0,0,1-1.05-.479,3.173,3.173,0,0,1-.756-.545,2.028,2.028,0,0,1-.457-.69,2.441,2.441,0,0,1-.154-.905,2.15,2.15,0,0,1,.29-1.121,2.572,2.572,0,0,1,.773-.817,3.607,3.607,0,0,1,1.1-.5,4.893,4.893,0,0,1,1.279-.167,5.164,5.164,0,0,1,2.092.4v1.459A4.077,4.077,0,0,0,30.726,11a2.671,2.671,0,0,0-.729.092,1.786,1.786,0,0,0-.558.259,1.2,1.2,0,0,0-.36.4,1.053,1.053,0,0,0-.127.514,1.233,1.233,0,0,0,.127.589,1.3,1.3,0,0,0,.374.422,2.855,2.855,0,0,0,.6.334q.352.149.8.325a11.131,11.131,0,0,1,1.072.47,3.678,3.678,0,0,1,.809.545,2.129,2.129,0,0,1,.514.7,2.254,2.254,0,0,1,.18.94,2.217,2.217,0,0,1-.294,1.16,2.523,2.523,0,0,1-.787.817,3.6,3.6,0,0,1-1.134.483,5.6,5.6,0,0,1-1.345.158A5.106,5.106,0,0,1,27.457,18.675ZM42.917,19H41.475V17.576H41.44a2.96,2.96,0,0,1-2.777,1.635q-3.217,0-3.217-3.832V10h1.433v5.15q0,2.848,2.18,2.848a2.205,2.205,0,0,0,1.736-.778,2.976,2.976,0,0,0,.681-2.035V10h1.441ZM53.3,19H51.855V13.867Q51.855,11,49.763,11a2.269,2.269,0,0,0-1.789.813,3.013,3.013,0,0,0-.708,2.052V19H45.826V10h1.441v1.494H47.3a3.248,3.248,0,0,1,2.953-1.705,2.753,2.753,0,0,1,2.259.954A4.248,4.248,0,0,1,53.3,13.5ZM56.75,7.715a.913.913,0,0,1-.659-.264.89.89,0,0,1-.272-.668.923.923,0,0,1,.932-.94.931.931,0,0,1,.672.268.939.939,0,0,1,0,1.332A.923.923,0,0,1,56.75,7.715ZM57.454,19H56.012V10h1.441Zm7.093-.088a2.779,2.779,0,0,1-1.345.281q-2.364,0-2.364-2.637V11.23H59.291V10h1.547V7.8l1.441-.466V10h2.268v1.23H62.279V16.3a2.1,2.1,0,0,0,.308,1.292,1.228,1.228,0,0,0,1.02.387,1.515,1.515,0,0,0,.94-.3ZM72.914,19H71.472V17.594h-.035a3.018,3.018,0,0,1-2.769,1.617,2.959,2.959,0,0,1-2.1-.712,2.466,2.466,0,0,1-.76-1.89q0-2.522,2.971-2.936l2.7-.378Q71.472,11,69.618,11a4.431,4.431,0,0,0-2.936,1.107V10.633a5.577,5.577,0,0,1,3.059-.844q3.173,0,3.173,3.357Zm-1.441-4.553-2.171.3a3.525,3.525,0,0,0-1.512.5,1.432,1.432,0,0,0-.51,1.261,1.374,1.374,0,0,0,.47,1.077A1.817,1.817,0,0,0,69,18a2.314,2.314,0,0,0,1.771-.751,2.685,2.685,0,0,0,.7-1.9Zm8.851-2.988a1.763,1.763,0,0,0-1.09-.29,1.839,1.839,0,0,0-1.542.87,4.023,4.023,0,0,0-.62,2.373V19H75.629V10h1.441v1.854h.035a3.143,3.143,0,0,1,.94-1.481,2.144,2.144,0,0,1,1.415-.532,2.353,2.353,0,0,1,.861.123Zm2.3-3.744a.913.913,0,0,1-.659-.264.89.89,0,0,1-.272-.668.923.923,0,0,1,.932-.94.931.931,0,0,1,.672.268.939.939,0,0,1,0,1.332A.923.923,0,0,1,82.625,7.715ZM83.329,19H81.887V10h1.441Zm9.193-8.587L87.2,17.77h5.273V19H85.078v-.448L90.4,11.23H85.579V10h6.943ZM100.828,19H99.386V17.594h-.035a3.018,3.018,0,0,1-2.769,1.617,2.959,2.959,0,0,1-2.1-.712,2.466,2.466,0,0,1-.76-1.89q0-2.522,2.971-2.936l2.7-.378Q99.386,11,97.532,11A4.431,4.431,0,0,0,94.6,12.109V10.633a5.577,5.577,0,0,1,3.059-.844q3.173,0,3.173,3.357Zm-1.441-4.553-2.171.3a3.525,3.525,0,0,0-1.512.5,1.432,1.432,0,0,0-.51,1.261,1.374,1.374,0,0,0,.47,1.077A1.817,1.817,0,0,0,96.917,18a2.314,2.314,0,0,0,1.771-.751,2.685,2.685,0,0,0,.7-1.9Zm10.292,4.14a4.684,4.684,0,0,1-2.461.624,4.074,4.074,0,0,1-3.107-1.252,4.539,4.539,0,0,1-1.182-3.248,4.99,4.99,0,0,1,1.274-3.573,4.458,4.458,0,0,1,3.4-1.349,4.735,4.735,0,0,1,2.092.439v1.477a3.665,3.665,0,0,0-2.145-.7,2.9,2.9,0,0,0-2.263.989,3.752,3.752,0,0,0-.883,2.6,3.573,3.573,0,0,0,.831,2.5,2.863,2.863,0,0,0,2.228.914,3.613,3.613,0,0,0,2.215-.782ZM112.6,7.715a.913.913,0,0,1-.659-.264.89.89,0,0,1-.272-.668.923.923,0,0,1,.932-.94.931.931,0,0,1,.672.268.939.939,0,0,1,0,1.332A.923.923,0,0,1,112.6,7.715ZM113.3,19h-1.441V10H113.3Zm6.68.211a4.175,4.175,0,0,1-3.186-1.261,4.672,4.672,0,0,1-1.191-3.344,4.867,4.867,0,0,1,1.239-3.542,4.455,4.455,0,0,1,3.349-1.274,4.037,4.037,0,0,1,3.142,1.239,4.914,4.914,0,0,1,1.129,3.437,4.835,4.835,0,0,1-1.217,3.45A4.265,4.265,0,0,1,119.979,19.211ZM120.084,11a2.742,2.742,0,0,0-2.2.945,3.88,3.88,0,0,0-.809,2.606,3.67,3.67,0,0,0,.817,2.522,2.778,2.778,0,0,0,2.188.923,2.635,2.635,0,0,0,2.149-.905,3.928,3.928,0,0,0,.751-2.575,4,4,0,0,0-.751-2.6A2.623,2.623,0,0,0,120.084,11Zm2.109-5.59-2.3,2.883h-1.116l1.96-2.883ZM134.235,19h-1.441V13.867Q132.793,11,130.7,11a2.269,2.269,0,0,0-1.789.813,3.013,3.013,0,0,0-.708,2.052V19h-1.441V10h1.441v1.494h.035a3.248,3.248,0,0,1,2.953-1.705,2.753,2.753,0,0,1,2.259.954,4.248,4.248,0,0,1,.782,2.755Z" transform="translate(885.333 831.75)" fill="#12263f"/>
    <path id="Trazado_876779" data-name="Trazado 876779" d="M38.689,19H36.931l-2.109-3.533a7.7,7.7,0,0,0-.562-.839,3.207,3.207,0,0,0-.558-.567,1.933,1.933,0,0,0-.615-.321,2.53,2.53,0,0,0-.743-.1H31.13V19H29.654V6.4h3.762A5.361,5.361,0,0,1,34.94,6.6a3.412,3.412,0,0,1,1.213.628,2.92,2.92,0,0,1,.8,1.05,3.483,3.483,0,0,1,.29,1.472,3.545,3.545,0,0,1-.2,1.208,3.156,3.156,0,0,1-.562.98,3.41,3.41,0,0,1-.879.734,4.487,4.487,0,0,1-1.156.47v.035A2.658,2.658,0,0,1,35,13.5a3.023,3.023,0,0,1,.444.426,5.646,5.646,0,0,1,.417.558q.207.312.461.725ZM31.13,7.732V12.3h2a3.039,3.039,0,0,0,1.024-.167,2.37,2.37,0,0,0,.813-.479,2.172,2.172,0,0,0,.536-.765A2.56,2.56,0,0,0,35.7,9.877,1.976,1.976,0,0,0,35.046,8.3a2.813,2.813,0,0,0-1.894-.567ZM43.461,19.211a4.175,4.175,0,0,1-3.186-1.261,4.672,4.672,0,0,1-1.191-3.344,4.867,4.867,0,0,1,1.239-3.542,4.455,4.455,0,0,1,3.349-1.274,4.037,4.037,0,0,1,3.142,1.239,4.914,4.914,0,0,1,1.129,3.437,4.835,4.835,0,0,1-1.217,3.45A4.265,4.265,0,0,1,43.461,19.211ZM43.567,11a2.742,2.742,0,0,0-2.2.945,3.88,3.88,0,0,0-.809,2.606,3.67,3.67,0,0,0,.817,2.522A2.778,2.778,0,0,0,43.567,18a2.635,2.635,0,0,0,2.149-.905,3.928,3.928,0,0,0,.751-2.575,4,4,0,0,0-.751-2.6A2.623,2.623,0,0,0,43.567,11Zm10.854,7.91a2.779,2.779,0,0,1-1.345.281q-2.364,0-2.364-2.637V11.23H49.166V10h1.547V7.8l1.441-.466V10h2.268v1.23H52.154V16.3a2.1,2.1,0,0,0,.308,1.292,1.228,1.228,0,0,0,1.02.387,1.515,1.515,0,0,0,.94-.3Zm9.2.088H62.182V17.576h-.035a2.96,2.96,0,0,1-2.777,1.635q-3.217,0-3.217-3.832V10h1.433v5.15q0,2.848,2.18,2.848A2.205,2.205,0,0,0,61.5,17.22a2.976,2.976,0,0,0,.681-2.035V10h1.441Zm4.351,0H66.533V5.676h1.441Zm9.36,0H75.893V17.594h-.035a3.018,3.018,0,0,1-2.769,1.617,2.959,2.959,0,0,1-2.1-.712,2.466,2.466,0,0,1-.76-1.89q0-2.522,2.971-2.936l2.7-.378Q75.893,11,74.039,11A4.431,4.431,0,0,0,71.1,12.109V10.633a5.577,5.577,0,0,1,3.059-.844q3.173,0,3.173,3.357Zm-1.441-4.553-2.171.3a3.525,3.525,0,0,0-1.512.5A1.432,1.432,0,0,0,71.7,16.5a1.374,1.374,0,0,0,.47,1.077A1.817,1.817,0,0,0,73.423,18a2.314,2.314,0,0,0,1.771-.751,2.685,2.685,0,0,0,.7-1.9Zm10.292,4.14a4.684,4.684,0,0,1-2.461.624,4.074,4.074,0,0,1-3.107-1.252,4.539,4.539,0,0,1-1.182-3.248,4.99,4.99,0,0,1,1.274-3.573,4.458,4.458,0,0,1,3.4-1.349,4.735,4.735,0,0,1,2.092.439v1.477a3.665,3.665,0,0,0-2.145-.7,2.9,2.9,0,0,0-2.263.989,3.752,3.752,0,0,0-.883,2.6,3.573,3.573,0,0,0,.831,2.5A2.863,2.863,0,0,0,83.97,18a3.613,3.613,0,0,0,2.215-.782ZM89.1,7.715a.913.913,0,0,1-.659-.264.89.89,0,0,1-.272-.668.923.923,0,0,1,.932-.94.931.931,0,0,1,.672.268.939.939,0,0,1,0,1.332A.923.923,0,0,1,89.1,7.715ZM89.806,19H88.365V10h1.441Zm6.68.211A4.175,4.175,0,0,1,93.3,17.95a4.672,4.672,0,0,1-1.191-3.344,4.867,4.867,0,0,1,1.239-3.542A4.455,4.455,0,0,1,96.7,9.789a4.037,4.037,0,0,1,3.142,1.239,4.914,4.914,0,0,1,1.129,3.437,4.835,4.835,0,0,1-1.217,3.45A4.265,4.265,0,0,1,96.486,19.211ZM96.591,11a2.742,2.742,0,0,0-2.2.945,3.88,3.88,0,0,0-.809,2.606,3.67,3.67,0,0,0,.817,2.522A2.778,2.778,0,0,0,96.591,18a2.635,2.635,0,0,0,2.149-.905,3.928,3.928,0,0,0,.751-2.575,4,4,0,0,0-.751-2.6A2.623,2.623,0,0,0,96.591,11ZM98.7,5.412,96.4,8.295H95.282l1.96-2.883ZM110.742,19H109.3V13.867Q109.3,11,107.208,11a2.269,2.269,0,0,0-1.789.813,3.013,3.013,0,0,0-.708,2.052V19h-1.441V10h1.441v1.494h.035A3.248,3.248,0,0,1,107.7,9.789a2.753,2.753,0,0,1,2.259.954,4.248,4.248,0,0,1,.782,2.755Z" transform="translate(885.333 896.75)" fill="#12263f"/>
    <path id="Trazado_876780" data-name="Trazado 876780" d="M46.472,18.473a7.392,7.392,0,0,1-3.48.738,5.613,5.613,0,0,1-4.307-1.731,6.389,6.389,0,0,1-1.617-4.544,6.7,6.7,0,0,1,1.819-4.887A6.175,6.175,0,0,1,43.5,6.186a7.4,7.4,0,0,1,2.971.519V8.277a6.024,6.024,0,0,0-2.988-.756,4.585,4.585,0,0,0-3.52,1.45,5.463,5.463,0,0,0-1.349,3.876,5.2,5.2,0,0,0,1.261,3.669,4.292,4.292,0,0,0,3.309,1.367,6.208,6.208,0,0,0,3.287-.844Zm9.65.527H54.681V17.576h-.035a2.96,2.96,0,0,1-2.777,1.635q-3.217,0-3.217-3.832V10h1.433v5.15q0,2.848,2.18,2.848A2.205,2.205,0,0,0,54,17.22a2.976,2.976,0,0,0,.681-2.035V10h1.441Zm4.386-1.3h-.035V19H59.031V5.676h1.441v5.906h.035a3.408,3.408,0,0,1,3.111-1.793A3.3,3.3,0,0,1,66.331,11a4.99,4.99,0,0,1,.98,3.239,5.578,5.578,0,0,1-1.1,3.617,3.658,3.658,0,0,1-3.006,1.358A2.96,2.96,0,0,1,60.508,17.7Zm-.035-3.63v1.257A2.676,2.676,0,0,0,61.2,17.22,2.587,2.587,0,0,0,65.091,17a4.6,4.6,0,0,0,.743-2.786,3.629,3.629,0,0,0-.694-2.355A2.3,2.3,0,0,0,63.259,11a2.554,2.554,0,0,0-2.021.875A3.211,3.211,0,0,0,60.473,14.069Zm9.879-6.354a.913.913,0,0,1-.659-.264.89.89,0,0,1-.272-.668.923.923,0,0,1,.932-.94.931.931,0,0,1,.672.268.939.939,0,0,1,0,1.332A.923.923,0,0,1,70.352,7.715ZM71.055,19H69.613V10h1.441Zm9.053-.413a4.684,4.684,0,0,1-2.461.624,4.074,4.074,0,0,1-3.107-1.252,4.539,4.539,0,0,1-1.182-3.248,4.99,4.99,0,0,1,1.274-3.573,4.458,4.458,0,0,1,3.4-1.349,4.735,4.735,0,0,1,2.092.439v1.477A3.665,3.665,0,0,0,77.98,11a2.9,2.9,0,0,0-2.263.989,3.752,3.752,0,0,0-.883,2.6,3.573,3.573,0,0,0,.831,2.5A2.863,2.863,0,0,0,77.893,18a3.613,3.613,0,0,0,2.215-.782ZM88.729,19H87.288V17.594h-.035a3.018,3.018,0,0,1-2.769,1.617,2.959,2.959,0,0,1-2.1-.712,2.466,2.466,0,0,1-.76-1.89q0-2.522,2.971-2.936l2.7-.378Q87.288,11,85.434,11A4.431,4.431,0,0,0,82.5,12.109V10.633a5.577,5.577,0,0,1,3.059-.844q3.173,0,3.173,3.357Zm-1.441-4.553-2.171.3a3.525,3.525,0,0,0-1.512.5A1.432,1.432,0,0,0,83.1,16.5a1.374,1.374,0,0,0,.47,1.077A1.817,1.817,0,0,0,84.818,18a2.314,2.314,0,0,0,1.771-.751,2.685,2.685,0,0,0,.7-1.9Zm5.6,4.175a5.641,5.641,0,0,1-.892,3.415,2.99,2.99,0,0,1-2.553,1.2,2.71,2.71,0,0,1-1.2-.281V21.61a2.385,2.385,0,0,0,1.23.4q1.969,0,1.969-3.146V10h1.441Zm-.7-10.907a.913.913,0,0,1-.659-.264.89.89,0,0,1-.272-.668.923.923,0,0,1,.932-.94.931.931,0,0,1,.672.268.939.939,0,0,1,0,1.332A.923.923,0,0,1,92.184,7.715Zm10.854,7.146H96.684a3.366,3.366,0,0,0,.809,2.32A2.788,2.788,0,0,0,99.619,18a4.422,4.422,0,0,0,2.795-1V18.35a5.224,5.224,0,0,1-3.138.861,3.8,3.8,0,0,1-3-1.226,5.018,5.018,0,0,1-1.09-3.45,4.921,4.921,0,0,1,1.191-3.423,3.819,3.819,0,0,1,2.958-1.323,3.384,3.384,0,0,1,2.733,1.143,4.764,4.764,0,0,1,.967,3.173Zm-1.477-1.222a2.933,2.933,0,0,0-.6-1.942A2.051,2.051,0,0,0,99.312,11a2.328,2.328,0,0,0-1.731.729,3.31,3.31,0,0,0-.879,1.907Z" transform="translate(885.333 961.75)" fill="#12263f"/>
    <path id="Trazado_876781" data-name="Trazado 876781" d="M47.075,19V6.4h3.586a3.919,3.919,0,0,1,2.593.8,2.585,2.585,0,0,1,.958,2.083,3.065,3.065,0,0,1-.58,1.863,3.128,3.128,0,0,1-1.6,1.125V12.3a3.206,3.206,0,0,1,2.039.962,2.96,2.96,0,0,1,.765,2.114A3.3,3.3,0,0,1,53.675,18a4.318,4.318,0,0,1-2.927,1ZM48.551,7.732V11.8h1.512a2.871,2.871,0,0,0,1.907-.584,2.035,2.035,0,0,0,.694-1.648q0-1.837-2.417-1.837Zm0,5.4v4.535h2a3,3,0,0,0,2.017-.615,2.107,2.107,0,0,0,.716-1.687q0-2.232-3.041-2.232ZM64.477,19H63.036V17.576H63a2.96,2.96,0,0,1-2.777,1.635q-3.217,0-3.217-3.832V10h1.433v5.15q0,2.848,2.18,2.848a2.205,2.205,0,0,0,1.736-.778,2.976,2.976,0,0,0,.681-2.035V10h1.441ZM74.62,14.86H68.265a3.366,3.366,0,0,0,.809,2.32A2.788,2.788,0,0,0,71.2,18,4.422,4.422,0,0,0,74,17V18.35a5.224,5.224,0,0,1-3.138.861,3.8,3.8,0,0,1-3-1.226,5.018,5.018,0,0,1-1.09-3.45,4.921,4.921,0,0,1,1.191-3.423,3.819,3.819,0,0,1,2.958-1.323,3.384,3.384,0,0,1,2.733,1.143A4.764,4.764,0,0,1,74.62,14.1Zm-1.477-1.222a2.933,2.933,0,0,0-.6-1.942A2.051,2.051,0,0,0,70.893,11a2.328,2.328,0,0,0-1.731.729,3.31,3.31,0,0,0-.879,1.907ZM84.27,19H82.829V13.867Q82.829,11,80.737,11a2.269,2.269,0,0,0-1.789.813,3.013,3.013,0,0,0-.708,2.052V19H76.8V10h1.441v1.494h.035a3.248,3.248,0,0,1,2.953-1.705,2.753,2.753,0,0,1,2.259.954A4.248,4.248,0,0,1,84.27,13.5Zm9.158,0H91.987V17.594h-.035a3.018,3.018,0,0,1-2.769,1.617,2.959,2.959,0,0,1-2.1-.712,2.466,2.466,0,0,1-.76-1.89q0-2.522,2.971-2.936l2.7-.378Q91.987,11,90.132,11A4.431,4.431,0,0,0,87.2,12.109V10.633a5.577,5.577,0,0,1,3.059-.844q3.173,0,3.173,3.357Zm-1.441-4.553-2.171.3a3.525,3.525,0,0,0-1.512.5,1.432,1.432,0,0,0-.51,1.261,1.374,1.374,0,0,0,.47,1.077A1.817,1.817,0,0,0,89.517,18a2.314,2.314,0,0,0,1.771-.751,2.685,2.685,0,0,0,.7-1.9ZM95.6,18.675V17.128a4.266,4.266,0,0,0,2.593.87q1.9,0,1.9-1.266a1.1,1.1,0,0,0-.163-.611,1.62,1.62,0,0,0-.439-.444,3.383,3.383,0,0,0-.65-.347q-.374-.154-.8-.321a10.357,10.357,0,0,1-1.05-.479,3.173,3.173,0,0,1-.756-.545,2.028,2.028,0,0,1-.457-.69,2.441,2.441,0,0,1-.154-.905,2.15,2.15,0,0,1,.29-1.121,2.572,2.572,0,0,1,.773-.817,3.607,3.607,0,0,1,1.1-.5,4.893,4.893,0,0,1,1.279-.167,5.164,5.164,0,0,1,2.092.4v1.459A4.077,4.077,0,0,0,98.869,11a2.671,2.671,0,0,0-.729.092,1.786,1.786,0,0,0-.558.259,1.2,1.2,0,0,0-.36.4,1.053,1.053,0,0,0-.127.514,1.233,1.233,0,0,0,.127.589,1.3,1.3,0,0,0,.374.422,2.855,2.855,0,0,0,.6.334q.352.149.8.325a11.131,11.131,0,0,1,1.072.47,3.678,3.678,0,0,1,.809.545,2.129,2.129,0,0,1,.514.7,2.254,2.254,0,0,1,.18.94,2.217,2.217,0,0,1-.294,1.16,2.523,2.523,0,0,1-.787.817,3.6,3.6,0,0,1-1.134.483,5.6,5.6,0,0,1-1.345.158A5.106,5.106,0,0,1,95.6,18.675Zm14.783-4.438V19h-1.477V6.4h3.463a4.571,4.571,0,0,1,3.133.984,3.515,3.515,0,0,1,1.112,2.777,3.82,3.82,0,0,1-1.235,2.936,4.718,4.718,0,0,1-3.335,1.143Zm0-6.5V12.9h1.547a3.458,3.458,0,0,0,2.333-.7,2.474,2.474,0,0,0,.8-1.973q0-2.5-2.953-2.5Zm13.1,3.727a1.763,1.763,0,0,0-1.09-.29,1.839,1.839,0,0,0-1.542.87,4.023,4.023,0,0,0-.62,2.373V19h-1.441V10h1.441v1.854h.035a3.143,3.143,0,0,1,.94-1.481,2.144,2.144,0,0,1,1.415-.532,2.353,2.353,0,0,1,.861.123ZM131.494,19h-1.441V17.594h-.035a3.018,3.018,0,0,1-2.769,1.617,2.959,2.959,0,0,1-2.1-.712,2.466,2.466,0,0,1-.76-1.89q0-2.522,2.971-2.936l2.7-.378Q130.052,11,128.2,11a4.431,4.431,0,0,0-2.936,1.107V10.633a5.577,5.577,0,0,1,3.059-.844q3.173,0,3.173,3.357Zm-1.441-4.553-2.171.3a3.525,3.525,0,0,0-1.512.5,1.432,1.432,0,0,0-.51,1.261,1.374,1.374,0,0,0,.47,1.077,1.817,1.817,0,0,0,1.252.417,2.314,2.314,0,0,0,1.771-.751,2.685,2.685,0,0,0,.7-1.9Zm.193-9.035-2.3,2.883h-1.116l1.96-2.883Zm10.1,13.175a4.684,4.684,0,0,1-2.461.624,4.074,4.074,0,0,1-3.107-1.252,4.539,4.539,0,0,1-1.182-3.248,4.99,4.99,0,0,1,1.274-3.573,4.458,4.458,0,0,1,3.4-1.349,4.735,4.735,0,0,1,2.092.439v1.477a3.665,3.665,0,0,0-2.145-.7,2.9,2.9,0,0,0-2.263.989,3.752,3.752,0,0,0-.883,2.6,3.573,3.573,0,0,0,.831,2.5,2.863,2.863,0,0,0,2.228.914,3.613,3.613,0,0,0,2.215-.782Zm6.354.325a2.779,2.779,0,0,1-1.345.281q-2.364,0-2.364-2.637V11.23h-1.547V10h1.547V7.8l1.441-.466V10H146.7v1.23h-2.268V16.3a2.1,2.1,0,0,0,.308,1.292,1.228,1.228,0,0,0,1.02.387,1.515,1.515,0,0,0,.94-.3Zm2.663-11.2a.913.913,0,0,1-.659-.264.89.89,0,0,1-.272-.668.923.923,0,0,1,.932-.94.931.931,0,0,1,.672.268.939.939,0,0,1,0,1.332A.923.923,0,0,1,149.362,7.715Zm.7,11.285h-1.441V10h1.441Zm9.053-.413a4.684,4.684,0,0,1-2.461.624,4.074,4.074,0,0,1-3.107-1.252,4.539,4.539,0,0,1-1.182-3.248,4.99,4.99,0,0,1,1.274-3.573,4.458,4.458,0,0,1,3.4-1.349,4.735,4.735,0,0,1,2.092.439v1.477a3.665,3.665,0,0,0-2.145-.7,2.9,2.9,0,0,0-2.263.989,3.752,3.752,0,0,0-.883,2.6,3.573,3.573,0,0,0,.831,2.5A2.863,2.863,0,0,0,156.9,18a3.613,3.613,0,0,0,2.215-.782ZM167.74,19H166.3V17.594h-.035a3.018,3.018,0,0,1-2.769,1.617,2.959,2.959,0,0,1-2.1-.712,2.466,2.466,0,0,1-.76-1.89q0-2.522,2.971-2.936l2.7-.378Q166.3,11,164.444,11a4.431,4.431,0,0,0-2.936,1.107V10.633a5.577,5.577,0,0,1,3.059-.844q3.173,0,3.173,3.357ZM166.3,14.447l-2.171.3a3.525,3.525,0,0,0-1.512.5,1.432,1.432,0,0,0-.51,1.261,1.374,1.374,0,0,0,.47,1.077,1.817,1.817,0,0,0,1.252.417,2.314,2.314,0,0,0,1.771-.751,2.685,2.685,0,0,0,.7-1.9Zm3.612,4.228V17.128A4.266,4.266,0,0,0,172.5,18q1.9,0,1.9-1.266a1.1,1.1,0,0,0-.163-.611,1.62,1.62,0,0,0-.439-.444,3.383,3.383,0,0,0-.65-.347q-.374-.154-.8-.321a10.357,10.357,0,0,1-1.05-.479,3.173,3.173,0,0,1-.756-.545,2.028,2.028,0,0,1-.457-.69,2.441,2.441,0,0,1-.154-.905,2.15,2.15,0,0,1,.29-1.121,2.572,2.572,0,0,1,.773-.817,3.607,3.607,0,0,1,1.1-.5,4.893,4.893,0,0,1,1.279-.167,5.164,5.164,0,0,1,2.092.4v1.459A4.077,4.077,0,0,0,173.18,11a2.671,2.671,0,0,0-.729.092,1.786,1.786,0,0,0-.558.259,1.2,1.2,0,0,0-.36.4,1.053,1.053,0,0,0-.127.514,1.233,1.233,0,0,0,.127.589,1.3,1.3,0,0,0,.374.422,2.855,2.855,0,0,0,.6.334q.352.149.8.325a11.131,11.131,0,0,1,1.072.47,3.678,3.678,0,0,1,.809.545,2.129,2.129,0,0,1,.514.7,2.254,2.254,0,0,1,.18.94,2.217,2.217,0,0,1-.294,1.16,2.523,2.523,0,0,1-.787.817,3.6,3.6,0,0,1-1.134.483,5.6,5.6,0,0,1-1.345.158A5.106,5.106,0,0,1,169.911,18.675ZM190.706,19h-1.441V17.471h-.035a3.327,3.327,0,0,1-3.094,1.74A3.362,3.362,0,0,1,183.424,18a4.958,4.958,0,0,1-1.015-3.292,5.394,5.394,0,0,1,1.125-3.577,3.71,3.71,0,0,1,3-1.345,2.885,2.885,0,0,1,2.7,1.459h.035V5.676h1.441Zm-1.441-4.069V13.6a2.575,2.575,0,0,0-.721-1.846A2.417,2.417,0,0,0,186.715,11a2.489,2.489,0,0,0-2.074.967,4.237,4.237,0,0,0-.756,2.672,3.81,3.81,0,0,0,.725,2.457,2.37,2.37,0,0,0,1.947.9,2.462,2.462,0,0,0,1.956-.87A3.242,3.242,0,0,0,189.264,14.931Zm11.593-.07H194.5a3.366,3.366,0,0,0,.809,2.32,2.788,2.788,0,0,0,2.127.817,4.422,4.422,0,0,0,2.795-1V18.35a5.224,5.224,0,0,1-3.138.861,3.8,3.8,0,0,1-3-1.226,5.018,5.018,0,0,1-1.09-3.45,4.921,4.921,0,0,1,1.191-3.423,3.819,3.819,0,0,1,2.958-1.323,3.384,3.384,0,0,1,2.733,1.143,4.764,4.764,0,0,1,.967,3.173Zm-1.477-1.222a2.933,2.933,0,0,0-.6-1.942A2.051,2.051,0,0,0,197.13,11a2.328,2.328,0,0,0-1.731.729,3.31,3.31,0,0,0-.879,1.907ZM61.572,43H60.1V34.545q0-1,.123-2.452h-.035a7.84,7.84,0,0,1-.378,1.222L55.508,43h-.721l-4.3-9.615a7.533,7.533,0,0,1-.378-1.292h-.035q.07.756.07,2.47V43H48.723V30.4h1.951l3.867,8.789a11.254,11.254,0,0,1,.58,1.512h.053q.378-1.037.606-1.547L59.727,30.4h1.846Zm9.563,0H69.693V41.594h-.035a3.018,3.018,0,0,1-2.769,1.617,2.959,2.959,0,0,1-2.1-.712,2.466,2.466,0,0,1-.76-1.89q0-2.522,2.971-2.936l2.7-.378Q69.693,35,67.839,35A4.431,4.431,0,0,0,64.9,36.109V34.633a5.577,5.577,0,0,1,3.059-.844q3.173,0,3.173,3.357Zm-1.441-4.553-2.171.3a3.525,3.525,0,0,0-1.512.5A1.432,1.432,0,0,0,65.5,40.5a1.374,1.374,0,0,0,.47,1.077A1.817,1.817,0,0,0,67.224,42a2.314,2.314,0,0,0,1.771-.751,2.685,2.685,0,0,0,.7-1.9ZM81.321,43H79.88V37.867Q79.88,35,77.788,35A2.269,2.269,0,0,0,76,35.815a3.013,3.013,0,0,0-.708,2.052V43H73.851V34h1.441v1.494h.035a3.248,3.248,0,0,1,2.953-1.705,2.753,2.753,0,0,1,2.259.954,4.248,4.248,0,0,1,.782,2.755Zm9.993,0H89.873V41.576h-.035a2.96,2.96,0,0,1-2.777,1.635q-3.217,0-3.217-3.832V34h1.433v5.15q0,2.848,2.18,2.848a2.205,2.205,0,0,0,1.736-.778,2.976,2.976,0,0,0,.681-2.035V34h1.441Zm7.356-12.059a1.92,1.92,0,0,0-.958-.237q-1.512,0-1.512,1.907V34h2.109v1.23H96.2V43H94.769V35.23H93.23V34h1.538V32.541a3.032,3.032,0,0,1,.817-2.237,2.759,2.759,0,0,1,2.039-.822,2.824,2.824,0,0,1,1.046.158ZM106.3,43h-1.441V41.594h-.035a3.018,3.018,0,0,1-2.769,1.617,2.959,2.959,0,0,1-2.1-.712,2.466,2.466,0,0,1-.76-1.89q0-2.522,2.971-2.936l2.7-.378Q104.858,35,103,35a4.431,4.431,0,0,0-2.936,1.107V34.633a5.577,5.577,0,0,1,3.059-.844q3.173,0,3.173,3.357Zm-1.441-4.553-2.171.3a3.525,3.525,0,0,0-1.512.5,1.432,1.432,0,0,0-.51,1.261,1.374,1.374,0,0,0,.47,1.077,1.817,1.817,0,0,0,1.252.417,2.314,2.314,0,0,0,1.771-.751,2.685,2.685,0,0,0,.7-1.9Zm10.292,4.14a4.684,4.684,0,0,1-2.461.624,4.074,4.074,0,0,1-3.107-1.252,4.539,4.539,0,0,1-1.182-3.248,4.99,4.99,0,0,1,1.274-3.573,4.458,4.458,0,0,1,3.4-1.349,4.735,4.735,0,0,1,2.092.439v1.477a3.665,3.665,0,0,0-2.145-.7,2.9,2.9,0,0,0-2.263.989,3.752,3.752,0,0,0-.883,2.6,3.573,3.573,0,0,0,.831,2.5,2.863,2.863,0,0,0,2.228.914,3.613,3.613,0,0,0,2.215-.782Zm6.354.325a2.779,2.779,0,0,1-1.345.281q-2.364,0-2.364-2.637V35.23h-1.547V34H117.8V31.8l1.441-.466V34H121.5v1.23h-2.268V40.3a2.1,2.1,0,0,0,.308,1.292,1.228,1.228,0,0,0,1.02.387,1.515,1.515,0,0,0,.94-.3Zm9.2.088h-1.441V41.576h-.035a2.96,2.96,0,0,1-2.777,1.635q-3.217,0-3.217-3.832V34h1.433v5.15q0,2.848,2.18,2.848a2.205,2.205,0,0,0,1.736-.778,2.976,2.976,0,0,0,.681-2.035V34h1.441Zm7.6-7.541a1.763,1.763,0,0,0-1.09-.29,1.839,1.839,0,0,0-1.542.87,4.023,4.023,0,0,0-.62,2.373V43h-1.441V34h1.441v1.854h.035a3.143,3.143,0,0,1,.94-1.481,2.144,2.144,0,0,1,1.415-.532,2.353,2.353,0,0,1,.861.123ZM146.316,43h-1.441V41.594h-.035a3.018,3.018,0,0,1-2.769,1.617,2.959,2.959,0,0,1-2.1-.712,2.466,2.466,0,0,1-.76-1.89q0-2.522,2.971-2.936l2.7-.378q0-2.294-1.854-2.294a4.431,4.431,0,0,0-2.936,1.107V34.633a5.577,5.577,0,0,1,3.059-.844q3.173,0,3.173,3.357Zm-1.441-4.553-2.171.3a3.525,3.525,0,0,0-1.512.5,1.432,1.432,0,0,0-.51,1.261,1.374,1.374,0,0,0,.47,1.077,1.817,1.817,0,0,0,1.252.417,2.314,2.314,0,0,0,1.771-.751,2.685,2.685,0,0,0,.7-1.9Zm12.867,7.418h-1.283a11.232,11.232,0,0,1-2.725-7.673,11.658,11.658,0,0,1,2.725-7.8h1.3A11.845,11.845,0,0,0,155,38.175,11.638,11.638,0,0,0,157.742,45.865ZM159.588,43V30.4h3.586a3.919,3.919,0,0,1,2.593.8,2.585,2.585,0,0,1,.958,2.083,3.065,3.065,0,0,1-.58,1.863,3.128,3.128,0,0,1-1.6,1.125V36.3a3.206,3.206,0,0,1,2.039.962,2.96,2.96,0,0,1,.765,2.114A3.3,3.3,0,0,1,166.188,42a4.318,4.318,0,0,1-2.927,1Zm1.477-11.268V35.8h1.512a2.871,2.871,0,0,0,1.907-.584,2.035,2.035,0,0,0,.694-1.648q0-1.837-2.417-1.837Zm0,5.4v4.535h2a3,3,0,0,0,2.017-.615,2.107,2.107,0,0,0,.716-1.687q0-2.232-3.041-2.232Zm10.318,1.107V43h-1.477V30.4h3.463a4.571,4.571,0,0,1,3.133.984,3.515,3.515,0,0,1,1.112,2.777,3.82,3.82,0,0,1-1.235,2.936,4.718,4.718,0,0,1-3.335,1.143Zm0-6.5V36.9h1.547a3.458,3.458,0,0,0,2.333-.7,2.474,2.474,0,0,0,.8-1.973q0-2.5-2.953-2.5ZM192.837,43h-1.468V34.545q0-1,.123-2.452h-.035a7.84,7.84,0,0,1-.378,1.222L186.772,43h-.721l-4.3-9.615a7.533,7.533,0,0,1-.378-1.292h-.035q.07.756.07,2.47V43h-1.424V30.4h1.951l3.867,8.789a11.254,11.254,0,0,1,.58,1.512h.053q.378-1.037.606-1.547l3.946-8.754h1.846Zm3.155,2.865h-1.283a11.638,11.638,0,0,0,2.742-7.69,11.845,11.845,0,0,0-2.76-7.778h1.3a11.611,11.611,0,0,1,2.742,7.8A11.188,11.188,0,0,1,195.992,45.865Z" transform="translate(1103.333 767.75)" fill="#12263f"/>
    <path id="Trazado_876782" data-name="Trazado 876782" d="M51.074,19H49.263L42.777,8.954a4.2,4.2,0,0,1-.4-.791H42.32a12.976,12.976,0,0,1,.07,1.731V19H40.914V6.4H42.83l6.311,9.888q.4.615.51.844h.035a13.335,13.335,0,0,1-.088-1.854V6.4h1.477Zm6.873.211a4.175,4.175,0,0,1-3.186-1.261,4.672,4.672,0,0,1-1.191-3.344,4.867,4.867,0,0,1,1.239-3.542,4.455,4.455,0,0,1,3.349-1.274A4.037,4.037,0,0,1,61.3,11.028a4.914,4.914,0,0,1,1.129,3.437,4.835,4.835,0,0,1-1.217,3.45A4.265,4.265,0,0,1,57.947,19.211ZM58.052,11a2.742,2.742,0,0,0-2.2.945,3.88,3.88,0,0,0-.809,2.606,3.67,3.67,0,0,0,.817,2.522A2.778,2.778,0,0,0,58.052,18a2.635,2.635,0,0,0,2.149-.905,3.928,3.928,0,0,0,.751-2.575,4,4,0,0,0-.751-2.6A2.623,2.623,0,0,0,58.052,11Zm11.373.457a1.763,1.763,0,0,0-1.09-.29,1.839,1.839,0,0,0-1.542.87,4.023,4.023,0,0,0-.62,2.373V19H64.732V10h1.441v1.854h.035a3.143,3.143,0,0,1,.94-1.481,2.144,2.144,0,0,1,1.415-.532,2.353,2.353,0,0,1,.861.123ZM83.769,19H82.328V13.832a3.9,3.9,0,0,0-.461-2.162A1.75,1.75,0,0,0,80.315,11a1.921,1.921,0,0,0-1.569.844,3.228,3.228,0,0,0-.646,2.021V19H76.659V13.656Q76.659,11,74.611,11a1.9,1.9,0,0,0-1.564.8,3.288,3.288,0,0,0-.615,2.07V19H70.99V10h1.441v1.424h.035a3.058,3.058,0,0,1,2.795-1.635,2.6,2.6,0,0,1,2.549,1.863A3.212,3.212,0,0,1,80.8,9.789q2.971,0,2.971,3.665Zm9.167,0H91.495V17.594h-.035a3.018,3.018,0,0,1-2.769,1.617,2.959,2.959,0,0,1-2.1-.712,2.466,2.466,0,0,1-.76-1.89q0-2.522,2.971-2.936l2.7-.378Q91.495,11,89.64,11A4.431,4.431,0,0,0,86.7,12.109V10.633a5.577,5.577,0,0,1,3.059-.844q3.173,0,3.173,3.357Zm-1.441-4.553-2.171.3a3.525,3.525,0,0,0-1.512.5A1.432,1.432,0,0,0,87.3,16.5a1.374,1.374,0,0,0,.47,1.077A1.817,1.817,0,0,0,89.025,18a2.314,2.314,0,0,0,1.771-.751,2.685,2.685,0,0,0,.7-1.9Zm8.332,4.465a2.779,2.779,0,0,1-1.345.281q-2.364,0-2.364-2.637V11.23H94.571V10h1.547V7.8l1.441-.466V10h2.268v1.23H97.559V16.3a2.1,2.1,0,0,0,.308,1.292,1.228,1.228,0,0,0,1.02.387,1.515,1.515,0,0,0,.94-.3Zm2.663-11.2a.913.913,0,0,1-.659-.264.89.89,0,0,1-.272-.668.923.923,0,0,1,.932-.94.931.931,0,0,1,.672.268.939.939,0,0,1,0,1.332A.923.923,0,0,1,102.49,7.715Zm.7,11.285h-1.441V10h1.441Zm9.993-9L109.6,19h-1.415l-3.41-9h1.582l2.285,6.539a5.869,5.869,0,0,1,.316,1.257h.035a5.943,5.943,0,0,1,.281-1.222L111.666,10Zm7.989,9h-1.441V17.594H119.7a3.018,3.018,0,0,1-2.769,1.617,2.959,2.959,0,0,1-2.1-.712,2.466,2.466,0,0,1-.76-1.89q0-2.522,2.971-2.936l2.7-.378q0-2.294-1.854-2.294a4.431,4.431,0,0,0-2.936,1.107V10.633A5.577,5.577,0,0,1,118,9.789q3.173,0,3.173,3.357Zm-1.441-4.553-2.171.3a3.525,3.525,0,0,0-1.512.5,1.432,1.432,0,0,0-.51,1.261,1.374,1.374,0,0,0,.47,1.077,1.817,1.817,0,0,0,1.252.417,2.314,2.314,0,0,0,1.771-.751,2.685,2.685,0,0,0,.7-1.9ZM133,18.912a2.779,2.779,0,0,1-1.345.281q-2.364,0-2.364-2.637V11.23h-1.547V10h1.547V7.8l1.441-.466V10H133v1.23h-2.268V16.3a2.1,2.1,0,0,0,.308,1.292,1.228,1.228,0,0,0,1.02.387,1.515,1.515,0,0,0,.94-.3Zm9.158-4.052H135.8a3.366,3.366,0,0,0,.809,2.32,2.788,2.788,0,0,0,2.127.817,4.422,4.422,0,0,0,2.795-1V18.35a5.224,5.224,0,0,1-3.138.861,3.8,3.8,0,0,1-3-1.226,5.018,5.018,0,0,1-1.09-3.45,4.921,4.921,0,0,1,1.191-3.423,3.819,3.819,0,0,1,2.958-1.323,3.384,3.384,0,0,1,2.733,1.143,4.764,4.764,0,0,1,.967,3.173Zm-1.477-1.222a2.933,2.933,0,0,0-.6-1.942A2.051,2.051,0,0,0,138.428,11a2.328,2.328,0,0,0-1.731.729,3.31,3.31,0,0,0-.879,1.907Zm-.229-8.227-2.3,2.883h-1.116l1.96-2.883Zm10.02,13.175a4.684,4.684,0,0,1-2.461.624,4.074,4.074,0,0,1-3.107-1.252,4.539,4.539,0,0,1-1.182-3.248,4.99,4.99,0,0,1,1.274-3.573,4.458,4.458,0,0,1,3.4-1.349,4.735,4.735,0,0,1,2.092.439v1.477a3.665,3.665,0,0,0-2.145-.7,2.9,2.9,0,0,0-2.263.989,3.752,3.752,0,0,0-.883,2.6,3.573,3.573,0,0,0,.831,2.5,2.863,2.863,0,0,0,2.228.914,3.613,3.613,0,0,0,2.215-.782Zm9.65.413h-1.441V13.867q0-2.865-2.092-2.865a2.269,2.269,0,0,0-1.789.813,3.013,3.013,0,0,0-.708,2.052V19h-1.441V10h1.441v1.494h.035a3.248,3.248,0,0,1,2.953-1.705,2.753,2.753,0,0,1,2.259.954,4.248,4.248,0,0,1,.782,2.755Zm3.454-11.285a.913.913,0,0,1-.659-.264.89.89,0,0,1-.272-.668.923.923,0,0,1,.932-.94.931.931,0,0,1,.672.268.939.939,0,0,1,0,1.332A.923.923,0,0,1,163.574,7.715Zm.7,11.285h-1.441V10h1.441Zm9.053-.413a4.684,4.684,0,0,1-2.461.624,4.074,4.074,0,0,1-3.107-1.252,4.539,4.539,0,0,1-1.182-3.248,4.99,4.99,0,0,1,1.274-3.573,4.458,4.458,0,0,1,3.4-1.349,4.735,4.735,0,0,1,2.092.439v1.477A3.665,3.665,0,0,0,171.2,11a2.9,2.9,0,0,0-2.263.989,3.752,3.752,0,0,0-.883,2.6,3.573,3.573,0,0,0,.831,2.5,2.863,2.863,0,0,0,2.228.914,3.613,3.613,0,0,0,2.215-.782Zm8.622.413H180.51V17.594h-.035a3.018,3.018,0,0,1-2.769,1.617,2.959,2.959,0,0,1-2.1-.712,2.466,2.466,0,0,1-.76-1.89q0-2.522,2.971-2.936l2.7-.378q0-2.294-1.854-2.294a4.431,4.431,0,0,0-2.936,1.107V10.633a5.577,5.577,0,0,1,3.059-.844q3.173,0,3.173,3.357Zm-1.441-4.553-2.171.3a3.525,3.525,0,0,0-1.512.5,1.432,1.432,0,0,0-.51,1.261,1.374,1.374,0,0,0,.47,1.077,1.817,1.817,0,0,0,1.252.417,2.314,2.314,0,0,0,1.771-.751,2.685,2.685,0,0,0,.7-1.9Zm16.321.413h-6.354a3.366,3.366,0,0,0,.809,2.32,2.788,2.788,0,0,0,2.127.817,4.422,4.422,0,0,0,2.795-1V18.35a5.224,5.224,0,0,1-3.138.861,3.8,3.8,0,0,1-3-1.226,5.018,5.018,0,0,1-1.09-3.45,4.921,4.921,0,0,1,1.191-3.423,3.819,3.819,0,0,1,2.958-1.323,3.384,3.384,0,0,1,2.733,1.143,4.764,4.764,0,0,1,.967,3.173Zm-1.477-1.222a2.933,2.933,0,0,0-.6-1.942A2.051,2.051,0,0,0,193.1,11a2.328,2.328,0,0,0-1.731.729,3.31,3.31,0,0,0-.879,1.907ZM206.482,19h-1.441V13.867q0-2.865-2.092-2.865a2.269,2.269,0,0,0-1.789.813,3.013,3.013,0,0,0-.708,2.052V19h-1.441V10h1.441v1.494h.035a3.248,3.248,0,0,1,2.953-1.705,2.753,2.753,0,0,1,2.259.954,4.248,4.248,0,0,1,.782,2.755ZM2.589,42.675V41.128A4.266,4.266,0,0,0,5.182,42q1.9,0,1.9-1.266a1.1,1.1,0,0,0-.163-.611,1.62,1.62,0,0,0-.439-.444,3.383,3.383,0,0,0-.65-.347q-.374-.154-.8-.321a10.357,10.357,0,0,1-1.05-.479,3.173,3.173,0,0,1-.756-.545,2.028,2.028,0,0,1-.457-.69,2.441,2.441,0,0,1-.154-.905A2.15,2.15,0,0,1,2.9,35.27a2.572,2.572,0,0,1,.773-.817,3.607,3.607,0,0,1,1.1-.5,4.893,4.893,0,0,1,1.279-.167,5.164,5.164,0,0,1,2.092.4v1.459A4.077,4.077,0,0,0,5.858,35a2.671,2.671,0,0,0-.729.092,1.786,1.786,0,0,0-.558.259,1.2,1.2,0,0,0-.36.4,1.053,1.053,0,0,0-.127.514,1.233,1.233,0,0,0,.127.589,1.3,1.3,0,0,0,.374.422,2.855,2.855,0,0,0,.6.334q.352.149.8.325a11.131,11.131,0,0,1,1.072.47,3.678,3.678,0,0,1,.809.545,2.129,2.129,0,0,1,.514.7,2.254,2.254,0,0,1,.18.94,2.217,2.217,0,0,1-.294,1.16,2.523,2.523,0,0,1-.787.817,3.6,3.6,0,0,1-1.134.483A5.6,5.6,0,0,1,5,43.211,5.106,5.106,0,0,1,2.589,42.675ZM18,38.86H11.65a3.366,3.366,0,0,0,.809,2.32A2.788,2.788,0,0,0,14.586,42a4.422,4.422,0,0,0,2.795-1V42.35a5.224,5.224,0,0,1-3.138.861,3.8,3.8,0,0,1-3-1.226,5.018,5.018,0,0,1-1.09-3.45,4.921,4.921,0,0,1,1.191-3.423A3.819,3.819,0,0,1,14.3,33.789a3.384,3.384,0,0,1,2.733,1.143A4.764,4.764,0,0,1,18,38.1Zm-1.477-1.222a2.933,2.933,0,0,0-.6-1.942A2.051,2.051,0,0,0,14.278,35a2.328,2.328,0,0,0-1.731.729,3.31,3.31,0,0,0-.879,1.907Zm11.338,4.641q0,4.957-4.746,4.957A6.372,6.372,0,0,1,20.2,46.6V45.162a5.993,5.993,0,0,0,2.9.844q3.322,0,3.322-3.533v-.984H26.39A3.371,3.371,0,0,1,23.3,43.211a3.379,3.379,0,0,1-2.7-1.2,4.8,4.8,0,0,1-1.024-3.221,5.6,5.6,0,0,1,1.1-3.647,3.685,3.685,0,0,1,3.019-1.354,2.934,2.934,0,0,1,2.7,1.459h.035V34h1.441Zm-1.441-3.349V37.6a2.575,2.575,0,0,0-.725-1.837A2.387,2.387,0,0,0,23.894,35a2.5,2.5,0,0,0-2.092.971,4.335,4.335,0,0,0-.756,2.72,3.721,3.721,0,0,0,.725,2.4,2.343,2.343,0,0,0,1.92.9,2.509,2.509,0,0,0,1.973-.861A3.21,3.21,0,0,0,26.425,38.931ZM38.062,43H36.62V41.576h-.035a2.96,2.96,0,0,1-2.777,1.635q-3.217,0-3.217-3.832V34h1.433v5.15Q32.023,42,34.2,42a2.205,2.205,0,0,0,1.736-.778,2.976,2.976,0,0,0,.681-2.035V34h1.441Zm7.6-7.541a1.763,1.763,0,0,0-1.09-.29,1.839,1.839,0,0,0-1.542.87,4.023,4.023,0,0,0-.62,2.373V43H40.971V34h1.441v1.854h.035a3.143,3.143,0,0,1,.94-1.481,2.144,2.144,0,0,1,1.415-.532,2.353,2.353,0,0,1,.861.123Zm2.3-3.744a.913.913,0,0,1-.659-.264.89.89,0,0,1-.272-.668.923.923,0,0,1,.932-.94.931.931,0,0,1,.672.268.939.939,0,0,1,0,1.332A.923.923,0,0,1,47.967,31.715ZM48.67,43H47.229V34H48.67Zm10.6,0H57.828V41.471h-.035a3.327,3.327,0,0,1-3.094,1.74A3.362,3.362,0,0,1,51.988,42a4.958,4.958,0,0,1-1.015-3.292A5.394,5.394,0,0,1,52.1,35.134a3.71,3.71,0,0,1,3-1.345,2.885,2.885,0,0,1,2.7,1.459h.035V29.676H59.27Zm-1.441-4.069V37.6a2.575,2.575,0,0,0-.721-1.846A2.417,2.417,0,0,0,55.279,35a2.489,2.489,0,0,0-2.074.967,4.237,4.237,0,0,0-.756,2.672,3.81,3.81,0,0,0,.725,2.457,2.37,2.37,0,0,0,1.947.9,2.462,2.462,0,0,0,1.956-.87A3.242,3.242,0,0,0,57.828,38.931ZM68.63,43H67.188V41.594h-.035a3.018,3.018,0,0,1-2.769,1.617,2.959,2.959,0,0,1-2.1-.712,2.466,2.466,0,0,1-.76-1.89q0-2.522,2.971-2.936l2.7-.378Q67.188,35,65.334,35A4.431,4.431,0,0,0,62.4,36.109V34.633a5.577,5.577,0,0,1,3.059-.844q3.173,0,3.173,3.357Zm-1.441-4.553-2.171.3a3.525,3.525,0,0,0-1.512.5A1.432,1.432,0,0,0,63,40.5a1.374,1.374,0,0,0,.47,1.077A1.817,1.817,0,0,0,64.719,42a2.314,2.314,0,0,0,1.771-.751,2.685,2.685,0,0,0,.7-1.9ZM79.027,43H77.586V41.471h-.035a3.327,3.327,0,0,1-3.094,1.74A3.362,3.362,0,0,1,71.746,42a4.958,4.958,0,0,1-1.015-3.292,5.394,5.394,0,0,1,1.125-3.577,3.71,3.71,0,0,1,3-1.345,2.885,2.885,0,0,1,2.7,1.459h.035V29.676h1.441Zm-1.441-4.069V37.6a2.575,2.575,0,0,0-.721-1.846A2.417,2.417,0,0,0,75.037,35a2.489,2.489,0,0,0-2.074.967,4.237,4.237,0,0,0-.756,2.672,3.81,3.81,0,0,0,.725,2.457,2.37,2.37,0,0,0,1.947.9,2.462,2.462,0,0,0,1.956-.87A3.242,3.242,0,0,0,77.586,38.931ZM94.039,34,89.9,44.441q-1.107,2.795-3.111,2.795a3.3,3.3,0,0,1-.94-.114V45.83a2.672,2.672,0,0,0,.853.158,1.767,1.767,0,0,0,1.635-1.3l.721-1.705L85.54,34h1.6l2.435,6.926q.044.132.185.686h.053q.044-.211.176-.668L92.545,34Zm5.933,8.675V41.128a4.266,4.266,0,0,0,2.593.87q1.9,0,1.9-1.266a1.1,1.1,0,0,0-.163-.611,1.62,1.62,0,0,0-.439-.444,3.383,3.383,0,0,0-.65-.347q-.374-.154-.8-.321a10.357,10.357,0,0,1-1.05-.479,3.173,3.173,0,0,1-.756-.545,2.028,2.028,0,0,1-.457-.69,2.441,2.441,0,0,1-.154-.905,2.15,2.15,0,0,1,.29-1.121,2.572,2.572,0,0,1,.773-.817,3.607,3.607,0,0,1,1.1-.5,4.893,4.893,0,0,1,1.279-.167,5.164,5.164,0,0,1,2.092.4v1.459a4.077,4.077,0,0,0-2.285-.65,2.671,2.671,0,0,0-.729.092,1.786,1.786,0,0,0-.558.259,1.2,1.2,0,0,0-.36.4,1.053,1.053,0,0,0-.127.514,1.233,1.233,0,0,0,.127.589,1.3,1.3,0,0,0,.374.422,2.855,2.855,0,0,0,.6.334q.352.149.8.325a11.131,11.131,0,0,1,1.072.47,3.678,3.678,0,0,1,.809.545,2.129,2.129,0,0,1,.514.7,2.254,2.254,0,0,1,.18.94,2.217,2.217,0,0,1-.294,1.16,2.523,2.523,0,0,1-.787.817,3.6,3.6,0,0,1-1.134.483,5.6,5.6,0,0,1-1.345.158A5.106,5.106,0,0,1,99.972,42.675ZM114.6,43h-1.441V41.594h-.035a3.018,3.018,0,0,1-2.769,1.617,2.959,2.959,0,0,1-2.1-.712,2.466,2.466,0,0,1-.76-1.89q0-2.522,2.971-2.936l2.7-.378Q113.155,35,111.3,35a4.431,4.431,0,0,0-2.936,1.107V34.633a5.577,5.577,0,0,1,3.059-.844q3.173,0,3.173,3.357Zm-1.441-4.553-2.171.3a3.525,3.525,0,0,0-1.512.5,1.432,1.432,0,0,0-.51,1.261,1.374,1.374,0,0,0,.47,1.077,1.817,1.817,0,0,0,1.252.417,2.314,2.314,0,0,0,1.771-.751,2.685,2.685,0,0,0,.7-1.9Zm5.6,4.553h-1.441V29.676h1.441Zm10.2,0h-1.441V41.576h-.035a2.96,2.96,0,0,1-2.777,1.635q-3.217,0-3.217-3.832V34h1.433v5.15q0,2.848,2.18,2.848a2.205,2.205,0,0,0,1.736-.778,2.976,2.976,0,0,0,.681-2.035V34h1.441Zm10.591,0H138.1V41.471h-.035a3.327,3.327,0,0,1-3.094,1.74A3.362,3.362,0,0,1,132.258,42a4.958,4.958,0,0,1-1.015-3.292,5.394,5.394,0,0,1,1.125-3.577,3.71,3.71,0,0,1,3-1.345,2.885,2.885,0,0,1,2.7,1.459h.035V29.676h1.441ZM138.1,38.931V37.6a2.575,2.575,0,0,0-.721-1.846A2.417,2.417,0,0,0,135.55,35a2.489,2.489,0,0,0-2.074.967,4.237,4.237,0,0,0-.756,2.672,3.81,3.81,0,0,0,.725,2.457,2.37,2.37,0,0,0,1.947.9,2.462,2.462,0,0,0,1.956-.87A3.242,3.242,0,0,0,138.1,38.931Zm16.523-.07h-6.354a3.366,3.366,0,0,0,.809,2.32A2.788,2.788,0,0,0,151.2,42,4.422,4.422,0,0,0,154,41V42.35a5.224,5.224,0,0,1-3.138.861,3.8,3.8,0,0,1-3-1.226,5.018,5.018,0,0,1-1.09-3.45,4.921,4.921,0,0,1,1.191-3.423,3.819,3.819,0,0,1,2.958-1.323,3.384,3.384,0,0,1,2.733,1.143,4.764,4.764,0,0,1,.967,3.173Zm-1.477-1.222a2.933,2.933,0,0,0-.6-1.942A2.051,2.051,0,0,0,150.9,35a2.328,2.328,0,0,0-1.731.729,3.31,3.31,0,0,0-.879,1.907ZM164.272,43h-1.441V37.867q0-2.865-2.092-2.865a2.269,2.269,0,0,0-1.789.813,3.013,3.013,0,0,0-.708,2.052V43H156.8V34h1.441v1.494h.035a3.248,3.248,0,0,1,2.953-1.705,2.753,2.753,0,0,1,2.259.954,4.248,4.248,0,0,1,.782,2.755Zm14.88-4.14H172.8a3.366,3.366,0,0,0,.809,2.32,2.788,2.788,0,0,0,2.127.817,4.422,4.422,0,0,0,2.795-1V42.35a5.224,5.224,0,0,1-3.138.861,3.8,3.8,0,0,1-3-1.226,5.018,5.018,0,0,1-1.09-3.45,4.921,4.921,0,0,1,1.191-3.423,3.819,3.819,0,0,1,2.958-1.323,3.384,3.384,0,0,1,2.733,1.143,4.764,4.764,0,0,1,.967,3.173Zm-1.477-1.222a2.933,2.933,0,0,0-.6-1.942A2.051,2.051,0,0,0,175.426,35a2.328,2.328,0,0,0-1.731.729,3.31,3.31,0,0,0-.879,1.907Zm5.1,5.361h-1.441V29.676h1.441Zm12.023-.088a2.779,2.779,0,0,1-1.345.281q-2.364,0-2.364-2.637V35.23h-1.547V34h1.547V31.8l1.441-.466V34H194.8v1.23h-2.268V40.3a2.1,2.1,0,0,0,.308,1.292,1.228,1.228,0,0,0,1.02.387,1.515,1.515,0,0,0,.94-.3Zm6.618-7.453a1.763,1.763,0,0,0-1.09-.29,1.839,1.839,0,0,0-1.542.87,4.023,4.023,0,0,0-.62,2.373V43h-1.441V34h1.441v1.854h.035a3.143,3.143,0,0,1,.94-1.481,2.144,2.144,0,0,1,1.415-.532,2.353,2.353,0,0,1,.861.123ZM209.422,43H207.98V41.594h-.035a3.018,3.018,0,0,1-2.769,1.617,2.959,2.959,0,0,1-2.1-.712,2.466,2.466,0,0,1-.76-1.89q0-2.522,2.971-2.936l2.7-.378q0-2.294-1.854-2.294a4.431,4.431,0,0,0-2.936,1.107V34.633a5.577,5.577,0,0,1,3.059-.844q3.173,0,3.173,3.357Zm-1.441-4.553-2.171.3a3.525,3.525,0,0,0-1.512.5,1.432,1.432,0,0,0-.51,1.261,1.374,1.374,0,0,0,.47,1.077,1.817,1.817,0,0,0,1.252.417,2.314,2.314,0,0,0,1.771-.751,2.685,2.685,0,0,0,.7-1.9Zm5.634,3.252h-.035V43h-1.441V29.676h1.441v5.906h.035a3.408,3.408,0,0,1,3.111-1.793A3.3,3.3,0,0,1,219.437,35a4.99,4.99,0,0,1,.98,3.239,5.578,5.578,0,0,1-1.1,3.617,3.658,3.658,0,0,1-3.006,1.358A2.96,2.96,0,0,1,213.614,41.7Zm-.035-3.63v1.257a2.676,2.676,0,0,0,.725,1.894A2.587,2.587,0,0,0,218.2,41a4.6,4.6,0,0,0,.743-2.786,3.629,3.629,0,0,0-.694-2.355A2.3,2.3,0,0,0,216.365,35a2.554,2.554,0,0,0-2.021.875A3.211,3.211,0,0,0,213.579,38.069ZM229.162,43h-1.441V41.594h-.035a3.018,3.018,0,0,1-2.769,1.617,2.959,2.959,0,0,1-2.1-.712,2.466,2.466,0,0,1-.76-1.89q0-2.522,2.971-2.936l2.7-.378q0-2.294-1.854-2.294a4.431,4.431,0,0,0-2.936,1.107V34.633a5.577,5.577,0,0,1,3.059-.844q3.173,0,3.173,3.357Zm-1.441-4.553-2.171.3a3.525,3.525,0,0,0-1.512.5,1.432,1.432,0,0,0-.51,1.261,1.374,1.374,0,0,0,.47,1.077,1.817,1.817,0,0,0,1.252.417,2.314,2.314,0,0,0,1.771-.751,2.685,2.685,0,0,0,.7-1.9Zm5.6,4.175a5.641,5.641,0,0,1-.892,3.415,2.99,2.99,0,0,1-2.553,1.2,2.71,2.71,0,0,1-1.2-.281V45.61a2.385,2.385,0,0,0,1.23.4q1.969,0,1.969-3.146V34h1.441Zm-.7-10.907a.913.913,0,0,1-.659-.264.89.89,0,0,1-.272-.668.923.923,0,0,1,.932-.94.931.931,0,0,1,.672.268.939.939,0,0,1,0,1.332A.923.923,0,0,1,232.616,31.715ZM240,43.211a4.175,4.175,0,0,1-3.186-1.261,4.672,4.672,0,0,1-1.191-3.344,4.867,4.867,0,0,1,1.239-3.542,4.455,4.455,0,0,1,3.349-1.274,4.037,4.037,0,0,1,3.142,1.239,4.914,4.914,0,0,1,1.129,3.437,4.835,4.835,0,0,1-1.217,3.45A4.265,4.265,0,0,1,240,43.211ZM240.1,35a2.742,2.742,0,0,0-2.2.945,3.88,3.88,0,0,0-.809,2.606,3.67,3.67,0,0,0,.817,2.522A2.778,2.778,0,0,0,240.1,42a2.635,2.635,0,0,0,2.149-.905A3.928,3.928,0,0,0,243,38.518a4,4,0,0,0-.751-2.6A2.623,2.623,0,0,0,240.1,35Z" transform="translate(1103.333 859.75)" fill="#12263f"/>
    <path id="Trazado_876783" data-name="Trazado 876783" d="M32.422,19V6.4H35.9q6.662,0,6.662,6.144a6.191,6.191,0,0,1-1.85,4.689A6.863,6.863,0,0,1,35.762,19ZM33.9,7.732v9.932H35.78a5.338,5.338,0,0,0,3.858-1.327,4.975,4.975,0,0,0,1.38-3.762q0-4.843-5.15-4.843ZM52.083,14.86H45.729a3.366,3.366,0,0,0,.809,2.32A2.788,2.788,0,0,0,48.665,18a4.422,4.422,0,0,0,2.795-1V18.35a5.224,5.224,0,0,1-3.138.861,3.8,3.8,0,0,1-3-1.226,5.018,5.018,0,0,1-1.09-3.45,4.921,4.921,0,0,1,1.191-3.423,3.819,3.819,0,0,1,2.958-1.323,3.384,3.384,0,0,1,2.733,1.143,4.764,4.764,0,0,1,.967,3.173Zm-1.477-1.222A2.933,2.933,0,0,0,50,11.7,2.051,2.051,0,0,0,48.357,11a2.328,2.328,0,0,0-1.731.729,3.31,3.31,0,0,0-.879,1.907Zm3.111,5.036V17.128a4.266,4.266,0,0,0,2.593.87q1.9,0,1.9-1.266a1.1,1.1,0,0,0-.163-.611,1.62,1.62,0,0,0-.439-.444,3.383,3.383,0,0,0-.65-.347q-.374-.154-.8-.321a10.357,10.357,0,0,1-1.05-.479,3.173,3.173,0,0,1-.756-.545,2.028,2.028,0,0,1-.457-.69,2.441,2.441,0,0,1-.154-.905,2.15,2.15,0,0,1,.29-1.121,2.572,2.572,0,0,1,.773-.817,3.607,3.607,0,0,1,1.1-.5,4.893,4.893,0,0,1,1.279-.167,5.164,5.164,0,0,1,2.092.4v1.459A4.077,4.077,0,0,0,56.988,11a2.671,2.671,0,0,0-.729.092,1.786,1.786,0,0,0-.558.259,1.2,1.2,0,0,0-.36.4,1.053,1.053,0,0,0-.127.514,1.233,1.233,0,0,0,.127.589,1.3,1.3,0,0,0,.374.422,2.855,2.855,0,0,0,.6.334q.352.149.8.325a11.131,11.131,0,0,1,1.072.47,3.678,3.678,0,0,1,.809.545,2.129,2.129,0,0,1,.514.7,2.254,2.254,0,0,1,.18.94,2.217,2.217,0,0,1-.294,1.16,2.523,2.523,0,0,1-.787.817,3.6,3.6,0,0,1-1.134.483,5.6,5.6,0,0,1-1.345.158A5.106,5.106,0,0,1,53.718,18.675Zm9.659-.976h-.035v5.44H61.9V10h1.441v1.582h.035a3.408,3.408,0,0,1,3.111-1.793A3.3,3.3,0,0,1,69.2,11a5.005,5.005,0,0,1,.976,3.239,5.578,5.578,0,0,1-1.1,3.617,3.658,3.658,0,0,1-3.006,1.358A3.011,3.011,0,0,1,63.377,17.7Zm-.035-3.63v1.257a2.676,2.676,0,0,0,.725,1.894A2.587,2.587,0,0,0,67.961,17,4.6,4.6,0,0,0,68.7,14.21a3.629,3.629,0,0,0-.694-2.355A2.3,2.3,0,0,0,66.128,11a2.554,2.554,0,0,0-2.021.875A3.211,3.211,0,0,0,63.342,14.069ZM78.925,19H77.484V17.594h-.035a3.018,3.018,0,0,1-2.769,1.617,2.959,2.959,0,0,1-2.1-.712,2.466,2.466,0,0,1-.76-1.89q0-2.522,2.971-2.936l2.7-.378Q77.484,11,75.629,11a4.431,4.431,0,0,0-2.936,1.107V10.633a5.577,5.577,0,0,1,3.059-.844q3.173,0,3.173,3.357Zm-1.441-4.553-2.171.3a3.525,3.525,0,0,0-1.512.5,1.432,1.432,0,0,0-.51,1.261,1.374,1.374,0,0,0,.47,1.077A1.817,1.817,0,0,0,75.014,18a2.314,2.314,0,0,0,1.771-.751,2.685,2.685,0,0,0,.7-1.9Zm10.292,4.14a4.684,4.684,0,0,1-2.461.624,4.074,4.074,0,0,1-3.107-1.252,4.539,4.539,0,0,1-1.182-3.248A4.99,4.99,0,0,1,82.3,11.138a4.458,4.458,0,0,1,3.4-1.349,4.735,4.735,0,0,1,2.092.439v1.477a3.665,3.665,0,0,0-2.145-.7,2.9,2.9,0,0,0-2.263.989,3.752,3.752,0,0,0-.883,2.6,3.573,3.573,0,0,0,.831,2.5A2.863,2.863,0,0,0,85.561,18a3.613,3.613,0,0,0,2.215-.782Zm9.65.413H95.985V13.814Q95.985,11,93.893,11a2.28,2.28,0,0,0-1.775.813A3.03,3.03,0,0,0,91.4,13.9V19H89.956V5.676H91.4v5.818h.035a3.273,3.273,0,0,1,2.953-1.705q3.041,0,3.041,3.665Zm6.478.211a4.175,4.175,0,0,1-3.186-1.261,4.672,4.672,0,0,1-1.191-3.344,4.867,4.867,0,0,1,1.239-3.542,4.455,4.455,0,0,1,3.349-1.274,4.037,4.037,0,0,1,3.142,1.239,4.914,4.914,0,0,1,1.129,3.437,4.835,4.835,0,0,1-1.217,3.45A4.265,4.265,0,0,1,103.9,19.211ZM104.009,11a2.742,2.742,0,0,0-2.2.945A3.88,3.88,0,0,0,101,14.553a3.67,3.67,0,0,0,.817,2.522,2.778,2.778,0,0,0,2.188.923,2.635,2.635,0,0,0,2.149-.905,3.928,3.928,0,0,0,.751-2.575,4,4,0,0,0-.751-2.6A2.623,2.623,0,0,0,104.009,11Z" transform="translate(310.333 804)" fill="#12263f"/>
    <path id="Trazado_876784" data-name="Trazado 876784" d="M41.058,19h-6.68V6.4h6.4V7.732H35.854v4.192h4.553v1.327H35.854v4.412h5.2Zm15.012,0H54.628V13.832a3.9,3.9,0,0,0-.461-2.162A1.75,1.75,0,0,0,52.615,11a1.921,1.921,0,0,0-1.569.844,3.228,3.228,0,0,0-.646,2.021V19H48.959V13.656Q48.959,11,46.911,11a1.9,1.9,0,0,0-1.564.8,3.288,3.288,0,0,0-.615,2.07V19H43.29V10h1.441v1.424h.035a3.058,3.058,0,0,1,2.795-1.635,2.6,2.6,0,0,1,2.549,1.863A3.212,3.212,0,0,1,53.1,9.789q2.971,0,2.971,3.665Zm4.2-1.3h-.035v5.44H58.794V10h1.441v1.582h.035a3.408,3.408,0,0,1,3.111-1.793A3.3,3.3,0,0,1,66.1,11a5.005,5.005,0,0,1,.976,3.239,5.578,5.578,0,0,1-1.1,3.617,3.658,3.658,0,0,1-3.006,1.358A3.011,3.011,0,0,1,60.271,17.7Zm-.035-3.63v1.257a2.676,2.676,0,0,0,.725,1.894A2.587,2.587,0,0,0,64.854,17,4.6,4.6,0,0,0,65.6,14.21a3.629,3.629,0,0,0-.694-2.355A2.3,2.3,0,0,0,63.021,11,2.554,2.554,0,0,0,61,11.876,3.211,3.211,0,0,0,60.235,14.069ZM75.818,19H74.377V17.594h-.035a3.018,3.018,0,0,1-2.769,1.617,2.959,2.959,0,0,1-2.1-.712,2.466,2.466,0,0,1-.76-1.89q0-2.522,2.971-2.936l2.7-.378Q74.377,11,72.522,11a4.431,4.431,0,0,0-2.936,1.107V10.633a5.577,5.577,0,0,1,3.059-.844q3.173,0,3.173,3.357Zm-1.441-4.553-2.171.3a3.525,3.525,0,0,0-1.512.5,1.432,1.432,0,0,0-.51,1.261,1.374,1.374,0,0,0,.47,1.077A1.817,1.817,0,0,0,71.907,18a2.314,2.314,0,0,0,1.771-.751,2.685,2.685,0,0,0,.7-1.9ZM86.216,23.14H84.774V17.453h-.035a3.225,3.225,0,0,1-3.076,1.758A3.387,3.387,0,0,1,78.943,18a4.929,4.929,0,0,1-1.024-3.292,5.39,5.39,0,0,1,1.125-3.582,3.744,3.744,0,0,1,3.023-1.34,2.838,2.838,0,0,1,2.672,1.459h.035V10h1.441Zm-1.441-8.191v-1.31a2.619,2.619,0,0,0-.725-1.872A2.428,2.428,0,0,0,82.208,11a2.475,2.475,0,0,0-2.057.962,4.3,4.3,0,0,0-.756,2.711,3.721,3.721,0,0,0,.729,2.439A2.328,2.328,0,0,0,82.006,18a2.536,2.536,0,0,0,2.017-.866A3.212,3.212,0,0,0,84.774,14.948ZM96.411,19H94.97V17.576h-.035a2.96,2.96,0,0,1-2.777,1.635q-3.217,0-3.217-3.832V10h1.433v5.15q0,2.848,2.18,2.848a2.205,2.205,0,0,0,1.736-.778,2.976,2.976,0,0,0,.681-2.035V10h1.441Zm10.143-4.14H100.2a3.366,3.366,0,0,0,.809,2.32,2.788,2.788,0,0,0,2.127.817,4.422,4.422,0,0,0,2.795-1V18.35a5.224,5.224,0,0,1-3.138.861,3.8,3.8,0,0,1-3-1.226,5.018,5.018,0,0,1-1.09-3.45A4.921,4.921,0,0,1,99.9,11.112a3.819,3.819,0,0,1,2.958-1.323,3.384,3.384,0,0,1,2.733,1.143,4.764,4.764,0,0,1,.967,3.173Zm-1.477-1.222a2.933,2.933,0,0,0-.6-1.942A2.051,2.051,0,0,0,102.827,11a2.328,2.328,0,0,0-1.731.729,3.31,3.31,0,0,0-.879,1.907Z" transform="translate(625.333 804)" fill="#12263f"/>
    <path id="Trazado_876785" data-name="Trazado 876785" d="M48.621,19V6.4H52.1q6.662,0,6.662,6.144a6.191,6.191,0,0,1-1.85,4.689A6.863,6.863,0,0,1,51.96,19ZM50.1,7.732v9.932h1.881a5.338,5.338,0,0,0,3.858-1.327,4.975,4.975,0,0,0,1.38-3.762q0-4.843-5.15-4.843ZM67.491,19H66.049V17.594h-.035a3.018,3.018,0,0,1-2.769,1.617,2.959,2.959,0,0,1-2.1-.712,2.466,2.466,0,0,1-.76-1.89q0-2.522,2.971-2.936l2.7-.378Q66.049,11,64.195,11a4.431,4.431,0,0,0-2.936,1.107V10.633a5.577,5.577,0,0,1,3.059-.844q3.173,0,3.173,3.357Zm-1.441-4.553-2.171.3a3.525,3.525,0,0,0-1.512.5,1.432,1.432,0,0,0-.51,1.261,1.374,1.374,0,0,0,.47,1.077A1.817,1.817,0,0,0,63.58,18a2.314,2.314,0,0,0,1.771-.751,2.685,2.685,0,0,0,.7-1.9Zm8.332,4.465a2.779,2.779,0,0,1-1.345.281q-2.364,0-2.364-2.637V11.23H69.125V10h1.547V7.8l1.441-.466V10h2.268v1.23H72.114V16.3a2.1,2.1,0,0,0,.308,1.292,1.228,1.228,0,0,0,1.02.387,1.515,1.515,0,0,0,.94-.3Zm5.687.3a4.175,4.175,0,0,1-3.186-1.261,4.672,4.672,0,0,1-1.191-3.344,4.867,4.867,0,0,1,1.239-3.542,4.455,4.455,0,0,1,3.349-1.274,4.037,4.037,0,0,1,3.142,1.239,4.914,4.914,0,0,1,1.129,3.437,4.835,4.835,0,0,1-1.217,3.45A4.265,4.265,0,0,1,80.068,19.211ZM80.173,11a2.742,2.742,0,0,0-2.2.945,3.88,3.88,0,0,0-.809,2.606,3.67,3.67,0,0,0,.817,2.522A2.778,2.778,0,0,0,80.173,18a2.635,2.635,0,0,0,2.149-.905,3.928,3.928,0,0,0,.751-2.575,4,4,0,0,0-.751-2.6A2.623,2.623,0,0,0,80.173,11Zm6.135,7.673V17.128A4.266,4.266,0,0,0,88.9,18q1.9,0,1.9-1.266a1.1,1.1,0,0,0-.163-.611,1.62,1.62,0,0,0-.439-.444,3.383,3.383,0,0,0-.65-.347q-.374-.154-.8-.321a10.357,10.357,0,0,1-1.05-.479,3.173,3.173,0,0,1-.756-.545,2.028,2.028,0,0,1-.457-.69,2.441,2.441,0,0,1-.154-.905,2.15,2.15,0,0,1,.29-1.121,2.572,2.572,0,0,1,.773-.817,3.607,3.607,0,0,1,1.1-.5,4.893,4.893,0,0,1,1.279-.167,5.164,5.164,0,0,1,2.092.4v1.459A4.077,4.077,0,0,0,89.578,11a2.671,2.671,0,0,0-.729.092,1.786,1.786,0,0,0-.558.259,1.2,1.2,0,0,0-.36.4,1.053,1.053,0,0,0-.127.514,1.233,1.233,0,0,0,.127.589,1.3,1.3,0,0,0,.374.422,2.855,2.855,0,0,0,.6.334q.352.149.8.325a11.131,11.131,0,0,1,1.072.47,3.678,3.678,0,0,1,.809.545,2.129,2.129,0,0,1,.514.7,2.254,2.254,0,0,1,.18.94,2.217,2.217,0,0,1-.294,1.16,2.523,2.523,0,0,1-.787.817,3.6,3.6,0,0,1-1.134.483,5.6,5.6,0,0,1-1.345.158A5.106,5.106,0,0,1,86.308,18.675Z" transform="translate(310.333 869)" fill="#12263f"/>
    <path id="Trazado_876786" data-name="Trazado 876786" d="M42.512,19h-6.68V6.4h6.4V7.732H37.309v4.192h4.553v1.327H37.309v4.412h5.2Zm15.012,0H56.083V13.832a3.9,3.9,0,0,0-.461-2.162A1.75,1.75,0,0,0,54.07,11a1.921,1.921,0,0,0-1.569.844,3.228,3.228,0,0,0-.646,2.021V19H50.414V13.656Q50.414,11,48.366,11a1.9,1.9,0,0,0-1.564.8,3.288,3.288,0,0,0-.615,2.07V19H44.745V10h1.441v1.424h.035a3.058,3.058,0,0,1,2.795-1.635,2.6,2.6,0,0,1,2.549,1.863,3.212,3.212,0,0,1,2.988-1.863q2.971,0,2.971,3.665Zm4.2-1.3H61.69V19H60.249V5.676H61.69v5.906h.035a3.408,3.408,0,0,1,3.111-1.793A3.3,3.3,0,0,1,67.548,11a4.99,4.99,0,0,1,.98,3.239,5.578,5.578,0,0,1-1.1,3.617,3.658,3.658,0,0,1-3.006,1.358A2.96,2.96,0,0,1,61.725,17.7Zm-.035-3.63v1.257a2.676,2.676,0,0,0,.725,1.894A2.587,2.587,0,0,0,66.309,17a4.6,4.6,0,0,0,.743-2.786,3.629,3.629,0,0,0-.694-2.355A2.3,2.3,0,0,0,64.476,11a2.554,2.554,0,0,0-2.021.875A3.211,3.211,0,0,0,61.69,14.069ZM77.273,19H75.832V17.594H75.8a3.018,3.018,0,0,1-2.769,1.617,2.959,2.959,0,0,1-2.1-.712,2.466,2.466,0,0,1-.76-1.89q0-2.522,2.971-2.936l2.7-.378Q75.832,11,73.977,11a4.431,4.431,0,0,0-2.936,1.107V10.633A5.577,5.577,0,0,1,74.1,9.789q3.173,0,3.173,3.357Zm-1.441-4.553-2.171.3a3.525,3.525,0,0,0-1.512.5,1.432,1.432,0,0,0-.51,1.261,1.374,1.374,0,0,0,.47,1.077A1.817,1.817,0,0,0,73.362,18a2.314,2.314,0,0,0,1.771-.751,2.685,2.685,0,0,0,.7-1.9ZM81.43,19H79.989V5.676H81.43Zm9.36,0H89.349V17.594h-.035a3.018,3.018,0,0,1-2.769,1.617,2.959,2.959,0,0,1-2.1-.712,2.466,2.466,0,0,1-.76-1.89q0-2.522,2.971-2.936l2.7-.378Q89.349,11,87.495,11a4.431,4.431,0,0,0-2.936,1.107V10.633a5.577,5.577,0,0,1,3.059-.844q3.173,0,3.173,3.357Zm-1.441-4.553-2.171.3a3.525,3.525,0,0,0-1.512.5,1.432,1.432,0,0,0-.51,1.261,1.374,1.374,0,0,0,.47,1.077A1.817,1.817,0,0,0,86.879,18a2.314,2.314,0,0,0,1.771-.751,2.685,2.685,0,0,0,.7-1.9Zm5.6,4.175a5.641,5.641,0,0,1-.892,3.415,2.99,2.99,0,0,1-2.553,1.2,2.71,2.71,0,0,1-1.2-.281V21.61a2.385,2.385,0,0,0,1.23.4q1.969,0,1.969-3.146V10h1.441Zm-.7-10.907a.913.913,0,0,1-.659-.264.89.89,0,0,1-.272-.668.923.923,0,0,1,.932-.94.931.931,0,0,1,.672.268.939.939,0,0,1,0,1.332A.923.923,0,0,1,94.245,7.715ZM105.1,14.86H98.745a3.366,3.366,0,0,0,.809,2.32A2.788,2.788,0,0,0,101.68,18a4.422,4.422,0,0,0,2.795-1V18.35a5.224,5.224,0,0,1-3.138.861,3.8,3.8,0,0,1-3-1.226,5.018,5.018,0,0,1-1.09-3.45,4.921,4.921,0,0,1,1.191-3.423A3.819,3.819,0,0,1,101.4,9.789a3.384,3.384,0,0,1,2.733,1.143A4.764,4.764,0,0,1,105.1,14.1Zm-1.477-1.222a2.933,2.933,0,0,0-.6-1.942A2.051,2.051,0,0,0,101.373,11a2.328,2.328,0,0,0-1.731.729,3.31,3.31,0,0,0-.879,1.907Z" transform="translate(625.333 869)" fill="#12263f"/>
    <path id="Trazado_876787" data-name="Trazado 876787" d="M54.1,12.225a5.064,5.064,0,0,1-.8,2.813,4.879,4.879,0,0,1-2.212,1.846,8.306,8.306,0,0,1-3.33.615h-2L44.822,22H40.6L43.563,8h5.654A5.383,5.383,0,0,1,52.84,9.085,3.924,3.924,0,0,1,54.1,12.225Zm-4.482.293a1.381,1.381,0,0,0-.449-1.108,1.923,1.923,0,0,0-1.289-.386h-.742l-.713,3.457h1.182a1.974,1.974,0,0,0,1.46-.552A1.911,1.911,0,0,0,49.617,12.518ZM60.379,9.2a1.879,1.879,0,0,1-.679,1.5,2.66,2.66,0,0,1-1.782.576,2.4,2.4,0,0,1-1.592-.513,1.6,1.6,0,0,1-.615-1.284,1.9,1.9,0,0,1,.684-1.519,2.68,2.68,0,0,1,1.8-.581,2.4,2.4,0,0,1,1.572.5A1.616,1.616,0,0,1,60.379,9.2Zm-3.2,13.047a3.314,3.314,0,0,1-2.314-.771,2.636,2.636,0,0,1-.85-2.051,7.039,7.039,0,0,1,.205-1.523L55.5,12h4.16l-1.221,5.762a3.3,3.3,0,0,0-.1.762q0,.557.674.557a2.731,2.731,0,0,0,1.1-.244l-.645,3.027a4.014,4.014,0,0,1-.889.259A7.18,7.18,0,0,1,57.176,22.244Zm11.65-7.021a3.11,3.11,0,0,0-1.719-.42,2.571,2.571,0,0,0-1.919.811,2.764,2.764,0,0,0-.786,2q0,1.582,1.66,1.582a4.416,4.416,0,0,0,1.045-.142,4.2,4.2,0,0,0,1.035-.4L67.566,21.5a6.124,6.124,0,0,1-1.538.557,7.4,7.4,0,0,1-1.606.186,4.145,4.145,0,0,1-3.052-1.1,4.064,4.064,0,0,1-1.108-3.022,6.371,6.371,0,0,1,.845-3.223,6.023,6.023,0,0,1,2.349-2.31,6.862,6.862,0,0,1,3.389-.835,5.92,5.92,0,0,1,2.656.527Zm9.7,1.7L80.408,22H75.867l-1.445-5.039h-.039L73.309,22h-4.16L72.3,7.2h4.16l-2,9.4h.049L77.781,12h4.785Zm9.6-7.725a1.879,1.879,0,0,1-.679,1.5,2.66,2.66,0,0,1-1.782.576,2.4,2.4,0,0,1-1.592-.513,1.6,1.6,0,0,1-.615-1.284,1.9,1.9,0,0,1,.684-1.519,2.68,2.68,0,0,1,1.8-.581,2.4,2.4,0,0,1,1.572.5A1.616,1.616,0,0,1,88.123,9.2Zm-3.2,13.047a3.314,3.314,0,0,1-2.314-.771,2.636,2.636,0,0,1-.85-2.051,7.039,7.039,0,0,1,.205-1.523L83.24,12H87.4L86.18,17.762a3.3,3.3,0,0,0-.1.762q0,.557.674.557a2.731,2.731,0,0,0,1.1-.244l-.645,3.027a4.014,4.014,0,0,1-.889.259A7.18,7.18,0,0,1,84.92,22.244Zm14.648-8.027a8.132,8.132,0,0,1-.225,1.7L98.064,22H93.9l1.182-5.537a4.549,4.549,0,0,0,.166-1.006.583.583,0,0,0-.664-.654,1.659,1.659,0,0,0-1.143.7,3.423,3.423,0,0,0-.8,1.577L91.629,22h-4.2l1.416-6.641q.342-1.621.586-3.359h4.092a11.268,11.268,0,0,1-.2,1.719h.039a6.145,6.145,0,0,1,1.841-1.436,4.349,4.349,0,0,1,1.958-.527A2.15,2.15,0,0,1,99.568,14.217Zm3.574,12.48a8.864,8.864,0,0,1-3.359-.674l.684-3.164a5.7,5.7,0,0,0,1.475.708,5.01,5.01,0,0,0,1.5.249,3.144,3.144,0,0,0,2.148-.664,3.574,3.574,0,0,0,1.035-2.012l.156-.762h-.039a4.216,4.216,0,0,1-1.4,1.387,3.423,3.423,0,0,1-1.763.479,2.717,2.717,0,0,1-2.241-1.016,4.26,4.26,0,0,1-.815-2.744,7.045,7.045,0,0,1,.9-3.574,5.817,5.817,0,0,1,2.485-2.363,8.109,8.109,0,0,1,3.672-.791,20.981,20.981,0,0,1,2.5.161,24.04,24.04,0,0,1,2.559.444l-1.7,8.037A9.939,9.939,0,0,1,109.5,24.1a5.644,5.644,0,0,1-2.485,1.948A10.157,10.157,0,0,1,103.143,26.7Zm4.922-12.236a2.949,2.949,0,0,0-.674-.059,2.186,2.186,0,0,0-1.367.483,3.29,3.29,0,0,0-.991,1.328A4.433,4.433,0,0,0,104.666,18a1.373,1.373,0,0,0,.254.894.781.781,0,0,0,.625.308,1.556,1.556,0,0,0,1.235-.786,6.446,6.446,0,0,0,.9-2.29Zm10.8,12.236a6.148,6.148,0,0,1-2.3-.4l.684-3.057a2.032,2.032,0,0,0,1.338.42,1.891,1.891,0,0,0,1.738-.937l.5-.82L118.777,12h4.365l.4,4.824q.059.674.059,1.436l-.02.381h.039q.146-.43.356-.962T126.385,12h4.277l-5.8,10.283A13.9,13.9,0,0,1,123,24.974a5.6,5.6,0,0,1-1.831,1.294A5.785,5.785,0,0,1,118.865,26.7Zm30.078-14.473a5.064,5.064,0,0,1-.8,2.813,4.879,4.879,0,0,1-2.212,1.846,8.306,8.306,0,0,1-3.33.615h-2l-.937,4.5h-4.219l2.959-14h5.654a5.383,5.383,0,0,1,3.623,1.089A3.924,3.924,0,0,1,148.943,12.225Zm-4.482.293a1.381,1.381,0,0,0-.449-1.108,1.923,1.923,0,0,0-1.289-.386h-.742l-.713,3.457h1.182a1.974,1.974,0,0,0,1.46-.552A1.911,1.911,0,0,0,144.461,12.518ZM159.119,22H155q0-.313.146-1.777h-.039a4.175,4.175,0,0,1-3.34,2.021,2.732,2.732,0,0,1-2.28-1.025,4.561,4.561,0,0,1-.806-2.881,7.027,7.027,0,0,1,.513-2.617,5.95,5.95,0,0,1,1.416-2.148,6.292,6.292,0,0,1,2.217-1.338,8.836,8.836,0,0,1,3.032-.479,21.7,21.7,0,0,1,4.941.605l-1.3,6.123a15.742,15.742,0,0,0-.269,1.758A17.353,17.353,0,0,0,159.119,22Zm-2.9-7.539a2.516,2.516,0,0,0-.6-.059,2.351,2.351,0,0,0-1.406.449,3.124,3.124,0,0,0-1.011,1.348,4.523,4.523,0,0,0-.386,1.8,1.373,1.373,0,0,0,.254.894.781.781,0,0,0,.625.308,1.559,1.559,0,0,0,1.26-.8,6.38,6.38,0,0,0,.879-2.28Zm13.643.762a3.11,3.11,0,0,0-1.719-.42,2.571,2.571,0,0,0-1.919.811,2.764,2.764,0,0,0-.786,2q0,1.582,1.66,1.582a4.416,4.416,0,0,0,1.045-.142,4.2,4.2,0,0,0,1.035-.4L168.6,21.5a6.124,6.124,0,0,1-1.538.557,7.4,7.4,0,0,1-1.606.186,4.145,4.145,0,0,1-3.052-1.1,4.064,4.064,0,0,1-1.108-3.022,6.371,6.371,0,0,1,.845-3.223,6.023,6.023,0,0,1,2.349-2.31,6.862,6.862,0,0,1,3.389-.835,5.92,5.92,0,0,1,2.656.527Zm9.7,1.7L181.443,22H176.9l-1.445-5.039h-.039L174.344,22h-4.16l3.154-14.8h4.16l-2,9.4h.049l3.271-4.6H183.6Zm9.6-7.725a1.879,1.879,0,0,1-.679,1.5,2.66,2.66,0,0,1-1.782.576,2.4,2.4,0,0,1-1.592-.513,1.6,1.6,0,0,1-.615-1.284,1.9,1.9,0,0,1,.684-1.519,2.68,2.68,0,0,1,1.8-.581,2.4,2.4,0,0,1,1.572.5A1.616,1.616,0,0,1,189.158,9.2Zm-3.2,13.047a3.314,3.314,0,0,1-2.314-.771,2.636,2.636,0,0,1-.85-2.051A7.039,7.039,0,0,1,183,17.9l1.279-5.9h4.16l-1.221,5.762a3.3,3.3,0,0,0-.1.762q0,.557.674.557a2.731,2.731,0,0,0,1.1-.244l-.645,3.027a4.014,4.014,0,0,1-.889.259A7.18,7.18,0,0,1,185.955,22.244ZM200.6,14.217a8.132,8.132,0,0,1-.225,1.7L199.1,22h-4.16l1.182-5.537a4.55,4.55,0,0,0,.166-1.006.583.583,0,0,0-.664-.654,1.659,1.659,0,0,0-1.143.7,3.423,3.423,0,0,0-.8,1.577L192.664,22h-4.2l1.416-6.641q.342-1.621.586-3.359h4.092a11.268,11.268,0,0,1-.2,1.719h.039a6.145,6.145,0,0,1,1.841-1.436,4.349,4.349,0,0,1,1.958-.527A2.15,2.15,0,0,1,200.6,14.217Zm3.574,12.48a8.864,8.864,0,0,1-3.359-.674l.684-3.164a5.7,5.7,0,0,0,1.475.708,5.01,5.01,0,0,0,1.5.249,3.144,3.144,0,0,0,2.148-.664,3.574,3.574,0,0,0,1.035-2.012l.156-.762h-.039a4.216,4.216,0,0,1-1.4,1.387,3.423,3.423,0,0,1-1.763.479,2.717,2.717,0,0,1-2.241-1.016,4.26,4.26,0,0,1-.815-2.744,7.045,7.045,0,0,1,.9-3.574,5.818,5.818,0,0,1,2.485-2.363,8.109,8.109,0,0,1,3.672-.791,20.981,20.981,0,0,1,2.5.161,24.04,24.04,0,0,1,2.559.444l-1.7,8.037a9.939,9.939,0,0,1-1.44,3.706,5.644,5.644,0,0,1-2.485,1.948A10.157,10.157,0,0,1,204.178,26.7ZM209.1,14.461a2.949,2.949,0,0,0-.674-.059,2.186,2.186,0,0,0-1.367.483,3.29,3.29,0,0,0-.991,1.328A4.433,4.433,0,0,0,205.7,18a1.373,1.373,0,0,0,.254.894.781.781,0,0,0,.625.308,1.556,1.556,0,0,0,1.235-.786,6.446,6.446,0,0,0,.9-2.29Z" transform="translate(515.833 636.5)" fill="#fff"/>
    <path id="Trazado_876788" data-name="Trazado 876788" d="M110.5,21.619a11.837,11.837,0,0,1-4.014.625,8.168,8.168,0,0,1-3.857-.854,5.85,5.85,0,0,1-2.476-2.432,7.516,7.516,0,0,1-.854-3.638,8.008,8.008,0,0,1,.957-3.945A6.619,6.619,0,0,1,102.957,8.7a8.346,8.346,0,0,1,4.023-.942A13.984,13.984,0,0,1,110.5,8.2v3.9a4.961,4.961,0,0,0-1.4-.547,6.979,6.979,0,0,0-1.641-.2,3.672,3.672,0,0,0-2.71.986,3.606,3.606,0,0,0-.991,2.676,3.543,3.543,0,0,0,.991,2.651,3.624,3.624,0,0,0,2.651.972,6.879,6.879,0,0,0,3.1-.781ZM117.84,22V20.477H117.8a3.272,3.272,0,0,1-3.047,1.768,2.917,2.917,0,0,1-2.217-.84,3.12,3.12,0,0,1-.8-2.246q0-2.949,3.623-3.418l2.48-.322a.946.946,0,0,0-.439-.8,2,2,0,0,0-1.182-.312,7.783,7.783,0,0,0-3.545.957V12.557a9.484,9.484,0,0,1,2.031-.576,11.822,11.822,0,0,1,2.09-.225,5.247,5.247,0,0,1,3.7,1.089,4.853,4.853,0,0,1,1.147,3.638V22Zm-2.461-3.4a.922.922,0,0,0,.259.674.987.987,0,0,0,.737.264,1.311,1.311,0,0,0,1.06-.488,1.892,1.892,0,0,0,.405-1.25V17.42l-1.406.2Q115.379,17.791,115.379,18.6Zm15.654-3.037a4,4,0,0,0-1.3-.283q-2.061,0-2.061,2.383V22h-4.16V12h4.16v1.758h.039a3.123,3.123,0,0,1,1.084-1.44,2.785,2.785,0,0,1,1.641-.493,1.409,1.409,0,0,1,.6.117ZM143.074,20.6a5.685,5.685,0,0,1-1.812,4.487,7.736,7.736,0,0,1-5.288,1.606,11.033,11.033,0,0,1-1.816-.146,5.006,5.006,0,0,1-1.26-.332V22.957a6.284,6.284,0,0,0,2.959.859,3.469,3.469,0,0,0,2.236-.674,2.177,2.177,0,0,0,.84-1.787V20.74h-.039a3.232,3.232,0,0,1-1.235,1.094,3.589,3.589,0,0,1-1.685.41,3.775,3.775,0,0,1-3.057-1.343,5.605,5.605,0,0,1-1.123-3.706,6.627,6.627,0,0,1,.586-2.861,4.465,4.465,0,0,1,1.631-1.909,4.188,4.188,0,0,1,2.3-.669,2.884,2.884,0,0,1,2.578,1.279h.039V12h4.141ZM139,16.717a2.245,2.245,0,0,0-.4-1.4,1.256,1.256,0,0,0-1.05-.518,1.293,1.293,0,0,0-1.123.625,2.951,2.951,0,0,0-.42,1.67,2.89,2.89,0,0,0,.352,1.533,1.214,1.214,0,0,0,1.113.566,1.29,1.29,0,0,0,1.118-.581A2.676,2.676,0,0,0,139,17.059ZM150.623,22V20.477h-.039a3.272,3.272,0,0,1-3.047,1.768,2.917,2.917,0,0,1-2.217-.84,3.12,3.12,0,0,1-.8-2.246q0-2.949,3.623-3.418l2.48-.322a.946.946,0,0,0-.439-.8A2,2,0,0,0,149,14.3a7.783,7.783,0,0,0-3.545.957V12.557a9.484,9.484,0,0,1,2.031-.576,11.822,11.822,0,0,1,2.09-.225,5.247,5.247,0,0,1,3.7,1.089,4.853,4.853,0,0,1,1.147,3.638V22Zm-2.461-3.4a.922.922,0,0,0,.259.674.987.987,0,0,0,.737.264,1.311,1.311,0,0,0,1.06-.488,1.892,1.892,0,0,0,.405-1.25V17.42l-1.406.2Q148.162,17.791,148.162,18.6Z" transform="translate(1040.833 636.5)" fill="#fff"/>
    <path id="Trazado_874789" data-name="Trazado 874789" d="M-12474.333-9250H-12525v-205h2v203h48.667Z" transform="translate(12759.333 10131)" fill="#ff725d"/>
    <path id="Trazado_874790" data-name="Trazado 874790" d="M-12474.333-9250H-12525v-205h2v203h48.667Z" transform="translate(13074.333 10131)" fill="#ff725d"/>
    <path id="Trazado_876789" data-name="Trazado 876789" d="M50,1H0V-1H50Z" transform="translate(235.333 815)" fill="#ff725d"/>
    <path id="Trazado_876790" data-name="Trazado 876790" d="M50,1H0V-1H50Z" transform="translate(550.333 815)" fill="#ff725d"/>
    <path id="Trazado_876791" data-name="Trazado 876791" d="M50,1H0V-1H50Z" transform="translate(810.333 907.75)" fill="#ff725d"/>
    <path id="Trazado_876792" data-name="Trazado 876792" d="M50,1H0V-1H50Z" transform="translate(235.333 750)" fill="#ff725d"/>
    <path id="Trazado_876793" data-name="Trazado 876793" d="M50,1H0V-1H50Z" transform="translate(550.333 750)" fill="#ff725d"/>
    <path id="Trazado_876794" data-name="Trazado 876794" d="M50,1H0V-1H50Z" transform="translate(810.333 842.75)" fill="#ff725d"/>
    <path id="Trazado_876795" data-name="Trazado 876795" d="M50,1H0V-1H50Z" transform="translate(810.333 777.75)" fill="#ff725d"/>
    <path id="Trazado_876796" data-name="Trazado 876796" d="M34,1H0V-1H34Z" transform="translate(1373.333 790.75)" fill="#ff725d"/>
    <path id="Trazado_874791" data-name="Trazado 874791" d="M-11590.5-9509h-2v-40H-12431v40h-2v-42h842.5Z" transform="translate(12759.333 10130)" fill="#ff725d"/>
    <path id="Trazado_876797" data-name="Trazado 876797" d="M1,49H-1V0H1Z" transform="translate(799.833 531.5)" fill="#ff725d"/>
    <path id="Trazado_876798" data-name="Trazado 876798" d="M1,40.5H-1V0H1Z" transform="translate(642.833 580.5)" fill="#ff725d"/>
    <path id="Trazado_876799" data-name="Trazado 876799" d="M1,43.25H-1V0H1Z" transform="translate(1167.833 676.5)" fill="#ff725d"/>
    <path id="Trazado_874793" data-name="Trazado 874793" d="M-11899-9184.5h-51.333V-9439H-11351v164.037h-35v-2h33V-9437h-595.333v250.5H-11899Z" transform="translate(12759.333 10157.75)" fill="#ff725d"/>
  </g>
</svg>
